<svg width="80" height="80" viewBox="0 0 80 80" fill="none" xmlns="http://www.w3.org/2000/svg">
<g clip-path="url(#clip0)">
<path d="M39.485 3.43701C18.3426 3.43701 1.20343 20.5762 1.20343 41.7186C1.20343 48.2034 2.81812 54.3103 5.6639 59.6629L35.2742 79.7685C36.6572 79.92 38.0616 80.0001 39.485 80.0001C60.6273 80.0001 77.7666 62.8609 77.7666 41.7186C77.7666 20.5762 60.6273 3.43701 39.485 3.43701Z" fill="#4FABF7"/>
<path d="M39.1581 54.7804C38.8036 54.7804 38.4533 54.6204 38.2228 54.3157C37.8322 53.7996 37.9339 53.0646 38.45 52.674L52.6231 41.946C53.1392 41.5556 53.874 41.657 54.2647 42.1732C54.6553 42.6893 54.5536 43.4243 54.0375 43.8149L39.8643 54.5429C39.6529 54.7031 39.4045 54.7804 39.1581 54.7804Z" fill="#E9EFFF"/>
<path d="M51.4455 29.635C51.2606 29.635 51.0731 29.5911 50.8984 29.4986L27.6109 17.1767C27.0389 16.8741 26.8205 16.1649 27.1231 15.5928C27.4258 15.0205 28.1349 14.8024 28.707 15.1052L51.9944 27.427C52.5664 27.7297 52.7848 28.4389 52.4822 29.011C52.272 29.4083 51.8656 29.635 51.4455 29.635Z" fill="#E9EFFF"/>
<path d="M36.3145 78.3262C37.785 77.4604 38.6553 76.7828 38.6553 76.7828C41.6941 73.3883 43.5425 68.9065 43.5425 63.9926C43.5425 53.3973 34.9533 44.8081 24.358 44.8081C15.2516 44.8081 7.62719 51.153 5.66406 59.663C8.69359 65.3611 13.1225 70.1998 18.49 73.7275L36.3145 78.3262Z" fill="#FFDD40"/>
<path d="M30.3528 65.5181C30.3528 65.5181 27.5767 50.8072 25.3345 48.5648C23.8317 47.062 24.3433 45.6095 24.8442 44.8142C24.6827 44.8101 24.5205 44.8081 24.358 44.8081C15.2516 44.8081 7.62719 51.153 5.66406 59.663C8.69359 65.3611 13.1225 70.1998 18.49 73.7275L36.3147 78.3262C37.7852 77.4604 38.6555 76.7828 38.6555 76.7828C40.7689 74.4219 42.3056 71.5348 43.0461 68.3425C36.2148 72.1898 30.3528 65.5181 30.3528 65.5181Z" fill="#FFB332"/>
<path d="M29.7428 73.3505C29.092 72.4325 28.9119 71.0134 28.8766 69.9844C28.4201 70.5161 27.9411 70.9606 27.4834 71.3161C25.6478 72.7416 23.0658 72.7397 21.2325 71.3161C20.7748 70.9606 20.2958 70.5161 19.8394 69.9844C19.8031 71.0364 19.6158 72.4959 18.9292 73.4111C18.8245 73.5508 18.6673 73.6644 18.4809 73.7258C20.8636 75.2925 23.4308 76.6011 26.1442 77.61C27.3555 77.3461 28.4997 76.8167 29.4875 76.0497C30.1669 75.5222 30.8744 74.8725 31.5576 74.1083C31.1633 73.9812 30.7623 73.8645 30.3514 73.7616C30.1025 73.6992 29.8839 73.5495 29.7428 73.3505Z" fill="#FCAD6D"/>
<path d="M24.422 72.3819C23.2962 72.3959 22.167 72.0419 21.2325 71.3161C20.7748 70.9606 20.2958 70.5161 19.8394 69.9844C19.8031 71.0364 19.6158 72.4959 18.9292 73.4111C18.8245 73.5508 18.6673 73.6644 18.4809 73.7258C20.1114 74.798 21.83 75.7458 23.6209 76.5628C24.2161 75.3191 24.3911 73.6731 24.422 72.3819Z" fill="#FD995B"/>
<path d="M35.3933 75.8031C34.0794 75.0622 32.722 74.4597 31.2592 74.0151C30.5874 74.7786 29.8875 75.4212 29.2172 75.9417C28.2095 76.7242 27.0302 77.2453 25.7845 77.4725C28.7845 78.6228 31.9658 79.4062 35.2742 79.7684C36.5156 78.9076 37.651 77.9048 38.6556 76.7823C38.146 76.6239 37.587 76.5145 36.9738 76.4644C36.3908 76.4167 36.0805 76.1906 35.3933 75.8031Z" fill="#3C58A0"/>
<path d="M39.485 3.43701C38.0556 3.43701 36.6451 3.51795 35.2564 3.67061C35.515 4.76186 35.7737 5.85326 36.0323 6.94451C36.3364 8.22701 36.6604 9.55279 37.467 10.5953C37.9733 11.2495 38.6429 11.7555 39.3123 12.2415C41.2786 13.6695 43.3398 15.0114 45.6236 15.842C47.9073 16.6726 50.4484 16.9639 52.7773 16.2698C54.9239 15.6301 56.8115 14.1894 59.0264 13.8559C61.0345 13.5536 63.1331 14.1964 65.094 13.6679C65.2053 13.6379 65.3151 13.604 65.4235 13.567C58.6028 7.2792 49.4931 3.43701 39.485 3.43701Z" fill="#73C3F9"/>
<path d="M46.4576 79.3648C59.1644 77.0262 69.6728 68.4139 74.654 56.8578C73.3775 57.0983 72.0606 57.1817 70.7723 57.1439C67.2765 57.0412 63.8551 56.163 60.3883 55.7025C59.0939 55.5306 57.778 55.4172 56.4848 55.5989C53.1656 56.0656 50.24 58.6411 49.3564 61.8744C48.6145 64.5887 49.2322 67.4669 49.1815 70.2803C49.1237 73.4809 48.1644 76.6578 46.4576 79.3648Z" fill="#73C3F9"/>
<path d="M22.8467 48.605C18.3085 49.2232 17.8773 51.7962 17.8753 52.7403C17.8748 52.9382 17.7651 53.1217 17.5871 53.2082C15.2265 54.3565 16.4993 59.8911 16.4993 59.8911C16.7364 59.9068 17.092 60.1103 17.277 60.2C17.3223 59.9179 17.3964 59.6403 17.5007 59.372C17.5803 59.1675 17.6798 58.9609 17.8043 58.7657C18.0203 58.4272 18.1185 58.0276 18.0892 57.6281C18.0043 56.4734 17.9378 54.3057 19.4618 53.6201C20.7529 53.0392 22.3368 53.3756 23.3468 53.7114C24.0028 53.9295 24.7132 53.9295 25.3692 53.7114C26.3792 53.3754 27.9629 53.039 29.2542 53.6201C30.7739 54.3039 30.7115 56.4606 30.6276 57.6182C30.5984 58.0207 30.6942 58.4243 30.9117 58.7657C31.0401 58.9672 31.142 59.1809 31.2229 59.3918C31.3234 59.654 31.3949 59.925 31.4392 60.2001C31.6724 60.0872 32.1132 59.8565 32.3985 59.897C32.4335 58.6868 32.5453 57.3822 32.5453 57.3822C33.8896 50.7953 27.7329 47.9392 22.8467 48.605Z" fill="#2A428C"/>
<path d="M22.8467 48.6045C18.3085 49.2228 17.8773 51.7958 17.8753 52.7399C17.8748 52.9378 17.7651 53.1213 17.5871 53.208C15.2265 54.3563 16.4993 59.8908 16.4993 59.8908C16.7364 59.9066 17.092 60.11 17.277 60.1997C17.3223 59.9177 17.3964 59.64 17.5007 59.3716C17.5803 59.167 17.6798 58.9605 17.8043 58.7653C18.0203 58.4267 18.1186 58.0272 18.0892 57.6277C18.0043 56.473 17.9378 54.3053 19.4618 53.6197C20.7529 53.0388 22.3368 53.3752 23.3468 53.711C23.6231 53.8028 23.9092 53.8536 24.1967 53.8681C24.1526 53.7925 24.1056 53.7175 24.0529 53.6436C22.1061 50.9072 24.8123 48.9133 25.3345 48.5649C24.4968 48.4813 23.6543 48.4945 22.8467 48.6045Z" fill="#1C2E7A"/>
<path d="M32.8009 60.0541C32.4475 59.7302 31.7434 59.8945 31.439 60.0927C31.5058 60.508 31.5095 60.9329 31.4519 61.3524L31.0926 63.9688C31.0926 64.1798 31.0859 64.3866 31.0737 64.5899C31.9497 64.8541 32.3848 64.0677 32.4581 63.528C32.4897 63.2957 32.5412 63.0668 32.6128 62.8434C32.8459 62.1155 33.6864 60.8657 32.8009 60.0541Z" fill="#FCAD6D"/>
<path d="M15.9148 60.0541C16.2683 59.7302 16.9723 59.8945 17.2767 60.0927C17.21 60.508 17.2062 60.9329 17.2639 61.3524L17.6231 63.9688C17.6231 64.1798 17.6298 64.3866 17.642 64.5899C16.7661 64.8541 16.3309 64.0677 16.2576 63.528C16.2261 63.2957 16.1745 63.0668 16.1029 62.8434C15.8698 62.1155 15.0294 60.8657 15.9148 60.0541Z" fill="#FD995B"/>
<path d="M31.3301 59.2842C31.2492 59.0732 31.1473 58.8596 31.0189 58.6581C30.8014 58.3168 30.7056 57.9131 30.7348 57.5106C30.8187 56.3529 30.7737 54.0889 29.254 53.405C27.9629 52.824 26.3792 53.1604 25.3692 53.4962C24.7132 53.7143 24.0025 53.7143 23.3465 53.4962C22.3365 53.1604 20.7528 52.824 19.4617 53.405C17.9376 54.0907 17.8967 56.3659 17.9815 57.5204C18.0109 57.9198 17.9126 58.3193 17.6967 58.6581C17.5723 58.8532 17.4728 59.06 17.3931 59.2643C17.1348 59.9276 17.0596 60.6471 17.1564 61.3515L17.5157 63.9686C17.5157 67.7309 19.524 70.2881 21.2325 71.6146C22.1242 72.3071 23.2246 72.6832 24.3579 72.6832C25.4912 72.6832 26.5917 72.3071 27.4834 71.6146C29.1917 70.2881 31.2001 67.7309 31.2001 63.9686L31.5593 61.3521C31.655 60.6546 31.5823 59.9423 31.3301 59.2842Z" fill="#F9BA8F"/>
<path d="M26.2217 71.6146C24.5134 70.2881 22.505 67.7309 22.505 63.9686L22.1456 61.3515C22.0489 60.6471 22.1242 59.9276 22.3823 59.2643C22.462 59.0598 22.5614 58.8532 22.6859 58.6581C22.9018 58.3193 23.0001 57.92 22.9707 57.5204C22.894 56.4765 22.9204 54.5167 24.0526 53.6437C23.8136 53.6209 23.5765 53.5728 23.3462 53.4962C22.3362 53.1604 20.7525 52.824 19.4614 53.405C17.9373 54.0907 17.8964 56.3659 17.9812 57.5204C18.0106 57.9198 17.9123 58.3193 17.6964 58.6581C17.572 58.8532 17.4725 59.06 17.3928 59.2643C17.1346 59.9276 17.0593 60.6471 17.1561 61.3515L17.5154 63.9686C17.5154 67.7309 19.5239 70.2881 21.2321 71.6146C22.1239 72.3071 23.2243 72.6832 24.3576 72.6832C25.2364 72.6832 26.095 72.4562 26.8523 72.0317C26.6332 71.9087 26.422 71.7701 26.2217 71.6146Z" fill="#FCAD6D"/>
<path d="M63.7656 49.1211C69.7394 49.1211 74.9675 45.0486 74.9675 45.0486C77.3484 42.3891 78.7966 38.8777 78.7966 35.0275C78.7966 26.7261 72.0669 19.9966 63.7656 19.9966C55.4644 19.9966 48.7347 26.7263 48.7347 35.0275C48.7347 38.8775 50.183 42.3889 52.5634 45.0483C52.5634 45.0483 57.792 49.1211 63.7656 49.1211Z" fill="#FF4155"/>
<path d="M68.4464 36.8074C68.4464 36.8074 66.2481 24.193 64.5308 22.9399C62.8816 21.7366 64.1461 20.1341 64.2491 20.0088C64.0881 20.0038 63.9278 19.9966 63.7656 19.9966C55.4642 19.9966 48.7347 26.7263 48.7347 35.0275C48.7347 38.8775 50.1828 42.3889 52.5634 45.0483C52.5634 45.0483 57.792 49.1211 63.7656 49.1211C69.7392 49.1211 74.9675 45.0486 74.9675 45.0486C76.4044 43.4435 77.4983 41.5267 78.1425 39.4138C72.9025 41.7246 68.4464 36.8074 68.4464 36.8074Z" fill="#E80054"/>
<path d="M59.7467 44.4739C60.8933 45.3643 62.3083 45.8479 63.7656 45.8479C65.2228 45.8479 66.6378 45.3643 67.7844 44.4739C68.3166 44.0606 68.8711 43.5515 69.4064 42.9528C69.0973 42.8534 68.7833 42.7617 68.4612 42.6811C68.2664 42.6323 68.0951 42.515 67.9845 42.359C67.4747 41.6398 67.3334 40.5279 67.3058 39.7217C66.9481 40.1382 66.5728 40.4865 66.2142 40.7651C64.7761 41.882 62.7531 41.8806 61.3167 40.7651C60.9581 40.4867 60.5828 40.1382 60.2253 39.7217C60.1969 40.5459 60.0501 41.6895 59.5122 42.4065C59.4205 42.5289 59.2789 42.6289 59.1094 42.6709C58.7745 42.7539 58.4469 42.8486 58.1244 42.9526C58.66 43.5514 59.2145 44.0606 59.7467 44.4739Z" fill="#FCAD6D"/>
<path d="M63.7461 41.6015C62.8873 41.5973 62.0297 41.3189 61.3167 40.7651C60.9583 40.4867 60.583 40.1384 60.2253 39.7217C60.1969 40.5459 60.0501 41.6895 59.5122 42.4065C59.4203 42.5289 59.279 42.6289 59.1094 42.6709C58.7745 42.7539 58.4469 42.8484 58.1244 42.9526C58.6598 43.5515 59.2142 44.0606 59.7465 44.474C60.3925 44.9756 61.1253 45.3428 61.9011 45.5725C63.1359 44.3297 63.5855 42.7039 63.7461 41.6015Z" fill="#FD995B"/>
<path d="M73.6501 44.7993C73.1934 44.7619 72.9503 44.5847 72.4118 44.2812C71.3823 43.7007 70.3189 43.2287 69.1728 42.8804C68.6464 43.4785 68.0979 43.9821 67.5729 44.3897C66.4867 45.2333 65.1462 45.6915 63.7658 45.6915C62.3853 45.6915 61.0448 45.2333 59.9586 44.3897C59.4336 43.9821 58.8851 43.4785 58.3587 42.8804C57.2159 43.2283 56.1461 43.7024 55.1197 44.2812C54.5812 44.5847 54.3383 44.7619 53.8814 44.7993C53.4008 44.8385 52.9629 44.9243 52.5636 45.0483C55.3159 48.123 59.3145 50.0585 63.7658 50.0585C68.217 50.0585 72.2158 48.1229 74.9681 45.0483C74.5686 44.9243 74.1306 44.8386 73.6501 44.7993Z" fill="#3C58A0"/>
<path d="M62.5815 22.9713C59.0259 23.4558 58.6881 25.4716 58.6864 26.2113C58.6861 26.3664 58.6001 26.5102 58.4606 26.578C56.6111 27.4777 57.6083 31.8139 57.6083 31.8139C57.794 31.8263 58.0726 31.9856 58.2175 32.0559C58.2529 31.835 58.3109 31.6175 58.3928 31.4072C58.4551 31.247 58.5331 31.0852 58.6306 30.9322C58.7998 30.6669 58.8768 30.3538 58.8537 30.0409C58.7873 29.1363 58.7351 27.438 59.9292 26.9006C60.9408 26.4455 62.1817 26.7091 62.9731 26.9722C63.487 27.1431 64.0437 27.1431 64.5576 26.9722C65.349 26.7091 66.5898 26.4455 67.6015 26.9006C68.7922 27.4364 68.7433 29.1261 68.6776 30.0331C68.6548 30.3484 68.7297 30.6647 68.9001 30.9322C69.0008 31.09 69.0806 31.2574 69.144 31.4227C69.2228 31.6281 69.2789 31.8405 69.3134 32.0559C69.4962 31.9674 69.8415 31.7867 70.065 31.8184C70.0923 30.8703 70.1798 29.8481 70.1798 29.8481C71.2337 24.6875 66.41 22.4497 62.5815 22.9713Z" fill="#2A428C"/>
<path d="M62.5815 22.9713C59.0259 23.4559 58.6881 25.4716 58.6864 26.2113C58.6861 26.3665 58.6001 26.5102 58.4606 26.5781C56.6111 27.4777 57.6083 31.814 57.6083 31.814C57.794 31.8263 58.0726 31.9857 58.2176 32.056C58.2531 31.8351 58.3111 31.6174 58.3929 31.4073C58.4553 31.247 58.5333 31.0852 58.6308 30.9323C58.8 30.667 58.877 30.3538 58.8539 30.041C58.7875 29.1363 58.7353 27.4381 59.9293 26.9007C60.9409 26.4456 62.1818 26.7091 62.9733 26.9723C63.1897 27.0443 63.4139 27.084 63.6392 27.0954C63.6047 27.0362 63.5678 26.9774 63.5265 26.9195C62.0012 24.7756 64.1214 23.2134 64.5308 22.9402C63.8745 22.8749 63.2145 22.8852 62.5815 22.9713Z" fill="#1C2E7A"/>
<path d="M70.3806 31.9416C70.1037 31.6879 69.552 31.8165 69.3136 31.972C69.3658 32.2973 69.3687 32.6302 69.3236 32.959L69.0422 35.009C69.0422 35.1743 69.037 35.3363 69.0273 35.4957C69.7136 35.7027 70.0545 35.0866 70.112 34.6637C70.1367 34.4816 70.1772 34.3023 70.2333 34.1271C70.4159 33.5568 71.0745 32.5774 70.3806 31.9416Z" fill="#FCAD6D"/>
<path d="M57.1506 31.9416C57.4275 31.6879 57.9792 31.8165 58.2176 31.972C58.1654 32.2973 58.1625 32.6302 58.2075 32.959L58.4889 35.009C58.4889 35.1743 58.494 35.3363 58.5037 35.4957C57.8175 35.7027 57.4765 35.0866 57.419 34.6637C57.3943 34.4816 57.3539 34.3023 57.2978 34.1271C57.1153 33.5568 56.4567 32.5774 57.1506 31.9416Z" fill="#FD995B"/>
<path d="M69.2282 31.3384C69.1648 31.1731 69.085 31.0058 68.9843 30.8479C68.8139 30.5806 68.7389 30.2642 68.7618 29.9489C68.8276 29.0419 68.7923 27.2679 67.6017 26.7322C66.5901 26.277 65.3493 26.5404 64.5579 26.8037C64.044 26.9747 63.487 26.9747 62.9731 26.8037C62.1818 26.5406 60.9409 26.277 59.9293 26.7322C58.7353 27.2694 58.7032 29.052 58.7697 29.9565C58.7926 30.2695 58.7156 30.5825 58.5465 30.8478C58.449 31.0008 58.3711 31.1626 58.3087 31.3228C58.1064 31.8425 58.0475 32.4062 58.1232 32.9581L58.4048 35.0084C58.4048 37.9561 59.9784 39.9597 61.3168 40.999C62.0154 41.5415 62.8776 41.8362 63.7656 41.8362C64.6536 41.8362 65.5157 41.5415 66.2143 40.999C67.5528 39.9597 69.1264 37.9561 69.1264 35.0084L69.4078 32.9584C69.4828 32.4123 69.4259 31.8542 69.2282 31.3384Z" fill="#F9BA8F"/>
<path d="M65.2259 40.9992C63.8875 39.9598 62.3139 37.9562 62.3139 35.0085L62.0323 32.9582C61.9565 32.4063 62.0154 31.8426 62.2178 31.3229C62.2801 31.1627 62.3581 31.0009 62.4556 30.8479C62.6248 30.5826 62.7018 30.2695 62.6787 29.9567C62.6186 29.1387 62.6392 27.6032 63.5264 26.9193C63.3392 26.9013 63.1534 26.8637 62.9729 26.8037C62.1817 26.5406 60.9407 26.277 59.9292 26.7321C58.7351 27.2693 58.7031 29.052 58.7695 29.9565C58.7925 30.2695 58.7154 30.5824 58.5464 30.8477C58.4489 31.0007 58.3709 31.1626 58.3086 31.3227C58.1062 31.8424 58.0473 32.4062 58.1231 32.9581L58.4047 35.0084C58.4047 37.956 59.9783 39.9596 61.3167 40.999C62.0153 41.5415 62.8775 41.8362 63.7654 41.8362C64.454 41.8362 65.1267 41.6582 65.72 41.3257C65.5482 41.2296 65.3828 41.121 65.2259 40.9992Z" fill="#FCAD6D"/>
<path d="M59.9584 44.3897C59.4334 43.9821 58.885 43.4785 58.3586 42.8804C57.2158 43.2283 56.1459 43.7022 55.1195 44.2812C54.5811 44.5847 54.3381 44.7619 53.8813 44.7993C53.4006 44.8386 52.9628 44.9243 52.5634 45.0483C53.742 46.3649 55.1505 47.4705 56.7238 48.3068C57.3117 47.8229 58.1341 47.3832 59.2867 47.0665C60.4933 46.7351 61.3792 46.1411 62.0313 45.4397C61.2844 45.2232 60.5791 44.8718 59.9584 44.3897Z" fill="#2A428C"/>
<path d="M18.9442 22.5308C23.5653 22.5308 27.6097 19.3805 27.6097 19.3805C29.4514 17.3232 30.5717 14.6068 30.5717 11.6286C30.5716 5.20676 25.3658 0.000976562 18.9442 0.000976562C12.5225 0.000976562 7.31671 5.20676 7.31671 11.6285C7.31671 14.6068 8.43702 17.323 10.2786 19.3802C10.2784 19.3802 14.3231 22.5308 18.9442 22.5308Z" fill="#4CE088"/>
<path d="M22.565 13.0044C22.565 13.0044 20.8644 3.24625 19.5359 2.27688C18.2601 1.34594 19.2383 0.106406 19.318 0.009375C19.1934 0.00546875 19.0695 0 18.9441 0C12.5225 0.00015625 7.31671 5.20594 7.31671 11.6277C7.31671 14.6059 8.43702 17.3222 10.2784 19.3794C10.2784 19.3794 14.3231 22.53 18.9441 22.53C23.5651 22.53 27.6095 19.3797 27.6095 19.3797C28.7211 18.138 29.5672 16.6552 30.0655 15.0208C26.012 16.8081 22.565 13.0044 22.565 13.0044Z" fill="#30C16B"/>
<path d="M15.8353 18.9349C16.7224 19.6236 17.8169 19.9977 18.9442 19.9977C20.0716 19.9977 21.1661 19.6236 22.0531 18.9349C22.4649 18.6152 22.8938 18.2214 23.3078 17.7582C23.0688 17.6813 22.8258 17.6104 22.5767 17.548C22.426 17.5102 22.2935 17.4196 22.208 17.2989C21.8136 16.7425 21.7044 15.8825 21.6828 15.2588C21.4063 15.581 21.116 15.8505 20.8385 16.066C19.726 16.9299 18.161 16.9288 17.0499 16.066C16.7725 15.8505 16.4822 15.5811 16.2055 15.2588C16.1834 15.8964 16.07 16.781 15.6538 17.3357C15.5828 17.4304 15.4733 17.5077 15.3422 17.5402C15.0831 17.6043 14.8297 17.6775 14.5803 17.758C14.9945 18.2211 15.4236 18.615 15.8353 18.9349Z" fill="#FCAD6D"/>
<path d="M18.9291 16.7129C18.2647 16.7096 17.6014 16.4943 17.0499 16.0658C16.7725 15.8504 16.4822 15.581 16.2056 15.2588C16.1836 15.8964 16.07 16.781 15.6539 17.3357C15.583 17.4304 15.4736 17.5077 15.3423 17.5402C15.0833 17.6043 14.8298 17.6775 14.5805 17.758C14.9947 18.2213 15.4236 18.615 15.8355 18.9349C16.3352 19.3229 16.902 19.6069 17.5022 19.7846C18.457 18.8232 18.8049 17.5655 18.9291 16.7129Z" fill="#FD995B"/>
<path d="M26.5904 19.187C26.237 19.1581 26.049 19.0209 25.6325 18.7862C24.8361 18.3372 24.0136 17.972 23.1268 17.7026C22.7197 18.1654 22.2954 18.5548 21.8892 18.8703C21.0489 19.5228 20.012 19.8772 18.944 19.8772C17.8761 19.8772 16.8392 19.5228 15.9989 18.8703C15.5928 18.5548 15.1686 18.1654 14.7612 17.7026C13.8772 17.9719 13.0495 18.3386 12.2556 18.7862C11.839 19.0211 11.6511 19.1583 11.2978 19.187C10.9261 19.2173 10.5873 19.2837 10.2784 19.3797C12.4075 21.7581 15.5008 23.2555 18.944 23.2555C22.3875 23.2555 25.4806 21.7581 27.6097 19.3797C27.3009 19.2836 26.9622 19.2173 26.5904 19.187Z" fill="#3C58A0"/>
<path d="M18.0282 2.30126C15.2778 2.67595 15.0164 4.23548 15.0151 4.80767C15.0148 4.92767 14.9484 5.03892 14.8404 5.09126C13.4096 5.7872 14.181 9.14158 14.181 9.14158C14.3248 9.15111 14.5403 9.27439 14.6525 9.32876C14.68 9.15783 14.7248 8.98954 14.7881 8.82689C14.8364 8.70298 14.8967 8.57767 14.972 8.45939C15.1028 8.25408 15.1625 8.01204 15.1446 7.76986C15.0932 7.07001 15.0529 5.75626 15.9765 5.34064C16.759 4.98845 17.719 5.19236 18.3312 5.39595C18.7287 5.52814 19.1593 5.52814 19.557 5.39595C20.1692 5.19236 21.129 4.98845 21.9117 5.34064C22.8328 5.75501 22.795 7.0622 22.744 7.76392C22.7264 8.00783 22.7843 8.25251 22.9162 8.45939C22.994 8.58158 23.0559 8.71095 23.1048 8.83892C23.1657 8.99783 23.209 9.16204 23.2359 9.32892C23.3773 9.26048 23.6445 9.12064 23.8173 9.14517C23.8384 8.41173 23.9062 7.62095 23.9062 7.62095C24.7212 3.62876 20.9896 1.89767 18.0282 2.30126Z" fill="#2A428C"/>
<path d="M18.0282 2.30151C15.2778 2.6762 15.0164 4.23573 15.0151 4.80792C15.0148 4.92792 14.9484 5.03917 14.8404 5.09151C13.4096 5.78745 14.181 9.14182 14.181 9.14182C14.3248 9.15136 14.5403 9.27464 14.6525 9.32901C14.68 9.15807 14.7248 8.98979 14.7881 8.82714C14.8364 8.70323 14.8967 8.57792 14.972 8.45964C15.1028 8.25432 15.1625 8.01229 15.1446 7.77011C15.0932 7.07026 15.0529 5.75651 15.9765 5.34089C16.759 4.98886 17.719 5.19261 18.3312 5.3962C18.4987 5.45182 18.672 5.48261 18.8464 5.49151C18.8196 5.44573 18.7912 5.40026 18.7593 5.35542C17.5793 3.69698 19.2195 2.48839 19.536 2.27729C19.0284 2.22682 18.5178 2.23479 18.0282 2.30151Z" fill="#1C2E7A"/>
<path d="M24.0614 9.24021C23.8472 9.0438 23.4205 9.14333 23.2359 9.26365C23.2764 9.51537 23.2786 9.77287 23.2437 10.0271L23.0259 11.6129C23.0259 11.7407 23.0219 11.8661 23.0145 11.9893C23.5455 12.1494 23.8092 11.6727 23.8536 11.3457C23.8727 11.2049 23.9039 11.0661 23.9473 10.9307C24.0886 10.4896 24.5981 9.73208 24.0614 9.24021Z" fill="#FCAD6D"/>
<path d="M13.827 9.24021C14.0412 9.0438 14.468 9.14333 14.6525 9.26365C14.612 9.51537 14.6098 9.77287 14.6447 10.0271L14.8625 11.6129C14.8625 11.7407 14.8666 11.8661 14.8739 11.9893C14.343 12.1494 14.0792 11.6727 14.0348 11.3457C14.0158 11.2049 13.9844 11.0661 13.9411 10.9307C13.7997 10.4896 13.2903 9.73208 13.827 9.24021Z" fill="#FD995B"/>
<path d="M23.17 8.77408C23.1209 8.64627 23.0592 8.51674 22.9814 8.39455C22.8495 8.18768 22.7916 7.94299 22.8092 7.69908C22.86 6.99752 22.8328 5.62518 21.9117 5.2108C21.1292 4.85877 20.1694 5.06252 19.5572 5.26612C19.1597 5.3983 18.7287 5.3983 18.3312 5.26612C17.7191 5.06252 16.7592 4.85877 15.9767 5.2108C15.053 5.62643 15.0283 7.00533 15.0797 7.70518C15.0975 7.94721 15.038 8.1894 14.907 8.39471C14.8316 8.51299 14.7712 8.63815 14.7231 8.76221C14.5666 9.16424 14.5209 9.60033 14.5797 10.0272L14.7975 11.6133C14.7975 13.8936 16.0147 15.4435 17.0502 16.2475C17.5906 16.6672 18.2575 16.8952 18.9444 16.8952C19.6312 16.8952 20.2981 16.6672 20.8386 16.2475C21.8739 15.4435 23.0912 13.8936 23.0912 11.6133L23.3091 10.0275C23.3669 9.60471 23.3228 9.17299 23.17 8.77408Z" fill="#F9BA8F"/>
<path d="M20.0739 16.247C19.0384 15.443 17.8212 13.8931 17.8212 11.6128L17.6034 10.0267C17.5448 9.59985 17.5905 9.16375 17.7469 8.76172C17.7952 8.63781 17.8555 8.5125 17.9308 8.39422C18.0617 8.18891 18.1212 7.94672 18.1034 7.70469C18.0569 7.07203 18.073 5.88406 18.7592 5.355C18.6144 5.3411 18.4706 5.31203 18.3311 5.26563C17.7189 5.06203 16.7591 4.85828 15.9766 5.21032C15.0528 5.62594 15.0281 7.00485 15.0795 7.70469C15.0973 7.94672 15.0378 8.18891 14.9069 8.39422C14.8314 8.5125 14.7711 8.63766 14.723 8.76172C14.5666 9.16375 14.5208 9.59985 14.5795 10.0267L14.7973 11.6128C14.7973 13.8931 16.0145 15.443 17.05 16.247C17.5905 16.6667 18.2573 16.8947 18.9442 16.8947C19.4769 16.8947 19.9972 16.757 20.4562 16.4998C20.3233 16.4253 20.1952 16.3414 20.0739 16.247Z" fill="#FCAD6D"/>
<path d="M15.999 18.8701C15.5929 18.5548 15.1687 18.1653 14.7614 17.7026C13.8773 17.9719 13.0497 18.3384 12.2558 18.7862C11.8392 19.0211 11.6512 19.1581 11.2978 19.187C10.9261 19.2175 10.5873 19.2837 10.2784 19.3798C11.1901 20.3983 12.2797 21.2536 13.4965 21.9005C13.9514 21.5261 14.5875 21.1859 15.4792 20.9411C16.4125 20.6847 17.0979 20.2253 17.6023 19.6826C17.0247 19.5148 16.4792 19.243 15.999 18.8701Z" fill="#2A428C"/>
</g>
<defs>
<clipPath id="clip0">
<rect width="80" height="80" fill="white"/>
</clipPath>
</defs>
</svg>
