<svg width="32" height="32" viewBox="0 0 32 32" fill="none" xmlns="http://www.w3.org/2000/svg">
<g clip-path="url(#clip0)">
<path d="M16.6875 31.3125C25.1444 31.3125 32 24.4569 32 16C32 7.54314 25.1444 0.6875 16.6875 0.6875C8.23064 0.6875 1.375 7.54314 1.375 16C1.375 24.4569 8.23064 31.3125 16.6875 31.3125Z" fill="#69CDFF"/>
<path d="M16.5268 22.4082H11.6074V24.9851H16.5268V22.4082Z" fill="#445EA0"/>
<path d="M12.8475 22.4082H11.6074V24.9851H12.8475V22.4082Z" fill="#2E4C89"/>
<path d="M19.8036 24.9229H7.97262C7.79725 24.9229 7.65381 25.0664 7.65381 25.2417V26.8399C7.65381 27.0153 7.79731 27.1588 7.97262 27.1588H19.8036V24.9229Z" fill="#293D7C"/>
<path d="M8.89393 26.8397V25.2415C8.89393 25.0661 9.03743 24.9226 9.21281 24.9226H7.97262C7.79725 24.9226 7.65381 25.0661 7.65381 25.2415V26.8397C7.65381 27.015 7.79731 27.1585 7.97262 27.1585H9.21275C9.03743 27.1585 8.89393 27.015 8.89393 26.8397Z" fill="#1A2B63"/>
<path d="M27.8159 3.68506H0.318875C0.1435 3.68506 0 3.82856 0 4.00393V22.1517C0 22.3271 0.1435 22.4706 0.318875 22.4706H19.8035V12.9228C19.8035 12.6816 19.9998 12.4853 20.241 12.4853H28.1348V4.00393C28.1348 3.82856 27.9912 3.68506 27.8159 3.68506Z" fill="#293D7C"/>
<path d="M1.39966 19.282C1.39966 19.3873 1.48572 19.4733 1.59097 19.4733H19.8034V12.9229C19.8034 12.6817 19.9997 12.4854 20.2409 12.4854H26.7349V6.81226H1.39966V19.282Z" fill="white"/>
<path d="M2.63985 19.282V6.81226H1.39966V19.282C1.39966 19.3873 1.48572 19.4733 1.59097 19.4733H2.83116C2.72591 19.4733 2.63985 19.3872 2.63985 19.282Z" fill="#D9EAFC"/>
<path d="M14.0677 21.8272C14.5431 21.8272 14.9285 21.4418 14.9285 20.9663C14.9285 20.4909 14.5431 20.1055 14.0677 20.1055C13.5922 20.1055 13.2068 20.4909 13.2068 20.9663C13.2068 21.4418 13.5922 21.8272 14.0677 21.8272Z" fill="#445EA0"/>
<path d="M19.8034 13.9465H16.4644C16.3612 13.9465 16.2769 14.0309 16.2769 14.134V17.8615C16.2769 17.9646 16.3612 18.049 16.4644 18.049H19.8034V13.9465Z" fill="#C3DDF4"/>
<path d="M17.517 17.8615V14.134C17.517 14.0309 17.6014 13.9465 17.7045 13.9465H16.4644C16.3612 13.9465 16.2769 14.0309 16.2769 14.134V17.8615C16.2769 17.9646 16.3612 18.049 16.4644 18.049H17.7045C17.6014 18.049 17.517 17.9646 17.517 17.8615Z" fill="#AEC1ED"/>
<path d="M20.2411 12.4855H23.1547V8.39917C23.1547 8.22729 23.0141 8.08667 22.8422 8.08667H5.29272C5.12085 8.08667 4.98022 8.22729 4.98022 8.39917V12.557C4.98022 12.7289 5.12085 12.8695 5.29272 12.8695H19.8073C19.8338 12.6535 20.0181 12.4855 20.2411 12.4855Z" fill="#C3DDF4"/>
<path d="M6.22035 12.5567V8.39893C6.22035 8.22705 6.36097 8.08643 6.53285 8.08643H5.29272C5.12085 8.08643 4.98022 8.22705 4.98022 8.39893V12.5567C4.98022 12.7286 5.12085 12.8692 5.29272 12.8692H6.53285C6.36097 12.8692 6.22035 12.7286 6.22035 12.5567Z" fill="#AEC1ED"/>
<path d="M26.5436 5.31152H1.59097C1.48572 5.31152 1.39966 5.39759 1.39966 5.5029V6.87496H26.7349V5.5029C26.7349 5.39759 26.6488 5.31152 26.5436 5.31152Z" fill="#FFAF10"/>
<path d="M2.83116 5.31152H1.59097C1.48572 5.31152 1.39966 5.39759 1.39966 5.5029V6.87496H2.63978V5.5029C2.63985 5.39759 2.72591 5.31152 2.83116 5.31152Z" fill="#FF9518"/>
<path d="M10.7191 14.9363H5.4585C5.19962 14.9363 4.98975 14.7265 4.98975 14.4675C4.98975 14.2086 5.19962 13.9988 5.4585 13.9988H10.7191C10.978 13.9988 11.1879 14.2086 11.1879 14.4675C11.1879 14.7265 10.978 14.9363 10.7191 14.9363Z" fill="#5DC1D8"/>
<path d="M10.7191 16.4666H5.4585C5.19962 16.4666 4.98975 16.2567 4.98975 15.9978C4.98975 15.7389 5.19962 15.5291 5.4585 15.5291H10.7191C10.978 15.5291 11.1879 15.7389 11.1879 15.9978C11.1879 16.2567 10.978 16.4666 10.7191 16.4666Z" fill="#5DC1D8"/>
<path d="M10.7191 17.9971H5.4585C5.19962 17.9971 4.98975 17.7873 4.98975 17.5283C4.98975 17.2694 5.19962 17.0596 5.4585 17.0596H10.7191C10.978 17.0596 11.1879 17.2694 11.1879 17.5283C11.1879 17.7873 10.978 17.9971 10.7191 17.9971Z" fill="#5DC1D8"/>
<path d="M14.8478 14.9363H12.1399C11.881 14.9363 11.6711 14.7265 11.6711 14.4675C11.6711 14.2086 11.881 13.9988 12.1399 13.9988H14.8478C15.1066 13.9988 15.3165 14.2086 15.3165 14.4675C15.3165 14.7265 15.1066 14.9363 14.8478 14.9363Z" fill="#5DC1D8"/>
<path d="M14.8478 16.4666H12.1399C11.881 16.4666 11.6711 16.2567 11.6711 15.9978C11.6711 15.7389 11.881 15.5291 12.1399 15.5291H14.8478C15.1066 15.5291 15.3165 15.7389 15.3165 15.9978C15.3165 16.2567 15.1066 16.4666 14.8478 16.4666Z" fill="#5DC1D8"/>
<path d="M14.8478 17.9971H12.1399C11.881 17.9971 11.6711 17.7873 11.6711 17.5283C11.6711 17.2694 11.881 17.0596 12.1399 17.0596H14.8478C15.1066 17.0596 15.3165 17.2694 15.3165 17.5283C15.3165 17.7873 15.1066 17.9971 14.8478 17.9971Z" fill="#5DC1D8"/>
<path d="M31.5 12.4229C31.775 12.4229 32 12.6479 32 12.9229V28.0335C32 28.3085 31.775 28.5335 31.5 28.5335H20.241C19.966 28.5335 19.741 28.3085 19.741 28.0335V12.9229C19.741 12.6479 19.966 12.4229 20.241 12.4229H31.5Z" fill="#445EA0"/>
<path d="M21.0981 26.5703C20.9263 26.5703 20.7856 26.4297 20.7856 26.2578V13.6987C20.7856 13.5269 20.9263 13.3862 21.0981 13.3862H30.6433C30.8152 13.3862 30.9558 13.5269 30.9558 13.6987V26.2578C30.9558 26.4297 30.8152 26.5703 30.6433 26.5703H21.0981Z" fill="white"/>
<path d="M22.0258 26.2578V13.6987C22.0258 13.5269 22.1664 13.3862 22.3383 13.3862H21.0981C20.9263 13.3862 20.7856 13.5269 20.7856 13.6987V26.2578C20.7856 26.4297 20.9263 26.5703 21.0981 26.5703H22.3383C22.1664 26.5703 22.0258 26.4297 22.0258 26.2578Z" fill="#D9EAFC"/>
<path d="M25.2856 27.8203C25.1138 27.8203 24.9731 27.6797 24.9731 27.5078V27.3862C24.9731 27.2144 25.1138 27.0737 25.2856 27.0737H26.4558C26.6277 27.0737 26.7683 27.2144 26.7683 27.3862V27.5078C26.7683 27.6797 26.6277 27.8203 26.4558 27.8203H25.2856Z" fill="#445EA0"/>
<path d="M30.9558 14.592V13.6987C30.9558 13.5269 30.8152 13.3862 30.6433 13.3862H21.0981C20.9263 13.3862 20.7856 13.5269 20.7856 13.6987V14.592H30.9558Z" fill="#FFAF10"/>
<path d="M22.3383 13.3862H21.0981C20.9263 13.3862 20.7856 13.5269 20.7856 13.6987V14.592H22.0258V13.6987C22.0258 13.5269 22.1664 13.3862 22.3383 13.3862Z" fill="#FF9518"/>
<path d="M28.0008 20.3081H23.7402C23.4814 20.3081 23.2715 20.0983 23.2715 19.8394C23.2715 19.5804 23.4814 19.3706 23.7402 19.3706H28.0008C28.2597 19.3706 28.4695 19.5804 28.4695 19.8394C28.4695 20.0982 28.2597 20.3081 28.0008 20.3081Z" fill="#5DC1D8"/>
<path d="M28.0008 21.7537H23.7402C23.4814 21.7537 23.2715 21.5438 23.2715 21.2849C23.2715 21.026 23.4814 20.8162 23.7402 20.8162H28.0008C28.2597 20.8162 28.4695 21.026 28.4695 21.2849C28.4695 21.5438 28.2597 21.7537 28.0008 21.7537Z" fill="#5DC1D8"/>
<path d="M28.0008 23.199H23.7402C23.4814 23.199 23.2715 22.9892 23.2715 22.7302C23.2715 22.4713 23.4814 22.2615 23.7402 22.2615H28.0008C28.2597 22.2615 28.4695 22.4713 28.4695 22.7302C28.4695 22.9892 28.2597 23.199 28.0008 23.199Z" fill="#5DC1D8"/>
<path d="M29.9848 18.2662C29.9848 18.4381 29.8442 18.5787 29.6723 18.5787H22.0688C21.897 18.5787 21.7563 18.4381 21.7563 18.2662V15.6885C21.7563 15.5166 21.897 15.376 22.0688 15.376H29.6723C29.8442 15.376 29.9848 15.5166 29.9848 15.6885V18.2662Z" fill="#C3DDF4"/>
<path d="M22.9965 18.2662V15.6885C22.9965 15.5166 23.1371 15.376 23.309 15.376H22.0688C21.897 15.376 21.7563 15.5166 21.7563 15.6885V18.2662C21.7563 18.4381 21.897 18.5787 22.0688 18.5787H23.309C23.1371 18.5787 22.9965 18.4381 22.9965 18.2662Z" fill="#AEC1ED"/>
<path d="M28.8597 25.5884C28.8597 25.7602 28.719 25.9009 28.5472 25.9009H23.1936C23.0217 25.9009 22.8811 25.7602 22.8811 25.5884V24.5315C22.8811 24.3596 23.0217 24.219 23.1936 24.219H28.5472C28.719 24.219 28.8597 24.3596 28.8597 24.5315V25.5884Z" fill="#C3DDF4"/>
<path d="M24.1212 25.5884V24.5315C24.1212 24.3596 24.2619 24.219 24.4337 24.219H23.1936C23.0217 24.219 22.8811 24.3596 22.8811 24.5315V25.5884C22.8811 25.7602 23.0217 25.9009 23.1936 25.9009H24.4337C24.2619 25.9009 24.1212 25.7602 24.1212 25.5884Z" fill="#AEC1ED"/>
</g>
<defs>
<clipPath id="clip0">
<rect width="32" height="32" fill="white"/>
</clipPath>
</defs>
</svg>
