<svg width="30" height="32" viewBox="0 0 30 32" fill="none" xmlns="http://www.w3.org/2000/svg">
<path d="M6.14062 3.2C6.14062 1.43269 7.44801 0 9.06074 0H20.7412C22.3539 0 23.6613 1.43269 23.6613 3.2V28.8C23.6613 30.5673 22.3539 32 20.7412 32H9.06074C7.44801 32 6.14062 30.5673 6.14062 28.8V3.2Z" fill="#FFB31F" fill-opacity="0.1"/>
<path fill-rule="evenodd" clip-rule="evenodd" d="M9.06074 1.6H20.7412C21.5476 1.6 22.2013 2.31634 22.2013 3.2V28.8C22.2013 29.6837 21.5476 30.4 20.7412 30.4H9.06074C8.25437 30.4 7.60068 29.6837 7.60068 28.8V3.2C7.60068 2.31634 8.25437 1.6 9.06074 1.6ZM6.14062 3.2C6.14062 1.43269 7.44801 0 9.06074 0H20.7412C22.3539 0 23.6613 1.43269 23.6613 3.2V28.8C23.6613 30.5673 22.3539 32 20.7412 32H9.06074C7.44801 32 6.14062 30.5673 6.14062 28.8V3.2ZM19.2811 1.60001H10.5207C10.5207 2.48367 11.2371 3.20001 12.1207 3.20001H17.6811C18.5647 3.20001 19.2811 2.48367 19.2811 1.60001Z" fill="#FFB31F"/>
</svg>
