<svg width="32" height="32" viewBox="0 0 32 32" fill="none" xmlns="http://www.w3.org/2000/svg">
<path d="M16 32C24.8366 32 32 24.8366 32 16C32 7.16344 24.8366 0 16 0C7.16344 0 0 7.16344 0 16C0 24.8366 7.16344 32 16 32Z" fill="#FF4155"/>
<path d="M23.5 32H8.5C7.11931 32 6 30.8807 6 29.5V2.5C6 1.11931 7.11931 0 8.5 0H23.5C24.8807 0 26 1.11931 26 2.5V29.5C26 30.8807 24.8807 32 23.5 32Z" fill="#2A428C"/>
<path d="M10.2166 29.5V2.5C10.2166 1.11931 11.3359 0 12.7166 0H8.5C7.11931 0 6 1.11931 6 2.5V29.5C6 30.8807 7.11931 32 8.5 32H12.7166C11.3359 32 10.2166 30.8807 10.2166 29.5Z" fill="#1C2E7A"/>
<path d="M19.2812 2.34375C19.5401 2.34375 19.75 2.13388 19.75 1.875C19.75 1.61612 19.5401 1.40625 19.2812 1.40625C19.0224 1.40625 18.8125 1.61612 18.8125 1.875C18.8125 2.13388 19.0224 2.34375 19.2812 2.34375Z" fill="#112360"/>
<path d="M17.4062 2.34375H12.7188C12.4599 2.34375 12.25 2.13388 12.25 1.875C12.25 1.61612 12.4599 1.40625 12.7188 1.40625H17.4062C17.6651 1.40625 17.875 1.61612 17.875 1.875C17.875 2.13388 17.6651 2.34375 17.4062 2.34375Z" fill="#112360"/>
<path d="M8.5 26.375C8.15481 26.375 7.875 26.0952 7.875 25.75V4.375C7.875 4.02981 8.15481 3.75 8.5 3.75H23.5C23.8452 3.75 24.125 4.02981 24.125 4.375V25.75C24.125 26.0952 23.8452 26.375 23.5 26.375H8.5Z" fill="#9BD8F9"/>
<path d="M16 31.0625C17.0355 31.0625 17.875 30.223 17.875 29.1875C17.875 28.152 17.0355 27.3125 16 27.3125C14.9645 27.3125 14.125 28.152 14.125 29.1875C14.125 30.223 14.9645 31.0625 16 31.0625Z" fill="#1C2E7A"/>
<path d="M16 29.1875C16 28.4936 16.3772 27.8882 16.9375 27.5639C16.6616 27.4043 16.3416 27.3125 16 27.3125C14.9644 27.3125 14.125 28.1519 14.125 29.1875C14.125 30.2231 14.9644 31.0625 16 31.0625C16.3416 31.0625 16.6616 30.9707 16.9375 30.8111C16.3772 30.4868 16 29.8814 16 29.1875Z" fill="#112360"/>
<path d="M18.5554 10.0244L18.5105 9.62906C18.4962 9.50288 18.5688 9.383 18.6872 9.33719C18.8692 9.26688 18.9251 9.03606 18.795 8.89075C18.1083 8.12356 17.1106 7.64062 16 7.64062C13.9289 7.64062 12.25 9.31956 12.25 11.3906V14.5156H14.125V11.3906C14.125 10.3551 14.9644 9.51562 16 9.51562C16.6537 9.51562 17.2289 9.85037 17.5644 10.3576C17.6317 10.4594 17.7589 10.5036 17.8758 10.4684L18.3584 10.3232C18.4877 10.2843 18.5706 10.1586 18.5554 10.0244Z" fill="white"/>
<path d="M19.0179 11.9563L19.0651 11.684C19.0958 11.507 18.9537 11.3475 18.7743 11.3576L18.1384 11.3935C17.9906 11.4018 17.875 11.5241 17.875 11.6722V14.5157H19.75V12.5934C19.75 12.4546 19.6479 12.3368 19.5105 12.3171L19.2533 12.2803C19.0976 12.2579 18.991 12.1113 19.0179 11.9563Z" fill="white"/>
<path d="M15.0625 8.57812C15.0625 8.06037 15.4822 7.64062 16 7.64062C13.9289 7.64062 12.25 9.31956 12.25 11.3906V14.5156H14.125V11.3906C14.125 10.3551 14.9644 9.51562 16 9.51562C15.4822 9.51562 15.0625 9.09588 15.0625 8.57812Z" fill="#D3DCFB"/>
<path d="M19.2965 9.93511L19.0981 10.6489C19.0601 10.7855 19.1189 10.9307 19.2414 11.0023L19.9011 11.3884C20.1094 11.5104 20.3715 11.3601 20.3715 11.1187V10.0188C20.3715 9.84624 20.2316 9.7063 20.059 9.7063H19.5976C19.4572 9.7063 19.3341 9.79986 19.2965 9.93511Z" fill="white"/>
<path d="M19.75 22.4844H12.25C11.2144 22.4844 10.375 21.6449 10.375 20.6094V14.9844C10.375 13.9488 11.2144 13.1094 12.25 13.1094H19.75C20.7856 13.1094 21.625 13.9488 21.625 14.9844V20.6094C21.625 21.6449 20.7856 22.4844 19.75 22.4844Z" fill="#FFDD40"/>
<path d="M12.25 20.6094V14.9844C12.25 13.9489 13.0894 13.1094 14.125 13.1094H12.25C11.2144 13.1094 10.375 13.9489 10.375 14.9844V20.6094C10.375 21.6449 11.2144 22.4844 12.25 22.4844H14.125C13.0894 22.4844 12.25 21.6449 12.25 20.6094Z" fill="#FFB332"/>
<path d="M16.9375 16.8594C16.9375 16.3416 16.5178 15.9219 16 15.9219C15.4822 15.9219 15.0625 16.3416 15.0625 16.8594C15.0625 17.2062 15.2513 17.5082 15.5312 17.6704V19.2031C15.5312 19.462 15.7411 19.6719 16 19.6719C16.2589 19.6719 16.4688 19.462 16.4688 19.2031V17.6704C16.7487 17.5082 16.9375 17.2062 16.9375 16.8594Z" fill="#FFB332"/>
<path d="M13.0312 16.8594H10.375V15.9219H13.0312C13.2901 15.9219 13.5 16.1317 13.5 16.3906C13.5 16.6495 13.2901 16.8594 13.0312 16.8594Z" fill="#FFB332"/>
<path d="M13.0312 19.6719H10.375V18.7344H13.0312C13.2901 18.7344 13.5 18.9442 13.5 19.2031C13.5 19.462 13.2901 19.6719 13.0312 19.6719Z" fill="#FFB332"/>
<path d="M13.0312 18.2656H10.375V17.3281H13.0312C13.2901 17.3281 13.5 17.538 13.5 17.7969C13.5 18.0558 13.2901 18.2656 13.0312 18.2656Z" fill="#FFB332"/>
<path d="M18.9688 16.8594H21.625V15.9219H18.9688C18.7099 15.9219 18.5 16.1317 18.5 16.3906C18.5 16.6495 18.7099 16.8594 18.9688 16.8594Z" fill="#FFB332"/>
<path d="M18.9688 19.6719H21.625V18.7344H18.9688C18.7099 18.7344 18.5 18.9442 18.5 19.2031C18.5 19.462 18.7099 19.6719 18.9688 19.6719Z" fill="#FFB332"/>
<path d="M18.9688 18.2656H21.625V17.3281H18.9688C18.7099 17.3281 18.5 17.538 18.5 17.7969C18.5 18.0558 18.7099 18.2656 18.9688 18.2656Z" fill="#FFB332"/>
</svg>
