<svg width="32" height="32" viewBox="0 0 32 32" fill="none" xmlns="http://www.w3.org/2000/svg">
<path d="M27.9164 26.6759C30.4552 23.844 32 20.1026 32 16C32 7.16344 24.8366 0 16 0C7.16344 0 0 7.16344 0 16C0 20.1026 1.54481 23.844 4.08362 26.6759H27.9164Z" fill="#1C2E7A"/>
<path d="M16 26.625C21.868 26.625 26.625 21.868 26.625 16C26.625 10.132 21.868 5.375 16 5.375C10.132 5.375 5.375 10.132 5.375 16C5.375 21.868 10.132 26.625 16 26.625Z" fill="#112360"/>
<path d="M26.0625 22.75C24.6875 21.5359 18.7309 20.555 18.7309 20.555V13.5507H13.2691V20.555C13.2691 20.555 7.31249 21.5359 5.93749 22.75C5.37199 23.2493 4.69037 24.9024 4.08362 26.6759C7.01299 29.9435 11.2661 32 16 32C20.7339 32 24.987 29.9435 27.9164 26.6759C27.3096 24.9024 26.628 23.2493 26.0625 22.75Z" fill="#E9EFFF"/>
<path d="M22.5388 29.8125C16.5326 29.8125 11.3002 26.5024 8.56406 21.6074C7.43168 21.94 6.41187 22.3311 5.93749 22.75C5.37199 23.2493 4.69037 24.9024 4.08362 26.6759C7.01299 29.9435 11.2661 32 16 32C19.0099 32 21.8253 31.1682 24.23 29.7229C23.6742 29.7815 23.1101 29.8125 22.5388 29.8125Z" fill="#D3DCFB"/>
<path d="M13.2692 13.5508V20.5551C16.2024 20.5551 17.8471 18.304 17.8471 18.304L18.731 13.5508H13.2692V13.5508Z" fill="#D3DCFB"/>
<path d="M24.9488 27.2655L24.229 29.7237C24.6884 29.4476 25.1332 29.1495 25.5611 28.8302V27.3534C25.5611 26.9921 25.0503 26.9188 24.9488 27.2655Z" fill="#BEC8F7"/>
<path d="M6.43896 27.3531V28.83C6.8669 29.1494 7.31165 29.4474 7.77109 29.7235L7.05134 27.2653C6.94984 26.9187 6.43896 26.992 6.43896 27.3531Z" fill="#BEC8F7"/>
<path d="M21.0781 10.8264C21.0781 14.5658 18.8046 18.9514 16.0001 18.9514C13.1956 18.9514 10.922 14.5658 10.922 10.8264C10.922 7.08707 13.1955 4.39832 16.0001 4.39832C18.8046 4.39832 21.0781 7.087 21.0781 10.8264Z" fill="white"/>
<path d="M12.6682 10.8264C12.6682 7.48394 14.4847 4.98131 16.8732 4.48757C16.5895 4.42894 16.2978 4.39832 16.0001 4.39832C13.1955 4.39832 10.922 7.087 10.922 10.8264C10.922 14.5657 13.1956 18.9513 16.0001 18.9513C16.2978 18.9513 16.5895 18.9014 16.8732 18.8086C14.4847 18.0269 12.6682 14.1687 12.6682 10.8264Z" fill="#E9EFFF"/>
<path d="M16.0053 16.5099C16.2641 16.5099 16.474 16.3 16.474 16.0411C16.474 15.7823 16.2641 15.5724 16.0053 15.5724C15.7464 15.5724 15.5365 15.7823 15.5365 16.0411C15.5365 16.3 15.7464 16.5099 16.0053 16.5099Z" fill="#BEC8F7"/>
<path d="M16.0001 14.6226C15.7411 14.6226 15.5313 14.4127 15.5313 14.1538V12.07C15.5313 11.8112 15.7411 11.6013 16.0001 11.6013C16.4218 11.6013 16.8143 11.4325 17.1053 11.1262C17.3959 10.82 17.544 10.4184 17.522 9.99546C17.4809 9.2029 16.8263 8.56946 16.0318 8.55346C16.0214 8.55327 16.0109 8.55315 16.0006 8.55315C15.2419 8.55315 14.5958 9.11159 14.4908 9.86403C14.481 9.93396 14.4761 10.0057 14.4761 10.0772C14.4761 10.3361 14.2663 10.546 14.0073 10.546C13.7484 10.546 13.5386 10.3361 13.5386 10.0772C13.5386 9.96246 13.5466 9.84709 13.5623 9.7344C13.7344 8.50171 14.8066 7.59159 16.0507 7.61621C17.3342 7.64209 18.3918 8.66584 18.4583 9.9469C18.4936 10.6292 18.2546 11.2773 17.7851 11.7717C17.4252 12.1507 16.9689 12.3992 16.4688 12.4947V14.1538C16.4688 14.4127 16.259 14.6226 16.0001 14.6226Z" fill="#BEC8F7"/>
</svg>
