<svg width="30" height="30" viewBox="0 0 30 30" fill="none" xmlns="http://www.w3.org/2000/svg">
<g clip-path="url(#clip0)">
<path fill-rule="evenodd" clip-rule="evenodd" d="M11.282 3.30647C5.58626 4.93022 1.41492 10.1745 1.41492 16.3923C1.41492 23.907 7.50597 30 15.0205 30C21.1971 30 26.4121 25.885 28.0734 20.2472C28.2582 19.621 27.8972 18.9588 27.271 18.774C26.6448 18.5892 25.9826 18.9486 25.7996 19.5731C24.4291 24.2288 20.1226 27.6286 15.0205 27.6286C8.81654 27.6286 3.78632 22.5982 3.78632 16.3923C3.78632 10.1865 8.81654 5.1578 15.0205 5.1578C15.5715 5.1578 16.0368 4.79505 16.1703 4.26126C16.3055 3.72741 16.0676 3.18846 15.5834 2.92667L10.4095 0.14112C9.8346 -0.168548 9.11255 0.0487177 8.80288 0.62364C8.49322 1.19856 8.71048 1.92061 9.2854 2.23028L11.282 3.30647Z" fill="#95D6A4"/>
<path fill-rule="evenodd" clip-rule="evenodd" d="M19.445 6.06303C19.8864 6.25293 20.3227 6.47365 20.7487 6.7252C21.31 7.05883 22.0405 6.87062 22.3724 6.30941C22.7061 5.7482 22.5179 5.0176 21.9567 4.68397C21.4417 4.37939 20.913 4.1125 20.3774 3.88152C19.7769 3.62488 19.0771 3.90549 18.8205 4.50602C18.5638 5.1066 18.8445 5.80639 19.445 6.06303Z" fill="#95D6A4"/>
<path fill-rule="evenodd" clip-rule="evenodd" d="M23.8696 7.59265C23.3649 8.00674 23.293 8.75785 23.7071 9.26258C24.0117 9.63558 24.2974 10.0308 24.5592 10.4517C24.9031 11.0061 25.6371 11.1755 26.1914 10.8298C26.7458 10.4842 26.9169 9.75189 26.5712 9.19754C26.2547 8.68765 25.9091 8.20683 25.5395 7.75689C25.1255 7.25216 24.3744 7.17857 23.8696 7.59265Z" fill="#95D6A4"/>
<path fill-rule="evenodd" clip-rule="evenodd" d="M26.9237 12.6642C26.2855 12.7993 25.8748 13.4307 26.01 14.0706C26.1075 14.5411 26.1777 15.0253 26.217 15.5181C26.2666 16.17 26.8398 16.6593 27.49 16.608C28.1418 16.5567 28.6312 15.9852 28.5816 15.3333C28.5336 14.7362 28.4499 14.151 28.3301 13.5795C28.1949 12.9396 27.5636 12.529 26.9237 12.6642Z" fill="#95D6A4"/>
<path fill-rule="evenodd" clip-rule="evenodd" d="M15.0206 7.66943C10.2042 7.66943 6.2981 11.5739 6.2981 16.3922C6.2981 21.2104 10.2042 25.1149 15.0206 25.1149C19.8387 25.1149 23.7431 21.2104 23.7431 16.3922C23.7431 11.5739 19.8387 7.66943 15.0206 7.66943Z" fill="#EFF6FF"/>
<path fill-rule="evenodd" clip-rule="evenodd" d="M15.0206 8.11088C18.41 9.30689 20.8396 12.539 20.8396 16.3391C20.8396 20.1376 18.41 23.3697 15.0206 24.5657C14.5038 24.7488 13.9649 24.8839 13.4088 24.9661C13.9307 25.0653 14.4696 25.115 15.0206 25.115C19.8387 25.115 23.7431 21.2104 23.7431 16.3922C23.7431 11.574 19.8387 7.66943 15.0206 7.66943C14.5826 7.66943 14.1514 7.70195 13.7288 7.76354C14.1719 7.84738 14.6048 7.96375 15.0206 8.11088Z" fill="#D9EEFF"/>
<path d="M15.0205 7.21704C9.96125 7.21704 5.84521 11.3331 5.84521 16.3925C5.84521 21.4519 9.96119 25.568 15.0205 25.568C20.0797 25.568 24.1957 21.4519 24.1957 16.3925C24.1957 11.3332 20.0797 7.21704 15.0205 7.21704ZM22.239 16.8298H23.2787C23.177 18.7715 22.4023 20.5377 21.1842 21.8996L20.4441 21.1606C20.2672 20.984 19.9806 20.9842 19.8038 21.1611C19.6272 21.338 19.6274 21.6247 19.8044 21.8014L20.545 22.5408C19.1844 23.7647 17.4171 24.5446 15.4731 24.65V23.5941C15.4731 23.344 15.2704 23.1414 15.0204 23.1414C14.7704 23.1414 14.5677 23.3441 14.5677 23.5941V24.65C12.6241 24.5446 10.857 23.7649 9.49654 22.5414L10.2368 21.8011C10.4136 21.6243 10.4136 21.3377 10.2368 21.1608C10.06 20.9841 9.7734 20.9841 9.5965 21.1608L8.85717 21.9002C7.63883 20.5382 6.86387 18.7717 6.76221 16.8298H7.80353C8.05361 16.8298 8.25623 16.6271 8.25623 16.3771C8.25623 16.127 8.05355 15.9244 7.80353 15.9244H6.76414C6.87283 13.9865 7.65166 12.2249 8.87223 10.8678L9.59627 11.5931C9.68469 11.6817 9.80064 11.7259 9.91666 11.7259C10.0324 11.7259 10.1482 11.6818 10.2365 11.5936C10.4135 11.4169 10.4137 11.1303 10.2371 10.9533L9.51348 10.2286C10.8717 9.01376 12.6321 8.23997 14.5677 8.13503V9.15837C14.5677 9.40845 14.7704 9.61106 15.0204 9.61106C15.2704 9.61106 15.4731 9.40839 15.4731 9.15837V8.13503C17.409 8.23997 19.1697 9.01394 20.528 10.2291L19.8041 10.953C19.6273 11.1298 19.6273 11.4164 19.8041 11.5933C19.8925 11.6817 20.0084 11.7259 20.1242 11.7259C20.2401 11.7259 20.356 11.6817 20.4444 11.5933L21.1692 10.8685C22.3894 12.2254 23.168 13.9868 23.2767 15.9244H22.239C21.9889 15.9244 21.7863 16.127 21.7863 16.3771C21.7863 16.6271 21.989 16.8298 22.239 16.8298Z" fill="#2B4D66"/>
<path d="M13.214 10.9619C13.1178 10.7311 12.8525 10.6222 12.6219 10.7183C12.3911 10.8145 12.282 11.0795 12.3782 11.3103L14.1496 15.5471C14.2221 15.721 14.3905 15.8258 14.5677 15.8258C14.6258 15.8258 14.6848 15.8145 14.7417 15.7908C14.9725 15.6945 15.0816 15.4295 14.9854 15.1987L13.214 10.9619Z" fill="#2B4D66"/>
<path d="M18.6153 15.9243H16.4611C16.211 15.9243 16.0084 16.127 16.0084 16.377C16.0084 16.627 16.2111 16.8297 16.4611 16.8297H18.6153C18.8653 16.8297 19.068 16.627 19.068 16.377C19.068 16.127 18.8653 15.9243 18.6153 15.9243Z" fill="#2B4D66"/>
<path fill-rule="evenodd" clip-rule="evenodd" d="M16.4611 16.3769C16.4611 15.5813 15.8161 14.9363 15.0205 14.9363C14.2249 14.9363 13.5798 15.5813 13.5798 16.3769C13.5798 17.1726 14.2249 17.8176 15.0205 17.8176C15.8161 17.8176 16.4611 17.1726 16.4611 16.3769Z" fill="#FFE07D"/>
</g>
<defs>
<clipPath id="clip0">
<rect width="30" height="30" fill="white"/>
</clipPath>
</defs>
</svg>
