<svg width="32" height="32" viewBox="0 0 32 32" fill="none" xmlns="http://www.w3.org/2000/svg">
<path d="M8.3479 29.5484L8.94002 29.9268C10.8805 30.8162 13.0385 31.3126 15.3126 31.3126C17.8913 31.3126 20.3205 30.6742 22.4525 29.5483H8.3479V29.5484Z" fill="#1C2E7A"/>
<path d="M5.37128 27.6458L5.77222 27.9021H24.9459C28.4102 25.0947 30.6253 20.8063 30.6253 15.9999C30.6253 7.54294 23.7696 0.687256 15.3127 0.687256C13.0385 0.687256 10.8805 1.18369 8.94003 2.07301L2.49878 24.3844C3.29822 25.6037 4.26665 26.7019 5.37128 27.6458Z" fill="#FFDD40"/>
<path d="M22.1088 2.07324H8.94006C3.66469 4.49112 0 9.81737 0 16.0001C0 17.5241 0.223687 18.9956 0.63825 20.3849H10.9031V18.8771C10.9031 18.3973 11.2773 17.988 11.7552 17.9452L11.8406 17.9376V15.8286C11.8406 15.0719 12.4563 14.4562 13.213 14.4562H24.2428V4.2073C24.2428 3.03056 23.2855 2.07324 22.1088 2.07324Z" fill="#167CC1"/>
<path d="M1.31006 9.79579C1.945 10.291 2.52081 10.9045 3.02693 11.6429C6.13943 16.1846 9.08768 15.312 12.0187 15.1535C12.2547 14.7374 12.7016 14.4558 13.2131 14.4558H22.8679V5.57886H4.09437C2.94787 6.81261 2.00237 8.23542 1.31006 9.79579Z" fill="#73C3F9"/>
<path d="M6.05125 5.5791H4.09443C2.94787 6.81279 2.00243 8.2356 1.31006 9.79598C1.945 10.2912 2.52081 10.9047 3.02693 11.6431C4.05106 13.1375 5.05743 14.0456 6.05125 14.5859V5.5791Z" fill="#4FABF7"/>
<path d="M15.1312 8.23892C17.9448 11.6826 20.4603 12.5354 22.8677 12.5465V5.57886H12.0061C13.15 6.21586 14.199 7.09811 15.1312 8.23892Z" fill="#9BD8F9"/>
<path d="M22.1089 3.44824H6.54121C5.6049 4.1038 4.74471 4.86068 3.97803 5.70424H22.8679V4.2073C22.8679 3.79587 22.5203 3.44824 22.1089 3.44824Z" fill="#2A428C"/>
<path d="M6.05121 4.85338C6.05121 4.4067 6.15134 3.98245 6.32921 3.60107C5.47509 4.22082 4.68628 4.92495 3.97803 5.70426H6.05121V4.85338Z" fill="#1C2E7A"/>
<path d="M4.61548 5.04468H15.6762C15.9351 5.04468 16.145 4.8348 16.145 4.57593C16.145 4.31705 15.9351 4.10718 15.6762 4.10718H5.66748C5.30248 4.40362 4.95154 4.71649 4.61548 5.04468Z" fill="#3C58A0"/>
<path d="M21.096 5.04468H20.4851C20.2262 5.04468 20.0164 4.8348 20.0164 4.57593C20.0164 4.31705 20.2262 4.10718 20.4851 4.10718H21.096C21.3549 4.10718 21.5648 4.31705 21.5648 4.57593C21.5648 4.8348 21.355 5.04468 21.096 5.04468Z" fill="#3C58A0"/>
<path d="M18.9721 5.04468H18.3611C18.1022 5.04468 17.8923 4.8348 17.8923 4.57593C17.8923 4.31705 18.1022 4.10718 18.3611 4.10718H18.9721C19.231 4.10718 19.4408 4.31705 19.4408 4.57593C19.4408 4.8348 19.231 5.04468 18.9721 5.04468Z" fill="#3C58A0"/>
<path d="M19.633 7.82886H13.9272V9.47173H19.633C20.0867 9.47173 20.4544 9.10398 20.4544 8.65029C20.4544 8.19661 20.0867 7.82886 19.633 7.82886Z" fill="#E9EFFF"/>
<path d="M16.5524 8.65029C16.5524 8.19661 16.9202 7.82886 17.3739 7.82886H13.9272V9.47173H17.3739C16.9202 9.47173 16.5524 9.10398 16.5524 8.65029Z" fill="#D3DCFB"/>
<path d="M13.9898 7.82886H13.0678C12.6141 7.82886 12.2463 8.19661 12.2463 8.65029C12.2463 9.10398 12.6141 9.47173 13.0678 9.47173H13.9898V7.82886Z" fill="#3C58A0"/>
<path d="M3.12987 11.5726C2.58987 10.7847 1.99256 10.1628 1.36312 9.67603C0.48775 11.6038 0 13.745 0 16.0001C0 17.5241 0.223687 18.9956 0.63825 20.3848H10.9031V18.8771C10.9031 18.3973 11.2773 17.988 11.7552 17.9452L11.8406 17.9376V15.8286C11.8406 15.5282 11.9379 15.2502 12.1022 15.0239C9.13094 15.1715 6.2405 16.1115 3.12987 11.5726Z" fill="#4FABF7"/>
<path d="M6.05113 14.4476C5.09325 13.9113 4.12281 13.0214 3.12987 11.5726C2.58987 10.7846 1.99256 10.1628 1.36312 9.67603C0.48775 11.6038 0 13.7449 0 16C0 17.524 0.223687 18.9955 0.63825 20.3848H6.05113V14.4476Z" fill="#1E9EF4"/>
<path d="M10.9032 28.8967V24.2593H5.92659L5.58003 26.8453C5.53965 27.1464 5.4644 27.4123 5.37134 27.6456C6.44321 28.5615 7.64284 29.332 8.94009 29.9266H11.9036V29.8328H11.8393C11.3231 29.8328 10.9032 29.4129 10.9032 28.8967Z" fill="#D3DCFB"/>
<path d="M10.9029 28.8967V24.2593H7.82462L7.72143 24.3843C7.72143 24.3843 8.63724 24.8749 8.63724 25.8124C8.63724 26.7499 8.63724 27.8014 8.63724 27.8014C8.63724 27.8014 8.65843 29.0909 7.56812 29.2111C8.01162 29.4716 8.46924 29.7108 8.93993 29.9265H11.9034V29.8328H11.8391C11.3229 29.8328 10.9029 29.4129 10.9029 28.8967Z" fill="#BEC8F7"/>
<path d="M2.49876 24.3843H10.9031V20.2595H0.601074C1.0287 21.739 1.67364 23.126 2.49876 24.3843Z" fill="#E9EFFF"/>
<path d="M6.05114 21.7076V20.2595H0.601074C1.0287 21.739 1.67364 23.1259 2.49876 24.3843H7.72157C6.73439 23.8963 6.05114 22.8781 6.05114 21.7076Z" fill="#D3DCFB"/>
<path d="M8.84474 23.242C9.35281 23.242 9.76468 22.8301 9.76468 22.322C9.76468 21.814 9.35281 21.4021 8.84474 21.4021C8.33668 21.4021 7.9248 21.814 7.9248 22.322C7.9248 22.8301 8.33668 23.242 8.84474 23.242Z" fill="#BEC8F7"/>
<path d="M29.7391 14.3623H13.213C12.4066 14.3623 11.7468 15.0221 11.7468 15.8285V17.9768C11.7772 17.9737 11.808 17.9721 11.8393 17.9721H16.6418C17.1407 17.9721 17.5467 18.3781 17.5467 18.877V27.8017H31.2038C31.2046 27.7818 31.2053 27.7619 31.2053 27.7418V15.8284C31.2053 15.0221 30.5455 14.3623 29.7391 14.3623Z" fill="#167CC1"/>
<path d="M22.8328 27.5126C22.0948 26.796 22.352 26.0055 22.6033 25.5605C22.7044 25.3815 22.6332 25.152 22.4468 25.0653C21.5218 24.6349 21.6788 23.75 21.7756 23.4202C21.8014 23.3325 21.7911 23.2384 21.7488 23.1575L20.857 21.4475C20.8324 21.4005 20.7981 21.3587 20.7551 21.3276C20.185 20.9157 20.2985 20.32 20.4294 19.9812C20.4865 19.8334 20.4356 19.6643 20.3076 19.571C19.6778 19.1115 19.8252 18.4252 19.9593 18.0732C20.0104 17.939 19.977 17.7859 19.8712 17.6886C19.1421 17.0177 19.3636 16.3099 19.5401 15.9717C19.6027 15.8517 19.5973 15.7056 19.5204 15.5943C19.2515 15.2051 19.3655 14.8322 19.4953 14.6005C19.5371 14.5259 19.551 14.4419 19.5384 14.3625H13.2128C12.4063 14.3625 11.7466 15.0224 11.7466 15.8287V17.977C11.777 17.9739 11.8078 17.9723 11.839 17.9723H16.6415C17.1404 17.9723 17.5464 18.3782 17.5464 18.8772V27.8019H22.9371C22.9477 27.6977 22.913 27.5904 22.8328 27.5126Z" fill="#0E62A8"/>
<path d="M13.1531 17.7217V17.9717H16.6417C17.1406 17.9717 17.5466 18.3776 17.5466 18.8766V27.8013H29.5128C29.6709 27.8013 29.7991 27.6731 29.7991 27.515V17.7217H13.1531Z" fill="#FF4155"/>
<path d="M13.1531 17.9717H16.6417C17.1406 17.9717 17.5466 18.3776 17.5466 18.8766V27.8013H22.9373C22.9478 27.6971 22.9131 27.5898 22.833 27.512C22.095 26.7954 22.3521 26.0049 22.6034 25.5599C22.7045 25.3809 22.6333 25.1514 22.4469 25.0647C21.5219 24.6342 21.6789 23.7494 21.7758 23.4196C21.8015 23.3319 21.7912 23.2378 21.749 23.1569L20.8571 21.4469C20.8325 21.3999 20.7983 21.3581 20.7552 21.327C20.1851 20.9151 20.2986 20.3194 20.4295 19.9806C20.4866 19.8328 20.4357 19.6637 20.3077 19.5704C19.6779 19.1109 19.8253 18.4246 19.9594 18.0726C20.005 17.9529 19.9829 17.8184 19.9027 17.7217H13.1531V17.9717Z" fill="#E80054"/>
<path d="M31.4941 27.739H17.5467V28.8967C17.5467 29.3957 17.1408 29.8016 16.6418 29.8016H16.3503V29.9266H30.3184C31.2472 29.9266 32 29.1738 32 28.245C32.0001 27.9656 31.7735 27.739 31.4941 27.739Z" fill="#E9EFFF"/>
<path d="M17.5467 28.8967C17.5467 29.3957 17.1408 29.8016 16.6418 29.8016H16.3503V29.9266H23.0505C23.0309 29.8833 23.0032 29.8434 22.967 29.8106C22.1699 29.0859 22.5553 28.3616 22.859 27.9916C22.9192 27.9183 22.9449 27.8275 22.9383 27.739H17.5467V28.8967H17.5467Z" fill="#D3DCFB"/>
<path d="M29.5128 15.7686H13.4394C13.2813 15.7686 13.1531 15.8967 13.1531 16.0549V17.8471H29.7991V16.0549C29.7991 15.8967 29.6709 15.7686 29.5128 15.7686Z" fill="#FF7186"/>
<path d="M19.5403 15.9715C19.5735 15.9081 19.587 15.8376 19.5816 15.7686H13.4394C13.2813 15.7686 13.1531 15.8967 13.1531 16.0549V17.8471H19.9683C19.9511 17.7875 19.919 17.7321 19.8715 17.6884C19.1424 17.0175 19.3638 16.3096 19.5403 15.9715Z" fill="#FF4155"/>
<path d="M16.6418 29.4577H11.8393C11.2714 29.4577 10.8093 28.9957 10.8093 28.4278V18.4079C10.8093 17.8399 11.2713 17.3779 11.8393 17.3779H16.6418C17.2096 17.3779 17.6717 17.8399 17.6717 18.4079V28.4278C17.6717 28.9957 17.2096 29.4577 16.6418 29.4577Z" fill="#FFDD40"/>
<path d="M14.5788 18.4076H15.0506V17.3782H11.8393C11.2714 17.3782 10.8093 17.8402 10.8093 18.4081V28.428C10.8093 28.996 11.2713 29.458 11.8393 29.458H14.5788C14.011 29.458 13.5489 28.996 13.5489 28.428V19.4375C13.5488 18.8696 14.0108 18.4076 14.5788 18.4076Z" fill="#FFB332"/>
<path d="M12.5701 21.5571H12.3975C12.1386 21.5571 11.9287 21.3473 11.9287 21.0884C11.9287 20.8294 12.1386 20.6196 12.3975 20.6196H12.5701C12.829 20.6196 13.0388 20.8294 13.0388 21.0884C13.0388 21.3473 12.829 21.5571 12.5701 21.5571Z" fill="#FCF2C8"/>
<path d="M12.5701 23.3586H12.3975C12.1386 23.3586 11.9287 23.1488 11.9287 22.8899C11.9287 22.631 12.1386 22.4211 12.3975 22.4211H12.5701C12.829 22.4211 13.0388 22.631 13.0388 22.8899C13.0388 23.1488 12.829 23.3586 12.5701 23.3586Z" fill="#FCF2C8"/>
<path d="M12.5701 25.1604H12.3975C12.1386 25.1604 11.9287 24.9506 11.9287 24.6917C11.9287 24.4328 12.1386 24.2229 12.3975 24.2229H12.5701C12.829 24.2229 13.0388 24.4328 13.0388 24.6917C13.0388 24.9505 12.829 25.1604 12.5701 25.1604Z" fill="#FCF2C8"/>
<path d="M12.5701 26.9619H12.3975C12.1386 26.9619 11.9287 26.7521 11.9287 26.4932C11.9287 26.2342 12.1386 26.0244 12.3975 26.0244H12.5701C12.829 26.0244 13.0388 26.2342 13.0388 26.4932C13.0388 26.7521 12.829 26.9619 12.5701 26.9619Z" fill="#FCF2C8"/>
<path d="M16.0836 21.5571H14.0176C13.7587 21.5571 13.5488 21.3473 13.5488 21.0884C13.5488 20.8294 13.7587 20.6196 14.0176 20.6196H16.0836C16.3425 20.6196 16.5524 20.8294 16.5524 21.0884C16.5524 21.3473 16.3425 21.5571 16.0836 21.5571Z" fill="#FCF2C8"/>
<path d="M16.0836 23.3586H14.0176C13.7587 23.3586 13.5488 23.1488 13.5488 22.8899C13.5488 22.631 13.7587 22.4211 14.0176 22.4211H16.0836C16.3425 22.4211 16.5524 22.631 16.5524 22.8899C16.5524 23.1488 16.3425 23.3586 16.0836 23.3586Z" fill="#FCF2C8"/>
<path d="M16.0836 25.1604H14.0176C13.7587 25.1604 13.5488 24.9506 13.5488 24.6917C13.5488 24.4328 13.7587 24.2229 14.0176 24.2229H16.0836C16.3425 24.2229 16.5524 24.4328 16.5524 24.6917C16.5524 24.9505 16.3425 25.1604 16.0836 25.1604Z" fill="#FCF2C8"/>
<path d="M16.0836 26.9619H14.0176C13.7587 26.9619 13.5488 26.7521 13.5488 26.4932C13.5488 26.2342 13.7587 26.0244 14.0176 26.0244H16.0836C16.3425 26.0244 16.5524 26.2342 16.5524 26.4932C16.5524 26.7521 16.3425 26.9619 16.0836 26.9619Z" fill="#FCF2C8"/>
<path d="M16.6417 16.9092H11.8392C11.0129 16.9092 10.3406 17.5815 10.3406 18.4079V28.4278C10.3406 29.2542 11.0129 29.9264 11.8392 29.9264H16.6417C17.4681 29.9264 18.1404 29.2541 18.1404 28.4278V18.4079C18.1404 17.5815 17.4681 16.9092 16.6417 16.9092ZM17.2029 28.4278C17.2029 28.7377 16.9516 28.9889 16.6417 28.9889H11.8392C11.5293 28.9889 11.2781 28.7377 11.2781 28.4278V18.4078C11.2781 18.0979 11.5293 17.8466 11.8393 17.8466H12.7038C12.7595 17.8466 12.8047 17.8917 12.8047 17.9474C12.8047 18.2772 13.0745 18.5471 13.4043 18.5471H15.0767C15.4065 18.5471 15.6763 18.2772 15.6763 17.9474C15.6763 17.8917 15.7215 17.8466 15.7772 17.8466H16.6418C16.9517 17.8466 17.203 18.0979 17.203 18.4078V28.4278H17.2029Z" fill="#167CC1"/>
<path d="M24.4185 23.1242C24.7332 21.5065 23.6769 19.94 22.0592 19.6254C20.4415 19.3107 18.8751 20.3671 18.5604 21.9848C18.2458 23.6024 19.3021 25.1689 20.9198 25.4835C22.5375 25.7982 24.1039 24.7418 24.4185 23.1242Z" fill="#E9EFFF"/>
<path d="M22.4469 25.0648C21.5219 24.6343 21.6789 23.7495 21.7757 23.4196C21.8015 23.332 21.7912 23.2379 21.7489 23.157L20.857 21.447C20.8325 21.4 20.7982 21.3581 20.7552 21.3271C20.185 20.9152 20.2986 20.3195 20.4295 19.9806C20.4575 19.9082 20.4592 19.8308 20.4389 19.7595C19.3029 20.1808 18.4932 21.2741 18.4932 22.5568C18.4932 24.2041 19.8286 25.5395 21.4759 25.5395C21.8888 25.5395 22.282 25.4556 22.6396 25.3039C22.6161 25.2026 22.5489 25.1123 22.4469 25.0648Z" fill="#D3DCFB"/>
<path d="M22.717 22.3274L21.0428 21.3839C20.8673 21.285 20.6501 21.4119 20.6501 21.6134V23.5004C20.6501 23.7019 20.8673 23.8287 21.0428 23.7298L22.717 22.7863C22.8957 22.6856 22.8957 22.4282 22.717 22.3274Z" fill="#FF4155"/>
<path d="M13.7158 28.989H11.8391C11.5293 28.989 11.278 28.7377 11.278 28.4279V18.4079C11.278 18.0979 11.5293 17.8467 11.8392 17.8467H12.7038C12.7595 17.8467 12.8046 17.8918 12.8046 17.9475C12.8046 18.2773 13.0745 18.5471 13.4043 18.5471H14.0621C13.3969 17.7691 13.933 17.086 14.0973 16.9092H11.8392C11.0129 16.9092 10.3406 17.5815 10.3406 18.4079V28.4278C10.3406 29.2542 11.0129 29.9264 11.8392 29.9264H13.6004C13.2588 29.4409 13.6737 29.0287 13.7158 28.989Z" fill="#0E62A8"/>
</svg>
