<svg width="80" height="80" viewBox="0 0 80 80" fill="none" xmlns="http://www.w3.org/2000/svg">
<g clip-path="url(#clip0)">
<path d="M20.8701 73.8722L22.3504 74.8183C27.2015 77.0418 32.5965 78.2827 38.282 78.2827C44.7287 78.2827 50.8017 76.6868 56.1316 73.8721H20.8701V73.8722Z" fill="#1C2E7A"/>
<path d="M13.4278 69.1152L14.4302 69.7558H62.3644C71.0252 62.7373 76.5628 52.0164 76.5628 40.0003C76.5628 18.858 59.4236 1.71875 38.2813 1.71875C32.5958 1.71875 27.2008 2.95984 22.3497 5.18312L6.24658 60.9617C8.24518 64.0098 10.6663 66.7555 13.4278 69.1152Z" fill="#FFDD40"/>
<path d="M55.272 5.18311H22.3502C9.16172 11.2278 0 24.5434 0 40.0003C0 43.8103 0.559219 47.489 1.59562 50.9622H27.2577V47.1928C27.2577 45.9933 28.1933 44.97 29.388 44.8631L29.6014 44.844V39.5715C29.6014 37.6797 31.1406 36.1404 33.0325 36.1404H60.607V10.5183C60.607 7.57639 58.2137 5.18311 55.272 5.18311Z" fill="#167CC1"/>
<path d="M3.2749 24.4901C4.86225 25.7281 6.30178 27.2618 7.56709 29.1079C15.3483 40.4621 22.719 38.2806 30.0466 37.8843C30.6366 36.844 31.7537 36.1401 33.0326 36.1401H57.1696V13.9478H10.2357C7.36943 17.0321 5.00568 20.5892 3.2749 24.4901Z" fill="#73C3F9"/>
<path d="M15.1279 13.9478H10.2358C7.36943 17.032 5.00584 20.589 3.2749 24.4899C4.86225 25.7279 6.30178 27.2617 7.56709 29.1078C10.1274 32.8437 12.6433 35.114 15.1279 36.4648V13.9478Z" fill="#4FABF7"/>
<path d="M37.8273 20.5979C44.8614 29.2071 51.1501 31.339 57.1687 31.3668V13.9478H30.0146C32.8745 15.5403 35.497 17.7459 37.8273 20.5979Z" fill="#9BD8F9"/>
<path d="M55.272 8.62061H16.3528C14.012 10.2595 11.8615 12.1517 9.94482 14.2606H57.1695V10.5183C57.1695 9.48967 56.3006 8.62061 55.272 8.62061Z" fill="#2A428C"/>
<path d="M15.1278 12.1337C15.1278 11.017 15.3781 9.95637 15.8228 9.00293C13.6875 10.5523 11.7154 12.3126 9.94482 14.2609H15.1278V12.1337Z" fill="#1C2E7A"/>
<path d="M11.5391 12.6123H39.1909C39.8381 12.6123 40.3628 12.0876 40.3628 11.4404C40.3628 10.7932 39.8381 10.2686 39.1909 10.2686H14.1691C13.2566 11.0096 12.3792 11.7918 11.5391 12.6123Z" fill="#3C58A0"/>
<path d="M52.7407 12.6123H51.2134C50.5662 12.6123 50.0415 12.0876 50.0415 11.4404C50.0415 10.7932 50.5662 10.2686 51.2134 10.2686H52.7407C53.3879 10.2686 53.9126 10.7932 53.9126 11.4404C53.9126 12.0876 53.3881 12.6123 52.7407 12.6123Z" fill="#3C58A0"/>
<path d="M47.4298 12.6123H45.9023C45.2552 12.6123 44.7305 12.0876 44.7305 11.4404C44.7305 10.7932 45.2552 10.2686 45.9023 10.2686H47.4298C48.077 10.2686 48.6017 10.7932 48.6017 11.4404C48.6017 12.0876 48.077 12.6123 47.4298 12.6123Z" fill="#3C58A0"/>
<path d="M49.0823 19.5728H34.8179V23.6799H49.0823C50.2165 23.6799 51.1359 22.7606 51.1359 21.6263C51.1359 20.4921 50.2165 19.5728 49.0823 19.5728Z" fill="#E9EFFF"/>
<path d="M41.3808 21.6263C41.3808 20.4921 42.3002 19.5728 43.4344 19.5728H34.8179V23.6799H43.4344C42.3002 23.6799 41.3808 22.7606 41.3808 21.6263Z" fill="#D3DCFB"/>
<path d="M34.9738 19.5728H32.6688C31.5346 19.5728 30.6152 20.4921 30.6152 21.6263C30.6152 22.7606 31.5346 23.6799 32.6688 23.6799H34.9738V19.5728Z" fill="#3C58A0"/>
<path d="M7.82469 28.9318C6.47469 26.962 4.98141 25.4075 3.40781 24.1904C1.21938 29.0098 0 34.3628 0 40.0006C0 43.8106 0.559219 47.4893 1.59562 50.9625H27.2577V47.1931C27.2577 45.9936 28.1933 44.9703 29.388 44.8634L29.6014 44.8443V39.5718C29.6014 38.8207 29.8447 38.1257 30.2555 37.5601C22.8273 37.929 15.6012 40.2792 7.82469 28.9318Z" fill="#4FABF7"/>
<path d="M15.1278 36.1195C12.7331 34.7787 10.307 32.5539 7.82469 28.9318C6.47469 26.962 4.98141 25.4075 3.40781 24.1904C1.21938 29.0098 0 34.3626 0 40.0004C0 43.8104 0.559219 47.4892 1.59562 50.9623H15.1278V36.1195Z" fill="#1E9EF4"/>
<path d="M27.2573 72.2419V60.6484H14.8159L13.9495 67.1136C13.8485 67.8662 13.6604 68.5311 13.4277 69.1144C16.1074 71.4041 19.1065 73.3303 22.3496 74.8167H29.7584V74.5823H29.5976C28.3071 74.5823 27.2573 73.5325 27.2573 72.2419Z" fill="#D3DCFB"/>
<path d="M27.2579 72.2419V60.6484H19.5621L19.3042 60.9609C19.3042 60.9609 21.5937 62.1875 21.5937 64.5312C21.5937 66.875 21.5937 69.5037 21.5937 69.5037C21.5937 69.5037 21.6467 72.7275 18.9209 73.028C20.0297 73.6794 21.1737 74.2773 22.3504 74.8166H29.7592V74.5822H29.5984C28.3078 74.5823 27.2579 73.5325 27.2579 72.2419Z" fill="#BEC8F7"/>
<path d="M6.24715 60.9614H27.2579V50.6494H1.50293C2.57199 54.348 4.18434 57.8155 6.24715 60.9614Z" fill="#E9EFFF"/>
<path d="M15.1281 54.2696V50.6494H1.50293C2.57199 54.348 4.18434 57.8154 6.24715 60.9614H19.3042C16.8362 59.7414 15.1281 57.1958 15.1281 54.2696Z" fill="#D3DCFB"/>
<path d="M22.1119 58.1055C23.382 58.1055 24.4117 57.0759 24.4117 55.8057C24.4117 54.5355 23.382 53.5059 22.1119 53.5059C20.8417 53.5059 19.812 54.5355 19.812 55.8057C19.812 57.0759 20.8417 58.1055 22.1119 58.1055Z" fill="#BEC8F7"/>
<path d="M74.3485 35.9067H33.0331C31.0172 35.9067 29.3677 37.5563 29.3677 39.5722V44.943C29.4436 44.9352 29.5206 44.9313 29.5988 44.9313H41.605C42.8524 44.9313 43.8674 45.9461 43.8674 47.1935V69.5053H78.01C78.0121 69.4555 78.0138 69.4056 78.0138 69.3555V39.5721C78.0139 37.5561 76.3644 35.9067 74.3485 35.9067Z" fill="#167CC1"/>
<path d="M57.0823 68.7819C55.2373 66.9903 55.8801 65.0142 56.5084 63.9017C56.7612 63.4541 56.5833 62.8805 56.1172 62.6636C53.8047 61.5875 54.1972 59.3755 54.4394 58.5508C54.5037 58.3317 54.4779 58.0964 54.3723 57.8941L52.1426 53.6192C52.0812 53.5016 51.9956 53.3971 51.8879 53.3194C50.4626 52.2897 50.7465 50.8005 51.0737 49.9533C51.2164 49.5839 51.0892 49.1611 50.7692 48.9278C49.1947 47.7791 49.5633 46.0633 49.8984 45.1835C50.0262 44.8478 49.9426 44.4652 49.6783 44.2219C47.8556 42.5447 48.4092 40.775 48.8504 39.9297C49.007 39.6297 48.9936 39.2644 48.8012 38.9861C48.1289 38.0131 48.414 37.0808 48.7384 36.5017C48.8429 36.315 48.8776 36.1052 48.8462 35.9067H33.0322C31.0161 35.9067 29.3667 37.5563 29.3667 39.5722V44.9428C29.4426 44.9352 29.5198 44.9311 29.5976 44.9311H41.6039C42.8512 44.9311 43.8662 45.946 43.8662 47.1933V69.5052H57.3429C57.3695 69.2447 57.2826 68.9764 57.0823 68.7819Z" fill="#0E62A8"/>
<path d="M32.8833 44.3052V44.9302H41.6049C42.8522 44.9302 43.8672 45.945 43.8672 47.1924V69.5042H73.7825C74.1778 69.5042 74.4983 69.1838 74.4983 68.7885V44.3052H32.8833Z" fill="#FF4155"/>
<path d="M32.8833 44.9302H41.6049C42.8522 44.9302 43.8672 45.945 43.8672 47.1924V69.5042H57.3439C57.3702 69.2438 57.2833 68.9755 57.083 68.781C55.238 66.9894 55.8808 65.0133 56.5091 63.9008C56.7619 63.4531 56.5839 62.8795 56.1178 62.6627C53.8053 61.5866 54.1978 59.3745 54.44 58.5499C54.5044 58.3308 54.4786 58.0955 54.373 57.8931L52.1433 53.6183C52.0819 53.5006 51.9963 53.3961 51.8886 53.3185C50.4633 52.2888 50.7472 50.7996 51.0744 49.9524C51.2171 49.583 51.0899 49.1602 50.7699 48.9269C49.1953 47.7781 49.5639 46.0624 49.8991 45.1825C50.0131 44.8833 49.9578 44.5471 49.7574 44.3052H32.8833V44.9302Z" fill="#E80054"/>
<path d="M78.7349 69.3481H43.8664V72.2424C43.8664 73.4899 42.8516 74.5047 41.6041 74.5047H40.8755V74.8172H75.7956C78.1175 74.8172 79.9997 72.935 79.9997 70.6131C79.9999 69.9146 79.4335 69.3481 78.7349 69.3481Z" fill="#E9EFFF"/>
<path d="M43.8664 72.2424C43.8664 73.4899 42.8516 74.5047 41.6041 74.5047H40.8755V74.8172H57.6258C57.5769 74.7088 57.5075 74.6092 57.4171 74.527C55.4244 72.7155 56.388 70.9045 57.1472 69.9795C57.2977 69.7963 57.3619 69.5692 57.3453 69.3481H43.8663V72.2424H43.8664Z" fill="#D3DCFB"/>
<path d="M73.7825 39.4224H33.5991C33.2038 39.4224 32.8833 39.7428 32.8833 40.1381V44.6186H74.4983V40.1381C74.4983 39.7428 74.1778 39.4224 73.7825 39.4224Z" fill="#FF7186"/>
<path d="M48.8514 39.9297C48.9342 39.7713 48.968 39.5949 48.9545 39.4224H33.5991C33.2038 39.4224 32.8833 39.7428 32.8833 40.1381V44.6186H49.9213C49.8783 44.4697 49.7981 44.3313 49.6792 44.2219C47.8566 42.5447 48.4102 40.7749 48.8514 39.9297Z" fill="#FF4155"/>
<path d="M41.604 73.6453H29.5978C28.1781 73.6453 27.0229 72.4903 27.0229 71.0705V46.0206C27.0229 44.6008 28.1779 43.4458 29.5978 43.4458H41.604C43.0237 43.4458 44.1789 44.6008 44.1789 46.0206V71.0705C44.1789 72.4903 43.0237 73.6453 41.604 73.6453Z" fill="#FFDD40"/>
<path d="M36.4475 46.0194H37.6272V43.4458H29.5988C28.1791 43.4458 27.0239 44.6008 27.0239 46.0206V71.0705C27.0239 72.4903 28.1789 73.6453 29.5988 73.6453H36.4477C35.028 73.6453 33.8728 72.4903 33.8728 71.0705V48.5941C33.8727 47.1744 35.0277 46.0194 36.4475 46.0194Z" fill="#FFB332"/>
<path d="M31.4252 53.8931H30.9937C30.3465 53.8931 29.8218 53.3685 29.8218 52.7212C29.8218 52.0738 30.3465 51.5493 30.9937 51.5493H31.4252C32.0724 51.5493 32.5971 52.0738 32.5971 52.7212C32.5971 53.3684 32.0724 53.8931 31.4252 53.8931Z" fill="#FCF2C8"/>
<path d="M31.4252 58.397H30.9937C30.3465 58.397 29.8218 57.8723 29.8218 57.2251C29.8218 56.5778 30.3465 56.0532 30.9937 56.0532H31.4252C32.0724 56.0532 32.5971 56.5778 32.5971 57.2251C32.5971 57.8723 32.0724 58.397 31.4252 58.397Z" fill="#FCF2C8"/>
<path d="M31.4252 62.9019H30.9937C30.3465 62.9019 29.8218 62.3773 29.8218 61.73C29.8218 61.0828 30.3465 60.5581 30.9937 60.5581H31.4252C32.0724 60.5581 32.5971 61.0828 32.5971 61.73C32.5971 62.3772 32.0724 62.9019 31.4252 62.9019Z" fill="#FCF2C8"/>
<path d="M31.4252 67.4058H30.9937C30.3465 67.4058 29.8218 66.8812 29.8218 66.2339C29.8218 65.5865 30.3465 65.062 30.9937 65.062H31.4252C32.0724 65.062 32.5971 65.5865 32.5971 66.2339C32.5971 66.8812 32.0724 67.4058 31.4252 67.4058Z" fill="#FCF2C8"/>
<path d="M40.2091 53.8931H35.0439C34.3968 53.8931 33.8721 53.3685 33.8721 52.7212C33.8721 52.0738 34.3968 51.5493 35.0439 51.5493H40.2091C40.8563 51.5493 41.381 52.0738 41.381 52.7212C41.381 53.3684 40.8563 53.8931 40.2091 53.8931Z" fill="#FCF2C8"/>
<path d="M40.2091 58.397H35.0439C34.3968 58.397 33.8721 57.8723 33.8721 57.2251C33.8721 56.5778 34.3968 56.0532 35.0439 56.0532H40.2091C40.8563 56.0532 41.381 56.5778 41.381 57.2251C41.381 57.8723 40.8563 58.397 40.2091 58.397Z" fill="#FCF2C8"/>
<path d="M40.2091 62.9019H35.0439C34.3968 62.9019 33.8721 62.3773 33.8721 61.73C33.8721 61.0828 34.3968 60.5581 35.0439 60.5581H40.2091C40.8563 60.5581 41.381 61.0828 41.381 61.73C41.381 62.3772 40.8563 62.9019 40.2091 62.9019Z" fill="#FCF2C8"/>
<path d="M40.2091 67.4058H35.0439C34.3968 67.4058 33.8721 66.8812 33.8721 66.2339C33.8721 65.5865 34.3968 65.062 35.0439 65.062H40.2091C40.8563 65.062 41.381 65.5865 41.381 66.2339C41.381 66.8812 40.8563 67.4058 40.2091 67.4058Z" fill="#FCF2C8"/>
<path d="M41.6049 42.2739H29.5986C27.5328 42.2739 25.8521 43.9547 25.8521 46.0206V71.0705C25.8521 73.1364 27.5328 74.817 29.5986 74.817H41.6049C43.6708 74.817 45.3516 73.1363 45.3516 71.0705V46.0206C45.3516 43.9547 43.6708 42.2739 41.6049 42.2739ZM43.0078 71.0705C43.0078 71.8453 42.3797 72.4733 41.6049 72.4733H29.5986C28.8239 72.4733 28.1958 71.8452 28.1958 71.0705V46.0205C28.1958 45.2456 28.8239 44.6175 29.5988 44.6175H31.7602C31.8994 44.6175 32.0124 44.7303 32.0124 44.8696C32.0124 45.6941 32.6869 46.3686 33.5114 46.3686H37.6924C38.5169 46.3686 39.1914 45.6941 39.1914 44.8696C39.1914 44.7303 39.3042 44.6175 39.4436 44.6175H41.605C42.3799 44.6175 43.008 45.2456 43.008 46.0205V71.0705H43.0078Z" fill="#167CC1"/>
<path d="M61.0466 57.811C61.8332 53.7668 59.1924 49.8507 55.1482 49.0641C51.104 48.2775 47.1879 50.9183 46.4013 54.9625C45.6147 59.0067 48.2555 62.9228 52.2997 63.7094C56.3439 64.496 60.26 61.8552 61.0466 57.811Z" fill="#E9EFFF"/>
<path d="M56.1171 62.6625C53.8046 61.5864 54.1971 59.3744 54.4393 58.5497C54.5037 58.3307 54.4779 58.0953 54.3723 57.893L52.1426 53.6182C52.0812 53.5005 51.9956 53.396 51.8879 53.3183C50.4626 52.2886 50.7465 50.7994 51.0737 49.9522C51.1437 49.7711 51.1479 49.5775 51.0973 49.3994C48.2571 50.4527 46.2329 53.186 46.2329 56.3925C46.2329 60.5108 49.5715 63.8494 53.6898 63.8494C54.722 63.8494 55.7051 63.6396 56.599 63.2604C56.5403 63.0071 56.3723 62.7813 56.1171 62.6625Z" fill="#D3DCFB"/>
<path d="M56.7921 55.8195L52.6067 53.4608C52.1678 53.2134 51.625 53.5306 51.625 54.0344V58.7519C51.625 59.2556 52.1678 59.5728 52.6067 59.3255L56.7921 56.9667C57.2389 56.715 57.2389 56.0714 56.7921 55.8195Z" fill="#FF4155"/>
<path d="M34.29 72.4734H29.5985C28.8238 72.4734 28.1956 71.8453 28.1956 71.0706V46.0206C28.1956 45.2458 28.8238 44.6177 29.5986 44.6177H31.76C31.8992 44.6177 32.0122 44.7305 32.0122 44.8697C32.0122 45.6942 32.6867 46.3688 33.5113 46.3688H35.1558C33.4928 44.4236 34.8331 42.716 35.2439 42.2739H29.5986C27.5328 42.2739 25.8521 43.9547 25.8521 46.0206V71.0705C25.8521 73.1364 27.5328 74.817 29.5986 74.817H34.0016C33.1475 73.6031 34.1849 72.5728 34.29 72.4734Z" fill="#0E62A8"/>
</g>
<defs>
<clipPath id="clip0">
<rect width="80" height="80" fill="white"/>
</clipPath>
</defs>
</svg>
