<svg width="32" height="32" viewBox="0 0 32 32" fill="none" xmlns="http://www.w3.org/2000/svg">
<path d="M1.7833 22.3854C3.40142 26.4187 6.68567 29.6036 10.7849 31.0883H21.2145C25.3138 29.6036 28.598 26.4186 30.2161 22.3853L30.7849 12.6928C29.0277 6.17307 23.0746 1.37451 15.9997 1.37451C8.92424 1.37451 2.9708 6.1737 1.21411 12.6941L1.7833 22.3854Z" fill="#1C2E7A"/>
<path d="M15.9999 13.5923C15.7385 13.5923 15.5266 13.3804 15.5266 13.1191V10.5995C15.5266 10.3381 15.7385 10.1262 15.9999 10.1262C16.2612 10.1262 16.4731 10.3381 16.4731 10.5995V13.1191C16.4731 13.3804 16.2612 13.5923 15.9999 13.5923Z" fill="#E9EFFF"/>
<path d="M22.7832 17.8558H20.2635C20.0022 17.8558 19.7903 17.6439 19.7903 17.3826C19.7903 17.1212 20.0022 16.9094 20.2635 16.9094H22.7832C23.0445 16.9094 23.2564 17.1213 23.2564 17.3826C23.2564 17.6439 23.0445 17.8558 22.7832 17.8558Z" fill="#E9EFFF"/>
<path d="M15.9999 24.6394C15.7385 24.6394 15.5266 24.4275 15.5266 24.1662V21.6465C15.5266 21.3852 15.7385 21.1733 15.9999 21.1733C16.2612 21.1733 16.4731 21.3852 16.4731 21.6465V24.1662C16.4731 24.4275 16.2612 24.6394 15.9999 24.6394Z" fill="#E9EFFF"/>
<path d="M11.7362 17.8558H9.2166C8.95522 17.8558 8.74341 17.6439 8.74341 17.3826C8.74341 17.1212 8.95528 16.9094 9.2166 16.9094H11.7362C11.9976 16.9094 12.2094 17.1213 12.2094 17.3826C12.2094 17.6439 11.9975 17.8558 11.7362 17.8558Z" fill="#E9EFFF"/>
<path d="M15.9999 10.5994C18.7962 10.5994 21.063 8.33256 21.063 5.53627C21.063 2.73998 18.7962 0.473145 15.9999 0.473145C13.2036 0.473145 10.9368 2.73998 10.9368 5.53627C10.9368 8.33256 13.2036 10.5994 15.9999 10.5994Z" fill="#F76EBB"/>
<path d="M19.5665 9.12954C19.4443 9.01886 19.4127 8.86423 19.4088 8.75017C19.406 8.67185 19.336 8.61304 19.2581 8.62092C18.2899 8.71886 16.344 8.26579 15.8718 8.15086C15.81 8.13579 15.7668 8.08048 15.7668 8.01679V2.93311C15.7668 2.89323 15.7491 2.85586 15.7195 2.82911C15.1805 2.34123 15.3643 1.85711 15.4973 1.63723C15.5357 1.57373 15.5135 1.49373 15.4526 1.45123C15.3016 1.34579 15.3199 1.19029 15.3559 1.08692C15.3774 1.02523 15.3542 0.95648 15.2981 0.923043C15.1217 0.81798 15.0516 0.69048 15.0373 0.565918C12.7016 1.01567 10.9368 3.06948 10.9368 5.53654C10.9368 8.33286 13.2036 10.5997 15.9999 10.5997C17.3913 10.5996 18.6513 10.038 19.5665 9.12954Z" fill="#F24CA7"/>
<path d="M16 21.6465C18.3548 21.6465 20.2637 19.7376 20.2637 17.3828C20.2637 15.0281 18.3548 13.1191 16 13.1191C13.6452 13.1191 11.7363 15.0281 11.7363 17.3828C11.7363 19.7376 13.6452 21.6465 16 21.6465Z" fill="#4FABF7"/>
<path d="M24.8656 4.38729H22.9076C22.6462 4.38729 22.4343 4.17542 22.4343 3.91411C22.4343 3.65273 22.6462 3.44092 22.9076 3.44092H24.8656C25.127 3.44092 25.3388 3.65279 25.3388 3.91411C25.3388 4.17542 25.127 4.38729 24.8656 4.38729Z" fill="#F76EBB"/>
<path d="M26.3116 6.00967H22.9073C22.646 6.00967 22.4341 5.79779 22.4341 5.53648C22.4341 5.27511 22.646 5.06323 22.9073 5.06323H26.3116C26.573 5.06323 26.7848 5.27511 26.7848 5.53648C26.7848 5.79779 26.573 6.00967 26.3116 6.00967Z" fill="#3C58A0"/>
<path d="M26.3116 7.63168H22.9073C22.646 7.63168 22.4341 7.4198 22.4341 7.15849C22.4341 6.89712 22.646 6.6853 22.9073 6.6853H26.3116C26.573 6.6853 26.7848 6.89718 26.7848 7.15849C26.7848 7.41987 26.573 7.63168 26.3116 7.63168Z" fill="#3C58A0"/>
<path d="M28.1023 24.8129H26.1443C25.883 24.8129 25.6711 24.601 25.6711 24.3396C25.6711 24.0783 25.883 23.8665 26.1443 23.8665H28.1023C28.3636 23.8665 28.5755 24.0783 28.5755 24.3396C28.5756 24.6011 28.3637 24.8129 28.1023 24.8129Z" fill="#73C3F9"/>
<path d="M28.531 25.489H26.1441C25.8828 25.489 25.6709 25.7009 25.6709 25.9623C25.6709 26.2236 25.8828 26.4355 26.1441 26.4355H27.8095C28.062 26.1298 28.3025 25.8139 28.531 25.489Z" fill="#3C58A0"/>
<path d="M26.1441 27.1109C25.8828 27.1109 25.6709 27.3228 25.6709 27.5841C25.6709 27.8454 25.8828 28.0573 26.1441 28.0573H26.256C26.5897 27.7561 26.9096 27.44 27.2158 27.1108H26.1441V27.1109Z" fill="#3C58A0"/>
<path d="M4.40928 7.65487H2.45121C2.18984 7.65487 1.97803 7.443 1.97803 7.18168C1.97803 6.92037 2.1899 6.7085 2.45121 6.7085H4.40921C4.67059 6.7085 4.8824 6.92037 4.8824 7.18168C4.8824 7.443 4.67059 7.65487 4.40928 7.65487Z" fill="#38C674"/>
<path d="M5.85546 9.27676H2.45121C2.18984 9.27676 1.97803 9.06488 1.97803 8.80351C1.97803 8.54213 2.1899 8.33032 2.45121 8.33032H5.85546C6.11684 8.33032 6.32871 8.5422 6.32871 8.80351C6.32871 9.06488 6.11684 9.27676 5.85546 9.27676Z" fill="#3C58A0"/>
<path d="M5.85546 10.8991H2.45121C2.18984 10.8991 1.97803 10.6872 1.97803 10.4259C1.97803 10.1645 2.1899 9.95264 2.45121 9.95264H5.85546C6.11684 9.95264 6.32871 10.1645 6.32871 10.4259C6.32871 10.6873 6.11684 10.8991 5.85546 10.8991Z" fill="#3C58A0"/>
<path d="M7.64634 27.8849H5.68828C5.42696 27.8849 5.21509 27.673 5.21509 27.4117C5.21509 27.1504 5.42696 26.9385 5.68828 26.9385H7.64628C7.90765 26.9385 8.11946 27.1504 8.11946 27.4117C8.11953 27.6731 7.90765 27.8849 7.64634 27.8849Z" fill="#FFC839"/>
<path d="M9.09225 28.5605H6.33081C6.7445 28.8979 7.17625 29.2137 7.62419 29.507H9.09225C9.35363 29.507 9.56544 29.2951 9.56544 29.0337C9.56551 28.7724 9.35363 28.5605 9.09225 28.5605Z" fill="#3C58A0"/>
<path d="M19.2292 8.54501C19.2187 8.54326 19.2358 8.54632 19.1942 8.53989L19.1932 8.54045C18.8606 8.49245 18.3501 8.6092 17.8403 8.31201C17.6129 8.65445 17.3455 8.92307 17.0962 9.1167C16.7835 9.35957 16.3975 9.49145 16.0001 9.49145C15.6027 9.49145 15.2167 9.35951 14.904 9.1167C14.6548 8.9232 14.3875 8.65476 14.1602 8.31264C13.6662 8.60214 13.1797 8.49301 12.8353 8.53682C12.8353 8.53676 12.8352 8.53664 12.8352 8.53657C12.7942 8.54207 12.7892 8.54195 12.7709 8.54501L12.7739 8.54776C12.5422 8.58914 12.3313 8.68745 12.1523 8.82564C13.081 9.91095 14.4597 10.5997 16 10.5997C17.5407 10.5997 18.9196 9.91064 19.8483 8.82495C19.6695 8.68657 19.459 8.5882 19.2275 8.54664L19.2292 8.54501Z" fill="#E9EFFF"/>
<path d="M14.904 9.11656C14.6548 8.92306 14.3875 8.65462 14.1602 8.3125C13.6662 8.602 13.1797 8.49288 12.8353 8.53669C12.8353 8.53663 12.8352 8.5365 12.8352 8.53644C12.7942 8.54194 12.7892 8.54181 12.7709 8.54488L12.7739 8.54762C12.5422 8.589 12.3313 8.68731 12.1523 8.8255C12.4799 9.20831 12.8637 9.54144 13.2905 9.81275C13.5122 9.76969 13.7657 9.729 14.0561 9.69375C14.5359 9.63544 14.9 9.4805 15.1761 9.28969C15.0809 9.24031 14.9895 9.183 14.904 9.11656Z" fill="#BEC8F7"/>
<path d="M14.1003 8.34557C14.3397 8.73251 14.6324 9.03207 14.9037 9.24276C15.2165 9.48563 15.6023 9.61751 15.9998 9.61751C16.3973 9.61751 16.7832 9.48557 17.096 9.24276C17.3675 9.03188 17.6604 8.73213 17.8998 8.34482C17.7595 8.27163 17.6186 8.16888 17.481 8.02407L17.4817 8.02326C17.2487 7.77838 17.1898 7.5817 17.019 7.28345C16.3902 7.61282 15.6272 7.62201 14.9808 7.28345C14.8012 7.59695 14.7468 7.78282 14.5181 8.02326L14.5188 8.02407C14.3803 8.16982 14.2398 8.27257 14.1003 8.34557Z" fill="#FCAD6D"/>
<path d="M15.8491 7.52838C15.5514 7.50807 15.2555 7.42757 14.9807 7.28369C14.8011 7.59719 14.7467 7.78306 14.518 8.0235L14.5187 8.02431C14.3802 8.17 14.2397 8.27281 14.1003 8.34581C14.3397 8.73275 14.6324 9.03231 14.9037 9.243C14.9576 9.28487 15.0144 9.32218 15.0723 9.35731C15.845 8.88706 15.9998 8.125 15.9998 8.125C15.9998 8.125 15.9347 7.87131 15.8491 7.52838Z" fill="#FD995B"/>
<path d="M15.5852 1.51464C14.3394 1.68439 14.2209 2.39077 14.2204 2.64989C14.2202 2.70427 14.1901 2.75464 14.1412 2.77839C13.4932 3.09364 13.8426 4.61302 13.8426 4.61302C13.9077 4.61733 14.0053 4.6732 14.0561 4.69783C14.0685 4.62039 14.0889 4.5442 14.1175 4.47052C14.1394 4.41439 14.1667 4.35764 14.2009 4.30408C14.2601 4.21108 14.2871 4.10139 14.279 3.99177C14.2557 3.67477 14.2375 3.0797 14.6559 2.89145C15.0103 2.73195 15.4451 2.82433 15.7224 2.91652C15.9025 2.97639 16.0976 2.97639 16.2776 2.91652C16.5549 2.82433 16.9897 2.73195 17.3441 2.89145C17.7613 3.0792 17.7442 3.67127 17.7212 3.98908C17.7132 4.09958 17.7394 4.21039 17.7991 4.30408C17.8344 4.35939 17.8624 4.41802 17.8846 4.47595C17.9121 4.54795 17.9318 4.62233 17.9439 4.69789C18.008 4.66689 18.129 4.60358 18.2073 4.61464C18.2169 4.28239 18.2476 3.92427 18.2476 3.92427C18.6168 2.11596 16.9266 1.33183 15.5852 1.51464Z" fill="#A05838"/>
<path d="M15.7222 2.91649C15.7367 2.9213 15.7515 2.92512 15.7662 2.92918C15.7651 2.8908 15.7479 2.85493 15.7193 2.82905C15.1803 2.34118 15.3641 1.85705 15.4971 1.63718C15.5183 1.60218 15.5205 1.56237 15.5085 1.52637C14.3348 1.71424 14.2207 2.39618 14.2201 2.64987C14.22 2.70424 14.1898 2.75462 14.141 2.77837C13.493 3.09362 13.8423 4.61299 13.8423 4.61299C13.9074 4.6173 14.005 4.67318 14.0558 4.6978C14.0683 4.62037 14.0886 4.54418 14.1173 4.47049C14.1392 4.41437 14.1665 4.35762 14.2006 4.30405C14.2598 4.21105 14.2868 4.10137 14.2788 3.99174C14.2555 3.67474 14.2372 3.07968 14.6556 2.89143C15.0101 2.73193 15.4449 2.8243 15.7222 2.91649Z" fill="#823C26"/>
<path d="M18.3177 4.65782C18.2206 4.56889 18.0274 4.61395 17.9438 4.66845C17.9621 4.78245 17.9632 4.89907 17.9473 5.01426L17.8487 5.73251C17.8487 5.79039 17.8469 5.8472 17.8435 5.90301C18.084 5.97557 18.2034 5.7597 18.2236 5.61151C18.2322 5.54776 18.2464 5.48489 18.266 5.42351C18.33 5.22376 18.5608 4.88064 18.3177 4.65782Z" fill="#FD995B"/>
<path d="M13.6821 4.65782C13.7792 4.56889 13.9724 4.61395 14.056 4.66845C14.0377 4.78245 14.0366 4.89907 14.0524 5.01426L14.1511 5.73251C14.1511 5.79039 14.1529 5.8472 14.1562 5.90301C13.9158 5.97557 13.7963 5.7597 13.7762 5.61151C13.7675 5.54776 13.7534 5.48489 13.7338 5.42351C13.6698 5.22376 13.439 4.88064 13.6821 4.65782Z" fill="#FD995B"/>
<path d="M17.9139 4.4465C17.8917 4.38856 17.8637 4.32993 17.8285 4.27462C17.7687 4.18093 17.7425 4.07012 17.7505 3.95962C17.7735 3.64181 17.7612 3.02025 17.344 2.8325C16.9895 2.673 16.5548 2.76537 16.2775 2.85756C16.0974 2.91743 15.9022 2.91743 15.7222 2.85756C15.4449 2.76537 15.0101 2.673 14.6557 2.8325C14.2373 3.02075 14.226 3.64537 14.2494 3.96231C14.2574 4.07193 14.2304 4.18162 14.1712 4.27462C14.137 4.32818 14.1097 4.38493 14.0879 4.44106C14.017 4.62318 13.9963 4.82068 14.0229 5.01406L14.1215 5.7325C14.1215 6.76537 14.6729 7.46737 15.1418 7.83156C15.3866 8.02168 15.6887 8.12493 15.9998 8.12493C16.3109 8.12493 16.613 8.02168 16.8578 7.83156C17.3268 7.46737 17.8781 6.76537 17.8781 5.7325L17.9767 5.01425C18.0031 4.82275 17.9832 4.62718 17.9139 4.4465Z" fill="#F9BA8F"/>
<path d="M16.1502 7.83156C15.8265 7.46737 15.446 6.76537 15.446 5.7325L15.378 5.01406C15.3597 4.82068 15.3739 4.62318 15.4229 4.44106C15.4379 4.38493 15.4568 4.32818 15.4804 4.27462C15.5212 4.18162 15.5399 4.07193 15.5343 3.96231C15.5192 3.664 15.5253 3.0935 15.7667 2.87037C15.7519 2.86631 15.7369 2.86243 15.7222 2.85756C15.4449 2.76537 15.0101 2.673 14.6557 2.8325C14.2373 3.02075 14.226 3.64537 14.2494 3.96231C14.2574 4.07193 14.2304 4.18162 14.1712 4.27462C14.137 4.32818 14.1097 4.38493 14.0879 4.44106C14.017 4.62318 13.9963 4.82068 14.0229 5.01406L14.1215 5.7325C14.1215 6.76537 14.6729 7.46737 15.1418 7.83156C15.3866 8.02168 15.6887 8.12493 15.9998 8.12493C16.1502 8.12493 16.2983 8.10031 16.4391 8.05387C16.3354 8.00425 16.2374 7.92975 16.1502 7.83156Z" fill="#FCAD6D"/>
<path d="M16 11.0728C12.9472 11.0728 10.4636 8.58912 10.4636 5.53638C10.4636 2.48362 12.9472 0 16 0C19.0527 0 21.5363 2.48362 21.5363 5.53638C21.5364 8.58912 19.0527 11.0728 16 11.0728ZM16 0.946437C13.4691 0.946437 11.4101 3.0055 11.4101 5.53638C11.4101 8.06725 13.4691 10.1263 16 10.1263C18.5309 10.1263 20.5899 8.06725 20.5899 5.53638C20.5899 3.0055 18.5309 0.946437 16 0.946437Z" fill="#FC90CE"/>
<path d="M20.0649 9.26734C19.5113 9.29178 19.416 8.95528 19.4089 8.75015C19.4076 8.71196 19.3901 8.67859 19.3636 8.65515C18.5247 9.55921 17.3276 10.1264 16 10.1264C13.4691 10.1264 11.4101 8.06734 11.4101 5.53646C11.4101 3.2244 13.1287 1.30715 15.3554 0.992713C15.3451 0.964338 15.3256 0.9394 15.2981 0.923025C14.8711 0.66865 15.0659 0.282713 15.1725 0.125025C15.1861 0.1049 15.1929 0.0820254 15.1948 0.0588379C12.5223 0.449963 10.4636 2.75715 10.4636 5.53646C10.4636 8.58921 12.9472 11.0728 16 11.0728C17.6161 11.0728 19.0726 10.3767 20.0857 9.26859C20.0788 9.26778 20.0719 9.26702 20.0649 9.26734Z" fill="#F76EBB"/>
<path d="M15.9999 24.166C13.2036 24.166 10.9368 26.4329 10.9368 29.2291C10.9368 29.9626 11.094 30.6589 11.3745 31.2881C12.8339 31.75 14.3876 31.9999 15.9999 31.9999C17.6121 31.9999 19.1658 31.75 20.6253 31.2881C20.9058 30.6589 21.0631 29.9626 21.0631 29.2291C21.063 26.4328 18.7962 24.166 15.9999 24.166Z" fill="#FFC839"/>
<path d="M15.767 31.7096V26.6259C15.767 26.586 15.7493 26.5487 15.7197 26.5219C15.1806 26.034 15.3644 25.5499 15.4974 25.3301C15.5359 25.2666 15.5136 25.1866 15.4528 25.1441C15.3018 25.0387 15.3201 24.8832 15.3561 24.7798C15.3776 24.7181 15.3544 24.6494 15.2983 24.6159C15.1219 24.5109 15.0518 24.3834 15.0376 24.2588C12.7018 24.7085 10.937 26.7624 10.937 29.2294C10.937 29.9629 11.0942 30.6592 11.3748 31.2884C12.8341 31.7501 14.3878 32 16.0001 32C16.1727 32 16.3444 31.996 16.5156 31.9904C16.2278 31.9287 15.9976 31.8742 15.872 31.8437C15.8101 31.8285 15.767 31.7732 15.767 31.7096Z" fill="#FFB332"/>
<path d="M14.3079 31.9064C14.8636 31.9675 15.4279 31.9999 15.9999 31.9999C16.5721 31.9999 17.1366 31.9675 17.6925 31.9064C17.6215 31.8529 17.5508 31.7904 17.481 31.7169L17.4817 31.7161C17.2488 31.4713 17.1899 31.2746 17.019 30.9763C16.3902 31.3057 15.6272 31.3149 14.9808 30.9763C14.8012 31.2898 14.7468 31.4757 14.5181 31.7161L14.5188 31.7169C14.4489 31.7905 14.3784 31.8531 14.3079 31.9064Z" fill="#FCAD6D"/>
<path d="M14.3079 31.9065C14.8454 31.9656 15.3911 31.9973 15.9439 31.9993C15.9855 31.8883 15.9999 31.8177 15.9999 31.8177C15.9999 31.8177 15.9348 31.5641 15.8493 31.2211C15.5516 31.2007 15.2556 31.1203 14.9809 30.9763C14.8012 31.2898 14.7469 31.4757 14.5182 31.7161L14.5189 31.7169C14.4489 31.7906 14.3784 31.8531 14.3079 31.9065Z" fill="#FD995B"/>
<path d="M15.5852 25.2073C14.3394 25.377 14.2209 26.0833 14.2204 26.3425C14.2202 26.3969 14.1901 26.4472 14.1412 26.471C13.4932 26.7863 13.8426 28.3056 13.8426 28.3056C13.9077 28.31 14.0053 28.3658 14.0561 28.3904C14.0685 28.313 14.0889 28.2368 14.1175 28.1631C14.1394 28.107 14.1667 28.0503 14.2009 27.9967C14.2601 27.9037 14.2871 27.7941 14.279 27.6844C14.2557 27.3674 14.2375 26.7723 14.6559 26.5841C15.0103 26.4246 15.4451 26.517 15.7224 26.6091C15.9025 26.669 16.0976 26.669 16.2776 26.6091C16.5549 26.517 16.9897 26.4246 17.3441 26.5841C17.7613 26.7718 17.7442 27.3639 17.7212 27.6817C17.7132 27.7922 17.7394 27.903 17.7991 27.9967C17.8344 28.052 17.8624 28.1106 17.8846 28.1686C17.9121 28.2406 17.9318 28.3149 17.9439 28.3905C18.008 28.3595 18.129 28.2962 18.2073 28.3073C18.2169 27.975 18.2476 27.6169 18.2476 27.6169C18.6168 25.8086 16.9266 25.0245 15.5852 25.2073Z" fill="#A05838"/>
<path d="M15.7222 26.6095C15.7367 26.6144 15.7515 26.6182 15.7662 26.6222C15.7651 26.5839 15.7479 26.548 15.7193 26.5221C15.1803 26.0342 15.3641 25.5501 15.4971 25.3303C15.5183 25.2953 15.5205 25.2555 15.5085 25.2195C14.3348 25.4074 14.2207 26.0893 14.2201 26.343C14.22 26.3974 14.1898 26.4477 14.141 26.4715C13.493 26.7867 13.8423 28.3061 13.8423 28.3061C13.9074 28.3104 14.005 28.3663 14.0558 28.3909C14.0683 28.3135 14.0886 28.2373 14.1173 28.1636C14.1392 28.1075 14.1665 28.0507 14.2006 27.9972C14.2598 27.9042 14.2868 27.7945 14.2788 27.6849C14.2555 27.3679 14.2372 26.7728 14.6556 26.5845C15.0101 26.425 15.4449 26.5174 15.7222 26.6095Z" fill="#823C26"/>
<path d="M18.3177 28.3505C18.2206 28.2615 18.0274 28.3066 17.9438 28.3611C17.9621 28.4751 17.9632 28.5917 17.9473 28.7069L17.8487 29.4251C17.8487 29.483 17.8469 29.5398 17.8435 29.5956C18.084 29.6682 18.2034 29.4523 18.2236 29.3041C18.2322 29.2404 18.2464 29.1775 18.266 29.1162C18.33 28.9164 18.5608 28.5732 18.3177 28.3505Z" fill="#FD995B"/>
<path d="M13.6821 28.3505C13.7792 28.2615 13.9724 28.3066 14.056 28.3611C14.0377 28.4751 14.0366 28.5917 14.0524 28.7069L14.1511 29.4251C14.1511 29.483 14.1529 29.5398 14.1562 29.5956C13.9158 29.6682 13.7963 29.4523 13.7762 29.3041C13.7675 29.2404 13.7534 29.1775 13.7338 29.1162C13.6698 28.9164 13.439 28.5732 13.6821 28.3505Z" fill="#FD995B"/>
<path d="M17.9139 28.1393C17.8917 28.0814 17.8637 28.0227 17.8285 27.9674C17.7687 27.8737 17.7425 27.7629 17.7505 27.6524C17.7735 27.3346 17.7612 26.7131 17.344 26.5254C16.9895 26.3659 16.5548 26.4582 16.2775 26.5504C16.0974 26.6103 15.9022 26.6103 15.7222 26.5504C15.4449 26.4582 15.0101 26.3659 14.6557 26.5254C14.2373 26.7136 14.226 27.3382 14.2494 27.6552C14.2574 27.7648 14.2304 27.8745 14.1712 27.9675C14.137 28.0211 14.1097 28.0778 14.0879 28.1339C14.017 28.3161 13.9963 28.5136 14.0229 28.7069L14.1215 29.4254C14.1215 30.4582 14.6729 31.1602 15.1418 31.5244C15.3866 31.7146 15.6887 31.8178 15.9998 31.8178C16.3109 31.8178 16.613 31.7146 16.8578 31.5244C17.3268 31.1602 17.8781 30.4582 17.8781 29.4254L17.9767 28.7071C18.0031 28.5156 17.9832 28.32 17.9139 28.1393Z" fill="#F9BA8F"/>
<path d="M16.1502 31.5244C15.8265 31.1602 15.446 30.4582 15.446 29.4254L15.378 28.7069C15.3597 28.5136 15.3739 28.3161 15.4229 28.1339C15.4379 28.0778 15.4568 28.0211 15.4804 27.9675C15.5212 27.8745 15.5399 27.7648 15.5343 27.6552C15.5192 27.3569 15.5253 26.7864 15.7667 26.5632C15.7519 26.5591 15.7369 26.5553 15.7222 26.5504C15.4449 26.4582 15.0101 26.3659 14.6557 26.5254C14.2373 26.7136 14.226 27.3382 14.2494 27.6552C14.2574 27.7648 14.2304 27.8745 14.1712 27.9675C14.137 28.0211 14.1097 28.0778 14.0879 28.1339C14.017 28.3161 13.9963 28.5136 14.0229 28.7069L14.1215 29.4254C14.1215 30.4582 14.6729 31.1602 15.1418 31.5244C15.3866 31.7146 15.6887 31.8178 15.9998 31.8178C16.1502 31.8178 16.2983 31.7932 16.4391 31.7467C16.3354 31.6971 16.2374 31.6226 16.1502 31.5244Z" fill="#FCAD6D"/>
<path d="M16 23.6929C12.9472 23.6929 10.4636 26.1765 10.4636 29.2292C10.4636 29.8812 10.5772 30.5071 10.7852 31.0885C11.1815 31.2321 11.5856 31.3591 11.9964 31.4701C11.6237 30.8069 11.4101 30.0427 11.4101 29.2292C11.4101 26.6984 13.4691 24.6393 16 24.6393C18.5309 24.6393 20.5899 26.6984 20.5899 29.2292C20.5899 30.0427 20.3763 30.8068 20.0036 31.4701C20.4144 31.3591 20.8186 31.2321 21.2149 31.0886C21.4228 30.5071 21.5364 29.8813 21.5364 29.2293C21.5364 26.1765 19.0528 23.6929 16 23.6929Z" fill="#FFE98D"/>
<path d="M11.4101 29.2293C11.4101 26.9173 13.1287 25 15.3554 24.6856C15.3451 24.6572 15.3256 24.6323 15.2981 24.6159C14.8712 24.3615 15.0659 23.9756 15.1725 23.8179C15.1861 23.7978 15.1929 23.7749 15.1948 23.7517C12.5223 24.1428 10.4636 26.45 10.4636 29.2293C10.4636 29.8813 10.5772 30.5071 10.7852 31.0886C11.1815 31.2321 11.5856 31.3592 11.9964 31.4702C11.6237 30.8069 11.4101 30.0428 11.4101 29.2293Z" fill="#FFC839"/>
<path d="M22.7832 17.3829C22.7832 20.1793 25.0501 22.4461 27.8463 22.4461C28.8055 22.4461 29.7022 22.1792 30.4667 21.716C31.0141 20.1408 31.3126 18.4491 31.3126 16.6875C31.3126 15.5546 31.1885 14.4508 30.955 13.388C30.0969 12.7193 29.0186 12.3198 27.8464 12.3198C25.0501 12.3198 22.7832 14.5866 22.7832 17.3829Z" fill="#73C3F9"/>
<path d="M28.9703 20.2663C28.4085 20.1615 27.9238 20.0474 27.7183 19.9974C27.6564 19.9823 27.6133 19.927 27.6133 19.8633V14.7796C27.6133 14.7397 27.5955 14.7024 27.566 14.6755C27.0269 14.1877 27.2106 13.7035 27.3437 13.4837C27.3821 13.4202 27.3599 13.3402 27.299 13.2977C27.148 13.1922 27.1663 13.0368 27.2023 12.9334C27.2238 12.8717 27.2006 12.8029 27.1445 12.7695C26.9681 12.6644 26.898 12.5369 26.8838 12.4124C24.548 12.8621 22.7832 14.916 22.7832 17.383C22.7832 20.1793 25.0501 22.4461 27.8463 22.4461C28.2328 22.4461 28.6086 22.4014 28.9703 22.3193V20.2663Z" fill="#4FABF7"/>
<path d="M29.6868 20.1582C29.4593 20.5006 29.192 20.7693 28.9427 20.9629C28.6299 21.2058 28.244 21.3376 27.8465 21.3376C27.4491 21.3376 27.0632 21.2057 26.7504 20.9629C26.5012 20.7694 26.234 20.501 26.0067 20.1588C25.5126 20.4483 25.0262 20.3392 24.6818 20.383C24.6817 20.383 24.6816 20.3828 24.6816 20.3828C24.6406 20.3883 24.6357 20.3881 24.6173 20.3912L24.6203 20.394C24.3886 20.4353 24.1778 20.5336 23.9988 20.6718C24.9274 21.7571 26.3061 22.4459 27.8465 22.4459C28.8061 22.4459 29.7028 22.1785 30.4673 21.7145C30.6195 21.2764 30.7523 20.8293 30.8648 20.3741C30.5416 20.3658 30.1142 20.4073 29.6868 20.1582Z" fill="#E9EFFF"/>
<path d="M26.7502 20.963C26.501 20.7695 26.2337 20.5011 26.0064 20.1589C25.5123 20.4484 25.0259 20.3393 24.6815 20.3831C24.6815 20.3831 24.6813 20.3829 24.6813 20.3829C24.6403 20.3884 24.6354 20.3882 24.6171 20.3913L24.6201 20.3941C24.3883 20.4354 24.1775 20.5337 23.9985 20.6719C24.3261 21.0547 24.7098 21.3879 25.1367 21.6592C25.3584 21.6161 25.6118 21.5754 25.9023 21.5402C26.3821 21.4819 26.7462 21.3269 27.0223 21.1361C26.9271 21.0867 26.8357 21.0294 26.7502 20.963Z" fill="#BEC8F7"/>
<path d="M25.9468 20.192C26.1861 20.5789 26.4788 20.8785 26.7502 21.0892C27.0629 21.3321 27.4488 21.4639 27.8463 21.4639C28.2437 21.4639 28.6297 21.3321 28.9424 21.0892C29.2139 20.8783 29.5068 20.5785 29.7462 20.1913C29.6058 20.1181 29.465 20.0153 29.3273 19.8705L29.328 19.8697C29.0951 19.6248 29.0362 19.4281 28.8653 19.1299C28.2366 19.4593 27.4735 19.4684 26.8272 19.1299C26.6475 19.4434 26.5932 19.6293 26.3645 19.8697L26.3652 19.8705C26.2267 20.0163 26.0862 20.119 25.9468 20.192Z" fill="#FCAD6D"/>
<path d="M27.6956 19.3746C27.3979 19.3542 27.102 19.2738 26.8272 19.1299C26.6476 19.4434 26.5932 19.6293 26.3645 19.8697L26.3652 19.8705C26.2267 20.0162 26.0862 20.119 25.9468 20.192C26.1861 20.5789 26.4788 20.8785 26.7502 21.0892C26.8041 21.1311 26.8608 21.1684 26.9188 21.2036C27.6915 20.7333 27.8463 19.9713 27.8463 19.9713C27.8463 19.9713 27.7811 19.7175 27.6956 19.3746Z" fill="#FD995B"/>
<path d="M27.4316 13.3611C26.1858 13.5308 26.0674 14.2372 26.0668 14.4963C26.0667 14.5507 26.0365 14.6011 25.9877 14.6248C25.3396 14.9401 25.689 16.4595 25.689 16.4595C25.7541 16.4638 25.8517 16.5196 25.9025 16.5443C25.915 16.4668 25.9353 16.3906 25.964 16.317C25.9859 16.2608 26.0132 16.2041 26.0473 16.1505C26.1065 16.0575 26.1335 15.9479 26.1255 15.8382C26.1022 15.5212 26.0839 14.9261 26.5023 14.7379C26.8567 14.5784 27.2915 14.6708 27.5689 14.763C27.7489 14.8228 27.944 14.8228 28.124 14.763C28.4013 14.6708 28.8361 14.5784 29.1906 14.7379C29.6077 14.9256 29.5906 15.5177 29.5676 15.8355C29.5596 15.946 29.5859 16.0568 29.6456 16.1505C29.6809 16.2058 29.7089 16.2645 29.7311 16.3224C29.7587 16.3944 29.7783 16.4688 29.7904 16.5443C29.8545 16.5133 29.9755 16.45 30.0538 16.4611C30.0634 16.1288 30.0941 15.7707 30.0941 15.7707C30.4632 13.9624 28.773 13.1783 27.4316 13.3611Z" fill="#A05838"/>
<path d="M27.5688 14.7627C27.5833 14.7675 27.5981 14.7713 27.6128 14.7754C27.6117 14.737 27.5945 14.7011 27.566 14.6753C27.0269 14.1874 27.2107 13.7032 27.3437 13.4834C27.3649 13.4484 27.3671 13.4086 27.3552 13.3726C26.1815 13.5604 26.0674 14.2424 26.0668 14.4961C26.0667 14.5504 26.0365 14.6008 25.9877 14.6246C25.3396 14.9398 25.689 16.4592 25.689 16.4592C25.7541 16.4636 25.8517 16.5194 25.9025 16.544C25.915 16.4666 25.9353 16.3904 25.964 16.3167C25.9859 16.2606 26.0132 16.2038 26.0473 16.1503C26.1065 16.0573 26.1335 15.9476 26.1255 15.8379C26.1022 15.5209 26.0839 14.9259 26.5023 14.7376C26.8567 14.5781 27.2915 14.6705 27.5688 14.7627Z" fill="#823C26"/>
<path d="M30.1643 16.504C30.0673 16.4151 29.874 16.4601 29.7904 16.5146C29.8087 16.6286 29.8098 16.7453 29.794 16.8605L29.6954 17.5787C29.6954 17.6366 29.6936 17.6934 29.6902 17.7492C29.9307 17.8218 30.0501 17.6058 30.0702 17.4577C30.0789 17.3939 30.0931 17.3311 30.1127 17.2697C30.1766 17.0699 30.4074 16.7268 30.1643 16.504Z" fill="#FD995B"/>
<path d="M25.5283 16.504C25.6253 16.4151 25.8187 16.4601 25.9022 16.5146C25.8839 16.6286 25.8828 16.7453 25.8987 16.8605L25.9973 17.5787C25.9973 17.6366 25.9992 17.6934 26.0025 17.7492C25.762 17.8218 25.6426 17.6058 25.6225 17.4577C25.6138 17.3939 25.5996 17.3311 25.58 17.2697C25.516 17.0699 25.2852 16.7268 25.5283 16.504Z" fill="#FD995B"/>
<path d="M29.7604 16.2929C29.7382 16.2349 29.7102 16.1763 29.6749 16.121C29.6152 16.0273 29.5889 15.9165 29.5969 15.806C29.6199 15.4882 29.6076 14.8666 29.1904 14.6789C28.836 14.5194 28.4012 14.6118 28.1239 14.704C27.9439 14.7639 27.7487 14.7639 27.5686 14.704C27.2914 14.6118 26.8565 14.5195 26.5021 14.6789C26.0837 14.8672 26.0725 15.4917 26.0958 15.8087C26.1039 15.9184 26.0769 16.0281 26.0176 16.1211C25.9835 16.1746 25.9561 16.2314 25.9343 16.2875C25.8634 16.4696 25.8427 16.6671 25.8693 16.8605L25.9679 17.5789C25.9679 18.6118 26.5193 19.3138 26.9882 19.678C27.233 19.8681 27.5351 19.9714 27.8462 19.9714C28.1574 19.9714 28.4595 19.8681 28.7042 19.678C29.1732 19.3138 29.7246 18.6118 29.7246 17.5789L29.8232 16.8607C29.8495 16.6691 29.8296 16.4736 29.7604 16.2929Z" fill="#F9BA8F"/>
<path d="M27.9966 19.6778C27.673 19.3136 27.2925 18.6116 27.2925 17.5787L27.2244 16.8603C27.2061 16.6669 27.2204 16.4694 27.2693 16.2873C27.2844 16.2312 27.3032 16.1744 27.3268 16.1208C27.3677 16.0278 27.3863 15.9182 27.3807 15.8085C27.3656 15.5102 27.3718 14.9397 27.6132 14.7166C27.5983 14.7125 27.5834 14.7087 27.5686 14.7037C27.2914 14.6115 26.8565 14.5192 26.5021 14.6787C26.0837 14.8669 26.0725 15.4915 26.0958 15.8085C26.1039 15.9181 26.0769 16.0278 26.0176 16.1208C25.9835 16.1743 25.9561 16.2311 25.9343 16.2872C25.8634 16.4693 25.8427 16.6668 25.8693 16.8602L25.9679 17.5787C25.9679 18.6115 26.5193 19.3135 26.9882 19.6777C27.233 19.8678 27.5351 19.9711 27.8462 19.9711C27.9966 19.9711 28.1447 19.9465 28.2855 19.9C28.1818 19.8505 28.0839 19.776 27.9966 19.6778Z" fill="#FCAD6D"/>
<path d="M27.8464 21.9727C25.3156 21.9727 23.2565 19.9137 23.2565 17.3828C23.2565 14.8519 25.3156 12.7929 27.8464 12.7929C29.1181 12.7929 30.2703 13.3129 31.1024 14.1512C31.0199 13.6567 30.9139 13.1702 30.7852 12.6929C29.933 12.157 28.9254 11.8464 27.8464 11.8464C24.7937 11.8464 22.3101 14.3301 22.3101 17.3828C22.3101 20.4356 24.7937 22.9192 27.8464 22.9192C28.694 22.9192 29.4976 22.7275 30.2164 22.3856C30.4014 21.9244 30.5646 21.4522 30.7047 20.9702C29.9199 21.5969 28.9265 21.9727 27.8464 21.9727Z" fill="#9BD8F9"/>
<path d="M27.8464 21.9728C25.3156 21.9728 23.2565 19.9138 23.2565 17.3829C23.2565 15.0708 24.9752 13.1536 27.2018 12.8391C27.1915 12.8108 27.1721 12.7858 27.1446 12.7695C26.7176 12.5151 26.9124 12.1291 27.0189 11.9715C27.0325 11.9513 27.0392 11.9285 27.0412 11.9053C24.3687 12.2964 22.3101 14.6036 22.3101 17.3829C22.3101 20.4356 24.7937 22.9193 27.8464 22.9193C28.6941 22.9193 29.4976 22.7275 30.2165 22.3855C30.2626 22.2705 30.3074 22.1548 30.3508 22.0385C30.3509 22.0381 30.3511 22.0378 30.3512 22.0375C30.3946 21.921 30.4367 21.8038 30.4774 21.686V21.686C30.5587 21.4504 30.6344 21.2123 30.7044 20.9716C30.7044 20.9713 30.7046 20.9711 30.7046 20.9708C29.9199 21.5975 28.9264 21.9728 27.8464 21.9728Z" fill="#73C3F9"/>
<path d="M4.15344 12.3198C2.98126 12.3198 1.90294 12.7193 1.04482 13.3879C0.811381 14.4508 0.687256 15.5546 0.687256 16.6875C0.687256 18.4491 0.985693 20.1409 1.53313 21.7161C2.29757 22.1793 3.19432 22.4461 4.15344 22.4461C6.94976 22.4461 9.21663 20.1793 9.21663 17.383C9.21663 14.5866 6.94976 12.3198 4.15344 12.3198Z" fill="#38C674"/>
<path d="M7.56226 20.5967C7.55951 20.5183 7.48951 20.4595 7.41157 20.4675C6.44338 20.5654 4.49751 20.1123 4.02532 19.9973C3.96344 19.9823 3.92032 19.927 3.92032 19.8633V14.7796C3.92032 14.7397 3.90257 14.7024 3.87301 14.6755C3.33394 14.1877 3.51776 13.7035 3.65076 13.4837C3.68919 13.4202 3.66694 13.3402 3.60607 13.2977C3.45507 13.1922 3.47338 13.0368 3.50938 12.9334C3.53088 12.8717 3.50769 12.8029 3.45157 12.7695C3.27519 12.6644 3.20507 12.5369 3.19088 12.4124C2.39301 12.566 1.66194 12.907 1.04494 13.3875C0.811443 14.4505 0.687256 15.5544 0.687256 16.6875C0.687256 18.4492 0.985693 20.1409 1.53313 21.7161C2.29757 22.1793 3.19432 22.4462 4.15344 22.4462C5.54488 22.4462 6.80488 21.8846 7.72007 20.9761C7.59782 20.8653 7.56626 20.7107 7.56226 20.5967Z" fill="#24B55E"/>
<path d="M7.38264 20.3912C7.37214 20.3895 7.3892 20.3925 7.34764 20.3861L7.34664 20.3866C7.01402 20.3386 6.50352 20.4554 5.99377 20.1582C5.76633 20.5006 5.49895 20.7693 5.24964 20.9629C4.93689 21.2058 4.55095 21.3376 4.15352 21.3376C3.75602 21.3376 3.37014 21.2057 3.05739 20.9629C2.8082 20.7694 2.54095 20.501 2.31364 20.1588C1.88577 20.4095 1.46389 20.3614 1.13477 20.3725C1.24739 20.8282 1.38027 21.2759 1.5327 21.7145C2.29708 22.1785 3.19389 22.4459 4.15345 22.4459C5.69414 22.4459 7.07308 21.7568 8.0017 20.6711C7.82295 20.5328 7.61239 20.4343 7.38089 20.3928L7.38264 20.3912Z" fill="#E9EFFF"/>
<path d="M2.31364 20.1589C1.88577 20.4096 1.46389 20.3615 1.13477 20.3726C1.24158 20.8049 1.36627 21.2302 1.50895 21.6472C1.71527 21.6087 1.94652 21.5722 2.20958 21.5402C2.68939 21.4819 3.05352 21.327 3.32958 21.1362C3.23433 21.0868 3.14295 21.0295 3.05739 20.9631C2.8082 20.7695 2.54095 20.5011 2.31364 20.1589Z" fill="#BEC8F7"/>
<path d="M2.25391 20.192C2.49322 20.5789 2.78597 20.8785 3.05728 21.0892C3.37003 21.3321 3.75597 21.4639 4.15341 21.4639C4.55084 21.4639 4.93678 21.3321 5.24953 21.0892C5.52103 20.8783 5.81397 20.5785 6.05341 20.1913C5.91303 20.1181 5.77216 20.0153 5.63453 19.8705L5.63522 19.8697C5.40228 19.6248 5.34341 19.4281 5.17253 19.1299C4.54378 19.4593 3.78072 19.4684 3.13434 19.1299C2.95472 19.4434 2.90034 19.6293 2.67166 19.8697L2.67234 19.8705C2.53378 20.0163 2.39334 20.119 2.25391 20.192Z" fill="#FCAD6D"/>
<path d="M4.00266 19.3746C3.70497 19.3542 3.40903 19.2738 3.13428 19.1299C2.95466 19.4434 2.90028 19.6293 2.67159 19.8697L2.67228 19.8705C2.53378 20.0162 2.39328 20.119 2.25391 20.192C2.49322 20.5789 2.78597 20.8785 3.05728 21.0892C3.11122 21.1311 3.16797 21.1684 3.22591 21.2036C3.99859 20.7333 4.15341 19.9713 4.15341 19.9713C4.15341 19.9713 4.08822 19.7175 4.00266 19.3746Z" fill="#FD995B"/>
<path d="M3.73874 13.3611C2.49286 13.5308 2.37449 14.2372 2.37392 14.4963C2.3738 14.5507 2.34367 14.6011 2.2948 14.6248C1.64674 14.9401 1.99617 16.4595 1.99617 16.4595C2.06124 16.4638 2.15886 16.5196 2.20967 16.5443C2.22211 16.4668 2.24242 16.3906 2.27111 16.317C2.29299 16.2608 2.3203 16.2041 2.35442 16.1505C2.41367 16.0575 2.44067 15.9479 2.43261 15.8382C2.4093 15.5212 2.39105 14.9261 2.80942 14.7379C3.16386 14.5784 3.59867 14.6708 3.87592 14.763C4.05599 14.8228 4.25105 14.8228 4.43111 14.763C4.70842 14.6708 5.14317 14.5784 5.49761 14.7379C5.9148 14.9256 5.89767 15.5177 5.87467 15.8355C5.86667 15.946 5.89292 16.0568 5.95267 16.1505C5.98792 16.2058 6.01592 16.2645 6.03811 16.3224C6.06567 16.3944 6.08536 16.4688 6.09749 16.5443C6.16155 16.5133 6.28255 16.45 6.36086 16.4611C6.37042 16.1288 6.40111 15.7707 6.40111 15.7707C6.77036 13.9624 5.08017 13.1783 3.73874 13.3611Z" fill="#A05838"/>
<path d="M3.87572 14.7627C3.89028 14.7675 3.90503 14.7713 3.91978 14.7754C3.91866 14.737 3.90147 14.7011 3.87291 14.6753C3.33384 14.1874 3.51766 13.7032 3.65066 13.4834C3.67184 13.4484 3.67403 13.4086 3.66203 13.3726C2.48841 13.5604 2.37422 14.2424 2.37366 14.4961C2.37353 14.5504 2.34341 14.6008 2.29453 14.6246C1.64653 14.9398 1.99591 16.4592 1.99591 16.4592C2.06097 16.4636 2.15859 16.5194 2.20941 16.544C2.22184 16.4666 2.24216 16.3904 2.27084 16.3167C2.29272 16.2606 2.32003 16.2038 2.35416 16.1503C2.41341 16.0573 2.44041 15.9476 2.43234 15.8379C2.40903 15.5209 2.39078 14.9259 2.80916 14.7376C3.16366 14.5781 3.59847 14.6705 3.87572 14.7627Z" fill="#823C26"/>
<path d="M6.47144 16.504C6.37444 16.4151 6.18113 16.4601 6.09756 16.5146C6.11588 16.6286 6.11694 16.7453 6.10113 16.8605L6.0025 17.5787C6.0025 17.6366 6.00069 17.6934 5.99731 17.7492C6.23781 17.8218 6.35725 17.6058 6.37738 17.4577C6.38606 17.3939 6.40019 17.3311 6.41988 17.2697C6.48381 17.0699 6.71456 16.7268 6.47144 16.504Z" fill="#FD995B"/>
<path d="M1.83567 16.504C1.93273 16.4151 2.12598 16.4601 2.20954 16.5146C2.19123 16.6286 2.19017 16.7453 2.20598 16.8605L2.3046 17.5787C2.3046 17.6366 2.30642 17.6934 2.30979 17.7492C2.06929 17.8218 1.94985 17.6058 1.92973 17.4577C1.92104 17.3939 1.90692 17.3311 1.88729 17.2697C1.82335 17.0699 1.5926 16.7268 1.83567 16.504Z" fill="#FD995B"/>
<path d="M6.06748 16.2929C6.0453 16.2349 6.0173 16.1763 5.98205 16.121C5.9223 16.0273 5.89605 15.9165 5.90405 15.806C5.92705 15.4882 5.91473 14.8666 5.49755 14.6789C5.14311 14.5194 4.7083 14.6118 4.43105 14.704C4.25098 14.7639 4.0558 14.7639 3.87573 14.704C3.59848 14.6118 3.16367 14.5195 2.80923 14.6789C2.39086 14.8672 2.37961 15.4917 2.40292 15.8087C2.41098 15.9184 2.38398 16.0281 2.32473 16.1211C2.29061 16.1746 2.26323 16.2314 2.24142 16.2875C2.17054 16.4696 2.14986 16.6671 2.17642 16.8605L2.27504 17.5789C2.27504 18.6118 2.82636 19.3138 3.29536 19.678C3.54017 19.8681 3.84223 19.9714 4.15336 19.9714C4.46448 19.9714 4.76661 19.8681 5.01136 19.678C5.48036 19.3138 6.03167 18.6118 6.03167 17.5789L6.1303 16.8607C6.15667 16.6691 6.13673 16.4736 6.06748 16.2929Z" fill="#F9BA8F"/>
<path d="M4.30373 19.6778C3.98011 19.3136 3.59961 18.6116 3.59961 17.5787L3.53155 16.8603C3.51323 16.6669 3.52748 16.4694 3.57642 16.2873C3.59148 16.2312 3.61036 16.1744 3.63392 16.1208C3.6748 16.0278 3.69342 15.9182 3.68786 15.8085C3.67273 15.5102 3.67886 14.9397 3.9203 14.7166C3.90542 14.7125 3.89048 14.7087 3.87573 14.7037C3.59848 14.6115 3.16367 14.5192 2.80923 14.6787C2.39086 14.8669 2.37961 15.4915 2.40292 15.8085C2.41098 15.9181 2.38398 16.0278 2.32473 16.1208C2.29061 16.1743 2.26323 16.2311 2.24142 16.2872C2.17054 16.4693 2.14986 16.6668 2.17642 16.8602L2.27504 17.5787C2.27504 18.6115 2.82636 19.3135 3.29536 19.6777C3.54017 19.8678 3.84223 19.9711 4.15336 19.9711C4.30373 19.9711 4.45186 19.9465 4.59261 19.9C4.48892 19.8505 4.39098 19.776 4.30373 19.6778Z" fill="#FCAD6D"/>
<path d="M4.15346 11.8464C3.07452 11.8464 2.0669 12.157 1.21465 12.6929C1.08602 13.1702 0.979961 13.6567 0.897461 14.1512C1.72952 13.3129 2.88177 12.7929 4.1534 12.7929C6.68427 12.7929 8.74334 14.8519 8.74334 17.3828C8.74334 19.9137 6.68434 21.9727 4.1534 21.9727C3.07334 21.9727 2.07996 21.5969 1.29509 20.9702C1.43527 21.4522 1.5984 21.9244 1.7834 22.3855C2.50227 22.7274 3.30584 22.9191 4.1534 22.9191C7.20615 22.9191 9.68977 20.4355 9.68977 17.3827C9.68984 14.3301 7.20627 11.8464 4.15346 11.8464Z" fill="#49D88B"/>
<path d="M7.56235 20.5967C7.56104 20.5585 7.54354 20.5251 7.51704 20.5017C6.67823 21.4058 5.4811 21.973 4.15348 21.973C3.07342 21.973 2.08004 21.5971 1.29517 20.9704C1.43535 21.4524 1.59848 21.9246 1.78348 22.3857C2.50235 22.7276 3.30592 22.9193 4.15348 22.9193C5.7696 22.9193 7.22617 22.2231 8.23917 21.115C8.23229 21.1143 8.22542 21.1135 8.21835 21.1138C7.66479 21.1383 7.56954 20.8018 7.56235 20.5967Z" fill="#38C674"/>
<path d="M3.5089 12.8391C3.49859 12.8108 3.47915 12.7858 3.45165 12.7695C3.02465 12.5151 3.21947 12.1291 3.32603 11.9715C3.33965 11.9513 3.3464 11.9285 3.34834 11.9053C2.57347 12.0186 1.85084 12.294 1.21434 12.6944C1.08572 13.1719 0.979592 13.6586 0.897217 14.1534C1.58628 13.4591 2.49447 12.9825 3.5089 12.8391Z" fill="#38C674"/>
<path d="M17.6971 21.2944C16.112 21.1003 16.473 19.681 16.473 19.681L15.1693 15.3926C13.771 14.8509 14.5453 13.3783 14.548 13.373C12.9081 13.9669 11.7361 15.5379 11.7361 17.3828C11.7361 19.7375 13.645 21.6465 15.9998 21.6465C16.6032 21.6465 17.1769 21.5204 17.6971 21.2944Z" fill="#1E9EF4"/>
<path d="M17.9097 17.0353C17.3995 16.5252 16.7213 16.2442 15.9998 16.2442C15.2783 16.2442 14.6 16.5252 14.0898 17.0353C13.905 17.2201 13.6054 17.2201 13.4206 17.0353C13.2358 16.8505 13.2358 16.5509 13.4206 16.3662C14.1095 15.6772 15.0255 15.2979 15.9997 15.2979C16.974 15.2979 17.89 15.6772 18.5788 16.3662C18.7636 16.551 18.7636 16.8506 18.5788 17.0353C18.3941 17.2202 18.0945 17.2201 17.9097 17.0353Z" fill="#E9EFFF"/>
<path d="M16.7674 18.1867C16.3442 17.7635 15.6555 17.7634 15.2324 18.1867C15.0476 18.3715 14.748 18.3716 14.5632 18.1867C14.3784 18.0019 14.3784 17.7022 14.5632 17.5175C15.3554 16.7253 16.6445 16.7253 17.4366 17.5175C17.6214 17.7023 17.6214 18.0019 17.4366 18.1867C17.2518 18.3715 16.9522 18.3715 16.7674 18.1867Z" fill="#E9EFFF"/>
<path d="M16 19.8857C16.3595 19.8857 16.6509 19.5943 16.6509 19.2349C16.6509 18.8754 16.3595 18.584 16 18.584C15.6405 18.584 15.3491 18.8754 15.3491 19.2349C15.3491 19.5943 15.6405 19.8857 16 19.8857Z" fill="#E9EFFF"/>
</svg>
