<svg width="32" height="32" viewBox="0 0 32 32" fill="none" xmlns="http://www.w3.org/2000/svg">
<path d="M29.1241 25.1525C30.9362 22.5589 32 19.4039 32 16C32 7.16344 24.8366 0 16 0C7.16344 0 0 7.16344 0 16C0 19.4039 1.06381 22.5589 2.87587 25.1525H29.1241Z" fill="#1C2E7A"/>
<path d="M29.125 3.75V25.1525C26.2331 29.2919 21.4325 32 16 32C10.5675 32 5.76688 29.2919 2.875 25.1525V3.75L6.32312 3.2575L16 1.875L25.6769 3.2575L29.125 3.75Z" fill="#E9EFFF"/>
<path d="M7.85437 3.03857L6.32312 3.25732L2.875 3.74982V25.1523C5.76688 29.2917 10.5675 31.9998 16 31.9998C21.4325 31.9998 26.2331 29.2917 29.125 25.1523C17.3776 25.1523 7.85444 15.6291 7.85444 3.88176V3.03857H7.85437Z" fill="#D3DCFB"/>
<path d="M14.125 24.7529H17.875V30.0158H14.125V24.7529Z" fill="white"/>
<path d="M16 32C16.8504 32 17.6854 31.9336 18.5 31.8057V28.75C18.5 28.4048 18.2202 28.125 17.875 28.125H14.125C13.7798 28.125 13.5 28.4048 13.5 28.75V31.8057C14.3146 31.9336 15.1496 32 16 32Z" fill="#3C58A0"/>
<path d="M16 28.75C16 28.4048 16.2798 28.125 16.625 28.125H14.125C13.7798 28.125 13.5 28.4048 13.5 28.75V31.8057C14.3146 31.9336 15.1496 32 16 32V28.75Z" fill="#1C2E7A"/>
<path d="M29.125 3.75H2.875V1.25C2.875 0.559625 3.43463 0 4.125 0H27.875C28.5654 0 29.125 0.559625 29.125 1.25V3.75Z" fill="#2A428C"/>
<path d="M7.15981 3.125C7.15981 2.77981 7.43962 2.5 7.78481 2.5V1.25C7.43962 1.25 7.15981 0.970187 7.15981 0.625C7.15981 0.279813 7.43962 0 7.78481 0H4.125C3.43463 0 2.875 0.559625 2.875 1.25V3.75H7.78481C7.43962 3.75 7.15981 3.47019 7.15981 3.125Z" fill="#1C2E7A"/>
<path d="M26.4688 2.5C26.8139 2.5 27.0938 2.22018 27.0938 1.875C27.0938 1.52982 26.8139 1.25 26.4688 1.25C26.1236 1.25 25.8438 1.52982 25.8438 1.875C25.8438 2.22018 26.1236 2.5 26.4688 2.5Z" fill="#FF4155"/>
<path d="M24.2812 2.5C24.6264 2.5 24.9062 2.22018 24.9062 1.875C24.9062 1.52982 24.6264 1.25 24.2812 1.25C23.9361 1.25 23.6562 1.52982 23.6562 1.875C23.6562 2.22018 23.9361 2.5 24.2812 2.5Z" fill="#FFDD40"/>
<path d="M22.0938 2.5C22.4389 2.5 22.7188 2.22018 22.7188 1.875C22.7188 1.52982 22.4389 1.25 22.0938 1.25C21.7486 1.25 21.4688 1.52982 21.4688 1.875C21.4688 2.22018 21.7486 2.5 22.0938 2.5Z" fill="#38C674"/>
<path d="M5.53125 2.5H18.9688C19.3139 2.5 19.5938 2.22019 19.5938 1.875C19.5938 1.52981 19.3139 1.25 18.9688 1.25H5.53125C5.18606 1.25 4.90625 1.52981 4.90625 1.875C4.90625 2.22019 5.18606 2.5 5.53125 2.5Z" fill="#3C58A0"/>
<path d="M16 26.25C21.5228 26.25 26 21.7728 26 16.25C26 10.7272 21.5228 6.25 16 6.25C10.4772 6.25 6 10.7272 6 16.25C6 21.7728 10.4772 26.25 16 26.25Z" fill="#3C58A0"/>
<path d="M6 16.25C6 21.7729 10.4771 26.25 16 26.25C18.7614 26.25 21.2614 25.1307 23.0711 23.3211C22.7049 23.6872 22.1114 23.6872 21.7453 23.3211C21.3791 22.955 21.3791 22.3614 21.7453 21.9953L10.2548 10.5048C9.88863 10.8709 9.29506 10.8709 8.92894 10.5048C8.56281 10.1386 8.56281 9.54508 8.92894 9.17896C7.11931 10.9886 6 13.4886 6 16.25Z" fill="#1C2E7A"/>
<path d="M16 24.375C20.4873 24.375 24.125 20.7373 24.125 16.25C24.125 11.7627 20.4873 8.125 16 8.125C11.5127 8.125 7.875 11.7627 7.875 16.25C7.875 20.7373 11.5127 24.375 16 24.375Z" fill="#FF7186"/>
<path d="M23.0259 15.5332C23.328 15.9631 23.328 16.5368 23.0259 16.9667C21.9605 18.4824 19.2167 21.875 15.9999 21.875C12.7831 21.875 10.0393 18.4824 8.97391 16.9667C8.67178 16.5368 8.67178 15.9631 8.97391 15.5332C10.0393 14.0176 12.7831 10.625 15.9999 10.625C19.2167 10.625 21.9605 14.0176 23.0259 15.5332Z" fill="white"/>
<path d="M16 20C18.0711 20 19.75 18.3211 19.75 16.25C19.75 14.1789 18.0711 12.5 16 12.5C13.9289 12.5 12.25 14.1789 12.25 16.25C12.25 18.3211 13.9289 20 16 20Z" fill="#FF4155"/>
<path d="M16 18.75C17.3807 18.75 18.5 17.6307 18.5 16.25C18.5 14.8693 17.3807 13.75 16 13.75C14.6193 13.75 13.5 14.8693 13.5 16.25C13.5 17.6307 14.6193 18.75 16 18.75Z" fill="#E80054"/>
<path d="M17.25 16.25C17.9404 16.25 18.5 15.6904 18.5 15C18.5 14.3096 17.9404 13.75 17.25 13.75C16.5596 13.75 16 14.3096 16 15C16 15.6904 16.5596 16.25 17.25 16.25Z" fill="#FF7186"/>
</svg>
