<svg width="24" height="24" viewBox="0 0 24 24" fill="none" xmlns="http://www.w3.org/2000/svg">
<g opacity="0.8">
<path d="M13.813 6.68297L8.27591 10.0976" stroke="#111111" stroke-width="1.5" stroke-linecap="round" stroke-linejoin="round"/>
<path d="M13.813 17.3092L8.27591 13.8945" stroke="#111111" stroke-width="1.5" stroke-linecap="round" stroke-linejoin="round"/>
<path fill-rule="evenodd" clip-rule="evenodd" d="M19.573 5.1991C19.573 3.60851 18.2836 2.3191 16.693 2.3191C15.1024 2.3191 13.813 3.60851 13.813 5.1991C13.813 6.79087 15.1024 8.0791 16.693 8.0791C18.2836 8.0791 19.573 6.79087 19.573 5.1991Z" stroke="#111111" stroke-width="1.5" stroke-linecap="round" stroke-linejoin="round"/>
<path fill-rule="evenodd" clip-rule="evenodd" d="M19.573 18.7926C19.573 20.3832 18.2836 21.6726 16.693 21.6726C15.1024 21.6726 13.813 20.3832 13.813 18.7926C13.813 17.2008 15.1024 15.9126 16.693 15.9126C18.2836 15.9126 19.573 17.2008 19.573 18.7926Z" stroke="#111111" stroke-width="1.5" stroke-linecap="round" stroke-linejoin="round"/>
<path fill-rule="evenodd" clip-rule="evenodd" d="M2.97852 12.2262C2.97852 13.818 4.26793 15.1062 5.85852 15.1062C7.4491 15.1062 8.73852 13.818 8.73852 12.2262C8.73852 10.6356 7.4491 9.34619 5.85852 9.34619C4.26793 9.34619 2.97852 10.6356 2.97852 12.2262Z" stroke="#111111" stroke-width="1.5" stroke-linecap="round" stroke-linejoin="round"/>
</g>
</svg>
