<svg width="72" height="72" viewBox="0 0 72 72" fill="none" xmlns="http://www.w3.org/2000/svg">
<circle cx="36" cy="36" r="36" fill="#FFF7D9"/>
<path d="M56 32.3385V29.9948H49.6971V33.5104H46.026V44.1615H49.737V49.6562H47.3932V46.5052H24.6068V49.6562H22.263V44.1615H25.6615V33.5104H22.303V29.9948H16V32.3385H17.4779V49.6562H16V52H56V49.6562H54.5221V32.3385H56Z" fill="#FFB31F"/>
<path d="M38.9953 33.5101H32.693V44.1609H38.9953V33.5101Z" fill="#FFB31F"/>
<path d="M30.3492 33.5101H28.0055V44.1609H30.3492V33.5101Z" fill="#FFB31F"/>
<path d="M43.682 33.5101H41.3383V44.1609H43.682V33.5101Z" fill="#FFB31F"/>
<path d="M37.1719 22.6264V18.5104H43.9398V12H34.8281V22.6264L24.6467 28.0687V31.1666H47.3534V28.0687L37.1719 22.6264Z" fill="#FFB31F"/>
</svg>
