<svg width="24" height="24" viewBox="0 0 24 24" fill="none" xmlns="http://www.w3.org/2000/svg">
<g opacity="0.8">
<path d="M8.61431 2.84302V23.157M5.22865 2.84302H17.6427C18.2414 2.84302 18.8155 3.08082 19.2387 3.50411C19.662 3.9274 19.8998 4.5015 19.8998 5.10012V18.6428C19.8998 19.2414 19.662 19.8155 19.2387 20.2388C18.8155 20.6621 18.2414 20.8999 17.6427 20.8999H5.22865C4.92934 20.8999 4.64229 20.781 4.43064 20.5693C4.219 20.3577 4.1001 20.0706 4.1001 19.7713V3.97157C4.1001 3.67226 4.219 3.38521 4.43064 3.17356C4.64229 2.96192 4.92934 2.84302 5.22865 2.84302V2.84302Z" stroke="#111111" stroke-width="1.5" stroke-linecap="round" stroke-linejoin="round"/>
<path d="M13.1285 7.35718H15.3856" stroke="#111111" stroke-width="1.5" stroke-linecap="round" stroke-linejoin="round"/>
<path d="M13.1285 11.8714H15.3856" stroke="#111111" stroke-width="1.5" stroke-linecap="round" stroke-linejoin="round"/>
</g>
</svg>
