<svg width="72" height="72" viewBox="0 0 72 72" fill="none" xmlns="http://www.w3.org/2000/svg">
<circle cx="36" cy="36" r="36" fill="#FFF7D9"/>
<g clip-path="url(#clip0)">
<path d="M51 25.5001H43.5V24C43.5 22.3455 42.1546 21 40.5 21H31.5C29.8455 21 28.5 22.3454 28.5 24V25.5H21C19.3454 25.5001 18 26.8455 18 28.5V33C18 34.6546 19.3454 36.0001 21 36.0001H33V35.25C33 34.8355 33.3355 34.5 33.7501 34.5H38.2501C38.6646 34.5 39.0001 34.8355 39.0001 35.25V36.0001H51.0001C52.6546 36.0001 54 34.6546 54 33V28.5C54 26.8455 52.6546 25.5001 51 25.5001ZM40.5 25.5001H31.5V24H40.5V25.5001Z" fill="#FFB31F"/>
<path d="M53.584 36.8093C53.3284 36.6826 53.0229 36.7119 52.7973 36.8833C52.2641 37.2869 51.643 37.5 50.9999 37.5H39V39.75C39 40.1646 38.6646 40.5 38.25 40.5H33.75C33.3354 40.5 33 40.1646 33 39.75V37.5H21C20.3569 37.5 19.7359 37.2869 19.2026 36.8833C18.9763 36.7105 18.6716 36.6811 18.416 36.8093C18.1612 36.9361 18 37.196 18 37.481V48C18 49.6546 19.3454 51.0001 21 51.0001H51C52.6546 51.0001 54.0001 49.6546 54.0001 48V37.481C54 37.196 53.8388 36.9361 53.584 36.8093Z" fill="#FFB31F"/>
</g>
<defs>
<clipPath id="clip0">
<rect width="36" height="36" fill="white" transform="translate(18 18)"/>
</clipPath>
</defs>
</svg>
