<svg width="32" height="32" viewBox="0 0 32 32" fill="none" xmlns="http://www.w3.org/2000/svg">
<path d="M16 32C24.8366 32 32 24.8366 32 16C32 7.16344 24.8366 0 16 0C7.16344 0 0 7.16344 0 16C0 24.8366 7.16344 32 16 32Z" fill="#4FABF7"/>
<path d="M29.5576 26.375H2.44226V6.375C2.44226 5.68463 3.00189 5.125 3.69226 5.125H28.3076C28.998 5.125 29.5576 5.68463 29.5576 6.375V26.375Z" fill="white"/>
<path d="M9.24864 5.125H3.69226C3.00189 5.125 2.44226 5.68463 2.44226 6.375V26.375H9.24864V24.5C8.73089 24.5 8.31114 24.0802 8.31114 23.5625C8.31114 23.0448 8.73089 22.625 9.24864 22.625V7C8.73089 7 8.31114 6.58025 8.31114 6.0625C8.31114 5.54475 8.73089 5.125 9.24864 5.125Z" fill="#E9EFFF"/>
<path d="M4.31726 20.125V7H27.6827V20.125L15.9999 21.375L4.31726 20.125Z" fill="#49D88B"/>
<path d="M10.8378 11.6411H7.03125C6.77237 11.6411 6.5625 11.4312 6.5625 11.1724C6.5625 10.9135 6.77237 10.7036 7.03125 10.7036H10.8378C11.0966 10.7036 11.3065 10.9135 11.3065 11.1724C11.3065 11.4313 11.0966 11.6411 10.8378 11.6411Z" fill="#73F9A9"/>
<path d="M11.066 18.7405H7.25952C7.00065 18.7405 6.79077 18.5306 6.79077 18.2717C6.79077 18.0129 7.00065 17.803 7.25952 17.803H11.066C11.3249 17.803 11.5348 18.0129 11.5348 18.2717C11.5348 18.5306 11.325 18.7405 11.066 18.7405Z" fill="#73F9A9"/>
<path d="M25.339 15.9238H19.3397C19.0808 15.9238 18.871 15.714 18.871 15.4551C18.871 15.1962 19.0808 14.9863 19.3397 14.9863H25.339C25.5978 14.9863 25.8077 15.1962 25.8077 15.4551C25.8077 15.714 25.5978 15.9238 25.339 15.9238Z" fill="#73F9A9"/>
<path d="M4.31726 20.125H27.6827V22.625H4.31726V20.125Z" fill="#1C2E7A"/>
<path d="M4.31726 20.125H11.7566V22.625H4.31726V20.125Z" fill="#112360"/>
<path d="M12.8751 5.01745C12.7453 5.01745 12.6163 4.96395 12.5236 4.85907L12.0489 4.32182C11.8775 4.12782 11.8958 3.83157 12.0898 3.6602C12.2838 3.48882 12.58 3.50707 12.7514 3.70107L13.2261 4.23832C13.3976 4.43232 13.3793 4.72857 13.1853 4.89995C13.0961 4.97876 12.9854 5.01745 12.8751 5.01745Z" fill="#112360"/>
<path d="M12.875 6.80196C12.6161 6.80196 12.4062 6.59208 12.4062 6.33321V4.54858C12.4062 4.28971 12.6161 4.07983 12.875 4.07983C13.1339 4.07983 13.3438 4.28971 13.3438 4.54858V6.33315C13.3438 6.59208 13.1339 6.80196 12.875 6.80196Z" fill="#1C2E7A"/>
<path d="M15.9995 8.58009C15.921 8.58009 15.8413 8.56034 15.7681 8.51872L12.6431 6.74078C12.4181 6.61278 12.3395 6.3266 12.4675 6.10153C12.5956 5.87647 12.8817 5.79791 13.1068 5.92591L16.2318 7.70384C16.4568 7.83184 16.5354 8.11803 16.4074 8.34309C16.321 8.49491 16.1626 8.58009 15.9995 8.58009Z" fill="#2A428C"/>
<path d="M9.78892 13.5158C9.62129 13.5158 9.45917 13.4257 9.37485 13.2673C9.2531 13.0388 9.33967 12.755 9.56817 12.6332L10.2144 12.289C10.4429 12.1673 10.7268 12.2538 10.8485 12.4823C10.9702 12.7108 10.8837 12.9947 10.6552 13.1164L10.009 13.4607C9.93873 13.498 9.86323 13.5158 9.78892 13.5158Z" fill="#112360"/>
<path d="M10.4348 13.1717C10.3808 13.1717 10.3259 13.1623 10.2723 13.1425C10.0295 13.0527 9.90539 12.7831 9.99514 12.5402L11.3356 8.91473C11.4253 8.67191 11.6949 8.54785 11.9378 8.6376C12.1806 8.72741 12.3047 8.99697 12.215 9.23985L10.8745 12.8653C10.8045 13.0546 10.6253 13.1717 10.4348 13.1717Z" fill="#1C2E7A"/>
<path d="M16 9.54614H11.7753C11.5164 9.54614 11.3065 9.33627 11.3065 9.07739C11.3065 8.81852 11.5164 8.60864 11.7753 8.60864H16C16.2588 8.60864 16.4687 8.81852 16.4687 9.07739C16.4687 9.33627 16.2588 9.54614 16 9.54614Z" fill="#2A428C"/>
<path d="M13.2535 18.2717C13.1336 18.2717 13.0136 18.226 12.9221 18.1344C12.739 17.9513 12.739 17.6545 12.9221 17.4715L13.5471 16.8465C13.7302 16.6635 14.027 16.6635 14.21 16.8465C14.393 17.0296 14.393 17.3264 14.21 17.5094L13.585 18.1344C13.4935 18.226 13.3735 18.2717 13.2535 18.2717Z" fill="#112360"/>
<path d="M13.8789 17.6469C13.7045 17.6469 13.537 17.5492 13.4563 17.3816L11.5813 13.492C11.4688 13.2588 11.5668 12.9786 11.8 12.8662C12.0333 12.7538 12.3133 12.8517 12.4258 13.0849L14.3008 16.9745C14.4132 17.2077 14.3153 17.4879 14.0821 17.6003C14.0165 17.6319 13.9472 17.6469 13.8789 17.6469Z" fill="#1C2E7A"/>
<path d="M12.0037 13.7572C11.8813 13.7572 11.7591 13.7095 11.6671 13.6147C11.4869 13.4288 11.4915 13.1321 11.6774 12.9519L15.4274 9.31629C15.6133 9.1361 15.91 9.14066 16.0902 9.32654C16.2704 9.51241 16.2658 9.80916 16.0799 9.98935L12.3299 13.625C12.2389 13.7132 12.1212 13.7572 12.0037 13.7572Z" fill="#2A428C"/>
<path d="M14.6028 4.26479C14.3439 4.26479 14.134 4.05491 14.134 3.79604V2.76147C14.134 2.5026 14.3439 2.29272 14.6028 2.29272C14.8617 2.29272 15.0715 2.5026 15.0715 2.76147V3.79604C15.0715 4.05491 14.8617 4.26479 14.6028 4.26479Z" fill="#112360"/>
<path d="M15.9997 5.39789C15.8959 5.39789 15.7915 5.36364 15.7047 5.29321L14.3075 4.16021C14.1065 3.99714 14.0757 3.70196 14.2387 3.50089C14.4017 3.29983 14.697 3.26902 14.898 3.43208L16.2952 4.56508C16.4962 4.72814 16.527 5.02333 16.364 5.22439C16.2714 5.33864 16.1361 5.39789 15.9997 5.39789Z" fill="#2A428C"/>
<path d="M19.1247 5.01747C19.0144 5.01747 18.9036 4.97878 18.8145 4.89997C18.6205 4.72853 18.6022 4.43235 18.7736 4.23835L19.2484 3.7011C19.4198 3.5071 19.7159 3.48879 19.91 3.66022C20.104 3.83166 20.1222 4.12785 19.9508 4.32185L19.4761 4.8591C19.3835 4.96397 19.2544 5.01747 19.1247 5.01747Z" fill="#112360"/>
<path d="M19.125 6.80196C18.8661 6.80196 18.6562 6.59208 18.6562 6.33321V4.54858C18.6562 4.28971 18.8661 4.07983 19.125 4.07983C19.3839 4.07983 19.5938 4.28971 19.5938 4.54858V6.33315C19.5938 6.59208 19.3839 6.80196 19.125 6.80196Z" fill="#1C2E7A"/>
<path d="M16.0003 8.58009C15.8372 8.58009 15.6788 8.49491 15.5924 8.34309C15.4644 8.11803 15.543 7.83184 15.768 7.70384L18.893 5.92591C19.118 5.79791 19.4043 5.87647 19.5323 6.10153C19.6603 6.3266 19.5816 6.61278 19.3566 6.74078L16.2316 8.51872C16.1585 8.56028 16.0788 8.58009 16.0003 8.58009Z" fill="#2A428C"/>
<path d="M22.211 13.5158C22.1366 13.5158 22.0613 13.498 21.991 13.4607L21.3448 13.1164C21.1163 12.9947 21.0297 12.7108 21.1515 12.4823C21.2732 12.2538 21.5572 12.1673 21.7856 12.289L22.4318 12.6332C22.6603 12.755 22.7469 13.0388 22.6251 13.2673C22.5408 13.4256 22.3787 13.5158 22.211 13.5158Z" fill="#112360"/>
<path d="M21.5651 13.1716C21.3745 13.1716 21.1954 13.0545 21.1254 12.8653L19.785 9.23983C19.6952 8.99701 19.8193 8.72739 20.0621 8.63758C20.305 8.54789 20.5745 8.67189 20.6643 8.9147L22.0048 12.5402C22.0946 12.783 21.9705 13.0526 21.7276 13.1425C21.6741 13.1623 21.6191 13.1716 21.5651 13.1716Z" fill="#1C2E7A"/>
<path d="M20.2248 9.54614H16C15.7411 9.54614 15.5312 9.33627 15.5312 9.07739C15.5312 8.81852 15.7411 8.60864 16 8.60864H20.2247C20.4836 8.60864 20.6934 8.81852 20.6934 9.07739C20.6934 9.33627 20.4836 9.54614 20.2248 9.54614Z" fill="#2A428C"/>
<path d="M18.7463 18.2717C18.6264 18.2717 18.5064 18.226 18.4149 18.1344L17.7899 17.5094C17.6068 17.3263 17.6068 17.0295 17.7899 16.8465C17.9729 16.6635 18.2698 16.6635 18.4528 16.8465L19.0778 17.4715C19.2608 17.6546 19.2608 17.9514 19.0778 18.1344C18.9863 18.226 18.8663 18.2717 18.7463 18.2717Z" fill="#112360"/>
<path d="M18.121 17.647C18.0527 17.647 17.9833 17.632 17.9178 17.6003C17.6846 17.488 17.5866 17.2078 17.6991 16.9745L19.5741 13.0849C19.6865 12.8517 19.9667 12.7537 20.1999 12.8662C20.4331 12.9786 20.531 13.2588 20.4186 13.492L18.5436 17.3817C18.4627 17.5492 18.2953 17.647 18.121 17.647Z" fill="#1C2E7A"/>
<path d="M19.9962 13.7572C19.8786 13.7572 19.761 13.7132 19.6699 13.625L15.9199 9.98937C15.734 9.80918 15.7295 9.51243 15.9097 9.32656C16.0899 9.14062 16.3866 9.13612 16.5725 9.31631L20.3225 12.9519C20.5083 13.1321 20.5129 13.4289 20.3327 13.6147C20.2409 13.7096 20.1185 13.7572 19.9962 13.7572Z" fill="#2A428C"/>
<path d="M17.3972 4.26479C17.1383 4.26479 16.9285 4.05491 16.9285 3.79604V2.76147C16.9285 2.5026 17.1383 2.29272 17.3972 2.29272C17.6561 2.29272 17.866 2.5026 17.866 2.76147V3.79604C17.866 4.05491 17.6561 4.26479 17.3972 4.26479Z" fill="#1C2E7A"/>
<path d="M16.0002 5.39789C15.8638 5.39789 15.7285 5.33858 15.6358 5.22439C15.4728 5.02333 15.5036 4.72814 15.7046 4.56508L17.1017 3.43208C17.3029 3.26902 17.598 3.29983 17.7611 3.50089C17.9241 3.70196 17.8933 3.99714 17.6922 4.16021L16.2952 5.29321C16.2083 5.36364 16.1039 5.39789 16.0002 5.39789Z" fill="#2A428C"/>
<path d="M16 3.92383C15.6327 3.92383 15.3125 4.17383 15.2234 4.53014L14.75 6.42383H17.25L16.7766 4.53014C16.6875 4.17377 16.3673 3.92383 16 3.92383Z" fill="#1C2E7A"/>
<path d="M16.0596 6.02979H15.9403C14.5926 6.02979 13.5 7.12234 13.5 8.47009H18.5C18.4999 7.12234 17.4074 6.02979 16.0596 6.02979Z" fill="#3C58A0"/>
<path d="M17.2247 6.32541C16.8784 6.13691 16.4816 6.02979 16.0596 6.02979H15.9403C14.5926 6.02979 13.5 7.12235 13.5 8.47016H15.9494C15.9494 7.54435 16.465 6.73897 17.2247 6.32541Z" fill="#2A428C"/>
<path d="M16 14.9863C14.2741 14.9863 12.875 13.5872 12.875 11.8613V8.73633C12.875 8.39114 13.1548 8.11133 13.5 8.11133H18.5C18.8452 8.11133 19.125 8.39114 19.125 8.73633V11.8613C19.125 13.5872 17.7259 14.9863 16 14.9863Z" fill="#4B6BB2"/>
<path d="M14.6028 11.8613V8.73633C14.6028 8.39114 14.8826 8.11133 15.2278 8.11133H13.5C13.1548 8.11133 12.875 8.39114 12.875 8.73633V11.8613C12.875 13.5872 14.2741 14.9863 16 14.9863C16.2998 14.9863 16.5894 14.9432 16.8639 14.8644C15.5584 14.4895 14.6028 13.2874 14.6028 11.8613Z" fill="#3C58A0"/>
<path d="M15.0715 5.59229C15.3304 5.59229 15.5403 5.38242 15.5403 5.12354C15.5403 4.86465 15.3304 4.65479 15.0715 4.65479C14.8126 4.65479 14.6028 4.86465 14.6028 5.12354C14.6028 5.38242 14.8126 5.59229 15.0715 5.59229Z" fill="#4B6BB2"/>
<path d="M16.9285 5.59229C17.1874 5.59229 17.3972 5.38242 17.3972 5.12354C17.3972 4.86465 17.1874 4.65479 16.9285 4.65479C16.6696 4.65479 16.4597 4.86465 16.4597 5.12354C16.4597 5.38242 16.6696 5.59229 16.9285 5.59229Z" fill="#4B6BB2"/>
<path d="M16 11.8611C16.2589 11.8611 16.4688 11.6512 16.4688 11.3923C16.4688 11.1335 16.2589 10.9236 16 10.9236C15.7411 10.9236 15.5312 11.1335 15.5312 11.3923C15.5312 11.6512 15.7411 11.8611 16 11.8611Z" fill="#3C58A0"/>
<path d="M17.4062 9.98633H14.5938C14.3349 9.98633 14.125 9.77645 14.125 9.51758C14.125 9.2587 14.3349 9.04883 14.5938 9.04883H17.4062C17.6651 9.04883 17.875 9.2587 17.875 9.51758C17.875 9.77645 17.6651 9.98633 17.4062 9.98633Z" fill="#3C58A0"/>
<path d="M27.6827 10.75H24.4015C24.1426 10.75 23.9327 10.5401 23.9327 10.2812C23.9327 10.0224 24.1426 9.8125 24.4015 9.8125H27.6827V10.75Z" fill="#73F9A9"/>
<path d="M4.31726 8.82861H5.72351C5.98239 8.82861 6.19226 9.03849 6.19226 9.29736C6.19226 9.55624 5.98239 9.76611 5.72351 9.76611H4.31726V8.82861Z" fill="#73F9A9"/>
<path d="M27.6827 8.875H26.2765C26.0176 8.875 25.8077 8.66513 25.8077 8.40625C25.8077 8.14737 26.0176 7.9375 26.2765 7.9375H27.6827V8.875Z" fill="#73F9A9"/>
<path d="M8.24407 14.9863H6.03857C5.7797 14.9863 5.56982 14.7765 5.56982 14.5176C5.56982 14.2587 5.7797 14.0488 6.03857 14.0488H8.24407C8.50295 14.0488 8.71282 14.2587 8.71282 14.5176C8.71282 14.7765 8.50295 14.9863 8.24407 14.9863Z" fill="#73F9A9"/>
<path d="M23.9566 18.7405H21.7511C21.4922 18.7405 21.2823 18.5306 21.2823 18.2717C21.2823 18.0129 21.4922 17.803 21.7511 17.803H23.9566C24.2155 17.803 24.4253 18.0129 24.4253 18.2717C24.4253 18.5306 24.2155 18.7405 23.9566 18.7405Z" fill="#73F9A9"/>
<path d="M31.375 28.25H0.625C0.279813 28.25 0 27.9702 0 27.625V25.125C0 24.7798 0.279813 24.5 0.625 24.5H31.375C31.7202 24.5 32 24.7798 32 25.125V27.625C32 27.9702 31.7202 28.25 31.375 28.25Z" fill="#E9EFFF"/>
<path d="M15.0625 27.3125C15.0625 26.7947 15.4823 26.375 16 26.375V24.5H0.625C0.279813 24.5 0 24.7798 0 25.125V27.625C0 27.9702 0.279813 28.25 0.625 28.25H16C15.4823 28.25 15.0625 27.8303 15.0625 27.3125Z" fill="#D3DCFB"/>
<path d="M21 24.5H11L11.8789 25.8184C12.1108 26.1661 12.5011 26.375 12.919 26.375H19.0811C19.499 26.375 19.8893 26.1661 20.1211 25.8184L21 24.5Z" fill="#BEC8F7"/>
<path d="M26.2765 26.8438C26.5354 26.8438 26.7452 26.6339 26.7452 26.375C26.7452 26.1161 26.5354 25.9062 26.2765 25.9062C26.0176 25.9062 25.8077 26.1161 25.8077 26.375C25.8077 26.6339 26.0176 26.8438 26.2765 26.8438Z" fill="#BEC8F7"/>
<path d="M29.089 26.8438C29.3479 26.8438 29.5577 26.6339 29.5577 26.375C29.5577 26.1161 29.3479 25.9062 29.089 25.9062C28.8301 25.9062 28.6202 26.1161 28.6202 26.375C28.6202 26.6339 28.8301 26.8438 29.089 26.8438Z" fill="#BEC8F7"/>
<path d="M7.59851 26.8438H2.91101C2.65214 26.8438 2.44226 26.6339 2.44226 26.375C2.44226 26.1161 2.65214 25.9062 2.91101 25.9062H7.59851C7.85739 25.9062 8.06726 26.1161 8.06726 26.375C8.06726 26.6339 7.85739 26.8438 7.59851 26.8438Z" fill="#BEC8F7"/>
</svg>
