<svg id="svg" version="1.1" xmlns="http://www.w3.org/2000/svg" xmlns:xlink="http://www.w3.org/1999/xlink" width="400" height="400" viewBox="0, 0, 400,400"><g id="svgg"><path id="path0" d="M77.036 41.800 C 76.486 42.350,75.891 42.800,75.714 42.800 C 75.537 42.800,74.584 43.501,73.596 44.357 C 72.608 45.213,70.270 47.204,68.400 48.781 C 63.601 52.828,53.755 62.635,49.506 67.600 C 47.530 69.910,45.212 72.608,44.356 73.596 C 43.500 74.584,42.800 75.537,42.800 75.714 C 42.800 75.891,42.395 76.447,41.900 76.949 C 41.405 77.451,40.550 78.461,40.000 79.194 C 39.450 79.927,38.820 80.731,38.600 80.980 C 38.380 81.230,38.020 81.707,37.800 82.041 C 37.580 82.376,35.471 85.548,33.112 89.092 C 28.464 96.077,26.891 98.613,26.536 99.700 C 26.410 100.085,26.148 100.400,25.953 100.400 C 25.759 100.400,25.600 100.670,25.600 101.000 C 25.600 101.330,25.454 101.600,25.275 101.600 C 25.096 101.600,24.702 102.230,24.400 103.000 C 24.098 103.770,23.736 104.400,23.597 104.400 C 23.457 104.400,22.936 105.300,22.439 106.400 C 21.942 107.500,21.369 108.400,21.167 108.400 C 20.965 108.400,20.800 108.760,20.800 109.200 C 20.800 109.640,20.620 110.000,20.400 110.000 C 20.180 110.000,20.000 110.234,20.000 110.520 C 20.000 111.256,19.059 113.193,18.700 113.197 C 18.535 113.199,18.400 113.549,18.400 113.976 C 18.400 114.403,18.220 114.864,18.000 115.000 C 17.780 115.136,17.600 115.597,17.600 116.024 C 17.600 116.451,17.420 116.800,17.200 116.800 C 16.980 116.800,16.800 117.160,16.800 117.600 C 16.800 118.040,16.620 118.400,16.400 118.400 C 16.180 118.400,16.000 118.636,16.000 118.925 C 16.000 119.214,15.640 120.195,15.200 121.106 C 14.760 122.016,14.400 123.040,14.400 123.381 C 14.400 123.721,14.220 124.000,14.000 124.000 C 13.780 124.000,13.600 124.439,13.600 124.976 C 13.600 125.513,13.420 126.064,13.200 126.200 C 12.980 126.336,12.800 126.709,12.800 127.028 C 12.800 127.564,11.645 130.439,10.758 132.109 C 10.552 132.499,10.271 133.628,10.135 134.620 C 9.999 135.611,9.733 136.518,9.544 136.635 C 9.355 136.752,9.200 137.287,9.200 137.824 C 9.200 138.361,9.020 138.800,8.800 138.800 C 8.580 138.800,8.400 139.329,8.400 139.976 C 8.400 140.623,8.220 141.264,8.000 141.400 C 7.780 141.536,7.600 142.166,7.600 142.800 C 7.600 143.434,7.420 144.064,7.200 144.200 C 6.980 144.336,6.800 144.966,6.800 145.600 C 6.800 146.234,6.620 146.864,6.400 147.000 C 6.180 147.136,6.000 147.867,6.000 148.624 C 6.000 149.381,5.820 150.000,5.600 150.000 C 5.380 150.000,5.200 150.709,5.200 151.576 C 5.200 152.443,5.020 153.264,4.800 153.400 C 4.580 153.536,4.400 154.357,4.400 155.224 C 4.400 156.091,4.220 156.800,4.000 156.800 C 3.780 156.800,3.600 157.509,3.600 158.376 C 3.600 159.243,3.420 160.064,3.200 160.200 C 2.980 160.336,2.800 161.326,2.800 162.400 C 2.800 163.474,2.620 164.464,2.400 164.600 C 2.180 164.736,2.000 165.726,2.000 166.800 C 2.000 167.874,1.820 168.864,1.600 169.000 C 1.380 169.136,1.200 170.572,1.200 172.190 C 1.200 174.189,1.040 175.187,0.700 175.300 C -0.032 175.544,-0.032 224.456,0.700 224.700 C 1.040 224.813,1.200 225.811,1.200 227.810 C 1.200 229.428,1.380 230.864,1.600 231.000 C 1.820 231.136,2.000 232.227,2.000 233.424 C 2.000 234.621,2.180 235.600,2.400 235.600 C 2.620 235.600,2.800 236.489,2.800 237.576 C 2.800 238.663,2.980 239.664,3.200 239.800 C 3.420 239.936,3.600 240.757,3.600 241.624 C 3.600 242.491,3.780 243.200,4.000 243.200 C 4.220 243.200,4.400 243.909,4.400 244.776 C 4.400 245.643,4.580 246.464,4.800 246.600 C 5.020 246.736,5.200 247.467,5.200 248.224 C 5.200 248.981,5.380 249.600,5.600 249.600 C 5.820 249.600,6.000 250.230,6.000 251.000 C 6.000 251.770,6.180 252.400,6.400 252.400 C 6.620 252.400,6.800 252.929,6.800 253.576 C 6.800 254.223,6.980 254.864,7.200 255.000 C 7.420 255.136,7.600 255.867,7.600 256.624 C 7.600 257.381,7.780 258.000,8.000 258.000 C 8.220 258.000,8.400 258.720,8.400 259.600 C 8.400 260.480,8.580 261.200,8.800 261.200 C 9.020 261.200,9.200 261.639,9.200 262.176 C 9.200 262.713,9.355 263.248,9.544 263.365 C 9.733 263.482,9.999 264.389,10.135 265.380 C 10.271 266.372,10.552 267.501,10.758 267.891 C 11.521 269.329,12.800 272.404,12.800 272.801 C 12.800 273.026,12.959 273.523,13.153 273.905 C 13.730 275.039,14.314 276.498,14.871 278.200 C 15.160 279.080,15.487 279.890,15.598 280.000 C 16.075 280.472,16.800 282.037,16.800 282.595 C 16.800 282.928,16.980 283.200,17.200 283.200 C 17.420 283.200,17.600 283.472,17.600 283.805 C 17.600 284.138,17.760 284.723,17.956 285.105 C 18.152 285.487,18.737 286.700,19.256 287.800 C 19.775 288.900,20.335 289.860,20.500 289.933 C 20.665 290.007,20.800 290.412,20.800 290.833 C 20.800 291.255,20.960 291.600,21.157 291.600 C 21.353 291.600,21.797 292.275,22.145 293.100 C 22.919 294.938,24.096 296.954,24.500 297.133 C 24.665 297.207,24.800 297.522,24.800 297.833 C 24.800 298.145,24.980 298.400,25.200 298.400 C 25.420 298.400,25.600 298.670,25.600 299.000 C 25.600 299.330,25.736 299.600,25.902 299.600 C 26.069 299.600,26.460 300.185,26.771 300.900 C 27.083 301.615,28.117 303.368,29.069 304.796 C 30.021 306.223,30.800 307.708,30.800 308.096 C 30.800 308.483,30.980 308.800,31.200 308.800 C 31.420 308.800,31.600 309.120,31.600 309.512 C 31.600 309.903,31.960 310.483,32.400 310.800 C 32.840 311.117,33.200 311.562,33.201 311.788 C 33.201 312.015,33.741 312.830,34.400 313.600 C 35.059 314.370,35.599 315.225,35.599 315.500 C 35.600 315.775,35.738 316.000,35.906 316.000 C 36.074 316.000,36.656 316.720,37.200 317.600 C 37.744 318.480,38.326 319.200,38.494 319.200 C 38.662 319.200,38.804 319.425,38.809 319.700 C 38.818 320.151,39.558 321.088,42.587 324.481 C 43.117 325.075,43.764 325.975,44.023 326.481 C 44.283 326.986,44.833 327.760,45.246 328.200 C 47.185 330.268,49.089 332.450,50.000 333.647 C 50.550 334.371,51.767 335.691,52.704 336.581 C 56.011 339.722,62.617 346.377,64.000 347.960 C 64.770 348.842,65.533 349.571,65.695 349.582 C 66.074 349.605,67.212 350.545,69.595 352.800 C 70.641 353.790,71.905 354.870,72.404 355.200 C 72.902 355.530,73.691 356.160,74.155 356.600 C 75.045 357.442,78.235 359.600,78.591 359.600 C 79.093 359.600,78.803 282.900,78.300 282.532 C 78.025 282.330,76.810 281.832,75.600 281.425 C 72.778 280.476,64.522 276.398,62.225 274.817 C 61.252 274.148,60.354 273.600,60.230 273.600 C 58.277 273.600,45.367 261.412,40.781 255.239 C 36.571 249.572,30.400 238.561,30.400 236.715 C 30.400 236.395,30.281 236.014,30.135 235.868 C 29.761 235.494,28.393 231.709,27.942 229.800 C 27.734 228.920,27.394 227.480,27.186 226.600 C 24.506 215.234,24.472 201.594,27.099 191.600 C 27.417 190.390,27.823 188.770,28.001 188.000 C 28.472 185.969,29.304 183.524,30.794 179.800 C 35.128 168.969,42.627 158.585,52.033 150.391 C 55.314 147.533,60.484 143.600,60.959 143.600 C 61.083 143.600,62.153 142.980,63.337 142.223 C 64.521 141.466,67.089 140.098,69.045 139.184 C 72.856 137.402,73.008 137.337,76.500 135.993 L 78.800 135.107 78.800 87.954 C 78.800 58.281,78.658 40.800,78.418 40.800 C 78.208 40.800,77.586 41.250,77.036 41.800 M374.821 104.300 C 374.592 105.125,374.400 106.610,374.395 107.600 C 374.372 112.084,371.641 124.269,369.981 127.295 C 369.771 127.677,369.600 128.178,369.600 128.410 C 369.600 132.104,359.161 148.015,352.056 155.149 C 343.907 163.333,335.539 168.740,323.400 173.666 L 321.000 174.640 320.906 266.620 C 320.848 322.785,320.956 358.829,321.183 359.187 C 321.499 359.686,321.664 359.653,322.277 358.968 C 322.675 358.525,323.630 357.723,324.400 357.187 C 325.987 356.081,326.554 355.621,330.774 352.015 C 337.986 345.852,345.852 337.986,352.015 330.774 C 355.594 326.586,356.073 325.996,357.197 324.400 C 357.739 323.630,358.578 322.600,359.062 322.111 C 359.546 321.622,360.264 320.677,360.657 320.011 C 361.051 319.345,361.514 318.800,361.686 318.800 C 361.859 318.800,362.000 318.545,362.000 318.233 C 362.000 317.922,362.143 317.607,362.317 317.533 C 362.491 317.460,363.436 316.230,364.417 314.800 C 365.398 313.370,366.380 311.987,366.600 311.727 C 366.820 311.467,367.900 309.794,369.000 308.009 C 370.100 306.225,371.945 303.316,373.100 301.547 C 374.255 299.777,375.200 298.090,375.200 297.798 C 375.200 297.506,375.335 297.207,375.500 297.133 C 375.876 296.966,377.175 294.836,377.471 293.900 C 377.593 293.515,377.852 293.200,378.047 293.200 C 378.241 293.200,378.400 292.840,378.400 292.400 C 378.400 291.960,378.580 291.600,378.800 291.600 C 379.020 291.600,379.200 291.313,379.200 290.962 C 379.200 290.611,379.529 289.846,379.930 289.262 C 380.332 288.678,380.901 287.570,381.194 286.800 C 381.488 286.030,381.879 285.229,382.064 285.020 C 382.249 284.811,382.400 284.316,382.400 283.920 C 382.400 283.524,382.580 283.200,382.800 283.200 C 383.020 283.200,383.200 282.840,383.200 282.400 C 383.200 281.960,383.380 281.600,383.600 281.600 C 383.820 281.600,384.000 281.240,384.000 280.800 C 384.000 280.360,384.147 280.000,384.328 280.000 C 384.508 280.000,384.900 279.100,385.200 278.000 C 385.500 276.900,385.892 276.000,386.072 276.000 C 386.253 276.000,386.400 275.550,386.400 275.000 C 386.400 274.450,386.580 274.000,386.800 274.000 C 387.020 274.000,387.200 273.561,387.200 273.024 C 387.200 272.487,387.380 271.936,387.600 271.800 C 387.820 271.664,388.000 271.218,388.000 270.810 C 388.000 270.401,388.139 270.007,388.308 269.933 C 388.775 269.731,391.611 260.757,391.605 259.500 C 391.602 258.895,391.780 258.400,392.000 258.400 C 392.220 258.400,392.400 257.860,392.400 257.200 C 392.400 256.540,392.580 256.000,392.800 256.000 C 393.020 256.000,393.200 255.381,393.200 254.624 C 393.200 253.867,393.380 253.136,393.600 253.000 C 393.820 252.864,394.000 252.223,394.000 251.576 C 394.000 250.929,394.180 250.400,394.400 250.400 C 394.620 250.400,394.800 249.691,394.800 248.824 C 394.800 247.957,394.980 247.136,395.200 247.000 C 395.420 246.864,395.600 245.953,395.600 244.976 C 395.600 243.999,395.780 243.200,396.000 243.200 C 396.220 243.200,396.400 242.480,396.400 241.600 C 396.400 240.720,396.580 240.000,396.800 240.000 C 397.020 240.000,397.200 239.010,397.200 237.800 C 397.200 236.590,397.380 235.600,397.600 235.600 C 397.820 235.600,398.000 234.646,398.000 233.480 C 398.000 232.314,398.166 231.189,398.369 230.980 C 398.572 230.771,398.834 229.340,398.951 227.800 C 399.068 226.260,399.365 222.480,399.611 219.400 C 400.219 211.779,399.947 175.787,399.276 175.116 C 399.002 174.842,398.800 173.494,398.800 171.944 C 398.800 170.461,398.620 169.136,398.400 169.000 C 398.180 168.864,398.000 167.773,398.000 166.576 C 398.000 165.379,397.820 164.400,397.600 164.400 C 397.380 164.400,397.200 163.511,397.200 162.424 C 397.200 161.337,397.020 160.336,396.800 160.200 C 396.580 160.064,396.400 159.243,396.400 158.376 C 396.400 157.509,396.220 156.800,396.000 156.800 C 395.780 156.800,395.600 156.080,395.600 155.200 C 395.600 154.320,395.420 153.600,395.200 153.600 C 394.980 153.600,394.800 152.880,394.800 152.000 C 394.800 151.120,394.620 150.400,394.400 150.400 C 394.180 150.400,394.000 149.770,394.000 149.000 C 394.000 148.230,393.840 147.600,393.644 147.600 C 393.448 147.600,393.178 146.970,393.044 146.200 C 392.910 145.430,392.690 144.170,392.556 143.400 C 392.422 142.630,392.152 142.000,391.956 142.000 C 391.760 142.000,391.600 141.374,391.600 140.608 C 391.600 139.843,391.352 138.538,391.048 137.708 C 390.744 136.879,390.263 135.390,389.978 134.400 C 389.694 133.410,389.312 132.429,389.130 132.220 C 388.949 132.011,388.800 131.426,388.800 130.920 C 388.800 130.414,388.620 130.000,388.400 130.000 C 388.180 130.000,388.000 129.550,388.000 129.000 C 388.000 128.450,387.820 128.000,387.600 128.000 C 387.380 128.000,387.200 127.640,387.200 127.200 C 387.200 126.760,387.020 126.400,386.800 126.400 C 386.580 126.400,386.400 125.860,386.400 125.200 C 386.400 124.540,386.259 124.000,386.087 124.000 C 385.915 124.000,385.526 123.145,385.222 122.100 C 384.918 121.055,384.564 120.110,384.435 120.000 C 383.963 119.598,383.200 117.995,383.200 117.405 C 383.200 117.072,383.020 116.800,382.800 116.800 C 382.580 116.800,382.400 116.535,382.400 116.212 C 382.400 115.889,382.040 114.983,381.600 114.200 C 381.160 113.417,380.800 112.511,380.800 112.188 C 380.800 111.865,380.665 111.599,380.500 111.597 C 380.149 111.593,379.200 109.663,379.200 108.954 C 379.200 108.686,379.065 108.407,378.900 108.333 C 378.630 108.213,377.422 106.111,376.240 103.703 C 375.621 102.441,375.300 102.576,374.821 104.300 " stroke="none" fill="#f7c753" fill-rule="evenodd"></path><path id="path1" d="M288.200 23.989 C 287.760 24.184,286.680 24.361,285.800 24.382 C 284.453 24.415,280.289 25.339,275.000 26.780 C 270.111 28.112,260.543 32.548,256.738 35.247 C 256.154 35.661,255.571 36.000,255.443 36.000 C 255.314 36.000,254.892 36.261,254.505 36.581 C 254.117 36.901,252.360 38.239,250.600 39.555 C 246.014 42.984,239.869 49.145,237.223 52.967 C 236.906 53.425,236.537 53.890,236.404 54.000 C 236.271 54.110,235.729 54.830,235.200 55.600 C 234.671 56.370,234.127 57.090,233.991 57.200 C 233.524 57.578,229.377 64.601,228.323 66.800 C 225.580 72.523,225.200 73.385,225.200 73.880 C 225.200 74.172,225.041 74.723,224.847 75.105 C 224.220 76.337,223.702 77.760,223.246 79.500 C 222.757 81.363,222.073 83.932,221.567 85.800 C 219.965 91.717,219.622 102.887,219.922 139.400 L 220.201 173.400 221.201 174.884 C 221.750 175.700,222.650 176.600,223.200 176.883 C 223.750 177.167,224.329 177.579,224.486 177.799 C 224.675 178.064,238.425 178.161,264.884 178.085 C 308.185 177.961,308.170 177.961,316.343 175.760 C 318.401 175.205,320.186 174.853,320.310 174.977 C 320.434 175.100,320.820 174.965,321.168 174.675 C 321.515 174.385,323.139 173.635,324.775 173.009 C 350.240 163.264,369.909 139.109,373.803 112.800 C 375.501 101.332,375.250 88.385,373.196 81.400 C 372.937 80.520,372.633 79.215,372.519 78.500 C 372.405 77.785,372.152 77.200,371.956 77.200 C 371.760 77.200,371.600 76.660,371.600 76.000 C 371.600 75.340,371.420 74.800,371.200 74.800 C 370.980 74.800,370.800 74.361,370.800 73.824 C 370.800 73.287,370.620 72.736,370.400 72.600 C 370.180 72.464,370.000 72.003,370.000 71.576 C 370.000 71.149,369.820 70.800,369.600 70.800 C 369.380 70.800,369.201 70.485,369.203 70.100 C 369.207 69.325,365.986 62.678,365.504 62.467 C 365.337 62.393,365.200 62.078,365.200 61.767 C 365.200 61.455,365.020 61.200,364.800 61.200 C 364.580 61.200,364.400 60.930,364.400 60.600 C 364.400 60.270,364.220 60.000,364.000 60.000 C 363.780 60.000,363.600 59.764,363.600 59.475 C 363.600 59.187,363.240 58.564,362.800 58.092 C 362.360 57.620,362.000 57.028,362.000 56.777 C 362.000 56.526,361.460 55.817,360.800 55.200 C 360.140 54.583,359.600 53.866,359.600 53.606 C 359.600 53.346,357.350 50.860,354.600 48.082 C 351.850 45.304,349.600 42.883,349.600 42.703 C 349.600 42.522,349.285 42.256,348.900 42.110 C 348.515 41.964,347.539 41.160,346.731 40.322 C 345.924 39.485,345.051 38.800,344.792 38.800 C 344.533 38.800,343.817 38.260,343.200 37.600 C 342.583 36.940,341.881 36.400,341.640 36.400 C 341.398 36.400,341.200 36.220,341.200 36.000 C 341.200 35.780,340.930 35.600,340.600 35.600 C 340.270 35.600,340.000 35.420,340.000 35.200 C 340.000 34.980,339.730 34.800,339.400 34.800 C 339.070 34.800,338.800 34.620,338.800 34.400 C 338.800 34.180,338.440 34.000,338.000 34.000 C 337.560 34.000,337.200 33.848,337.200 33.663 C 337.200 33.477,336.345 32.892,335.300 32.363 C 334.255 31.833,333.340 31.265,333.267 31.100 C 333.193 30.935,332.788 30.800,332.367 30.800 C 331.945 30.800,331.600 30.620,331.600 30.400 C 331.600 30.180,331.240 30.000,330.800 30.000 C 330.360 30.000,330.000 29.820,330.000 29.600 C 330.000 29.380,329.651 29.200,329.224 29.200 C 328.797 29.200,328.336 29.020,328.200 28.800 C 328.064 28.580,327.513 28.400,326.976 28.400 C 326.439 28.400,326.000 28.243,326.000 28.051 C 326.000 27.859,325.244 27.581,324.320 27.434 C 323.396 27.286,322.408 26.973,322.125 26.738 C 321.842 26.503,321.173 26.420,320.638 26.555 C 320.094 26.691,317.996 26.354,315.870 25.788 C 309.201 24.013,290.839 22.819,288.200 23.989 M78.993 88.200 C 78.993 113.940,79.041 124.411,79.100 111.469 C 79.159 98.527,79.158 77.467,79.100 64.669 C 79.041 51.871,78.993 62.460,78.993 88.200 M271.800 70.592 C 277.365 71.313,279.157 72.499,288.294 81.505 C 298.232 91.302,296.400 91.264,305.950 81.873 C 315.927 72.062,318.204 70.764,325.600 70.676 C 331.577 70.605,335.878 72.230,340.217 76.200 C 346.427 81.881,348.164 92.475,344.149 100.176 C 341.709 104.857,299.512 147.200,297.287 147.200 C 295.881 147.200,294.928 146.312,275.077 126.500 C 251.704 103.173,249.200 100.302,249.200 96.828 C 249.200 96.399,249.020 95.936,248.800 95.800 C 248.571 95.659,248.400 93.604,248.400 91.000 C 248.400 88.396,248.571 86.341,248.800 86.200 C 249.020 86.064,249.200 85.592,249.200 85.151 C 249.200 81.976,254.985 74.813,259.227 72.736 C 262.509 71.129,267.477 69.872,269.200 70.214 C 269.530 70.279,270.700 70.449,271.800 70.592 M99.800 131.421 C 99.580 131.508,97.510 131.762,95.200 131.986 C 90.259 132.464,86.817 132.991,84.600 133.608 C 83.720 133.853,82.311 134.200,81.468 134.379 C 80.625 134.558,79.725 134.930,79.468 135.207 C 78.976 135.734,78.892 135.748,82.400 134.746 C 85.594 133.835,87.104 133.513,89.000 133.342 C 90.100 133.243,91.360 133.002,91.800 132.807 C 92.240 132.611,94.495 132.381,96.811 132.295 C 100.592 132.155,104.810 131.189,101.400 131.244 C 100.740 131.254,100.020 131.334,99.800 131.421 M80.042 282.912 C 80.615 283.231,81.605 283.595,82.242 283.721 C 82.879 283.848,84.210 284.153,85.200 284.400 C 88.946 285.336,99.145 286.807,101.600 286.766 L 102.600 286.749 101.600 286.349 C 101.050 286.128,98.620 285.782,96.200 285.579 C 90.607 285.110,85.944 284.341,84.200 283.600 C 83.760 283.413,82.883 283.151,82.250 283.018 C 81.618 282.884,80.627 282.675,80.050 282.554 L 79.000 282.333 80.042 282.912 M78.992 320.800 C 78.992 341.590,79.041 350.095,79.100 339.700 C 79.159 329.305,79.159 312.295,79.100 301.900 C 79.041 291.505,78.992 300.010,78.992 320.800 " stroke="none" fill="#f22555" fill-rule="evenodd"></path><path id="path2" d="M123.770 47.191 L 107.740 47.400 106.308 48.382 C 102.412 51.053,102.529 49.685,102.483 93.140 L 102.443 131.077 107.721 131.555 C 113.054 132.038,114.248 132.238,120.400 133.686 C 147.802 140.134,171.055 163.301,177.727 190.800 C 180.252 201.206,180.464 205.744,180.312 246.000 C 180.173 282.855,180.252 281.649,177.822 284.151 C 175.392 286.652,176.730 286.563,138.081 286.792 L 102.763 287.000 102.639 300.282 C 102.487 316.483,102.795 318.121,106.433 320.480 L 107.957 321.468 131.079 321.734 C 179.757 322.293,289.256 322.061,291.427 321.395 C 293.647 320.713,294.574 320.026,296.009 318.000 L 297.000 316.600 297.000 247.800 L 297.000 179.000 261.000 178.800 L 225.000 178.600 223.600 177.609 C 221.730 176.285,220.946 175.314,220.198 173.400 C 219.282 171.055,219.539 95.458,220.483 89.600 C 221.064 85.991,222.852 78.721,223.580 77.000 C 223.767 76.560,224.136 75.570,224.400 74.800 C 224.664 74.030,225.020 73.040,225.190 72.600 C 225.788 71.056,230.204 62.260,230.600 61.825 C 230.820 61.583,231.346 60.759,231.769 59.993 C 232.830 58.072,237.516 51.822,239.712 49.401 C 240.709 48.301,241.441 47.266,241.339 47.101 C 241.138 46.777,150.176 46.847,123.770 47.191 M265.600 71.079 C 264.610 71.173,263.629 71.419,263.420 71.625 C 263.211 71.831,262.733 72.000,262.358 72.000 C 261.729 72.000,258.460 73.515,258.000 74.019 C 257.890 74.140,257.170 74.674,256.400 75.206 C 253.989 76.872,250.837 81.153,250.027 83.861 C 249.774 84.708,249.380 86.032,249.151 86.803 C 247.766 91.482,249.709 99.346,253.300 103.600 C 254.795 105.370,292.390 143.128,294.756 145.236 C 297.491 147.671,297.761 147.559,303.762 141.500 C 306.649 138.585,316.502 128.640,325.658 119.400 C 343.873 101.018,343.810 101.096,345.412 94.800 C 346.928 88.842,344.249 80.410,339.568 76.400 C 337.621 74.732,337.026 74.288,335.857 73.632 C 332.854 71.946,329.833 71.200,326.002 71.200 C 318.763 71.200,316.241 72.598,306.800 81.843 C 299.502 88.990,298.288 90.000,296.998 90.000 C 296.638 90.000,293.071 86.800,289.072 82.890 C 280.403 74.413,277.344 72.000,275.268 72.000 C 274.879 72.000,274.389 71.838,274.180 71.640 C 273.722 71.207,268.112 70.840,265.600 71.079 M71.160 179.227 C 63.735 179.866,57.089 185.910,54.444 194.428 C 53.549 197.309,53.967 203.157,55.249 205.695 C 55.442 206.077,55.600 206.662,55.600 206.995 C 55.600 207.328,55.780 207.600,56.000 207.600 C 56.220 207.600,56.400 207.883,56.400 208.228 C 56.400 210.528,100.505 254.800,102.796 254.800 C 104.263 254.800,142.686 217.142,147.017 211.460 C 160.184 194.186,141.557 171.745,122.006 181.328 C 119.898 182.361,117.975 184.008,111.763 190.100 C 101.797 199.872,103.527 199.864,93.724 190.184 C 83.226 179.816,80.380 178.434,71.160 179.227 " stroke="none" fill="#a1f2f8" fill-rule="evenodd"></path><path id="path3" d="M241.300 47.133 C 241.355 47.316,240.458 48.548,239.307 49.870 C 238.155 51.193,236.883 52.708,236.480 53.237 C 234.070 56.401,233.543 57.200,233.866 57.200 C 234.065 57.200,234.543 56.667,234.928 56.015 C 235.313 55.363,235.847 54.598,236.114 54.315 C 236.381 54.032,237.085 53.170,237.679 52.400 C 238.272 51.630,239.484 50.190,240.372 49.200 C 242.021 47.362,242.309 46.800,241.600 46.800 C 241.380 46.800,241.245 46.950,241.300 47.133 M232.205 59.192 C 231.167 60.836,230.782 61.990,231.739 60.589 C 233.115 58.573,233.672 57.600,233.451 57.600 C 233.318 57.600,232.758 58.316,232.205 59.192 M228.029 66.700 C 225.252 72.293,225.087 72.666,224.343 75.000 C 224.063 75.880,223.711 76.780,223.563 77.000 C 223.414 77.220,223.171 78.030,223.022 78.800 C 222.823 79.831,222.862 80.042,223.170 79.600 C 223.400 79.270,223.591 78.683,223.594 78.295 C 223.597 77.907,223.808 77.187,224.062 76.695 C 225.019 74.844,225.200 74.397,225.200 73.881 C 225.200 73.589,225.539 72.641,225.954 71.775 C 226.369 70.909,227.355 68.850,228.146 67.200 C 228.937 65.550,229.965 63.615,230.431 62.900 C 230.897 62.185,231.117 61.600,230.920 61.600 C 230.722 61.600,229.422 63.895,228.029 66.700 M265.800 70.587 C 257.914 71.972,249.200 79.617,249.200 85.151 C 249.200 85.592,249.020 86.064,248.800 86.200 C 248.571 86.341,248.400 88.396,248.400 91.000 C 248.400 93.604,248.571 95.659,248.800 95.800 C 249.020 95.936,249.200 96.399,249.200 96.828 C 249.200 100.302,251.704 103.173,275.077 126.500 C 294.928 146.312,295.881 147.200,297.287 147.200 C 299.512 147.200,341.709 104.857,344.149 100.176 C 348.164 92.475,346.427 81.881,340.217 76.200 C 335.878 72.230,331.577 70.605,325.600 70.676 C 318.204 70.764,315.927 72.062,305.950 81.873 C 296.400 91.264,298.232 91.302,288.294 81.505 C 279.157 72.499,277.365 71.313,271.800 70.592 C 270.700 70.449,269.530 70.279,269.200 70.214 C 268.870 70.148,267.340 70.316,265.800 70.587 M274.180 71.640 C 274.389 71.838,274.879 72.000,275.268 72.000 C 277.344 72.000,280.403 74.413,289.072 82.890 C 293.071 86.800,296.638 90.000,296.998 90.000 C 298.288 90.000,299.502 88.990,306.800 81.843 C 316.241 72.598,318.763 71.200,326.002 71.200 C 329.833 71.200,332.854 71.946,335.857 73.632 C 337.026 74.288,337.621 74.732,339.568 76.400 C 344.249 80.410,346.928 88.842,345.412 94.800 C 343.810 101.096,343.873 101.018,325.658 119.400 C 316.502 128.640,306.649 138.585,303.762 141.500 C 297.761 147.559,297.491 147.671,294.756 145.236 C 292.390 143.128,254.795 105.370,253.300 103.600 C 249.709 99.346,247.766 91.482,249.151 86.803 C 249.380 86.032,249.774 84.708,250.027 83.861 C 250.837 81.153,253.989 76.872,256.400 75.206 C 257.170 74.674,257.890 74.140,258.000 74.019 C 258.460 73.515,261.729 72.000,262.358 72.000 C 262.733 72.000,263.211 71.831,263.420 71.625 C 264.240 70.816,273.323 70.829,274.180 71.640 M221.879 82.980 C 221.482 84.471,221.248 85.782,221.359 85.893 C 221.470 86.004,221.674 85.578,221.813 84.947 C 221.952 84.316,222.246 83.319,222.468 82.732 C 222.690 82.144,222.810 81.350,222.735 80.967 C 222.661 80.584,222.275 81.490,221.879 82.980 M220.640 88.742 C 220.481 90.140,220.437 91.370,220.542 91.476 C 220.808 91.741,221.327 87.379,221.107 86.728 C 221.010 86.438,220.799 87.344,220.640 88.742 M219.894 94.556 C 219.732 95.632,219.625 97.972,219.656 99.756 L 219.711 103.000 220.064 98.800 C 220.462 94.065,220.358 91.474,219.894 94.556 M219.714 145.400 C 219.682 160.140,219.779 172.509,219.928 172.886 C 220.177 173.516,220.140 133.205,219.882 123.000 C 219.821 120.580,219.745 130.660,219.714 145.400 M101.803 131.686 C 101.365 131.940,99.025 132.224,96.603 132.318 C 94.181 132.411,92.029 132.648,91.820 132.844 C 91.611 133.040,90.634 133.200,89.648 133.200 C 88.663 133.200,87.304 133.368,86.628 133.573 C 85.953 133.778,84.590 134.159,83.600 134.419 C 82.610 134.680,81.272 135.087,80.626 135.325 C 79.778 135.638,79.412 135.636,79.306 135.318 C 79.211 135.033,78.281 135.236,76.680 135.889 C 75.316 136.445,73.840 137.040,73.400 137.211 C 70.983 138.150,65.203 141.029,63.337 142.223 C 62.153 142.980,61.083 143.600,60.959 143.600 C 60.484 143.600,55.314 147.533,52.033 150.391 C 42.627 158.585,35.128 168.969,30.794 179.800 C 29.304 183.524,28.472 185.969,28.001 188.000 C 27.823 188.770,27.417 190.390,27.099 191.600 C 25.584 197.362,24.786 206.797,25.250 213.458 C 25.639 219.048,26.260 222.815,27.960 229.900 C 28.402 231.744,29.773 235.507,30.135 235.868 C 30.281 236.014,30.400 236.395,30.400 236.715 C 30.400 238.561,36.571 249.572,40.781 255.239 C 45.367 261.412,58.277 273.600,60.230 273.600 C 60.354 273.600,61.252 274.148,62.225 274.817 C 64.524 276.399,72.780 280.477,75.600 281.425 C 76.810 281.831,78.096 282.408,78.459 282.706 C 78.997 283.150,79.149 283.153,79.293 282.724 C 79.437 282.297,79.728 282.293,80.863 282.700 C 81.630 282.975,82.638 283.200,83.105 283.200 C 83.571 283.200,84.052 283.360,84.173 283.556 C 84.294 283.751,85.069 284.026,85.896 284.167 C 86.723 284.307,88.390 284.599,89.600 284.816 C 90.810 285.033,93.690 285.371,96.000 285.567 C 100.384 285.938,102.400 286.309,102.400 286.743 C 102.400 287.279,173.304 286.613,174.935 286.062 C 176.844 285.417,179.013 283.230,179.679 281.279 C 180.950 277.559,180.511 205.904,179.167 197.600 C 173.438 162.206,144.453 135.143,108.484 131.605 C 103.384 131.103,102.797 131.110,101.803 131.686 M223.407 177.500 L 225.000 178.600 261.138 178.800 C 281.014 178.910,297.352 178.878,297.444 178.729 C 297.889 178.008,293.433 177.928,260.342 178.059 C 236.925 178.152,224.675 178.063,224.486 177.800 C 224.159 177.343,222.560 176.400,222.113 176.400 C 221.949 176.400,222.531 176.895,223.407 177.500 M81.096 180.134 C 84.433 181.369,86.317 182.869,93.724 190.184 C 103.527 199.864,101.797 199.872,111.763 190.100 C 117.975 184.008,119.898 182.361,122.006 181.328 C 141.557 171.745,160.184 194.186,147.017 211.460 C 142.686 217.142,104.263 254.800,102.796 254.800 C 100.505 254.800,56.400 210.528,56.400 208.228 C 56.400 207.883,56.220 207.600,56.000 207.600 C 55.780 207.600,55.600 207.328,55.600 206.995 C 55.600 206.662,55.442 206.077,55.249 205.695 C 48.138 191.618,65.565 174.384,81.096 180.134 " stroke="none" fill="#fb6394" fill-rule="evenodd"></path></g></svg>