<?xml version="1.0" ?><!DOCTYPE svg  PUBLIC '-//W3C//DTD SVG 1.1//EN'  'http://www.w3.org/Graphics/SVG/1.1/DTD/svg11.dtd'><svg height="100%" style="fill-rule:evenodd;clip-rule:evenodd;stroke-linejoin:round;stroke-miterlimit:2;" version="1.1" viewBox="0 0 512 512" width="100%" xml:space="preserve" xmlns="http://www.w3.org/2000/svg" xmlns:serif="http://www.serif.com/" xmlns:xlink="http://www.w3.org/1999/xlink"><g transform="matrix(0.550803,0,0,0.550803,-74.773,19.7828)"><path d="M557.527,497.543C558.037,497.613 558.148,497.634 558.645,497.698C566.959,498.828 575.128,500.326 581.381,503.121C587.176,505.68 590.573,508.918 593.674,514.69C598.39,523.443 598.698,535.705 594.436,544.986C591.252,551.891 584.263,557.682 577.883,560.751C571.257,563.963 564.729,565.493 557.242,566.347C544.147,567.789 530.005,565.076 518.222,559.377C511.251,555.973 502.738,550.11 498.444,542.558C495.286,537.025 495.387,529.826 499.229,524.567C505.352,516.186 518.468,514.34 528.347,514.69C535.879,514.982 549.439,517.31 556.591,519.854C558.572,520.57 565.882,523.418 567.158,524.724C568.056,525.632 568.639,526.952 568.235,528.173C566.601,533.17 554.457,535.805 550.951,536.334C541.563,537.772 536.692,534.219 526.019,530.005C523.37,528.967 519.839,527.816 517.142,527.567C512.297,527.106 506.444,528.463 505.52,533.752C505.06,536.478 508.256,539.027 510.694,540.099C516.419,542.558 521.073,543.442 526.708,543.518C543.353,543.792 562.059,541.051 575.673,531.405C577.537,530.075 579.367,528.128 579.387,525.674C579.446,520.718 570.757,517.687 570.757,517.687C561.586,513.864 544.641,512.003 535.912,511.284C526.751,510.491 512.337,509.305 508.877,508.795C505.314,508.287 501.443,507.568 498.357,506.185C495.258,504.785 492.225,501.651 491.325,498.184C489.729,491.934 491.766,484.265 495.237,479.272C504.333,466.194 525.643,461.227 541.562,459.254C556.97,457.337 581.879,457.356 597.013,465.398C599.349,466.651 600.543,467.816 600.054,470.313C599.069,475.003 595.544,478.025 591.272,479.349C586.791,480.776 577.52,481.331 573.449,481.588C555.203,482.611 533.155,482.074 515.776,486.813C514.414,487.202 512.062,487.836 511.298,488.69C508.578,491.643 516.347,492.487 518.012,492.824C518.506,492.943 518.602,492.959 519.118,493.016L557.527,497.543M448.983,416.186C448.983,416.186 451.951,411.735 454.438,408.358C458.965,402.209 467.159,393.681 473.33,388.401C475.218,386.788 477.443,384.961 477.443,384.961C477.443,384.961 473.962,385.321 471.99,385.725C467.308,386.636 460.443,391.198 457.013,394.147C451.353,398.992 445.128,406.869 447.945,413.867C448.354,414.856 448.983,416.186 448.983,416.186M480.449,424.606C489.391,423.99 497.767,421.415 505.565,417.09C513.212,412.81 524.461,404.466 523.294,394.656C522.94,391.481 520.861,389.084 518.237,387.965C514.826,386.487 513.047,386.725 508.69,388.02C505.525,388.946 504.099,389.508 501.11,391.219C492.338,396.315 479.901,407.222 473.148,415.927C471.59,417.98 470.012,420.275 468.777,421.849C467.997,422.819 467.392,423.71 467.468,423.947C467.737,424.934 476.957,424.844 480.449,424.606M457.682,441.329C456.76,442.305 455.784,444.657 454.773,446.36C454.232,447.271 453.23,448.444 452.567,448.915C450.24,450.626 448.269,450.705 446.022,448.728C442.871,445.941 441.049,441.632 440.92,437.439C440.853,435.609 441.166,433.585 440.82,432.043C440.247,429.439 437.641,426.756 436.236,424.267C434.587,421.334 433.252,416.22 433.086,412.918C432.52,402.623 437.947,393.14 444.996,385.66C452.096,378.096 461.384,371.81 471.485,367.531C481.033,363.509 495.025,360.767 505.51,364.399C508.924,365.568 513.68,368.473 516.069,371.517C516.577,372.148 516.991,372.831 517.511,373.165C517.977,373.463 519.197,373.58 520.167,373.758C523.511,374.338 528.326,376.87 530.293,378.556C534.245,381.965 536.409,385.223 537.411,389.952C539.42,399.467 533.94,409.906 527.699,416.26C517.013,427.195 506.459,434.883 492.789,440.235C486.784,442.581 477.432,444.772 470.62,444.159C468.504,443.984 466.331,443.426 464.271,443.289C463.22,443.199 459.376,442.208 458.965,441.928C458.456,441.537 457.798,441.196 457.682,441.329M469.892,462.425C470.308,462.495 470.949,462.681 471.501,462.894C476.294,464.717 478.266,469.152 479.446,474.024C482.182,485.337 483.35,510.366 483.805,520.162C484.139,527.515 484.323,534.75 484.631,542.018C484.893,548.173 485.384,556.356 484.101,562.122C483.634,564.197 482.247,566.609 480.261,567.844C477.985,569.3 472.806,569.411 469.959,568.824C462.942,567.373 460.662,562.861 459.66,555.921C457.28,539.362 458.426,506.863 459.831,493.15C460.298,488.621 462.004,474.108 464.369,468.023C465.177,465.971 466.896,461.839 469.892,462.425M256.418,489.976C256.418,489.976 245.974,490.715 238.786,491.513C229.641,492.498 212.458,495.464 202.54,499.006C199.564,500.071 193.521,502.601 192.996,505.66C192.444,508.831 194.412,511.31 196.6,513.875C197.866,515.365 205.029,522.256 207.038,523.93C215.457,530.959 232.529,541.8 245.103,547.064C249.423,548.851 256.57,551.41 256.57,551.41C256.57,551.41 256.039,531.062 256.134,511.018C256.19,500.444 256.418,489.976 256.418,489.976M447.913,498.074C448.511,503.54 447.106,513.876 446.863,515.239C446.418,518.382 444.048,525.63 443.655,526.514C441.742,530.919 439.857,534.528 437.858,538.128C434.434,544.291 426.29,554.062 421.456,558.244C403.479,573.782 375.65,582.629 351.776,585.543C335.576,587.5 316.961,587.213 299.796,584.036C293.888,582.962 285.097,580.936 285.097,580.936C285.097,580.936 285.125,584.451 284.844,586.923C284.707,588.051 283.858,591.019 283.382,591.981C282.134,594.559 280.084,595.889 277.105,596.462C273.508,597.129 269.694,597.352 266.371,595.931C260.915,593.635 258.956,588.531 258.005,582.643C257.236,577.935 256.431,569.75 256.431,569.75C256.431,569.75 252.35,567.817 248.946,566.118C238.492,560.968 228.564,554.727 219.878,548.309C217.471,546.512 207.133,537.854 204.851,535.704C198.452,529.629 192.696,523.586 188.317,515.831C184.913,509.773 183.932,504.396 186.521,497.977C190.092,489.03 202.92,482.293 211.699,478.454C218.143,475.609 238.18,469.066 246.504,467.853C250.435,467.291 256.533,466.199 256.908,465.956C257.061,465.838 257.167,465.739 257.278,465.612C257.47,465.342 257.794,456.485 257.731,453.245C257.65,450.059 260.089,429.137 260.872,424.713C261.281,422.32 263.093,413.11 264.943,410.692C266.153,409.058 268.293,409.19 270.038,410.263C279.584,416.199 282.484,436.786 283.194,447.261C283.619,453.644 283.83,463.244 283.83,463.244C283.83,463.244 294.782,462.92 301.518,463.111C308.065,463.263 315.28,464.296 322.075,465.379C330.774,466.773 347.73,470.472 357.455,475.402C365.462,479.462 372.958,486.302 375.386,493.541C377.642,500.177 377.304,504.769 373.868,510.758C370.004,517.52 362.695,522.547 355.284,522.967C353.079,523.094 344.779,521.991 342.225,520.014C341.223,519.225 341.275,517.803 341.998,516.838C342.272,516.499 346.152,514.436 348.442,513.233C349.523,512.655 350.529,511.945 351.436,511.119C353.339,509.443 355.051,507.599 354.86,505.437C354.597,502.631 351.627,500.9 348.797,499.787C335.518,494.512 309.004,490.133 296.192,489.375C291.177,489.08 284.043,488.828 284.043,488.828L285.552,559.578C285.552,559.578 291.449,560.702 296.097,561.455C298.764,561.859 310.063,562.877 313.066,562.95C335.929,563.554 361.446,561.507 382.428,551.606C391.639,547.271 400.09,541.874 406.487,534.568C414.92,524.9 419.336,511.67 418.167,497.851C416.886,482.758 406.264,464.842 397.782,453.933C375.371,425.112 336.955,401.404 303.158,387.504C268.653,373.323 234.551,365.165 197.932,363.799C188.491,363.449 167.908,363.925 157.503,366.803C156.017,367.223 154.518,367.723 153.138,368.033C152.048,368.3 150.33,369.022 149.859,369.403C149.674,369.558 149.5,369.727 149.339,369.907C149.178,370.087 149.981,370.261 150.594,370.521C151.696,371.002 156.335,371.29 158.736,371.729C160.884,372.133 163.121,373.261 164.006,374.835C164.847,376.331 164.952,377.511 163.947,378.759C161.589,381.626 152.716,381.142 148.808,380.524C144.748,379.877 139.692,378.635 138.763,375.099C137.686,370.935 139.664,366.853 141.801,363.08C146.094,355.53 152.244,351.603 161.249,349.144C174.041,345.624 190.192,343.163 202.27,342.702C229.608,341.669 255.482,346.45 281.969,354.491C297.129,359.075 316.976,366.767 331.506,373.763C341.932,378.791 358.359,388.035 367.587,394.077C370.498,395.998 387.529,408.512 390.175,410.711C395.694,415.223 402.912,421.709 408.14,426.896C418.253,436.917 430.832,452.279 436.942,464.472C438.413,467.392 439.552,470.264 441.449,473.648C442.102,474.808 444.893,481.742 445.357,483.745C445.817,485.727 446.491,488.64 446.586,488.756C446.721,489.82 448.015,495.777 447.913,498.074M791.595,482.431C778.793,485.383 745.128,487.022 745.128,487.022L740.882,500.32C740.882,500.32 757.706,498.883 769.946,500.162C769.946,500.162 773.911,499.701 774.377,504.664C774.535,509.292 773.984,514.258 773.984,514.258C773.984,514.258 773.73,517.263 769.472,518.027C764.858,518.796 733.21,520.02 733.21,520.02L728.085,537.354C728.085,537.354 726.181,541.361 730.449,540.217C734.415,539.155 767.575,532.933 771.894,533.828C776.522,534.978 781.645,541.148 780.164,546.772C778.399,553.742 745.302,574.85 725.147,573.377C725.147,573.377 714.555,574.06 705.603,559.766C697.266,546.145 708.763,520.354 708.763,520.354C708.763,520.354 703.493,508.315 707.312,504.234C707.312,504.234 709.585,502.171 716.21,501.705L724.322,484.923C724.322,484.923 715.082,485.559 709.585,478.761C704.464,472.313 704.035,469.349 707.961,467.568C712.159,465.495 750.638,458.472 777.117,459.363C777.117,459.363 786.319,458.459 794.3,474.421C794.302,474.422 798.168,480.877 791.595,482.431M692.004,546.959C688.611,554.941 679.647,563.459 668.511,558.164C657.518,552.858 640.008,517.021 640.008,517.021C640.008,517.021 633.361,503.658 632.082,504.002C632.082,504.002 630.646,501.392 629.765,515.995C628.85,530.537 629.942,558.891 624.141,563.354C618.646,567.829 611.993,566.047 608.542,560.819C605.406,555.668 604.1,543.429 605.812,521.934C607.823,500.396 612.826,477.482 619.218,470.347C625.601,463.259 630.726,468.404 632.724,470.271C632.724,470.271 641.262,478.01 655.343,500.735L657.828,504.939C657.828,504.939 670.624,526.409 671.96,526.359C671.96,526.359 673.006,527.346 673.938,526.637C675.281,526.253 674.74,519.368 674.74,519.368C674.74,519.368 672.085,495.97 660.412,456.367C660.412,456.367 658.647,451.428 659.84,446.801C661.025,442.125 665.713,444.32 665.713,444.32C665.713,444.32 683.805,453.417 692.587,482.873C701.311,512.338 695.449,538.917 692.004,546.959M886.722,529.317C878.486,543.687 855.236,573.775 824.337,566.671C814.133,591.415 805.561,616.446 800.66,653.901C800.66,653.901 799.583,661.179 793.534,658.651C787.539,656.553 777.665,646.587 775.668,632.799C773.519,614.687 781.582,584.069 798.061,548.962C793.255,541.148 789.978,529.985 792.783,514.088C792.783,514.088 796.922,484.569 826.569,457.964C826.569,457.964 830.123,454.894 832.183,455.84C834.453,456.791 833.401,466.397 831.6,471.068C829.729,475.712 816.531,498.56 816.531,498.56C816.531,498.56 808.298,513.997 810.615,526.172C826.164,502.267 861.508,454.063 883.415,469.264C890.774,474.529 894.166,485.982 894.166,498.322C894.171,509.162 891.557,520.683 886.722,529.317M880.329,491.458C880.329,491.458 879.109,481.954 869.818,492.425C861.826,501.26 847.411,517.815 835.807,540.3C847.982,538.933 859.726,532.327 863.277,528.963C869.05,523.841 882.498,509.944 880.329,491.458M1056.94,489.295L1000.31,489.295C999.18,470.048 996.857,451.299 993.204,431.99C992.835,430.003 991.087,428.547 989.066,428.542L976.011,428.542C974.869,428.545 973.786,429.06 973.063,429.944C972.331,430.831 972.034,432 972.252,433.129C975.962,451.814 978.311,470.204 979.471,489.313L924.99,489.313C922.451,489.313 920.389,491.369 920.389,493.897L920.389,505.672C920.392,508.195 922.467,510.271 924.99,510.276L980.251,510.276C980.286,513.182 980.314,515.784 980.314,518.226C980.314,535.195 979.582,549.174 977.872,564.95C977.736,566.164 978.134,567.379 978.962,568.278C979.763,569.177 980.912,569.693 982.116,569.694L994.224,569.694C996.569,569.697 998.556,567.897 998.782,565.563C1000.44,549.68 1001.14,535.528 1001.14,518.225C1001.14,515.792 1001.12,513.181 1001.08,510.275L1056.94,510.275C1059.47,510.275 1061.54,508.205 1061.54,505.671L1061.54,493.896C1061.53,491.374 1059.46,489.299 1056.94,489.295" style="fill-rule:nonzero;"/></g><g transform="matrix(0.550803,0,0,0.550803,-74.773,19.7828)"><path d="M299.735,331.511C298.934,332.695 298.736,334.189 299.199,335.541C299.665,336.893 300.727,337.959 302.078,338.429L312.229,341.845C312.818,342.035 313.432,342.133 314.051,342.138C315.931,342.141 317.694,341.204 318.744,339.643C351.995,290.795 396.996,250.123 448.892,222.025C502.467,193.012 563.167,177.666 624.449,177.666C698.469,177.666 769.887,199.501 830.988,240.805C890.607,281.093 936.909,337.303 964.889,403.359C965.719,405.328 967.658,406.613 969.795,406.611L981.919,406.611C983.322,406.606 984.635,405.904 985.419,404.74C986.209,403.575 986.365,402.089 985.834,400.786C956.983,329.761 908.194,269.216 844.725,225.718C779.751,181.186 703.581,157.643 624.449,157.643C493.63,157.643 372.238,222.642 299.735,331.511" style="fill-rule:nonzero;"/></g></svg>