<?xml version="1.0" encoding="utf-8"?>
<!-- Generator: Adobe Illustrator 25.2.3, SVG Export Plug-In . SVG Version: 6.00 Build 0)  -->
<svg version="1.1" id="Layer_1" xmlns="http://www.w3.org/2000/svg" xmlns:xlink="http://www.w3.org/1999/xlink" x="0px" y="0px"
	 viewBox="0 0 300 300" style="enable-background:new 0 0 300 300;" xml:space="preserve">
<style type="text/css">
	.st0{fill:#E53338;}
	.st1{fill:#3466B1;}
	.st2{fill:#F3AF1C;}
	.st3{fill:#87B940;}
</style>
<path id="e" class="st0" d="M38.87,116.15c-21.15,0-38.77,8.97-38.77,36.04c0,21.44,11.85,34.94,39.31,34.94
	c32.33,0,34.4-21.29,34.4-21.29H58.15c0,0-3.36,11.47-19.69,11.47c-13.3,0-22.87-8.99-22.87-21.58h59.86v-7.9
	C75.45,135.35,67.54,116.15,38.87,116.15L38.87,116.15z M38.32,126.25c12.66,0,21.29,7.76,21.29,19.38H15.93
	C15.93,133.29,27.2,126.25,38.32,126.25z"/>
<path id="b" class="st1" d="M75.44,89.94v83.6c0,4.75-0.34,11.41-0.34,11.41h14.94c0,0,0.54-4.79,0.54-9.16
	c0,0,7.38,11.55,27.45,11.55c21.13,0,35.49-14.67,35.49-35.7c0-19.56-13.19-35.29-35.46-35.29c-20.85,0-27.33,11.26-27.33,11.26
	V89.94H75.44z M114.2,126.69c14.35,0,23.48,10.65,23.48,24.95c0,15.33-10.54,25.36-23.38,25.36c-15.32,0-23.58-11.96-23.58-25.22
	C90.73,139.42,98.14,126.69,114.2,126.69z"/>
<path id="a" class="st2" d="M190.65,116.15c-31.81,0-33.85,17.42-33.85,20.2h15.83c0,0,0.83-10.17,16.93-10.17
	c10.46,0,18.56,4.79,18.56,13.99v3.28h-18.56c-24.65,0-37.67,7.21-37.67,21.84c0,14.4,12.04,22.23,28.31,22.23
	c22.17,0,29.31-12.25,29.31-12.25c0,4.87,0.38,9.67,0.38,9.67h14.08c0,0-0.55-5.95-0.55-9.76v-32.91
	C223.41,120.69,206,116.15,190.65,116.15L190.65,116.15z M208.12,153.27v4.37c0,5.7-3.52,19.86-24.21,19.86
	c-11.33,0-16.19-5.66-16.19-12.22C167.71,153.35,184.08,153.27,208.12,153.27L208.12,153.27z"/>
<path id="y" class="st3" d="M214.88,118.88h17.81l25.56,51.22l25.51-51.22h16.14l-46.46,91.18h-16.93l13.41-25.42L214.88,118.88z"/>
</svg>
