<svg id="svg" version="1.1" xmlns="http://www.w3.org/2000/svg" xmlns:xlink="http://www.w3.org/1999/xlink" width="400" height="400" viewBox="0, 0, 400,400"><g id="svgg"><path id="path0" d="M81.680 175.400 C 81.539 178.323,80.619 180.736,80.187 179.321 C 79.933 178.493,70.684 177.719,68.500 178.343 C 68.105 178.456,67.979 187.909,67.900 223.543 C 67.758 287.598,67.726 282.910,68.300 283.100 C 68.644 283.215,68.800 284.255,68.800 286.433 C 68.800 288.278,68.967 289.600,69.200 289.600 C 69.420 289.600,69.600 290.230,69.600 291.000 C 69.600 291.770,69.780 292.400,70.000 292.400 C 70.220 292.400,70.400 292.760,70.400 293.200 C 70.400 293.640,70.544 294.000,70.720 294.000 C 70.895 294.000,71.267 294.630,71.546 295.400 C 71.824 296.170,72.233 296.800,72.454 296.800 C 72.895 296.800,74.000 297.794,74.000 298.190 C 74.000 298.586,75.927 300.400,76.348 300.400 C 76.560 300.400,76.793 300.542,76.867 300.717 C 77.127 301.334,79.885 303.200,80.538 303.200 C 80.902 303.200,81.200 303.380,81.200 303.600 C 81.200 303.820,81.472 304.000,81.805 304.000 C 82.138 304.000,82.768 304.180,83.205 304.400 C 83.642 304.620,84.358 304.980,84.795 305.200 C 85.232 305.420,85.932 305.600,86.352 305.600 C 86.771 305.600,87.218 305.870,87.345 306.200 C 87.471 306.530,87.930 306.800,88.364 306.800 C 88.798 306.800,89.264 306.980,89.400 307.200 C 89.536 307.420,90.087 307.600,90.624 307.600 C 91.161 307.600,91.600 307.780,91.600 308.000 C 91.600 308.220,92.050 308.400,92.600 308.400 C 93.150 308.400,93.600 308.580,93.600 308.800 C 93.600 309.020,94.140 309.200,94.800 309.200 C 95.460 309.200,96.000 309.380,96.000 309.600 C 96.000 309.820,96.450 310.000,97.000 310.000 C 97.622 310.000,98.000 310.227,98.000 310.600 C 98.000 310.969,98.375 311.200,98.976 311.200 C 99.513 311.200,100.064 311.380,100.200 311.600 C 100.336 311.820,100.887 312.000,101.424 312.000 C 101.961 312.000,102.400 312.180,102.400 312.400 C 102.400 312.620,102.749 312.800,103.176 312.800 C 103.603 312.800,104.064 312.980,104.200 313.200 C 104.336 313.420,104.977 313.600,105.624 313.600 C 106.403 313.600,106.800 313.803,106.800 314.200 C 106.800 314.530,107.149 314.800,107.576 314.800 C 108.003 314.800,108.442 314.944,108.551 315.121 C 108.660 315.297,109.661 315.690,110.775 315.993 C 111.889 316.296,112.800 316.692,112.800 316.872 C 112.800 317.053,113.250 317.200,113.800 317.200 C 114.350 317.200,114.800 317.380,114.800 317.600 C 114.800 317.820,115.321 318.000,115.957 318.000 C 116.617 318.000,117.213 318.258,117.345 318.600 C 117.471 318.930,117.941 319.200,118.387 319.200 C 118.834 319.200,119.200 319.380,119.200 319.600 C 119.200 319.820,119.740 320.000,120.400 320.000 C 121.060 320.000,121.600 320.180,121.600 320.400 C 121.600 320.620,122.050 320.800,122.600 320.800 C 123.150 320.800,123.600 320.980,123.600 321.200 C 123.600 321.420,124.050 321.600,124.600 321.600 C 125.150 321.600,125.600 321.780,125.600 322.000 C 125.600 322.220,126.140 322.400,126.800 322.400 C 127.460 322.400,128.000 322.567,128.000 322.771 C 128.000 323.297,130.344 324.400,131.461 324.400 C 131.978 324.400,132.400 324.580,132.400 324.800 C 132.400 325.020,132.760 325.200,133.200 325.200 C 133.640 325.200,134.000 325.380,134.000 325.600 C 134.000 325.820,134.439 326.000,134.976 326.000 C 135.513 326.000,136.064 326.180,136.200 326.400 C 136.336 326.620,136.867 326.800,137.381 326.800 C 137.894 326.800,138.418 327.070,138.545 327.400 C 138.671 327.730,139.130 328.000,139.564 328.000 C 139.998 328.000,140.464 328.180,140.600 328.400 C 140.736 328.620,141.287 328.800,141.824 328.800 C 142.361 328.800,142.800 328.980,142.800 329.200 C 142.800 329.420,143.250 329.600,143.800 329.600 C 144.350 329.600,144.800 329.780,144.800 330.000 C 144.800 330.220,145.173 330.400,145.629 330.400 C 146.084 330.400,146.727 330.670,147.057 331.000 C 147.387 331.330,148.004 331.600,148.429 331.600 C 148.853 331.600,149.200 331.780,149.200 332.000 C 149.200 332.220,149.650 332.400,150.200 332.400 C 150.750 332.400,151.200 332.580,151.200 332.800 C 151.200 333.020,151.740 333.200,152.400 333.200 C 153.060 333.200,153.600 333.380,153.600 333.600 C 153.600 333.820,154.050 334.000,154.600 334.000 C 155.150 334.000,155.600 334.180,155.600 334.400 C 155.600 334.620,156.031 334.800,156.557 334.800 C 157.084 334.800,157.618 335.070,157.745 335.400 C 157.871 335.730,158.253 336.000,158.593 336.000 C 158.933 336.000,159.613 336.208,160.105 336.462 C 162.062 337.474,162.426 337.600,163.395 337.600 C 163.948 337.600,164.400 337.780,164.400 338.000 C 164.400 338.220,164.760 338.400,165.200 338.400 C 165.640 338.400,166.000 338.580,166.000 338.800 C 166.000 339.020,166.428 339.200,166.951 339.200 C 167.474 339.200,168.126 339.470,168.400 339.800 C 168.674 340.130,169.236 340.400,169.649 340.400 C 170.062 340.400,170.400 340.580,170.400 340.800 C 170.400 341.020,170.839 341.200,171.376 341.200 C 171.913 341.200,172.464 341.380,172.600 341.600 C 172.736 341.820,173.287 342.000,173.824 342.000 C 174.361 342.000,174.800 342.180,174.800 342.400 C 174.800 342.620,175.173 342.800,175.629 342.800 C 176.084 342.800,176.727 343.070,177.057 343.400 C 177.387 343.730,178.004 344.000,178.429 344.000 C 178.853 344.000,179.200 344.180,179.200 344.400 C 179.200 344.620,179.650 344.800,180.200 344.800 C 180.750 344.800,181.200 344.980,181.200 345.200 C 181.200 345.420,181.650 345.600,182.200 345.600 C 182.750 345.600,183.200 345.780,183.200 346.000 C 183.200 346.220,183.740 346.400,184.400 346.400 C 185.060 346.400,185.600 346.580,185.600 346.800 C 185.600 347.020,185.960 347.200,186.400 347.200 C 186.840 347.200,187.200 347.368,187.200 347.573 C 187.200 347.778,187.605 348.060,188.100 348.198 C 189.066 348.469,190.572 349.076,191.695 349.647 C 192.077 349.841,193.022 350.000,193.795 350.000 C 194.568 350.000,195.200 350.180,195.200 350.400 C 195.200 350.644,197.067 350.800,200.000 350.800 C 202.933 350.800,204.800 350.644,204.800 350.400 C 204.800 350.180,205.610 350.000,206.600 350.000 C 207.590 350.000,208.400 349.820,208.400 349.600 C 208.400 349.380,208.700 349.200,209.066 349.200 C 209.964 349.200,212.800 347.927,212.800 347.523 C 212.800 347.345,213.149 347.200,213.576 347.200 C 214.003 347.200,214.464 347.020,214.600 346.800 C 214.736 346.580,215.199 346.400,215.629 346.400 C 216.384 346.400,216.774 346.256,218.695 345.262 C 219.187 345.008,219.862 344.800,220.195 344.800 C 220.528 344.800,220.800 344.620,220.800 344.400 C 220.800 344.180,221.147 344.000,221.571 344.000 C 221.996 344.000,222.613 343.730,222.943 343.400 C 223.273 343.070,223.916 342.800,224.371 342.800 C 224.827 342.800,225.200 342.620,225.200 342.400 C 225.200 342.180,225.740 342.000,226.400 342.000 C 227.060 342.000,227.600 341.820,227.600 341.600 C 227.600 341.380,228.050 341.200,228.600 341.200 C 229.150 341.200,229.600 341.020,229.600 340.800 C 229.600 340.580,229.947 340.400,230.371 340.400 C 230.796 340.400,231.413 340.130,231.743 339.800 C 232.073 339.470,232.716 339.200,233.171 339.200 C 233.627 339.200,234.000 339.020,234.000 338.800 C 234.000 338.580,234.450 338.400,235.000 338.400 C 235.550 338.400,236.000 338.220,236.000 338.000 C 236.000 337.780,236.362 337.600,236.805 337.600 C 237.248 337.600,237.968 337.420,238.405 337.200 C 238.842 336.980,239.558 336.620,239.995 336.400 C 240.432 336.180,241.040 336.000,241.346 336.000 C 241.652 336.000,242.126 335.730,242.400 335.400 C 242.674 335.070,243.326 334.800,243.849 334.800 C 244.372 334.800,244.800 334.620,244.800 334.400 C 244.800 334.180,245.160 334.000,245.600 334.000 C 246.040 334.000,246.400 333.820,246.400 333.600 C 246.400 333.380,246.929 333.200,247.576 333.200 C 248.223 333.200,248.864 333.020,249.000 332.800 C 249.136 332.580,249.597 332.400,250.024 332.400 C 250.451 332.400,250.800 332.220,250.800 332.000 C 250.800 331.780,251.126 331.600,251.524 331.600 C 251.921 331.600,252.596 331.336,253.024 331.013 C 253.451 330.690,254.115 330.420,254.500 330.413 C 254.885 330.406,255.200 330.220,255.200 330.000 C 255.200 329.780,255.639 329.600,256.176 329.600 C 256.713 329.600,257.264 329.420,257.400 329.200 C 257.536 328.980,258.087 328.800,258.624 328.800 C 259.161 328.800,259.600 328.620,259.600 328.400 C 259.600 328.180,259.966 328.000,260.413 328.000 C 260.859 328.000,261.329 327.730,261.455 327.400 C 261.587 327.058,262.183 326.800,262.843 326.800 C 263.479 326.800,264.000 326.620,264.000 326.400 C 264.000 326.180,264.450 326.000,265.000 326.000 C 265.550 326.000,266.000 325.820,266.000 325.600 C 266.000 325.380,266.349 325.200,266.776 325.200 C 267.203 325.200,267.664 325.020,267.800 324.800 C 267.936 324.580,268.476 324.400,269.000 324.400 C 269.524 324.400,270.064 324.220,270.200 324.000 C 270.336 323.780,270.797 323.600,271.224 323.600 C 271.651 323.600,272.000 323.330,272.000 323.000 C 272.000 322.581,272.422 322.400,273.400 322.400 C 274.170 322.400,274.800 322.220,274.800 322.000 C 274.800 321.780,275.160 321.600,275.600 321.600 C 276.040 321.600,276.400 321.420,276.400 321.200 C 276.400 320.980,276.839 320.800,277.376 320.800 C 277.913 320.800,278.464 320.620,278.600 320.400 C 278.736 320.180,279.287 320.000,279.824 320.000 C 280.361 320.000,280.800 319.820,280.800 319.600 C 280.800 319.380,281.166 319.200,281.613 319.200 C 282.059 319.200,282.529 318.930,282.655 318.600 C 282.787 318.258,283.383 318.000,284.043 318.000 C 284.679 318.000,285.200 317.820,285.200 317.600 C 285.200 317.380,285.650 317.200,286.200 317.200 C 286.750 317.200,287.200 317.020,287.200 316.800 C 287.200 316.580,287.562 316.400,288.005 316.400 C 288.448 316.400,289.168 316.220,289.605 316.000 C 290.042 315.780,290.758 315.420,291.195 315.200 C 291.632 314.980,292.240 314.800,292.546 314.800 C 292.852 314.800,293.326 314.530,293.600 314.200 C 293.874 313.870,294.526 313.600,295.049 313.600 C 295.572 313.600,296.000 313.420,296.000 313.200 C 296.000 312.980,296.360 312.800,296.800 312.800 C 297.240 312.800,297.600 312.620,297.600 312.400 C 297.600 312.180,298.129 312.000,298.776 312.000 C 299.423 312.000,300.064 311.820,300.200 311.600 C 300.336 311.380,300.802 311.200,301.236 311.200 C 301.670 311.200,302.129 310.930,302.255 310.600 C 302.382 310.270,302.916 310.000,303.443 310.000 C 303.969 310.000,304.400 309.820,304.400 309.600 C 304.400 309.380,304.839 309.200,305.376 309.200 C 305.913 309.200,306.464 309.020,306.600 308.800 C 306.736 308.580,307.197 308.400,307.624 308.400 C 308.051 308.400,308.400 308.220,308.400 308.000 C 308.400 307.780,308.940 307.600,309.600 307.600 C 310.260 307.600,310.800 307.420,310.800 307.200 C 310.800 306.980,311.166 306.800,311.613 306.800 C 312.059 306.800,312.529 306.530,312.655 306.200 C 312.782 305.870,313.306 305.600,313.819 305.600 C 314.333 305.600,314.864 305.420,315.000 305.200 C 315.136 304.980,315.687 304.800,316.224 304.800 C 316.761 304.800,317.200 304.620,317.200 304.400 C 317.200 304.180,317.465 304.000,317.788 304.000 C 319.239 304.000,326.000 299.216,326.000 298.190 C 326.000 297.816,327.094 296.800,327.497 296.800 C 327.928 296.800,329.600 293.748,329.600 292.962 C 329.600 292.653,329.780 292.400,330.000 292.400 C 330.220 292.400,330.400 291.847,330.400 291.171 C 330.400 290.496,330.670 289.673,331.000 289.343 C 331.423 288.920,331.600 287.888,331.600 285.851 C 331.600 284.261,331.793 282.767,332.029 282.531 C 332.332 282.228,332.420 266.887,332.329 230.551 C 332.207 181.950,332.047 174.946,331.152 179.000 C 330.901 180.134,330.871 180.150,330.597 179.300 C 330.144 177.895,320.237 177.895,319.838 179.300 L 319.583 180.200 319.006 179.200 C 318.688 178.650,318.378 177.030,318.317 175.600 C 318.256 174.170,318.087 197.300,317.942 227.000 C 317.687 279.262,317.546 286.400,316.766 286.400 C 316.565 286.400,316.400 286.720,316.400 287.112 C 316.400 287.503,316.018 288.088,315.551 288.412 C 315.084 288.735,314.467 289.225,314.180 289.500 C 313.892 289.775,313.464 290.000,313.229 290.000 C 312.993 290.000,312.800 290.180,312.800 290.400 C 312.800 290.620,312.440 290.800,312.000 290.800 C 311.560 290.800,311.200 290.980,311.200 291.200 C 311.200 291.420,310.851 291.600,310.424 291.600 C 309.997 291.600,309.536 291.780,309.400 292.000 C 309.264 292.220,308.708 292.400,308.164 292.400 C 307.620 292.400,307.071 292.670,306.945 293.000 C 306.818 293.330,306.284 293.600,305.757 293.600 C 305.231 293.600,304.800 293.780,304.800 294.000 C 304.800 294.220,304.438 294.400,303.995 294.400 C 303.552 294.400,302.832 294.580,302.395 294.800 C 301.958 295.020,301.242 295.380,300.805 295.600 C 300.368 295.820,299.738 296.000,299.405 296.000 C 299.072 296.000,298.800 296.180,298.800 296.400 C 298.800 296.620,298.363 296.800,297.829 296.800 C 297.294 296.800,296.587 297.070,296.257 297.400 C 295.927 297.730,295.374 298.000,295.029 298.000 C 294.683 298.000,294.400 298.180,294.400 298.400 C 294.400 298.620,293.871 298.800,293.224 298.800 C 292.577 298.800,291.936 298.980,291.800 299.200 C 291.664 299.420,291.203 299.600,290.776 299.600 C 290.349 299.600,290.000 299.780,290.000 300.000 C 290.000 300.220,289.700 300.400,289.334 300.400 C 288.436 300.400,285.600 301.673,285.600 302.077 C 285.600 302.255,285.150 302.400,284.600 302.400 C 284.050 302.400,283.600 302.580,283.600 302.800 C 283.600 303.020,283.060 303.200,282.400 303.200 C 281.740 303.200,281.200 303.380,281.200 303.600 C 281.200 303.820,280.750 304.000,280.200 304.000 C 279.650 304.000,279.200 304.180,279.200 304.400 C 279.200 304.620,278.853 304.800,278.429 304.800 C 278.004 304.800,277.387 305.070,277.057 305.400 C 276.727 305.730,276.084 306.000,275.629 306.000 C 275.173 306.000,274.800 306.180,274.800 306.400 C 274.800 306.620,274.440 306.800,274.000 306.800 C 273.560 306.800,273.200 306.980,273.200 307.200 C 273.200 307.420,272.671 307.600,272.024 307.600 C 271.377 307.600,270.736 307.780,270.600 308.000 C 270.464 308.220,270.003 308.400,269.576 308.400 C 269.149 308.400,268.800 308.580,268.800 308.800 C 268.800 309.020,268.474 309.200,268.076 309.200 C 267.679 309.200,267.004 309.464,266.576 309.787 C 266.149 310.110,265.485 310.380,265.100 310.387 C 264.715 310.394,264.400 310.580,264.400 310.800 C 264.400 311.020,263.950 311.200,263.400 311.200 C 262.850 311.200,262.400 311.380,262.400 311.600 C 262.400 311.820,261.860 312.000,261.200 312.000 C 260.540 312.000,260.000 312.180,260.000 312.400 C 260.000 312.620,259.550 312.800,259.000 312.800 C 258.450 312.800,258.000 312.980,258.000 313.200 C 258.000 313.420,257.653 313.600,257.229 313.600 C 256.804 313.600,256.187 313.870,255.857 314.200 C 255.527 314.530,254.884 314.800,254.429 314.800 C 253.973 314.800,253.600 314.980,253.600 315.200 C 253.600 315.420,253.251 315.600,252.824 315.600 C 252.397 315.600,251.936 315.780,251.800 316.000 C 251.664 316.220,251.023 316.400,250.376 316.400 C 249.729 316.400,249.200 316.580,249.200 316.800 C 249.200 317.020,248.840 317.200,248.400 317.200 C 247.960 317.200,247.600 317.380,247.600 317.600 C 247.600 317.820,247.163 318.000,246.629 318.000 C 246.094 318.000,245.387 318.270,245.057 318.600 C 244.727 318.930,244.185 319.200,243.852 319.200 C 243.519 319.200,243.136 319.380,243.000 319.600 C 242.864 319.820,242.324 320.000,241.800 320.000 C 241.276 320.000,240.736 320.180,240.600 320.400 C 240.464 320.620,240.003 320.800,239.576 320.800 C 239.149 320.800,238.800 320.980,238.800 321.200 C 238.800 321.420,238.350 321.600,237.800 321.600 C 237.178 321.600,236.800 321.827,236.800 322.200 C 236.800 322.597,236.403 322.800,235.624 322.800 C 234.977 322.800,234.336 322.980,234.200 323.200 C 234.064 323.420,233.603 323.600,233.176 323.600 C 232.749 323.600,232.400 323.780,232.400 324.000 C 232.400 324.220,231.961 324.400,231.424 324.400 C 230.887 324.400,230.336 324.580,230.200 324.800 C 230.064 325.020,229.513 325.200,228.976 325.200 C 228.439 325.200,228.000 325.380,228.000 325.600 C 228.000 325.820,227.634 326.000,227.187 326.000 C 226.741 326.000,226.271 326.270,226.145 326.600 C 226.013 326.942,225.417 327.200,224.757 327.200 C 224.121 327.200,223.600 327.380,223.600 327.600 C 223.600 327.820,223.150 328.000,222.600 328.000 C 222.050 328.000,221.600 328.180,221.600 328.400 C 221.600 328.620,221.238 328.800,220.795 328.800 C 220.352 328.800,219.587 329.008,219.095 329.262 C 217.232 330.225,216.795 330.400,216.248 330.400 C 215.939 330.400,215.582 330.670,215.455 331.000 C 215.321 331.351,214.721 331.600,214.013 331.600 C 213.346 331.600,212.800 331.780,212.800 332.000 C 212.800 332.220,212.440 332.400,212.000 332.400 C 211.560 332.400,211.200 332.580,211.200 332.800 C 211.200 333.020,210.671 333.200,210.024 333.200 C 209.377 333.200,208.736 333.380,208.600 333.600 C 208.464 333.820,208.003 334.000,207.576 334.000 C 207.149 334.000,206.800 334.270,206.800 334.600 C 206.800 334.973,206.422 335.200,205.800 335.200 C 205.250 335.200,204.800 335.380,204.800 335.600 C 204.800 335.820,204.260 336.000,203.600 336.000 C 202.940 336.000,202.400 336.180,202.400 336.400 C 202.400 336.622,201.333 336.800,200.000 336.800 C 198.667 336.800,197.600 336.622,197.600 336.400 C 197.600 336.180,197.060 336.000,196.400 336.000 C 195.740 336.000,195.200 335.820,195.200 335.600 C 195.200 335.380,194.750 335.200,194.200 335.200 C 193.578 335.200,193.200 334.973,193.200 334.600 C 193.200 334.270,192.851 334.000,192.424 334.000 C 191.997 334.000,191.536 333.820,191.400 333.600 C 191.264 333.380,190.724 333.200,190.200 333.200 C 189.676 333.200,189.136 333.020,189.000 332.800 C 188.864 332.580,188.403 332.400,187.976 332.400 C 187.549 332.400,187.200 332.220,187.200 332.000 C 187.200 331.780,186.827 331.600,186.371 331.600 C 185.916 331.600,185.273 331.330,184.943 331.000 C 184.613 330.670,184.006 330.400,183.595 330.400 C 183.184 330.400,182.736 330.220,182.600 330.000 C 182.464 329.780,182.003 329.600,181.576 329.600 C 181.149 329.600,180.800 329.420,180.800 329.200 C 180.800 328.980,180.260 328.800,179.600 328.800 C 178.940 328.800,178.400 328.620,178.400 328.400 C 178.400 328.180,177.950 328.000,177.400 328.000 C 176.850 328.000,176.400 327.820,176.400 327.600 C 176.400 327.380,176.085 327.194,175.700 327.187 C 175.315 327.180,174.651 326.910,174.224 326.587 C 173.796 326.264,173.121 326.000,172.724 326.000 C 172.326 326.000,172.000 325.820,172.000 325.600 C 172.000 325.380,171.651 325.200,171.224 325.200 C 170.797 325.200,170.336 325.020,170.200 324.800 C 170.064 324.580,169.423 324.400,168.776 324.400 C 168.129 324.400,167.600 324.220,167.600 324.000 C 167.600 323.780,167.240 323.600,166.800 323.600 C 166.360 323.600,166.000 323.420,166.000 323.200 C 166.000 322.980,165.572 322.800,165.049 322.800 C 164.526 322.800,163.874 322.530,163.600 322.200 C 163.326 321.870,162.852 321.600,162.546 321.600 C 162.240 321.600,161.587 321.392,161.095 321.138 C 159.169 320.142,158.783 320.000,158.005 320.000 C 157.562 320.000,157.200 319.820,157.200 319.600 C 157.200 319.380,156.827 319.200,156.371 319.200 C 155.916 319.200,155.273 318.930,154.943 318.600 C 154.613 318.270,154.006 318.000,153.595 318.000 C 153.184 318.000,152.736 317.820,152.600 317.600 C 152.464 317.380,152.003 317.200,151.576 317.200 C 151.149 317.200,150.800 317.020,150.800 316.800 C 150.800 316.580,150.350 316.400,149.800 316.400 C 149.250 316.400,148.800 316.220,148.800 316.000 C 148.800 315.780,148.260 315.600,147.600 315.600 C 146.940 315.600,146.400 315.420,146.400 315.200 C 146.400 314.980,146.062 314.800,145.649 314.800 C 145.236 314.800,144.674 314.530,144.400 314.200 C 144.126 313.870,143.474 313.600,142.951 313.600 C 142.428 313.600,142.000 313.420,142.000 313.200 C 142.000 312.980,141.651 312.800,141.224 312.800 C 140.797 312.800,140.336 312.620,140.200 312.400 C 140.064 312.180,139.423 312.000,138.776 312.000 C 138.129 312.000,137.600 311.820,137.600 311.600 C 137.600 311.380,137.251 311.200,136.824 311.200 C 136.397 311.200,135.936 311.020,135.800 310.800 C 135.664 310.580,135.281 310.400,134.948 310.400 C 134.615 310.400,134.073 310.130,133.743 309.800 C 133.413 309.470,132.806 309.200,132.395 309.200 C 131.984 309.200,131.536 309.020,131.400 308.800 C 131.264 308.580,130.803 308.400,130.376 308.400 C 129.949 308.400,129.600 308.220,129.600 308.000 C 129.600 307.780,129.161 307.600,128.624 307.600 C 128.087 307.600,127.536 307.420,127.400 307.200 C 127.264 306.980,126.713 306.800,126.176 306.800 C 125.639 306.800,125.200 306.620,125.200 306.400 C 125.200 306.180,124.827 306.000,124.371 306.000 C 123.916 306.000,123.273 305.730,122.943 305.400 C 122.613 305.070,121.996 304.800,121.571 304.800 C 121.147 304.800,120.800 304.620,120.800 304.400 C 120.800 304.180,120.350 304.000,119.800 304.000 C 119.250 304.000,118.800 303.820,118.800 303.600 C 118.800 303.380,118.260 303.200,117.600 303.200 C 116.940 303.200,116.400 303.020,116.400 302.800 C 116.400 302.580,116.062 302.400,115.649 302.400 C 115.236 302.400,114.674 302.130,114.400 301.800 C 114.126 301.470,113.575 301.200,113.175 301.200 C 112.775 301.200,112.336 301.020,112.200 300.800 C 112.064 300.580,111.513 300.400,110.976 300.400 C 110.439 300.400,110.000 300.220,110.000 300.000 C 110.000 299.780,109.651 299.600,109.224 299.600 C 108.797 299.600,108.336 299.420,108.200 299.200 C 108.064 298.980,107.423 298.800,106.776 298.800 C 106.129 298.800,105.600 298.620,105.600 298.400 C 105.600 298.180,105.317 298.000,104.971 298.000 C 104.626 298.000,104.073 297.730,103.743 297.400 C 103.413 297.070,102.806 296.800,102.395 296.800 C 101.984 296.800,101.536 296.620,101.400 296.400 C 101.264 296.180,100.803 296.000,100.376 296.000 C 99.949 296.000,99.600 295.820,99.600 295.600 C 99.600 295.380,99.150 295.200,98.600 295.200 C 98.050 295.200,97.600 295.020,97.600 294.800 C 97.600 294.580,97.060 294.400,96.400 294.400 C 95.740 294.400,95.200 294.220,95.200 294.000 C 95.200 293.780,94.769 293.600,94.243 293.600 C 93.716 293.600,93.182 293.330,93.055 293.000 C 92.929 292.670,92.369 292.400,91.813 292.400 C 91.256 292.400,90.800 292.220,90.800 292.000 C 90.800 291.780,90.350 291.600,89.800 291.600 C 89.250 291.600,88.800 291.420,88.800 291.200 C 88.800 290.980,88.440 290.800,88.000 290.800 C 87.560 290.800,87.200 290.620,87.200 290.400 C 87.200 290.180,87.007 290.000,86.771 290.000 C 86.536 290.000,86.108 289.775,85.820 289.500 C 85.533 289.225,84.916 288.735,84.449 288.412 C 83.982 288.088,83.600 287.518,83.600 287.145 C 83.600 286.772,83.434 286.407,83.231 286.333 C 83.027 286.260,82.820 285.120,82.769 283.800 C 82.719 282.480,82.526 281.202,82.340 280.961 C 82.155 280.719,81.957 256.329,81.900 226.761 C 81.843 197.192,81.745 174.080,81.680 175.400 M264.542 248.600 C 264.541 250.580,264.608 251.440,264.692 250.512 C 264.776 249.584,264.777 247.964,264.695 246.912 C 264.612 245.860,264.543 246.620,264.542 248.600 M135.769 254.400 C 135.769 258.910,135.827 260.755,135.898 258.500 C 135.970 256.245,135.970 252.555,135.898 250.300 C 135.827 248.045,135.769 249.890,135.769 254.400 M150.074 306.700 C 150.161 307.161,150.649 307.443,151.503 307.525 C 152.216 307.594,152.800 307.819,152.800 308.025 C 152.800 308.231,153.329 308.400,153.976 308.400 C 154.623 308.400,155.264 308.580,155.400 308.800 C 155.536 309.020,156.177 309.200,156.824 309.200 C 157.471 309.200,158.000 309.380,158.000 309.600 C 158.000 309.820,158.428 310.000,158.951 310.000 C 159.474 310.000,160.126 310.270,160.400 310.600 C 160.674 310.930,161.315 311.200,161.825 311.200 C 162.335 311.200,162.864 311.380,163.000 311.600 C 163.136 311.820,163.676 312.000,164.200 312.000 C 164.724 312.000,165.264 312.180,165.400 312.400 C 165.536 312.620,166.177 312.800,166.824 312.800 C 167.471 312.800,168.000 312.980,168.000 313.200 C 168.000 313.420,168.463 313.600,169.029 313.600 C 169.594 313.600,170.327 313.870,170.657 314.200 C 170.987 314.530,171.694 314.800,172.229 314.800 C 172.763 314.800,173.200 314.980,173.200 315.200 C 173.200 315.420,173.729 315.600,174.376 315.600 C 175.023 315.600,175.664 315.780,175.800 316.000 C 175.936 316.220,176.577 316.400,177.224 316.400 C 177.871 316.400,178.400 316.580,178.400 316.800 C 178.400 317.020,179.030 317.200,179.800 317.200 C 180.570 317.200,181.200 317.380,181.200 317.600 C 181.200 317.820,181.721 318.000,182.357 318.000 C 183.017 318.000,183.613 318.258,183.745 318.600 C 183.879 318.951,184.479 319.200,185.187 319.200 C 185.854 319.200,186.400 319.380,186.400 319.600 C 186.400 319.820,186.940 320.000,187.600 320.000 C 188.260 320.000,188.800 320.180,188.800 320.400 C 188.800 320.620,189.239 320.800,189.776 320.800 C 190.313 320.800,190.864 320.980,191.000 321.200 C 191.136 321.420,191.777 321.600,192.424 321.600 C 193.071 321.600,193.600 321.780,193.600 322.000 C 193.600 322.220,194.125 322.400,194.767 322.400 C 195.408 322.400,196.005 322.614,196.092 322.876 C 196.358 323.675,201.330 323.812,202.101 323.042 C 202.454 322.689,203.206 322.400,203.771 322.400 C 204.337 322.400,204.800 322.220,204.800 322.000 C 204.800 321.780,205.430 321.600,206.200 321.600 C 206.970 321.600,207.600 321.420,207.600 321.200 C 207.600 320.980,208.140 320.800,208.800 320.800 C 209.460 320.800,210.000 320.620,210.000 320.400 C 210.000 320.180,210.630 320.000,211.400 320.000 C 212.170 320.000,212.800 319.820,212.800 319.600 C 212.800 319.380,213.346 319.200,214.013 319.200 C 214.721 319.200,215.321 318.951,215.455 318.600 C 215.585 318.262,216.181 318.000,216.819 318.000 C 217.443 318.000,218.064 317.820,218.200 317.600 C 218.336 317.380,218.966 317.200,219.600 317.200 C 220.234 317.200,220.864 317.020,221.000 316.800 C 221.136 316.580,221.766 316.400,222.400 316.400 C 223.034 316.400,223.664 316.220,223.800 316.000 C 223.936 315.780,224.476 315.600,225.000 315.600 C 225.524 315.600,226.064 315.420,226.200 315.200 C 226.336 314.980,226.852 314.800,227.347 314.800 C 227.842 314.800,228.596 314.536,229.024 314.213 C 229.451 313.890,230.194 313.620,230.676 313.613 C 231.158 313.606,231.664 313.420,231.800 313.200 C 231.936 312.980,232.566 312.800,233.200 312.800 C 233.834 312.800,234.464 312.620,234.600 312.400 C 234.736 312.180,235.366 312.000,236.000 312.000 C 236.634 312.000,237.264 311.820,237.400 311.600 C 237.536 311.380,238.065 311.200,238.575 311.200 C 239.085 311.200,239.726 310.930,240.000 310.600 C 240.274 310.270,241.016 310.000,241.649 310.000 C 242.282 310.000,242.800 309.820,242.800 309.600 C 242.800 309.380,243.329 309.200,243.976 309.200 C 244.623 309.200,245.264 309.020,245.400 308.800 C 245.536 308.580,246.177 308.400,246.824 308.400 C 247.471 308.400,248.000 308.220,248.000 308.000 C 248.000 307.780,248.405 307.597,248.900 307.594 C 250.090 307.586,250.971 307.000,250.628 306.445 C 250.095 305.583,149.911 305.838,150.074 306.700 " stroke="none" fill="#aa2ffc" fill-rule="evenodd"></path><path id="path1" d="M169.262 196.000 C 169.101 198.387,168.514 201.641,168.450 200.500 L 168.400 199.600 159.433 199.600 C 152.634 199.600,150.418 199.479,150.265 199.100 C 150.154 198.825,150.049 199.376,150.032 200.324 C 150.013 201.364,149.841 201.949,149.600 201.800 C 148.927 201.384,149.077 212.335,149.754 213.012 C 150.395 213.652,169.407 213.858,169.013 213.220 C 168.893 213.027,168.980 212.807,169.205 212.732 C 169.474 212.642,169.576 209.428,169.500 203.397 C 169.436 198.339,169.329 195.010,169.262 196.000 M212.632 200.200 C 212.457 201.080,212.249 204.455,212.170 207.700 L 212.026 213.600 221.613 213.600 C 227.738 213.600,231.200 213.456,231.200 213.200 C 231.200 212.980,231.497 212.800,231.860 212.800 C 232.454 212.800,232.497 212.178,232.294 206.500 C 232.039 199.397,231.879 198.622,230.786 199.207 C 230.375 199.428,226.443 199.600,221.826 199.600 C 214.276 199.600,213.596 199.658,213.553 200.300 C 213.527 200.685,213.381 200.460,213.228 199.800 L 212.951 198.600 212.632 200.200 M245.010 199.216 C 245.140 199.427,245.552 199.603,245.924 199.606 C 246.490 199.611,246.505 199.672,246.019 199.980 C 245.700 200.182,245.295 200.258,245.119 200.150 C 244.384 199.696,244.872 201.769,245.661 202.453 C 246.135 202.864,246.315 203.200,246.061 203.200 C 245.808 203.200,245.600 203.380,245.600 203.600 C 245.600 203.820,245.849 204.000,246.154 204.000 C 246.459 204.000,247.013 204.641,247.385 205.424 C 247.756 206.207,248.317 206.947,248.630 207.067 C 248.944 207.187,249.200 207.519,249.200 207.804 C 249.200 208.089,249.718 208.502,250.351 208.723 C 250.985 208.944,251.883 209.450,252.348 209.848 C 253.409 210.757,256.304 211.948,257.524 211.978 C 258.032 211.990,258.352 212.154,258.236 212.342 C 258.120 212.530,259.408 212.720,261.099 212.765 C 262.791 212.810,264.360 212.998,264.587 213.182 C 265.429 213.867,285.815 213.072,285.382 212.371 C 285.256 212.167,285.548 212.000,286.030 212.000 C 287.414 212.000,290.168 211.092,290.520 210.520 C 290.696 210.234,291.125 210.000,291.473 210.000 C 291.821 210.000,292.397 209.666,292.753 209.257 C 293.109 208.849,293.808 208.386,294.306 208.228 C 294.804 208.071,295.118 207.791,295.004 207.606 C 294.889 207.421,295.292 206.881,295.898 206.405 C 296.504 205.930,296.730 205.673,296.400 205.835 C 296.070 205.997,296.205 205.683,296.700 205.139 C 297.195 204.594,297.600 203.948,297.600 203.704 C 297.600 203.459,297.915 203.176,298.300 203.076 C 298.967 202.902,298.967 202.891,298.300 202.846 C 297.915 202.821,297.600 202.626,297.600 202.413 C 297.600 202.199,297.870 202.129,298.200 202.255 C 298.639 202.424,298.800 202.205,298.800 201.443 C 298.800 200.869,298.598 200.400,298.351 200.400 C 298.037 200.400,298.027 200.250,298.317 199.900 C 298.649 199.501,293.524 199.421,272.871 199.506 C 256.823 199.572,246.585 199.464,245.891 199.222 C 245.185 198.976,244.860 198.974,245.010 199.216 M118.700 199.504 C 100.732 199.606,100.400 199.623,100.400 200.404 C 100.400 200.842,100.220 201.200,100.000 201.200 C 99.257 201.200,99.484 213.070,100.233 213.357 C 100.581 213.491,109.327 213.600,119.669 213.600 L 138.472 213.600 138.336 207.385 C 138.247 203.323,138.043 201.071,137.746 200.885 C 137.497 200.728,137.227 200.330,137.146 200.000 C 137.018 199.476,134.693 199.413,118.700 199.504 M112.000 228.384 C 112.000 228.613,111.517 228.800,110.926 228.800 C 109.611 228.800,106.414 230.299,106.125 231.051 C 106.009 231.353,105.574 231.600,105.157 231.600 C 104.741 231.600,104.400 231.780,104.400 232.000 C 104.400 232.220,104.211 232.400,103.981 232.400 C 103.322 232.400,99.600 236.292,99.600 236.981 C 99.600 237.321,99.420 237.600,99.200 237.600 C 98.980 237.600,98.800 237.870,98.800 238.200 C 98.800 238.530,98.659 238.800,98.487 238.800 C 98.315 238.800,98.135 239.275,98.087 239.856 C 98.039 240.437,97.749 241.112,97.442 241.356 C 96.414 242.175,95.427 252.994,96.330 253.560 C 96.635 253.752,96.916 254.924,97.185 257.124 C 97.193 257.192,97.380 257.136,97.600 257.000 C 97.827 256.860,98.000 257.196,98.000 257.776 C 98.000 258.339,98.180 258.800,98.400 258.800 C 98.620 258.800,98.800 259.049,98.800 259.354 C 98.800 260.359,99.831 261.922,101.729 263.793 C 102.758 264.807,103.600 265.511,103.600 265.357 C 103.600 265.204,103.915 265.421,104.300 265.842 C 104.685 266.262,105.540 266.850,106.200 267.149 C 106.860 267.449,107.713 267.852,108.095 268.047 C 108.477 268.241,109.143 268.400,109.575 268.400 C 110.007 268.400,110.537 268.715,110.752 269.100 C 110.967 269.485,111.246 269.755,111.372 269.700 C 112.150 269.359,116.013 269.655,115.777 270.038 C 115.510 270.470,116.827 270.421,122.200 269.800 C 125.223 269.450,126.057 269.215,125.793 268.788 C 125.655 268.565,126.158 268.400,126.976 268.400 C 127.759 268.400,128.400 268.220,128.400 268.000 C 128.400 267.780,128.850 267.600,129.400 267.600 C 129.950 267.600,130.400 267.420,130.400 267.200 C 130.400 266.980,130.760 266.800,131.200 266.800 C 131.640 266.800,132.000 266.620,132.000 266.400 C 132.000 266.180,132.204 266.000,132.453 266.000 C 132.702 266.000,133.242 265.612,133.653 265.139 C 134.064 264.665,134.400 264.408,134.400 264.567 C 134.400 264.727,134.680 264.577,135.023 264.234 C 135.571 263.686,135.850 254.726,135.613 245.300 C 135.603 244.914,133.407 244.800,126.000 244.800 L 116.400 244.800 116.400 249.600 L 116.400 254.400 120.400 254.400 L 124.400 254.400 124.400 256.102 C 124.400 257.594,124.257 257.868,123.247 258.315 C 121.767 258.970,115.318 259.078,114.698 258.458 C 114.446 258.206,113.979 258.000,113.660 258.000 C 113.342 258.000,112.488 257.390,111.763 256.644 C 111.039 255.898,110.346 255.388,110.223 255.510 C 110.100 255.633,110.000 255.343,110.000 254.867 C 110.000 254.390,109.820 254.000,109.600 254.000 C 109.380 254.000,109.200 253.550,109.200 253.000 C 109.200 252.450,109.020 252.000,108.800 252.000 C 108.572 252.000,108.400 250.808,108.400 249.224 C 108.400 247.697,108.580 246.336,108.800 246.200 C 109.020 246.064,109.200 245.513,109.200 244.976 C 109.200 244.439,109.380 244.000,109.600 244.000 C 109.820 244.000,110.000 243.680,110.000 243.289 C 110.000 242.505,111.134 241.395,112.631 240.713 C 113.164 240.470,113.600 240.030,113.600 239.736 C 113.600 239.407,114.064 239.200,114.800 239.200 C 115.460 239.200,116.000 239.020,116.000 238.800 C 116.000 238.580,116.889 238.400,117.976 238.400 C 119.063 238.400,120.064 238.580,120.200 238.800 C 120.336 239.020,120.957 239.200,121.581 239.200 C 122.219 239.200,122.815 239.462,122.945 239.800 C 123.071 240.130,123.451 240.400,123.787 240.400 C 124.124 240.400,124.400 240.551,124.400 240.736 C 124.400 241.224,126.272 242.000,127.447 242.000 C 128.552 242.000,129.600 241.174,129.600 240.304 C 129.600 239.762,130.355 238.841,131.851 237.557 C 134.355 235.409,134.692 232.400,132.429 232.400 C 132.193 232.400,132.000 232.220,132.000 232.000 C 132.000 231.780,131.724 231.600,131.387 231.600 C 131.051 231.600,130.671 231.330,130.545 231.000 C 130.418 230.670,129.974 230.400,129.557 230.400 C 129.141 230.400,128.800 230.220,128.800 230.000 C 128.800 229.780,128.339 229.600,127.776 229.600 C 127.196 229.600,126.860 229.427,127.000 229.200 C 127.150 228.958,126.596 228.800,125.600 228.800 C 124.694 228.800,124.054 228.637,124.177 228.437 C 124.308 228.226,121.800 228.051,118.201 228.021 C 114.141 227.986,112.000 228.112,112.000 228.384 M154.568 228.900 C 154.446 229.285,154.178 229.600,153.973 229.600 C 153.768 229.600,153.600 230.151,153.600 230.824 C 153.600 231.537,153.433 231.944,153.200 231.800 C 152.980 231.664,152.800 231.836,152.800 232.183 C 152.800 233.435,151.794 236.000,151.303 236.000 C 151.026 236.000,150.800 236.439,150.800 236.976 C 150.800 237.513,150.620 238.064,150.400 238.200 C 150.180 238.336,150.000 238.887,150.000 239.424 C 150.000 239.961,149.820 240.400,149.600 240.400 C 149.380 240.400,149.200 240.850,149.200 241.400 C 149.200 241.950,149.020 242.400,148.800 242.400 C 148.580 242.400,148.400 242.749,148.400 243.176 C 148.400 243.603,148.220 244.064,148.000 244.200 C 147.780 244.336,147.600 244.977,147.600 245.624 C 147.600 246.271,147.423 246.800,147.208 246.800 C 146.992 246.800,146.703 247.249,146.565 247.797 C 146.427 248.346,146.192 248.719,146.042 248.626 C 145.892 248.533,145.730 248.932,145.683 249.511 C 145.635 250.091,145.416 250.744,145.198 250.962 C 144.979 251.181,144.800 251.684,144.800 252.080 C 144.800 252.476,144.620 252.800,144.400 252.800 C 144.180 252.800,144.000 253.340,144.000 254.000 C 144.000 254.660,143.823 255.200,143.608 255.200 C 143.392 255.200,143.102 255.650,142.964 256.200 C 142.826 256.750,142.553 257.200,142.357 257.200 C 142.160 257.200,142.000 257.562,142.000 258.005 C 142.000 258.723,141.340 260.260,140.800 260.800 C 140.690 260.910,140.538 261.450,140.462 262.000 C 140.386 262.550,140.161 263.060,139.962 263.133 C 139.763 263.207,139.600 263.682,139.600 264.191 C 139.600 264.699,139.330 265.218,139.000 265.345 C 138.654 265.477,138.400 266.075,138.400 266.754 C 138.400 267.403,138.175 268.009,137.900 268.102 C 137.510 268.233,137.521 268.416,137.949 268.935 C 139.704 271.062,150.800 269.560,150.800 267.195 C 150.800 266.758,150.980 266.400,151.200 266.400 C 151.420 266.400,151.600 265.944,151.600 265.387 C 151.600 264.831,151.870 264.271,152.200 264.145 C 152.530 264.018,152.800 263.610,152.800 263.237 C 152.800 261.776,153.588 261.600,160.109 261.600 C 167.067 261.600,166.902 261.547,168.144 264.206 C 168.554 265.083,169.049 266.113,169.244 266.495 C 169.440 266.877,169.600 267.652,169.600 268.218 C 169.600 268.784,169.768 269.144,169.972 269.017 C 170.177 268.891,170.462 268.977,170.606 269.210 C 170.891 269.671,182.361 269.721,182.451 269.261 C 182.679 268.095,182.635 267.145,182.346 266.967 C 182.156 266.849,182.000 266.403,182.000 265.976 C 182.000 265.549,181.730 265.200,181.400 265.200 C 181.027 265.200,180.800 264.822,180.800 264.200 C 180.800 263.650,180.620 263.200,180.400 263.200 C 180.180 263.200,180.000 262.660,180.000 262.000 C 180.000 261.340,179.820 260.800,179.600 260.800 C 179.380 260.800,179.200 260.440,179.200 260.000 C 179.200 259.560,179.020 259.200,178.800 259.200 C 178.580 259.200,178.400 258.810,178.400 258.334 C 178.400 257.282,177.172 254.400,176.723 254.400 C 176.545 254.400,176.400 253.961,176.400 253.424 C 176.400 252.887,176.220 252.336,176.000 252.200 C 175.780 252.064,175.600 251.603,175.600 251.176 C 175.600 250.749,175.420 250.400,175.200 250.400 C 174.980 250.400,174.800 250.051,174.800 249.624 C 174.800 249.197,174.620 248.736,174.400 248.600 C 174.180 248.464,174.000 247.953,174.000 247.465 C 174.000 246.977,173.736 246.202,173.414 245.742 C 173.092 245.281,172.938 244.796,173.071 244.662 C 173.205 244.528,173.019 244.305,172.657 244.167 C 172.296 244.028,172.000 243.607,172.000 243.232 C 172.000 242.857,171.640 241.805,171.200 240.894 C 170.760 239.984,170.400 238.870,170.400 238.419 C 170.400 237.969,170.220 237.600,170.000 237.600 C 169.780 237.600,169.600 237.262,169.600 236.849 C 169.600 236.436,169.330 235.874,169.000 235.600 C 168.670 235.326,168.400 234.663,168.400 234.127 C 168.400 233.580,168.225 233.261,168.000 233.400 C 167.773 233.540,167.600 233.204,167.600 232.624 C 167.600 232.061,167.420 231.600,167.200 231.600 C 166.980 231.600,166.800 231.082,166.800 230.449 C 166.800 228.543,166.112 228.315,160.200 228.255 C 155.371 228.206,154.767 228.275,154.568 228.900 M281.200 228.400 C 281.200 228.620,280.570 228.800,279.800 228.800 C 279.030 228.800,278.400 228.980,278.400 229.200 C 278.400 229.420,278.040 229.600,277.600 229.600 C 277.160 229.600,276.800 229.780,276.800 230.000 C 276.800 230.220,276.549 230.400,276.243 230.400 C 275.936 230.400,275.582 230.670,275.455 231.000 C 275.329 231.330,275.027 231.600,274.784 231.600 C 274.228 231.600,273.441 232.436,273.268 233.210 C 273.195 233.534,272.912 233.926,272.638 234.080 C 272.365 234.235,271.917 235.135,271.643 236.080 C 271.370 237.026,270.978 238.353,270.773 239.028 C 270.269 240.687,270.288 243.716,270.800 243.400 C 271.042 243.251,271.200 243.796,271.200 244.776 C 271.200 245.669,271.380 246.400,271.600 246.400 C 271.820 246.400,272.000 246.676,272.000 247.013 C 272.000 247.349,272.270 247.729,272.600 247.855 C 272.930 247.982,273.200 248.255,273.200 248.462 C 273.200 249.064,275.333 250.774,276.100 250.787 C 276.485 250.794,276.800 250.980,276.800 251.200 C 276.800 251.420,277.124 251.600,277.520 251.600 C 277.916 251.600,278.454 251.814,278.715 252.075 C 278.976 252.336,279.597 252.611,280.095 252.686 C 280.593 252.761,281.060 252.998,281.133 253.212 C 281.207 253.425,282.062 253.600,283.033 253.600 C 284.005 253.600,284.800 253.780,284.800 254.000 C 284.800 254.220,285.621 254.400,286.624 254.400 C 287.737 254.400,288.351 254.556,288.200 254.800 C 288.064 255.020,288.288 255.200,288.697 255.200 C 290.398 255.200,291.594 256.148,291.597 257.500 C 291.599 258.534,291.437 258.800,290.800 258.800 C 290.360 258.800,290.000 258.949,290.000 259.132 C 290.000 259.314,289.010 259.503,287.800 259.552 C 286.590 259.601,285.600 259.489,285.600 259.302 C 285.600 259.116,284.930 258.918,284.112 258.863 C 283.294 258.808,282.529 258.619,282.412 258.443 C 282.295 258.267,281.718 258.005,281.128 257.861 C 280.538 257.717,279.780 257.323,279.442 256.985 C 279.105 256.648,278.732 256.378,278.614 256.386 C 277.578 256.455,277.215 256.332,277.300 255.942 C 277.492 255.065,274.774 255.077,273.955 255.956 C 273.540 256.402,273.200 256.873,273.200 257.002 C 273.200 257.132,272.750 257.655,272.200 258.165 C 271.650 258.675,271.200 259.208,271.200 259.350 C 271.200 259.491,270.665 260.167,270.011 260.851 C 268.997 261.913,268.889 262.220,269.274 262.947 C 269.794 263.930,271.154 265.200,271.685 265.200 C 271.884 265.200,271.936 265.380,271.800 265.600 C 271.664 265.820,271.923 266.000,272.376 266.000 C 272.829 266.000,273.200 266.180,273.200 266.400 C 273.200 266.620,273.560 266.800,274.000 266.800 C 274.440 266.800,274.800 266.960,274.800 267.155 C 274.800 267.350,275.340 267.620,276.000 267.755 C 276.660 267.890,277.734 268.110,278.387 268.244 C 279.040 268.377,279.782 268.737,280.036 269.044 C 280.736 269.887,293.694 269.849,294.543 269.000 C 294.873 268.670,295.516 268.400,295.971 268.400 C 296.427 268.400,296.800 268.220,296.800 268.000 C 296.800 267.780,297.124 267.600,297.519 267.600 C 297.915 267.600,298.805 267.015,299.496 266.300 C 302.296 263.406,302.823 262.800,302.538 262.800 C 302.374 262.800,302.456 262.584,302.720 262.320 C 302.984 262.056,303.200 261.516,303.200 261.120 C 303.200 260.724,303.357 260.400,303.549 260.400 C 303.741 260.400,303.930 258.690,303.969 256.600 C 304.008 254.488,303.876 252.800,303.670 252.800 C 303.466 252.800,303.194 252.270,303.064 251.622 C 302.820 250.402,300.413 247.600,299.610 247.600 C 299.358 247.600,299.252 247.439,299.374 247.243 C 299.495 247.046,299.146 246.773,298.597 246.635 C 298.049 246.497,297.600 246.208,297.600 245.992 C 297.600 245.777,297.150 245.600,296.600 245.600 C 296.050 245.600,295.600 245.420,295.600 245.200 C 295.600 244.980,295.071 244.800,294.424 244.800 C 293.777 244.800,293.136 244.620,293.000 244.400 C 292.864 244.180,291.962 244.000,290.996 244.000 C 289.935 244.000,289.113 243.784,288.920 243.454 C 288.744 243.154,287.970 242.787,287.200 242.639 C 284.057 242.036,283.618 241.895,283.828 241.555 C 283.948 241.360,283.767 241.200,283.424 241.200 C 282.636 241.200,282.601 239.741,283.371 238.971 C 284.042 238.301,289.802 238.156,290.200 238.800 C 290.336 239.020,290.887 239.200,291.424 239.200 C 291.961 239.200,292.400 239.377,292.400 239.592 C 292.400 239.808,292.850 240.098,293.400 240.236 C 293.950 240.374,294.400 240.647,294.400 240.843 C 294.400 241.040,294.771 241.200,295.224 241.200 C 295.677 241.200,295.936 241.380,295.800 241.600 C 295.664 241.820,295.921 242.000,296.372 242.000 C 297.348 242.000,298.800 240.847,298.800 240.072 C 298.800 239.769,299.349 239.008,300.020 238.382 C 300.691 237.755,301.231 237.143,301.220 237.021 C 301.130 236.018,301.271 235.615,301.682 235.700 C 301.947 235.755,302.172 235.568,302.182 235.285 C 302.192 235.002,302.442 234.622,302.737 234.439 C 303.385 234.038,302.555 232.400,301.704 232.400 C 301.427 232.400,301.200 232.220,301.200 232.000 C 301.200 231.780,300.859 231.600,300.443 231.600 C 300.026 231.600,299.595 231.365,299.485 231.078 C 299.375 230.791,298.546 230.312,297.643 230.014 C 296.739 229.716,296.000 229.356,296.000 229.214 C 296.000 229.072,295.235 228.912,294.300 228.857 C 293.365 228.802,292.429 228.587,292.220 228.379 C 291.701 227.861,281.200 227.882,281.200 228.400 M185.600 249.176 L 185.600 269.552 191.200 269.552 L 196.800 269.552 196.800 259.188 C 196.800 250.141,196.876 248.854,197.400 249.055 C 197.730 249.182,198.000 249.536,198.000 249.843 C 198.000 250.149,198.180 250.400,198.400 250.400 C 198.620 250.400,198.800 250.670,198.800 251.000 C 198.800 251.330,198.980 251.600,199.200 251.600 C 199.420 251.600,199.600 251.971,199.600 252.424 C 199.600 252.877,199.780 253.136,200.000 253.000 C 200.220 252.864,200.400 253.104,200.400 253.534 C 200.400 253.963,200.670 254.418,201.000 254.545 C 201.330 254.671,201.600 255.051,201.600 255.387 C 201.600 255.724,201.741 256.000,201.914 256.000 C 202.417 256.000,203.607 258.256,203.289 258.608 C 203.130 258.784,203.225 258.799,203.500 258.641 C 203.804 258.466,204.000 258.584,204.000 258.943 C 204.000 259.268,204.190 259.597,204.422 259.674 C 204.654 259.751,204.894 260.156,204.955 260.572 C 205.186 262.149,208.400 261.371,208.400 259.738 C 208.400 259.442,208.546 259.200,208.725 259.200 C 208.904 259.200,209.298 258.570,209.600 257.800 C 209.902 257.030,210.566 256.087,211.075 255.705 C 211.584 255.323,212.004 254.828,212.009 254.605 C 212.014 254.382,212.370 253.750,212.800 253.200 C 213.230 252.650,213.586 251.885,213.591 251.500 C 213.596 251.115,213.870 250.800,214.200 250.800 C 214.530 250.800,214.800 250.530,214.800 250.200 C 214.800 249.870,214.980 249.600,215.200 249.600 C 215.456 249.600,215.600 253.131,215.600 259.392 L 215.600 269.185 216.500 269.408 C 216.995 269.530,219.740 269.579,222.600 269.515 L 227.800 269.400 227.904 249.100 L 228.007 228.800 221.404 228.800 L 214.800 228.800 214.800 229.800 C 214.800 230.350,214.665 230.755,214.500 230.700 C 214.335 230.645,214.142 230.780,214.072 231.000 C 214.001 231.220,213.686 231.544,213.372 231.720 C 213.057 231.896,212.800 232.301,212.800 232.620 C 212.800 232.939,212.620 233.200,212.400 233.200 C 212.180 233.200,212.000 233.526,212.000 233.925 C 212.000 234.323,211.640 235.036,211.200 235.508 C 210.760 235.980,210.400 236.552,210.400 236.779 C 210.400 237.005,210.129 237.508,209.797 237.895 C 209.465 238.283,209.160 238.780,209.119 239.000 C 209.078 239.220,208.720 239.749,208.322 240.175 C 207.925 240.602,207.600 241.187,207.600 241.475 C 207.600 241.764,207.465 242.014,207.300 242.031 C 207.135 242.047,206.685 242.122,206.300 242.195 C 205.831 242.285,205.600 242.077,205.600 241.565 C 205.600 241.144,205.420 240.800,205.200 240.800 C 204.980 240.800,204.800 240.530,204.800 240.200 C 204.800 239.870,204.620 239.600,204.400 239.600 C 204.180 239.600,204.000 239.274,204.000 238.875 C 204.000 238.477,203.595 237.716,203.100 237.185 C 202.605 236.653,202.245 236.170,202.300 236.109 C 202.620 235.760,202.312 235.200,201.800 235.200 C 201.470 235.200,201.200 234.874,201.200 234.475 C 201.200 234.077,200.862 233.388,200.449 232.945 C 200.036 232.501,199.581 231.769,199.437 231.317 C 198.690 228.962,198.188 228.800,191.653 228.800 L 185.600 228.800 185.600 249.176 M234.090 249.100 L 234.200 269.400 250.512 269.512 L 266.823 269.624 266.712 264.312 L 266.600 259.000 256.100 258.893 L 245.600 258.787 245.600 256.193 L 245.600 253.600 254.800 253.600 C 261.008 253.600,264.000 253.462,264.000 253.176 C 264.000 252.943,264.135 252.836,264.300 252.939 C 264.465 253.041,264.571 251.116,264.534 248.662 L 264.469 244.200 255.034 244.093 L 245.600 243.986 245.600 241.593 L 245.600 239.200 255.567 239.200 C 268.035 239.200,266.800 239.799,266.800 233.757 L 266.800 228.800 250.390 228.800 L 233.980 228.800 234.090 249.100 M160.800 244.987 C 160.800 245.456,160.969 246.011,161.175 246.220 C 161.382 246.429,161.615 247.088,161.694 247.685 C 161.772 248.282,161.963 248.897,162.118 249.052 C 162.273 249.207,162.400 249.663,162.400 250.067 C 162.400 250.470,162.580 250.800,162.800 250.800 C 163.020 250.800,163.200 251.070,163.200 251.400 C 163.200 251.880,162.600 252.000,160.200 252.000 C 157.800 252.000,157.200 251.880,157.200 251.400 C 157.200 251.070,157.380 250.800,157.600 250.800 C 157.820 250.800,158.000 250.260,158.000 249.600 C 158.000 248.940,158.180 248.400,158.400 248.400 C 158.620 248.400,158.800 247.950,158.800 247.400 C 158.800 246.850,158.980 246.400,159.200 246.400 C 159.420 246.400,159.600 245.890,159.600 245.267 C 159.600 244.526,159.808 244.133,160.200 244.133 C 160.546 244.133,160.800 244.495,160.800 244.987 " stroke="none" fill="#e2acfc" fill-rule="evenodd"></path><path id="path2" d="M90.200 49.600 C 90.064 49.820,88.973 50.000,87.776 50.000 C 86.579 50.000,85.600 50.180,85.600 50.400 C 85.600 50.620,84.970 50.800,84.200 50.800 C 83.328 50.800,82.800 50.993,82.800 51.313 C 82.800 51.595,81.990 52.065,81.000 52.357 C 80.010 52.649,79.200 53.048,79.200 53.244 C 79.200 53.440,78.916 53.600,78.569 53.600 C 77.782 53.600,72.000 59.425,72.000 60.218 C 72.000 60.538,71.820 60.800,71.600 60.800 C 71.380 60.800,71.200 61.160,71.200 61.600 C 71.200 62.040,71.020 62.400,70.800 62.400 C 70.580 62.400,70.400 62.850,70.400 63.400 C 70.400 63.950,70.220 64.400,70.000 64.400 C 69.780 64.400,69.600 65.019,69.600 65.776 C 69.600 66.533,69.420 67.264,69.200 67.400 C 68.980 67.536,68.800 68.819,68.800 70.252 C 68.800 72.034,68.610 73.047,68.200 73.457 C 67.669 73.988,67.611 85.311,67.698 171.329 C 67.752 224.828,67.843 248.324,67.900 223.542 C 67.982 187.993,68.109 178.454,68.502 178.342 C 70.687 177.719,79.933 178.494,80.187 179.321 C 80.437 180.139,80.503 180.102,81.128 178.800 C 81.745 177.515,81.810 173.182,81.917 126.203 C 81.990 94.298,82.179 74.861,82.417 74.623 C 82.628 74.412,82.800 73.376,82.800 72.320 C 82.800 71.264,82.980 70.400,83.200 70.400 C 83.420 70.400,83.600 69.950,83.600 69.400 C 83.600 68.850,83.780 68.400,84.000 68.400 C 84.220 68.400,84.400 68.117,84.400 67.771 C 84.400 67.070,85.329 66.000,85.939 66.000 C 86.523 66.000,88.795 64.649,88.797 64.300 C 88.799 64.135,89.610 64.000,90.600 64.000 C 91.590 64.000,92.400 63.820,92.400 63.600 C 92.400 63.334,128.533 63.200,200.000 63.200 C 271.467 63.200,307.600 63.334,307.600 63.600 C 307.600 63.820,308.410 64.000,309.400 64.000 C 310.390 64.000,311.201 64.135,311.203 64.300 C 311.205 64.649,313.477 66.000,314.061 66.000 C 314.671 66.000,315.600 67.070,315.600 67.771 C 315.600 68.117,315.780 68.400,316.000 68.400 C 316.220 68.400,316.400 68.850,316.400 69.400 C 316.400 69.950,316.580 70.400,316.800 70.400 C 317.020 70.400,317.200 71.264,317.200 72.320 C 317.200 73.376,317.372 74.412,317.582 74.622 C 317.819 74.859,318.008 94.488,318.082 126.402 C 318.192 174.196,318.248 177.884,318.890 179.000 C 319.562 180.171,319.585 180.178,319.836 179.300 C 320.238 177.895,330.144 177.895,330.597 179.300 C 330.872 180.154,330.902 180.138,331.181 179.000 C 331.651 177.078,331.975 178.542,332.110 183.200 C 332.177 185.510,332.269 161.806,332.316 130.524 C 332.371 92.946,332.264 73.563,332.000 73.400 C 331.780 73.264,331.600 72.015,331.600 70.625 C 331.600 68.867,331.417 67.946,331.000 67.600 C 330.670 67.326,330.400 66.494,330.400 65.751 C 330.400 65.008,330.220 64.400,330.000 64.400 C 329.780 64.400,329.600 63.950,329.600 63.400 C 329.600 62.850,329.420 62.400,329.200 62.400 C 328.980 62.400,328.800 62.040,328.800 61.600 C 328.800 61.160,328.620 60.800,328.400 60.800 C 328.180 60.800,328.000 60.503,328.000 60.140 C 328.000 59.777,327.190 58.715,326.200 57.780 C 325.210 56.844,324.400 55.959,324.400 55.811 C 324.400 55.387,323.301 54.400,322.829 54.400 C 322.593 54.400,322.400 54.220,322.400 54.000 C 322.400 53.780,322.040 53.600,321.600 53.600 C 321.160 53.600,320.799 53.465,320.797 53.300 C 320.793 52.894,318.814 52.000,317.920 52.000 C 317.524 52.000,317.200 51.730,317.200 51.400 C 317.200 50.981,316.778 50.800,315.800 50.800 C 315.030 50.800,314.400 50.620,314.400 50.400 C 314.400 50.180,313.421 50.000,312.224 50.000 C 311.027 50.000,309.936 49.820,309.800 49.600 C 309.457 49.046,90.543 49.046,90.200 49.600 M99.867 92.667 C 99.720 92.813,99.603 93.128,99.606 93.367 C 99.610 93.627,99.738 93.602,99.927 93.304 C 100.169 92.923,104.612 92.783,119.021 92.700 L 137.800 92.592 118.967 92.496 C 108.608 92.443,100.013 92.520,99.867 92.667 M149.737 92.706 C 149.483 92.868,155.648 92.948,163.436 92.885 C 173.077 92.807,177.886 92.910,178.499 93.207 C 179.364 93.627,179.369 93.619,178.624 93.022 C 177.790 92.354,150.757 92.058,149.737 92.706 M212.184 92.827 C 212.039 93.061,212.028 93.361,212.160 93.493 C 212.292 93.625,212.400 93.523,212.400 93.267 C 212.400 92.592,230.845 92.605,231.520 93.280 C 231.841 93.601,232.000 93.615,232.000 93.323 C 232.000 92.322,212.793 91.841,212.184 92.827 M266.267 92.667 C 266.120 92.813,266.003 93.128,266.006 93.367 C 266.010 93.632,266.132 93.611,266.322 93.312 C 266.536 92.976,268.376 92.785,272.216 92.700 L 277.800 92.575 272.167 92.488 C 269.068 92.439,266.413 92.520,266.267 92.667 M124.100 192.698 C 126.465 192.769,130.335 192.769,132.700 192.698 C 135.065 192.628,133.130 192.570,128.400 192.570 C 123.670 192.570,121.735 192.628,124.100 192.698 M270.900 192.687 C 271.505 192.778,272.495 192.778,273.100 192.687 C 273.705 192.595,273.210 192.520,272.000 192.520 C 270.790 192.520,270.295 192.595,270.900 192.687 " stroke="none" fill="#206cfc" fill-rule="evenodd"></path><path id="path3" d="M99.797 93.700 C 99.677 94.195,99.629 104.648,99.689 116.929 L 99.800 139.258 108.900 139.215 C 116.048 139.182,118.007 139.283,118.032 139.686 C 118.050 139.969,118.322 139.660,118.635 139.000 C 119.186 137.840,119.202 137.888,119.103 140.415 C 119.021 142.507,119.120 143.038,119.600 143.065 C 122.572 143.237,137.726 143.207,137.904 143.030 C 138.030 142.903,134.053 142.800,129.067 142.800 L 120.000 142.800 120.000 128.200 L 120.000 113.600 128.720 113.600 C 134.969 113.600,137.576 113.464,137.920 113.120 C 138.427 112.613,138.643 94.699,138.157 93.433 C 137.941 92.868,135.875 92.800,118.965 92.800 L 100.015 92.800 99.797 93.700 M149.700 93.060 C 149.306 93.223,149.214 98.726,149.267 118.933 C 149.304 133.050,149.439 143.520,149.567 142.200 C 149.724 140.587,149.964 139.833,150.300 139.900 C 150.575 139.955,150.800 139.826,150.800 139.614 C 150.800 139.381,154.434 139.183,159.983 139.114 L 169.166 139.000 169.309 141.000 C 169.388 142.100,169.485 136.385,169.526 128.300 L 169.600 113.600 173.446 113.600 L 177.292 113.600 178.646 115.078 L 180.000 116.556 180.082 133.378 C 180.127 142.630,180.225 148.582,180.299 146.604 C 180.377 144.518,180.571 143.230,180.761 143.538 C 180.966 143.869,181.192 143.157,181.364 141.641 L 181.638 139.215 190.919 139.107 L 200.200 139.000 200.305 123.700 C 200.374 113.578,200.273 108.400,200.005 108.400 C 199.782 108.400,199.597 107.995,199.594 107.500 C 199.585 106.223,198.568 103.456,198.042 103.281 C 197.799 103.200,197.600 102.788,197.600 102.367 C 197.600 101.945,197.420 101.600,197.200 101.600 C 196.980 101.600,196.800 101.426,196.800 101.213 C 196.800 100.622,194.273 98.000,193.703 98.000 C 193.426 98.000,193.200 97.807,193.200 97.571 C 193.200 97.015,192.181 96.000,191.623 96.000 C 191.384 96.000,190.832 95.820,190.395 95.600 C 189.958 95.380,189.242 95.020,188.805 94.800 C 188.368 94.580,187.594 94.400,187.085 94.400 C 186.576 94.400,185.989 94.233,185.780 94.028 C 185.049 93.313,151.280 92.406,149.700 93.060 M212.243 93.433 C 212.109 93.781,212.019 104.896,212.041 118.133 C 212.070 134.922,212.203 141.746,212.481 140.700 L 212.879 139.200 221.620 139.200 C 229.522 139.200,230.399 139.267,230.768 139.900 C 230.992 140.285,231.201 140.420,231.233 140.200 C 231.264 139.980,231.519 140.790,231.800 142.000 C 232.233 143.867,232.317 140.391,232.355 119.044 C 232.397 95.525,232.354 93.854,231.700 93.357 C 230.568 92.498,212.575 92.568,212.243 93.433 M266.400 93.200 C 266.400 93.440,264.800 93.600,262.400 93.600 C 260.000 93.600,258.400 93.760,258.400 94.000 C 258.400 94.220,257.770 94.400,257.000 94.400 C 256.230 94.400,255.600 94.580,255.600 94.800 C 255.600 95.020,255.150 95.200,254.600 95.200 C 254.050 95.200,253.600 95.380,253.600 95.600 C 253.600 95.820,253.332 96.000,253.005 96.000 C 252.677 96.000,252.019 96.315,251.542 96.700 C 249.049 98.712,247.600 100.147,247.600 100.604 C 247.600 100.885,247.375 101.201,247.100 101.307 C 246.383 101.583,244.800 104.701,244.800 105.838 C 244.800 106.367,244.620 106.800,244.400 106.800 C 244.180 106.800,244.000 107.533,244.000 108.429 C 244.000 109.324,243.743 110.314,243.429 110.628 C 242.972 111.085,242.849 112.938,242.814 119.900 C 242.762 130.418,243.191 140.656,243.654 139.926 C 243.838 139.637,243.991 139.571,243.994 139.780 C 243.997 139.989,244.216 139.944,244.480 139.680 C 245.180 138.980,261.452 138.999,261.735 139.700 C 261.884 140.069,261.945 140.056,261.968 139.651 C 261.994 139.209,262.116 139.199,262.600 139.600 C 263.131 140.041,263.200 138.780,263.200 128.649 C 263.200 121.283,263.343 117.200,263.600 117.200 C 263.820 117.200,264.000 116.927,264.000 116.594 C 264.000 116.261,264.585 115.457,265.300 114.806 L 266.600 113.623 271.946 113.612 L 277.292 113.600 278.646 115.078 L 280.000 116.556 280.000 126.855 C 280.000 133.399,280.148 137.244,280.407 137.404 C 280.630 137.542,280.709 137.823,280.583 138.028 C 280.443 138.254,284.292 138.400,290.376 138.400 L 300.400 138.400 300.400 123.424 C 300.400 113.871,300.255 108.358,300.000 108.200 C 299.780 108.064,299.600 107.333,299.600 106.576 C 299.600 105.819,299.420 105.200,299.200 105.200 C 298.980 105.200,298.800 104.834,298.800 104.387 C 298.800 103.941,298.530 103.471,298.200 103.345 C 297.870 103.218,297.600 102.774,297.600 102.357 C 297.600 101.941,297.420 101.600,297.200 101.600 C 296.980 101.600,296.800 101.426,296.800 101.213 C 296.800 100.622,294.273 98.000,293.703 98.000 C 293.426 98.000,293.200 97.770,293.200 97.488 C 293.200 96.778,288.016 94.400,286.468 94.400 C 285.771 94.400,285.200 94.220,285.200 94.000 C 285.200 93.763,283.733 93.600,281.600 93.600 C 279.467 93.600,278.000 93.437,278.000 93.200 C 278.000 92.952,275.800 92.800,272.200 92.800 C 268.600 92.800,266.400 92.952,266.400 93.200 M170.900 155.491 C 171.725 155.578,173.075 155.578,173.900 155.491 C 174.725 155.405,174.050 155.334,172.400 155.334 C 170.750 155.334,170.075 155.405,170.900 155.491 M286.300 167.899 C 288.775 167.969,292.825 167.969,295.300 167.899 C 297.775 167.828,295.750 167.771,290.800 167.771 C 285.850 167.771,283.825 167.828,286.300 167.899 " stroke="none" fill="#74c4fc" fill-rule="evenodd"></path><path id="path4" d="M242.877 163.476 C 242.832 181.349,242.950 194.045,243.162 194.177 C 243.362 194.300,243.431 194.761,243.316 195.200 C 243.199 195.647,243.304 196.000,243.553 196.000 C 243.805 196.000,244.000 196.672,244.000 197.538 C 244.000 199.316,245.049 200.593,246.009 199.986 C 246.511 199.669,246.498 199.611,245.924 199.606 C 245.552 199.603,245.140 199.427,245.010 199.216 C 244.860 198.974,245.185 198.976,245.891 199.222 C 246.585 199.464,256.828 199.572,272.885 199.506 C 287.909 199.444,298.612 199.549,298.406 199.754 C 298.200 199.960,298.280 200.337,298.597 200.654 C 299.347 201.404,299.480 201.344,299.380 200.300 C 299.333 199.805,299.537 199.011,299.833 198.535 C 300.264 197.844,300.355 194.693,300.286 182.819 L 300.200 167.968 290.659 167.969 C 284.198 167.970,280.943 168.116,280.577 168.419 C 280.148 168.775,280.034 171.027,280.028 179.264 L 280.020 189.660 278.567 191.113 L 277.114 192.566 272.796 192.583 C 270.041 192.594,268.557 192.745,268.697 193.000 C 268.818 193.220,268.675 193.175,268.379 192.900 C 268.082 192.625,267.603 192.400,267.314 192.400 C 266.385 192.400,264.010 190.623,264.005 189.924 C 264.002 189.552,263.820 189.136,263.600 189.000 C 263.340 188.840,263.200 180.212,263.200 164.425 C 263.200 144.039,263.109 140.023,262.639 139.632 C 262.208 139.275,262.030 139.287,261.870 139.683 C 261.712 140.079,261.656 140.083,261.632 139.700 C 261.591 139.060,244.990 138.969,244.596 139.607 C 244.458 139.830,244.177 139.909,243.972 139.783 C 243.768 139.656,243.566 139.788,243.523 140.076 C 243.481 140.364,243.336 138.890,243.200 136.800 C 243.064 134.710,242.919 146.714,242.877 163.476 M118.640 139.000 C 118.454 139.660,118.217 139.969,118.113 139.688 C 117.967 139.290,115.874 139.184,108.763 139.215 L 99.600 139.255 99.600 170.227 C 99.600 190.609,99.737 201.200,100.000 201.200 C 100.220 201.200,100.400 200.844,100.400 200.408 C 100.400 199.631,100.764 199.614,118.800 199.508 C 136.098 199.406,137.200 199.442,137.200 200.100 C 137.200 200.485,137.367 200.800,137.572 200.800 C 137.777 200.800,138.022 201.205,138.118 201.700 C 138.213 202.195,138.316 200.652,138.346 198.271 C 138.419 192.403,139.124 192.800,128.629 192.800 L 120.000 192.800 120.000 178.008 L 120.000 163.215 129.100 163.108 L 138.200 163.000 138.307 153.127 L 138.414 143.254 129.307 143.178 C 124.298 143.136,119.930 143.086,119.600 143.066 C 119.146 143.038,119.033 142.627,119.136 141.374 C 119.349 138.767,119.076 137.458,118.640 139.000 M159.900 139.108 C 154.289 139.174,150.800 139.366,150.800 139.608 C 150.800 139.823,150.575 139.955,150.300 139.900 C 149.268 139.694,148.573 201.165,149.600 201.800 C 149.841 201.949,150.013 201.364,150.032 200.324 C 150.049 199.376,150.154 198.825,150.265 199.100 C 150.418 199.479,152.634 199.600,159.433 199.600 L 168.400 199.600 168.450 200.500 C 168.655 204.181,169.269 195.801,169.462 186.700 L 169.697 175.600 177.449 175.600 C 182.350 175.600,185.200 175.453,185.200 175.200 C 185.200 174.980,186.010 174.800,187.000 174.800 C 187.990 174.800,188.800 174.643,188.800 174.450 C 188.800 174.258,189.295 174.000,189.900 173.877 C 190.505 173.755,191.397 173.283,191.883 172.827 C 192.369 172.372,192.948 172.000,193.170 172.000 C 193.894 172.000,196.800 169.051,196.800 168.316 C 196.800 167.922,196.980 167.600,197.200 167.600 C 197.420 167.600,197.600 167.319,197.600 166.976 C 197.600 166.633,197.771 166.458,197.980 166.588 C 198.189 166.717,198.479 166.187,198.624 165.411 C 198.770 164.635,199.049 164.000,199.245 164.000 C 199.440 164.000,199.600 163.471,199.600 162.824 C 199.600 162.177,199.780 161.536,200.000 161.400 C 200.251 161.245,200.400 157.029,200.400 150.076 L 200.401 139.000 191.019 139.114 L 181.637 139.228 181.363 141.648 C 181.187 143.204,180.968 143.877,180.751 143.534 C 180.549 143.216,180.403 144.292,180.389 146.200 C 180.332 153.911,178.822 155.582,171.900 155.596 L 169.600 155.600 169.557 149.500 C 169.533 146.145,169.398 142.410,169.257 141.200 L 169.000 139.000 159.900 139.108 M212.447 140.977 C 211.905 143.131,211.858 203.061,212.400 201.800 C 212.589 201.360,212.778 200.460,212.819 199.800 L 212.895 198.600 213.200 199.800 C 213.368 200.460,213.527 200.685,213.553 200.300 C 213.596 199.658,214.276 199.600,221.826 199.600 C 226.664 199.600,230.367 199.432,230.816 199.191 C 231.650 198.745,231.834 199.139,232.128 202.000 C 232.207 202.770,232.301 190.281,232.336 174.246 C 232.398 146.196,232.173 139.599,231.176 140.215 C 231.015 140.314,230.781 140.126,230.654 139.798 C 230.461 139.293,229.067 139.200,221.660 139.200 L 212.895 139.200 212.447 140.977 M278.400 213.200 C 277.912 213.515,277.964 213.589,278.676 213.594 C 279.158 213.597,279.664 213.420,279.800 213.200 C 280.115 212.691,279.188 212.691,278.400 213.200 M158.115 228.296 C 159.388 228.376,161.368 228.375,162.515 228.294 C 163.662 228.214,162.620 228.149,160.200 228.150 C 157.780 228.151,156.842 228.216,158.115 228.296 " stroke="none" fill="#b3b7fc" fill-rule="evenodd"></path></g></svg>