<svg id="svg" version="1.1" xmlns="http://www.w3.org/2000/svg" xmlns:xlink="http://www.w3.org/1999/xlink" width="400" height="400" viewBox="0, 0, 400,400"><g id="svgg"><path id="path0" d="M125.800 85.054 C 117.278 86.194,112.868 90.757,111.631 99.716 C 110.917 104.882,111.051 296.330,111.772 301.063 C 112.581 306.373,116.027 312.400,118.255 312.400 C 118.555 312.400,118.800 312.536,118.800 312.702 C 118.800 312.993,119.393 313.279,122.355 314.421 C 124.208 315.135,130.916 315.139,133.400 314.427 C 135.316 313.879,136.110 313.500,140.600 310.996 C 141.700 310.383,143.950 309.166,145.600 308.291 C 147.250 307.417,148.780 306.568,149.000 306.404 C 149.220 306.240,151.020 305.247,153.000 304.197 C 158.241 301.417,161.584 299.617,163.400 298.597 C 166.253 296.993,169.746 295.105,172.200 293.841 C 173.520 293.161,174.690 292.514,174.800 292.402 C 175.039 292.160,175.529 291.889,180.200 289.415 C 183.413 287.713,186.843 285.852,194.600 281.600 C 195.920 280.876,197.945 279.770,199.100 279.142 C 200.255 278.514,202.145 277.485,203.300 276.855 C 204.455 276.225,206.570 275.078,208.000 274.307 C 209.430 273.535,213.261 271.440,216.514 269.652 C 219.766 267.863,222.528 266.400,222.652 266.400 C 222.775 266.400,223.354 266.066,223.938 265.658 C 224.522 265.250,226.710 264.014,228.800 262.911 C 233.441 260.463,236.618 258.740,245.600 253.800 C 249.779 251.502,253.231 249.630,257.200 247.508 C 258.630 246.744,260.610 245.667,261.600 245.115 C 262.590 244.563,264.480 243.521,265.800 242.800 C 267.120 242.079,268.966 241.067,269.901 240.552 C 270.837 240.036,273.357 238.686,275.501 237.551 C 277.646 236.416,279.940 235.174,280.600 234.792 C 281.260 234.410,282.835 233.536,284.100 232.849 C 285.365 232.162,287.345 231.081,288.500 230.447 C 289.655 229.813,291.770 228.668,293.200 227.903 C 294.630 227.138,296.790 225.963,298.000 225.292 C 303.528 222.224,305.643 221.070,308.981 219.300 C 323.040 211.841,324.591 194.550,311.970 185.980 C 310.691 185.111,309.555 184.400,309.445 184.400 C 309.336 184.400,306.242 182.690,302.569 180.600 C 298.896 178.510,295.735 176.800,295.545 176.800 C 295.355 176.800,295.199 176.665,295.197 176.500 C 295.195 176.335,294.790 176.013,294.297 175.783 C 293.031 175.195,289.839 173.439,289.600 173.199 C 289.490 173.089,288.863 172.729,288.207 172.399 C 287.550 172.070,283.320 169.714,278.807 167.164 C 274.293 164.614,269.790 162.074,268.800 161.520 C 267.129 160.586,266.383 160.162,262.600 158.000 C 258.828 155.845,258.071 155.415,256.400 154.479 C 246.669 149.029,241.962 146.386,240.700 145.661 C 239.875 145.187,238.570 144.440,237.800 144.000 C 237.030 143.560,235.770 142.840,235.000 142.400 C 232.767 141.124,230.722 139.986,229.000 139.060 C 228.120 138.587,227.310 138.110,227.200 137.999 C 227.090 137.889,226.460 137.529,225.800 137.200 C 225.140 136.871,223.070 135.725,221.200 134.652 C 217.190 132.352,212.274 129.583,209.200 127.894 C 207.990 127.229,206.816 126.543,206.591 126.369 C 206.366 126.195,205.196 125.529,203.991 124.888 C 202.786 124.248,201.125 123.336,200.300 122.862 C 196.727 120.809,195.677 120.214,193.600 119.067 C 192.390 118.399,189.060 116.512,186.200 114.875 C 183.340 113.238,180.100 111.410,179.000 110.811 C 177.900 110.213,176.280 109.309,175.400 108.803 C 174.520 108.297,172.810 107.341,171.600 106.680 C 170.390 106.019,168.922 105.145,168.338 104.739 C 167.754 104.333,167.194 104.000,167.094 104.000 C 166.993 104.000,163.781 102.228,159.955 100.062 C 156.130 97.896,152.190 95.671,151.200 95.118 C 149.400 94.113,147.721 93.159,144.900 91.538 C 135.771 86.293,133.652 85.410,129.400 85.080 C 128.080 84.977,126.460 84.965,125.800 85.054 " stroke="none" fill="#fcfbfb" fill-rule="evenodd"></path><path id="path1" d="M161.410 0.274 C 157.456 0.354,154.045 0.595,153.830 0.810 C 153.616 1.024,151.406 1.200,148.920 1.200 C 146.173 1.200,144.400 1.357,144.400 1.600 C 144.400 1.835,143.008 2.000,141.024 2.000 C 139.167 2.000,137.536 2.180,137.400 2.400 C 137.264 2.620,135.903 2.800,134.376 2.800 C 132.792 2.800,131.600 2.972,131.600 3.200 C 131.600 3.426,130.467 3.600,129.000 3.600 C 127.533 3.600,126.400 3.774,126.400 4.000 C 126.400 4.225,125.275 4.400,123.824 4.400 C 122.407 4.400,121.136 4.580,121.000 4.800 C 120.864 5.020,119.773 5.200,118.576 5.200 C 117.379 5.200,116.400 5.380,116.400 5.600 C 116.400 5.820,115.500 6.000,114.400 6.000 C 113.300 6.000,112.400 6.180,112.400 6.400 C 112.400 6.620,111.500 6.800,110.400 6.800 C 109.300 6.800,108.400 6.980,108.400 7.200 C 108.400 7.420,107.601 7.600,106.624 7.600 C 105.647 7.600,104.736 7.780,104.600 8.000 C 104.464 8.220,103.643 8.400,102.776 8.400 C 101.909 8.400,101.200 8.580,101.200 8.800 C 101.200 9.020,100.480 9.200,99.600 9.200 C 98.720 9.200,98.000 9.355,98.000 9.545 C 98.000 9.735,96.965 10.010,95.700 10.158 C 93.400 10.426,91.213 10.989,89.905 11.649 C 89.523 11.842,88.769 12.000,88.229 12.000 C 87.689 12.000,87.136 12.180,87.000 12.400 C 86.864 12.620,86.324 12.800,85.800 12.800 C 85.276 12.800,84.736 12.980,84.600 13.200 C 84.464 13.420,83.924 13.600,83.400 13.600 C 82.876 13.600,82.336 13.780,82.200 14.000 C 82.064 14.220,81.513 14.400,80.976 14.400 C 80.439 14.400,80.000 14.580,80.000 14.800 C 80.000 15.020,79.674 15.200,79.275 15.200 C 78.876 15.200,77.805 15.560,76.894 16.000 C 75.984 16.440,74.960 16.800,74.619 16.800 C 74.279 16.800,74.000 16.980,74.000 17.200 C 74.000 17.420,73.640 17.600,73.200 17.600 C 72.760 17.600,72.400 17.747,72.400 17.928 C 72.400 18.108,71.500 18.500,70.400 18.800 C 69.300 19.100,68.400 19.492,68.400 19.672 C 68.400 19.853,68.040 20.000,67.600 20.000 C 67.160 20.000,66.800 20.180,66.800 20.400 C 66.800 20.620,66.440 20.800,66.000 20.800 C 65.560 20.800,65.200 20.946,65.200 21.125 C 65.200 21.304,64.570 21.698,63.800 22.000 C 63.030 22.302,62.400 22.696,62.400 22.875 C 62.400 23.054,62.164 23.200,61.875 23.200 C 61.587 23.200,60.964 23.560,60.492 24.000 C 60.020 24.440,59.356 24.800,59.017 24.800 C 58.678 24.800,58.400 24.980,58.400 25.200 C 58.400 25.420,58.080 25.600,57.688 25.600 C 57.297 25.600,56.717 25.960,56.400 26.400 C 56.083 26.840,55.531 27.200,55.173 27.200 C 54.815 27.200,54.107 27.560,53.600 28.000 C 53.093 28.440,52.533 28.800,52.357 28.800 C 52.181 28.800,51.586 29.250,51.036 29.800 C 50.486 30.350,49.891 30.800,49.714 30.800 C 49.014 30.800,34.000 45.142,34.000 45.811 C 34.000 45.929,33.370 46.657,32.600 47.427 C 31.830 48.197,31.200 48.973,31.200 49.151 C 31.200 49.330,30.750 49.999,30.200 50.638 C 29.651 51.277,29.201 52.025,29.200 52.300 C 29.200 52.575,29.033 52.800,28.829 52.800 C 28.625 52.800,28.140 53.520,27.752 54.400 C 27.364 55.280,26.901 56.000,26.723 56.000 C 26.545 56.000,26.400 56.320,26.400 56.712 C 26.400 57.103,26.040 57.683,25.600 58.000 C 25.160 58.317,24.800 58.897,24.800 59.288 C 24.800 59.680,24.620 60.000,24.400 60.000 C 24.180 60.000,24.000 60.270,24.000 60.600 C 24.000 60.930,23.820 61.200,23.600 61.200 C 23.380 61.200,23.200 61.560,23.200 62.000 C 23.200 62.440,23.020 62.800,22.800 62.800 C 22.580 62.800,22.400 63.055,22.400 63.367 C 22.400 63.678,22.265 63.993,22.100 64.067 C 21.601 64.288,20.000 67.622,20.000 68.438 C 20.000 68.857,19.820 69.200,19.600 69.200 C 19.380 69.200,19.200 69.560,19.200 70.000 C 19.200 70.440,19.020 70.800,18.800 70.800 C 18.580 70.800,18.400 71.160,18.400 71.600 C 18.400 72.040,18.220 72.400,18.000 72.400 C 17.780 72.400,17.600 72.749,17.600 73.176 C 17.600 73.603,17.420 74.064,17.200 74.200 C 16.980 74.336,16.800 74.887,16.800 75.424 C 16.800 75.961,16.620 76.400,16.400 76.400 C 16.180 76.400,16.000 76.760,16.000 77.200 C 16.000 77.640,15.820 78.000,15.600 78.000 C 15.380 78.000,15.200 78.439,15.200 78.976 C 15.200 79.513,15.020 80.064,14.800 80.200 C 14.580 80.336,14.400 80.887,14.400 81.424 C 14.400 81.961,14.220 82.400,14.000 82.400 C 13.780 82.400,13.600 82.940,13.600 83.600 C 13.600 84.260,13.420 84.800,13.200 84.800 C 12.980 84.800,12.800 85.340,12.800 86.000 C 12.800 86.660,12.620 87.200,12.400 87.200 C 12.180 87.200,12.000 87.652,12.000 88.205 C 12.000 88.758,11.842 89.523,11.649 89.905 C 10.955 91.278,10.336 93.663,10.114 95.812 C 9.990 97.015,9.733 98.000,9.544 98.000 C 9.355 98.000,9.200 98.720,9.200 99.600 C 9.200 100.480,9.020 101.200,8.800 101.200 C 8.580 101.200,8.400 101.920,8.400 102.800 C 8.400 103.680,8.220 104.400,8.000 104.400 C 7.780 104.400,7.600 105.300,7.600 106.400 C 7.600 107.500,7.420 108.400,7.200 108.400 C 6.980 108.400,6.800 109.199,6.800 110.176 C 6.800 111.153,6.620 112.064,6.400 112.200 C 6.180 112.336,6.000 113.337,6.000 114.424 C 6.000 115.511,5.820 116.400,5.600 116.400 C 5.374 116.400,5.200 117.533,5.200 119.000 C 5.200 120.467,5.026 121.600,4.800 121.600 C 4.571 121.600,4.400 122.800,4.400 124.400 C 4.400 126.000,4.229 127.200,4.000 127.200 C 3.772 127.200,3.600 128.392,3.600 129.976 C 3.600 131.503,3.420 132.864,3.200 133.000 C 2.980 133.136,2.800 134.857,2.800 136.824 C 2.800 138.941,2.637 140.400,2.400 140.400 C 2.156 140.400,2.000 142.259,2.000 145.176 C 2.000 147.929,1.831 150.058,1.600 150.200 C 1.365 150.345,1.200 152.711,1.200 155.944 C 1.200 159.807,1.051 161.589,0.700 161.940 C -0.032 162.672,-0.032 243.728,0.700 244.460 C 1.028 244.788,1.200 246.233,1.200 248.656 C 1.200 250.689,1.380 252.464,1.600 252.600 C 1.820 252.736,2.000 254.367,2.000 256.224 C 2.000 258.208,2.165 259.600,2.400 259.600 C 2.637 259.600,2.800 261.059,2.800 263.176 C 2.800 265.143,2.980 266.864,3.200 267.000 C 3.420 267.136,3.600 268.486,3.600 270.000 C 3.600 271.514,3.780 272.864,4.000 273.000 C 4.220 273.136,4.400 274.407,4.400 275.824 C 4.400 277.275,4.575 278.400,4.800 278.400 C 5.026 278.400,5.200 279.533,5.200 281.000 C 5.200 282.467,5.374 283.600,5.600 283.600 C 5.820 283.600,6.000 284.489,6.000 285.576 C 6.000 286.663,6.180 287.664,6.400 287.800 C 6.620 287.936,6.800 288.847,6.800 289.824 C 6.800 290.801,6.980 291.600,7.200 291.600 C 7.420 291.600,7.600 292.500,7.600 293.600 C 7.600 294.700,7.780 295.600,8.000 295.600 C 8.220 295.600,8.400 296.320,8.400 297.200 C 8.400 298.080,8.580 298.800,8.800 298.800 C 9.020 298.800,9.200 299.520,9.200 300.400 C 9.200 301.280,9.354 302.000,9.543 302.000 C 9.732 302.000,10.000 303.088,10.139 304.418 C 10.278 305.749,10.573 307.177,10.796 307.592 C 11.018 308.008,11.200 308.809,11.200 309.374 C 11.200 309.938,11.380 310.400,11.600 310.400 C 11.820 310.400,12.000 310.940,12.000 311.600 C 12.000 312.260,12.180 312.800,12.400 312.800 C 12.620 312.800,12.800 313.340,12.800 314.000 C 12.800 314.660,12.980 315.200,13.200 315.200 C 13.420 315.200,13.600 315.740,13.600 316.400 C 13.600 317.060,13.780 317.600,14.000 317.600 C 14.220 317.600,14.400 318.140,14.400 318.800 C 14.400 319.460,14.580 320.000,14.800 320.000 C 15.020 320.000,15.200 320.355,15.200 320.788 C 15.200 321.221,15.560 322.217,16.000 323.000 C 16.440 323.783,16.800 324.779,16.800 325.212 C 16.800 325.645,16.980 326.000,17.200 326.000 C 17.420 326.000,17.600 326.360,17.600 326.800 C 17.600 327.240,17.780 327.600,18.000 327.600 C 18.220 327.600,18.400 327.960,18.400 328.400 C 18.400 328.840,18.580 329.200,18.800 329.200 C 19.020 329.200,19.200 329.543,19.200 329.962 C 19.200 330.778,20.801 334.112,21.300 334.333 C 21.465 334.407,21.600 334.812,21.600 335.233 C 21.600 335.655,21.780 336.000,22.000 336.000 C 22.220 336.000,22.400 336.270,22.400 336.600 C 22.400 336.930,22.580 337.200,22.800 337.200 C 23.020 337.200,23.200 337.560,23.200 338.000 C 23.200 338.440,23.336 338.800,23.502 338.800 C 23.669 338.800,24.060 339.385,24.372 340.100 C 24.684 340.815,25.268 341.691,25.670 342.047 C 26.071 342.403,26.400 342.988,26.400 343.347 C 26.400 343.706,26.545 344.000,26.723 344.000 C 26.901 344.000,27.364 344.720,27.752 345.600 C 28.140 346.480,28.625 347.200,28.829 347.200 C 29.033 347.200,29.200 347.472,29.200 347.804 C 29.200 348.136,29.740 348.972,30.400 349.663 C 31.060 350.354,31.600 351.090,31.600 351.299 C 31.600 351.508,32.140 352.183,32.800 352.800 C 33.460 353.417,34.000 354.030,34.000 354.164 C 34.000 354.460,35.861 356.614,37.109 357.763 C 37.609 358.223,39.789 360.310,41.952 362.400 C 46.470 366.764,49.250 369.200,49.714 369.200 C 49.891 369.200,50.472 369.636,51.005 370.169 C 51.538 370.702,52.340 371.254,52.787 371.396 C 53.234 371.538,53.600 371.800,53.600 371.978 C 53.600 372.157,54.140 372.527,54.800 372.800 C 55.460 373.073,56.000 373.422,56.000 373.574 C 56.000 373.913,58.633 375.200,59.325 375.200 C 59.599 375.200,60.083 375.560,60.400 376.000 C 60.717 376.440,61.297 376.800,61.688 376.800 C 62.080 376.800,62.400 376.980,62.400 377.200 C 62.400 377.420,62.670 377.600,63.000 377.600 C 63.330 377.600,63.600 377.780,63.600 378.000 C 63.600 378.220,63.960 378.400,64.400 378.400 C 64.840 378.400,65.200 378.580,65.200 378.800 C 65.200 379.020,65.560 379.200,66.000 379.200 C 66.440 379.200,66.800 379.380,66.800 379.600 C 66.800 379.820,67.160 380.000,67.600 380.000 C 68.040 380.000,68.400 380.180,68.400 380.400 C 68.400 380.620,68.749 380.800,69.176 380.800 C 69.603 380.800,70.064 380.980,70.200 381.200 C 70.336 381.420,70.887 381.600,71.424 381.600 C 71.961 381.600,72.400 381.780,72.400 382.000 C 72.400 382.220,72.760 382.400,73.200 382.400 C 73.640 382.400,74.000 382.580,74.000 382.800 C 74.000 383.020,74.360 383.200,74.800 383.200 C 75.240 383.200,75.600 383.380,75.600 383.600 C 75.600 383.820,76.039 384.000,76.576 384.000 C 77.113 384.000,77.664 384.180,77.800 384.400 C 77.936 384.620,78.487 384.800,79.024 384.800 C 79.561 384.800,80.000 384.980,80.000 385.200 C 80.000 385.420,80.540 385.600,81.200 385.600 C 81.860 385.600,82.400 385.780,82.400 386.000 C 82.400 386.220,82.839 386.400,83.376 386.400 C 83.913 386.400,84.464 386.580,84.600 386.800 C 84.736 387.020,85.377 387.200,86.024 387.200 C 86.671 387.200,87.200 387.380,87.200 387.600 C 87.200 387.820,87.740 388.000,88.400 388.000 C 89.060 388.000,89.600 388.180,89.600 388.400 C 89.600 388.620,90.129 388.800,90.776 388.800 C 91.423 388.800,92.064 388.980,92.200 389.200 C 92.336 389.420,93.056 389.600,93.800 389.600 C 94.544 389.600,95.264 389.780,95.400 390.000 C 95.536 390.220,96.166 390.400,96.800 390.400 C 97.434 390.400,98.055 390.565,98.179 390.766 C 98.304 390.967,99.757 391.259,101.408 391.414 C 103.060 391.568,104.510 391.854,104.629 392.048 C 104.749 392.241,105.647 392.400,106.624 392.400 C 107.601 392.400,108.400 392.580,108.400 392.800 C 108.400 393.020,109.300 393.200,110.400 393.200 C 111.500 393.200,112.400 393.380,112.400 393.600 C 112.400 393.820,113.390 394.000,114.600 394.000 C 115.810 394.000,116.800 394.180,116.800 394.400 C 116.800 394.620,117.689 394.800,118.776 394.800 C 119.863 394.800,120.864 394.980,121.000 395.200 C 121.136 395.420,122.407 395.600,123.824 395.600 C 125.275 395.600,126.400 395.775,126.400 396.000 C 126.400 396.226,127.533 396.400,129.000 396.400 C 130.467 396.400,131.600 396.574,131.600 396.800 C 131.600 397.028,132.792 397.200,134.376 397.200 C 135.903 397.200,137.264 397.380,137.400 397.600 C 137.536 397.820,139.066 398.000,140.800 398.000 C 142.534 398.000,144.064 398.180,144.200 398.400 C 144.341 398.628,146.377 398.800,148.944 398.800 C 152.007 398.800,153.599 398.959,153.940 399.300 C 154.673 400.033,245.327 400.033,246.060 399.300 C 246.401 398.959,247.993 398.800,251.056 398.800 C 253.623 398.800,255.659 398.628,255.800 398.400 C 255.936 398.180,257.567 398.000,259.424 398.000 C 261.408 398.000,262.800 397.835,262.800 397.600 C 262.800 397.371,264.000 397.200,265.600 397.200 C 267.200 397.200,268.400 397.029,268.400 396.800 C 268.400 396.575,269.525 396.400,270.976 396.400 C 272.393 396.400,273.664 396.220,273.800 396.000 C 273.936 395.780,275.106 395.600,276.400 395.600 C 277.694 395.600,278.864 395.420,279.000 395.200 C 279.136 394.980,280.227 394.800,281.424 394.800 C 282.621 394.800,283.600 394.620,283.600 394.400 C 283.600 394.180,284.489 394.000,285.576 394.000 C 286.663 394.000,287.664 393.820,287.800 393.600 C 287.936 393.380,288.847 393.200,289.824 393.200 C 290.801 393.200,291.600 393.020,291.600 392.800 C 291.600 392.580,292.399 392.400,293.376 392.400 C 294.353 392.400,295.249 392.244,295.368 392.053 C 295.486 391.861,296.891 391.576,298.491 391.419 C 300.091 391.261,301.580 390.990,301.800 390.816 C 302.176 390.519,303.215 390.270,306.304 389.737 C 307.021 389.613,307.706 389.351,307.827 389.156 C 307.948 388.960,308.577 388.800,309.224 388.800 C 309.871 388.800,310.400 388.620,310.400 388.400 C 310.400 388.180,310.940 388.000,311.600 388.000 C 312.260 388.000,312.800 387.820,312.800 387.600 C 312.800 387.380,313.329 387.200,313.976 387.200 C 314.623 387.200,315.264 387.020,315.400 386.800 C 315.536 386.580,316.076 386.400,316.600 386.400 C 317.124 386.400,317.664 386.220,317.800 386.000 C 317.936 385.780,318.487 385.600,319.024 385.600 C 319.561 385.600,320.000 385.420,320.000 385.200 C 320.000 384.980,320.362 384.800,320.805 384.800 C 321.248 384.800,321.968 384.620,322.405 384.400 C 322.842 384.180,323.558 383.820,323.995 383.600 C 324.432 383.380,325.062 383.200,325.395 383.200 C 325.728 383.200,326.000 383.020,326.000 382.800 C 326.000 382.580,326.360 382.400,326.800 382.400 C 327.240 382.400,327.600 382.220,327.600 382.000 C 327.600 381.780,328.039 381.600,328.576 381.600 C 329.113 381.600,329.664 381.420,329.800 381.200 C 329.936 380.980,330.397 380.800,330.824 380.800 C 331.251 380.800,331.600 380.620,331.600 380.400 C 331.600 380.180,331.960 380.000,332.400 380.000 C 332.840 380.000,333.200 379.820,333.200 379.600 C 333.200 379.380,333.560 379.200,334.000 379.200 C 334.440 379.200,334.800 379.020,334.800 378.800 C 334.800 378.580,335.160 378.400,335.600 378.400 C 336.040 378.400,336.400 378.254,336.400 378.075 C 336.400 377.896,337.030 377.502,337.800 377.200 C 338.570 376.898,339.200 376.504,339.200 376.325 C 339.200 376.146,339.470 376.000,339.800 376.000 C 340.130 376.000,340.401 375.865,340.401 375.700 C 340.402 375.535,341.212 375.067,342.201 374.660 C 343.191 374.254,344.000 373.780,344.000 373.609 C 344.000 373.437,344.540 373.073,345.200 372.800 C 345.860 372.527,346.400 372.157,346.400 371.978 C 346.400 371.800,346.766 371.538,347.213 371.396 C 347.660 371.254,348.462 370.702,348.995 370.169 C 349.528 369.636,350.130 369.200,350.334 369.200 C 350.537 369.200,351.445 368.480,352.352 367.600 C 353.259 366.720,354.092 366.000,354.204 366.000 C 354.466 366.000,356.682 364.065,357.763 362.892 C 358.741 361.831,361.790 358.763,363.134 357.487 C 363.648 356.999,364.547 355.970,365.133 355.200 C 365.718 354.430,366.693 353.323,367.299 352.740 C 367.904 352.156,368.400 351.508,368.400 351.299 C 368.400 351.090,368.940 350.354,369.600 349.663 C 370.260 348.972,370.800 348.175,370.800 347.892 C 370.800 347.609,371.160 347.117,371.600 346.800 C 372.040 346.483,372.400 345.986,372.400 345.695 C 372.400 345.404,372.760 344.780,373.200 344.308 C 373.640 343.836,374.000 343.213,374.000 342.925 C 374.000 342.636,374.153 342.400,374.340 342.400 C 374.527 342.400,375.013 341.590,375.422 340.600 C 375.830 339.610,376.307 338.800,376.482 338.800 C 376.657 338.800,376.800 338.440,376.800 338.000 C 376.800 337.560,376.980 337.200,377.200 337.200 C 377.420 337.200,377.600 336.922,377.600 336.583 C 377.600 336.244,377.960 335.580,378.400 335.108 C 378.840 334.636,379.200 333.833,379.200 333.325 C 379.200 332.816,379.380 332.400,379.600 332.400 C 379.820 332.400,380.000 332.040,380.000 331.600 C 380.000 331.160,380.180 330.800,380.400 330.800 C 380.620 330.800,380.800 330.440,380.800 330.000 C 380.800 329.560,380.980 329.200,381.200 329.200 C 381.420 329.200,381.600 328.840,381.600 328.400 C 381.600 327.960,381.780 327.600,382.000 327.600 C 382.220 327.600,382.400 327.240,382.400 326.800 C 382.400 326.360,382.580 326.000,382.800 326.000 C 383.020 326.000,383.200 325.561,383.200 325.024 C 383.200 324.487,383.380 323.936,383.600 323.800 C 383.820 323.664,384.000 323.203,384.000 322.776 C 384.000 322.349,384.180 322.000,384.400 322.000 C 384.620 322.000,384.800 321.550,384.800 321.000 C 384.800 320.450,384.980 320.000,385.200 320.000 C 385.420 320.000,385.600 319.460,385.600 318.800 C 385.600 318.140,385.780 317.600,386.000 317.600 C 386.220 317.600,386.400 317.060,386.400 316.400 C 386.400 315.740,386.580 315.200,386.800 315.200 C 387.020 315.200,387.200 314.660,387.200 314.000 C 387.200 313.340,387.380 312.800,387.600 312.800 C 387.820 312.800,388.000 312.260,388.000 311.600 C 388.000 310.940,388.180 310.400,388.400 310.400 C 388.620 310.400,388.800 309.871,388.800 309.224 C 388.800 308.577,388.960 307.948,389.156 307.827 C 389.351 307.706,389.613 307.021,389.737 306.304 C 390.270 303.215,390.519 302.176,390.816 301.800 C 390.990 301.580,391.260 300.095,391.418 298.500 C 391.575 296.905,391.860 295.600,392.052 295.600 C 392.243 295.600,392.400 294.700,392.400 293.600 C 392.400 292.500,392.580 291.600,392.800 291.600 C 393.020 291.600,393.200 290.790,393.200 289.800 C 393.200 288.810,393.380 288.000,393.600 288.000 C 393.822 288.000,394.000 286.933,394.000 285.600 C 394.000 284.267,394.178 283.200,394.400 283.200 C 394.622 283.200,394.800 282.133,394.800 280.800 C 394.800 279.467,394.978 278.400,395.200 278.400 C 395.425 278.400,395.600 277.275,395.600 275.824 C 395.600 274.407,395.780 273.136,396.000 273.000 C 396.220 272.864,396.400 271.413,396.400 269.776 C 396.400 268.059,396.569 266.800,396.800 266.800 C 397.037 266.800,397.200 265.333,397.200 263.200 C 397.200 261.067,397.363 259.600,397.600 259.600 C 397.831 259.600,398.000 258.341,398.000 256.624 C 398.000 254.987,398.180 253.536,398.400 253.400 C 398.620 253.264,398.800 251.489,398.800 249.456 C 398.800 247.033,398.972 245.588,399.300 245.260 C 400.033 244.527,400.033 156.344,399.300 156.100 C 398.941 155.980,398.800 154.709,398.800 151.590 C 398.800 149.126,398.627 147.140,398.400 147.000 C 398.180 146.864,398.000 145.323,398.000 143.576 C 398.000 141.725,397.833 140.400,397.600 140.400 C 397.361 140.400,397.200 138.867,397.200 136.600 C 397.200 134.333,397.039 132.800,396.800 132.800 C 396.571 132.800,396.400 131.600,396.400 130.000 C 396.400 128.400,396.229 127.200,396.000 127.200 C 395.771 127.200,395.600 126.000,395.600 124.400 C 395.600 122.800,395.429 121.600,395.200 121.600 C 394.974 121.600,394.800 120.467,394.800 119.000 C 394.800 117.533,394.626 116.400,394.400 116.400 C 394.180 116.400,394.000 115.511,394.000 114.424 C 394.000 113.337,393.820 112.336,393.600 112.200 C 393.380 112.064,393.200 111.153,393.200 110.176 C 393.200 109.199,393.020 108.400,392.800 108.400 C 392.580 108.400,392.400 107.500,392.400 106.400 C 392.400 105.300,392.241 104.400,392.047 104.400 C 391.853 104.400,391.568 103.051,391.413 101.403 C 391.259 99.754,390.967 98.304,390.766 98.179 C 390.565 98.055,390.400 97.434,390.400 96.800 C 390.400 96.166,390.240 95.548,390.044 95.427 C 389.849 95.306,389.573 94.531,389.433 93.704 C 388.811 90.051,388.693 89.600,388.356 89.600 C 388.160 89.600,388.000 89.060,388.000 88.400 C 388.000 87.740,387.820 87.200,387.600 87.200 C 387.380 87.200,387.200 86.660,387.200 86.000 C 387.200 85.340,387.020 84.800,386.800 84.800 C 386.580 84.800,386.400 84.260,386.400 83.600 C 386.400 82.940,386.220 82.400,386.000 82.400 C 385.780 82.400,385.600 81.860,385.600 81.200 C 385.600 80.540,385.420 80.000,385.200 80.000 C 384.980 80.000,384.800 79.651,384.800 79.224 C 384.800 78.797,384.620 78.336,384.400 78.200 C 384.180 78.064,384.000 77.603,384.000 77.176 C 384.000 76.749,383.820 76.400,383.600 76.400 C 383.380 76.400,383.200 75.961,383.200 75.424 C 383.200 74.887,383.020 74.336,382.800 74.200 C 382.580 74.064,382.400 73.603,382.400 73.176 C 382.400 72.749,382.220 72.400,382.000 72.400 C 381.780 72.400,381.600 72.040,381.600 71.600 C 381.600 71.160,381.420 70.800,381.200 70.800 C 380.980 70.800,380.800 70.440,380.800 70.000 C 380.800 69.560,380.620 69.200,380.400 69.200 C 380.180 69.200,380.000 68.750,380.000 68.200 C 380.000 67.650,379.820 67.200,379.600 67.200 C 379.380 67.200,379.200 66.840,379.200 66.400 C 379.200 65.960,379.020 65.600,378.800 65.600 C 378.580 65.600,378.400 65.240,378.400 64.800 C 378.400 64.360,378.220 64.000,378.000 64.000 C 377.780 64.000,377.600 63.730,377.600 63.400 C 377.600 63.070,377.420 62.800,377.200 62.800 C 376.980 62.800,376.800 62.440,376.800 62.000 C 376.800 61.560,376.620 61.200,376.400 61.200 C 376.180 61.200,376.000 60.930,376.000 60.600 C 376.000 60.270,375.820 60.000,375.600 60.000 C 375.380 60.000,375.200 59.653,375.200 59.229 C 375.200 58.804,374.975 58.219,374.700 57.929 C 374.425 57.638,373.945 56.905,373.632 56.300 C 373.320 55.695,372.915 55.200,372.732 55.200 C 372.550 55.200,372.400 54.880,372.400 54.488 C 372.400 54.097,372.040 53.517,371.600 53.200 C 371.160 52.883,370.800 52.438,370.799 52.212 C 370.799 51.985,370.259 51.170,369.600 50.400 C 368.941 49.630,368.401 48.868,368.401 48.707 C 368.400 48.385,367.132 46.974,362.000 41.583 C 360.130 39.619,358.223 37.604,357.763 37.106 C 356.651 35.903,354.462 34.000,354.190 34.000 C 354.071 34.000,353.343 33.370,352.573 32.600 C 351.803 31.830,351.018 31.200,350.829 31.200 C 350.640 31.200,349.907 30.660,349.200 30.000 C 348.493 29.340,347.782 28.800,347.619 28.800 C 347.456 28.800,346.907 28.440,346.400 28.000 C 345.893 27.560,345.185 27.200,344.827 27.200 C 344.469 27.200,343.917 26.840,343.600 26.400 C 343.283 25.960,342.703 25.600,342.312 25.600 C 341.920 25.600,341.600 25.420,341.600 25.200 C 341.600 24.980,341.330 24.800,341.000 24.800 C 340.670 24.800,340.400 24.620,340.400 24.400 C 340.400 24.180,340.040 24.000,339.600 24.000 C 339.160 24.000,338.800 23.820,338.800 23.600 C 338.800 23.380,338.530 23.200,338.200 23.200 C 337.870 23.200,337.600 23.020,337.600 22.800 C 337.600 22.580,337.330 22.400,337.000 22.400 C 336.670 22.400,336.400 22.220,336.400 22.000 C 336.400 21.780,336.040 21.600,335.600 21.600 C 335.160 21.600,334.800 21.420,334.800 21.200 C 334.800 20.980,334.440 20.800,334.000 20.800 C 333.560 20.800,333.200 20.620,333.200 20.400 C 333.200 20.180,332.840 20.000,332.400 20.000 C 331.960 20.000,331.600 19.820,331.600 19.600 C 331.600 19.380,331.251 19.200,330.824 19.200 C 330.397 19.200,329.936 19.020,329.800 18.800 C 329.664 18.580,329.113 18.400,328.576 18.400 C 328.039 18.400,327.600 18.220,327.600 18.000 C 327.600 17.780,327.240 17.600,326.800 17.600 C 326.360 17.600,326.000 17.420,326.000 17.200 C 326.000 16.980,325.728 16.800,325.395 16.800 C 325.062 16.800,324.432 16.620,323.995 16.400 C 323.558 16.180,322.842 15.820,322.405 15.600 C 321.968 15.380,321.248 15.200,320.805 15.200 C 320.362 15.200,320.000 15.020,320.000 14.800 C 320.000 14.580,319.460 14.400,318.800 14.400 C 318.140 14.400,317.600 14.220,317.600 14.000 C 317.600 13.780,317.060 13.600,316.400 13.600 C 315.740 13.600,315.200 13.420,315.200 13.200 C 315.200 12.980,314.660 12.800,314.000 12.800 C 313.340 12.800,312.800 12.620,312.800 12.400 C 312.800 12.180,312.260 12.000,311.600 12.000 C 310.940 12.000,310.400 11.820,310.400 11.600 C 310.400 11.380,309.938 11.200,309.374 11.200 C 308.809 11.200,308.008 11.018,307.592 10.796 C 307.177 10.573,305.749 10.278,304.418 10.139 C 303.088 10.000,302.000 9.732,302.000 9.543 C 302.000 9.354,301.280 9.200,300.400 9.200 C 299.520 9.200,298.800 9.020,298.800 8.800 C 298.800 8.580,298.091 8.400,297.224 8.400 C 296.357 8.400,295.536 8.220,295.400 8.000 C 295.264 7.780,294.353 7.600,293.376 7.600 C 292.399 7.600,291.600 7.420,291.600 7.200 C 291.600 6.980,290.801 6.800,289.824 6.800 C 288.847 6.800,287.936 6.620,287.800 6.400 C 287.664 6.180,286.573 6.000,285.376 6.000 C 284.179 6.000,283.200 5.820,283.200 5.600 C 283.200 5.380,282.311 5.200,281.224 5.200 C 280.137 5.200,279.136 5.020,279.000 4.800 C 278.864 4.580,277.694 4.400,276.400 4.400 C 275.106 4.400,273.936 4.220,273.800 4.000 C 273.664 3.780,272.393 3.600,270.976 3.600 C 269.525 3.600,268.400 3.425,268.400 3.200 C 268.400 2.972,267.208 2.800,265.624 2.800 C 264.097 2.800,262.736 2.620,262.600 2.400 C 262.464 2.180,260.934 2.000,259.200 2.000 C 257.466 2.000,255.936 1.820,255.800 1.600 C 255.659 1.372,253.623 1.200,251.056 1.200 C 248.124 1.200,246.395 1.035,246.086 0.726 C 245.619 0.259,179.560 -0.094,161.410 0.274 M131.440 84.353 C 132.078 84.548,133.410 84.946,134.400 85.238 C 135.390 85.530,137.063 86.271,138.118 86.885 C 139.172 87.498,140.207 88.000,140.418 88.000 C 140.628 88.000,140.800 88.138,140.800 88.306 C 140.800 88.474,141.475 88.918,142.300 89.294 C 143.889 90.016,146.066 91.252,146.400 91.621 C 146.510 91.742,147.230 92.149,148.000 92.525 C 148.770 92.900,150.300 93.748,151.400 94.409 C 152.500 95.069,154.075 95.920,154.900 96.299 C 155.725 96.678,156.400 97.126,156.400 97.294 C 156.400 97.462,156.594 97.600,156.830 97.600 C 157.067 97.600,158.462 98.295,159.930 99.145 C 161.399 99.995,163.410 101.139,164.400 101.689 C 165.390 102.238,166.875 103.072,167.700 103.543 C 168.525 104.015,169.830 104.760,170.600 105.200 C 172.144 106.082,174.175 107.235,175.645 108.062 C 176.170 108.358,176.690 108.690,176.800 108.800 C 176.910 108.910,177.720 109.378,178.600 109.839 C 179.480 110.301,181.055 111.156,182.100 111.739 C 183.145 112.323,184.855 113.274,185.900 113.853 C 189.124 115.640,193.726 118.226,195.300 119.134 C 199.004 121.272,199.898 121.774,201.400 122.562 C 202.280 123.023,203.090 123.490,203.200 123.600 C 203.400 123.800,206.210 125.331,207.897 126.160 C 208.390 126.402,208.795 126.735,208.797 126.900 C 208.799 127.065,208.955 127.200,209.145 127.200 C 209.334 127.200,210.819 127.941,212.445 128.846 C 214.070 129.752,216.390 131.038,217.600 131.704 C 218.810 132.371,220.880 133.544,222.200 134.313 C 225.062 135.978,226.843 136.980,229.000 138.140 C 229.880 138.613,230.690 139.090,230.800 139.200 C 230.910 139.310,231.720 139.777,232.600 140.238 C 233.480 140.700,234.875 141.465,235.700 141.938 C 236.525 142.412,237.875 143.187,238.700 143.661 C 239.962 144.386,244.669 147.029,254.400 152.479 C 255.390 153.033,256.850 153.855,257.645 154.306 C 258.440 154.756,259.520 155.367,260.045 155.662 C 260.570 155.958,261.090 156.290,261.200 156.400 C 261.310 156.510,262.120 156.977,263.000 157.438 C 263.880 157.900,265.275 158.665,266.100 159.138 C 269.893 161.317,270.739 161.793,272.800 162.908 C 274.010 163.562,275.720 164.505,276.600 165.003 C 277.480 165.501,278.875 166.289,279.700 166.754 C 281.098 167.542,281.958 168.032,285.300 169.943 C 286.015 170.352,287.410 171.170,288.400 171.761 C 289.390 172.352,290.515 172.938,290.900 173.064 C 291.285 173.190,291.600 173.452,291.600 173.647 C 291.600 173.841,291.960 174.000,292.400 174.000 C 292.840 174.000,293.201 174.135,293.203 174.300 C 293.205 174.465,293.610 174.798,294.103 175.040 C 295.790 175.869,298.600 177.400,298.800 177.600 C 298.910 177.710,299.720 178.182,300.600 178.649 C 302.007 179.395,304.314 180.680,310.200 183.993 C 321.304 190.243,324.521 202.453,317.801 212.841 C 315.373 216.594,313.440 217.945,302.200 223.748 C 300.440 224.657,298.910 225.490,298.800 225.600 C 298.428 225.972,296.209 227.220,294.700 227.906 C 293.875 228.282,293.200 228.726,293.200 228.894 C 293.200 229.062,292.840 229.200,292.400 229.200 C 291.960 229.200,291.599 229.335,291.597 229.500 C 291.595 229.665,291.190 229.992,290.697 230.227 C 289.660 230.721,284.632 233.415,282.000 234.888 C 280.275 235.853,274.590 238.885,270.800 240.861 C 269.810 241.378,268.910 241.892,268.800 242.005 C 268.690 242.118,267.700 242.656,266.600 243.200 C 265.500 243.744,264.510 244.282,264.400 244.395 C 264.290 244.508,263.390 245.029,262.400 245.554 C 259.953 246.850,256.967 248.473,254.800 249.684 C 251.529 251.511,248.643 253.062,245.200 254.841 C 243.330 255.808,241.710 256.691,241.600 256.805 C 241.490 256.918,240.500 257.456,239.400 258.000 C 238.300 258.544,237.310 259.082,237.200 259.195 C 237.090 259.309,236.460 259.671,235.800 260.000 C 235.140 260.329,234.510 260.693,234.400 260.807 C 234.290 260.922,232.940 261.639,231.400 262.400 C 229.860 263.161,228.510 263.877,228.400 263.992 C 228.290 264.106,227.840 264.395,227.400 264.634 C 226.960 264.872,225.160 265.844,223.400 266.792 C 221.640 267.741,219.300 269.009,218.200 269.611 C 214.750 271.500,210.692 273.669,208.200 274.956 C 206.880 275.637,205.710 276.286,205.600 276.398 C 205.490 276.509,204.590 277.029,203.600 277.554 C 201.769 278.524,199.276 279.878,195.500 281.955 C 189.648 285.173,184.680 287.852,181.800 289.343 C 180.040 290.254,178.510 291.090,178.400 291.200 C 178.290 291.310,177.435 291.805,176.500 292.300 C 175.565 292.795,174.035 293.605,173.100 294.100 C 172.165 294.595,171.310 295.090,171.200 295.200 C 171.090 295.310,170.190 295.828,169.200 296.352 C 166.533 297.762,162.469 299.946,160.200 301.189 C 159.100 301.791,156.850 303.013,155.200 303.905 C 153.550 304.797,151.030 306.178,149.600 306.975 C 148.170 307.771,146.325 308.730,145.500 309.106 C 144.675 309.481,144.000 309.926,144.000 310.094 C 144.000 310.262,143.640 310.400,143.200 310.400 C 142.760 310.400,142.399 310.535,142.397 310.700 C 142.395 310.865,141.990 311.195,141.497 311.434 C 141.004 311.673,139.307 312.544,137.726 313.370 C 126.624 319.174,114.150 314.649,111.345 303.800 C 110.809 301.726,110.696 98.853,111.230 97.000 C 112.182 93.698,113.050 91.743,114.284 90.126 C 115.645 88.341,119.280 85.908,121.600 85.229 C 122.590 84.940,123.850 84.559,124.400 84.383 C 125.778 83.942,130.033 83.924,131.440 84.353 " stroke="none" fill="#fc6404" fill-rule="evenodd"></path><path id="path2" d="M125.200 84.763 C 124.636 84.922,125.945 85.050,128.200 85.055 C 130.515 85.061,131.779 84.941,131.200 84.772 C 129.926 84.400,126.502 84.394,125.200 84.763 M121.800 85.600 C 121.296 85.817,121.222 85.944,121.600 85.944 C 121.930 85.944,122.560 85.789,123.000 85.600 C 123.504 85.383,123.578 85.256,123.200 85.256 C 122.870 85.256,122.240 85.411,121.800 85.600 M133.000 85.600 C 134.196 86.114,135.195 86.114,134.400 85.600 C 134.070 85.387,133.440 85.222,133.000 85.234 L 132.200 85.256 133.000 85.600 M135.420 86.324 C 135.938 86.765,138.000 87.627,138.000 87.402 C 138.000 87.181,135.759 86.000,135.340 86.000 C 135.175 86.000,135.211 86.146,135.420 86.324 M117.800 87.538 C 116.184 88.527,113.809 91.213,113.095 92.859 C 111.823 95.788,111.670 96.366,111.458 99.033 L 111.239 101.800 111.760 98.800 C 112.758 93.062,114.771 89.698,118.626 87.324 C 119.052 87.061,119.310 86.837,119.200 86.825 C 119.090 86.813,118.460 87.134,117.800 87.538 M139.200 88.400 C 139.750 88.830,140.380 89.182,140.600 89.182 C 140.820 89.182,140.550 88.830,140.000 88.400 C 139.450 87.970,138.820 87.618,138.600 87.618 C 138.380 87.618,138.650 87.970,139.200 88.400 M143.600 90.764 C 144.150 91.214,144.780 91.583,145.000 91.585 C 145.428 91.588,144.705 91.034,143.400 90.360 C 142.869 90.085,142.936 90.221,143.600 90.764 M146.400 92.367 C 147.363 93.152,148.000 93.408,148.000 93.010 C 148.000 92.906,147.415 92.535,146.700 92.186 L 145.400 91.552 146.400 92.367 M149.200 93.964 C 149.750 94.414,150.321 94.786,150.468 94.791 C 150.616 94.796,152.326 95.718,154.268 96.841 C 158.533 99.305,160.000 100.075,160.000 99.852 C 160.000 99.688,154.174 96.336,150.200 94.214 C 148.706 93.416,148.453 93.353,149.200 93.964 M160.400 100.190 C 160.400 100.294,160.985 100.665,161.700 101.014 L 163.000 101.648 162.000 100.833 C 161.037 100.048,160.400 99.792,160.400 100.190 M163.200 101.790 C 163.200 101.894,163.785 102.265,164.500 102.614 L 165.800 103.248 164.800 102.433 C 163.837 101.648,163.200 101.392,163.200 101.790 M110.997 200.200 C 110.997 254.100,111.043 276.091,111.100 249.068 C 111.157 222.045,111.157 177.945,111.100 151.068 C 111.043 124.191,110.997 146.300,110.997 200.200 M167.600 104.143 C 167.600 104.475,172.473 107.260,172.684 107.049 C 172.786 106.948,172.448 106.646,171.934 106.377 C 171.420 106.109,170.235 105.448,169.300 104.907 C 168.365 104.366,167.600 104.022,167.600 104.143 M173.400 107.517 C 173.620 107.741,174.475 108.302,175.300 108.762 C 176.125 109.223,177.435 109.960,178.212 110.400 C 179.809 111.304,180.587 111.478,179.389 110.663 C 178.044 109.748,172.977 107.086,173.400 107.517 M180.400 111.370 C 180.400 111.580,184.327 113.906,188.200 115.991 C 189.714 116.805,190.231 116.975,189.600 116.450 C 189.050 115.992,188.473 115.614,188.318 115.609 C 188.162 115.604,187.082 115.035,185.918 114.344 C 182.212 112.145,180.400 111.169,180.400 111.370 M190.800 117.390 C 190.800 117.494,191.385 117.865,192.100 118.214 L 193.400 118.848 192.400 118.033 C 191.437 117.248,190.800 116.992,190.800 117.390 M196.000 120.367 C 196.963 121.152,197.600 121.408,197.600 121.010 C 197.600 120.906,197.015 120.535,196.300 120.186 L 195.000 119.552 196.000 120.367 M198.800 121.967 C 199.763 122.752,200.400 123.008,200.400 122.610 C 200.400 122.506,199.815 122.135,199.100 121.786 L 197.800 121.152 198.800 121.967 M201.600 123.567 C 202.563 124.352,203.200 124.608,203.200 124.210 C 203.200 124.106,202.615 123.735,201.900 123.386 L 200.600 122.752 201.600 123.567 M205.200 125.364 C 205.200 125.597,209.919 128.400,210.310 128.400 C 210.651 128.400,209.518 127.644,207.100 126.256 C 206.055 125.657,205.200 125.255,205.200 125.364 M211.400 129.009 C 212.359 129.792,215.572 131.463,215.000 130.881 C 214.780 130.657,213.700 129.997,212.600 129.415 C 211.500 128.832,210.960 128.650,211.400 129.009 M216.000 131.620 C 217.387 132.561,218.178 132.835,217.200 132.036 C 216.650 131.586,216.020 131.217,215.800 131.215 C 215.580 131.213,215.670 131.396,216.000 131.620 M218.400 132.924 C 218.400 133.215,224.900 136.834,225.086 136.647 C 225.176 136.557,223.848 135.700,222.134 134.742 C 218.557 132.743,218.400 132.666,218.400 132.924 M228.400 138.559 C 228.400 138.851,232.110 140.823,232.301 140.633 C 232.399 140.534,231.562 139.989,230.440 139.420 C 229.318 138.852,228.400 138.464,228.400 138.559 M233.600 141.564 C 234.150 142.014,234.780 142.383,235.000 142.385 C 235.428 142.388,234.705 141.834,233.400 141.160 C 232.869 140.885,232.936 141.021,233.600 141.564 M235.800 142.713 C 236.020 142.939,236.875 143.502,237.700 143.962 C 238.525 144.423,239.875 145.188,240.700 145.661 C 242.928 146.940,250.863 151.395,251.900 151.948 C 252.395 152.212,252.800 152.353,252.800 152.260 C 252.800 152.168,250.415 150.740,247.500 149.087 C 236.886 143.069,235.314 142.213,235.800 142.713 M253.200 152.590 C 253.200 152.694,253.785 153.065,254.500 153.414 L 255.800 154.048 254.800 153.233 C 253.837 152.448,253.200 152.192,253.200 152.590 M258.400 155.564 C 258.950 156.014,259.580 156.383,259.800 156.385 C 260.228 156.388,259.505 155.834,258.200 155.160 C 257.669 154.885,257.736 155.021,258.400 155.564 M261.200 157.167 C 262.163 157.952,262.800 158.208,262.800 157.810 C 262.800 157.706,262.215 157.335,261.500 156.986 L 260.200 156.352 261.200 157.167 M263.400 158.317 C 263.777 158.701,264.340 159.034,268.800 161.514 C 269.790 162.064,272.400 163.543,274.600 164.800 C 276.800 166.058,279.050 167.304,279.600 167.570 L 280.600 168.054 279.600 167.236 C 279.050 166.786,278.483 166.414,278.340 166.409 C 278.197 166.404,275.227 164.763,271.740 162.762 C 264.681 158.712,262.809 157.714,263.400 158.317 M280.800 168.143 C 280.800 168.417,287.306 172.027,287.482 171.851 C 287.570 171.764,286.507 171.065,285.121 170.298 C 281.538 168.317,280.800 167.949,280.800 168.143 M290.800 173.741 C 290.800 174.008,294.490 176.043,294.663 175.871 C 294.740 175.793,293.903 175.239,292.802 174.640 C 291.701 174.040,290.800 173.636,290.800 173.741 M295.200 176.367 C 295.200 176.605,295.363 176.800,295.563 176.800 C 295.762 176.800,298.147 178.077,300.863 179.639 C 303.578 181.200,306.340 182.741,307.000 183.063 L 308.200 183.648 307.200 182.833 C 306.650 182.385,306.079 182.014,305.932 182.009 C 305.687 182.001,299.647 178.612,296.500 176.717 C 295.784 176.286,295.200 176.129,295.200 176.367 M312.000 185.921 C 314.020 187.293,316.483 189.800,317.477 191.495 C 318.038 192.453,318.583 193.151,318.687 193.046 C 319.318 192.415,312.633 185.169,311.468 185.221 C 311.210 185.233,311.450 185.548,312.000 185.921 M319.858 196.800 C 320.175 198.525,320.402 198.851,320.394 197.567 C 320.391 197.035,320.211 196.330,319.994 196.000 C 319.718 195.578,319.677 195.815,319.858 196.800 M320.537 201.800 C 320.539 203.560,320.609 204.230,320.693 203.289 C 320.778 202.349,320.777 200.909,320.691 200.089 C 320.605 199.270,320.536 200.040,320.537 201.800 M320.054 205.867 C 320.025 206.344,319.896 207.064,319.770 207.467 C 319.552 208.161,319.564 208.162,319.996 207.488 C 320.247 207.097,320.375 206.377,320.281 205.888 C 320.109 205.001,320.109 205.001,320.054 205.867 M318.319 210.511 C 316.959 213.251,314.839 215.658,312.385 217.248 C 311.294 217.956,310.486 218.619,310.590 218.723 C 310.925 219.058,315.071 215.693,316.509 213.919 C 317.914 212.187,319.784 208.851,319.506 208.572 C 319.423 208.490,318.889 209.362,318.319 210.511 M307.400 220.124 C 305.057 221.399,300.003 224.165,297.200 225.706 C 296.430 226.129,295.620 226.667,295.400 226.900 C 295.180 227.134,296.239 226.644,297.754 225.813 C 300.455 224.330,302.499 223.227,307.100 220.773 C 309.166 219.671,310.466 218.785,309.980 218.809 C 309.881 218.814,308.720 219.406,307.400 220.124 M291.111 228.960 C 288.787 230.341,288.782 230.606,291.100 229.441 C 292.255 228.861,293.200 228.300,293.200 228.193 C 293.200 227.849,292.629 228.058,291.111 228.960 M285.900 231.829 C 284.405 232.640,284.496 232.978,286.000 232.200 C 286.660 231.859,287.200 231.494,287.200 231.390 C 287.200 231.132,287.157 231.147,285.900 231.829 M281.500 234.229 C 280.895 234.557,280.400 234.910,280.400 235.013 C 280.400 235.399,281.032 235.157,282.000 234.400 C 283.189 233.470,283.011 233.409,281.500 234.229 M275.600 237.446 C 274.170 238.229,271.830 239.508,270.400 240.288 C 268.970 241.068,266.810 242.247,265.600 242.908 C 264.390 243.570,262.590 244.552,261.600 245.092 C 259.688 246.135,258.308 247.251,260.000 246.387 C 260.550 246.106,262.620 244.982,264.600 243.889 C 266.580 242.796,269.100 241.405,270.200 240.798 C 271.300 240.190,273.460 239.029,275.000 238.217 C 277.482 236.909,278.906 235.979,278.380 236.011 C 278.281 236.017,277.030 236.663,275.600 237.446 M254.876 248.683 C 253.928 249.235,253.226 249.759,253.316 249.849 C 253.492 250.026,257.200 248.038,257.200 247.766 C 257.200 247.446,256.585 247.689,254.876 248.683 M247.600 252.667 C 245.070 254.093,241.822 255.874,240.382 256.625 C 238.943 257.377,237.413 258.277,236.982 258.626 C 236.279 259.196,239.516 257.564,244.400 254.887 C 245.390 254.344,247.685 253.096,249.500 252.114 C 252.523 250.477,253.302 249.938,252.500 250.037 C 252.335 250.058,250.130 251.241,247.600 252.667 M234.000 260.065 C 231.969 261.238,231.519 261.833,233.400 260.859 C 235.414 259.817,236.316 259.206,235.800 259.235 C 235.580 259.247,234.770 259.621,234.000 260.065 M226.600 264.060 C 225.060 264.930,223.620 265.834,223.400 266.068 C 222.972 266.524,229.142 263.303,229.780 262.737 C 230.623 261.989,229.271 262.552,226.600 264.060 M221.000 267.200 C 219.436 268.236,219.992 268.237,221.690 267.201 C 222.411 266.762,222.820 266.404,222.600 266.404 C 222.380 266.405,221.660 266.763,221.000 267.200 M215.302 270.282 C 213.048 271.522,211.264 272.597,211.338 272.671 C 211.499 272.833,219.600 268.424,219.600 268.174 C 219.600 267.911,219.684 267.870,215.302 270.282 M206.800 274.865 C 204.565 276.156,204.397 276.609,206.600 275.407 C 208.798 274.208,209.114 273.986,208.567 274.028 C 208.365 274.044,207.570 274.421,206.800 274.865 M201.200 278.033 L 200.200 278.848 201.500 278.214 C 202.215 277.865,202.800 277.494,202.800 277.390 C 202.800 276.992,202.163 277.248,201.200 278.033 M196.800 280.433 L 195.800 281.248 197.100 280.614 C 197.815 280.265,198.400 279.894,198.400 279.790 C 198.400 279.392,197.763 279.648,196.800 280.433 M191.861 283.046 C 190.794 283.601,190.002 284.135,190.100 284.233 C 190.287 284.421,194.000 282.452,194.000 282.166 C 194.000 281.932,194.010 281.928,191.861 283.046 M187.461 285.446 C 186.394 286.001,185.602 286.535,185.700 286.633 C 185.887 286.821,189.600 284.852,189.600 284.566 C 189.600 284.332,189.610 284.328,187.461 285.446 M179.800 289.644 C 177.820 290.740,175.885 291.740,175.500 291.866 C 175.115 291.991,174.800 292.260,174.800 292.464 C 174.800 292.667,175.565 292.398,176.500 291.865 C 177.435 291.333,179.280 290.321,180.600 289.616 C 182.711 288.489,184.114 287.551,183.580 287.625 C 183.481 287.638,181.780 288.547,179.800 289.644 M169.600 295.233 L 168.600 296.048 169.900 295.414 C 170.615 295.065,171.200 294.694,171.200 294.590 C 171.200 294.192,170.563 294.448,169.600 295.233 M164.661 297.846 C 163.594 298.401,162.802 298.935,162.900 299.033 C 163.087 299.221,166.800 297.252,166.800 296.966 C 166.800 296.732,166.810 296.728,164.661 297.846 M111.246 299.445 C 111.081 303.933,113.384 309.055,116.803 311.800 C 117.351 312.240,116.932 311.649,115.871 310.487 C 113.472 307.857,112.447 305.581,111.798 301.435 C 111.520 299.656,111.271 298.760,111.246 299.445 M161.100 299.829 C 159.605 300.640,159.696 300.978,161.200 300.200 C 161.860 299.859,162.400 299.494,162.400 299.390 C 162.400 299.132,162.357 299.147,161.100 299.829 M154.200 303.521 C 148.691 306.522,146.000 308.075,146.000 308.253 C 146.000 308.422,149.308 306.706,154.400 303.897 C 155.724 303.167,156.774 302.381,156.380 302.416 C 156.281 302.425,155.300 302.922,154.200 303.521 M143.600 309.265 C 141.569 310.438,141.119 311.033,143.000 310.059 C 145.014 309.017,145.916 308.406,145.400 308.435 C 145.180 308.447,144.370 308.821,143.600 309.265 M139.111 311.760 C 137.016 313.005,136.684 313.463,138.600 312.465 C 140.605 311.420,141.519 310.803,141.000 310.844 C 140.780 310.861,139.930 311.274,139.111 311.760 M133.400 314.400 C 132.896 314.617,132.822 314.744,133.200 314.744 C 133.530 314.744,134.160 314.589,134.600 314.400 C 135.104 314.183,135.178 314.056,134.800 314.056 C 134.470 314.056,133.840 314.211,133.400 314.400 M124.426 315.248 C 124.962 315.398,126.570 315.520,128.000 315.520 C 129.430 315.520,131.038 315.398,131.574 315.248 C 132.110 315.098,130.502 314.976,128.000 314.976 C 125.498 314.976,123.890 315.098,124.426 315.248 " stroke="none" fill="#fcb484" fill-rule="evenodd"></path><path id="path3" d="M115.178 89.500 L 113.800 91.000 115.300 89.622 C 116.125 88.863,116.800 88.188,116.800 88.122 C 116.800 87.816,116.462 88.104,115.178 89.500 M110.909 100.800 C 110.909 101.790,110.987 102.195,111.082 101.700 C 111.178 101.205,111.178 100.395,111.082 99.900 C 110.987 99.405,110.909 99.810,110.909 100.800 M314.000 186.925 C 314.000 186.994,314.585 187.579,315.300 188.225 L 316.600 189.400 315.425 188.100 C 314.330 186.888,314.000 186.616,314.000 186.925 M320.924 201.800 C 320.926 203.120,321.001 203.612,321.090 202.893 C 321.179 202.174,321.177 201.094,321.086 200.493 C 320.995 199.892,320.922 200.480,320.924 201.800 M314.975 215.700 L 313.800 217.000 315.100 215.825 C 315.815 215.179,316.400 214.594,316.400 214.525 C 316.400 214.216,316.070 214.488,314.975 215.700 M110.901 299.400 C 110.905 300.280,110.987 300.593,111.083 300.095 C 111.179 299.598,111.175 298.878,111.075 298.495 C 110.975 298.113,110.896 298.520,110.901 299.400 " stroke="none" fill="#fc995a" fill-rule="evenodd"></path><path id="path4" d="M126.500 84.291 C 127.325 84.378,128.675 84.378,129.500 84.291 C 130.325 84.205,129.650 84.134,128.000 84.134 C 126.350 84.134,125.675 84.205,126.500 84.291 M111.073 97.353 C 110.923 97.745,110.811 98.366,110.825 98.733 C 110.842 99.175,110.981 99.074,111.237 98.434 C 111.449 97.903,111.561 97.282,111.485 97.054 C 111.409 96.827,111.224 96.961,111.073 97.353 M158.000 98.364 C 158.550 98.814,159.180 99.183,159.400 99.185 C 159.828 99.188,159.105 98.634,157.800 97.960 C 157.269 97.685,157.336 97.821,158.000 98.364 M165.200 102.420 C 166.587 103.361,167.378 103.635,166.400 102.836 C 165.850 102.386,165.220 102.017,165.000 102.015 C 164.780 102.013,164.870 102.196,165.200 102.420 M190.600 116.690 C 190.820 116.898,191.900 117.559,193.000 118.159 C 194.100 118.759,194.640 118.955,194.200 118.594 C 193.305 117.859,189.973 116.097,190.600 116.690 M195.600 119.620 C 196.987 120.561,197.778 120.835,196.800 120.036 C 196.250 119.586,195.620 119.217,195.400 119.215 C 195.180 119.213,195.270 119.396,195.600 119.620 M220.200 133.406 C 221.095 134.141,224.427 135.903,223.800 135.310 C 223.580 135.102,222.500 134.441,221.400 133.841 C 220.300 133.241,219.760 133.045,220.200 133.406 M255.200 153.220 C 256.587 154.161,257.378 154.435,256.400 153.636 C 255.850 153.186,255.220 152.817,255.000 152.815 C 254.780 152.813,254.870 152.996,255.200 153.220 M274.800 164.179 C 274.800 164.289,275.340 164.659,276.000 165.000 C 276.660 165.341,277.200 165.531,277.200 165.421 C 277.200 165.311,276.660 164.941,276.000 164.600 C 275.340 164.259,274.800 164.069,274.800 164.179 M280.000 167.220 C 281.387 168.161,282.178 168.435,281.200 167.636 C 280.650 167.186,280.020 166.817,279.800 166.815 C 279.580 166.813,279.670 166.996,280.000 167.220 M305.200 181.379 C 305.200 181.489,305.740 181.859,306.400 182.200 C 307.060 182.541,307.600 182.731,307.600 182.621 C 307.600 182.511,307.060 182.141,306.400 181.800 C 305.740 181.459,305.200 181.269,305.200 181.379 M310.400 184.420 C 311.787 185.361,312.578 185.635,311.600 184.836 C 311.050 184.386,310.420 184.017,310.200 184.015 C 309.980 184.013,310.070 184.196,310.400 184.420 M319.667 194.820 C 319.901 195.492,320.167 195.967,320.257 195.876 C 320.456 195.678,319.701 193.600,319.431 193.600 C 319.327 193.600,319.433 194.149,319.667 194.820 M320.480 197.000 C 320.480 197.440,320.624 198.250,320.800 198.800 C 321.054 199.592,321.120 199.633,321.120 199.000 C 321.120 198.560,320.976 197.750,320.800 197.200 C 320.546 196.408,320.480 196.367,320.480 197.000 M320.622 205.422 C 320.472 206.225,320.428 206.962,320.526 207.060 C 320.624 207.157,320.827 206.581,320.978 205.778 C 321.128 204.975,321.172 204.238,321.074 204.140 C 320.976 204.043,320.773 204.619,320.622 205.422 M315.808 215.100 C 314.949 216.145,314.660 216.640,315.166 216.200 C 316.061 215.422,317.798 213.200,317.512 213.200 C 317.434 213.200,316.667 214.055,315.808 215.100 M311.100 218.629 C 309.605 219.440,309.696 219.778,311.200 219.000 C 311.860 218.659,312.400 218.294,312.400 218.190 C 312.400 217.932,312.357 217.947,311.100 218.629 M288.300 231.077 C 287.256 231.658,286.463 232.197,286.540 232.273 C 286.700 232.434,290.400 230.414,290.400 230.166 C 290.400 229.915,290.343 229.940,288.300 231.077 M253.100 250.229 C 251.605 251.040,251.696 251.378,253.200 250.600 C 253.860 250.259,254.400 249.894,254.400 249.790 C 254.400 249.532,254.357 249.547,253.100 250.229 M225.900 265.029 C 224.405 265.840,224.496 266.178,226.000 265.400 C 226.660 265.059,227.200 264.694,227.200 264.590 C 227.200 264.332,227.157 264.347,225.900 265.029 M191.100 284.027 C 190.275 284.463,189.600 284.908,189.600 285.018 C 189.600 285.127,190.320 284.849,191.200 284.400 C 192.080 283.951,192.800 283.497,192.800 283.392 C 192.800 283.130,192.797 283.131,191.100 284.027 M110.806 301.433 C 110.809 301.855,110.995 302.470,111.218 302.800 C 111.515 303.238,111.552 303.076,111.356 302.200 C 111.027 300.729,110.798 300.410,110.806 301.433 M114.000 309.725 C 114.000 309.794,114.585 310.379,115.300 311.025 L 116.600 312.200 115.425 310.900 C 114.330 309.688,114.000 309.416,114.000 309.725 M124.138 315.694 C 124.392 315.856,126.130 315.988,128.000 315.988 C 129.870 315.988,131.608 315.856,131.862 315.694 C 132.116 315.532,130.378 315.400,128.000 315.400 C 125.622 315.400,123.884 315.532,124.138 315.694 " stroke="none" fill="#fc8437" fill-rule="evenodd"></path></g></svg>