<svg id="svg" version="1.1" xmlns="http://www.w3.org/2000/svg" xmlns:xlink="http://www.w3.org/1999/xlink" width="400" height="400" viewBox="0, 0, 400,400"><g id="svgg"><path id="path0" d="M246.200 39.436 C 238.094 41.578,225.313 45.846,225.737 46.270 C 225.825 46.359,226.686 46.157,227.649 45.821 C 229.506 45.175,230.900 45.001,230.182 45.506 C 229.953 45.668,229.773 46.700,229.782 47.800 C 229.808 50.700,229.169 73.826,228.995 76.277 L 228.848 78.353 230.924 78.736 C 232.066 78.946,235.520 79.407,238.600 79.760 C 268.440 83.182,287.248 97.387,298.189 124.768 C 310.607 155.843,307.947 202.937,291.357 245.726 C 280.616 273.431,272.700 286.490,250.218 313.597 C 220.017 350.011,180.163 384.937,153.253 398.573 C 152.124 399.145,151.200 399.704,151.200 399.814 C 151.200 399.924,193.220 400.004,244.578 399.992 L 337.955 399.971 338.221 399.135 C 338.461 398.378,338.689 398.324,340.671 398.557 C 341.872 398.698,342.765 398.667,342.654 398.487 C 342.543 398.307,342.793 397.947,343.211 397.686 C 343.839 397.294,343.931 397.314,343.742 397.806 C 343.601 398.174,343.750 398.400,344.134 398.400 C 344.945 398.400,345.346 397.730,344.702 397.450 C 344.426 397.330,344.695 397.334,345.300 397.459 C 346.505 397.708,346.858 396.995,345.700 396.650 C 345.315 396.536,345.788 396.542,346.751 396.665 C 348.012 396.825,348.422 396.759,348.217 396.428 C 348.018 396.105,348.240 396.045,348.966 396.227 C 350.002 396.487,350.485 395.821,349.500 395.491 C 349.225 395.399,349.518 395.405,350.150 395.505 C 350.968 395.633,351.215 395.548,351.006 395.210 C 350.815 394.901,350.973 394.762,351.456 394.814 C 352.726 394.948,353.024 394.805,352.400 394.362 C 351.938 394.033,352.053 393.990,352.900 394.175 C 353.537 394.314,354.000 394.244,354.000 394.008 C 354.000 393.783,354.225 393.645,354.500 393.700 C 354.775 393.755,354.948 393.553,354.884 393.251 C 354.805 392.878,354.991 392.788,355.466 392.970 C 356.406 393.331,358.878 391.980,358.601 391.257 C 358.449 390.863,358.621 390.764,359.195 390.914 C 359.703 391.048,359.904 390.968,359.738 390.700 C 359.569 390.427,359.785 390.355,360.337 390.500 C 361.256 390.740,361.539 390.223,360.700 389.837 C 360.425 389.711,360.605 389.708,361.100 389.831 C 361.595 389.953,362.000 389.881,362.000 389.670 C 362.000 389.459,362.457 389.172,363.016 389.032 C 363.575 388.891,363.933 388.615,363.810 388.417 C 363.688 388.219,363.996 387.999,364.494 387.928 C 365.048 387.850,365.381 387.541,365.350 387.133 C 365.323 386.767,365.638 386.379,366.051 386.271 C 366.463 386.163,366.702 386.236,366.580 386.433 C 366.458 386.630,366.648 386.680,367.002 386.544 C 367.356 386.408,367.555 386.059,367.443 385.769 C 367.308 385.415,367.454 385.323,367.886 385.488 C 368.353 385.668,368.440 385.588,368.200 385.200 C 367.962 384.815,368.045 384.732,368.497 384.905 C 369.212 385.180,370.169 384.247,370.591 382.863 C 370.795 382.196,371.095 381.984,371.634 382.125 C 372.565 382.368,374.525 380.902,374.245 380.172 C 374.126 379.862,374.248 379.720,374.540 379.832 C 375.233 380.098,376.960 378.182,376.580 377.568 C 376.378 377.241,376.442 377.179,376.771 377.382 C 377.371 377.753,379.686 375.663,379.324 375.077 C 379.173 374.832,379.283 374.804,379.606 375.004 C 379.982 375.236,380.067 375.153,379.900 374.715 C 379.742 374.304,379.885 374.116,380.332 374.150 C 380.737 374.180,380.978 373.927,380.945 373.504 C 380.915 373.122,381.030 372.895,381.200 373.000 C 381.729 373.327,382.427 372.140,382.169 371.351 C 381.969 370.735,382.001 370.708,382.349 371.200 C 382.838 371.893,384.982 369.743,385.437 368.103 C 385.573 367.609,385.833 367.297,386.014 367.409 C 386.432 367.667,386.934 366.140,386.605 365.608 C 386.469 365.387,386.607 365.305,386.915 365.423 C 387.486 365.642,388.686 364.552,388.299 364.166 C 388.181 364.048,388.534 363.502,389.083 362.953 C 389.690 362.346,390.005 361.664,389.887 361.212 C 389.755 360.707,389.950 360.402,390.496 360.259 C 391.132 360.093,391.245 359.836,391.042 359.025 C 390.781 357.987,391.341 357.580,391.763 358.500 C 391.889 358.775,391.891 358.590,391.766 358.090 C 391.642 357.589,391.688 357.229,391.870 357.290 C 392.369 357.456,392.483 357.081,392.176 356.283 C 392.025 355.888,392.013 355.453,392.151 355.316 C 392.288 355.179,392.400 355.367,392.400 355.733 C 392.400 356.100,392.576 356.400,392.790 356.400 C 393.005 356.400,393.091 355.815,392.982 355.100 C 392.835 354.131,392.873 354.004,393.134 354.600 C 393.601 355.672,395.244 352.453,394.900 351.139 C 394.735 350.510,394.811 350.360,395.180 350.587 C 395.556 350.820,395.639 350.605,395.505 349.750 C 395.405 349.118,395.399 348.825,395.491 349.100 C 395.805 350.036,396.491 349.617,396.246 348.639 C 395.915 347.321,396.388 345.200,397.013 345.200 C 397.327 345.200,397.461 344.852,397.358 344.300 C 397.266 343.805,397.298 343.626,397.430 343.902 C 397.561 344.179,397.833 344.303,398.034 344.179 C 398.616 343.819,398.459 343.200,397.786 343.200 C 397.293 343.200,397.257 343.040,397.606 342.389 C 397.845 341.943,398.203 341.678,398.403 341.802 C 398.613 341.932,398.662 341.156,398.520 339.950 C 398.357 338.578,398.413 337.961,398.683 338.128 C 398.908 338.267,399.013 338.880,398.915 339.490 C 398.778 340.349,398.832 340.464,399.156 340.000 C 399.390 339.665,399.465 338.711,399.326 337.839 C 399.161 336.795,399.217 336.364,399.498 336.537 C 399.789 336.717,399.936 326.542,399.977 303.248 C 400.043 266.225,400.251 269.200,397.601 269.200 C 396.977 269.200,396.403 269.008,396.325 268.774 C 396.247 268.540,395.422 268.246,394.491 268.122 C 393.561 267.997,392.800 267.740,392.800 267.552 C 392.800 267.364,392.080 267.094,391.200 266.954 C 390.320 266.813,389.600 266.541,389.600 266.349 C 389.600 266.157,389.060 266.000,388.400 266.000 C 387.740 266.000,387.200 265.822,387.200 265.605 C 387.200 265.387,386.480 265.094,385.600 264.954 C 384.720 264.813,384.000 264.561,384.000 264.394 C 384.000 264.227,383.190 263.969,382.200 263.821 C 381.210 263.672,380.400 263.405,380.400 263.227 C 380.400 263.049,379.500 262.784,378.400 262.638 C 377.300 262.492,376.400 262.199,376.400 261.986 C 376.400 261.774,376.040 261.600,375.600 261.600 C 375.160 261.600,374.800 261.437,374.800 261.238 C 374.800 261.038,373.900 260.751,372.800 260.600 C 371.700 260.449,370.800 260.182,370.800 260.007 C 370.800 259.832,370.170 259.571,369.400 259.426 C 368.630 259.282,368.000 259.017,368.000 258.838 C 368.000 258.658,367.056 258.400,365.902 258.263 C 364.749 258.126,363.745 257.836,363.672 257.617 C 363.599 257.398,362.653 257.102,361.570 256.958 C 360.486 256.815,359.600 256.540,359.600 256.348 C 359.600 256.157,359.330 256.000,359.000 256.000 C 358.670 256.000,358.400 255.844,358.400 255.653 C 358.400 255.462,357.654 255.205,356.742 255.083 C 355.831 254.961,354.976 254.685,354.842 254.470 C 354.709 254.254,353.706 253.944,352.613 253.781 C 351.520 253.617,350.382 253.239,350.084 252.942 C 349.787 252.644,349.016 252.400,348.371 252.400 C 347.727 252.400,347.200 252.220,347.200 252.000 C 347.200 251.780,346.750 251.600,346.200 251.600 C 345.650 251.600,345.200 251.436,345.200 251.235 C 345.200 251.034,344.435 250.742,343.500 250.586 C 342.565 250.430,341.691 250.130,341.558 249.921 C 341.424 249.711,340.569 249.439,339.658 249.317 C 338.746 249.195,338.000 248.955,338.000 248.785 C 338.000 248.614,337.100 248.351,336.000 248.200 C 334.900 248.049,334.000 247.785,334.000 247.614 C 334.000 247.442,333.280 247.187,332.400 247.046 C 331.520 246.906,330.800 246.613,330.800 246.395 C 330.800 246.178,330.440 246.000,330.000 246.000 C 329.560 246.000,329.200 245.843,329.200 245.652 C 329.200 245.461,328.368 245.210,327.351 245.096 C 326.333 244.981,325.388 244.715,325.251 244.505 C 325.113 244.295,324.295 244.012,323.432 243.876 C 322.570 243.740,321.760 243.464,321.632 243.263 C 321.505 243.062,320.635 242.770,319.700 242.614 C 318.765 242.458,318.000 242.166,318.000 241.965 C 318.000 241.764,317.550 241.600,317.000 241.600 C 316.450 241.600,316.000 241.443,316.000 241.252 C 316.000 241.060,315.100 240.784,314.000 240.638 C 312.900 240.492,312.000 240.214,312.000 240.021 C 312.000 239.828,311.235 239.542,310.300 239.386 C 309.365 239.230,308.491 238.930,308.358 238.721 C 308.224 238.511,307.369 238.239,306.458 238.117 C 305.430 237.979,304.800 237.687,304.800 237.347 C 304.800 236.478,304.183 236.710,303.600 237.799 C 303.306 238.349,303.011 238.744,302.944 238.677 C 302.877 238.611,304.663 234.875,306.911 230.376 C 309.160 225.877,311.430 221.207,311.956 219.998 C 312.482 218.789,313.356 216.810,313.898 215.600 C 314.440 214.390,315.504 211.870,316.262 210.000 C 317.020 208.130,317.802 206.240,318.000 205.800 C 318.588 204.497,321.539 195.534,321.952 193.800 C 322.162 192.920,322.956 189.950,323.718 187.200 C 324.480 184.450,325.198 181.750,325.314 181.200 C 325.430 180.650,325.796 179.030,326.127 177.600 C 328.910 165.573,331.096 152.735,332.054 142.800 C 336.316 98.581,326.329 66.355,303.400 50.335 C 288.004 39.577,263.403 34.890,246.200 39.436 M223.400 47.014 C 222.400 47.496,222.366 47.551,223.200 47.348 C 224.333 47.071,225.607 46.421,225.000 46.430 C 224.780 46.433,224.060 46.696,223.400 47.014 M339.000 399.200 C 339.136 399.420,339.496 399.600,339.800 399.600 C 340.104 399.600,340.464 399.420,340.600 399.200 C 340.741 398.972,340.396 398.800,339.800 398.800 C 339.204 398.800,338.859 398.972,339.000 399.200 " stroke="none" fill="#ef8a23" fill-rule="evenodd"></path><path id="path1" d="M63.305 0.480 C 63.596 1.258,62.632 1.701,60.892 1.587 C 59.239 1.478,58.941 1.574,59.600 2.000 C 60.453 2.551,58.206 2.538,57.174 1.986 C 56.563 1.659,56.400 1.703,56.400 2.194 C 56.400 2.657,56.145 2.751,55.400 2.564 C 54.381 2.309,53.961 2.956,54.900 3.335 C 55.175 3.446,55.040 3.552,54.600 3.571 C 54.160 3.590,53.317 3.857,52.727 4.165 C 51.461 4.825,49.224 5.393,48.460 5.249 C 48.147 5.189,48.037 5.337,48.200 5.600 C 48.378 5.888,48.210 6.007,47.740 5.927 C 47.279 5.848,47.044 6.008,47.117 6.351 C 47.197 6.728,46.975 6.834,46.416 6.688 C 45.967 6.571,45.700 6.638,45.823 6.837 C 45.946 7.037,45.782 7.200,45.457 7.200 C 45.132 7.200,44.807 7.367,44.733 7.570 C 44.660 7.774,44.060 8.059,43.400 8.203 C 42.490 8.401,42.345 8.362,42.800 8.038 C 43.837 7.302,42.655 7.569,41.497 8.333 C 40.890 8.733,40.501 9.167,40.631 9.298 C 41.029 9.696,38.957 10.835,38.297 10.582 C 37.958 10.452,37.543 10.568,37.375 10.841 C 37.159 11.189,37.272 11.258,37.755 11.073 C 38.180 10.909,38.344 10.967,38.185 11.224 C 38.044 11.452,37.630 11.599,37.265 11.552 C 36.232 11.417,34.344 12.477,34.569 13.064 C 34.694 13.389,34.287 13.725,33.485 13.956 C 32.778 14.161,32.470 14.362,32.800 14.404 C 33.130 14.446,32.950 14.613,32.400 14.775 C 31.850 14.938,31.453 15.303,31.517 15.587 C 31.595 15.932,31.353 16.029,30.785 15.880 C 30.193 15.725,29.997 15.816,30.137 16.179 C 30.255 16.488,30.065 16.680,29.668 16.650 C 29.301 16.623,29.000 16.870,29.000 17.200 C 29.000 17.932,27.347 19.338,26.849 19.030 C 26.390 18.747,25.513 19.780,25.891 20.158 C 26.048 20.314,25.853 20.318,25.458 20.167 C 24.905 19.955,24.770 20.064,24.870 20.646 C 24.957 21.152,24.778 21.383,24.324 21.348 C 23.952 21.320,23.550 21.554,23.429 21.869 C 23.291 22.229,23.379 22.337,23.666 22.159 C 23.957 21.979,24.014 22.054,23.821 22.365 C 23.655 22.634,23.269 22.759,22.964 22.642 C 22.659 22.525,22.452 22.557,22.505 22.714 C 22.557 22.871,22.420 23.057,22.200 23.126 C 21.980 23.196,21.590 23.646,21.332 24.126 C 21.075 24.607,20.715 25.000,20.532 25.000 C 20.350 25.000,20.200 25.270,20.199 25.600 C 20.199 25.930,20.083 26.110,19.941 26.000 C 19.590 25.727,17.982 27.223,18.045 27.764 C 18.164 28.798,17.960 29.160,17.384 28.938 C 17.045 28.808,16.796 28.859,16.831 29.051 C 16.993 29.937,16.749 30.355,16.195 30.143 C 15.779 29.983,15.662 30.095,15.818 30.503 C 15.965 30.885,15.736 31.176,15.171 31.324 C 14.586 31.477,14.375 31.757,14.534 32.171 C 14.675 32.538,14.574 32.752,14.286 32.695 C 14.019 32.643,13.776 32.870,13.746 33.200 C 13.717 33.530,13.672 34.019,13.646 34.287 C 13.621 34.556,13.328 34.671,12.995 34.543 C 12.546 34.371,12.461 34.493,12.663 35.021 C 12.844 35.493,12.786 35.638,12.488 35.454 C 11.950 35.122,11.227 36.373,11.506 37.156 C 11.628 37.497,11.528 37.603,11.249 37.430 C 10.782 37.142,9.941 38.741,10.268 39.295 C 10.363 39.458,10.184 39.492,9.868 39.371 C 9.176 39.105,8.205 41.433,8.844 41.827 C 9.070 41.967,8.891 42.374,8.427 42.776 C 7.980 43.164,7.741 43.607,7.895 43.762 C 8.049 43.916,7.845 43.916,7.442 43.761 C 6.821 43.523,6.752 43.620,6.997 44.390 C 7.211 45.066,7.157 45.220,6.785 44.990 C 6.409 44.758,6.344 44.972,6.526 45.840 C 6.659 46.478,6.670 46.775,6.551 46.500 C 6.155 45.589,5.736 45.982,5.901 47.109 C 6.012 47.863,5.806 48.452,5.259 48.947 C 4.816 49.347,4.556 49.940,4.680 50.265 C 4.967 51.011,4.008 52.852,3.497 52.536 C 3.270 52.396,3.224 52.646,3.384 53.148 C 3.663 54.027,2.850 56.878,2.400 56.600 C 2.259 56.513,2.224 56.980,2.320 57.637 C 2.445 58.490,2.342 58.799,1.960 58.716 C 1.583 58.634,1.460 58.980,1.542 59.891 C 1.669 61.295,0.647 63.260,0.274 62.328 C 0.157 62.034,0.049 62.184,0.032 62.667 C 0.014 63.143,0.152 63.593,0.338 63.667 C 0.524 63.740,0.540 64.880,0.372 66.200 C -0.445 72.636,-0.038 194.000,0.800 194.000 C 1.240 194.000,1.600 194.166,1.600 194.368 C 1.600 194.571,2.140 194.855,2.800 195.000 C 3.460 195.145,4.000 195.429,4.000 195.632 C 4.000 195.834,4.431 196.000,4.957 196.000 C 5.484 196.000,6.018 196.270,6.145 196.600 C 6.271 196.930,6.741 197.200,7.187 197.200 C 7.634 197.200,8.000 197.366,8.000 197.568 C 8.000 197.771,8.540 198.055,9.200 198.200 C 9.860 198.345,10.400 198.629,10.400 198.832 C 10.400 199.034,10.747 199.200,11.171 199.200 C 11.596 199.200,12.204 199.461,12.523 199.780 C 12.842 200.099,13.575 200.479,14.152 200.624 C 14.728 200.768,15.200 201.047,15.200 201.243 C 15.200 201.440,15.470 201.600,15.800 201.600 C 16.130 201.600,16.400 201.780,16.400 202.000 C 16.400 202.220,16.837 202.400,17.371 202.400 C 17.906 202.400,18.604 202.661,18.923 202.980 C 19.242 203.299,19.975 203.679,20.552 203.824 C 21.128 203.968,21.600 204.245,21.600 204.439 C 21.600 204.632,22.315 204.905,23.189 205.045 C 24.234 205.212,24.857 205.551,25.011 206.035 C 25.153 206.481,25.789 206.874,26.623 207.031 C 27.380 207.173,28.000 207.435,28.000 207.613 C 28.000 207.791,28.525 208.052,29.167 208.193 C 29.808 208.334,30.433 208.708,30.554 209.024 C 30.676 209.341,31.153 209.600,31.616 209.600 C 32.079 209.600,32.727 209.870,33.057 210.200 C 33.387 210.530,34.004 210.800,34.429 210.800 C 34.853 210.800,35.200 210.980,35.200 211.200 C 35.200 211.420,35.393 211.600,35.629 211.600 C 35.864 211.600,36.327 211.870,36.657 212.200 C 36.987 212.530,37.675 212.800,38.186 212.800 C 38.697 212.800,39.218 213.070,39.345 213.400 C 39.471 213.730,40.031 214.000,40.587 214.000 C 41.144 214.000,41.600 214.160,41.600 214.357 C 41.600 214.553,42.050 214.826,42.600 214.964 C 43.150 215.102,43.600 215.392,43.600 215.608 C 43.600 215.823,43.883 216.000,44.229 216.000 C 44.574 216.000,45.127 216.270,45.457 216.600 C 45.787 216.930,46.494 217.200,47.029 217.200 C 47.563 217.200,48.000 217.380,48.000 217.600 C 48.000 217.820,48.276 218.000,48.613 218.000 C 48.949 218.000,49.329 218.270,49.455 218.600 C 49.582 218.930,50.122 219.200,50.655 219.200 C 51.189 219.200,51.721 219.449,51.837 219.753 C 51.954 220.057,52.715 220.412,53.529 220.542 C 54.345 220.673,55.270 221.142,55.592 221.589 C 55.914 222.035,56.593 222.400,57.101 222.400 C 57.609 222.400,58.121 222.649,58.237 222.953 C 58.354 223.257,59.139 223.616,59.981 223.751 C 60.823 223.885,61.617 224.267,61.744 224.598 C 61.871 224.929,62.391 225.200,62.899 225.200 C 63.407 225.200,64.075 225.550,64.383 225.977 C 64.691 226.404,65.617 226.868,66.440 227.007 C 67.264 227.146,68.036 227.516,68.156 227.830 C 68.276 228.143,68.811 228.400,69.345 228.400 C 69.878 228.400,70.418 228.670,70.545 229.000 C 70.671 229.330,71.051 229.600,71.387 229.600 C 71.724 229.600,72.000 229.760,72.000 229.955 C 72.000 230.151,72.630 230.429,73.400 230.574 C 74.170 230.718,74.800 231.008,74.800 231.218 C 74.800 231.428,75.051 231.600,75.357 231.600 C 75.664 231.600,76.018 231.870,76.145 232.200 C 76.271 232.530,76.831 232.800,77.387 232.800 C 77.944 232.800,78.400 232.966,78.400 233.168 C 78.400 233.371,78.940 233.655,79.600 233.800 C 80.260 233.945,80.800 234.210,80.800 234.388 C 80.800 234.567,81.250 234.826,81.800 234.964 C 82.350 235.102,82.800 235.392,82.800 235.608 C 82.800 235.823,83.184 236.000,83.653 236.000 C 84.122 236.000,84.842 236.388,85.253 236.861 L 86.000 237.722 86.000 236.861 C 86.000 236.388,86.168 236.000,86.373 236.000 C 86.579 236.000,86.824 235.595,86.918 235.100 C 87.012 234.605,87.007 235.010,86.906 236.000 C 86.804 236.990,86.595 237.890,86.439 238.000 C 86.284 238.110,85.960 239.010,85.720 240.000 C 85.479 240.990,85.000 242.790,84.656 244.000 C 84.311 245.210,83.648 247.730,83.182 249.600 C 82.717 251.470,82.181 253.360,81.991 253.800 C 81.802 254.240,81.465 255.410,81.244 256.400 C 81.022 257.390,80.575 259.190,80.251 260.400 C 79.926 261.610,79.277 264.130,78.807 266.000 C 78.338 267.870,77.694 270.276,77.377 271.346 C 76.740 273.494,76.578 275.862,77.195 274.000 C 77.377 273.450,78.108 270.750,78.820 268.000 C 81.517 257.581,85.476 243.326,88.263 234.000 C 88.822 232.130,89.515 229.790,89.803 228.800 C 93.695 215.446,104.448 184.136,107.182 178.200 C 107.384 177.760,108.907 174.122,110.565 170.116 C 114.084 161.617,114.297 161.142,118.602 152.200 C 122.292 144.536,128.751 132.777,133.212 125.600 C 157.230 86.961,186.654 61.590,225.157 46.320 C 256.489 33.894,288.794 31.287,317.200 38.891 C 318.850 39.332,320.740 39.825,321.400 39.985 C 343.370 45.317,371.147 63.097,393.256 85.980 L 400.000 92.960 399.966 81.380 C 399.948 75.011,399.802 68.754,399.643 67.476 C 399.483 66.198,399.498 65.063,399.676 64.953 C 399.854 64.843,400.000 64.393,400.000 63.953 C 400.000 63.513,399.820 63.264,399.600 63.400 C 399.380 63.536,399.200 63.367,399.200 63.024 C 399.200 62.681,398.997 62.400,398.748 62.400 C 398.437 62.400,398.378 61.747,398.558 60.300 C 398.740 58.832,398.697 58.381,398.416 58.800 C 398.053 59.339,397.827 59.095,397.953 58.300 C 397.979 58.135,397.803 58.000,397.563 58.000 C 397.287 58.000,397.195 57.399,397.313 56.376 C 397.453 55.168,397.370 54.803,396.990 54.949 C 396.709 55.056,396.388 54.797,396.277 54.372 C 396.160 53.926,396.240 53.701,396.467 53.841 C 396.683 53.975,396.622 53.705,396.333 53.242 C 396.044 52.779,395.648 52.400,395.454 52.400 C 395.259 52.400,395.207 51.866,395.337 51.214 C 395.520 50.299,395.386 49.895,394.749 49.449 C 394.177 49.049,394.002 48.623,394.179 48.065 C 394.351 47.525,394.208 47.133,393.748 46.875 C 393.338 46.646,393.015 45.903,392.947 45.033 C 392.822 43.453,392.503 42.692,392.072 42.951 C 391.923 43.042,391.577 42.874,391.304 42.579 C 390.993 42.243,390.955 41.951,391.203 41.798 C 391.697 41.493,390.569 39.200,389.923 39.200 C 389.672 39.200,389.585 39.082,389.730 38.937 C 390.089 38.577,389.197 37.555,388.759 37.825 C 388.567 37.944,388.513 37.772,388.639 37.441 C 389.094 36.257,387.148 33.787,386.637 34.900 C 386.511 35.175,386.492 35.040,386.595 34.600 C 386.827 33.606,386.242 32.603,385.645 32.972 C 385.400 33.124,385.179 33.012,385.154 32.724 C 385.128 32.436,385.083 31.936,385.054 31.613 C 385.024 31.290,384.596 30.824,384.102 30.577 C 383.609 30.331,383.324 30.010,383.469 29.864 C 383.614 29.719,383.513 29.600,383.243 29.600 C 382.971 29.600,382.881 29.392,383.042 29.132 C 383.240 28.811,383.108 28.750,382.621 28.937 C 382.095 29.138,381.971 29.054,382.141 28.609 C 382.268 28.279,382.243 28.029,382.086 28.052 C 381.345 28.163,380.800 27.961,380.800 27.576 C 380.800 27.343,381.025 27.270,381.300 27.413 C 381.575 27.557,381.080 27.005,380.200 26.187 C 379.320 25.370,378.578 24.543,378.550 24.350 C 378.523 24.158,378.478 23.820,378.450 23.600 C 378.423 23.380,378.100 23.200,377.733 23.200 C 377.367 23.200,377.183 23.083,377.326 22.941 C 377.706 22.560,375.969 21.172,375.487 21.470 C 375.261 21.610,375.197 21.529,375.344 21.291 C 375.494 21.048,375.214 20.732,374.706 20.571 C 373.319 20.132,372.027 19.072,372.013 18.362 C 371.994 17.433,370.628 16.337,369.858 16.633 C 369.410 16.805,369.200 16.673,369.200 16.219 C 369.200 15.853,369.022 15.663,368.805 15.797 C 368.578 15.937,368.511 15.777,368.647 15.421 C 368.831 14.942,368.602 14.800,367.643 14.800 C 366.959 14.800,366.400 14.609,366.400 14.376 C 366.400 14.143,366.625 14.088,366.900 14.253 C 367.263 14.471,367.255 14.374,366.871 13.901 C 366.580 13.541,366.089 13.344,365.781 13.463 C 365.193 13.688,364.489 13.141,363.644 11.800 C 363.262 11.194,363.192 11.170,363.357 11.700 C 363.477 12.085,363.482 12.400,363.369 12.400 C 362.968 12.400,361.252 10.481,361.464 10.270 C 361.582 10.151,361.279 10.159,360.789 10.287 C 360.197 10.442,359.775 10.299,359.530 9.860 C 359.326 9.497,358.831 9.200,358.429 9.200 C 357.628 9.200,356.660 8.273,357.053 7.881 C 357.188 7.746,356.831 7.720,356.259 7.824 C 355.533 7.955,355.278 7.860,355.413 7.506 C 355.541 7.168,355.164 6.978,354.277 6.934 C 352.793 6.859,350.154 5.510,350.285 4.892 C 350.335 4.657,349.781 4.571,348.937 4.685 C 348.149 4.791,347.601 4.723,347.718 4.533 C 347.836 4.342,347.497 3.982,346.965 3.731 C 346.434 3.480,346.084 3.412,346.187 3.580 C 346.456 4.014,344.249 3.556,343.963 3.118 C 343.832 2.918,343.024 2.668,342.167 2.562 C 341.310 2.456,340.436 2.196,340.224 1.984 C 340.013 1.773,339.201 1.597,338.420 1.594 C 337.356 1.589,337.150 1.491,337.600 1.200 C 338.085 0.886,338.028 0.811,337.300 0.806 C 336.805 0.803,336.397 0.575,336.394 0.300 C 336.390 -0.033,336.258 0.000,336.000 0.400 C 335.753 0.782,335.610 0.823,335.606 0.511 C 335.599 -0.095,66.695 -0.038,65.434 0.568 C 64.881 0.834,64.749 0.806,64.958 0.468 C 65.133 0.184,64.992 -0.000,64.600 -0.000 C 64.189 -0.000,64.062 0.182,64.253 0.500 C 64.428 0.791,64.239 0.749,63.802 0.400 C 63.122 -0.142,63.075 -0.135,63.305 0.480 M395.600 51.400 C 395.600 51.730,395.780 52.000,396.000 52.000 C 396.220 52.000,396.400 51.730,396.400 51.400 C 396.400 51.070,396.220 50.800,396.000 50.800 C 395.780 50.800,395.600 51.070,395.600 51.400 M2.782 53.700 C 2.737 53.865,2.675 54.135,2.644 54.300 C 2.613 54.465,2.430 54.870,2.238 55.200 C 1.973 55.652,2.060 55.638,2.590 55.139 C 2.977 54.776,3.196 54.236,3.078 53.939 C 2.960 53.643,2.826 53.535,2.782 53.700 M197.600 123.960 C 196.610 124.092,199.760 124.200,204.600 124.200 C 209.440 124.200,212.410 124.083,211.200 123.940 C 208.502 123.620,200.054 123.633,197.600 123.960 M192.200 124.599 C 191.980 124.673,191.107 124.851,190.259 124.993 C 189.412 125.135,188.791 125.324,188.879 125.413 C 188.968 125.501,190.381 125.329,192.020 125.030 C 193.659 124.731,194.460 124.481,193.800 124.475 C 193.140 124.468,192.420 124.524,192.200 124.599 M215.800 124.823 C 216.680 125.005,217.850 125.144,218.400 125.131 C 219.041 125.116,218.826 124.989,217.800 124.777 C 216.920 124.595,215.750 124.456,215.200 124.469 C 214.559 124.484,214.774 124.611,215.800 124.823 M186.200 126.000 C 185.181 126.438,186.232 126.438,187.600 126.000 C 188.404 125.743,188.443 125.677,187.800 125.668 C 187.360 125.662,186.640 125.811,186.200 126.000 M222.000 126.000 C 222.550 126.176,223.360 126.320,223.800 126.320 C 224.433 126.320,224.392 126.254,223.600 126.000 C 223.050 125.824,222.240 125.680,221.800 125.680 C 221.167 125.680,221.208 125.746,222.000 126.000 M180.891 127.683 C 179.730 128.140,178.847 128.581,178.929 128.662 C 179.010 128.743,180.229 128.366,181.638 127.824 C 183.047 127.283,183.930 126.842,183.600 126.845 C 183.270 126.849,182.051 127.226,180.891 127.683 M228.433 127.765 C 228.755 128.083,232.954 129.579,233.104 129.430 C 233.187 129.346,232.246 128.901,231.013 128.439 C 228.827 127.621,228.094 127.430,228.433 127.765 M176.800 129.400 C 176.250 129.714,175.980 129.972,176.200 129.972 C 176.420 129.972,177.050 129.714,177.600 129.400 C 178.150 129.086,178.420 128.828,178.200 128.828 C 177.980 128.828,177.350 129.086,176.800 129.400 M235.957 131.014 C 236.924 131.567,237.796 131.937,237.896 131.837 C 238.089 131.644,235.050 129.997,234.516 130.005 C 234.342 130.007,234.991 130.462,235.957 131.014 M170.501 132.810 C 168.705 133.915,167.132 134.986,167.006 135.190 C 166.808 135.511,173.433 131.500,173.943 130.991 C 174.486 130.448,173.447 130.997,170.501 132.810 M240.600 133.457 C 241.429 134.294,247.697 138.880,247.437 138.460 C 247.287 138.218,246.138 137.235,244.883 136.275 C 242.536 134.481,239.888 132.738,240.600 133.457 M161.395 139.604 C 159.638 141.146,158.126 142.631,158.035 142.904 C 157.945 143.177,158.845 142.479,160.035 141.352 C 161.226 140.226,162.830 138.747,163.600 138.064 C 164.370 137.382,164.908 136.818,164.795 136.812 C 164.682 136.805,163.152 138.062,161.395 139.604 M250.435 141.471 C 251.182 142.389,251.875 143.058,251.976 142.957 C 252.077 142.856,251.467 142.104,250.619 141.287 L 249.079 139.800 250.435 141.471 M155.257 145.891 C 154.152 147.150,153.331 148.265,153.433 148.366 C 153.535 148.468,153.926 148.113,154.301 147.576 C 154.677 147.039,155.594 145.925,156.339 145.100 C 157.084 144.275,157.597 143.600,157.480 143.600 C 157.362 143.600,156.362 144.631,155.257 145.891 M255.375 147.332 C 255.991 148.139,256.576 148.800,256.675 148.800 C 256.953 148.800,255.221 146.460,254.709 146.144 C 254.459 145.989,254.759 146.524,255.375 147.332 M152.150 149.900 C 150.840 151.699,150.544 152.283,151.223 151.731 C 151.801 151.261,153.375 148.800,153.098 148.800 C 153.017 148.800,152.590 149.295,152.150 149.900 M258.431 151.900 C 259.448 153.600,260.000 154.294,260.000 153.871 C 260.000 153.506,257.955 150.400,257.714 150.400 C 257.616 150.400,257.938 151.075,258.431 151.900 M149.026 155.149 C 147.098 158.978,147.230 159.337,149.201 155.624 C 150.070 153.986,150.706 152.573,150.616 152.483 C 150.525 152.392,149.810 153.592,149.026 155.149 M200.905 153.487 C 201.514 153.579,202.414 153.577,202.905 153.482 C 203.397 153.387,202.900 153.311,201.800 153.314 C 200.700 153.317,200.297 153.395,200.905 153.487 M206.100 153.487 C 206.705 153.578,207.695 153.578,208.300 153.487 C 208.905 153.395,208.410 153.320,207.200 153.320 C 205.990 153.320,205.495 153.395,206.100 153.487 M196.600 154.019 C 196.042 154.271,196.285 154.307,197.400 154.138 C 198.280 154.004,199.075 153.828,199.167 153.747 C 199.510 153.444,197.368 153.671,196.600 154.019 M211.000 154.000 C 211.660 154.168,212.560 154.314,213.000 154.325 L 213.800 154.344 213.000 154.000 C 212.560 153.811,211.660 153.665,211.000 153.675 L 209.800 153.695 211.000 154.000 M191.663 155.797 C 188.919 157.112,184.240 160.374,184.593 160.726 C 184.681 160.814,185.619 160.166,186.677 159.286 C 188.579 157.702,191.651 155.985,194.388 154.977 C 195.165 154.690,195.525 154.444,195.189 154.428 C 194.853 154.413,193.266 155.029,191.663 155.797 M215.200 155.000 C 217.026 155.703,217.745 155.693,216.200 154.986 C 215.540 154.683,214.730 154.442,214.400 154.448 C 214.070 154.455,214.430 154.703,215.200 155.000 M261.752 158.100 C 262.686 160.135,263.665 162.250,263.927 162.800 L 264.404 163.800 264.161 162.800 C 263.861 161.568,260.526 154.400,260.253 154.400 C 260.144 154.400,260.819 156.065,261.752 158.100 M220.074 157.049 C 221.544 157.834,223.884 159.465,225.274 160.675 L 227.800 162.875 225.314 160.501 C 223.138 158.423,218.734 155.578,217.744 155.612 C 217.555 155.618,218.603 156.265,220.074 157.049 M146.844 160.044 C 146.598 160.751,146.466 161.400,146.552 161.485 C 146.638 161.571,146.909 161.062,147.156 160.356 C 147.402 159.649,147.534 159.000,147.448 158.915 C 147.362 158.829,147.091 159.338,146.844 160.044 M182.775 162.500 C 181.742 163.811,180.758 165.361,181.442 164.600 C 181.640 164.380,182.422 163.525,183.180 162.700 C 183.937 161.875,184.387 161.200,184.178 161.200 C 183.970 161.200,183.339 161.785,182.775 162.500 M145.829 163.029 C 145.681 163.615,145.638 164.172,145.732 164.266 C 145.827 164.360,146.024 163.958,146.171 163.371 C 146.319 162.785,146.362 162.228,146.268 162.134 C 146.173 162.040,145.976 162.442,145.829 163.029 M228.002 163.422 C 228.004 163.828,229.962 166.349,229.986 165.978 C 229.994 165.855,229.550 165.145,229.000 164.400 C 228.450 163.655,228.001 163.215,228.002 163.422 M264.670 165.000 C 264.801 165.660,265.058 166.470,265.242 166.800 C 265.841 167.877,265.635 166.350,264.998 165.000 L 264.433 163.800 264.670 165.000 M144.600 168.000 C 144.446 168.910,144.411 169.744,144.521 169.854 C 144.631 169.964,144.846 169.310,145.000 168.400 C 145.154 167.490,145.189 166.656,145.079 166.546 C 144.969 166.436,144.754 167.090,144.600 168.000 M231.530 169.578 C 232.339 171.325,233.055 172.600,233.122 172.411 C 233.248 172.058,230.521 166.400,230.225 166.400 C 230.135 166.400,230.722 167.830,231.530 169.578 M265.656 168.000 C 265.656 168.330,265.811 168.960,266.000 169.400 C 266.217 169.904,266.344 169.978,266.344 169.600 C 266.344 169.270,266.189 168.640,266.000 168.200 C 265.783 167.696,265.656 167.622,265.656 168.000 M178.044 170.844 C 177.798 171.551,177.666 172.200,177.752 172.285 C 177.838 172.371,178.109 171.862,178.356 171.156 C 178.602 170.449,178.734 169.800,178.648 169.715 C 178.562 169.629,178.291 170.138,178.044 170.844 M143.902 172.200 C 143.759 173.080,143.552 174.970,143.441 176.400 C 143.268 178.618,143.323 178.471,143.811 175.400 C 144.126 173.420,144.333 171.530,144.272 171.200 C 144.211 170.870,144.045 171.320,143.902 172.200 M266.887 172.600 C 266.891 173.040,267.032 173.940,267.200 174.600 C 267.474 175.678,267.506 175.698,267.513 174.800 C 267.517 174.250,267.376 173.350,267.200 172.800 C 266.949 172.016,266.881 171.973,266.887 172.600 M177.050 174.050 C 176.717 175.717,177.040 176.040,177.400 174.400 C 177.552 173.709,177.593 173.059,177.491 172.958 C 177.389 172.856,177.191 173.347,177.050 174.050 M233.263 173.400 C 233.262 173.620,233.503 174.430,233.800 175.200 C 234.097 175.970,234.345 176.330,234.352 176.000 C 234.358 175.670,234.117 174.860,233.814 174.200 C 233.512 173.540,233.264 173.180,233.263 173.400 M176.275 177.925 C 176.148 178.559,175.953 180.500,175.841 182.239 C 175.650 185.223,175.670 185.167,176.207 181.221 C 176.742 177.280,176.782 175.392,176.275 177.925 M243.327 178.300 C 247.907 178.364,255.287 178.364,259.727 178.299 C 264.167 178.235,260.420 178.183,251.400 178.183 C 242.380 178.183,238.747 178.235,243.327 178.300 M142.691 183.000 C 142.534 184.540,142.430 186.970,142.460 188.400 C 142.502 190.413,142.592 189.961,142.858 186.400 C 143.247 181.194,143.126 178.734,142.691 183.000 M175.063 192.860 C 174.918 196.197,174.831 205.064,174.869 212.564 L 174.938 226.200 175.217 206.600 C 175.370 195.820,175.457 186.953,175.410 186.896 C 175.364 186.839,175.207 189.522,175.063 192.860 M142.158 197.800 C 142.158 200.880,142.221 202.087,142.297 200.482 C 142.373 198.878,142.373 196.358,142.296 194.882 C 142.219 193.407,142.157 194.720,142.158 197.800 M204.267 200.667 C 203.897 201.037,203.929 227.509,204.300 227.738 C 204.465 227.841,204.550 221.821,204.490 214.362 L 204.379 200.800 236.185 200.800 L 267.991 200.800 268.100 217.500 L 268.209 234.200 268.305 217.300 L 268.400 200.400 236.467 200.400 C 218.903 200.400,204.413 200.520,204.267 200.667 M142.158 222.200 C 142.158 225.280,142.221 226.487,142.297 224.882 C 142.373 223.278,142.373 220.758,142.296 219.282 C 142.219 217.807,142.157 219.120,142.158 222.200 M175.348 230.400 C 175.348 232.710,175.414 233.655,175.495 232.500 C 175.576 231.345,175.576 229.455,175.495 228.300 C 175.414 227.145,175.348 228.090,175.348 230.400 M235.107 231.699 C 235.300 238.417,235.455 239.079,235.528 233.500 C 235.568 230.475,235.465 228.000,235.300 227.999 C 235.135 227.999,235.048 229.664,235.107 231.699 M142.440 232.033 C 142.461 233.665,142.620 235.990,142.792 237.200 C 142.990 238.594,143.028 237.568,142.897 234.400 C 142.669 228.880,142.377 227.374,142.440 232.033 M175.688 237.200 C 175.678 237.970,175.810 239.500,175.982 240.600 C 176.234 242.218,176.297 242.333,176.312 241.200 C 176.322 240.430,176.190 238.900,176.018 237.800 C 175.766 236.182,175.703 236.067,175.688 237.200 M267.709 237.600 C 267.709 238.590,267.787 238.995,267.882 238.500 C 267.978 238.005,267.978 237.195,267.882 236.700 C 267.787 236.205,267.709 236.610,267.709 237.600 M234.860 240.450 C 234.827 241.028,234.711 242.107,234.601 242.850 L 234.403 244.200 234.824 242.857 C 235.055 242.119,235.172 241.039,235.082 240.457 L 234.920 239.400 234.860 240.450 M267.040 242.640 C 266.890 244.103,266.849 245.382,266.948 245.482 C 267.048 245.581,267.257 244.471,267.413 243.013 C 267.569 241.556,267.611 240.277,267.505 240.172 C 267.399 240.066,267.190 241.177,267.040 242.640 M143.453 243.805 C 143.568 245.347,143.819 247.237,144.011 248.005 C 144.430 249.682,144.091 245.690,143.569 242.800 C 143.317 241.405,143.291 241.631,143.453 243.805 M233.680 245.880 C 233.430 246.694,233.292 247.426,233.373 247.506 C 233.454 247.587,233.736 246.999,234.000 246.200 C 234.264 245.401,234.402 244.669,234.307 244.574 C 234.212 244.478,233.930 245.066,233.680 245.880 M177.044 246.400 C 177.180 247.170,177.454 248.070,177.651 248.400 C 178.077 249.110,177.668 247.037,177.139 245.800 C 176.908 245.260,176.877 245.456,177.044 246.400 M231.882 250.611 C 231.292 251.815,230.894 252.800,230.998 252.800 C 231.267 252.800,233.284 248.751,233.105 248.571 C 233.023 248.489,232.473 249.407,231.882 250.611 M265.822 249.822 C 265.672 250.625,265.638 251.372,265.748 251.482 C 265.858 251.592,266.072 251.025,266.222 250.222 C 266.373 249.419,266.406 248.673,266.296 248.563 C 266.186 248.453,265.973 249.019,265.822 249.822 M178.000 249.549 C 178.000 250.090,179.521 253.200,179.786 253.200 C 179.948 253.200,178.452 249.575,178.148 249.233 C 178.067 249.142,178.000 249.284,178.000 249.549 M144.441 250.400 C 144.400 251.545,145.955 257.778,146.217 257.516 C 146.308 257.425,145.951 255.652,145.423 253.575 C 144.895 251.499,144.453 250.070,144.441 250.400 M264.800 254.000 C 264.551 254.924,264.426 255.759,264.521 255.855 C 264.617 255.950,264.890 255.263,265.127 254.327 C 265.365 253.391,265.490 252.557,265.406 252.473 C 265.322 252.388,265.049 253.076,264.800 254.000 M180.677 254.829 C 181.698 256.565,185.005 260.210,186.521 261.269 C 187.225 261.761,186.613 261.001,185.163 259.582 C 183.713 258.162,182.024 256.235,181.410 255.300 C 180.123 253.339,179.606 253.008,180.677 254.829 M227.000 257.368 C 225.460 258.967,223.660 260.681,223.000 261.176 L 221.800 262.076 223.163 261.278 C 224.652 260.405,229.045 256.222,229.650 255.100 C 230.209 254.065,230.054 254.197,227.000 257.368 M263.644 257.644 C 263.398 258.351,263.266 259.000,263.352 259.085 C 263.438 259.171,263.709 258.662,263.956 257.956 C 264.202 257.249,264.334 256.600,264.248 256.515 C 264.162 256.429,263.891 256.938,263.644 257.644 M146.846 259.600 C 146.839 259.930,147.178 260.830,147.600 261.600 C 148.575 263.381,148.575 262.706,147.600 260.600 C 147.193 259.720,146.854 259.270,146.846 259.600 M260.881 264.209 C 260.402 265.194,260.094 266.000,260.197 266.000 C 260.468 266.000,262.084 262.751,261.903 262.570 C 261.819 262.486,261.359 263.224,260.881 264.209 M218.000 263.800 C 217.450 264.114,217.180 264.372,217.400 264.372 C 217.620 264.372,218.250 264.114,218.800 263.800 C 219.350 263.486,219.620 263.228,219.400 263.228 C 219.180 263.228,218.550 263.486,218.000 263.800 M193.400 265.014 C 194.060 265.317,194.870 265.558,195.200 265.552 C 195.530 265.545,195.170 265.297,194.400 265.000 C 192.574 264.297,191.855 264.307,193.400 265.014 M196.800 265.980 C 197.799 266.320,200.282 266.532,199.967 266.251 C 199.875 266.169,198.900 265.999,197.800 265.872 C 196.451 265.716,196.126 265.751,196.800 265.980 M210.000 266.000 L 208.600 266.295 210.000 266.319 C 210.770 266.333,211.760 266.189,212.200 266.000 L 213.000 265.656 212.200 265.681 C 211.760 265.694,210.770 265.838,210.000 266.000 M150.828 267.900 C 154.443 273.974,163.443 282.963,169.500 286.551 C 171.092 287.494,169.465 286.118,165.873 283.481 C 160.904 279.836,155.381 274.167,152.433 269.688 C 150.212 266.313,149.235 265.225,150.828 267.900 M202.700 266.693 C 203.635 266.777,205.165 266.777,206.100 266.693 C 207.035 266.609,206.270 266.540,204.400 266.540 C 202.530 266.540,201.765 266.609,202.700 266.693 M256.771 270.900 C 255.811 272.275,253.317 275.200,251.228 277.400 C 247.766 281.046,247.705 281.135,250.544 278.400 C 253.513 275.541,256.656 271.880,258.185 269.500 C 259.540 267.392,258.503 268.418,256.771 270.900 M76.174 276.253 C 75.777 277.970,73.644 286.652,72.930 289.457 C 72.586 290.808,72.389 292.158,72.492 292.457 C 72.596 292.756,72.813 292.370,72.975 291.600 C 73.137 290.830,74.083 286.904,75.077 282.875 C 76.070 278.846,76.784 275.450,76.661 275.328 C 76.539 275.206,76.320 275.622,76.174 276.253 M243.729 283.731 C 239.423 286.982,239.069 287.435,242.855 284.849 C 245.407 283.106,247.778 281.114,247.162 281.231 C 247.073 281.248,245.528 282.373,243.729 283.731 M237.511 287.760 C 235.416 289.005,235.084 289.463,237.000 288.465 C 239.005 287.420,239.919 286.803,239.400 286.844 C 239.180 286.861,238.330 287.274,237.511 287.760 M176.600 290.311 C 176.960 290.643,179.667 291.798,181.200 292.274 C 181.708 292.432,181.706 292.399,181.185 292.058 C 180.268 291.458,176.136 289.884,176.600 290.311 M232.000 290.600 C 231.450 290.914,231.180 291.172,231.400 291.172 C 231.620 291.172,232.250 290.914,232.800 290.600 C 233.350 290.286,233.620 290.028,233.400 290.028 C 233.180 290.028,232.550 290.286,232.000 290.600 M229.000 291.814 C 228.000 292.296,227.966 292.351,228.800 292.148 C 229.933 291.871,231.207 291.221,230.600 291.230 C 230.380 291.233,229.660 291.496,229.000 291.814 M182.600 292.800 C 183.040 292.989,183.670 293.144,184.000 293.144 C 184.378 293.144,184.304 293.017,183.800 292.800 C 183.360 292.611,182.730 292.456,182.400 292.456 C 182.022 292.456,182.096 292.583,182.600 292.800 M226.000 292.800 C 225.467 293.145,225.467 293.188,226.000 293.188 C 226.330 293.188,226.870 293.013,227.200 292.800 C 227.733 292.455,227.733 292.412,227.200 292.412 C 226.870 292.412,226.330 292.587,226.000 292.800 M71.832 294.053 C 71.719 294.574,71.355 296.170,71.025 297.600 C 68.901 306.801,67.961 311.284,68.081 311.643 C 68.157 311.870,69.167 307.881,70.327 302.779 C 71.487 297.677,72.347 293.413,72.238 293.304 C 72.128 293.195,71.946 293.532,71.832 294.053 M186.600 294.000 C 187.040 294.189,187.760 294.338,188.200 294.332 C 188.843 294.323,188.804 294.257,188.000 294.000 C 186.632 293.562,185.581 293.562,186.600 294.000 M221.400 294.000 L 220.600 294.344 221.400 294.344 C 221.840 294.344,222.560 294.189,223.000 294.000 L 223.800 293.656 223.000 293.656 C 222.560 293.656,221.840 293.811,221.400 294.000 M192.200 295.200 C 192.860 295.368,193.940 295.505,194.600 295.505 L 195.800 295.505 194.600 295.200 C 193.940 295.032,192.860 294.895,192.200 294.895 L 191.000 294.895 192.200 295.200 M214.800 295.200 C 213.738 295.424,213.641 295.502,214.400 295.524 C 214.950 295.541,216.120 295.405,217.000 295.223 C 218.334 294.947,218.400 294.893,217.400 294.899 C 216.740 294.902,215.570 295.038,214.800 295.200 M200.500 296.129 C 202.654 296.317,206.146 296.317,208.300 296.129 C 211.844 295.818,211.487 295.787,204.400 295.787 C 197.313 295.787,196.956 295.818,200.500 296.129 M67.251 314.162 C 66.781 316.029,66.658 317.476,66.997 317.136 C 67.269 316.865,68.040 312.706,67.853 312.520 C 67.770 312.437,67.500 313.176,67.251 314.162 M65.993 320.232 C 65.739 321.459,65.619 322.552,65.727 322.660 C 65.835 322.769,66.031 322.304,66.162 321.629 C 66.293 320.953,66.504 319.860,66.632 319.200 C 66.759 318.540,66.772 318.000,66.660 318.000 C 66.548 318.000,66.248 319.004,65.993 320.232 M64.793 325.832 C 64.539 327.059,64.419 328.152,64.527 328.260 C 64.635 328.369,64.831 327.904,64.962 327.229 C 65.093 326.553,65.304 325.460,65.432 324.800 C 65.559 324.140,65.572 323.600,65.460 323.600 C 65.348 323.600,65.048 324.604,64.793 325.832 M63.778 330.578 C 63.627 331.381,63.594 332.127,63.704 332.237 C 63.814 332.347,64.027 331.781,64.178 330.978 C 64.328 330.175,64.362 329.428,64.252 329.318 C 64.142 329.208,63.928 329.775,63.778 330.578 M62.600 336.400 C 62.446 337.310,62.411 338.144,62.521 338.254 C 62.631 338.364,62.846 337.710,63.000 336.800 C 63.154 335.890,63.189 335.056,63.079 334.946 C 62.969 334.836,62.754 335.490,62.600 336.400 M61.440 342.040 C 61.293 342.957,61.252 343.785,61.347 343.880 C 61.442 343.976,61.646 343.310,61.800 342.400 C 61.954 341.490,61.996 340.662,61.893 340.560 C 61.790 340.457,61.587 341.123,61.440 342.040 M60.600 346.400 C 60.446 347.310,60.404 348.138,60.507 348.240 C 60.610 348.343,60.813 347.677,60.960 346.760 C 61.107 345.843,61.148 345.015,61.053 344.920 C 60.958 344.824,60.754 345.490,60.600 346.400 M59.250 353.450 C 58.982 354.905,58.839 356.172,58.933 356.266 C 59.026 356.359,59.326 355.250,59.600 353.800 C 59.874 352.350,60.016 351.083,59.917 350.984 C 59.818 350.885,59.518 351.995,59.250 353.450 " stroke="none" fill="#26b2d9" fill-rule="evenodd"></path><path id="path2" d="M216.800 79.813 C 183.600 83.582,152.525 102.262,129.961 132.013 C 125.131 138.382,117.498 153.384,110.532 170.200 C 108.892 174.160,107.384 177.760,107.182 178.200 C 104.448 184.136,93.695 215.446,89.803 228.800 C 89.515 229.790,88.822 232.130,88.263 234.000 C 80.417 260.255,71.576 295.426,65.439 324.800 C 65.094 326.450,64.530 329.060,64.186 330.600 C 63.841 332.140,63.413 334.210,63.234 335.200 C 63.055 336.190,62.272 340.150,61.495 344.000 C 58.597 358.357,57.066 366.659,53.221 388.847 C 51.844 396.797,51.843 396.800,52.424 396.800 C 52.657 396.800,52.756 396.653,52.645 396.472 C 52.533 396.292,52.973 396.223,53.621 396.318 C 54.270 396.413,54.800 396.650,54.800 396.845 C 54.800 397.040,55.173 397.200,55.629 397.200 C 56.573 397.200,57.704 398.157,57.281 398.598 C 57.126 398.759,57.759 398.766,58.686 398.613 C 60.336 398.340,62.375 399.092,61.731 399.736 C 61.586 399.881,61.957 400.000,62.557 400.000 C 63.157 400.000,63.559 399.857,63.451 399.682 C 63.342 399.507,64.277 399.492,65.527 399.648 C 66.777 399.805,86.453 399.948,109.251 399.966 L 150.703 400.000 153.864 398.251 C 190.156 378.177,231.136 339.932,266.151 293.459 C 269.911 288.469,273.517 283.148,275.394 279.823 C 306.884 224.036,314.891 159.608,295.457 118.400 C 282.053 89.977,252.964 75.707,216.800 79.813 M213.304 124.208 C 235.493 126.821,251.664 137.611,261.310 156.239 C 264.287 161.989,267.466 171.934,267.694 176.209 L 267.800 178.200 252.000 178.311 C 233.195 178.444,234.792 178.690,233.869 175.516 C 230.023 162.289,221.253 154.907,207.877 153.639 C 192.637 152.195,181.188 159.919,177.404 174.200 C 174.157 186.452,174.564 238.093,177.988 248.292 C 182.515 261.781,195.578 268.715,211.000 265.817 C 226.921 262.825,235.582 251.042,235.122 233.000 L 235.000 228.200 219.600 228.000 L 204.200 227.800 204.200 214.200 L 204.200 200.600 236.300 200.498 L 268.400 200.395 268.396 216.298 C 268.390 237.159,267.732 244.882,265.196 253.800 C 248.648 312.008,155.461 309.453,144.423 250.489 C 141.217 233.362,141.109 189.111,144.227 170.453 C 149.297 140.113,179.075 120.178,213.304 124.208 M53.200 397.200 C 53.200 397.420,53.524 397.600,53.920 397.600 C 54.316 397.600,54.856 397.816,55.120 398.080 C 55.493 398.453,55.707 398.453,56.080 398.080 C 56.453 397.707,56.370 397.600,55.704 397.600 C 55.233 397.600,54.736 397.420,54.600 397.200 C 54.464 396.980,54.093 396.800,53.776 396.800 C 53.459 396.800,53.200 396.980,53.200 397.200 M59.000 399.200 C 59.136 399.420,59.496 399.600,59.800 399.600 C 60.104 399.600,60.464 399.420,60.600 399.200 C 60.741 398.972,60.396 398.800,59.800 398.800 C 59.204 398.800,58.859 398.972,59.000 399.200 " stroke="none" fill="#fafbfb" fill-rule="evenodd"></path><path id="path3" d="M60.200 0.800 C 60.064 1.020,60.323 1.200,60.776 1.200 C 61.229 1.200,61.600 1.020,61.600 0.800 C 61.600 0.580,61.341 0.400,61.024 0.400 C 60.707 0.400,60.336 0.580,60.200 0.800 M346.255 3.400 C 346.140 3.701,346.402 3.873,346.934 3.845 C 347.410 3.820,347.761 4.007,347.714 4.259 C 347.662 4.533,347.949 4.634,348.427 4.509 C 348.883 4.390,349.607 4.616,350.113 5.035 L 351.000 5.770 350.126 4.823 C 349.003 3.604,346.526 2.694,346.255 3.400 M49.520 4.880 C 49.893 5.253,50.107 5.253,50.480 4.880 C 50.853 4.507,50.747 4.400,50.000 4.400 C 49.253 4.400,49.147 4.507,49.520 4.880 M44.800 6.600 C 44.517 6.941,44.376 7.309,44.486 7.419 C 44.596 7.529,44.917 7.341,45.200 7.000 C 45.483 6.659,45.624 6.291,45.514 6.181 C 45.404 6.071,45.083 6.259,44.800 6.600 M39.000 9.775 C 38.560 10.021,38.142 10.481,38.070 10.799 C 37.980 11.205,38.202 11.142,38.812 10.589 C 39.292 10.155,39.770 9.860,39.875 9.933 C 39.981 10.007,40.154 9.980,40.260 9.873 C 40.697 9.436,39.742 9.361,39.000 9.775 M27.592 17.926 C 27.049 18.366,26.839 18.777,27.082 18.927 C 27.519 19.197,29.072 17.739,28.721 17.388 C 28.607 17.273,28.099 17.516,27.592 17.926 M23.382 21.971 C 23.508 22.175,23.249 22.457,22.806 22.598 C 22.363 22.739,22.000 23.026,22.000 23.236 C 22.000 23.446,22.448 23.325,22.997 22.965 C 23.836 22.416,24.048 21.600,23.353 21.600 C 23.243 21.600,23.256 21.767,23.382 21.971 M381.037 27.140 C 380.764 27.582,382.309 29.025,382.669 28.664 C 382.814 28.519,382.723 28.400,382.467 28.400 C 382.210 28.400,382.000 28.141,382.000 27.824 C 382.000 27.122,381.339 26.652,381.037 27.140 M8.184 41.227 C 8.039 41.461,8.026 41.760,8.156 41.890 C 8.287 42.020,8.193 42.368,7.948 42.663 C 7.351 43.382,7.906 43.351,8.632 42.626 C 8.998 42.259,9.058 41.959,8.797 41.798 C 8.571 41.659,8.491 41.377,8.617 41.172 C 8.744 40.968,8.757 40.800,8.647 40.800 C 8.537 40.800,8.329 40.992,8.184 41.227 M393.200 46.157 C 393.200 46.464,393.470 46.818,393.800 46.945 C 394.471 47.202,394.504 47.136,394.157 46.233 C 393.857 45.451,393.200 45.399,393.200 46.157 M5.252 47.265 C 4.898 47.832,4.864 48.224,5.145 48.505 C 5.426 48.786,5.641 48.576,5.826 47.839 C 6.172 46.462,5.915 46.205,5.252 47.265 M3.900 50.257 C 3.790 50.446,3.826 50.947,3.980 51.371 C 4.209 52.000,4.303 52.030,4.493 51.534 C 4.751 50.862,4.218 49.713,3.900 50.257 M396.133 53.362 C 396.133 53.671,396.373 53.832,396.667 53.719 C 396.960 53.607,397.200 53.354,397.200 53.157 C 397.200 52.961,396.960 52.800,396.667 52.800 C 396.373 52.800,396.133 53.053,396.133 53.362 M2.567 54.703 C 2.731 54.993,2.587 55.307,2.225 55.446 C 1.450 55.743,1.403 56.400,2.157 56.400 C 2.918 56.400,3.335 55.166,2.754 54.633 C 2.409 54.316,2.359 54.335,2.567 54.703 M397.206 57.100 C 397.211 57.957,397.298 58.068,397.600 57.600 C 398.106 56.817,398.106 56.000,397.600 56.000 C 397.380 56.000,397.203 56.495,397.206 57.100 M196.541 124.380 C 170.543 127.386,149.489 145.214,145.028 168.000 C 141.025 188.447,141.276 236.131,145.479 253.600 C 157.490 303.532,235.495 311.353,260.383 265.121 C 266.412 253.921,268.000 244.027,268.000 217.661 L 268.000 200.800 236.195 200.800 L 204.389 200.800 204.495 214.300 L 204.600 227.800 220.100 227.905 L 235.600 228.009 235.588 232.905 C 235.534 254.366,224.358 266.495,204.600 266.535 C 189.271 266.567,179.641 258.968,176.638 244.472 C 174.203 232.718,174.293 187.329,176.775 175.716 C 179.935 160.932,189.394 153.407,204.800 153.423 C 219.950 153.439,229.699 160.599,234.042 174.900 L 234.984 178.000 251.428 178.000 L 267.872 178.000 267.156 174.300 C 260.693 140.892,231.603 120.327,196.541 124.380 M0.010 266.212 C 0.026 309.090,0.184 338.333,0.399 338.201 C 1.081 337.779,1.667 339.617,1.385 341.290 C 1.155 342.650,1.210 342.882,1.715 342.688 C 2.100 342.540,2.395 342.737,2.523 343.228 C 2.634 343.653,2.575 343.908,2.390 343.794 C 1.867 343.470,1.486 344.379,1.919 344.918 C 2.133 345.183,2.435 345.997,2.592 346.727 C 2.748 347.457,3.109 348.144,3.394 348.253 C 3.678 348.362,3.832 348.756,3.735 349.128 C 3.638 349.500,3.937 350.210,4.399 350.707 C 4.862 351.204,5.136 351.781,5.007 351.989 C 4.815 352.299,5.166 353.218,5.922 354.388 C 5.989 354.492,6.219 354.312,6.434 353.988 C 6.712 353.570,6.754 353.747,6.580 354.600 C 6.384 355.561,6.428 355.681,6.800 355.200 C 7.180 354.709,7.227 354.782,7.056 355.600 C 6.840 356.634,7.663 358.203,8.161 357.706 C 8.316 357.551,8.325 357.730,8.182 358.103 C 8.014 358.542,8.501 359.650,9.561 361.236 C 10.462 362.586,11.200 363.743,11.200 363.805 C 11.200 364.047,14.064 368.161,15.040 369.321 C 15.865 370.300,16.137 370.428,16.427 369.970 C 16.777 369.417,17.028 370.292,16.826 371.363 C 16.720 371.927,20.090 375.199,20.783 375.206 C 21.260 375.211,21.282 375.287,20.881 375.541 C 20.465 375.805,20.481 375.970,20.964 376.370 C 21.294 376.644,21.781 376.736,22.044 376.573 C 22.358 376.379,22.419 376.446,22.219 376.769 C 21.838 377.385,23.316 378.833,24.975 379.470 C 25.649 379.728,25.975 379.953,25.700 379.970 C 25.425 379.986,25.200 380.201,25.200 380.447 C 25.200 380.696,25.553 380.801,26.000 380.684 C 26.439 380.569,26.917 380.666,27.061 380.899 C 27.216 381.149,27.133 381.206,26.862 381.038 C 26.608 380.881,26.400 380.930,26.400 381.147 C 26.400 381.763,28.445 383.219,28.909 382.933 C 29.149 382.784,29.203 382.871,29.038 383.138 C 28.881 383.392,28.963 383.600,29.219 383.600 C 29.475 383.600,30.044 384.056,30.483 384.614 C 31.056 385.343,31.508 385.556,32.090 385.371 C 32.639 385.197,32.810 385.260,32.620 385.568 C 32.252 386.163,34.004 387.573,34.753 387.286 C 35.096 387.154,35.225 387.236,35.070 387.487 C 34.926 387.719,35.106 388.155,35.469 388.455 C 35.988 388.883,36.166 388.892,36.299 388.498 C 36.392 388.221,36.625 388.092,36.817 388.210 C 37.008 388.329,37.070 388.674,36.954 388.977 C 36.722 389.579,38.130 390.214,38.792 389.805 C 39.031 389.657,39.085 389.835,38.926 390.249 C 38.714 390.801,38.813 390.881,39.418 390.648 C 39.835 390.488,40.047 390.486,39.890 390.643 C 39.406 391.127,41.156 392.064,42.104 391.829 C 42.597 391.707,42.762 391.715,42.472 391.846 C 41.626 392.229,43.449 393.291,44.504 393.029 C 44.997 392.907,45.175 392.911,44.900 393.037 C 44.046 393.429,44.351 393.937,45.300 393.703 C 45.795 393.582,46.068 393.626,45.906 393.802 C 45.482 394.263,47.503 395.212,48.278 394.915 C 48.740 394.737,48.839 394.814,48.616 395.175 C 48.374 395.566,48.616 395.630,49.650 395.447 C 50.392 395.317,50.775 395.312,50.500 395.438 C 49.812 395.753,49.870 396.400,50.586 396.400 C 51.537 396.400,52.000 395.052,52.820 389.885 C 53.247 387.198,53.778 384.010,54.000 382.800 C 54.222 381.590,54.957 377.450,55.634 373.600 C 58.724 356.022,62.603 336.088,65.830 321.200 C 66.140 319.770,66.563 317.671,66.770 316.536 C 66.977 315.401,67.335 313.781,67.565 312.936 C 67.796 312.091,68.534 308.880,69.205 305.800 C 70.651 299.165,71.480 295.515,71.978 293.600 C 72.179 292.830,72.618 291.030,72.955 289.600 C 73.292 288.170,74.220 284.390,75.017 281.200 C 76.608 274.831,77.433 271.442,77.986 269.000 C 78.185 268.120,78.644 266.320,79.006 265.000 C 80.284 260.336,80.845 258.180,81.244 256.400 C 81.465 255.410,81.802 254.240,81.991 253.800 C 82.181 253.360,82.717 251.470,83.182 249.600 C 83.648 247.730,84.311 245.210,84.656 244.000 C 85.000 242.790,85.479 240.990,85.720 240.000 C 85.960 239.010,86.284 238.110,86.439 238.000 C 86.595 237.890,86.804 236.990,86.906 236.000 C 87.007 235.010,87.012 234.605,86.918 235.100 C 86.824 235.595,86.579 236.000,86.373 236.000 C 86.168 236.000,86.000 236.388,86.000 236.861 L 86.000 237.722 85.253 236.861 C 84.842 236.388,84.122 236.000,83.653 236.000 C 83.184 236.000,82.800 235.823,82.800 235.608 C 82.800 235.392,82.350 235.102,81.800 234.964 C 81.250 234.826,80.800 234.567,80.800 234.388 C 80.800 234.210,80.260 233.945,79.600 233.800 C 78.940 233.655,78.400 233.371,78.400 233.168 C 78.400 232.966,77.944 232.800,77.387 232.800 C 76.831 232.800,76.271 232.530,76.145 232.200 C 76.018 231.870,75.664 231.600,75.357 231.600 C 75.051 231.600,74.800 231.428,74.800 231.218 C 74.800 231.008,74.170 230.718,73.400 230.574 C 72.630 230.429,72.000 230.151,72.000 229.955 C 72.000 229.760,71.724 229.600,71.387 229.600 C 71.051 229.600,70.671 229.330,70.545 229.000 C 70.418 228.670,69.878 228.400,69.345 228.400 C 68.811 228.400,68.276 228.143,68.156 227.830 C 68.036 227.516,67.264 227.146,66.440 227.007 C 65.617 226.868,64.691 226.404,64.383 225.977 C 64.075 225.550,63.407 225.200,62.899 225.200 C 62.391 225.200,61.871 224.929,61.744 224.598 C 61.617 224.267,60.823 223.885,59.981 223.751 C 59.139 223.616,58.354 223.257,58.237 222.953 C 58.121 222.649,57.609 222.400,57.101 222.400 C 56.593 222.400,55.914 222.035,55.592 221.589 C 55.270 221.142,54.345 220.673,53.529 220.542 C 52.715 220.412,51.954 220.057,51.837 219.753 C 51.721 219.449,51.189 219.200,50.655 219.200 C 50.122 219.200,49.582 218.930,49.455 218.600 C 49.329 218.270,48.949 218.000,48.613 218.000 C 48.276 218.000,48.000 217.820,48.000 217.600 C 48.000 217.380,47.563 217.200,47.029 217.200 C 46.494 217.200,45.787 216.930,45.457 216.600 C 45.127 216.270,44.574 216.000,44.229 216.000 C 43.883 216.000,43.600 215.823,43.600 215.608 C 43.600 215.392,43.150 215.102,42.600 214.964 C 42.050 214.826,41.600 214.553,41.600 214.357 C 41.600 214.160,41.144 214.000,40.587 214.000 C 40.031 214.000,39.471 213.730,39.345 213.400 C 39.218 213.070,38.697 212.800,38.186 212.800 C 37.675 212.800,36.987 212.530,36.657 212.200 C 36.327 211.870,35.864 211.600,35.629 211.600 C 35.393 211.600,35.200 211.420,35.200 211.200 C 35.200 210.980,34.853 210.800,34.429 210.800 C 34.004 210.800,33.387 210.530,33.057 210.200 C 32.727 209.870,32.079 209.600,31.616 209.600 C 31.153 209.600,30.676 209.341,30.554 209.024 C 30.433 208.708,29.808 208.334,29.167 208.193 C 28.525 208.052,28.000 207.791,28.000 207.613 C 28.000 207.435,27.380 207.173,26.623 207.031 C 25.789 206.874,25.153 206.481,25.011 206.035 C 24.857 205.551,24.234 205.212,23.189 205.045 C 22.315 204.905,21.600 204.632,21.600 204.439 C 21.600 204.245,21.128 203.968,20.552 203.824 C 19.975 203.679,19.242 203.299,18.923 202.980 C 18.604 202.661,17.906 202.400,17.371 202.400 C 16.837 202.400,16.400 202.220,16.400 202.000 C 16.400 201.780,16.130 201.600,15.800 201.600 C 15.470 201.600,15.200 201.440,15.200 201.243 C 15.200 201.047,14.728 200.768,14.152 200.624 C 13.575 200.479,12.842 200.099,12.523 199.780 C 12.204 199.461,11.596 199.200,11.171 199.200 C 10.747 199.200,10.400 199.034,10.400 198.832 C 10.400 198.629,9.860 198.345,9.200 198.200 C 8.540 198.055,8.000 197.771,8.000 197.568 C 8.000 197.366,7.634 197.200,7.187 197.200 C 6.741 197.200,6.271 196.930,6.145 196.600 C 6.018 196.270,5.484 196.000,4.957 196.000 C 4.431 196.000,4.000 195.834,4.000 195.632 C 4.000 195.429,3.460 195.145,2.800 195.000 C 2.140 194.855,1.600 194.571,1.600 194.368 C 1.600 194.166,1.236 194.000,0.791 194.000 L -0.018 194.000 0.010 266.212 M0.630 339.867 C 0.489 340.234,0.560 340.720,0.787 340.947 C 1.071 341.231,1.200 341.023,1.200 340.280 C 1.200 339.046,1.000 338.901,0.630 339.867 " stroke="none" fill="#0a5298" fill-rule="evenodd"></path><path id="path4" d="M279.200 34.679 C 274.261 34.843,266.518 35.603,261.200 36.445 C 252.463 37.829,252.435 37.905,260.625 37.954 C 280.757 38.075,295.153 43.062,308.868 54.666 C 327.469 70.403,335.931 102.569,332.054 142.800 C 331.096 152.735,328.910 165.573,326.127 177.600 C 325.796 179.030,325.430 180.650,325.314 181.200 C 325.198 181.750,324.480 184.450,323.718 187.200 C 322.956 189.950,322.162 192.920,321.952 193.800 C 321.539 195.534,318.588 204.497,318.000 205.800 C 317.802 206.240,317.020 208.130,316.262 210.000 C 315.504 211.870,314.440 214.390,313.898 215.600 C 313.356 216.810,312.482 218.789,311.956 219.998 C 311.430 221.207,309.160 225.877,306.911 230.376 C 304.663 234.875,302.877 238.611,302.944 238.677 C 303.011 238.744,303.306 238.349,303.600 237.799 C 304.183 236.710,304.800 236.478,304.800 237.347 C 304.800 237.687,305.430 237.979,306.458 238.117 C 307.369 238.239,308.224 238.511,308.358 238.721 C 308.491 238.930,309.365 239.230,310.300 239.386 C 311.235 239.542,312.000 239.828,312.000 240.021 C 312.000 240.214,312.900 240.492,314.000 240.638 C 315.100 240.784,316.000 241.060,316.000 241.252 C 316.000 241.443,316.450 241.600,317.000 241.600 C 317.550 241.600,318.000 241.764,318.000 241.965 C 318.000 242.166,318.765 242.458,319.700 242.614 C 320.635 242.770,321.505 243.062,321.632 243.263 C 321.760 243.464,322.570 243.740,323.432 243.876 C 324.295 244.012,325.113 244.295,325.251 244.505 C 325.388 244.715,326.333 244.981,327.351 245.096 C 328.368 245.210,329.200 245.461,329.200 245.652 C 329.200 245.843,329.560 246.000,330.000 246.000 C 330.440 246.000,330.800 246.178,330.800 246.395 C 330.800 246.613,331.520 246.906,332.400 247.046 C 333.280 247.187,334.000 247.442,334.000 247.614 C 334.000 247.785,334.900 248.049,336.000 248.200 C 337.100 248.351,338.000 248.614,338.000 248.785 C 338.000 248.955,338.746 249.195,339.658 249.317 C 340.569 249.439,341.424 249.711,341.558 249.921 C 341.691 250.130,342.565 250.430,343.500 250.586 C 344.435 250.742,345.200 251.034,345.200 251.235 C 345.200 251.436,345.650 251.600,346.200 251.600 C 346.750 251.600,347.200 251.780,347.200 252.000 C 347.200 252.220,347.727 252.400,348.371 252.400 C 349.016 252.400,349.787 252.644,350.084 252.942 C 350.382 253.239,351.520 253.617,352.613 253.781 C 353.706 253.944,354.709 254.254,354.842 254.470 C 354.976 254.685,355.831 254.961,356.742 255.083 C 357.654 255.205,358.400 255.462,358.400 255.653 C 358.400 255.844,358.670 256.000,359.000 256.000 C 359.330 256.000,359.600 256.157,359.600 256.348 C 359.600 256.540,360.486 256.815,361.570 256.958 C 362.653 257.102,363.599 257.398,363.672 257.617 C 363.745 257.836,364.749 258.126,365.902 258.263 C 367.056 258.400,368.000 258.658,368.000 258.838 C 368.000 259.017,368.630 259.282,369.400 259.426 C 370.170 259.571,370.800 259.832,370.800 260.007 C 370.800 260.182,371.700 260.449,372.800 260.600 C 373.900 260.751,374.800 261.038,374.800 261.238 C 374.800 261.437,375.160 261.600,375.600 261.600 C 376.040 261.600,376.400 261.774,376.400 261.986 C 376.400 262.199,377.300 262.492,378.400 262.638 C 379.500 262.784,380.400 263.049,380.400 263.227 C 380.400 263.405,381.210 263.672,382.200 263.821 C 383.190 263.969,384.000 264.227,384.000 264.394 C 384.000 264.561,384.720 264.813,385.600 264.954 C 386.480 265.094,387.200 265.387,387.200 265.605 C 387.200 265.822,387.740 266.000,388.400 266.000 C 389.060 266.000,389.600 266.157,389.600 266.349 C 389.600 266.541,390.320 266.813,391.200 266.954 C 392.080 267.094,392.800 267.364,392.800 267.552 C 392.800 267.740,393.546 267.995,394.458 268.117 C 395.369 268.239,396.224 268.506,396.358 268.710 C 396.491 268.913,397.365 269.180,398.300 269.302 L 400.000 269.524 400.000 181.420 L 400.000 93.316 397.544 90.558 C 364.267 53.190,322.049 33.255,279.200 34.679 M225.400 46.581 C 188.149 60.133,154.765 89.178,131.818 128.000 C 128.076 134.330,128.133 134.357,132.749 128.456 C 156.343 98.293,192.525 79.481,227.569 79.157 C 231.446 79.121,231.927 79.053,230.524 78.738 L 228.848 78.362 228.995 76.281 C 229.169 73.827,229.808 50.702,229.782 47.800 C 229.773 46.700,229.953 45.668,230.182 45.506 C 231.155 44.822,228.748 45.363,225.400 46.581 " stroke="none" fill="#f3d51c" fill-rule="evenodd"></path></g></svg>