<svg id="svg" version="1.1" xmlns="http://www.w3.org/2000/svg" xmlns:xlink="http://www.w3.org/1999/xlink" width="400" height="398.0555555555556" viewBox="0, 0, 400,398.0555555555556"><g id="svgg"><path id="path0" d="M154.306 2.914 C 134.866 7.383,121.885 17.396,113.610 34.306 C 100.550 60.993,110.620 99.078,147.725 163.333 C 151.196 169.345,159.497 183.220,161.559 186.458 C 161.924 187.031,162.513 187.969,162.869 188.542 C 163.224 189.115,163.832 190.083,164.219 190.694 C 164.607 191.306,165.637 192.931,166.508 194.306 C 167.380 195.681,168.729 197.806,169.506 199.028 C 177.291 211.269,186.762 225.165,187.442 225.343 C 189.268 225.821,189.311 225.665,190.278 215.306 C 193.263 183.297,194.852 147.411,194.291 124.675 L 194.090 116.494 193.364 116.075 C 185.582 111.588,172.171 96.227,165.627 84.306 C 152.028 59.530,149.753 27.110,159.863 2.153 C 160.110 1.542,160.518 1.486,154.306 2.914 M58.296 56.043 C 39.217 75.680,28.080 98.993,28.690 118.022 C 29.411 140.521,40.735 156.229,72.500 178.796 C 92.183 192.779,121.123 209.950,153.056 226.591 C 174.464 237.748,174.702 237.790,170.920 229.758 C 170.084 227.981,169.204 226.090,168.966 225.556 C 167.683 222.681,155.987 199.304,153.330 194.306 C 142.575 174.073,127.157 147.321,119.311 135.278 C 118.963 134.743,117.329 132.181,115.680 129.583 C 99.565 104.197,79.815 76.184,64.124 56.456 C 62.877 54.889,61.709 53.484,61.527 53.333 C 61.290 53.136,60.373 53.905,58.296 56.043 M347.402 62.434 C 347.567 63.064,345.879 68.632,344.272 72.760 C 335.410 95.515,318.165 114.377,296.147 125.397 C 292.287 127.328,285.123 130.277,284.283 130.279 C 283.156 130.283,263.253 163.616,251.543 185.114 C 242.502 201.711,227.500 232.135,227.500 233.873 C 227.500 234.759,228.122 235.556,228.814 235.556 C 229.815 235.556,252.676 223.709,268.194 215.148 C 303.926 195.437,332.636 176.602,347.222 163.302 C 366.516 145.708,373.631 129.560,370.976 109.389 C 369.128 95.354,359.038 74.640,348.720 63.699 C 348.202 63.149,347.778 62.600,347.778 62.478 C 347.778 62.355,347.664 62.185,347.526 62.099 C 347.387 62.014,347.332 62.164,347.402 62.434 M205.595 133.056 C 205.476 158.085,208.007 205.426,210.432 223.547 C 210.612 224.888,211.527 225.726,212.481 225.423 C 214.264 224.857,240.443 183.865,253.198 161.667 C 258.408 152.600,267.778 135.241,267.778 134.655 C 267.778 134.596,266.622 134.707,265.208 134.902 C 252.843 136.604,238.859 135.671,226.401 132.312 C 217.925 130.027,206.018 124.972,205.759 123.549 C 205.695 123.201,205.622 127.479,205.595 133.056 M386.111 160.456 C 369.697 169.463,364.184 172.497,360.694 174.446 C 358.861 175.470,356.611 176.722,355.694 177.228 C 353.053 178.687,335.097 188.789,329.444 191.997 C 310.390 202.811,285.943 217.160,271.806 225.829 C 267.986 228.170,264.361 230.385,263.750 230.751 C 263.139 231.116,261.264 232.284,259.583 233.346 C 257.903 234.408,255.715 235.783,254.722 236.402 C 239.442 245.921,236.329 248.345,237.512 249.805 L 238.007 250.417 284.811 250.375 C 317.637 250.345,332.514 250.238,334.627 250.016 C 380.380 245.203,409.860 201.035,397.070 156.458 C 396.529 154.574,397.434 154.244,386.111 160.456 M18.056 163.153 C 18.056 163.766,25.434 176.270,29.308 182.222 C 45.397 206.941,67.011 230.272,90.247 248.003 L 93.410 250.417 126.973 250.497 C 145.432 250.541,160.947 250.470,161.448 250.340 C 162.604 250.041,163.196 249.012,162.682 248.197 C 161.302 246.012,120.871 221.008,90.694 203.676 C 87.639 201.921,82.701 199.078,79.722 197.359 C 75.212 194.755,62.878 187.768,57.614 184.834 C 56.864 184.416,52.625 182.051,48.194 179.578 C 43.764 177.104,39.326 174.638,38.333 174.096 C 37.340 173.555,34.653 172.083,32.361 170.825 C 30.069 169.568,26.882 167.853,25.278 167.014 C 23.674 166.175,22.225 165.380,22.058 165.247 C 21.891 165.114,21.672 165.087,21.572 165.188 C 21.471 165.288,21.389 165.221,21.389 165.039 C 21.389 164.735,20.380 164.186,19.490 164.006 C 19.285 163.965,18.879 163.715,18.587 163.450 C 18.295 163.186,18.056 163.052,18.056 163.153 M151.806 259.458 C 148.597 259.586,140.347 259.886,133.472 260.125 C 126.597 260.363,119.722 260.622,118.194 260.700 C 116.667 260.777,114.048 260.906,112.376 260.984 C 110.704 261.063,109.301 261.162,109.260 261.203 C 109.140 261.323,116.100 265.561,120.972 268.334 C 127.314 271.943,137.990 277.276,138.198 276.938 C 138.294 276.784,138.475 276.721,138.601 276.799 C 138.727 276.877,138.903 276.753,138.991 276.524 C 139.079 276.294,139.248 276.135,139.367 276.169 C 139.595 276.237,140.166 275.887,145.278 272.551 C 155.686 265.757,160.833 261.875,160.833 260.819 C 160.833 259.212,160.225 259.120,151.806 259.458 M239.653 259.744 C 238.931 260.165,239.030 261.552,239.831 262.248 C 242.833 264.858,265.408 279.971,275.278 285.978 C 282.823 290.570,295.941 297.629,296.587 297.444 C 296.707 297.410,297.087 297.538,297.431 297.729 C 297.774 297.919,298.056 297.994,298.056 297.894 C 298.056 297.795,298.364 297.916,298.740 298.162 C 299.117 298.409,299.617 298.611,299.851 298.611 C 300.086 298.611,300.278 298.737,300.278 298.891 C 300.278 299.070,300.454 299.079,300.764 298.916 C 301.031 298.776,302.938 298.331,305.000 297.928 C 316.465 295.684,329.866 291.967,341.601 287.776 C 344.131 286.873,346.308 286.200,346.440 286.282 C 346.572 286.363,346.646 286.269,346.604 286.072 C 346.562 285.876,346.786 285.597,347.103 285.452 C 347.419 285.307,347.951 284.772,348.286 284.261 C 348.620 283.751,349.088 283.333,349.325 283.333 C 349.561 283.333,349.684 283.218,349.596 283.077 C 349.509 282.935,349.614 282.779,349.829 282.729 C 351.155 282.423,364.430 264.337,363.795 263.702 C 363.706 263.614,355.665 263.312,324.444 262.226 C 235.709 259.139,240.454 259.278,239.653 259.744 " stroke="none" fill="#eb272d" fill-rule="evenodd"></path><path id="path1" d="M227.703 2.153 C 226.128 4.769,223.674 9.901,222.329 13.393 C 219.938 19.600,218.622 23.638,216.373 31.667 C 213.657 41.366,209.799 62.500,209.085 71.600 L 208.970 73.061 211.916 76.061 C 229.276 93.746,255.671 98.173,277.519 87.063 C 282.587 84.486,289.560 79.607,289.668 78.562 C 289.688 78.360,290.011 76.507,290.385 74.444 C 294.283 52.923,290.477 36.259,278.386 21.907 C 268.189 9.804,257.142 4.533,233.611 0.544 C 228.880 -0.257,229.208 -0.347,227.703 2.153 " stroke="none" fill="#f5906e" fill-rule="evenodd"></path><path id="path2" d="M59.722 54.306 C 59.047 54.993,58.558 55.556,58.634 55.556 C 58.711 55.556,59.325 54.993,60.000 54.306 C 60.675 53.618,61.164 53.056,61.088 53.056 C 61.012 53.056,60.397 53.618,59.722 54.306 M2.786 157.153 C -0.682 168.495,-0.937 183.145,2.118 195.556 C 8.587 221.842,30.157 242.861,56.667 248.710 C 63.963 250.319,64.529 250.360,80.833 250.420 C 89.160 250.451,95.335 250.425,94.556 250.364 C 93.238 250.259,92.855 250.030,89.001 247.035 C 63.356 227.107,41.240 202.253,24.532 174.583 C 21.726 169.937,18.057 163.449,18.053 163.126 C 18.051 163.011,16.895 162.303,15.483 161.553 C 14.072 160.802,10.894 159.083,8.422 157.733 C 3.050 154.798,3.492 154.844,2.786 157.153 M109.792 261.025 C 110.059 261.095,110.497 261.095,110.764 261.025 C 111.031 260.955,110.813 260.898,110.278 260.898 C 109.743 260.898,109.524 260.955,109.792 261.025 M88.472 261.687 C 81.292 261.948,67.354 262.429,57.500 262.756 C 47.646 263.082,38.795 263.440,37.831 263.550 L 36.078 263.750 37.504 266.111 C 53.380 292.389,75.699 305.452,95.811 300.235 C 102.930 298.389,115.018 292.120,130.833 282.072 C 133.660 280.276,136.566 278.431,137.292 277.973 C 138.017 277.514,138.611 277.008,138.611 276.847 C 138.611 276.659,138.498 276.669,138.292 276.875 C 137.694 277.473,120.938 268.638,111.896 262.956 L 108.931 261.093 105.229 261.152 C 103.193 261.185,95.653 261.426,88.472 261.687 M140.759 275.427 C 140.189 275.814,139.722 276.191,139.722 276.264 C 139.722 276.337,140.222 276.066,140.833 275.661 C 141.804 275.019,142.132 274.722,141.870 274.722 C 141.829 274.722,141.329 275.039,140.759 275.427 M348.333 284.167 C 348.007 284.625,347.790 285.000,347.852 285.000 C 347.913 285.000,348.298 284.625,348.706 284.167 C 349.115 283.708,349.331 283.333,349.188 283.333 C 349.044 283.333,348.660 283.708,348.333 284.167 M346.638 285.704 C 344.808 287.533,320.268 294.789,305.833 297.769 C 300.262 298.919,300.062 299.032,302.273 299.784 C 311.230 302.828,322.087 301.653,332.264 296.538 C 334.985 295.171,339.667 292.235,340.586 291.320 C 340.799 291.109,341.178 290.819,341.430 290.676 C 342.610 290.007,347.792 285.278,347.346 285.278 C 347.191 285.278,346.872 285.469,346.638 285.704 " stroke="none" fill="#932425" fill-rule="evenodd"></path><path id="path3" d="M2.222 365.556 L 2.222 397.500 9.583 397.500 L 16.944 397.500 16.944 384.167 L 16.944 370.833 32.917 370.833 L 48.889 370.833 48.889 384.167 L 48.889 397.500 56.250 397.500 L 63.611 397.500 63.611 365.556 L 63.611 333.611 56.250 333.611 L 48.889 333.611 48.889 346.528 L 48.889 359.444 32.917 359.444 L 16.944 359.444 16.944 346.528 L 16.944 333.611 9.583 333.611 L 2.222 333.611 2.222 365.556 M75.351 356.736 C 75.488 385.550,75.490 385.562,80.267 390.303 C 86.151 396.142,93.642 398.280,107.155 397.976 C 118.855 397.714,124.943 395.694,130.463 390.244 C 135.176 385.591,135.537 382.939,135.548 352.847 L 135.556 333.611 128.056 333.611 L 120.556 333.611 120.556 354.734 C 120.556 380.490,120.487 381.032,116.783 384.417 C 111.409 389.328,96.599 388.508,92.615 383.078 C 90.142 379.708,90.012 378.269,90.006 354.097 L 90.000 333.611 82.620 333.611 L 75.241 333.611 75.351 356.736 M152.639 365.192 C 144.694 382.553,138.154 396.927,138.104 397.133 C 138.029 397.443,139.378 397.496,145.834 397.435 L 153.655 397.361 156.725 389.792 L 159.794 382.222 174.581 382.222 L 189.368 382.222 192.518 389.752 C 194.250 393.894,195.800 397.333,195.962 397.396 C 196.124 397.458,199.842 397.476,204.224 397.435 L 212.192 397.361 197.504 365.556 L 182.816 333.750 174.950 333.688 L 167.083 333.625 152.639 365.192 M203.627 335.899 C 204.084 337.161,209.257 351.507,215.123 367.778 L 225.787 397.361 234.768 397.433 L 243.750 397.504 249.980 374.377 C 253.406 361.657,256.281 351.107,256.368 350.932 C 256.456 350.757,259.778 361.161,263.750 374.052 L 270.972 397.491 280.000 397.492 L 289.028 397.492 299.653 365.745 C 305.497 348.284,310.278 333.911,310.278 333.804 C 310.278 333.698,306.872 333.613,302.708 333.616 L 295.139 333.621 288.350 356.046 C 284.616 368.381,281.299 379.261,280.980 380.225 L 280.401 381.979 272.770 357.795 L 265.139 333.612 256.488 333.611 C 249.819 333.611,247.809 333.691,247.712 333.958 C 247.644 334.149,244.668 344.957,241.099 357.976 C 237.530 370.995,234.542 381.584,234.458 381.506 C 234.374 381.429,230.803 370.652,226.523 357.558 L 218.741 333.750 210.768 333.676 L 202.795 333.603 203.627 335.899 M340.694 333.793 C 324.619 335.705,317.026 341.998,314.153 355.792 C 310.272 374.427,316.473 390.130,329.741 395.265 C 334.770 397.212,335.613 397.288,353.681 397.425 L 370.000 397.549 370.000 391.846 L 370.000 386.143 355.486 386.044 C 339.769 385.937,339.743 385.935,336.195 384.315 C 332.422 382.591,329.722 377.360,329.722 371.769 L 329.722 370.833 349.861 370.833 L 370.000 370.833 370.000 365.139 L 370.000 359.444 349.909 359.444 L 329.817 359.444 330.068 357.569 C 330.980 350.760,334.752 346.651,341.228 345.412 C 342.946 345.084,346.079 345.000,356.691 345.000 L 370.000 345.000 370.000 339.306 L 370.000 333.611 355.764 333.653 C 347.934 333.676,341.153 333.739,340.694 333.793 M382.500 365.556 L 382.500 397.500 390.139 397.500 L 397.778 397.500 397.778 365.556 L 397.778 333.611 390.139 333.611 L 382.500 333.611 382.500 365.556 M179.624 359.034 L 184.665 370.833 174.590 370.833 L 164.515 370.833 169.378 359.028 C 172.054 352.535,174.319 347.225,174.413 347.228 C 174.507 347.231,176.852 352.544,179.624 359.034 " stroke="none" fill="#0c0c0c" fill-rule="evenodd"></path><path id="path4" d="M168.333 0.157 C 168.104 0.208,166.143 0.581,163.974 0.987 L 160.032 1.723 159.181 4.076 C 153.530 19.692,152.062 39.238,155.305 55.670 C 159.917 79.039,172.933 100.362,191.208 114.489 C 194.294 116.875,194.097 116.971,193.986 113.125 C 192.680 67.980,185.385 27.913,174.527 6.250 C 171.362 -0.065,170.988 -0.433,168.333 0.157 M335.909 56.443 C 322.166 73.534,300.965 103.377,288.049 123.813 C 286.333 126.528,284.691 129.094,284.400 129.514 C 283.621 130.641,284.155 130.542,288.728 128.715 C 311.437 119.641,329.971 102.516,340.699 80.694 C 344.212 73.549,347.762 63.807,347.379 62.367 C 347.219 61.769,339.528 53.307,338.982 53.130 C 338.804 53.072,337.421 54.563,335.909 56.443 M208.775 73.654 C 207.576 79.319,205.493 114.389,205.812 123.539 C 205.829 124.041,206.357 124.424,208.542 125.519 C 225.619 134.078,246.304 137.504,265.202 134.902 C 268.295 134.477,267.371 135.608,271.476 127.222 C 280.304 109.189,287.715 89.687,289.308 80.301 C 289.396 79.779,289.551 79.220,289.651 79.057 C 289.751 78.895,288.889 79.534,287.735 80.477 C 265.197 98.893,232.443 96.974,211.887 76.032 C 209.205 73.300,208.899 73.066,208.775 73.654 " stroke="none" fill="#f45649" fill-rule="evenodd"></path></g></svg>