<svg id="svg" version="1.1" xmlns="http://www.w3.org/2000/svg" xmlns:xlink="http://www.w3.org/1999/xlink" width="400" height="400" viewBox="0, 0, 400,400"><g id="svgg"><path id="path0" d="M106.600 76.547 C 104.058 77.371,101.852 78.647,79.200 92.400 C 75.130 94.871,71.260 97.208,70.600 97.593 C 69.940 97.978,67.870 99.240,66.000 100.396 C 59.954 104.137,57.424 105.685,56.200 106.396 C 55.540 106.780,53.470 108.041,51.600 109.200 C 49.730 110.359,47.584 111.657,46.831 112.085 C 41.757 114.971,39.456 117.180,38.116 120.453 C 37.439 122.104,37.400 125.404,37.400 180.400 L 37.400 238.600 38.515 240.497 C 40.288 243.514,40.353 243.566,48.400 248.527 C 49.830 249.409,52.170 250.848,53.600 251.725 C 55.030 252.603,57.413 254.103,58.895 255.060 C 60.378 256.017,61.685 256.800,61.800 256.800 C 61.915 256.800,63.222 257.582,64.705 258.538 C 66.187 259.494,68.930 261.232,70.800 262.400 C 72.670 263.568,75.413 265.306,76.895 266.262 C 78.378 267.218,79.691 268.000,79.813 268.000 C 79.936 268.000,81.370 268.900,83.000 270.000 C 84.630 271.100,86.047 272.000,86.148 272.000 C 86.311 272.000,91.151 274.986,100.500 280.854 C 102.205 281.924,104.995 283.670,106.700 284.734 C 110.209 286.924,114.701 289.731,119.400 292.671 C 121.160 293.772,123.860 295.448,125.400 296.397 C 126.940 297.345,129.413 298.903,130.895 299.860 C 132.378 300.817,133.685 301.600,133.800 301.600 C 133.915 301.600,135.222 302.382,136.705 303.338 C 139.588 305.197,144.063 308.003,148.600 310.797 C 150.140 311.745,152.613 313.303,154.095 314.260 C 155.578 315.217,156.895 316.000,157.023 316.000 C 157.151 316.000,158.013 316.521,158.938 317.157 C 159.863 317.794,161.516 318.849,162.610 319.501 C 163.705 320.153,166.130 321.635,168.000 322.793 C 198.988 341.983,199.500 342.185,206.800 338.081 C 208.996 336.846,227.045 325.841,231.200 323.203 C 232.850 322.156,238.700 318.505,244.200 315.091 C 249.700 311.677,274.900 295.967,300.200 280.180 C 325.500 264.393,348.090 250.316,350.400 248.897 C 359.216 243.482,361.087 241.791,361.997 238.411 C 362.705 235.783,362.356 121.704,361.636 120.300 C 361.034 119.127,360.783 118.997,360.180 119.546 C 359.971 119.736,358.585 120.546,357.100 121.346 C 352.891 123.613,349.440 125.471,346.500 127.053 C 345.015 127.852,342.900 128.996,341.800 129.596 C 340.700 130.195,337.820 131.727,335.400 132.998 C 332.980 134.270,330.460 135.625,329.800 136.010 C 326.749 137.790,315.098 143.600,314.580 143.600 C 314.261 143.600,314.000 143.780,314.000 144.000 C 314.000 144.220,313.820 144.400,313.600 144.400 C 313.008 144.400,313.051 89.316,313.643 89.119 C 314.039 88.987,309.954 86.000,309.378 86.000 C 309.249 86.000,308.359 85.460,307.400 84.800 C 306.441 84.140,305.541 83.600,305.400 83.600 C 305.259 83.600,304.359 83.060,303.400 82.400 C 302.441 81.740,301.536 81.200,301.390 81.200 C 301.243 81.200,300.646 80.861,300.062 80.446 C 294.639 76.596,290.108 75.709,286.600 77.811 C 285.635 78.389,277.393 83.504,265.200 91.093 C 214.670 122.540,214.964 122.399,200.000 122.400 C 188.009 122.400,180.795 119.842,164.900 109.955 C 163.525 109.100,161.275 107.704,159.900 106.852 C 151.794 101.834,148.460 99.749,143.800 96.782 C 140.940 94.961,137.567 92.825,136.304 92.036 C 132.607 89.724,127.057 86.146,120.200 81.654 C 112.099 76.348,109.836 75.498,106.600 76.547 M123.600 186.920 C 123.600 216.036,123.713 225.153,124.080 225.520 C 124.434 225.874,128.055 226.000,137.889 226.000 L 151.218 226.000 151.109 233.500 L 151.000 241.000 129.600 241.000 L 108.200 241.000 108.098 194.900 L 107.997 148.800 115.798 148.800 L 123.600 148.800 123.600 186.920 M195.252 172.781 C 200.139 174.013,205.223 176.802,207.970 179.757 C 209.426 181.324,209.560 181.116,209.685 177.100 L 209.800 173.400 217.290 173.291 L 224.780 173.182 224.988 174.091 C 225.103 174.591,225.062 189.850,224.898 208.000 L 224.600 241.000 217.653 241.110 C 209.270 241.242,209.600 241.412,209.600 236.951 C 209.600 233.223,209.460 233.061,207.775 234.842 C 194.908 248.445,169.540 243.318,160.066 225.200 C 155.159 215.817,154.263 202.455,157.960 193.800 C 161.901 184.575,168.351 177.470,175.200 174.810 C 175.970 174.511,176.780 174.149,177.000 174.005 C 177.439 173.719,179.704 173.045,182.200 172.459 C 185.105 171.776,191.933 171.945,195.252 172.781 M291.294 173.750 C 291.456 173.998,291.591 176.635,291.594 179.611 C 291.600 185.172,291.464 185.742,289.689 187.556 C 289.390 187.862,284.710 193.442,279.288 199.956 C 273.867 206.470,269.332 211.890,269.210 212.000 C 269.088 212.110,268.184 213.190,267.200 214.400 C 266.216 215.610,265.313 216.690,265.192 216.800 C 264.108 217.793,256.800 226.806,256.800 227.151 C 256.800 227.476,261.633 227.600,274.357 227.600 C 289.998 227.600,291.941 227.669,292.157 228.233 C 292.517 229.172,292.440 240.118,292.069 240.703 C 291.816 241.100,285.970 241.184,264.175 241.103 L 236.600 241.000 236.490 235.166 L 236.379 229.333 245.890 217.947 C 251.120 211.685,258.955 202.308,263.300 197.110 C 267.645 191.911,271.200 187.557,271.200 187.433 C 271.200 187.310,263.505 187.162,254.100 187.104 L 237.000 187.000 236.890 180.230 C 236.807 175.091,236.903 173.375,237.290 173.110 C 238.080 172.569,290.931 173.195,291.294 173.750 M186.441 186.214 C 182.825 187.095,179.380 189.105,176.847 191.813 C 166.935 202.410,170.421 222.556,183.000 227.368 C 191.700 230.697,201.290 228.264,206.466 221.416 C 218.697 205.233,205.270 181.628,186.441 186.214 " stroke="none" fill="#f53949" fill-rule="evenodd"></path><path id="path1" d="M15.660 15.851 C 15.143 16.402,14.796 16.929,14.889 17.022 C 14.982 17.115,15.574 16.654,16.204 15.996 C 16.834 15.338,17.181 14.811,16.975 14.824 C 16.769 14.838,16.177 15.300,15.660 15.851 M383.796 15.996 C 384.426 16.654,385.019 17.114,385.113 17.020 C 385.322 16.812,383.356 14.800,382.943 14.800 C 382.782 14.800,383.166 15.338,383.796 15.996 M105.600 75.995 C 105.191 76.255,105.510 76.299,106.600 76.132 C 108.577 75.829,108.914 75.598,107.367 75.606 C 106.725 75.609,105.930 75.784,105.600 75.995 M109.600 75.756 C 109.600 75.842,110.217 75.985,110.972 76.073 C 111.727 76.161,112.256 76.090,112.148 75.916 C 111.955 75.603,109.600 75.455,109.600 75.756 M116.804 78.933 C 120.329 81.287,121.879 82.229,121.400 81.728 C 120.793 81.092,114.881 77.200,114.522 77.200 C 114.350 77.200,115.377 77.980,116.804 78.933 M97.600 80.436 C 96.936 80.979,96.869 81.115,97.400 80.840 C 98.705 80.166,99.428 79.612,99.000 79.615 C 98.780 79.617,98.150 79.986,97.600 80.436 M93.600 82.836 C 92.936 83.379,92.869 83.515,93.400 83.240 C 94.705 82.566,95.428 82.012,95.000 82.015 C 94.780 82.017,94.150 82.386,93.600 82.836 M89.600 85.236 C 88.936 85.779,88.869 85.915,89.400 85.640 C 90.705 84.966,91.428 84.412,91.000 84.415 C 90.780 84.417,90.150 84.786,89.600 85.236 M129.207 86.936 C 131.928 88.764,132.800 89.290,132.800 89.103 C 132.800 88.850,128.495 86.000,128.113 86.000 C 127.949 86.000,128.441 86.421,129.207 86.936 M85.281 87.772 C 83.525 89.014,83.097 89.545,84.600 88.618 C 86.678 87.335,87.391 86.799,86.989 86.820 C 86.775 86.830,86.007 87.259,85.281 87.772 M81.281 90.172 C 79.525 91.414,79.097 91.945,80.600 91.018 C 82.678 89.735,83.391 89.199,82.989 89.220 C 82.775 89.230,82.007 89.659,81.281 90.172 M77.281 92.572 C 75.525 93.814,75.097 94.345,76.600 93.418 C 78.678 92.135,79.391 91.599,78.989 91.620 C 78.775 91.630,78.007 92.059,77.281 92.572 M138.007 92.536 C 140.728 94.364,141.600 94.890,141.600 94.703 C 141.600 94.450,137.295 91.600,136.913 91.600 C 136.749 91.600,137.241 92.021,138.007 92.536 M72.687 95.368 C 70.186 97.100,69.781 97.572,71.834 96.363 C 74.181 94.980,75.462 94.042,75.000 94.043 C 74.780 94.044,73.739 94.640,72.687 95.368 M68.081 98.172 C 66.121 99.558,65.985 99.865,67.800 98.805 C 69.678 97.710,70.325 97.191,69.780 97.220 C 69.571 97.230,68.807 97.659,68.081 98.172 M146.807 98.136 C 149.528 99.964,150.400 100.490,150.400 100.303 C 150.400 100.050,146.095 97.200,145.713 97.200 C 145.549 97.200,146.041 97.621,146.807 98.136 M64.081 100.572 C 62.121 101.958,61.985 102.265,63.800 101.205 C 65.678 100.110,66.325 99.591,65.780 99.620 C 65.571 99.630,64.807 100.059,64.081 100.572 M153.207 102.136 C 155.928 103.964,156.800 104.490,156.800 104.303 C 156.800 104.050,152.495 101.200,152.113 101.200 C 151.949 101.200,152.441 101.621,153.207 102.136 M58.881 103.772 C 56.921 105.158,56.785 105.465,58.600 104.405 C 60.478 103.310,61.125 102.791,60.580 102.820 C 60.371 102.830,59.607 103.259,58.881 103.772 M158.800 105.620 C 160.187 106.561,160.978 106.835,160.000 106.036 C 159.450 105.586,158.820 105.217,158.600 105.215 C 158.380 105.213,158.470 105.396,158.800 105.620 M53.681 106.972 C 51.721 108.358,51.585 108.665,53.400 107.605 C 55.278 106.510,55.925 105.991,55.380 106.020 C 55.171 106.030,54.407 106.459,53.681 106.972 M163.011 108.139 C 164.919 109.441,166.000 110.078,166.000 109.899 C 166.000 109.645,162.904 107.600,162.520 107.600 C 162.356 107.600,162.577 107.842,163.011 108.139 M49.681 109.372 C 47.721 110.758,47.585 111.065,49.400 110.005 C 51.278 108.910,51.925 108.391,51.380 108.420 C 51.171 108.430,50.407 108.859,49.681 109.372 M167.011 110.539 C 168.919 111.841,170.000 112.478,170.000 112.299 C 170.000 112.045,166.904 110.000,166.520 110.000 C 166.356 110.000,166.577 110.242,167.011 110.539 M44.481 112.572 C 42.725 113.814,42.297 114.345,43.800 113.418 C 45.878 112.135,46.591 111.599,46.189 111.620 C 45.975 111.630,45.207 112.059,44.481 112.572 M170.800 112.820 C 172.187 113.761,172.978 114.035,172.000 113.236 C 171.450 112.786,170.820 112.417,170.600 112.415 C 170.380 112.413,170.470 112.596,170.800 112.820 M40.351 115.560 C 39.388 116.418,38.701 117.224,38.825 117.352 C 38.949 117.479,39.841 116.777,40.808 115.792 C 42.974 113.585,42.715 113.454,40.351 115.560 M173.600 114.420 C 174.987 115.361,175.778 115.635,174.800 114.836 C 174.250 114.386,173.620 114.017,173.400 114.015 C 173.180 114.013,173.270 114.196,173.600 114.420 M37.671 119.300 C 37.383 120.015,36.979 120.913,36.774 121.295 C 36.557 121.698,36.400 130.050,36.400 141.195 L 36.400 160.400 18.192 160.400 L -0.016 160.400 0.092 258.667 C 0.178 336.848,0.302 356.967,0.700 357.100 C 0.975 357.192,1.200 357.792,1.200 358.433 C 1.200 359.075,1.380 359.600,1.600 359.600 C 1.820 359.600,2.000 360.320,2.000 361.200 C 2.000 362.080,2.180 362.800,2.400 362.800 C 2.620 362.800,2.800 363.160,2.800 363.600 C 2.800 364.040,2.980 364.400,3.200 364.400 C 3.420 364.400,3.600 364.940,3.600 365.600 C 3.600 366.260,3.780 366.800,4.000 366.800 C 4.220 366.800,4.400 367.160,4.400 367.600 C 4.400 368.040,4.580 368.400,4.800 368.400 C 5.020 368.400,5.200 368.760,5.200 369.200 C 5.200 369.640,5.380 370.000,5.600 370.000 C 5.820 370.000,6.000 370.320,6.000 370.712 C 6.000 371.103,6.360 371.683,6.800 372.000 C 7.240 372.317,7.600 372.897,7.600 373.288 C 7.600 373.680,7.780 374.000,8.000 374.000 C 8.220 374.000,8.400 374.288,8.400 374.640 C 8.400 374.991,8.940 375.783,9.600 376.400 C 10.260 377.017,10.800 377.730,10.800 377.986 C 10.800 378.242,11.700 379.329,12.800 380.400 C 13.900 381.471,14.800 382.548,14.800 382.792 C 14.800 383.369,16.631 385.200,17.208 385.200 C 17.452 385.200,18.529 386.100,19.600 387.200 C 20.671 388.300,21.758 389.200,22.014 389.200 C 22.270 389.200,22.983 389.740,23.600 390.400 C 24.217 391.060,25.009 391.600,25.360 391.600 C 25.712 391.600,26.000 391.780,26.000 392.000 C 26.000 392.220,26.320 392.400,26.712 392.400 C 27.103 392.400,27.683 392.760,28.000 393.200 C 28.317 393.640,28.897 394.000,29.288 394.000 C 29.680 394.000,30.000 394.180,30.000 394.400 C 30.000 394.620,30.360 394.800,30.800 394.800 C 31.240 394.800,31.600 394.980,31.600 395.200 C 31.600 395.420,31.960 395.600,32.400 395.600 C 32.840 395.600,33.200 395.780,33.200 396.000 C 33.200 396.220,33.740 396.400,34.400 396.400 C 35.060 396.400,35.600 396.580,35.600 396.800 C 35.600 397.020,35.960 397.200,36.400 397.200 C 36.840 397.200,37.200 397.380,37.200 397.600 C 37.200 397.820,37.920 398.000,38.800 398.000 C 39.680 398.000,40.400 398.180,40.400 398.400 C 40.400 398.620,40.925 398.800,41.567 398.800 C 42.208 398.800,42.808 399.025,42.900 399.300 C 43.145 400.036,356.855 400.036,357.100 399.300 C 357.192 399.025,357.792 398.800,358.433 398.800 C 359.075 398.800,359.600 398.620,359.600 398.400 C 359.600 398.180,360.320 398.000,361.200 398.000 C 362.080 398.000,362.800 397.820,362.800 397.600 C 362.800 397.380,363.160 397.200,363.600 397.200 C 364.040 397.200,364.400 397.020,364.400 396.800 C 364.400 396.580,364.940 396.400,365.600 396.400 C 366.260 396.400,366.800 396.220,366.800 396.000 C 366.800 395.780,367.160 395.600,367.600 395.600 C 368.040 395.600,368.400 395.420,368.400 395.200 C 368.400 394.980,368.760 394.800,369.200 394.800 C 369.640 394.800,370.000 394.620,370.000 394.400 C 370.000 394.180,370.320 394.000,370.712 394.000 C 371.103 394.000,371.683 393.640,372.000 393.200 C 372.317 392.760,372.897 392.400,373.288 392.400 C 373.680 392.400,374.000 392.220,374.000 392.000 C 374.000 391.780,374.288 391.600,374.640 391.600 C 374.991 391.600,375.783 391.060,376.400 390.400 C 377.017 389.740,377.730 389.200,377.986 389.200 C 378.242 389.200,379.329 388.300,380.400 387.200 C 381.471 386.100,382.548 385.200,382.792 385.200 C 383.369 385.200,385.200 383.369,385.200 382.792 C 385.200 382.548,386.100 381.471,387.200 380.400 C 388.300 379.329,389.200 378.242,389.200 377.986 C 389.200 377.730,389.740 377.017,390.400 376.400 C 391.060 375.783,391.600 374.991,391.600 374.640 C 391.600 374.288,391.780 374.000,392.000 374.000 C 392.220 374.000,392.400 373.680,392.400 373.288 C 392.400 372.897,392.760 372.317,393.200 372.000 C 393.640 371.683,394.000 371.103,394.000 370.712 C 394.000 370.320,394.180 370.000,394.400 370.000 C 394.620 370.000,394.800 369.640,394.800 369.200 C 394.800 368.760,394.980 368.400,395.200 368.400 C 395.420 368.400,395.600 368.040,395.600 367.600 C 395.600 367.160,395.780 366.800,396.000 366.800 C 396.220 366.800,396.400 366.260,396.400 365.600 C 396.400 364.940,396.580 364.400,396.800 364.400 C 397.020 364.400,397.200 364.040,397.200 363.600 C 397.200 363.160,397.380 362.800,397.600 362.800 C 397.820 362.800,398.000 362.080,398.000 361.200 C 398.000 360.320,398.180 359.600,398.400 359.600 C 398.620 359.600,398.800 359.075,398.800 358.433 C 398.800 357.792,399.025 357.192,399.300 357.100 C 399.698 356.967,399.822 336.847,399.908 258.663 L 400.016 160.392 381.708 160.496 L 363.400 160.600 363.200 199.600 C 363.006 237.444,362.977 238.647,362.208 240.200 C 361.044 242.552,358.657 244.740,354.600 247.174 C 350.825 249.439,342.245 254.770,302.400 279.609 C 201.594 342.451,205.094 340.370,200.088 340.441 C 195.101 340.512,198.731 342.677,86.000 272.406 C 69.885 262.361,58.621 255.363,45.600 247.309 C 40.268 244.010,39.220 243.020,37.817 239.952 L 36.789 237.705 36.895 179.752 L 37.000 121.800 37.878 119.900 C 38.360 118.855,38.629 118.000,38.475 118.000 C 38.321 118.000,37.960 118.585,37.671 119.300 M183.400 119.200 C 184.501 119.673,184.892 119.673,184.600 119.200 C 184.464 118.980,183.958 118.813,183.476 118.828 C 182.631 118.855,182.629 118.869,183.400 119.200 M185.800 120.000 C 186.901 120.473,187.292 120.473,187.000 120.000 C 186.864 119.780,186.358 119.613,185.876 119.628 C 185.031 119.655,185.029 119.669,185.800 120.000 M213.200 120.018 C 212.762 120.315,212.924 120.352,213.800 120.156 C 215.271 119.827,215.590 119.598,214.567 119.606 C 214.145 119.609,213.530 119.795,213.200 120.018 M187.633 120.543 C 187.725 120.621,188.430 120.801,189.200 120.942 C 190.185 121.123,190.422 121.082,190.000 120.806 C 189.458 120.450,187.237 120.203,187.633 120.543 M210.000 120.806 C 209.578 121.082,209.815 121.123,210.800 120.942 C 212.525 120.625,212.851 120.398,211.567 120.406 C 211.035 120.409,210.330 120.589,210.000 120.806 M190.833 121.351 C 190.925 121.434,192.260 121.602,193.800 121.726 C 195.952 121.898,196.230 121.869,195.000 121.598 C 193.383 121.242,190.526 121.073,190.833 121.351 M204.600 121.611 C 203.872 121.802,204.502 121.841,206.200 121.709 C 207.740 121.589,209.075 121.425,209.167 121.345 C 209.473 121.078,205.816 121.291,204.600 121.611 " stroke="none" fill="#0a0e85" fill-rule="evenodd"></path><path id="path2" d="M313.200 116.800 C 313.200 134.933,313.337 144.400,313.600 144.400 C 313.820 144.400,314.000 144.220,314.000 144.000 C 314.000 143.780,314.261 143.600,314.580 143.600 C 315.098 143.600,326.749 137.790,329.800 136.010 C 330.460 135.625,332.980 134.270,335.400 132.998 C 337.820 131.727,340.700 130.195,341.800 129.596 C 343.671 128.576,345.782 127.437,351.900 124.145 C 362.227 118.589,361.470 119.258,359.745 117.208 C 358.650 115.906,356.829 114.656,350.400 110.791 C 348.310 109.535,342.370 105.941,337.200 102.805 C 327.915 97.173,326.641 96.414,323.700 94.753 C 322.875 94.287,321.722 93.567,321.138 93.153 C 320.554 92.739,319.957 92.400,319.810 92.400 C 319.664 92.400,318.759 91.860,317.800 91.200 C 316.841 90.540,315.773 90.000,315.428 90.000 C 315.083 90.000,314.800 89.820,314.800 89.600 C 314.800 89.380,314.440 89.200,314.000 89.200 C 313.208 89.200,313.200 89.467,313.200 116.800 M108.098 194.900 L 108.200 241.000 129.600 241.000 L 151.000 241.000 151.109 233.500 L 151.218 226.000 137.889 226.000 C 128.055 226.000,124.434 225.874,124.080 225.520 C 123.713 225.153,123.600 216.036,123.600 186.920 L 123.600 148.800 115.798 148.800 L 107.997 148.800 108.098 194.900 M182.200 172.459 C 179.704 173.045,177.439 173.719,177.000 174.005 C 176.780 174.149,175.970 174.511,175.200 174.810 C 168.351 177.470,161.901 184.575,157.960 193.800 C 155.138 200.408,155.016 211.899,157.686 219.800 C 164.548 240.111,187.615 248.884,204.400 237.567 C 205.610 236.751,207.129 235.525,207.775 234.842 C 209.460 233.061,209.600 233.223,209.600 236.951 C 209.600 241.412,209.270 241.242,217.653 241.110 L 224.600 241.000 224.898 208.000 C 225.062 189.850,225.103 174.591,224.988 174.091 L 224.780 173.182 217.290 173.291 L 209.800 173.400 209.685 177.100 C 209.560 181.116,209.426 181.324,207.970 179.757 C 202.497 173.869,190.571 170.491,182.200 172.459 M237.290 173.110 C 236.903 173.375,236.807 175.091,236.890 180.230 L 237.000 187.000 254.100 187.104 C 263.505 187.162,271.200 187.310,271.200 187.433 C 271.200 187.557,267.645 191.911,263.300 197.110 C 258.955 202.308,251.120 211.685,245.890 217.947 L 236.379 229.333 236.490 235.166 L 236.600 241.000 264.175 241.103 C 285.970 241.184,291.816 241.100,292.069 240.703 C 292.440 240.118,292.517 229.172,292.157 228.233 C 291.941 227.669,289.998 227.600,274.357 227.600 C 261.633 227.600,256.800 227.476,256.800 227.151 C 256.800 226.806,264.108 217.793,265.192 216.800 C 265.313 216.690,266.216 215.610,267.200 214.400 C 268.184 213.190,269.088 212.110,269.210 212.000 C 269.332 211.890,273.867 206.470,279.288 199.956 C 284.710 193.442,289.390 187.862,289.689 187.556 C 291.464 185.742,291.600 185.172,291.594 179.611 C 291.591 176.635,291.456 173.998,291.294 173.750 C 290.931 173.195,238.080 172.569,237.290 173.110 M195.274 186.172 C 218.685 191.769,215.036 228.800,191.073 228.800 C 179.136 228.800,171.703 220.904,171.304 207.800 C 170.861 193.261,182.186 183.043,195.274 186.172 " stroke="none" fill="#fbfafa" fill-rule="evenodd"></path><path id="path3" d="M45.400 0.292 C 44.520 0.381,43.629 0.621,43.420 0.827 C 43.211 1.032,42.547 1.200,41.944 1.200 C 41.341 1.200,40.736 1.380,40.600 1.600 C 40.464 1.820,39.834 2.000,39.200 2.000 C 38.566 2.000,37.936 2.180,37.800 2.400 C 37.664 2.620,37.113 2.800,36.576 2.800 C 36.039 2.800,35.600 2.980,35.600 3.200 C 35.600 3.420,35.328 3.600,34.995 3.600 C 34.662 3.600,34.077 3.757,33.695 3.950 C 33.313 4.142,32.190 4.709,31.200 5.210 C 30.210 5.710,28.996 6.317,28.503 6.560 C 28.010 6.802,27.605 7.135,27.603 7.300 C 27.601 7.465,27.240 7.600,26.800 7.600 C 26.360 7.600,26.000 7.750,26.000 7.932 C 26.000 8.115,25.505 8.519,24.900 8.830 C 24.295 9.140,23.530 9.674,23.200 10.016 C 22.870 10.358,21.970 11.070,21.200 11.598 C 17.844 13.900,10.110 22.545,7.958 26.400 C 7.651 26.950,7.310 27.490,7.200 27.600 C 6.716 28.084,4.545 32.286,3.997 33.800 C 3.576 34.962,2.761 36.893,2.353 37.695 C 2.159 38.077,2.000 38.831,2.000 39.371 C 2.000 39.911,1.840 40.452,1.644 40.573 C 1.449 40.694,1.186 41.379,1.061 42.096 C 0.936 42.813,0.659 44.390,0.446 45.600 C 0.209 46.944,0.047 69.702,0.029 104.100 L 0.000 160.400 18.200 160.400 L 36.400 160.400 36.400 141.195 C 36.400 130.050,36.557 121.698,36.774 121.295 C 36.979 120.913,37.383 120.015,37.671 119.300 C 37.960 118.585,38.331 118.000,38.498 118.000 C 38.664 118.000,38.800 117.764,38.800 117.475 C 38.800 116.625,45.129 111.600,46.200 111.600 C 46.334 111.600,47.504 110.880,48.800 110.000 C 50.096 109.120,51.269 108.400,51.406 108.400 C 51.543 108.400,52.441 107.860,53.400 107.200 C 54.359 106.540,55.257 106.000,55.394 106.000 C 55.531 106.000,56.704 105.280,58.000 104.400 C 59.296 103.520,60.466 102.800,60.600 102.800 C 60.734 102.800,61.904 102.080,63.200 101.200 C 64.496 100.320,65.669 99.600,65.806 99.600 C 65.943 99.600,66.841 99.060,67.800 98.400 C 68.759 97.740,69.657 97.200,69.794 97.200 C 69.931 97.200,71.104 96.480,72.400 95.600 C 73.696 94.720,74.869 94.000,75.006 94.000 C 75.143 94.000,76.041 93.460,77.000 92.800 C 77.959 92.140,78.859 91.600,79.000 91.600 C 79.141 91.600,80.041 91.060,81.000 90.400 C 81.959 89.740,82.859 89.200,83.000 89.200 C 83.141 89.200,84.041 88.660,85.000 88.000 C 85.959 87.340,86.859 86.800,87.000 86.800 C 87.141 86.800,88.041 86.260,89.000 85.600 C 89.959 84.940,90.859 84.400,91.000 84.400 C 91.141 84.400,92.041 83.860,93.000 83.200 C 93.959 82.540,94.864 82.000,95.010 82.000 C 95.157 82.000,95.754 81.661,96.338 81.247 C 96.922 80.833,98.075 80.113,98.900 79.647 C 99.725 79.181,101.075 78.410,101.900 77.932 C 108.771 73.958,110.491 74.302,121.890 81.926 C 125.240 84.167,128.081 86.000,128.204 86.000 C 128.326 86.000,130.305 87.260,132.600 88.800 C 134.895 90.340,136.877 91.600,137.005 91.600 C 137.132 91.600,138.570 92.500,140.200 93.600 C 141.830 94.700,143.324 95.600,143.520 95.600 C 143.716 95.600,144.202 95.960,144.600 96.400 C 144.998 96.840,145.484 97.200,145.680 97.200 C 145.876 97.200,147.370 98.100,149.000 99.200 C 150.630 100.300,152.070 101.200,152.200 101.200 C 152.330 101.200,153.770 102.100,155.400 103.200 C 157.030 104.300,158.475 105.200,158.610 105.200 C 158.745 105.200,159.641 105.740,160.600 106.400 C 161.559 107.060,162.459 107.600,162.600 107.600 C 162.741 107.600,163.641 108.140,164.600 108.800 C 165.559 109.460,166.459 110.000,166.600 110.000 C 166.741 110.000,167.608 110.510,168.528 111.133 C 169.448 111.756,170.470 112.382,170.800 112.524 C 171.130 112.666,172.300 113.321,173.400 113.980 C 174.500 114.638,176.750 115.828,178.400 116.624 C 180.050 117.420,181.713 118.235,182.095 118.435 C 182.477 118.636,183.141 118.800,183.571 118.800 C 184.001 118.800,184.464 118.980,184.600 119.200 C 184.736 119.420,185.276 119.600,185.800 119.600 C 186.324 119.600,186.852 119.760,186.973 119.956 C 187.197 120.318,187.526 120.392,192.800 121.265 C 197.878 122.105,205.738 121.885,210.100 120.780 C 215.264 119.472,215.335 119.449,218.800 117.958 C 221.465 116.811,230.757 111.498,240.562 105.515 C 249.345 100.155,275.988 83.603,281.072 80.346 C 286.834 76.657,288.355 76.000,291.139 76.000 C 294.602 76.000,294.337 75.852,330.600 97.989 C 333.240 99.601,336.210 101.407,337.200 102.003 C 338.190 102.599,340.530 104.037,342.400 105.199 C 344.270 106.361,347.690 108.447,350.000 109.835 C 363.899 118.186,363.200 116.484,363.200 141.973 L 363.200 160.600 381.600 160.492 L 400.000 160.384 399.971 104.092 C 399.953 69.699,399.791 46.944,399.554 45.600 C 399.341 44.390,399.064 42.813,398.939 42.096 C 398.814 41.379,398.551 40.694,398.356 40.573 C 398.160 40.452,398.000 39.911,398.000 39.371 C 398.000 38.831,397.841 38.077,397.647 37.695 C 397.239 36.893,396.424 34.962,396.003 33.800 C 395.455 32.286,393.284 28.084,392.800 27.600 C 392.690 27.490,392.349 26.950,392.042 26.400 C 389.890 22.545,382.156 13.900,378.800 11.598 C 378.030 11.070,377.130 10.358,376.800 10.016 C 376.470 9.674,375.705 9.140,375.100 8.830 C 374.495 8.519,374.000 8.115,374.000 7.932 C 374.000 7.750,373.640 7.600,373.200 7.600 C 372.760 7.600,372.399 7.465,372.397 7.300 C 372.395 7.135,371.990 6.802,371.497 6.560 C 371.004 6.317,369.790 5.710,368.800 5.210 C 367.810 4.709,366.687 4.142,366.305 3.950 C 365.923 3.757,365.338 3.600,365.005 3.600 C 364.672 3.600,364.400 3.420,364.400 3.200 C 364.400 2.980,363.961 2.800,363.424 2.800 C 362.887 2.800,362.336 2.620,362.200 2.400 C 362.064 2.180,361.434 2.000,360.800 2.000 C 360.166 2.000,359.536 1.820,359.400 1.600 C 359.264 1.380,358.659 1.200,358.056 1.200 C 357.453 1.200,356.735 0.975,356.460 0.700 C 355.985 0.225,50.042 -0.177,45.400 0.292 " stroke="none" fill="#0404b8" fill-rule="evenodd"></path><path id="path4" d="M109.200 75.981 C 109.750 76.167,111.010 76.575,112.000 76.887 C 112.990 77.199,116.680 79.343,120.200 81.651 C 127.008 86.114,132.555 89.692,136.304 92.036 C 137.567 92.825,140.940 94.961,143.800 96.782 C 148.460 99.749,151.794 101.834,159.900 106.852 C 161.275 107.704,163.525 109.100,164.900 109.955 C 180.795 119.842,188.009 122.400,200.000 122.400 C 214.964 122.399,214.670 122.540,265.200 91.093 C 277.393 83.504,285.635 78.389,286.600 77.811 C 290.108 75.709,294.639 76.596,300.062 80.446 C 300.646 80.861,301.243 81.200,301.390 81.200 C 301.536 81.200,302.441 81.740,303.400 82.400 C 304.359 83.060,305.259 83.600,305.400 83.600 C 305.541 83.600,306.441 84.140,307.400 84.800 C 308.359 85.460,309.257 86.000,309.394 86.000 C 309.531 86.000,310.704 86.720,312.000 87.600 C 313.296 88.480,314.466 89.200,314.600 89.200 C 314.734 89.200,315.904 89.920,317.200 90.800 C 318.496 91.680,319.673 92.400,319.816 92.400 C 319.959 92.400,320.554 92.739,321.138 93.153 C 321.722 93.567,322.875 94.287,323.700 94.753 C 326.641 96.414,327.915 97.173,337.200 102.805 C 342.370 105.941,348.310 109.535,350.400 110.791 C 358.903 115.903,359.618 116.483,361.255 119.600 L 362.200 121.400 362.308 179.128 C 362.381 218.412,362.282 237.353,361.997 238.411 C 361.087 241.791,359.216 243.482,350.400 248.897 C 348.090 250.316,325.500 264.393,300.200 280.180 C 274.900 295.967,249.700 311.677,244.200 315.091 C 238.700 318.505,232.850 322.156,231.200 323.203 C 227.045 325.841,208.996 336.846,206.800 338.081 C 199.500 342.185,198.988 341.983,168.000 322.793 C 166.130 321.635,163.705 320.153,162.610 319.501 C 161.516 318.849,159.863 317.794,158.938 317.157 C 158.013 316.521,157.151 316.000,157.023 316.000 C 156.895 316.000,155.578 315.217,154.095 314.260 C 152.613 313.303,150.140 311.745,148.600 310.797 C 144.063 308.003,139.588 305.197,136.705 303.338 C 135.222 302.382,133.915 301.600,133.800 301.600 C 133.685 301.600,132.378 300.817,130.895 299.860 C 129.413 298.903,126.940 297.345,125.400 296.397 C 122.650 294.703,119.661 292.841,113.100 288.734 C 111.285 287.598,108.450 285.828,106.800 284.800 C 105.150 283.772,102.360 282.026,100.600 280.920 C 91.672 275.307,86.313 272.000,86.148 272.000 C 86.047 272.000,84.630 271.100,83.000 270.000 C 81.370 268.900,79.936 268.000,79.813 268.000 C 79.691 268.000,78.378 267.218,76.895 266.262 C 75.413 265.306,72.670 263.568,70.800 262.400 C 68.930 261.232,66.187 259.494,64.705 258.538 C 63.222 257.582,61.915 256.800,61.800 256.800 C 61.685 256.800,60.378 256.017,58.895 255.060 C 57.413 254.103,54.985 252.573,53.500 251.660 C 52.015 250.747,49.675 249.308,48.300 248.462 C 40.409 243.608,40.284 243.507,38.515 240.497 L 37.400 238.600 37.400 180.400 C 37.400 125.404,37.439 122.104,38.116 120.453 C 39.456 117.180,41.757 114.971,46.831 112.085 C 47.584 111.657,49.730 110.359,51.600 109.200 C 53.470 108.041,55.540 106.780,56.200 106.396 C 57.424 105.685,59.954 104.137,66.000 100.396 C 67.870 99.240,69.940 97.978,70.600 97.593 C 71.260 97.208,75.130 94.871,79.200 92.400 C 101.945 78.591,104.080 77.357,106.600 76.560 C 107.837 76.168,107.973 76.049,107.200 76.036 C 105.374 76.003,101.915 78.004,66.800 99.407 C 60.750 103.094,52.830 107.907,49.200 110.101 C 41.866 114.535,39.290 116.741,37.922 119.763 L 37.000 121.800 36.895 179.752 L 36.789 237.705 37.817 239.952 C 39.220 243.020,40.268 244.010,45.600 247.309 C 58.621 255.363,69.885 262.361,86.000 272.406 C 198.731 342.677,195.101 340.512,200.088 340.441 C 205.094 340.370,201.594 342.451,302.400 279.609 C 342.245 254.770,350.825 249.439,354.600 247.174 C 358.657 244.740,361.044 242.552,362.208 240.200 C 363.298 237.997,363.671 125.026,362.601 121.343 C 361.417 117.271,359.574 115.587,350.000 109.835 C 347.690 108.447,344.270 106.361,342.400 105.199 C 340.530 104.037,338.190 102.599,337.200 102.003 C 336.210 101.407,333.240 99.601,330.600 97.989 C 294.337 75.852,294.602 76.000,291.139 76.000 C 288.356 76.000,286.837 76.656,281.072 80.345 C 277.513 82.623,251.339 98.935,241.200 105.194 C 215.621 120.985,213.559 121.811,199.800 121.784 C 185.835 121.757,180.837 119.595,150.484 100.456 C 147.121 98.335,142.441 95.385,140.084 93.900 C 133.508 89.756,129.195 86.986,120.098 81.065 C 113.643 76.864,112.310 76.179,110.000 75.877 C 108.758 75.715,108.510 75.747,109.200 75.981 " stroke="none" fill="#6d237b" fill-rule="evenodd"></path></g></svg>