<?xml version="1.0" ?><svg data-name="Слой 1" id="Слой_1" viewBox="0 0 128 128" xmlns="http://www.w3.org/2000/svg"><title/><path d="M119,106H106.67a56,56,0,0,0,14.61-37.35A57.34,57.34,0,0,0,64,11.37a29,29,0,0,0-4,.3V2a2,2,0,0,0-2-2H19.57a2,2,0,0,0-1.51,3.31L28,14.75v9.36a57.25,57.25,0,0,0,0,89.08v.06l-9.94,11.44A2,2,0,0,0,19.57,128H104.3a2,2,0,0,0,1.55-.73l14.7-18A2,2,0,0,0,119,106ZM64,15.37a53.34,53.34,0,0,1,53.28,53.28c0,13.82-5.72,27.05-16.11,37.35H60V15.71A24.83,24.83,0,0,1,64,15.37ZM10.72,68.65A53,53,0,0,1,28,29.39v78.52A53,53,0,0,1,10.72,68.65ZM103.35,124H24l7.55-8.69A2,2,0,0,0,32,114V14a2,2,0,0,0-.49-1.31L24,4H56V108a2,2,0,0,0,2,2h56.78Z"/></svg>