<svg id="svg" version="1.1" xmlns="http://www.w3.org/2000/svg" xmlns:xlink="http://www.w3.org/1999/xlink" width="400" height="400" viewBox="0, 0, 400,400"><g id="svgg"><path id="path0" d="M117.200 103.077 C 111.378 104.054,106.221 107.959,103.566 113.400 L 102.200 116.200 102.200 173.400 L 102.200 230.600 103.650 233.600 C 105.379 237.178,108.186 240.241,111.130 241.764 C 114.696 243.608,114.369 243.588,141.309 243.594 L 166.817 243.600 173.309 247.962 C 176.879 250.361,182.230 253.992,185.200 256.032 C 188.170 258.072,192.580 261.092,195.000 262.743 C 197.420 264.395,201.110 267.003,203.200 268.538 C 205.290 270.074,208.260 272.257,209.800 273.391 C 211.340 274.524,213.770 276.309,215.200 277.357 C 216.630 278.405,218.250 279.595,218.800 280.001 C 219.350 280.407,222.320 282.582,225.400 284.835 C 230.825 288.802,238.350 294.352,239.624 295.324 C 241.556 296.799,242.882 297.651,243.024 297.509 C 243.210 297.323,242.463 294.706,236.600 275.000 C 234.243 267.080,232.154 260.015,231.958 259.300 C 230.749 254.908,228.951 248.823,228.161 246.454 C 227.142 243.399,225.155 243.600,256.355 243.600 C 283.080 243.600,284.299 243.568,286.369 242.811 C 290.845 241.175,294.208 238.074,296.358 233.600 L 297.800 230.600 297.910 174.800 C 297.985 136.497,297.886 118.375,297.594 117.008 C 296.203 110.493,290.905 105.107,284.216 103.406 C 281.960 102.833,120.552 102.514,117.200 103.077 M239.789 132.251 C 242.085 133.132,249.278 145.442,251.564 152.400 C 252.871 156.382,253.104 157.225,253.551 159.600 C 253.779 160.810,254.189 162.970,254.462 164.400 C 257.210 178.794,253.114 198.436,244.777 210.835 C 240.762 216.806,240.258 217.200,236.640 217.200 C 232.732 217.200,232.542 216.795,234.970 213.638 C 252.145 191.318,251.693 156.019,233.956 134.425 C 232.396 132.526,232.930 132.000,236.416 132.000 C 237.911 132.000,239.429 132.113,239.789 132.251 M171.037 145.656 C 178.378 150.100,175.197 158.195,165.765 159.076 C 155.584 160.027,150.084 150.747,157.899 145.803 C 161.575 143.477,167.331 143.413,171.037 145.656 M215.800 172.800 L 215.800 177.400 201.047 177.505 C 183.750 177.628,185.200 178.056,185.200 172.831 C 185.200 167.526,183.709 167.973,200.985 168.095 L 215.800 168.200 215.800 172.800 M168.669 187.398 C 171.170 188.141,174.175 190.707,174.815 192.645 C 177.092 199.546,166.102 204.754,158.264 200.488 C 148.610 195.233,157.479 184.075,168.669 187.398 " stroke="none" fill="#fbfafb" fill-rule="evenodd"></path><path id="path1" d="M105.600 26.259 C 72.628 28.638,57.096 36.188,40.502 57.903 C 39.786 58.840,39.200 59.770,39.200 59.970 C 39.200 60.170,39.040 60.393,38.844 60.467 C 38.074 60.756,32.000 72.482,32.000 73.681 C 32.000 73.989,31.851 74.411,31.670 74.620 C 31.488 74.829,31.107 75.810,30.823 76.800 C 30.539 77.790,30.160 79.050,29.979 79.600 C 28.812 83.157,27.406 91.474,26.733 98.800 C 25.956 107.253,25.950 293.144,26.726 301.400 C 27.935 314.257,30.822 325.662,34.624 332.600 C 35.107 333.480,36.010 335.147,36.632 336.306 C 41.230 344.865,54.341 358.187,62.693 362.785 C 63.742 363.362,65.590 364.377,66.800 365.040 C 69.047 366.271,74.128 368.356,77.000 369.226 C 77.880 369.493,78.960 369.844,79.400 370.006 C 79.840 370.169,81.190 370.513,82.400 370.771 C 83.610 371.028,85.320 371.394,86.200 371.584 C 98.304 374.192,106.701 374.400,199.740 374.400 C 292.390 374.400,303.817 374.120,314.000 371.597 C 314.770 371.407,316.300 371.048,317.400 370.801 C 319.554 370.318,324.497 368.901,325.800 368.393 C 338.270 363.536,349.861 354.842,357.789 344.400 C 358.874 342.970,359.862 341.710,359.982 341.600 C 360.823 340.835,363.842 335.737,365.548 332.200 C 367.500 328.155,367.908 327.135,369.146 323.200 C 370.817 317.893,371.002 317.108,372.380 309.500 C 374.156 299.700,374.398 286.632,374.399 200.333 C 374.400 101.363,374.321 98.812,370.715 82.200 C 366.201 61.410,348.285 40.650,327.800 32.473 C 326.040 31.770,324.296 31.197,323.924 31.198 C 323.552 31.199,323.136 31.020,323.000 30.800 C 322.864 30.580,322.324 30.400,321.800 30.400 C 321.276 30.400,320.748 30.240,320.627 30.044 C 320.506 29.849,319.821 29.600,319.104 29.493 C 318.387 29.385,315.820 28.909,313.400 28.435 C 301.739 26.151,306.137 26.241,202.600 26.183 C 150.240 26.153,106.590 26.188,105.600 26.259 M283.836 102.623 C 287.967 103.581,291.609 105.692,293.866 108.437 C 294.483 109.186,295.102 109.890,295.242 110.000 C 295.864 110.488,297.657 114.451,298.202 116.543 C 299.063 119.847,299.098 227.046,298.239 230.270 C 297.306 233.777,295.549 236.846,293.116 239.218 C 291.025 241.259,290.050 241.883,286.200 243.649 C 285.225 244.097,279.695 244.221,256.700 244.313 C 241.135 244.375,228.400 244.542,228.400 244.684 C 228.400 244.827,228.577 245.496,228.794 246.172 C 229.010 246.847,229.634 248.930,230.179 250.800 C 231.051 253.789,233.465 262.017,236.633 272.800 C 237.182 274.670,238.172 278.000,238.833 280.200 C 239.494 282.400,240.407 285.460,240.861 287.000 C 241.316 288.540,241.848 290.213,242.044 290.719 C 242.240 291.224,242.400 291.992,242.400 292.424 C 242.400 292.857,242.562 293.523,242.761 293.905 C 245.835 299.819,244.207 299.606,235.349 292.935 C 234.717 292.459,231.680 290.219,228.600 287.958 C 225.520 285.696,221.200 282.516,219.000 280.890 C 213.065 276.504,210.000 274.257,205.800 271.211 C 204.700 270.414,202.450 268.759,200.800 267.535 C 198.332 265.704,194.010 262.736,184.584 256.400 C 184.093 256.070,180.026 253.280,175.546 250.200 L 167.400 244.600 141.200 244.381 C 113.119 244.145,114.665 244.261,110.501 242.076 C 107.886 240.704,104.632 237.193,103.131 234.122 L 101.800 231.400 101.800 173.400 L 101.800 115.400 103.142 112.770 C 105.843 107.476,110.288 104.000,116.200 102.556 C 119.587 101.729,280.258 101.793,283.836 102.623 M234.000 132.967 C 234.000 133.059,235.309 135.084,236.908 137.467 C 240.134 142.272,242.907 147.651,244.400 152.000 C 244.664 152.770,245.029 153.760,245.210 154.200 C 245.653 155.277,247.032 161.144,247.654 164.600 C 248.312 168.262,248.310 181.355,247.650 185.000 C 246.610 190.743,244.889 196.884,243.333 200.400 C 242.080 203.234,240.631 206.206,240.409 206.400 C 240.283 206.510,239.735 207.455,239.191 208.500 C 238.647 209.545,238.066 210.400,237.901 210.400 C 237.735 210.400,237.600 210.597,237.600 210.838 C 237.600 211.078,236.790 212.340,235.800 213.642 C 234.810 214.944,234.000 216.097,234.000 216.204 C 234.000 216.688,239.574 216.368,240.071 215.856 C 258.811 196.560,258.999 153.173,240.427 133.700 C 239.656 132.891,234.000 132.246,234.000 132.967 M160.111 145.364 C 155.612 147.001,153.538 151.285,155.669 154.537 C 156.594 155.948,158.806 157.600,159.771 157.600 C 160.091 157.600,160.464 157.780,160.600 158.000 C 160.736 158.221,162.530 158.400,164.600 158.400 C 166.670 158.400,168.464 158.221,168.600 158.000 C 168.736 157.780,169.179 157.600,169.585 157.600 C 169.991 157.600,171.188 156.816,172.246 155.858 C 178.572 150.132,169.225 142.049,160.111 145.364 M186.086 172.815 L 186.200 176.841 200.576 176.811 C 208.483 176.794,215.032 176.702,215.128 176.605 C 215.225 176.508,215.304 174.757,215.304 172.714 L 215.305 169.000 200.638 168.895 L 185.972 168.790 186.086 172.815 M160.200 188.149 C 152.352 191.118,153.162 198.870,161.545 201.018 C 170.623 203.343,178.329 195.460,172.214 190.104 C 169.514 187.738,163.761 186.802,160.200 188.149 " stroke="none" fill="#8b0493" fill-rule="evenodd"></path><path id="path2" d="M100.200 25.200 C 100.064 25.420,98.343 25.600,96.376 25.600 C 94.259 25.600,92.800 25.763,92.800 26.000 C 92.800 26.225,91.675 26.400,90.224 26.400 C 88.807 26.400,87.552 26.554,87.436 26.741 C 87.320 26.929,85.736 27.207,83.915 27.359 C 82.095 27.511,80.433 27.807,80.223 28.017 C 80.012 28.228,79.437 28.400,78.944 28.400 C 78.451 28.400,77.936 28.580,77.800 28.800 C 77.664 29.020,77.111 29.200,76.571 29.200 C 76.031 29.200,75.232 29.380,74.795 29.600 C 74.358 29.820,73.642 30.180,73.205 30.400 C 72.768 30.620,72.048 30.800,71.605 30.800 C 71.162 30.800,70.800 30.980,70.800 31.200 C 70.800 31.420,70.440 31.600,70.000 31.600 C 69.560 31.600,69.200 31.780,69.200 32.000 C 69.200 32.220,68.840 32.400,68.400 32.400 C 67.960 32.400,67.600 32.580,67.600 32.800 C 67.600 33.020,67.366 33.200,67.080 33.200 C 66.344 33.200,64.407 34.141,64.403 34.500 C 64.401 34.665,64.040 34.800,63.600 34.800 C 63.160 34.800,62.800 34.980,62.800 35.200 C 62.800 35.420,62.564 35.600,62.275 35.600 C 61.987 35.600,61.364 35.960,60.892 36.400 C 60.420 36.840,59.846 37.200,59.617 37.200 C 59.388 37.200,59.200 37.350,59.200 37.532 C 59.200 37.715,58.705 38.119,58.100 38.430 C 57.495 38.740,56.709 39.311,56.353 39.697 C 55.997 40.084,55.533 40.400,55.322 40.400 C 54.194 40.400,40.400 54.194,40.400 55.322 C 40.400 55.533,40.084 55.997,39.697 56.353 C 39.311 56.709,38.740 57.495,38.430 58.100 C 38.119 58.705,37.715 59.200,37.532 59.200 C 37.350 59.200,37.200 59.388,37.200 59.617 C 37.200 59.846,36.840 60.420,36.400 60.892 C 35.960 61.364,35.600 61.987,35.600 62.275 C 35.600 62.564,35.420 62.800,35.200 62.800 C 34.980 62.800,34.800 63.145,34.800 63.567 C 34.800 63.988,34.665 64.393,34.500 64.467 C 34.068 64.659,32.400 67.972,32.400 68.638 C 32.400 68.947,32.220 69.200,32.000 69.200 C 31.780 69.200,31.600 69.560,31.600 70.000 C 31.600 70.440,31.420 70.800,31.200 70.800 C 30.980 70.800,30.800 71.214,30.800 71.720 C 30.800 72.226,30.651 72.811,30.470 73.020 C 30.288 73.229,29.907 74.210,29.624 75.200 C 29.341 76.190,28.974 77.360,28.810 77.800 C 27.900 80.234,27.531 81.866,27.320 84.391 C 27.190 85.936,26.930 87.200,26.742 87.200 C 26.554 87.200,26.400 88.460,26.400 90.000 C 26.400 91.600,26.229 92.800,26.000 92.800 C 25.763 92.800,25.600 94.259,25.600 96.376 C 25.600 98.343,25.420 100.064,25.200 100.200 C 24.646 100.543,24.646 299.857,25.200 300.200 C 25.420 300.336,25.600 302.057,25.600 304.024 C 25.600 306.141,25.763 307.600,26.000 307.600 C 26.226 307.600,26.400 308.733,26.400 310.200 C 26.400 311.630,26.554 312.800,26.741 312.800 C 26.929 312.800,27.195 314.133,27.333 315.763 C 27.471 317.393,27.749 319.148,27.950 319.663 C 28.152 320.178,28.536 321.410,28.804 322.400 C 29.304 324.247,29.825 325.672,30.447 326.895 C 30.641 327.277,30.800 327.952,30.800 328.395 C 30.800 328.838,30.980 329.200,31.200 329.200 C 31.420 329.200,31.600 329.560,31.600 330.000 C 31.600 330.440,31.780 330.800,32.000 330.800 C 32.220 330.800,32.400 331.080,32.400 331.422 C 32.400 332.125,34.839 336.928,35.300 337.133 C 35.465 337.207,35.600 337.572,35.600 337.945 C 35.600 338.318,35.960 338.883,36.400 339.200 C 36.840 339.517,37.200 339.979,37.200 340.226 C 37.200 340.474,37.560 341.002,38.000 341.400 C 38.440 341.798,38.800 342.326,38.800 342.574 C 38.800 342.821,39.160 343.283,39.600 343.600 C 40.040 343.917,40.400 344.376,40.400 344.620 C 40.400 345.605,53.176 358.800,54.130 358.800 C 54.433 358.800,55.206 359.295,55.848 359.900 C 56.489 360.505,57.506 361.255,58.107 361.568 C 58.708 361.880,59.200 362.285,59.200 362.468 C 59.200 362.650,59.388 362.800,59.617 362.800 C 59.846 362.800,60.420 363.160,60.892 363.600 C 61.364 364.040,61.987 364.400,62.275 364.400 C 62.564 364.400,62.800 364.580,62.800 364.800 C 62.800 365.020,63.145 365.200,63.567 365.200 C 63.988 365.200,64.393 365.335,64.467 365.500 C 64.659 365.932,67.972 367.600,68.638 367.600 C 68.947 367.600,69.200 367.780,69.200 368.000 C 69.200 368.220,69.560 368.400,70.000 368.400 C 70.440 368.400,70.800 368.580,70.800 368.800 C 70.800 369.020,71.162 369.200,71.605 369.200 C 72.048 369.200,72.768 369.380,73.205 369.600 C 73.642 369.820,74.358 370.180,74.795 370.400 C 75.232 370.620,76.031 370.800,76.571 370.800 C 77.111 370.800,77.664 370.980,77.800 371.200 C 77.936 371.420,78.476 371.600,79.000 371.600 C 79.524 371.600,80.052 371.761,80.174 371.958 C 80.295 372.155,81.071 372.415,81.897 372.537 C 82.724 372.659,84.390 372.961,85.600 373.208 C 86.810 373.455,88.790 373.743,90.000 373.847 C 91.210 373.951,92.632 374.253,93.161 374.518 C 94.559 375.220,305.441 375.220,306.839 374.518 C 307.368 374.253,308.790 373.951,310.000 373.847 C 311.210 373.743,313.190 373.455,314.400 373.208 C 315.610 372.961,317.276 372.659,318.103 372.537 C 318.929 372.415,319.705 372.155,319.826 371.958 C 319.948 371.761,320.566 371.600,321.200 371.600 C 321.834 371.600,322.464 371.420,322.600 371.200 C 322.736 370.980,323.377 370.800,324.024 370.800 C 324.671 370.800,325.200 370.620,325.200 370.400 C 325.200 370.180,325.549 370.000,325.976 370.000 C 326.403 370.000,326.864 369.820,327.000 369.600 C 327.136 369.380,327.687 369.200,328.224 369.200 C 328.761 369.200,329.200 369.020,329.200 368.800 C 329.200 368.580,329.560 368.400,330.000 368.400 C 330.440 368.400,330.800 368.220,330.800 368.000 C 330.800 367.780,331.053 367.600,331.362 367.600 C 332.028 367.600,335.341 365.932,335.533 365.500 C 335.607 365.335,336.012 365.200,336.433 365.200 C 336.855 365.200,337.200 365.020,337.200 364.800 C 337.200 364.580,337.520 364.400,337.912 364.400 C 338.303 364.400,338.883 364.040,339.200 363.600 C 339.517 363.160,340.054 362.800,340.392 362.800 C 340.731 362.800,341.232 362.440,341.507 362.000 C 341.782 361.560,342.209 361.200,342.456 361.200 C 342.704 361.200,343.197 360.885,343.553 360.500 C 343.909 360.115,344.790 359.472,345.511 359.071 C 348.258 357.543,357.543 348.258,359.071 345.511 C 359.472 344.790,360.115 343.909,360.500 343.553 C 360.885 343.197,361.200 342.704,361.200 342.456 C 361.200 342.209,361.560 341.782,362.000 341.507 C 362.440 341.232,362.800 340.731,362.800 340.392 C 362.800 340.054,363.160 339.517,363.600 339.200 C 364.040 338.883,364.400 338.303,364.400 337.912 C 364.400 337.520,364.580 337.200,364.800 337.200 C 365.020 337.200,365.200 336.855,365.200 336.433 C 365.200 336.012,365.335 335.607,365.500 335.533 C 365.932 335.341,367.600 332.028,367.600 331.362 C 367.600 331.053,367.780 330.800,368.000 330.800 C 368.220 330.800,368.400 330.440,368.400 330.000 C 368.400 329.560,368.580 329.200,368.800 329.200 C 369.020 329.200,369.200 328.838,369.200 328.395 C 369.200 327.952,369.380 327.232,369.600 326.795 C 369.820 326.358,370.180 325.642,370.400 325.205 C 370.620 324.768,370.800 324.059,370.800 323.629 C 370.800 323.199,370.980 322.736,371.200 322.600 C 371.420 322.464,371.600 321.834,371.600 321.200 C 371.600 320.566,371.761 319.948,371.958 319.826 C 372.155 319.705,372.415 318.929,372.537 318.103 C 372.659 317.276,372.961 315.610,373.208 314.400 C 373.455 313.190,373.743 311.210,373.847 310.000 C 373.951 308.790,374.253 307.368,374.518 306.839 C 375.201 305.479,375.223 93.309,374.540 92.885 C 374.287 92.728,373.986 91.520,373.871 90.200 C 373.756 88.880,373.459 86.810,373.211 85.600 C 372.962 84.390,372.659 82.724,372.537 81.897 C 372.415 81.071,372.155 80.295,371.958 80.174 C 371.761 80.052,371.600 79.434,371.600 78.800 C 371.600 78.166,371.420 77.536,371.200 77.400 C 370.980 77.264,370.800 76.623,370.800 75.976 C 370.800 75.329,370.620 74.800,370.400 74.800 C 370.180 74.800,370.000 74.451,370.000 74.024 C 370.000 73.597,369.820 73.136,369.600 73.000 C 369.380 72.864,369.200 72.313,369.200 71.776 C 369.200 71.239,369.020 70.800,368.800 70.800 C 368.580 70.800,368.400 70.440,368.400 70.000 C 368.400 69.560,368.220 69.200,368.000 69.200 C 367.780 69.200,367.596 68.795,367.591 68.300 C 367.586 67.805,367.230 66.950,366.800 66.400 C 366.370 65.850,366.014 65.175,366.009 64.900 C 366.004 64.625,365.820 64.400,365.600 64.400 C 365.380 64.400,365.200 64.040,365.200 63.600 C 365.200 63.160,365.020 62.800,364.800 62.800 C 364.580 62.800,364.400 62.564,364.400 62.275 C 364.400 61.987,364.040 61.364,363.600 60.892 C 363.160 60.420,362.800 59.846,362.800 59.617 C 362.800 59.388,362.650 59.200,362.468 59.200 C 362.285 59.200,361.881 58.705,361.570 58.100 C 361.260 57.495,360.734 56.730,360.403 56.400 C 360.071 56.070,359.452 55.170,359.026 54.400 C 358.030 52.598,346.498 41.200,345.671 41.200 C 345.477 41.200,344.754 40.660,344.063 40.000 C 343.372 39.340,342.654 38.800,342.466 38.800 C 342.278 38.800,341.798 38.440,341.400 38.000 C 341.002 37.560,340.474 37.200,340.226 37.200 C 339.979 37.200,339.517 36.840,339.200 36.400 C 338.883 35.960,338.303 35.600,337.912 35.600 C 337.520 35.600,337.200 35.420,337.200 35.200 C 337.200 34.980,336.855 34.800,336.433 34.800 C 336.012 34.800,335.607 34.665,335.533 34.500 C 335.341 34.068,332.028 32.400,331.362 32.400 C 331.053 32.400,330.800 32.220,330.800 32.000 C 330.800 31.780,330.440 31.600,330.000 31.600 C 329.560 31.600,329.200 31.420,329.200 31.200 C 329.200 30.980,328.838 30.800,328.395 30.800 C 327.952 30.800,327.232 30.620,326.795 30.400 C 326.358 30.180,325.642 29.820,325.205 29.600 C 324.768 29.380,323.969 29.200,323.429 29.200 C 322.889 29.200,322.336 29.020,322.200 28.800 C 322.064 28.580,321.549 28.400,321.056 28.400 C 320.563 28.400,319.988 28.228,319.777 28.017 C 319.567 27.807,317.911 27.511,316.097 27.360 C 314.284 27.209,312.800 26.931,312.800 26.742 C 312.800 26.554,311.641 26.400,310.224 26.400 C 308.807 26.400,307.536 26.220,307.400 26.000 C 307.264 25.780,305.554 25.600,303.600 25.600 C 301.646 25.600,299.936 25.420,299.800 25.200 C 299.636 24.935,265.937 24.800,200.000 24.800 C 134.063 24.800,100.364 24.935,100.200 25.200 M303.400 26.905 C 306.480 27.272,310.980 27.961,313.400 28.435 C 315.820 28.909,318.387 29.385,319.104 29.493 C 319.821 29.600,320.506 29.849,320.627 30.044 C 320.748 30.240,321.276 30.400,321.800 30.400 C 322.324 30.400,322.864 30.580,323.000 30.800 C 323.136 31.020,323.552 31.199,323.924 31.198 C 324.296 31.197,326.040 31.770,327.800 32.473 C 348.285 40.650,366.201 61.410,370.715 82.200 C 374.321 98.812,374.400 101.363,374.399 200.333 C 374.398 286.632,374.156 299.700,372.380 309.500 C 371.002 317.108,370.817 317.893,369.146 323.200 C 367.908 327.135,367.500 328.155,365.548 332.200 C 363.842 335.737,360.823 340.835,359.982 341.600 C 359.862 341.710,358.874 342.970,357.789 344.400 C 349.861 354.842,338.270 363.536,325.800 368.393 C 324.497 368.901,319.554 370.318,317.400 370.801 C 316.300 371.048,314.770 371.407,314.000 371.597 C 303.817 374.120,292.390 374.400,199.740 374.400 C 106.701 374.400,98.304 374.192,86.200 371.584 C 85.320 371.394,83.610 371.028,82.400 370.771 C 81.190 370.513,79.840 370.169,79.400 370.006 C 78.960 369.844,77.880 369.493,77.000 369.226 C 74.128 368.356,69.047 366.271,66.800 365.040 C 65.590 364.377,63.742 363.362,62.693 362.785 C 54.341 358.187,41.230 344.865,36.632 336.306 C 36.010 335.147,35.107 333.480,34.624 332.600 C 30.822 325.662,27.935 314.257,26.726 301.400 C 25.950 293.144,25.956 107.253,26.733 98.800 C 27.406 91.474,28.812 83.157,29.979 79.600 C 30.160 79.050,30.539 77.790,30.823 76.800 C 31.107 75.810,31.488 74.829,31.670 74.620 C 31.851 74.411,32.000 73.989,32.000 73.681 C 32.000 72.482,38.074 60.756,38.844 60.467 C 39.040 60.393,39.200 60.170,39.200 59.970 C 39.200 59.082,45.750 51.148,49.261 47.783 C 53.354 43.861,59.022 39.397,62.400 37.436 C 74.902 30.178,84.036 27.815,105.600 26.259 C 113.446 25.693,298.306 26.296,303.400 26.905 " stroke="none" fill="#5e0466" fill-rule="evenodd"></path><path id="path3" d="M158.900 102.300 C 181.505 102.357,218.495 102.357,241.100 102.300 C 263.705 102.243,245.210 102.196,200.000 102.196 C 154.790 102.196,136.295 102.243,158.900 102.300 M288.000 104.179 C 288.000 104.289,288.540 104.659,289.200 105.000 C 289.860 105.341,290.400 105.531,290.400 105.421 C 290.400 105.311,289.860 104.941,289.200 104.600 C 288.540 104.259,288.000 104.069,288.000 104.179 M105.329 109.300 C 104.884 109.795,104.376 110.470,104.201 110.800 C 103.863 111.437,103.955 111.350,105.576 109.500 C 106.106 108.895,106.449 108.400,106.339 108.400 C 106.229 108.400,105.775 108.805,105.329 109.300 M298.594 173.400 C 298.594 203.980,298.642 216.431,298.700 201.069 C 298.758 185.707,298.758 160.687,298.700 145.469 C 298.642 130.251,298.594 142.820,298.594 173.400 M233.600 132.980 C 233.600 133.363,236.389 137.200,236.668 137.200 C 236.821 137.200,235.265 134.890,233.725 132.833 C 233.656 132.742,233.600 132.808,233.600 132.980 M243.855 138.400 C 244.880 139.940,245.792 141.200,245.882 141.200 C 246.095 141.200,245.798 140.701,243.915 137.900 C 243.066 136.635,242.285 135.600,242.182 135.600 C 242.078 135.600,242.831 136.860,243.855 138.400 M239.000 141.200 C 239.341 141.860,239.711 142.400,239.821 142.400 C 239.931 142.400,239.741 141.860,239.400 141.200 C 239.059 140.540,238.689 140.000,238.579 140.000 C 238.469 140.000,238.659 140.540,239.000 141.200 M163.111 144.693 C 164.051 144.778,165.491 144.777,166.311 144.691 C 167.130 144.605,166.360 144.536,164.600 144.537 C 162.840 144.539,162.170 144.609,163.111 144.693 M156.547 147.347 C 155.586 148.308,154.801 149.343,154.801 149.647 C 154.802 149.951,155.142 149.644,155.557 148.964 C 155.971 148.284,156.915 147.251,157.655 146.669 C 158.395 146.086,158.841 145.607,158.647 145.604 C 158.453 145.602,157.508 146.386,156.547 147.347 M170.600 145.852 C 170.820 146.045,171.720 146.832,172.599 147.601 L 174.198 149.000 172.999 147.666 C 172.340 146.932,171.440 146.145,171.000 145.917 C 170.560 145.689,170.380 145.660,170.600 145.852 M174.454 151.200 C 174.419 151.750,174.296 152.650,174.183 153.200 L 173.977 154.200 174.407 153.215 C 174.643 152.674,174.765 151.774,174.678 151.215 L 174.520 150.200 174.454 151.200 M172.575 155.700 L 171.400 157.000 172.700 155.825 C 173.912 154.730,174.184 154.400,173.875 154.400 C 173.806 154.400,173.221 154.985,172.575 155.700 M252.662 158.600 C 252.796 159.480,252.972 160.275,253.053 160.367 C 253.356 160.710,253.129 158.568,252.781 157.800 C 252.529 157.242,252.493 157.485,252.662 158.600 M163.091 158.689 C 163.801 158.777,165.061 158.779,165.891 158.692 C 166.721 158.605,166.140 158.533,164.600 158.531 C 163.060 158.529,162.381 158.600,163.091 158.689 M246.662 161.000 C 246.796 161.880,246.972 162.675,247.053 162.767 C 247.356 163.110,247.129 160.968,246.781 160.200 C 246.529 159.642,246.493 159.885,246.662 161.000 M253.693 163.600 C 253.693 164.370,253.775 164.685,253.876 164.300 C 253.976 163.915,253.976 163.285,253.876 162.900 C 253.775 162.515,253.693 162.830,253.693 163.600 M247.502 166.600 C 247.617 168.360,247.777 169.875,247.856 169.967 C 248.123 170.275,247.909 165.812,247.598 164.600 C 247.424 163.919,247.382 164.785,247.502 166.600 M254.093 166.800 C 254.093 167.570,254.175 167.885,254.276 167.500 C 254.376 167.115,254.376 166.485,254.276 166.100 C 254.175 165.715,254.093 166.030,254.093 166.800 M191.000 168.686 C 204.160 168.966,215.508 168.973,215.339 168.700 C 215.236 168.535,208.548 168.439,200.476 168.487 C 192.404 168.535,188.140 168.625,191.000 168.686 M185.744 172.800 C 185.744 174.890,185.812 175.745,185.894 174.700 C 185.976 173.655,185.976 171.945,185.894 170.900 C 185.812 169.855,185.744 170.710,185.744 172.800 M215.334 172.800 C 215.334 174.450,215.405 175.125,215.491 174.300 C 215.578 173.475,215.578 172.125,215.491 171.300 C 215.405 170.475,215.334 171.150,215.334 172.800 M254.551 174.800 C 254.551 177.330,254.616 178.365,254.696 177.100 C 254.775 175.835,254.775 173.765,254.696 172.500 C 254.616 171.235,254.551 172.270,254.551 174.800 M248.144 174.800 C 248.144 176.890,248.212 177.745,248.294 176.700 C 248.376 175.655,248.376 173.945,248.294 172.900 C 248.212 171.855,248.144 172.710,248.144 174.800 M201.000 176.800 L 186.600 177.015 201.100 177.108 C 210.562 177.168,215.600 177.061,215.600 176.800 C 215.600 176.580,215.555 176.442,215.500 176.492 C 215.445 176.543,208.920 176.682,201.000 176.800 M247.668 181.200 C 247.626 182.190,247.506 183.720,247.402 184.600 L 247.212 186.200 247.622 184.600 C 247.848 183.720,247.968 182.190,247.888 181.200 L 247.744 179.400 247.668 181.200 M254.093 182.800 C 254.093 183.570,254.175 183.885,254.276 183.500 C 254.376 183.115,254.376 182.485,254.276 182.100 C 254.175 181.715,254.093 182.030,254.093 182.800 M246.849 187.400 C 246.816 187.840,246.696 188.650,246.583 189.200 L 246.377 190.200 246.806 189.219 C 247.042 188.679,247.161 187.869,247.072 187.419 C 246.913 186.621,246.907 186.621,246.849 187.400 M163.507 187.490 C 164.226 187.579,165.306 187.577,165.907 187.486 C 166.508 187.395,165.920 187.322,164.600 187.324 C 163.280 187.326,162.788 187.401,163.507 187.490 M171.600 189.325 C 171.600 189.394,172.185 189.979,172.900 190.625 L 174.200 191.800 173.025 190.500 C 171.930 189.288,171.600 189.016,171.600 189.325 M252.229 192.629 C 252.081 193.215,252.038 193.772,252.132 193.866 C 252.227 193.960,252.424 193.558,252.571 192.971 C 252.719 192.385,252.762 191.828,252.668 191.734 C 252.573 191.640,252.376 192.042,252.229 192.629 M174.186 194.334 C 174.193 195.646,174.332 196.513,174.494 196.260 C 174.860 195.687,174.839 193.642,174.457 192.674 C 174.295 192.261,174.177 192.979,174.186 194.334 M250.646 197.846 C 250.292 198.885,250.072 199.805,250.156 199.890 C 250.241 199.974,250.600 199.193,250.954 198.154 C 251.308 197.115,251.528 196.195,251.444 196.110 C 251.359 196.026,251.000 196.807,250.646 197.846 M249.072 201.819 C 248.132 203.789,248.264 204.124,249.247 202.262 C 249.693 201.416,249.987 200.654,249.901 200.567 C 249.814 200.481,249.441 201.044,249.072 201.819 M166.800 201.200 C 165.416 201.491,165.414 201.495,166.600 201.541 C 167.260 201.567,168.070 201.413,168.400 201.200 C 169.066 200.770,168.845 200.770,166.800 201.200 M235.495 213.477 C 233.194 216.598,233.277 216.800,236.870 216.800 C 239.632 216.800,242.400 215.144,242.400 213.491 C 242.400 213.297,241.908 213.737,241.306 214.469 C 239.752 216.360,239.688 216.387,236.700 216.394 C 233.491 216.401,233.551 216.599,235.845 213.583 C 236.860 212.249,237.625 211.098,237.545 211.025 C 237.465 210.953,236.543 212.057,235.495 213.477 M102.805 233.454 C 102.798 234.097,105.779 238.483,106.859 239.419 C 107.355 239.849,107.109 239.390,106.313 238.399 C 105.518 237.409,104.404 235.789,103.838 234.799 C 103.272 233.810,102.807 233.204,102.805 233.454 M294.504 237.254 C 293.571 238.544,292.890 239.600,292.991 239.600 C 293.278 239.600,296.531 235.195,296.356 235.043 C 296.270 234.969,295.437 235.964,294.504 237.254 M290.418 241.050 C 288.709 242.263,288.570 242.400,289.048 242.400 C 289.258 242.400,290.053 241.867,290.815 241.216 C 292.488 239.787,292.305 239.710,290.418 241.050 M141.839 244.388 C 163.344 244.566,167.600 244.693,168.239 245.178 C 168.974 245.737,168.976 245.730,168.286 244.978 C 167.593 244.223,166.811 244.200,141.886 244.188 L 116.200 244.177 141.839 244.388 M242.100 244.300 C 249.745 244.361,262.255 244.361,269.900 244.300 C 277.545 244.239,271.290 244.189,256.000 244.189 C 240.710 244.189,234.455 244.239,242.100 244.300 M228.644 246.600 C 228.973 248.071,229.202 248.390,229.194 247.367 C 229.191 246.945,229.005 246.330,228.782 246.000 C 228.485 245.562,228.448 245.724,228.644 246.600 M183.489 255.630 C 183.978 256.139,184.478 256.455,184.601 256.332 C 184.724 256.209,184.324 255.792,183.712 255.406 L 182.600 254.704 183.489 255.630 M185.363 256.740 C 185.524 257.000,187.038 258.133,188.728 259.259 C 190.417 260.384,191.530 261.041,191.200 260.719 C 190.201 259.744,185.049 256.233,185.363 256.740 M232.856 260.800 C 232.856 261.130,233.011 261.760,233.200 262.200 C 233.417 262.704,233.544 262.778,233.544 262.400 C 233.544 262.070,233.389 261.440,233.200 261.000 C 232.983 260.496,232.856 260.422,232.856 260.800 M199.697 266.633 C 199.827 266.844,200.791 267.632,201.837 268.384 C 202.884 269.135,203.633 269.578,203.503 269.367 C 203.373 269.156,202.409 268.368,201.363 267.616 C 200.316 266.865,199.567 266.422,199.697 266.633 M205.344 270.709 C 205.660 271.221,208.000 272.953,208.000 272.675 C 208.000 272.576,207.339 271.991,206.532 271.375 C 205.724 270.759,205.189 270.459,205.344 270.709 M209.744 273.909 C 210.060 274.421,212.400 276.153,212.400 275.875 C 212.400 275.776,211.739 275.191,210.932 274.575 C 210.124 273.959,209.589 273.659,209.744 273.909 M220.579 281.966 C 220.880 282.452,224.400 284.932,224.400 284.657 C 224.400 284.557,223.481 283.815,222.358 283.008 C 221.235 282.201,220.435 281.732,220.579 281.966 M239.256 282.400 C 239.256 282.730,239.411 283.360,239.600 283.800 C 239.817 284.304,239.944 284.378,239.944 284.000 C 239.944 283.670,239.789 283.040,239.600 282.600 C 239.383 282.096,239.256 282.022,239.256 282.400 M226.400 286.125 C 226.400 286.224,227.061 286.809,227.868 287.425 C 228.676 288.041,229.211 288.341,229.056 288.091 C 228.740 287.579,226.400 285.847,226.400 286.125 M229.697 288.633 C 229.827 288.844,230.791 289.632,231.837 290.384 C 232.884 291.135,233.633 291.578,233.503 291.367 C 233.373 291.156,232.409 290.368,231.363 289.616 C 230.316 288.865,229.567 288.422,229.697 288.633 M241.634 290.800 C 241.646 291.130,241.811 291.760,242.000 292.200 L 242.344 293.000 242.366 292.200 C 242.378 291.760,242.213 291.130,242.000 290.800 C 241.655 290.267,241.615 290.267,241.634 290.800 M235.215 292.666 C 235.230 292.995,238.400 295.347,238.400 295.030 C 238.400 294.940,237.680 294.297,236.800 293.600 C 235.920 292.903,235.207 292.483,235.215 292.666 M238.800 295.346 C 238.800 295.456,239.340 295.930,240.000 296.400 C 240.660 296.870,241.200 297.164,241.200 297.054 C 241.200 296.944,240.660 296.470,240.000 296.000 C 239.340 295.530,238.800 295.236,238.800 295.346 M243.469 297.191 L 243.736 298.581 242.568 297.867 L 241.400 297.153 242.342 297.974 C 243.739 299.194,244.664 298.032,243.594 296.400 C 243.319 295.979,243.281 296.216,243.469 297.191 " stroke="none" fill="#b85dba" fill-rule="evenodd"></path><path id="path4" d="M115.621 103.038 C 114.423 103.360,113.343 103.735,113.221 103.871 C 113.100 104.007,113.450 103.997,114.000 103.848 C 114.550 103.700,115.907 103.401,117.016 103.185 C 118.310 102.932,148.553 102.828,201.501 102.895 C 246.859 102.953,283.662 102.878,283.285 102.728 C 281.735 102.113,117.936 102.416,115.621 103.038 M285.000 103.600 C 286.196 104.114,287.195 104.114,286.400 103.600 C 286.070 103.387,285.440 103.222,285.000 103.234 L 284.200 103.256 285.000 103.600 M110.282 105.220 C 106.832 107.386,103.480 111.580,102.625 114.800 C 102.479 115.350,102.939 114.630,103.648 113.200 C 105.106 110.256,108.964 106.154,111.300 105.063 C 112.125 104.678,112.800 104.281,112.800 104.181 C 112.800 103.786,112.116 104.068,110.282 105.220 M289.600 105.467 C 293.367 108.048,296.712 112.877,297.594 117.008 C 297.886 118.376,297.985 136.533,297.910 174.924 C 297.849 205.683,297.917 230.433,298.060 229.924 C 298.833 227.179,298.408 118.109,297.614 115.542 C 296.304 111.301,292.857 106.798,289.819 105.360 C 288.606 104.785,288.605 104.785,289.600 105.467 M101.857 117.500 C 101.531 119.470,101.619 228.247,101.947 229.777 C 102.086 230.425,102.200 205.090,102.200 173.477 C 102.200 141.865,102.179 116.000,102.152 116.000 C 102.126 116.000,101.993 116.675,101.857 117.500 M233.285 132.500 C 232.983 132.865,233.403 133.701,234.844 135.600 C 237.142 138.630,239.912 143.231,241.407 146.500 C 242.572 149.048,243.171 149.664,242.185 147.300 C 240.999 144.456,238.299 139.791,235.953 136.533 C 233.049 132.500,232.978 132.800,236.836 132.800 C 239.696 132.800,240.161 132.904,240.843 133.700 C 242.638 135.793,246.856 142.430,248.225 145.315 C 249.038 147.028,249.782 148.352,249.878 148.256 C 250.655 147.478,241.462 132.893,239.789 132.251 C 238.585 131.789,233.719 131.975,233.285 132.500 M163.091 144.289 C 163.801 144.377,165.061 144.379,165.891 144.292 C 166.721 144.205,166.140 144.133,164.600 144.131 C 163.060 144.129,162.381 144.200,163.091 144.289 M159.100 145.029 C 157.598 145.843,157.713 146.075,159.300 145.432 C 160.015 145.141,160.870 144.805,161.200 144.684 C 161.624 144.528,161.566 144.459,161.000 144.448 C 160.560 144.439,159.705 144.701,159.100 145.029 M168.000 144.684 C 168.330 144.805,169.185 145.141,169.900 145.432 C 170.615 145.722,171.200 145.883,171.200 145.790 C 171.200 145.450,168.820 144.401,168.120 144.432 C 167.562 144.456,167.535 144.513,168.000 144.684 M156.038 147.286 C 151.299 152.133,155.753 158.741,163.958 159.037 L 167.000 159.147 163.931 158.824 C 155.739 157.962,151.900 152.043,156.472 147.326 C 157.179 146.597,157.653 146.000,157.526 146.000 C 157.399 146.000,156.729 146.579,156.038 147.286 M172.877 147.507 C 175.922 150.897,175.183 154.415,170.811 157.339 C 170.267 157.702,169.956 158.000,170.120 158.000 C 171.896 158.000,175.200 153.837,175.200 151.600 C 175.200 150.149,173.688 147.349,172.480 146.564 C 171.561 145.968,171.621 146.109,172.877 147.507 M250.250 149.600 C 250.625 151.105,251.534 153.084,251.538 152.400 C 251.539 152.070,251.194 151.080,250.771 150.200 C 250.348 149.320,250.114 149.050,250.250 149.600 M243.600 151.425 C 243.600 152.033,244.927 155.606,245.092 155.441 C 245.299 155.234,244.040 151.200,243.768 151.200 C 243.676 151.200,243.600 151.301,243.600 151.425 M251.634 153.600 C 251.646 153.930,251.811 154.560,252.000 155.000 L 252.344 155.800 252.366 155.000 C 252.378 154.560,252.213 153.930,252.000 153.600 C 251.655 153.067,251.615 153.067,251.634 153.600 M245.256 156.600 C 245.256 157.040,245.411 157.760,245.600 158.200 L 245.944 159.000 245.944 158.200 C 245.944 157.760,245.789 157.040,245.600 156.600 L 245.256 155.800 245.256 156.600 M252.434 156.400 C 252.446 156.730,252.611 157.360,252.800 157.800 L 253.144 158.600 253.166 157.800 C 253.178 157.360,253.013 156.730,252.800 156.400 C 252.455 155.867,252.415 155.867,252.434 156.400 M168.000 158.400 C 167.176 158.664,167.141 158.726,167.800 158.754 C 168.240 158.773,168.870 158.613,169.200 158.400 C 169.901 157.947,169.414 157.947,168.000 158.400 M253.280 159.600 C 253.280 160.150,253.424 161.050,253.600 161.600 L 253.920 162.600 253.920 161.600 C 253.920 161.050,253.776 160.150,253.600 159.600 L 253.280 158.600 253.280 159.600 M246.068 160.000 C 246.062 160.550,246.211 161.360,246.400 161.800 L 246.744 162.600 246.732 161.800 C 246.726 161.360,246.576 160.550,246.400 160.000 L 246.080 159.000 246.068 160.000 M246.873 164.000 C 246.858 164.770,246.995 166.120,247.177 167.000 C 247.636 169.221,247.674 166.950,247.220 164.400 C 246.922 162.722,246.898 162.695,246.873 164.000 M254.298 166.800 C 254.415 168.670,254.576 170.275,254.656 170.367 C 254.939 170.694,254.714 165.380,254.403 164.400 C 254.224 163.837,254.178 164.886,254.298 166.800 M185.685 168.475 C 184.972 169.188,185.025 176.556,185.747 177.156 C 186.138 177.481,190.491 177.580,201.047 177.505 L 215.800 177.400 215.800 172.800 L 215.800 168.200 200.985 168.095 C 189.796 168.016,186.051 168.109,185.685 168.475 M215.514 172.900 L 215.627 177.200 200.856 177.200 C 183.931 177.200,185.600 177.681,185.600 172.800 C 185.600 167.902,183.936 168.375,200.745 168.495 L 215.400 168.600 215.514 172.900 M247.754 174.800 C 247.754 177.550,247.818 178.675,247.896 177.300 C 247.974 175.925,247.974 173.675,247.896 172.300 C 247.818 170.925,247.754 172.050,247.754 174.800 M254.946 175.000 C 254.947 177.200,255.014 178.049,255.095 176.887 C 255.176 175.724,255.176 173.924,255.093 172.887 C 255.011 171.849,254.945 172.800,254.946 175.000 M254.476 180.844 C 254.434 181.858,254.313 183.568,254.206 184.644 L 254.012 186.600 254.422 185.000 C 254.647 184.120,254.768 182.410,254.691 181.200 C 254.555 179.056,254.549 179.047,254.476 180.844 M246.987 183.787 C 246.831 185.244,246.793 186.526,246.903 186.636 C 247.013 186.746,247.231 185.644,247.387 184.187 C 247.543 182.729,247.580 181.447,247.470 181.337 C 247.360 181.227,247.143 182.329,246.987 183.787 M160.364 187.421 C 149.461 190.780,154.605 203.616,166.200 201.984 C 167.440 201.810,167.035 201.719,164.400 201.579 C 158.271 201.256,154.646 198.577,154.646 194.372 C 154.646 185.611,173.157 184.795,174.613 193.491 C 174.970 195.624,175.132 195.972,175.168 194.687 C 175.323 189.241,167.276 185.292,160.364 187.421 M246.178 188.578 C 246.027 189.381,245.994 190.127,246.104 190.237 C 246.214 190.347,246.427 189.781,246.578 188.978 C 246.728 188.175,246.762 187.428,246.652 187.318 C 246.542 187.208,246.328 187.775,246.178 188.578 M253.454 188.754 C 253.300 189.718,253.258 190.591,253.361 190.694 C 253.630 190.963,254.115 188.145,253.907 187.522 C 253.812 187.236,253.608 187.790,253.454 188.754 M245.473 191.753 C 245.323 192.145,245.211 192.766,245.225 193.133 C 245.242 193.575,245.381 193.474,245.637 192.834 C 245.849 192.303,245.961 191.682,245.885 191.454 C 245.809 191.227,245.624 191.361,245.473 191.753 M251.933 194.915 C 251.346 196.941,250.930 198.663,251.008 198.741 C 251.220 198.954,253.277 192.029,253.129 191.601 C 253.058 191.397,252.520 192.888,251.933 194.915 M244.229 196.029 C 243.353 198.707,243.631 198.986,244.571 196.371 C 244.969 195.266,245.206 194.273,245.098 194.165 C 244.990 194.057,244.599 194.896,244.229 196.029 M173.605 197.662 C 172.895 198.793,171.923 199.579,170.205 200.413 C 168.882 201.054,168.070 201.582,168.400 201.586 C 170.186 201.605,175.592 197.032,174.746 196.218 C 174.666 196.141,174.152 196.790,173.605 197.662 M241.656 202.566 C 240.394 205.421,237.655 209.983,235.315 213.129 C 232.552 216.845,232.667 217.200,236.640 217.200 C 239.650 217.200,239.731 217.173,241.084 215.739 C 243.717 212.946,250.484 201.951,249.918 201.384 C 249.844 201.311,249.081 202.634,248.222 204.325 C 246.501 207.711,242.513 213.766,240.784 215.617 C 239.762 216.711,239.467 216.800,236.863 216.800 C 233.256 216.800,233.181 216.597,235.605 213.355 C 237.733 210.508,241.170 204.727,242.200 202.262 C 243.070 200.179,242.595 200.445,241.656 202.566 M102.400 231.547 C 102.400 232.087,104.319 236.000,104.585 236.000 C 104.742 236.000,102.861 231.613,102.541 231.233 C 102.463 231.142,102.400 231.283,102.400 231.547 M296.320 233.619 C 295.741 234.929,295.352 236.000,295.456 236.000 C 295.726 236.000,297.713 231.580,297.527 231.394 C 297.442 231.308,296.898 232.310,296.320 233.619 M105.737 237.626 C 106.776 239.044,109.681 241.600,110.254 241.600 C 110.419 241.600,109.945 241.105,109.201 240.500 C 108.457 239.895,107.139 238.680,106.271 237.800 L 104.693 236.200 105.737 237.626 M293.582 237.900 C 292.821 238.725,291.568 239.913,290.799 240.541 C 289.197 241.847,289.966 241.532,291.873 240.101 C 292.978 239.272,295.485 236.400,295.104 236.400 C 295.029 236.400,294.344 237.075,293.582 237.900 M110.960 241.935 C 111.294 242.475,114.755 243.778,115.056 243.477 C 115.187 243.346,114.778 243.115,114.147 242.963 C 113.516 242.812,112.485 242.428,111.856 242.111 C 111.227 241.794,110.824 241.715,110.960 241.935 M288.400 242.006 C 288.070 242.223,287.107 242.592,286.260 242.826 C 285.412 243.061,284.823 243.357,284.951 243.484 C 285.236 243.769,288.705 242.477,289.019 241.968 C 289.308 241.501,289.155 241.511,288.400 242.006 M122.600 243.889 C 140.906 244.164,167.506 244.170,167.338 243.900 C 167.236 243.735,155.508 243.641,141.276 243.690 C 127.044 243.740,118.640 243.829,122.600 243.889 M228.061 244.127 C 227.614 244.666,228.214 247.920,228.675 247.458 C 228.795 247.339,228.710 246.718,228.487 246.078 C 227.738 243.930,226.669 244.013,256.622 243.900 L 284.600 243.794 256.549 243.697 C 233.750 243.618,228.416 243.699,228.061 244.127 M168.000 244.556 C 168.000 244.670,171.375 247.050,175.500 249.845 C 179.625 252.640,185.250 256.484,188.000 258.388 C 193.036 261.874,194.557 262.857,193.800 262.137 C 192.451 260.853,168.000 244.191,168.000 244.556 M228.856 248.400 C 228.856 248.730,229.011 249.360,229.200 249.800 C 229.417 250.304,229.544 250.378,229.544 250.000 C 229.544 249.670,229.389 249.040,229.200 248.600 C 228.983 248.096,228.856 248.022,228.856 248.400 M229.629 250.938 C 229.572 251.602,230.927 255.792,231.067 255.386 C 231.145 255.158,230.861 253.988,230.434 252.786 C 230.007 251.584,229.645 250.752,229.629 250.938 M231.234 256.600 C 231.222 257.040,231.387 257.670,231.600 258.000 C 232.114 258.795,232.114 257.796,231.600 256.600 L 231.256 255.800 231.234 256.600 M232.034 259.400 C 232.022 259.840,232.187 260.470,232.400 260.800 C 232.914 261.595,232.914 260.596,232.400 259.400 L 232.056 258.600 232.034 259.400 M232.856 262.000 C 232.856 262.330,233.011 262.960,233.200 263.400 C 233.417 263.904,233.544 263.978,233.544 263.600 C 233.544 263.270,233.389 262.640,233.200 262.200 C 232.983 261.696,232.856 261.622,232.856 262.000 M194.400 262.536 C 194.400 262.636,196.155 263.959,198.300 265.475 C 200.445 266.991,204.225 269.713,206.700 271.523 C 209.175 273.333,211.200 274.729,211.200 274.626 C 211.200 274.421,206.140 270.640,199.600 265.957 C 194.966 262.640,194.400 262.267,194.400 262.536 M233.600 264.578 C 233.600 265.206,236.541 274.793,236.688 274.645 C 236.864 274.469,234.123 264.789,233.808 264.475 C 233.694 264.360,233.600 264.407,233.600 264.578 M212.600 275.771 C 213.260 276.341,216.196 278.561,219.124 280.704 C 226.459 286.072,227.600 286.873,227.600 286.653 C 227.600 286.548,225.845 285.175,223.700 283.601 C 217.893 279.339,217.939 279.374,216.000 277.924 C 215.010 277.184,213.570 276.163,212.800 275.656 L 211.400 274.734 212.600 275.771 M236.834 275.600 C 236.846 275.930,237.011 276.560,237.200 277.000 L 237.544 277.800 237.566 277.000 C 237.578 276.560,237.413 275.930,237.200 275.600 C 236.855 275.067,236.815 275.067,236.834 275.600 M237.734 278.600 C 238.078 280.381,241.408 291.175,241.515 290.856 C 241.644 290.467,238.567 279.834,237.968 278.600 L 237.579 277.800 237.734 278.600 M228.114 287.047 C 228.417 287.554,236.800 293.699,236.800 293.415 C 236.800 293.314,235.045 291.936,232.900 290.352 C 230.755 288.769,228.740 287.277,228.423 287.037 C 228.003 286.718,227.919 286.721,228.114 287.047 M242.045 293.000 C 242.025 293.220,242.277 294.285,242.605 295.366 C 243.271 297.562,243.141 298.017,242.102 297.125 C 240.965 296.148,240.101 295.725,240.669 296.423 C 241.689 297.677,243.603 298.532,243.576 297.723 C 243.547 296.877,242.100 292.409,242.045 293.000 M237.369 293.949 C 237.759 294.582,240.001 296.099,239.995 295.727 C 239.992 295.547,239.343 294.981,238.552 294.468 C 237.760 293.955,237.228 293.722,237.369 293.949 " stroke="none" fill="#bc6ec4" fill-rule="evenodd"></path></g></svg>