<?xml version="1.0" encoding="utf-8"?>
<!-- Generator: Adobe Illustrator 25.2.3, SVG Export Plug-In . SVG Version: 6.00 Build 0)  -->
<svg version="1.1" id="Layer_1" xmlns="http://www.w3.org/2000/svg" xmlns:xlink="http://www.w3.org/1999/xlink" x="0px" y="0px"
	 viewBox="0 0 300 300" style="enable-background:new 0 0 300 300;" xml:space="preserve">
<style type="text/css">
	.st0{fill:#010101;}
</style>
<g transform="translate(0.000000,1005.000000) scale(0.100000,-0.100000)">
	<path class="st0" d="M1731.27,9726.35c-135.32-13.13-260.32-62.85-362.8-144.7c-27.44-22.04-74.11-67.54-97.8-95.68
		c-67.78-80.68-121.01-189.96-141.65-291.04c-2.81-14.07-6.33-26.74-7.74-28.14c-1.41-1.41-18.29-5.39-37.76-8.91
		c-19.23-3.52-36.82-6.8-38.93-7.5c-2.81-0.7-8.21,5.63-19.7,22.51c-64.49,97.09-154.55,170.03-263.13,213.18
		c-109.05,43.39-242.5,49.72-356,16.89c-70.36-20.17-134.62-53-193.48-98.5c-27.44-21.11-77.39-71.76-98.26-99.44
		c-47.84-64.02-82.55-136.73-99.44-209.19c-26.74-113.51-18.29-231.47,24.16-337.48c33.3-83.72,89.82-161.82,160.65-221.86
		c55.11-46.67,138.37-91,203.56-108.35l20.4-5.39v-30.96v-31.19h-56.05c-32.83,0-56.52,0.94-56.99,2.11
		c-0.47,1.41-30.72,13.37-67.31,26.97l-66.6,24.86h-46.67c-25.56,0-46.44-0.47-46.44-1.17c0-0.94,144.7-302.77,146.81-306.29
		c0.47-0.7,13.13,1.88,28.14,6.1l27.2,7.27l15.48,25.09l15.24,25.09h53.71h53.47v-349.44v-349.44h973.26h973.26v580.44v580.44
		h-75.52h-75.52l10.55,8.68c96.15,80.67,173.78,201.69,209.43,326.92c29.32,102.72,33.54,215.53,11.96,322.47
		c-24.86,122.65-87.01,239.92-175.89,331.38c-94.04,96.86-205.21,159.47-336.77,189.96
		C1881.6,9725.18,1786.85,9731.75,1731.27,9726.35z M1215.56,8697.51c29.55-48.31,64.26-90.52,110.46-134.62l31.43-30.25h-174.01
		c-95.92,0-173.78,0.7-173.31,1.88c0.47,0.94,7.74,12.2,16.18,25.09c25.8,38.46,52.77,93.81,63.09,129.22l2.81,9.62l34.47,6.57
		c30.72,5.86,73.64,14.31,74.58,15.01C1201.25,8720.25,1207.82,8709.94,1215.56,8697.51z M2199.61,7600.41
		c21.81-10.55,34.24-30.49,34.24-55.11c0-17.82-4.93-30.25-16.65-41.75c-12.66-12.9-24.39-17.82-43.15-17.82
		c-18.53-0.23-30.49,4.69-43.39,17.82c-30.25,30.25-18.06,83.72,22.75,99.2C2165.13,7607.22,2187.88,7606.04,2199.61,7600.41z"/>
	<path class="st0" d="M2827.19,8499.8l-169.79-103.19h-134.38h-134.38l0.47-258.44l0.7-258.68l136.02-1.17l136.02-1.17
		l167.68-101.78c92.17-55.82,168.39-102.02,169.56-102.72c0.94-0.47,1.64,208.49,1.64,464.59c0,256.1-0.7,465.76-1.64,465.76
		C2997.92,8602.76,2920.76,8556.32,2827.19,8499.8z"/>
</g>
</svg>
