<svg id="svg" version="1.1" xmlns="http://www.w3.org/2000/svg" xmlns:xlink="http://www.w3.org/1999/xlink" width="400" height="400" viewBox="0, 0, 400,400"><g id="svgg"><path id="path0" d="M0.000 200.000 L 0.000 400.000 200.000 400.000 L 400.000 400.000 400.000 200.000 L 400.000 0.000 200.000 0.000 L 0.000 0.000 0.000 200.000 M218.400 25.537 C 221.965 25.910,223.924 26.189,229.800 27.162 C 236.518 28.275,238.235 28.640,243.400 30.051 C 244.940 30.472,246.830 30.986,247.600 31.194 C 251.604 32.273,255.042 33.364,255.380 33.663 C 255.589 33.849,256.163 34.000,256.656 34.000 C 257.149 34.000,257.664 34.180,257.800 34.400 C 257.936 34.620,258.399 34.800,258.829 34.800 C 259.259 34.800,259.923 34.966,260.305 35.168 C 260.687 35.370,262.080 35.941,263.400 36.435 C 268.236 38.246,281.096 44.257,285.400 46.718 C 293.739 51.486,304.382 58.637,308.866 62.485 C 309.453 62.988,310.266 63.670,310.673 64.000 C 316.154 68.446,318.401 70.473,323.976 76.000 C 326.924 78.923,332.389 84.739,333.606 86.248 C 333.939 86.662,335.289 88.349,336.606 89.998 C 337.923 91.647,339.319 93.350,339.708 93.783 C 340.098 94.215,341.352 95.926,342.495 97.585 C 343.637 99.243,344.894 100.949,345.286 101.375 C 345.679 101.802,346.000 102.372,346.000 102.642 C 346.000 102.912,346.139 103.193,346.310 103.267 C 346.589 103.387,350.066 108.838,352.136 112.400 C 353.449 114.660,360.543 128.837,361.343 130.800 C 361.747 131.790,362.420 133.363,362.838 134.296 C 363.257 135.228,363.600 136.176,363.600 136.401 C 363.600 136.626,363.759 137.123,363.953 137.505 C 364.573 138.723,365.133 140.154,365.635 141.800 C 365.903 142.680,366.351 143.940,366.630 144.600 C 367.059 145.617,368.344 149.903,369.627 154.600 C 369.807 155.260,370.159 156.520,370.408 157.400 C 370.909 159.171,371.345 161.090,372.001 164.400 C 372.408 166.456,372.611 167.624,373.639 173.800 C 374.892 181.335,375.762 202.584,375.161 211.000 C 374.554 219.515,373.595 228.089,372.825 231.900 C 372.591 233.055,372.231 234.855,372.025 235.900 C 371.819 236.945,371.453 238.610,371.212 239.600 C 370.971 240.590,370.666 242.169,370.534 243.109 C 370.402 244.049,370.138 244.915,369.947 245.033 C 369.756 245.151,369.600 245.630,369.600 246.097 C 369.600 246.564,369.262 247.949,368.850 249.173 C 368.437 250.398,367.713 252.660,367.241 254.200 C 366.770 255.740,366.096 257.720,365.744 258.600 C 365.392 259.480,364.946 260.605,364.752 261.100 C 363.996 263.033,363.492 264.229,363.153 264.895 C 362.959 265.277,362.800 265.954,362.800 266.400 C 362.800 266.846,362.641 267.523,362.447 267.905 C 362.252 268.287,361.902 269.050,361.667 269.600 C 360.417 272.536,355.457 282.685,355.020 283.200 C 354.537 283.771,352.368 287.582,351.436 289.497 C 351.196 289.990,350.865 290.395,350.700 290.397 C 350.535 290.399,350.400 290.745,350.400 291.167 C 350.400 291.588,350.265 291.993,350.100 292.067 C 349.766 292.215,348.000 294.654,348.000 294.966 C 348.000 295.075,347.280 296.192,346.400 297.449 C 345.520 298.705,344.800 299.885,344.800 300.071 C 344.800 300.649,342.222 304.384,341.800 304.418 C 341.290 304.458,338.800 307.853,338.800 308.507 C 338.799 308.778,338.394 309.473,337.900 310.051 C 337.405 310.630,336.280 312.010,335.400 313.120 C 334.520 314.230,333.493 315.223,333.118 315.326 C 332.744 315.430,332.204 316.063,331.918 316.732 C 331.258 318.283,325.709 324.400,324.963 324.400 C 324.653 324.400,324.400 324.641,324.400 324.936 C 324.400 325.697,317.279 332.496,316.795 332.197 C 316.335 331.912,315.400 332.768,315.400 333.474 C 315.400 334.121,309.415 339.205,308.430 339.394 C 307.299 339.612,305.238 341.221,305.410 341.751 C 305.613 342.376,301.080 345.600,299.999 345.600 C 299.513 345.600,298.433 346.140,297.600 346.800 C 296.767 347.460,295.959 348.000,295.804 348.000 C 295.231 348.000,293.198 349.673,293.391 349.985 C 293.671 350.438,292.577 351.275,291.900 351.124 C 291.236 350.976,283.600 355.127,283.600 355.637 C 283.600 356.303,280.596 357.916,278.424 358.416 C 276.981 358.748,275.904 359.292,275.224 360.033 C 274.079 361.282,268.040 364.026,266.679 363.917 C 265.377 363.812,260.000 366.033,260.000 366.676 C 260.000 367.043,259.570 367.202,258.700 367.155 C 257.081 367.068,250.767 369.076,250.128 369.881 C 249.473 370.707,244.294 372.083,241.400 372.200 C 238.419 372.321,234.524 373.205,233.200 374.062 C 232.579 374.464,230.944 374.788,228.885 374.918 C 227.062 375.032,225.352 375.299,225.085 375.510 C 224.281 376.145,217.198 376.896,216.610 376.408 C 215.939 375.852,209.384 376.351,208.020 377.063 C 206.882 377.657,200.579 377.813,200.234 377.256 C 199.862 376.653,192.424 376.282,191.760 376.833 C 191.083 377.395,184.189 377.055,183.426 376.421 C 182.614 375.748,177.490 375.148,174.909 375.424 C 172.822 375.648,172.400 375.592,172.400 375.091 C 172.400 374.405,167.298 373.458,166.599 374.014 C 166.378 374.190,165.298 374.151,164.199 373.928 C 163.100 373.704,161.520 373.382,160.689 373.212 C 159.857 373.042,158.858 372.615,158.468 372.262 C 157.498 371.384,150.980 369.540,149.849 369.823 C 148.834 370.078,142.438 368.125,141.800 367.366 C 141.580 367.104,140.680 366.769,139.800 366.622 C 137.348 366.213,133.614 364.674,133.394 363.982 C 133.166 363.263,126.146 360.153,125.081 360.299 C 124.102 360.433,121.200 358.909,121.200 358.260 C 121.200 357.673,117.344 355.736,116.534 355.916 C 116.044 356.025,114.543 355.279,110.491 352.912 C 109.551 352.363,108.607 351.587,108.394 351.189 C 108.181 350.790,107.330 350.243,106.503 349.973 C 104.391 349.282,100.440 346.526,99.917 345.378 C 99.676 344.848,99.191 344.324,98.839 344.212 C 98.488 344.100,97.736 343.578,97.168 343.051 C 96.600 342.524,95.601 341.976,94.949 341.833 C 93.591 341.534,91.781 340.000,91.410 338.833 C 91.272 338.397,90.853 337.938,90.480 337.812 C 90.106 337.686,88.827 336.683,87.638 335.584 C 86.449 334.484,85.054 333.478,84.538 333.349 C 84.022 333.219,83.600 332.921,83.600 332.687 C 83.600 332.152,77.214 325.850,76.030 325.216 C 75.549 324.958,75.030 324.413,74.877 324.004 C 74.558 323.146,68.612 316.941,67.581 316.390 C 67.202 316.187,66.779 315.571,66.641 315.020 C 66.400 314.060,65.276 312.694,61.070 308.242 C 60.008 307.119,58.698 305.341,58.159 304.292 C 57.217 302.459,56.511 301.453,55.184 300.051 C 54.386 299.208,50.706 293.697,50.075 292.400 C 49.808 291.850,49.086 290.590,48.471 289.600 C 46.861 287.009,45.822 285.024,44.203 281.445 C 43.418 279.710,42.453 277.820,42.058 277.245 C 41.663 276.670,41.097 275.570,40.799 274.800 C 40.502 274.030,39.751 272.270,39.130 270.890 C 38.508 269.509,38.000 268.249,38.001 268.090 C 38.002 267.930,37.611 266.990,37.132 266.000 C 36.653 265.010,36.092 263.750,35.884 263.200 C 35.676 262.650,35.348 261.887,35.153 261.505 C 34.959 261.123,34.800 260.459,34.800 260.029 C 34.800 259.599,34.620 259.136,34.400 259.000 C 34.180 258.864,34.000 258.223,34.000 257.576 C 34.000 256.929,33.857 256.400,33.683 256.400 C 33.299 256.400,32.358 253.560,30.968 248.200 C 30.397 246.000,29.754 243.570,29.538 242.800 C 28.517 239.147,27.842 235.973,27.200 231.800 C 26.997 230.480,26.641 228.230,26.410 226.800 C 25.237 219.539,25.012 215.153,25.044 200.200 C 25.064 191.135,25.270 183.008,25.538 180.800 C 25.791 178.710,26.090 176.190,26.203 175.200 C 26.550 172.148,27.238 167.870,27.618 166.400 C 27.817 165.630,28.354 163.290,28.811 161.200 C 30.067 155.462,32.798 145.895,33.634 144.305 C 33.836 143.923,34.000 143.336,34.000 143.000 C 34.000 142.407,34.166 141.984,35.138 140.105 C 35.392 139.613,35.600 138.936,35.600 138.600 C 35.600 138.264,35.759 137.677,35.953 137.295 C 36.300 136.614,36.996 134.989,37.622 133.400 C 39.036 129.815,39.794 128.181,42.819 122.200 C 44.711 118.460,46.626 114.770,47.075 114.000 C 50.257 108.539,51.338 106.800,54.533 102.000 C 56.510 99.030,58.246 96.510,58.391 96.400 C 58.536 96.290,59.600 94.940,60.756 93.400 C 65.149 87.545,70.024 81.983,76.004 76.004 C 80.065 71.942,86.770 65.849,89.000 64.193 C 89.880 63.539,90.690 62.905,90.800 62.783 C 90.910 62.661,91.630 62.129,92.400 61.600 C 93.170 61.071,93.890 60.540,94.000 60.419 C 95.016 59.306,103.641 53.200,104.199 53.200 C 104.328 53.200,104.651 53.013,104.917 52.785 C 105.598 52.201,109.857 49.515,112.000 48.318 C 112.990 47.765,114.700 46.783,115.800 46.136 C 119.704 43.839,131.087 38.526,135.800 36.800 C 136.240 36.639,137.050 36.315,137.600 36.080 C 138.150 35.845,139.320 35.424,140.200 35.145 C 141.080 34.865,141.971 34.493,142.180 34.318 C 142.389 34.143,142.886 34.000,143.285 34.000 C 143.684 34.000,144.323 33.841,144.705 33.646 C 145.384 33.301,148.790 32.222,152.400 31.211 C 153.390 30.934,154.728 30.545,155.374 30.348 C 156.019 30.151,158.629 29.538,161.174 28.985 C 163.718 28.433,166.520 27.819,167.400 27.621 C 168.280 27.423,170.260 27.080,171.800 26.857 C 173.340 26.635,175.908 26.262,177.507 26.027 C 179.107 25.792,181.357 25.579,182.507 25.553 C 183.658 25.527,185.140 25.364,185.800 25.190 C 187.430 24.763,213.663 25.041,218.400 25.537 " stroke="none" fill="#f5f5f5" fill-rule="evenodd"></path><path id="path1" d="M135.467 83.067 C 135.320 83.213,135.200 135.889,135.200 200.124 L 135.200 316.915 138.100 316.674 C 155.069 315.259,161.539 314.784,169.400 314.377 C 174.460 314.115,179.140 313.777,179.800 313.625 L 181.000 313.349 181.200 264.214 C 181.408 213.059,181.374 213.953,182.942 218.800 C 183.262 219.790,183.799 221.320,184.134 222.200 C 184.765 223.855,187.379 231.116,189.606 237.400 C 190.308 239.380,191.570 242.890,192.411 245.200 C 193.252 247.510,194.953 252.280,196.191 255.800 C 197.429 259.320,198.604 262.560,198.801 263.000 C 198.998 263.440,199.422 264.610,199.742 265.600 C 200.062 266.590,200.601 268.120,200.940 269.000 C 201.278 269.880,202.488 273.210,203.627 276.400 C 204.767 279.590,206.057 283.190,206.495 284.400 C 207.834 288.103,211.255 297.740,211.606 298.800 C 212.083 300.240,214.949 308.147,216.100 311.200 L 217.080 313.800 225.840 314.280 C 233.438 314.696,239.288 315.125,259.800 316.772 C 262.000 316.948,264.025 317.007,264.301 316.903 C 264.700 316.752,264.781 293.133,264.701 199.857 L 264.600 83.000 241.400 83.000 L 218.200 83.000 218.107 132.400 C 218.056 159.570,218.005 182.160,217.995 182.600 L 217.976 183.400 217.498 182.600 C 216.961 181.700,216.745 181.130,213.014 170.800 C 211.544 166.730,209.625 161.420,208.751 159.000 C 206.476 152.706,204.782 147.957,204.399 146.800 C 204.216 146.250,203.405 144.000,202.595 141.800 C 201.786 139.600,200.611 136.360,199.986 134.600 C 199.360 132.840,198.281 129.870,197.588 128.000 C 196.896 126.130,196.179 124.150,195.995 123.600 C 195.812 123.050,194.910 120.530,193.990 118.000 C 193.071 115.470,191.897 112.230,191.382 110.800 C 190.867 109.370,189.884 106.670,189.197 104.800 C 188.510 102.930,187.680 100.590,187.353 99.600 C 187.027 98.610,186.600 97.440,186.405 97.000 C 186.209 96.560,185.018 93.320,183.756 89.800 C 182.495 86.280,181.269 83.268,181.031 83.106 C 180.493 82.739,135.833 82.701,135.467 83.067 " stroke="none" fill="#df0414" fill-rule="evenodd"></path><path id="path2" d="M195.153 25.367 C 195.017 25.511,191.957 25.800,188.353 26.009 C 177.727 26.627,170.435 27.727,159.000 30.437 C 158.120 30.646,156.721 30.927,155.890 31.062 C 155.060 31.197,154.284 31.464,154.167 31.654 C 154.049 31.844,153.511 32.000,152.971 32.000 C 152.431 32.000,151.677 32.162,151.295 32.361 C 150.913 32.560,149.790 32.940,148.800 33.207 C 147.810 33.473,146.640 33.826,146.200 33.990 C 145.760 34.155,144.680 34.506,143.800 34.771 C 142.920 35.036,141.840 35.408,141.400 35.597 C 140.960 35.787,139.160 36.480,137.400 37.138 C 135.640 37.796,132.760 38.986,131.000 39.783 C 129.240 40.581,127.440 41.384,127.000 41.569 C 122.064 43.644,113.309 48.360,107.905 51.856 C 106.422 52.815,105.027 53.600,104.805 53.600 C 104.582 53.600,104.400 53.736,104.400 53.902 C 104.400 54.069,103.905 54.427,103.300 54.698 C 102.313 55.141,95.482 60.135,93.362 61.964 C 92.901 62.362,91.851 63.144,91.029 63.703 C 85.092 67.737,69.362 83.482,63.358 91.400 C 57.595 99.000,55.650 101.654,54.563 103.407 C 53.882 104.503,52.412 106.851,51.297 108.625 C 50.181 110.398,48.778 112.738,48.178 113.825 C 47.579 114.911,46.684 116.534,46.190 117.432 C 45.696 118.329,45.097 119.409,44.858 119.832 C 43.651 121.969,39.489 131.169,37.815 135.400 C 34.680 143.325,34.400 144.084,34.400 144.659 C 34.400 144.962,34.238 145.523,34.039 145.905 C 33.840 146.287,33.460 147.410,33.193 148.400 C 32.927 149.390,32.557 150.560,32.371 151.000 C 31.693 152.606,28.776 165.285,27.771 171.000 C 23.757 193.808,25.530 229.091,31.559 246.400 C 31.750 246.950,32.134 248.210,32.412 249.200 C 33.068 251.538,35.938 260.365,36.379 261.400 C 36.566 261.840,36.949 262.830,37.230 263.600 C 37.511 264.370,38.223 266.080,38.812 267.400 C 39.400 268.720,40.401 270.970,41.034 272.400 C 43.693 278.401,49.447 288.953,53.119 294.562 C 53.714 295.470,54.380 296.501,54.600 296.853 C 55.946 299.007,59.671 304.209,61.572 306.591 C 62.797 308.126,64.070 309.721,64.400 310.136 C 64.730 310.550,65.180 311.094,65.400 311.345 C 65.620 311.595,67.356 313.600,69.258 315.800 C 72.928 320.044,80.491 327.546,84.785 331.200 C 86.206 332.410,87.759 333.760,88.235 334.200 C 88.712 334.640,90.503 336.080,92.216 337.400 C 93.929 338.720,95.526 339.989,95.765 340.219 C 96.004 340.449,97.100 341.251,98.200 342.000 C 99.300 342.749,100.422 343.580,100.694 343.846 C 100.965 344.112,102.725 345.291,104.604 346.465 C 144.558 371.434,185.945 379.755,231.400 371.958 C 236.124 371.148,246.160 368.726,250.600 367.324 C 255.611 365.742,258.531 364.777,259.400 364.413 C 259.840 364.229,261.280 363.680,262.600 363.193 C 267.321 361.454,271.580 359.551,278.501 356.089 C 285.312 352.683,289.198 350.451,294.066 347.150 C 295.972 345.858,297.693 344.800,297.891 344.800 C 298.088 344.800,298.598 344.478,299.025 344.083 C 299.451 343.689,300.700 342.755,301.800 342.008 C 314.744 333.212,333.103 314.851,342.003 301.800 C 342.753 300.700,343.689 299.451,344.083 299.025 C 344.478 298.598,344.800 298.013,344.800 297.725 C 344.800 297.436,344.980 297.200,345.200 297.200 C 345.420 297.200,345.600 297.000,345.600 296.756 C 345.600 296.511,346.388 295.184,347.352 293.806 C 348.315 292.427,349.639 290.332,350.293 289.150 C 350.947 287.967,351.900 286.280,352.411 285.400 C 355.199 280.597,360.305 269.959,362.202 265.000 C 362.791 263.460,363.419 261.840,363.596 261.400 C 363.774 260.960,364.136 259.970,364.400 259.200 C 364.664 258.430,365.019 257.440,365.189 257.000 C 366.370 253.931,368.863 245.291,369.979 240.400 C 371.298 234.620,371.513 233.598,371.955 231.000 C 372.179 229.680,372.480 227.970,372.624 227.200 C 375.233 213.184,375.152 187.997,372.447 172.200 C 372.221 170.880,371.923 169.080,371.785 168.200 C 371.480 166.256,369.329 156.893,368.614 154.400 C 368.330 153.410,367.872 151.790,367.596 150.800 C 366.740 147.737,365.580 144.233,365.181 143.505 C 364.971 143.123,364.800 142.459,364.800 142.029 C 364.800 141.599,364.620 141.136,364.400 141.000 C 364.180 140.864,364.000 140.401,364.000 139.971 C 364.000 139.541,363.841 138.877,363.647 138.495 C 363.452 138.113,363.116 137.350,362.900 136.800 C 356.000 119.248,344.628 100.332,332.605 86.404 C 326.455 79.279,313.725 66.969,309.476 64.037 C 308.994 63.705,308.405 63.245,308.166 63.016 C 307.927 62.787,307.297 62.283,306.766 61.895 C 306.235 61.508,303.739 59.672,301.220 57.817 C 298.700 55.961,295.865 54.045,294.920 53.559 C 293.974 53.072,293.200 52.523,293.200 52.337 C 293.200 52.152,293.007 52.000,292.772 52.000 C 292.537 52.000,291.592 51.484,290.672 50.854 C 286.601 48.064,270.899 40.216,264.400 37.724 C 262.970 37.175,261.440 36.581,261.000 36.404 C 260.560 36.226,259.570 35.864,258.800 35.600 C 258.030 35.336,257.040 34.979,256.600 34.807 C 256.160 34.636,254.450 34.092,252.800 33.599 C 251.150 33.107,249.350 32.566,248.800 32.398 C 241.309 30.111,229.833 27.751,221.400 26.762 C 214.035 25.898,195.578 24.918,195.153 25.367 M181.564 83.533 C 181.780 83.936,182.876 86.861,184.001 90.033 C 185.125 93.205,186.322 96.520,186.660 97.400 C 186.999 98.280,187.538 99.810,187.858 100.800 C 188.178 101.790,188.599 102.960,188.793 103.400 C 188.987 103.840,189.711 105.820,190.402 107.800 C 191.093 109.780,191.991 112.300,192.398 113.400 C 192.805 114.500,193.975 117.740,194.997 120.600 C 196.020 123.460,197.131 126.520,197.466 127.400 C 197.801 128.280,198.338 129.810,198.658 130.800 C 198.978 131.790,199.393 132.960,199.580 133.400 C 199.766 133.840,200.136 134.830,200.400 135.600 C 200.664 136.370,201.033 137.360,201.219 137.800 C 201.406 138.240,202.568 141.480,203.803 145.000 C 205.038 148.520,206.200 151.760,206.384 152.200 C 206.568 152.640,206.936 153.630,207.200 154.400 C 207.464 155.170,207.831 156.160,208.014 156.600 C 208.197 157.040,208.731 158.570,209.200 160.000 C 209.669 161.430,210.209 162.960,210.399 163.400 C 210.590 163.840,211.314 165.820,212.009 167.800 C 212.703 169.780,213.872 173.020,214.606 175.000 C 215.339 176.980,216.178 179.320,216.470 180.200 C 217.053 181.959,217.995 183.264,218.007 182.329 C 218.011 182.038,218.056 159.570,218.107 132.400 L 218.200 83.000 241.500 82.897 L 264.800 82.794 264.800 199.997 C 264.800 281.727,264.673 317.200,264.379 317.200 C 264.148 317.200,259.783 316.850,254.679 316.422 C 245.946 315.690,241.783 315.372,228.187 314.401 C 225.099 314.180,221.274 314.000,219.687 314.000 C 217.376 314.000,216.800 313.879,216.800 313.395 C 216.800 313.062,216.625 312.477,216.411 312.095 C 216.061 311.468,213.727 305.057,210.808 296.695 C 210.211 294.987,209.606 293.472,209.462 293.328 C 209.318 293.184,209.200 292.657,209.200 292.157 C 209.200 291.657,209.056 291.158,208.879 291.049 C 208.703 290.940,208.307 289.928,208.000 288.800 C 207.693 287.672,207.297 286.660,207.121 286.551 C 206.944 286.442,206.800 285.924,206.800 285.400 C 206.800 284.876,206.641 284.349,206.448 284.230 C 206.254 284.110,206.003 283.604,205.889 283.106 C 205.775 282.608,204.958 280.220,204.074 277.800 C 203.189 275.380,201.899 271.780,201.206 269.800 C 200.514 267.820,199.797 265.840,199.614 265.400 C 199.431 264.960,199.064 263.970,198.800 263.200 C 198.536 262.430,198.166 261.440,197.980 261.000 C 197.793 260.560,197.372 259.390,197.044 258.400 C 196.717 257.410,195.791 254.800,194.987 252.600 C 193.242 247.827,189.802 238.123,188.960 235.600 C 188.630 234.610,188.207 233.440,188.020 233.000 C 187.834 232.560,187.464 231.570,187.200 230.800 C 186.936 230.030,186.567 229.040,186.382 228.600 C 186.196 228.160,185.188 225.370,184.143 222.400 C 183.097 219.430,182.010 216.765,181.728 216.478 C 181.309 216.054,181.222 224.946,181.256 264.378 C 181.304 319.463,181.745 314.001,177.251 313.999 C 172.271 313.997,142.976 316.083,138.015 316.793 C 136.593 316.997,135.379 317.112,135.316 317.050 C 135.239 316.972,135.134 107.479,135.199 83.300 C 135.201 82.364,181.062 82.595,181.564 83.533 " stroke="none" fill="#151414" fill-rule="evenodd"></path><path id="path3" d="M186.600 25.600 C 184.254 25.860,184.276 25.866,187.600 25.893 C 189.470 25.908,191.990 25.784,193.200 25.617 C 196.173 25.206,190.299 25.191,186.600 25.600 M207.000 25.615 C 208.320 25.779,210.750 25.905,212.400 25.896 L 215.400 25.878 212.800 25.586 C 211.370 25.425,208.940 25.299,207.400 25.306 L 204.600 25.318 207.000 25.615 M178.600 26.400 C 177.517 26.676,177.575 26.707,179.200 26.725 C 180.190 26.735,181.360 26.589,181.800 26.400 C 182.845 25.951,180.365 25.951,178.600 26.400 M218.200 26.400 C 218.640 26.589,219.900 26.736,221.000 26.726 L 223.000 26.708 221.400 26.377 C 219.164 25.915,217.105 25.929,218.200 26.400 M172.400 27.180 C 171.630 27.345,169.740 27.695,168.200 27.957 C 166.660 28.220,164.770 28.591,164.000 28.781 C 163.230 28.970,160.890 29.518,158.800 29.998 C 156.710 30.478,154.460 31.034,153.800 31.234 C 153.140 31.434,150.440 32.249,147.800 33.044 C 137.934 36.017,121.506 43.111,114.259 47.529 C 112.752 48.448,111.451 49.200,111.370 49.200 C 111.008 49.200,100.389 56.093,100.147 56.486 C 99.998 56.726,100.702 56.356,101.710 55.662 C 102.719 54.968,103.737 54.400,103.972 54.400 C 104.207 54.400,104.400 54.220,104.400 54.000 C 104.400 53.780,104.582 53.600,104.805 53.600 C 105.027 53.600,106.422 52.815,107.905 51.856 C 113.309 48.360,122.064 43.644,127.000 41.569 C 127.440 41.384,129.240 40.581,131.000 39.783 C 132.760 38.986,135.640 37.796,137.400 37.138 C 139.160 36.480,140.960 35.787,141.400 35.597 C 141.840 35.408,142.920 35.036,143.800 34.771 C 144.680 34.506,145.760 34.155,146.200 33.990 C 146.640 33.826,147.810 33.473,148.800 33.207 C 149.790 32.940,150.913 32.560,151.295 32.361 C 151.677 32.162,152.431 32.000,152.971 32.000 C 153.511 32.000,154.049 31.844,154.167 31.654 C 154.284 31.464,155.060 31.197,155.890 31.062 C 156.721 30.927,158.120 30.646,159.000 30.437 C 164.107 29.227,166.714 28.698,171.196 27.961 C 173.944 27.510,176.269 27.064,176.363 26.970 C 176.628 26.705,173.958 26.847,172.400 27.180 M224.800 27.200 C 225.350 27.376,226.430 27.517,227.200 27.513 L 228.600 27.505 227.400 27.200 C 225.639 26.752,223.401 26.752,224.800 27.200 M229.800 28.000 C 230.460 28.168,231.450 28.309,232.000 28.313 L 233.000 28.320 232.000 28.000 C 231.450 27.824,230.460 27.683,229.800 27.687 L 228.600 27.695 229.800 28.000 M233.400 28.595 C 233.620 28.668,235.510 29.108,237.600 29.574 C 241.277 30.393,242.491 30.690,246.100 31.654 C 249.151 32.469,250.164 32.770,252.711 33.621 C 254.091 34.082,255.422 34.393,255.668 34.311 C 256.253 34.116,249.119 31.944,242.800 30.394 C 240.050 29.720,237.149 28.995,236.354 28.784 C 235.058 28.440,232.419 28.271,233.400 28.595 M256.620 34.718 C 257.185 35.192,260.030 36.103,260.252 35.882 C 260.357 35.776,259.592 35.400,258.550 35.045 C 256.419 34.319,256.073 34.260,256.620 34.718 M264.358 37.637 C 265.325 38.066,266.200 38.334,266.302 38.232 C 266.524 38.010,263.694 36.788,263.051 36.828 C 262.803 36.844,263.391 37.208,264.358 37.637 M270.400 40.279 C 279.453 44.624,282.719 46.247,284.548 47.307 C 285.620 47.928,286.578 48.355,286.678 48.255 C 287.140 47.794,267.992 38.303,266.851 38.427 C 266.713 38.443,268.310 39.276,270.400 40.279 M287.258 48.591 C 287.789 49.122,292.479 52.000,292.813 52.000 C 293.026 52.000,293.200 52.152,293.200 52.337 C 293.200 52.523,293.974 53.072,294.920 53.559 C 295.865 54.045,298.700 55.961,301.220 57.817 C 303.739 59.672,306.235 61.508,306.766 61.895 C 307.297 62.283,307.927 62.787,308.166 63.016 C 308.405 63.245,308.994 63.705,309.476 64.037 C 313.725 66.969,326.455 79.279,332.605 86.404 C 339.289 94.147,346.130 103.847,351.642 113.400 C 352.150 114.280,354.416 118.690,356.678 123.200 C 360.780 131.378,361.887 133.247,359.586 128.110 C 346.739 99.432,324.809 73.334,298.600 55.531 C 291.565 50.753,286.038 47.371,287.258 48.591 M96.593 58.908 C 81.525 70.137,66.899 84.930,57.645 98.300 C 55.906 100.813,57.195 99.566,59.506 96.500 C 64.342 90.084,64.929 89.337,67.137 86.802 C 74.602 78.231,86.445 66.792,91.067 63.690 C 91.910 63.124,92.690 62.547,92.800 62.407 C 92.910 62.268,94.485 61.031,96.300 59.659 C 99.126 57.523,99.970 56.771,99.500 56.808 C 99.445 56.812,98.137 57.757,96.593 58.908 M54.071 103.500 C 50.997 108.081,48.342 112.475,48.533 112.666 C 48.616 112.750,49.724 111.149,50.994 109.109 C 52.264 107.069,54.091 104.185,55.054 102.700 C 56.018 101.215,56.720 100.000,56.614 100.000 C 56.507 100.000,55.364 101.575,54.071 103.500 M46.698 115.679 C 45.931 117.066,45.089 118.650,44.825 119.200 L 44.346 120.200 45.164 119.200 C 45.614 118.650,45.986 118.073,45.991 117.918 C 45.996 117.762,46.548 116.705,47.218 115.569 C 47.888 114.433,48.359 113.426,48.264 113.331 C 48.169 113.236,47.465 114.293,46.698 115.679 M41.903 125.101 C 38.177 132.942,35.763 138.697,36.071 139.005 C 36.168 139.101,37.026 137.250,37.978 134.890 C 38.930 132.531,40.775 128.376,42.079 125.658 C 43.383 122.940,44.379 120.646,44.293 120.559 C 44.207 120.473,43.131 122.517,41.903 125.101 M361.634 133.505 C 361.615 133.783,361.767 134.323,361.971 134.705 C 362.175 135.087,362.449 135.741,362.580 136.157 C 362.711 136.574,362.918 136.815,363.040 136.693 C 363.162 136.571,362.903 135.691,362.464 134.736 C 362.026 133.781,361.652 133.227,361.634 133.505 M364.028 139.876 C 364.013 140.358,364.180 140.864,364.400 141.000 C 364.873 141.292,364.873 140.901,364.400 139.800 C 364.069 139.029,364.055 139.031,364.028 139.876 M35.632 139.630 C 35.614 139.757,35.129 141.197,34.553 142.830 C 33.575 145.602,32.378 149.402,31.601 152.200 C 30.237 157.108,29.204 161.437,29.225 162.151 C 29.238 162.618,29.876 160.480,30.641 157.400 C 31.407 154.320,32.185 151.440,32.371 151.000 C 32.557 150.560,32.927 149.390,33.193 148.400 C 33.460 147.410,33.840 146.287,34.039 145.905 C 34.238 145.523,34.400 144.953,34.400 144.639 C 34.400 144.324,34.766 143.213,35.213 142.171 C 35.659 141.128,35.944 140.078,35.844 139.838 C 35.745 139.597,35.649 139.504,35.632 139.630 M364.800 142.320 C 364.800 142.716,364.948 143.211,365.128 143.420 C 365.308 143.629,365.870 145.150,366.376 146.800 C 366.883 148.450,367.438 150.250,367.610 150.800 C 367.782 151.350,368.146 152.660,368.417 153.711 C 368.688 154.763,369.005 155.529,369.120 155.413 C 369.356 155.178,369.136 154.382,366.765 146.900 C 365.095 141.630,364.800 140.944,364.800 142.320 M369.197 156.300 C 369.188 157.076,371.339 165.594,371.503 165.431 C 371.714 165.219,369.629 156.000,369.369 156.000 C 369.276 156.000,369.198 156.135,369.197 156.300 M28.673 163.753 C 28.523 164.145,28.416 164.946,28.436 165.533 C 28.470 166.528,28.498 166.509,28.857 165.263 C 29.273 163.819,29.123 162.582,28.673 163.753 M371.796 167.800 C 372.087 170.567,372.810 174.943,373.009 175.142 C 373.402 175.536,373.145 173.284,372.399 169.800 C 371.975 167.820,371.704 166.920,371.796 167.800 M27.417 170.563 C 27.041 172.651,26.799 174.683,26.879 175.079 C 26.958 175.476,27.345 173.847,27.738 171.459 C 28.130 169.071,28.372 167.039,28.276 166.942 C 28.179 166.846,27.793 168.475,27.417 170.563 M373.274 177.800 C 373.264 178.900,373.411 180.160,373.600 180.600 C 374.071 181.695,374.085 179.636,373.623 177.400 L 373.292 175.800 373.274 177.800 M26.248 179.125 C 26.065 180.513,26.013 181.746,26.132 181.865 C 26.469 182.202,26.878 179.501,26.721 177.973 C 26.608 176.875,26.513 177.106,26.248 179.125 M374.097 184.800 C 374.082 186.670,374.210 189.100,374.382 190.200 L 374.693 192.200 374.707 190.200 C 374.714 189.100,374.586 186.670,374.422 184.800 L 374.124 181.400 374.097 184.800 M25.447 188.062 C 25.261 190.846,25.194 193.366,25.299 193.662 C 25.569 194.423,26.097 186.970,25.927 184.800 C 25.845 183.757,25.643 185.129,25.447 188.062 M24.953 199.400 C 24.953 202.040,25.018 203.068,25.097 201.684 C 25.175 200.301,25.174 198.141,25.095 196.884 C 25.016 195.628,24.952 196.760,24.953 199.400 M374.959 200.800 C 374.959 203.990,375.021 205.295,375.097 203.700 C 375.173 202.105,375.173 199.495,375.097 197.900 C 375.021 196.305,374.959 197.610,374.959 200.800 M25.309 209.000 C 25.306 210.540,25.432 213.150,25.588 214.800 L 25.871 217.800 25.896 214.200 C 25.910 212.220,25.784 209.610,25.617 208.400 L 25.313 206.200 25.309 209.000 M374.300 210.359 C 374.135 211.766,374.024 214.106,374.054 215.559 L 374.108 218.200 374.463 214.600 C 374.908 210.085,374.766 206.385,374.300 210.359 M26.063 219.600 C 26.054 220.370,26.195 221.720,26.377 222.600 L 26.708 224.200 26.714 222.200 C 26.717 221.100,26.576 219.750,26.400 219.200 C 26.108 218.289,26.078 218.325,26.063 219.600 M373.490 219.950 C 373.331 220.693,373.221 222.043,373.247 222.950 C 373.292 224.551,373.304 224.534,373.660 222.400 C 374.087 219.835,373.947 217.823,373.490 219.950 M26.800 225.333 C 26.800 226.268,28.038 233.364,28.237 233.567 C 28.544 233.880,28.400 232.399,27.763 228.700 C 27.152 225.148,26.800 223.918,26.800 225.333 M372.625 227.000 C 372.471 228.100,372.154 229.921,371.921 231.046 C 371.688 232.171,371.577 233.330,371.674 233.622 C 371.771 233.914,372.172 232.326,372.564 230.092 C 372.956 227.859,373.194 225.800,373.091 225.516 C 372.989 225.232,372.779 225.900,372.625 227.000 M28.439 234.400 C 28.385 235.248,29.469 240.257,30.169 242.400 C 30.679 243.961,30.729 244.014,30.547 242.800 C 30.228 240.673,28.482 233.716,28.439 234.400 M370.978 235.778 C 370.827 236.581,370.804 237.337,370.926 237.460 C 371.048 237.582,371.272 237.025,371.422 236.222 C 371.573 235.419,371.596 234.663,371.474 234.540 C 371.352 234.418,371.128 234.975,370.978 235.778 M369.832 241.032 C 369.440 242.693,369.205 244.138,369.309 244.242 C 369.414 244.347,369.819 243.072,370.211 241.411 C 370.602 239.749,370.837 238.304,370.733 238.200 C 370.629 238.096,370.223 239.370,369.832 241.032 M30.819 244.740 C 30.774 246.013,35.406 260.653,36.385 262.330 C 36.901 263.215,36.927 262.216,36.411 261.295 C 36.028 260.609,33.405 252.700,32.401 249.200 C 31.484 246.006,30.839 244.187,30.819 244.740 M368.446 246.497 C 367.547 249.670,365.535 256.196,365.207 257.000 C 365.027 257.440,364.664 258.430,364.400 259.200 C 364.136 259.970,363.776 260.960,363.600 261.400 C 361.579 266.467,360.832 268.565,360.991 268.724 C 361.096 268.829,361.303 268.574,361.453 268.157 C 361.602 267.741,362.390 265.690,363.203 263.600 C 364.881 259.288,366.336 255.086,367.565 251.000 C 368.028 249.460,368.614 247.524,368.868 246.698 C 369.122 245.872,369.239 245.106,369.129 244.995 C 369.018 244.885,368.711 245.561,368.446 246.497 M36.828 263.292 C 36.782 263.765,38.086 266.848,38.258 266.675 C 38.345 266.588,38.066 265.725,37.637 264.758 C 37.208 263.791,36.844 263.131,36.828 263.292 M38.400 267.316 C 38.400 268.284,45.237 282.358,47.582 286.219 C 48.472 287.684,49.200 288.946,49.200 289.024 C 49.200 289.726,58.939 304.093,61.656 307.400 C 62.018 307.840,63.716 309.910,65.431 312.000 C 72.349 320.433,83.316 331.163,91.200 337.212 C 92.190 337.971,93.359 338.919,93.798 339.317 C 102.711 347.411,127.769 360.685,144.094 365.961 C 153.623 369.040,154.763 369.370,155.013 369.120 C 155.128 369.006,154.092 368.600,152.711 368.219 C 136.652 363.788,120.990 356.705,104.604 346.465 C 102.725 345.291,100.965 344.112,100.694 343.846 C 100.422 343.580,99.300 342.749,98.200 342.000 C 97.100 341.251,96.004 340.449,95.765 340.219 C 95.526 339.989,93.929 338.720,92.216 337.400 C 90.503 336.080,88.712 334.640,88.235 334.200 C 87.759 333.760,86.206 332.410,84.785 331.200 C 78.929 326.217,70.267 317.322,65.364 311.255 C 64.944 310.736,64.420 310.106,64.200 309.855 C 61.959 307.304,56.572 300.008,54.600 296.853 C 54.380 296.501,53.714 295.470,53.119 294.562 C 49.121 288.457,43.532 278.102,40.616 271.400 C 39.160 268.052,38.400 266.652,38.400 267.316 M359.353 271.669 C 358.086 274.533,353.814 282.983,352.411 285.400 C 351.900 286.280,350.947 287.967,350.293 289.150 C 349.639 290.332,348.315 292.427,347.352 293.806 C 346.388 295.184,345.600 296.511,345.600 296.756 C 345.600 297.000,345.420 297.200,345.200 297.200 C 344.980 297.200,344.800 297.436,344.800 297.725 C 344.800 298.013,344.478 298.598,344.083 299.025 C 343.689 299.451,342.753 300.700,342.003 301.800 C 333.103 314.851,314.744 333.212,301.800 342.008 C 300.700 342.755,299.451 343.689,299.025 344.083 C 298.598 344.478,298.088 344.800,297.891 344.800 C 297.693 344.800,295.972 345.858,294.066 347.150 C 289.198 350.451,285.312 352.683,278.501 356.089 C 271.580 359.551,267.321 361.454,262.600 363.193 C 261.280 363.680,259.840 364.235,259.400 364.428 C 258.960 364.620,256.800 365.339,254.600 366.025 C 252.400 366.711,249.970 367.517,249.200 367.816 C 247.014 368.664,248.669 368.493,251.373 367.591 C 252.708 367.146,254.430 366.589,255.200 366.352 C 257.039 365.786,265.551 362.590,268.600 361.321 C 280.515 356.360,297.756 346.177,307.200 338.523 C 307.530 338.256,308.970 337.111,310.400 335.980 C 318.328 329.708,329.708 318.328,335.980 310.400 C 337.111 308.970,338.336 307.440,338.702 307.000 C 341.674 303.426,348.123 293.744,351.891 287.200 C 355.705 280.574,361.035 269.701,360.654 269.321 C 360.554 269.221,359.969 270.278,359.353 271.669 M181.359 276.800 C 181.359 279.990,181.421 281.295,181.497 279.700 C 181.573 278.105,181.573 275.495,181.497 273.900 C 181.421 272.305,181.359 273.610,181.359 276.800 M242.200 369.550 C 240.000 370.116,238.495 370.639,238.855 370.711 C 239.513 370.842,247.144 368.990,247.528 368.605 C 247.917 368.216,246.189 368.523,242.200 369.550 M157.200 369.861 C 171.956 374.636,199.987 376.444,221.000 373.976 C 227.406 373.224,237.536 371.414,237.973 370.943 C 238.205 370.692,237.586 370.778,233.400 371.580 C 215.911 374.930,195.501 375.693,179.700 373.587 C 173.602 372.774,170.538 372.324,168.800 371.987 C 163.666 370.992,161.953 370.623,159.307 369.943 C 155.919 369.073,154.604 369.022,157.200 369.861 " stroke="none" fill="#6a6969" fill-rule="evenodd"></path><path id="path4" d="M185.800 25.154 C 185.140 25.308,189.632 25.357,195.783 25.263 C 213.452 24.994,227.543 26.471,241.493 30.057 C 244.362 30.794,245.502 30.969,245.150 30.617 C 244.886 30.353,237.071 28.407,234.436 27.949 C 226.446 26.560,222.482 25.964,218.400 25.537 C 213.876 25.064,187.520 24.755,185.800 25.154 M177.000 26.072 C 168.968 27.262,166.346 27.744,163.000 28.645 C 160.801 29.237,162.349 29.139,165.600 28.479 C 169.790 27.630,179.274 26.216,183.200 25.856 C 183.970 25.786,183.430 25.725,182.000 25.722 C 180.570 25.719,178.320 25.876,177.000 26.072 M157.400 29.809 C 156.300 30.115,155.235 30.373,155.033 30.382 C 154.832 30.392,154.772 30.505,154.901 30.634 C 155.133 30.866,160.800 29.628,160.800 29.346 C 160.800 29.065,159.384 29.258,157.400 29.809 M152.400 31.200 C 151.903 31.521,151.938 31.588,152.600 31.588 C 153.040 31.588,153.670 31.413,154.000 31.200 C 154.497 30.879,154.462 30.812,153.800 30.812 C 153.360 30.812,152.730 30.987,152.400 31.200 M246.200 31.200 C 247.396 31.714,248.395 31.714,247.600 31.200 C 247.270 30.987,246.640 30.822,246.200 30.834 L 245.400 30.856 246.200 31.200 M148.404 32.318 C 147.416 32.658,146.793 32.998,147.018 33.073 C 147.244 33.148,148.412 32.861,149.614 32.434 C 150.816 32.007,151.440 31.668,151.000 31.680 C 150.560 31.691,149.392 31.979,148.404 32.318 M251.788 32.808 C 253.761 33.441,255.451 33.882,255.545 33.789 C 255.732 33.602,255.709 33.593,252.034 32.419 C 250.623 31.969,249.183 31.613,248.834 31.629 C 248.485 31.645,249.814 32.175,251.788 32.808 M144.600 33.600 C 144.308 34.073,144.699 34.073,145.800 33.600 C 146.571 33.269,146.569 33.255,145.724 33.228 C 145.242 33.213,144.736 33.380,144.600 33.600 M142.200 34.400 C 141.908 34.873,142.299 34.873,143.400 34.400 C 144.171 34.069,144.169 34.055,143.324 34.028 C 142.842 34.013,142.336 34.180,142.200 34.400 M256.600 34.400 C 257.701 34.873,258.092 34.873,257.800 34.400 C 257.664 34.180,257.158 34.013,256.676 34.028 C 255.831 34.055,255.829 34.069,256.600 34.400 M139.600 35.275 C 139.050 35.506,138.240 35.830,137.800 35.994 C 131.498 38.346,120.148 43.578,115.800 46.136 C 114.700 46.783,112.990 47.765,112.000 48.318 C 111.010 48.871,109.139 50.009,107.842 50.848 C 106.545 51.686,105.285 52.444,105.042 52.531 C 104.799 52.619,104.694 52.795,104.810 52.922 C 104.925 53.049,106.414 52.264,108.118 51.177 C 109.822 50.089,111.284 49.200,111.367 49.200 C 111.450 49.200,112.752 48.448,114.259 47.529 C 118.230 45.109,129.738 39.644,136.000 37.207 C 138.970 36.051,141.475 35.036,141.567 34.952 C 141.900 34.647,140.574 34.865,139.600 35.275 M260.568 35.817 C 261.870 36.358,263.080 36.800,263.256 36.800 C 263.432 36.800,264.527 37.227,265.688 37.749 C 266.850 38.271,268.970 39.210,270.400 39.834 C 296.155 51.085,319.711 69.368,337.613 92.000 C 346.302 102.984,354.547 116.550,359.615 128.200 C 360.094 129.300,360.979 131.280,361.582 132.600 C 362.185 133.920,363.371 136.965,364.217 139.366 C 365.064 141.768,365.829 143.514,365.918 143.246 C 366.095 142.714,365.052 139.665,363.953 137.505 C 363.759 137.123,363.600 136.626,363.600 136.401 C 363.600 136.176,363.257 135.228,362.838 134.296 C 362.420 133.363,361.747 131.790,361.343 130.800 C 360.543 128.837,353.449 114.660,352.136 112.400 C 350.066 108.838,346.589 103.387,346.310 103.267 C 346.139 103.193,346.000 102.912,346.000 102.642 C 346.000 102.372,345.679 101.802,345.286 101.375 C 344.894 100.949,343.637 99.243,342.495 97.585 C 341.352 95.926,340.098 94.215,339.708 93.783 C 339.319 93.350,337.923 91.647,336.606 89.998 C 335.289 88.349,333.939 86.662,333.606 86.248 C 332.389 84.739,326.924 78.923,323.976 76.000 C 318.401 70.473,316.154 68.446,310.673 64.000 C 310.266 63.670,309.453 62.988,308.866 62.485 C 304.382 58.637,293.739 51.486,285.400 46.718 C 281.096 44.257,268.236 38.246,263.400 36.435 C 262.080 35.941,260.687 35.370,260.305 35.168 C 259.923 34.966,259.293 34.808,258.905 34.817 C 258.517 34.826,259.266 35.276,260.568 35.817 M100.787 55.324 C 96.302 58.415,94.033 60.160,94.016 60.533 C 94.007 60.717,94.495 60.490,95.100 60.029 C 95.705 59.568,97.910 57.996,100.000 56.536 C 104.281 53.544,104.729 53.189,104.180 53.224 C 103.971 53.237,102.444 54.182,100.787 55.324 M92.200 61.699 C 91.540 62.179,90.910 62.669,90.800 62.788 C 90.690 62.907,89.880 63.539,89.000 64.193 C 86.770 65.849,80.065 71.942,76.004 76.004 C 70.024 81.983,65.149 87.545,60.756 93.400 C 59.600 94.940,58.536 96.290,58.391 96.400 C 58.246 96.510,56.510 99.030,54.533 102.000 C 51.338 106.800,50.257 108.539,47.075 114.000 C 45.704 116.354,39.425 128.886,38.659 130.800 C 38.262 131.790,37.748 133.050,37.515 133.600 C 37.283 134.150,36.916 135.050,36.700 135.600 C 36.484 136.150,36.148 136.913,35.953 137.295 C 35.759 137.677,35.600 138.264,35.600 138.600 C 35.600 138.936,35.441 139.523,35.247 139.905 C 34.224 141.915,33.923 142.769,34.076 143.227 C 34.168 143.505,34.652 142.578,35.150 141.166 C 40.862 124.986,50.301 107.705,61.131 93.600 C 69.253 83.023,80.646 71.410,90.700 63.459 C 92.295 62.198,93.600 61.084,93.600 60.983 C 93.600 60.703,93.491 60.759,92.200 61.699 M33.492 144.242 C 33.331 144.402,33.205 144.908,33.212 145.367 C 33.223 146.136,33.256 146.145,33.640 145.485 C 34.088 144.716,33.973 143.760,33.492 144.242 M366.000 144.193 C 366.000 144.388,366.353 145.549,366.785 146.773 C 367.548 148.941,367.817 149.886,369.803 157.400 C 371.058 162.147,372.302 168.432,373.445 175.800 C 374.062 179.779,374.317 180.857,374.204 179.000 C 374.109 177.460,373.853 175.120,373.636 173.800 C 372.700 168.135,372.412 166.478,372.001 164.400 C 371.352 161.121,370.907 159.161,370.457 157.600 C 370.235 156.830,369.930 155.750,369.778 155.200 C 367.415 146.647,366.000 142.524,366.000 144.193 M31.636 150.479 C 30.079 155.585,29.847 156.467,28.811 161.200 C 28.354 163.290,27.817 165.630,27.618 166.400 C 26.873 169.281,26.053 175.545,25.811 180.200 C 25.606 184.152,25.788 183.476,26.403 178.000 C 26.873 173.821,28.119 166.269,28.779 163.600 C 28.970 162.830,29.515 160.490,29.990 158.400 C 30.466 156.310,31.004 154.150,31.186 153.600 C 32.300 150.234,33.247 146.714,33.083 146.550 C 32.978 146.445,32.327 148.213,31.636 150.479 M25.097 184.400 C 24.940 184.950,24.834 187.560,24.863 190.200 L 24.915 195.000 25.262 190.000 C 25.642 184.526,25.588 182.687,25.097 184.400 M374.669 189.400 C 374.802 192.480,374.976 195.075,375.055 195.167 C 375.396 195.559,375.152 184.943,374.808 184.400 C 374.563 184.014,374.514 185.801,374.669 189.400 M375.048 205.500 C 374.901 208.525,374.691 212.350,374.582 214.000 C 374.450 215.983,374.506 216.723,374.748 216.184 C 375.127 215.335,375.848 200.000,375.509 200.000 C 375.403 200.000,375.196 202.475,375.048 205.500 M25.056 210.600 C 25.208 217.488,25.541 221.526,26.375 226.600 C 26.629 228.140,27.001 230.480,27.202 231.800 C 27.835 235.941,28.513 239.134,29.538 242.800 C 29.754 243.570,30.397 246.000,30.968 248.200 C 32.358 253.560,33.299 256.400,33.683 256.400 C 33.857 256.400,34.000 256.929,34.000 257.576 C 34.000 258.223,34.180 258.864,34.400 259.000 C 34.620 259.136,34.800 259.599,34.800 260.029 C 34.800 260.459,34.959 261.123,35.153 261.505 C 35.348 261.887,35.676 262.650,35.884 263.200 C 36.092 263.750,36.653 265.010,37.132 266.000 C 37.611 266.990,38.002 267.930,38.001 268.090 C 38.000 268.249,38.508 269.509,39.130 270.890 C 39.751 272.270,40.502 274.030,40.799 274.800 C 41.097 275.570,41.663 276.670,42.058 277.245 C 42.453 277.820,43.418 279.710,44.203 281.445 C 45.822 285.024,46.861 287.009,48.471 289.600 C 49.086 290.590,49.808 291.850,50.075 292.400 C 50.706 293.697,54.386 299.208,55.184 300.051 C 56.511 301.453,57.217 302.459,58.159 304.292 C 58.698 305.341,60.008 307.119,61.070 308.242 C 65.276 312.694,66.400 314.060,66.641 315.020 C 66.779 315.571,67.202 316.187,67.581 316.390 C 68.612 316.941,74.558 323.146,74.877 324.004 C 75.030 324.413,75.549 324.958,76.030 325.216 C 77.214 325.850,83.600 332.152,83.600 332.687 C 83.600 332.921,84.022 333.219,84.538 333.349 C 85.054 333.478,86.449 334.484,87.638 335.584 C 88.827 336.683,90.106 337.686,90.480 337.812 C 90.853 337.938,91.272 338.397,91.410 338.833 C 91.781 340.000,93.591 341.534,94.949 341.833 C 95.601 341.976,96.600 342.524,97.168 343.051 C 97.736 343.578,98.488 344.100,98.839 344.212 C 99.191 344.324,99.676 344.848,99.917 345.378 C 100.440 346.526,104.391 349.282,106.503 349.973 C 107.330 350.243,108.181 350.790,108.394 351.189 C 108.607 351.587,109.551 352.363,110.491 352.912 C 114.543 355.279,116.044 356.025,116.534 355.916 C 117.344 355.736,121.200 357.673,121.200 358.260 C 121.200 358.909,124.102 360.433,125.081 360.299 C 126.146 360.153,133.166 363.263,133.394 363.982 C 133.614 364.674,137.348 366.213,139.800 366.622 C 140.680 366.769,141.580 367.104,141.800 367.366 C 142.438 368.125,148.834 370.078,149.849 369.823 C 150.978 369.540,157.497 371.383,158.465 372.259 C 158.854 372.610,160.033 373.074,161.086 373.288 C 162.139 373.503,163.720 373.825,164.600 374.004 C 165.480 374.184,166.380 374.187,166.600 374.013 C 167.299 373.458,172.400 374.406,172.400 375.091 C 172.400 375.592,172.822 375.648,174.909 375.424 C 177.490 375.148,182.614 375.748,183.426 376.421 C 184.189 377.055,191.083 377.395,191.760 376.833 C 192.424 376.282,199.862 376.653,200.234 377.256 C 200.579 377.813,206.882 377.657,208.020 377.063 C 209.384 376.351,215.939 375.852,216.610 376.408 C 217.198 376.896,224.281 376.145,225.085 375.510 C 225.352 375.299,227.062 375.032,228.885 374.918 C 230.944 374.788,232.579 374.464,233.200 374.062 C 234.524 373.205,238.419 372.321,241.400 372.200 C 244.294 372.083,249.473 370.707,250.128 369.881 C 250.767 369.076,257.081 367.068,258.700 367.155 C 259.570 367.202,260.000 367.043,260.000 366.676 C 260.000 366.033,265.377 363.812,266.679 363.917 C 268.040 364.026,274.079 361.282,275.224 360.033 C 275.904 359.292,276.981 358.748,278.424 358.416 C 280.596 357.916,283.600 356.303,283.600 355.637 C 283.600 355.127,291.236 350.976,291.900 351.124 C 292.577 351.275,293.671 350.438,293.391 349.985 C 293.198 349.673,295.231 348.000,295.804 348.000 C 295.959 348.000,296.767 347.460,297.600 346.800 C 298.433 346.140,299.513 345.600,299.999 345.600 C 301.080 345.600,305.613 342.376,305.410 341.751 C 305.238 341.221,307.299 339.612,308.430 339.394 C 309.415 339.205,315.400 334.121,315.400 333.474 C 315.400 332.768,316.335 331.912,316.795 332.197 C 317.279 332.496,324.400 325.697,324.400 324.936 C 324.400 324.641,324.653 324.400,324.963 324.400 C 325.709 324.400,331.258 318.283,331.918 316.732 C 332.204 316.063,332.744 315.430,333.118 315.326 C 333.493 315.223,334.520 314.230,335.400 313.120 C 336.280 312.010,337.405 310.630,337.900 310.051 C 338.394 309.473,338.799 308.778,338.800 308.507 C 338.800 307.853,341.290 304.458,341.800 304.418 C 342.222 304.384,344.800 300.649,344.800 300.071 C 344.800 299.885,345.520 298.705,346.400 297.449 C 347.280 296.192,348.000 295.075,348.000 294.966 C 348.000 294.654,349.766 292.215,350.100 292.067 C 350.265 291.993,350.400 291.588,350.400 291.167 C 350.400 290.745,350.535 290.399,350.700 290.397 C 350.865 290.395,351.196 289.990,351.436 289.497 C 352.368 287.582,354.537 283.771,355.020 283.200 C 355.457 282.685,360.417 272.536,361.667 269.600 C 361.902 269.050,362.252 268.287,362.447 267.905 C 362.641 267.523,362.800 266.846,362.800 266.400 C 362.800 265.954,362.959 265.277,363.153 264.895 C 363.492 264.229,363.996 263.033,364.752 261.100 C 364.946 260.605,365.392 259.480,365.744 258.600 C 366.096 257.720,366.770 255.740,367.241 254.200 C 367.713 252.660,368.437 250.398,368.850 249.173 C 369.262 247.949,369.600 246.564,369.600 246.097 C 369.600 245.630,369.756 245.151,369.947 245.033 C 370.138 244.915,370.402 244.049,370.534 243.109 C 370.666 242.169,370.971 240.590,371.212 239.600 C 371.453 238.610,371.825 236.900,372.038 235.800 C 372.251 234.700,372.611 232.900,372.837 231.800 C 373.393 229.103,373.964 224.448,374.187 220.800 C 374.312 218.747,374.127 219.556,373.599 223.363 C 372.868 228.629,372.028 233.425,371.210 237.000 C 370.171 241.540,369.100 245.911,368.810 246.800 C 368.630 247.350,368.089 249.150,367.607 250.800 C 366.080 256.025,362.905 264.801,361.022 269.000 C 360.727 269.660,360.084 271.100,359.595 272.200 C 354.737 283.121,344.815 299.648,338.702 307.000 C 338.336 307.440,337.111 308.970,335.980 310.400 C 329.708 318.328,318.328 329.708,310.400 335.980 C 308.970 337.111,307.530 338.256,307.200 338.523 C 297.756 346.177,280.515 356.360,268.600 361.321 C 265.616 362.563,257.082 365.771,255.200 366.357 C 254.430 366.597,252.900 367.087,251.800 367.444 C 250.700 367.802,249.260 368.237,248.600 368.412 C 247.940 368.586,245.966 369.117,244.212 369.593 C 240.941 370.480,240.626 370.550,233.800 371.922 C 208.748 376.958,179.225 376.070,156.000 369.583 C 154.350 369.122,152.019 368.480,150.820 368.157 C 133.288 363.426,104.080 348.654,93.798 339.317 C 93.359 338.919,92.190 337.971,91.200 337.212 C 83.316 331.163,72.349 320.433,65.431 312.000 C 63.716 309.910,62.018 307.840,61.656 307.400 C 58.939 304.093,49.200 289.726,49.200 289.024 C 49.200 288.946,48.448 287.648,47.530 286.141 C 42.388 277.703,35.243 260.798,32.086 249.600 C 29.078 238.933,28.263 235.126,26.433 223.200 C 26.059 220.760,25.355 212.248,25.044 206.400 C 24.968 204.970,24.973 206.860,25.056 210.600 " stroke="none" fill="#949494" fill-rule="evenodd"></path></g></svg>