<svg id="Group_890" data-name="Group 890" xmlns="http://www.w3.org/2000/svg" width="160" height="80" viewBox="0 0 160 80">
  <rect id="Rectangle_19" data-name="Rectangle 19" width="160" height="80" rx="12" fill="#2daaed"/>
  <g id="Group_49" data-name="Group 49" transform="translate(16.314 12.402)">
    <g id="Group_48" data-name="Group 48">
      <path id="Path_142" data-name="Path 142" d="M263.572,106.651c14.672,0,26.646,10.744,27.653,24.32.038-.614.1-1.214.1-1.83,0-14.432-12.435-26.137-27.752-26.137s-27.731,11.7-27.731,26.137c0,.616.052,1.216.092,1.83C236.939,117.4,248.909,106.651,263.572,106.651Z" transform="translate(-197.819 -103.005)" fill="#fff"/>
      <path id="Path_143" data-name="Path 143" d="M240.766,166.086c.033-8.466,2.494-15.656,6.234-18.059l-.833.053c-5.786,2.435-10.17,9.7-10.443,18.25-.316,10.058,5.822,18.12,12.142,18.813l1.071-.1C244.749,183.5,240.725,176.095,240.766,166.086Z" transform="translate(-197.742 -130.018)" fill="#fff"/>
      <path id="Path_144" data-name="Path 144" d="M226.774,183.995c.15-3.45,1.382-6.321,2.942-7.266l-.334.018c-2.4.912-4.3,3.818-4.559,7.3-.288,4.091,1.83,7.48,4.768,7.792l.308-.012C227.985,191.452,226.6,188.066,226.774,183.995Z" transform="translate(-191.192 -147.239)" fill="#fff"/>
      <path id="Path_145" data-name="Path 145" d="M349.885,166.086c-.033-8.466-2.495-15.656-6.233-18.059l.827.053c5.795,2.435,10.177,9.7,10.449,18.25.317,10.058-5.819,18.12-12.14,18.813l-1.074-.1C345.9,183.5,349.926,176.095,349.885,166.086Z" transform="translate(-261.343 -130.018)" fill="#fff"/>
      <path id="Path_146" data-name="Path 146" d="M376.069,183.995c-.15-3.45-1.383-6.321-2.946-7.266l.339.018c2.4.912,4.3,3.818,4.558,7.3.282,4.091-1.828,7.48-4.77,7.792l-.3-.012C374.856,191.452,376.246,188.066,376.069,183.995Z" transform="translate(-280.081 -147.239)" fill="#fff"/>
      <g id="Group_45" data-name="Group 45" transform="translate(47.805 15.972)">
        <path id="Path_147" data-name="Path 147" d="M294.123,169.526a10.169,10.169,0,0,1-.878,3.908,13.831,13.831,0,0,1-2.8,4.126,14.5,14.5,0,0,1-4.915,3.329,16.039,16.039,0,0,1-3.2.934,20.178,20.178,0,0,1-3.741.336,23.913,23.913,0,0,1-5.462-.572,17.169,17.169,0,0,1-2.327-.693,13.132,13.132,0,0,1-2.15-1.065,15.936,15.936,0,0,1-3.675-3.181,19.447,19.447,0,0,1-2.536-3.944,21.93,21.93,0,0,1-1.631-4.775,23.966,23.966,0,0,1-.39-2.534q-.127-1.3-.126-2.8a23.767,23.767,0,0,1,1.318-8.176,17.173,17.173,0,0,1,3.791-6.17,17.5,17.5,0,0,1,5.863-3.972,19.511,19.511,0,0,1,3.443-1.009,19.249,19.249,0,0,1,3.674-.337,17.831,17.831,0,0,1,8.206,1.837,14.86,14.86,0,0,1,5.513,4.538,8.94,8.94,0,0,1,1.916,5.107,3.322,3.322,0,0,1-.932,2.325,2.953,2.953,0,0,1-2.249,1.011,3.229,3.229,0,0,1-2.227-.7,11.036,11.036,0,0,1-1.631-2.4,11.467,11.467,0,0,0-3.516-4.192,8.644,8.644,0,0,0-5.021-1.406,9.1,9.1,0,0,0-7.546,3.582q-2.8,3.574-2.8,10.22a18.906,18.906,0,0,0,1.241,7.342,9.343,9.343,0,0,0,3.519,4.378,9.652,9.652,0,0,0,5.331,1.46,9.351,9.351,0,0,0,5.561-1.615,10.083,10.083,0,0,0,3.5-4.847,7.545,7.545,0,0,1,1.2-2.446,2.792,2.792,0,0,1,2.34-.943,3.277,3.277,0,0,1,2.354.944A3.164,3.164,0,0,1,294.123,169.526Z" transform="translate(-260.298 -142.934)" fill="#fff"/>
      </g>
      <g id="Group_46" data-name="Group 46" transform="translate(95.127 16.606)">
        <path id="Path_148" data-name="Path 148" d="M406.917,150.866h-8.385v27.56a5.08,5.08,0,0,1-1.059,3.532,3.849,3.849,0,0,1-5.518-.027,5.043,5.043,0,0,1-1.071-3.506v-27.56h-8.4a4.281,4.281,0,0,1-2.9-.865,3.212,3.212,0,0,1,.009-4.639,4.39,4.39,0,0,1,2.889-.842h24.427a4.363,4.363,0,0,1,2.966.868,2.954,2.954,0,0,1,.968,2.318,2.921,2.921,0,0,1-.982,2.28A4.308,4.308,0,0,1,406.917,150.866Z" transform="translate(-378.603 -144.52)" fill="#fff"/>
      </g>
      <g id="Group_47" data-name="Group 47" transform="translate(0 15.975)">
        <path id="Path_149" data-name="Path 149" d="M150.692,147.549l14.764,22.368V147.34a4.972,4.972,0,0,1,.947-3.273,3.178,3.178,0,0,1,2.558-1.124,3.291,3.291,0,0,1,2.6,1.11,4.814,4.814,0,0,1,.988,3.286v29.832q0,5-4.137,4.992a5.658,5.658,0,0,1-1.84-.283,4.562,4.562,0,0,1-1.552-.933,9.578,9.578,0,0,1-1.37-1.528l-1.244-1.785-14.413-22.1v22.231a4.7,4.7,0,0,1-1.025,3.271,3.543,3.543,0,0,1-5.184,0,4.782,4.782,0,0,1-.995-3.271V148.5a8.168,8.168,0,0,1,.44-2.961,4,4,0,0,1,1.59-1.851,4.453,4.453,0,0,1,2.47-.747,4.33,4.33,0,0,1,1.744.32,3.971,3.971,0,0,1,1.307.922,10.317,10.317,0,0,1,1.139,1.473Z" transform="translate(-140.786 -142.943)" fill="#fff"/>
      </g>
    </g>
  </g>
</svg>
