<?xml version="1.0" encoding="utf-8"?>
<!-- Generator: Adobe Illustrator 25.2.3, SVG Export Plug-In . SVG Version: 6.00 Build 0)  -->
<svg version="1.1" id="Layer_1" xmlns="http://www.w3.org/2000/svg" xmlns:xlink="http://www.w3.org/1999/xlink" x="0px" y="0px"
	 viewBox="0 0 300 300" style="enable-background:new 0 0 300 300;" xml:space="preserve">
<style type="text/css">
	.st0{fill:#D1EDF8;}
	.st1{fill:#0AA8E0;}
	.st2{fill:#24303F;}
</style>
<g id="Layer_2_1_">
	<g id="Ebene_1">
		<path class="st0" d="M400.37,220.89v-0.4c0.4-0.5,1.1-0.8,1.7-0.7c2.9-0.1,5.7-0.1,8.6,0c0.6,0,1.3,0.2,1.7,0.7v0.4H400.37z"/>
		<path class="st1" d="M154.52,278.32c-2.8-0.07-5.6-0.07-8.4,0c-3.85-0.21-7.7-0.35-11.55-0.63c-10.22-0.77-20.37-2.31-30.32-4.62
			c-34.38-7.98-64.55-24.02-90.88-47.33c-2.45-2.17-4.76-4.41-7.14-6.65c-0.56-0.49-1.05-1.19-1.33-1.89
			c-0.42-0.98-0.21-2.03,0.49-2.8s1.82-1.05,2.8-0.63c0.63,0.28,1.26,0.56,1.82,0.91c25.14,15.54,52.58,26.89,81.36,33.61
			c9.66,2.24,19.39,3.99,29.2,5.25c14.07,1.75,28.29,2.38,42.43,1.89c7.63-0.21,15.19-0.91,22.75-1.89
			c17.64-2.24,35.08-6.23,51.95-11.83c8.89-2.94,17.57-6.3,26.05-10.22c1.26-0.7,2.8-0.91,4.2-0.56c2.31,0.56,3.71,2.94,3.15,5.25
			c-0.07,0.28-0.21,0.63-0.35,0.91c-0.56,1.05-1.33,1.96-2.31,2.66c-8.05,6.3-16.73,11.83-25.91,16.45
			c-17.29,8.75-35.78,14.98-54.82,18.55C176.71,276.71,165.65,277.9,154.52,278.32z"/>
		<path class="st1" d="M194.51,42.35c1.55-0.93,3.16-1.92,4.84-2.79c4.34-2.23,9.18-3.35,14.09-3.1c3.54,0.19,6.76,1.18,9.25,3.79
			c2.36,2.42,3.23,5.4,3.47,8.62c0.06,0.68,0.06,1.37,0.06,2.11v32.14c0,2.79-0.37,3.16-3.16,3.16h-7.57c-0.5,0-0.99,0-1.49-0.06
			c-0.74-0.06-1.37-0.68-1.49-1.43c-0.12-0.68-0.12-1.37-0.12-2.05V54.02c0.06-1.18-0.06-2.3-0.37-3.41
			c-0.5-1.92-2.23-3.29-4.22-3.41c-3.66-0.25-7.32,0.5-10.67,2.05c-0.5,0.12-0.81,0.62-0.74,1.12V83c0,0.62,0,1.18-0.12,1.8
			c0,0.87-0.68,1.49-1.55,1.49l0,0c-0.93,0.06-1.86,0.06-2.85,0.06h-6.58c-2.3,0-2.79-0.56-2.79-2.85V54.14
			c0-1.05-0.06-2.17-0.31-3.23c-0.43-2.11-2.23-3.6-4.34-3.72c-3.72-0.25-7.51,0.5-10.86,2.11c-0.5,0.12-0.81,0.68-0.68,1.18v33.07
			c0,2.3-0.5,2.79-2.79,2.79h-8.31c-2.17,0-2.73-0.62-2.73-2.73V40.55c0-0.5,0.06-0.99,0.19-1.49c0.25-0.74,0.99-1.18,1.74-1.18
			h7.76c1.12,0,1.8,0.68,2.17,1.74c0.31,0.87,0.5,1.68,0.81,2.61c0.62,0,0.99-0.43,1.43-0.68c3.41-2.11,7.01-3.91,11.04-4.65
			c3.1-0.62,6.2-0.62,9.31,0c2.92,0.62,5.52,2.36,7.2,4.84c0.12,0.19,0.25,0.31,0.37,0.43C194.39,42.23,194.45,42.23,194.51,42.35z"
			/>
		<path class="st2" d="M58.21,172.34c0.39-1.29,0.77-2.51,1.16-3.79c2.96-9.96,5.91-19.86,8.87-29.82l0.39-1.16
			c0.32-1.16,1.41-1.86,2.57-1.86h9.77c2.44,0,2.96,0.71,2.12,3.02l-3.86,10.22c-4.31,11.18-8.61,22.43-12.92,33.62
			c-0.13,0.39-0.32,0.77-0.45,1.16c-0.45,1.35-1.8,2.25-3.21,2.12c-2.83-0.06-5.66-0.06-8.48,0c-1.99,0.06-3.15-0.84-3.86-2.64
			c-1.61-4.24-3.28-8.55-4.88-12.79c-3.86-10.09-7.78-20.18-11.63-30.34c-0.39-0.77-0.64-1.67-0.84-2.51
			c-0.19-1.29,0.26-1.93,1.54-1.93c3.66-0.06,7.33,0,10.93,0c1.54,0,2.25,1.03,2.64,2.38c0.71,2.44,1.41,4.95,2.19,7.39
			c2.64,8.93,5.21,17.93,7.84,26.87C58.01,172.34,58.08,172.34,58.21,172.34z"/>
		<path class="st1" d="M102.8,44.71c0.43-0.12,0.81-0.37,1.05-0.74c1.12-1.12,2.3-2.17,3.54-3.16c3.23-2.48,7.26-3.72,11.29-3.41
			c1.61,0.06,2.17,0.56,2.3,2.11c0.12,2.11,0.06,4.28,0.06,6.39c0.06,0.87,0,1.68-0.12,2.54c-0.25,1.12-0.68,1.55-1.8,1.68
			c-0.87,0.06-1.68,0-2.54-0.06c-4.16-0.37-8.19,0.43-12.1,1.74c-0.87,0.31-0.87,0.93-0.87,1.61v29.78c0,0.56,0,1.05-0.06,1.61
			c-0.06,0.81-0.68,1.43-1.49,1.43c-0.43,0.06-0.93,0.06-1.37,0.06h-8.07c-0.43,0-0.93,0-1.37-0.06c-0.81-0.06-1.43-0.74-1.49-1.55
			c-0.06-0.5-0.06-0.99-0.06-1.49V40.99c0-2.85,0.31-3.16,3.16-3.16h5.96c1.61,0,2.36,0.56,2.79,2.11
			C102.06,41.49,102.43,43.04,102.8,44.71z"/>
		<path class="st1" d="M274.87,210.05c4.62,0.14,9.17,0.42,13.65,1.61c1.26,0.35,2.45,0.77,3.64,1.33c1.61,0.63,2.66,2.17,2.87,3.85
			c0.28,1.96,0.35,3.99,0.21,6.02c-0.91,11.97-4.62,23.53-10.78,33.82c-2.24,3.71-4.97,7.07-8.12,10.01
			c-0.63,0.63-1.4,1.12-2.24,1.4c-1.33,0.35-2.17-0.35-2.24-1.68c0.07-0.7,0.21-1.4,0.49-2.1c2.45-6.58,4.83-13.09,6.72-19.88
			c1.12-3.71,1.89-7.49,2.38-11.34c0.14-1.4,0.21-2.8,0.07-4.2c-0.07-2.38-1.61-4.41-3.92-5.11c-2.17-0.7-4.41-1.12-6.72-1.26
			c-6.44-0.28-12.88,0-19.25,0.84l-8.47,1.05c-0.91,0.07-1.75,0-2.24-0.84c-0.49-0.84-0.28-1.68,0.21-2.52
			c0.56-0.77,1.26-1.47,2.1-1.96c5.18-3.71,10.99-5.95,17.15-7.42C265.14,210.68,269.97,210.19,274.87,210.05z"/>
		<path class="st2" d="M103.71,160.77v23.14c-0.13,1.29-0.71,1.86-1.99,1.93c-3.47,0.06-6.88,0.06-10.35,0
			c-1.29,0-1.86-0.64-1.99-1.86c-0.06-0.39-0.06-0.84-0.06-1.22v-44.48c0.06-1.99,0.58-2.57,2.57-2.57h9.26
			c1.99,0,2.57,0.58,2.57,2.57L103.71,160.77L103.71,160.77z"/>
		<path class="st1" d="M127,61.96V39.93c0.06-1.49,0.62-2.05,2.11-2.11c3.23-0.06,6.45-0.06,9.68,0c1.43,0,1.86,0.43,1.99,1.86
			c0.06,0.56,0.06,1.05,0.06,1.61v41.32c0,0.68-0.06,1.37-0.12,2.05c-0.06,0.81-0.68,1.37-1.49,1.43c-0.37,0.06-0.68,0.06-1.05,0.06
			h-8.62c-0.31,0-0.56,0-0.87-0.06c-0.87-0.06-1.61-0.74-1.68-1.61c-0.06-0.5-0.06-0.99-0.06-1.49C127,76.11,127,69.04,127,61.96z"
			/>
		<path class="st1" d="M134.2,15.61c0.99-0.06,1.99,0.12,2.92,0.43c3.35,1.12,5.09,4.03,4.78,7.82c-0.25,3.23-2.67,5.83-5.89,6.33
			c-1.37,0.25-2.79,0.25-4.16,0c-3.54-0.68-6.14-3.29-5.89-7.76C126.32,18.03,129.24,15.61,134.2,15.61z"/>
		<path class="st2" d="M96.58,112.63c1.29-0.13,2.57,0.13,3.79,0.64c2.51,0.96,4.24,3.28,4.37,5.98c0.51,5.85-3.41,8.81-8.61,8.68
			c-0.71,0-1.41-0.13-2.12-0.26c-3.98-0.96-6.04-4.05-5.66-8.48c0.32-3.54,3.09-6.17,6.88-6.49
			C95.68,112.63,96.13,112.56,96.58,112.63z"/>
		<path class="st1" d="M80.53,56.87c-0.25-3.23-1.12-6.39-2.42-9.31c-2.54-5.34-6.45-9.25-12.41-10.61
			c-6.83-1.49-12.97,0-18.55,4.16c-0.37,0.37-0.81,0.68-1.3,0.93c-0.12-0.06-0.25-0.12-0.25-0.19c-0.19-0.62-0.31-1.24-0.5-1.86
			c-0.5-1.55-1.12-2.11-2.79-2.11c-1.86,0-3.79,0.06-5.65,0c-1.43-0.06-2.73,0.12-3.72,1.24c0,21.72,0,43.5,0.06,65.15
			c0.81,1.3,2.05,1.55,3.47,1.49c2.23-0.06,4.47,0,6.7,0c3.91,0,3.91,0,3.91-3.85V84.24c0-0.43-0.19-0.93,0.25-1.3
			c3.1,2.42,6.89,3.91,10.8,4.28c5.46,0.56,10.42-0.81,14.58-4.53c3.04-2.79,5.27-6.39,6.45-10.36
			C80.84,67.24,80.96,62.09,80.53,56.87z M65.7,69.72c-0.43,1.92-1.43,3.66-2.85,4.96c-1.61,1.37-3.6,2.17-5.71,2.17
			c-3.16,0.19-6.27-0.5-9.06-1.99c-0.68-0.31-1.12-0.99-1.05-1.74V61.9c0-3.72,0.06-7.45,0-11.17c-0.06-0.87,0.43-1.61,1.24-1.92
			c3.41-1.61,6.95-2.36,10.67-1.61c2.61,0.37,4.84,2.05,5.89,4.47c0.93,1.99,1.49,4.16,1.61,6.33
			C66.81,61.96,66.81,65.93,65.7,69.72z"/>
		<path class="st2" d="M803.97,56.79C803.97,56.79,803.97,56.69,803.97,56.79C803.97,56.69,803.97,56.69,803.97,56.79z"/>
		<path class="st2" d="M271.92,156.78v0.26c-0.26-0.26-0.39-0.64-0.26-0.96v-0.51c0,0,0-0.06,0.06-0.06h-0.06v-0.64h0.13
			c0-0.06-0.06-0.06-0.06-0.13c-0.13-1.22-0.39-2.44-0.71-3.6c-2.38-8.48-7.71-14.08-16.39-16.26c-4.05-0.96-8.16-1.09-12.28-0.45
			c-8.68,1.29-14.91,5.91-17.93,14.14c-2.96,7.84-2.89,16.45,0.06,24.3c2.57,7.13,7.71,11.63,15.1,13.5
			c3.92,0.96,8.03,1.22,12.08,0.64c13.5-1.61,19.09-11.83,19.99-20.7h-0.06v-0.9c-0.06-0.39-0.13-0.71,0.26-0.96v0.13
			c0-0.06,0.06-0.19,0.13-0.26v-7.39C271.98,156.85,271.92,156.85,271.92,156.78z M256.49,169c-0.39,1.35-0.96,2.57-1.8,3.73
			c-1.41,1.99-3.66,3.28-6.11,3.47c-1.22,0.13-2.44,0.13-3.66-0.13c-2.7-0.51-4.95-2.31-6.04-4.82c-0.96-1.99-1.54-4.18-1.74-6.36
			c-0.32-3.79-0.39-7.58,0.51-11.31c0.32-1.48,0.96-2.96,1.74-4.24c1.41-2.31,3.86-3.79,6.56-3.98c1.22-0.13,2.44-0.13,3.66,0.13
			c2.57,0.51,4.69,2.19,5.85,4.56c1.09,2.25,1.74,4.76,1.86,7.26c0.06,1.16,0.13,2.31,0.06,3.47
			C257.58,163.6,257.26,166.36,256.49,169z"/>
		<path class="st2" d="M159.25,113.08h-8.93c-2.44,0-2.89,0.45-2.89,2.89v20.82c0,0.45,0.19,0.9-0.13,1.35
			c-0.58-0.06-0.9-0.45-1.35-0.71c-6.68-3.92-13.69-4.63-20.76-1.35c-4.95,2.31-8.03,6.49-10.03,11.44
			c-1.93,4.76-2.38,9.77-2.25,14.85c0,4.76,1.09,9.45,3.21,13.69c2.44,4.69,5.98,8.29,11.12,9.83c7.01,2.19,13.56,1.09,19.54-3.34
			c0.45-0.26,0.71-0.71,1.29-0.84c0.32,0.71,0.58,1.48,0.71,2.25c0.26,1.03,1.16,1.74,2.25,1.74h1.54c2.31,0,4.56,0.06,6.81,0
			c1.8,0,2.31-0.58,2.38-2.44v-67.74C161.69,113.53,161.17,113.08,159.25,113.08z M147.48,160.38v11.7c0.13,0.77-0.32,1.48-1.03,1.8
			c-3.09,1.74-6.62,2.44-10.09,1.93c-2.96-0.32-5.53-2.12-6.88-4.76c-1.03-2.06-1.61-4.24-1.8-6.49c-0.51-4.05-0.19-8.16,0.77-12.08
			c0.32-1.09,0.71-2.12,1.29-3.15c1.35-2.51,3.92-4.11,6.75-4.31c3.41-0.32,6.81,0.32,9.9,1.74c0.77,0.26,1.22,1.03,1.16,1.86
			C147.42,152.61,147.48,156.46,147.48,160.38L147.48,160.38z"/>
		<path class="st1" d="M248.87,66c4.65,0.87,9.43,0.93,14.09,0.19c2.73-0.37,5.34-1.18,7.76-2.48c2.79-1.61,4.84-3.85,5.71-6.95
			c2.17-7.82-1.18-15.7-9.31-18.61c-3.97-1.3-8.19-1.74-12.35-1.18c-9.8,1.12-16.19,6.52-19.11,15.88
			c-2.05,6.39-1.8,12.91-0.12,19.36c2.17,8.25,7.63,13.15,15.88,14.89c4.72,1.05,9.49,0.87,14.21,0.12
			c2.48-0.43,4.96-1.05,7.32-1.99c1.43-0.56,2.17-1.43,2.11-3.04c-0.06-1.49,0-3.04,0-4.59c0-1.86-0.74-2.42-2.54-1.99
			c-1.8,0.43-3.54,0.81-5.34,1.18c-3.85,0.81-7.82,0.81-11.67,0.12c-5.27-1.05-8.69-5.58-8.38-11.17
			C247.69,65.81,248.31,65.87,248.87,66z M247.32,56.5c0.19-1.49,0.62-2.92,1.18-4.28c1.86-4.53,5.77-6.08,9.74-5.83
			c1.12,0.06,2.23,0.31,3.29,0.74c1.61,0.68,2.67,2.17,2.85,3.91c0.19,1.05,0.12,2.17-0.19,3.23c-0.74,2.23-2.54,3.16-4.72,3.6
			c-1.3,0.31-2.67,0.43-4.03,0.31c-2.42,0-4.9-0.19-7.32-0.56C247.19,57.49,247.19,57.49,247.32,56.5z"/>
		<path class="st2" d="M198.07,165.46c3.73-0.26,7.46-0.96,10.8-2.76c3.41-1.67,5.78-4.82,6.49-8.55c0.45-2.31,0.45-4.76-0.06-7.07
			c-1.35-5.78-5.01-9.38-10.54-11.25c-3.09-0.96-6.36-1.35-9.58-1.22c-10.8,0.26-19.03,5.72-22.37,16.52
			c-2.25,7.13-1.93,14.4,0.26,21.53c2.25,7.33,7.39,11.76,14.72,13.75c3.15,0.77,6.43,1.09,9.64,0.96
			c4.69-0.06,9.38-0.96,13.82-2.64c1.86-0.71,2.31-1.35,2.31-3.34v-4.63c-0.06-1.86-0.84-2.51-2.7-2.06
			c-1.41,0.39-2.76,0.71-4.18,1.03c-4.31,1.03-8.81,1.22-13.18,0.45c-4.37-0.84-7.33-3.34-8.48-7.71c-0.32-1.29-0.58-2.57-0.71-3.92
			c0.32,0,0.64,0,0.9,0.13C189.45,165.46,193.76,165.78,198.07,165.46z M184.63,155.18c0.45-2.51,1.03-4.95,2.57-7.01
			c2.38-3.15,5.66-4.05,9.38-3.66c0.32,0,0.58,0.13,0.9,0.13c4.5,0.71,5.59,4.31,4.76,7.78c-0.64,2.57-2.76,3.54-5.14,3.98
			c-1.29,0.26-2.64,0.39-3.98,0.32c-2.64-0.06-5.21-0.26-7.78-0.64C184.76,156.01,184.5,155.76,184.63,155.18L184.63,155.18z"/>
	</g>
</g>
</svg>
