<svg id="svg" version="1.1" xmlns="http://www.w3.org/2000/svg" xmlns:xlink="http://www.w3.org/1999/xlink" width="400" height="400" viewBox="0, 0, 400,400"><g id="svgg"><path id="path0" d="M55.298 200.300 L 55.400 244.600 66.646 244.706 C 75.708 244.792,77.979 244.707,78.341 244.271 C 78.650 243.899,78.823 239.254,78.895 229.365 L 79.000 215.000 82.216 214.885 C 86.153 214.745,84.566 213.083,96.603 229.945 C 101.843 237.284,106.494 243.629,106.940 244.045 C 107.784 244.831,133.602 245.272,133.599 244.500 C 133.596 243.924,131.324 240.556,128.674 237.200 C 128.413 236.870,127.854 236.064,127.432 235.410 C 127.010 234.756,126.335 233.867,125.932 233.435 C 125.529 233.003,125.200 232.527,125.200 232.379 C 125.200 232.230,124.663 231.499,124.006 230.754 C 123.350 230.009,122.810 229.190,122.806 228.933 C 122.803 228.677,122.644 228.407,122.453 228.333 C 121.803 228.084,109.600 210.684,109.600 210.007 C 109.600 209.636,110.583 208.656,111.784 207.829 C 125.905 198.104,128.401 180.522,117.460 167.849 C 115.744 165.861,110.139 161.200,109.464 161.200 C 109.310 161.200,108.513 160.780,107.692 160.266 C 106.871 159.753,105.840 159.225,105.400 159.093 C 104.960 158.961,103.790 158.550,102.800 158.181 C 97.159 156.074,96.347 156.010,75.098 156.005 L 55.197 156.000 55.298 200.300 M92.271 171.935 C 104.304 178.009,103.152 194.998,90.401 199.494 C 89.575 199.785,86.908 199.990,83.900 199.994 L 78.800 200.000 78.800 185.467 C 78.800 177.473,78.935 170.792,79.100 170.618 C 79.955 169.721,89.844 170.710,92.271 171.935 M153.400 174.202 C 153.180 174.278,151.560 174.782,149.800 175.322 C 138.963 178.644,130.086 187.215,126.516 197.800 C 125.492 200.837,125.221 202.056,124.760 205.683 C 123.267 217.430,128.325 230.051,137.634 237.805 C 140.193 239.938,147.658 244.000,149.016 244.000 C 149.343 244.000,149.923 244.162,150.305 244.360 C 158.291 248.494,174.795 245.210,184.000 237.655 C 187.256 234.982,192.000 229.524,192.000 228.450 C 192.000 228.239,192.135 228.007,192.300 227.933 C 192.711 227.751,194.800 223.381,194.800 222.705 C 194.800 222.405,194.978 221.982,195.196 221.764 C 196.799 220.161,197.640 206.254,196.404 201.800 C 194.214 193.910,191.286 188.727,186.291 183.895 C 184.022 181.701,177.678 177.200,176.853 177.200 C 176.640 177.200,175.955 176.947,175.332 176.637 C 171.018 174.492,168.208 173.996,160.574 174.032 C 156.848 174.049,153.620 174.126,153.400 174.202 M202.000 209.367 C 202.000 228.159,202.109 243.819,202.243 244.167 C 202.578 245.040,224.425 245.134,225.145 244.266 C 225.445 243.904,225.623 239.467,225.694 230.566 C 225.772 220.845,225.922 217.400,226.268 217.400 C 226.525 217.400,232.987 223.565,240.627 231.100 L 254.519 244.800 269.059 244.800 C 277.057 244.800,283.600 244.674,283.600 244.519 C 283.600 244.364,275.548 236.173,265.706 226.315 L 247.812 208.392 262.404 193.796 C 270.430 185.768,277.222 179.200,277.498 179.200 C 277.895 179.200,278.000 183.912,278.000 201.674 C 278.000 224.649,278.063 225.777,279.576 229.800 C 281.181 234.069,284.313 238.270,287.575 240.529 C 289.698 241.998,293.573 243.996,294.305 243.998 C 294.583 243.999,295.123 244.167,295.505 244.372 C 298.296 245.865,308.308 246.432,312.734 245.346 C 315.513 244.665,315.849 244.556,318.800 243.377 C 320.987 242.503,326.835 238.730,328.452 237.149 C 329.099 236.517,329.912 236.000,330.259 236.000 C 330.757 236.000,335.062 239.323,336.000 240.431 C 338.894 243.850,344.984 246.182,345.757 244.167 C 345.891 243.819,346.000 228.157,346.000 209.361 L 346.000 175.188 334.100 175.294 L 322.200 175.400 322.097 197.967 L 321.993 220.533 320.980 221.862 C 315.225 229.407,306.399 229.861,302.758 222.800 L 301.830 221.000 301.689 198.100 L 301.547 175.200 277.076 175.200 L 252.604 175.200 239.548 188.252 C 231.856 195.941,226.308 201.191,226.046 201.028 C 225.733 200.835,225.600 196.938,225.600 187.976 L 225.600 175.200 213.800 175.200 L 202.000 175.200 202.000 209.367 M164.394 191.644 C 176.493 197.950,174.286 227.239,161.590 228.844 C 158.176 229.276,153.092 225.322,151.464 220.967 C 151.060 219.885,150.581 218.640,150.400 218.200 C 148.740 214.161,148.784 203.349,150.468 201.420 C 150.651 201.211,150.800 200.699,150.800 200.282 C 150.800 199.482,151.989 197.094,152.500 196.867 C 152.665 196.793,152.803 196.523,152.806 196.267 C 152.816 195.536,155.098 193.127,156.933 191.909 C 159.058 190.500,161.998 190.395,164.394 191.644 " stroke="none" fill="#fbfafb" fill-rule="evenodd"></path><path id="path1" d="M90.600 18.000 C 90.464 18.220,88.833 18.400,86.976 18.400 C 84.242 18.400,83.600 18.514,83.600 19.000 C 83.600 19.480,83.000 19.600,80.600 19.600 C 78.867 19.600,77.600 19.769,77.600 20.000 C 77.600 20.220,76.784 20.400,75.787 20.400 C 74.545 20.400,73.902 20.589,73.745 21.000 C 73.604 21.367,72.997 21.600,72.181 21.600 C 71.447 21.600,70.736 21.780,70.600 22.000 C 70.464 22.220,69.818 22.400,69.164 22.400 C 68.476 22.400,67.878 22.653,67.745 23.000 C 67.603 23.370,66.995 23.600,66.157 23.600 C 65.411 23.600,64.800 23.780,64.800 24.000 C 64.800 24.220,64.260 24.400,63.600 24.400 C 62.800 24.400,62.400 24.600,62.400 25.000 C 62.400 25.373,62.022 25.600,61.400 25.600 C 60.850 25.600,60.400 25.780,60.400 26.000 C 60.400 26.220,59.950 26.400,59.400 26.400 C 58.778 26.400,58.400 26.627,58.400 27.000 C 58.400 27.373,58.022 27.600,57.400 27.600 C 56.850 27.600,56.400 27.780,56.400 28.000 C 56.400 28.220,56.065 28.400,55.656 28.400 C 55.247 28.400,54.574 28.850,54.161 29.400 C 53.747 29.951,53.004 30.400,52.505 30.400 C 51.967 30.400,51.600 30.643,51.600 31.000 C 51.600 31.330,51.330 31.600,51.000 31.600 C 50.670 31.600,50.400 31.780,50.400 32.000 C 50.400 32.220,49.950 32.400,49.400 32.400 C 48.850 32.400,48.400 32.593,48.400 32.829 C 48.400 33.375,47.385 34.400,46.845 34.400 C 46.618 34.400,45.698 35.120,44.800 36.000 C 43.902 36.880,43.072 37.600,42.955 37.600 C 42.576 37.600,41.600 38.731,41.600 39.171 C 41.600 39.407,41.407 39.600,41.171 39.600 C 40.618 39.600,39.600 40.618,39.600 41.171 C 39.600 41.407,39.407 41.600,39.171 41.600 C 38.618 41.600,37.600 42.618,37.600 43.171 C 37.600 43.407,37.330 43.600,37.000 43.600 C 36.670 43.600,36.400 43.752,36.400 43.939 C 36.400 44.125,35.770 44.926,35.000 45.719 C 34.230 46.512,33.600 47.358,33.600 47.599 C 33.600 47.841,33.150 48.455,32.600 48.965 C 32.050 49.475,31.600 50.096,31.600 50.346 C 31.600 50.596,31.399 50.755,31.153 50.700 C 30.907 50.645,30.647 50.957,30.575 51.393 C 30.503 51.829,30.254 52.249,30.022 52.326 C 29.790 52.403,29.600 52.722,29.600 53.033 C 29.600 53.345,29.423 53.600,29.208 53.600 C 28.992 53.600,28.702 54.050,28.564 54.600 C 28.426 55.150,28.153 55.600,27.957 55.600 C 27.760 55.600,27.600 56.050,27.600 56.600 C 27.600 57.222,27.373 57.600,27.000 57.600 C 26.627 57.600,26.400 57.978,26.400 58.600 C 26.400 59.150,26.220 59.600,26.000 59.600 C 25.780 59.600,25.600 60.050,25.600 60.600 C 25.600 61.222,25.373 61.600,25.000 61.600 C 24.627 61.600,24.400 61.978,24.400 62.600 C 24.400 63.150,24.220 63.600,24.000 63.600 C 23.780 63.600,23.600 64.031,23.600 64.557 C 23.600 65.084,23.330 65.618,23.000 65.745 C 22.649 65.879,22.400 66.479,22.400 67.187 C 22.400 67.854,22.220 68.400,22.000 68.400 C 21.780 68.400,21.600 69.120,21.600 70.000 C 21.600 71.156,21.433 71.600,21.000 71.600 C 20.583 71.600,20.400 72.020,20.400 72.976 C 20.400 73.733,20.220 74.464,20.000 74.600 C 19.780 74.736,19.600 75.627,19.600 76.581 C 19.600 77.753,19.406 78.389,19.000 78.545 C 18.545 78.719,18.400 79.456,18.400 81.587 C 18.400 83.196,18.229 84.400,18.000 84.400 C 17.763 84.400,17.600 85.852,17.600 87.957 C 17.600 90.750,17.471 91.564,17.000 91.745 C 16.086 92.095,16.086 307.905,17.000 308.255 C 17.477 308.439,17.600 309.294,17.600 312.443 C 17.600 314.814,17.760 316.400,18.000 316.400 C 18.222 316.400,18.400 317.471,18.400 318.813 C 18.400 320.588,18.558 321.286,19.000 321.455 C 19.420 321.617,19.600 322.272,19.600 323.643 C 19.600 324.719,19.780 325.600,20.000 325.600 C 20.220 325.600,20.400 326.230,20.400 327.000 C 20.400 327.978,20.581 328.400,21.000 328.400 C 21.433 328.400,21.600 328.844,21.600 330.000 C 21.600 330.880,21.780 331.600,22.000 331.600 C 22.220 331.600,22.400 332.129,22.400 332.776 C 22.400 334.096,23.114 334.787,23.624 333.962 C 23.814 333.653,23.787 333.316,23.560 333.175 C 23.321 333.028,23.410 332.724,23.781 332.416 C 24.469 331.845,24.626 330.400,24.000 330.400 C 23.780 330.400,23.600 330.220,23.600 330.000 C 23.600 329.734,82.533 329.600,199.600 329.600 C 316.667 329.600,375.600 329.734,375.600 330.000 C 375.600 330.220,375.330 330.400,375.000 330.400 C 374.069 330.400,374.293 331.583,375.300 331.988 C 375.795 332.187,375.975 332.361,375.700 332.375 C 374.947 332.413,375.069 334.400,375.824 334.400 C 376.301 334.400,376.419 334.045,376.324 332.900 C 376.256 332.075,375.990 331.400,375.733 331.400 C 375.477 331.400,375.145 331.279,374.997 331.130 C 374.848 330.982,375.008 330.901,375.352 330.952 C 375.696 331.002,376.102 331.169,376.255 331.322 C 377.020 332.087,377.600 331.517,377.600 330.000 C 377.600 329.120,377.780 328.400,378.000 328.400 C 378.220 328.400,378.400 327.789,378.400 327.043 C 378.400 326.205,378.630 325.597,379.000 325.455 C 379.410 325.298,379.600 324.657,379.600 323.436 C 379.600 322.452,379.780 321.536,380.000 321.400 C 380.220 321.264,380.400 319.903,380.400 318.376 C 380.400 316.175,380.524 315.600,381.000 315.600 C 381.493 315.600,381.600 314.889,381.600 311.600 C 381.600 309.200,381.760 307.600,382.000 307.600 C 382.266 307.600,382.400 271.467,382.400 200.000 C 382.400 128.533,382.266 92.400,382.000 92.400 C 381.760 92.400,381.600 90.800,381.600 88.400 C 381.600 85.111,381.493 84.400,381.000 84.400 C 380.524 84.400,380.400 83.822,380.400 81.600 C 380.400 80.060,380.229 78.800,380.021 78.800 C 379.812 78.800,379.587 77.855,379.521 76.700 C 379.439 75.282,379.238 74.632,378.900 74.700 C 378.567 74.767,378.400 74.267,378.400 73.200 C 378.400 72.320,378.220 71.600,378.000 71.600 C 377.780 71.600,377.600 70.880,377.600 70.000 C 377.600 68.844,377.433 68.400,377.000 68.400 C 376.581 68.400,376.400 67.978,376.400 67.000 C 376.400 66.230,376.220 65.600,376.000 65.600 C 375.780 65.600,375.600 65.150,375.600 64.600 C 375.600 63.978,375.373 63.600,375.000 63.600 C 374.627 63.600,374.400 63.222,374.400 62.600 C 374.400 62.050,374.220 61.600,374.000 61.600 C 373.780 61.600,373.600 61.150,373.600 60.600 C 373.600 59.978,373.373 59.600,373.000 59.600 C 372.627 59.600,372.400 59.222,372.400 58.600 C 372.400 58.050,372.220 57.600,372.000 57.600 C 371.780 57.600,371.600 57.150,371.600 56.600 C 371.600 55.978,371.373 55.600,371.000 55.600 C 370.670 55.600,370.400 55.330,370.400 55.000 C 370.400 54.670,370.220 54.400,370.000 54.400 C 369.780 54.400,369.600 53.950,369.600 53.400 C 369.600 52.850,369.407 52.400,369.171 52.400 C 368.466 52.400,367.600 51.314,367.600 50.429 C 367.600 49.959,367.340 49.600,367.000 49.600 C 366.670 49.600,366.400 49.330,366.400 49.000 C 366.400 48.670,366.233 48.400,366.028 48.400 C 365.823 48.400,365.594 47.995,365.518 47.500 C 365.443 47.005,365.160 46.645,364.891 46.700 C 364.621 46.755,364.400 46.530,364.400 46.200 C 364.400 45.870,364.220 45.600,364.000 45.600 C 363.780 45.600,363.600 45.330,363.600 45.000 C 363.600 44.670,363.425 44.400,363.211 44.400 C 362.703 44.400,355.600 37.297,355.600 36.789 C 355.600 36.575,355.330 36.400,355.000 36.400 C 354.670 36.400,354.400 36.220,354.400 36.000 C 354.400 35.780,353.950 35.600,353.400 35.600 C 352.850 35.600,352.400 35.407,352.400 35.171 C 352.400 34.638,351.390 33.600,350.871 33.600 C 350.659 33.600,350.382 33.330,350.255 33.000 C 350.129 32.670,349.737 32.400,349.384 32.400 C 348.655 32.400,347.600 31.471,347.600 30.829 C 347.600 30.593,347.150 30.400,346.600 30.400 C 346.050 30.400,345.600 30.220,345.600 30.000 C 345.600 29.780,345.349 29.600,345.043 29.600 C 344.736 29.600,344.382 29.330,344.255 29.000 C 344.129 28.670,343.659 28.400,343.213 28.400 C 342.766 28.400,342.400 28.220,342.400 28.000 C 342.400 27.780,341.950 27.600,341.400 27.600 C 340.778 27.600,340.400 27.373,340.400 27.000 C 340.400 26.627,340.022 26.400,339.400 26.400 C 338.850 26.400,338.400 26.220,338.400 26.000 C 338.400 25.780,337.969 25.600,337.443 25.600 C 336.916 25.600,336.382 25.330,336.255 25.000 C 336.129 24.670,335.659 24.400,335.213 24.400 C 334.766 24.400,334.400 24.220,334.400 24.000 C 334.400 23.780,333.770 23.600,333.000 23.600 C 332.022 23.600,331.600 23.419,331.600 23.000 C 331.600 22.567,331.156 22.400,330.000 22.400 C 329.120 22.400,328.400 22.220,328.400 22.000 C 328.400 21.780,327.789 21.600,327.043 21.600 C 326.296 21.600,325.596 21.366,325.486 21.081 C 325.375 20.790,324.521 20.517,323.544 20.459 C 322.585 20.403,321.629 20.187,321.420 19.979 C 321.211 19.770,319.816 19.600,318.320 19.600 C 316.169 19.600,315.600 19.475,315.600 19.000 C 315.600 18.511,314.933 18.400,312.000 18.400 C 309.867 18.400,308.400 18.237,308.400 18.000 C 308.400 17.734,271.875 17.600,199.624 17.600 C 127.537 17.600,90.764 17.735,90.600 18.000 M94.200 155.200 C 94.336 155.420,95.482 155.600,96.747 155.600 C 98.150 155.600,99.350 155.829,99.824 156.187 C 100.251 156.510,101.084 156.780,101.676 156.787 C 102.268 156.794,102.864 156.980,103.000 157.200 C 103.136 157.420,103.558 157.600,103.937 157.600 C 104.316 157.600,105.791 158.228,107.213 158.996 C 108.636 159.764,110.115 160.505,110.500 160.643 C 110.885 160.780,111.200 161.052,111.200 161.247 C 111.200 161.441,111.470 161.600,111.800 161.600 C 112.130 161.600,112.400 161.768,112.400 161.973 C 112.400 162.178,112.736 162.453,113.147 162.583 C 114.276 162.941,119.981 168.787,120.251 169.861 C 120.381 170.377,120.624 170.800,120.792 170.800 C 120.959 170.800,121.684 172.015,122.402 173.500 C 123.120 174.985,123.863 176.513,124.054 176.895 C 124.244 177.277,124.400 178.186,124.400 178.915 C 124.400 179.644,124.616 180.456,124.880 180.720 C 125.557 181.397,125.574 189.386,124.900 190.060 C 124.625 190.335,124.400 191.137,124.400 191.843 C 124.400 192.549,123.927 194.088,123.350 195.263 C 122.772 196.438,122.007 198.003,121.650 198.739 C 121.292 199.476,120.415 200.704,119.700 201.468 C 118.985 202.232,118.400 202.972,118.400 203.112 C 118.400 203.469,115.501 206.400,115.147 206.400 C 114.988 206.400,114.196 207.024,113.387 207.786 C 112.579 208.549,111.576 209.281,111.159 209.413 C 110.146 209.734,110.202 210.222,111.400 211.513 C 111.950 212.107,112.400 212.737,112.400 212.913 C 112.400 213.090,112.850 213.720,113.400 214.313 C 113.950 214.907,114.400 215.597,114.400 215.847 C 114.400 216.097,114.666 216.523,114.991 216.792 C 115.625 217.319,120.400 223.882,120.400 224.227 C 120.400 224.341,120.850 224.920,121.400 225.513 C 121.950 226.107,122.400 226.819,122.400 227.096 C 122.400 227.373,122.555 227.600,122.743 227.600 C 122.932 227.600,123.724 228.545,124.503 229.700 C 125.282 230.855,126.203 232.160,126.549 232.600 C 127.563 233.888,129.719 236.879,130.800 238.497 C 131.350 239.321,131.935 239.996,132.100 239.997 C 132.265 239.999,132.400 240.279,132.400 240.619 C 132.400 240.960,132.863 241.667,133.429 242.192 C 134.164 242.873,134.421 243.468,134.329 244.273 L 134.200 245.400 120.233 245.400 C 109.310 245.400,106.230 245.289,106.097 244.893 C 106.005 244.614,105.675 244.132,105.364 243.821 C 105.054 243.511,104.800 243.079,104.800 242.862 C 104.800 242.645,104.657 242.407,104.483 242.333 C 104.309 242.260,103.754 241.525,103.250 240.700 C 102.747 239.875,102.169 239.200,101.967 239.200 C 101.765 239.200,101.600 239.012,101.600 238.783 C 101.600 238.391,101.287 237.938,100.100 236.615 C 99.825 236.308,99.600 235.864,99.600 235.629 C 99.600 235.393,99.448 235.200,99.263 235.200 C 99.078 235.200,98.587 234.570,98.172 233.800 C 97.757 233.030,97.307 232.400,97.172 232.400 C 97.037 232.400,96.587 231.770,96.172 231.000 C 95.757 230.230,95.279 229.600,95.109 229.600 C 94.939 229.600,94.800 229.330,94.800 229.000 C 94.800 228.670,94.649 228.400,94.465 228.400 C 94.281 228.400,93.246 227.095,92.165 225.500 C 91.084 223.905,90.065 222.540,89.900 222.467 C 89.735 222.393,89.600 222.160,89.600 221.949 C 89.600 221.738,89.150 221.080,88.600 220.487 C 88.050 219.893,87.600 219.181,87.600 218.904 C 87.600 218.627,87.465 218.399,87.300 218.397 C 87.135 218.396,86.572 217.766,86.048 216.997 C 85.116 215.629,85.040 215.600,82.348 215.600 L 79.600 215.600 79.600 230.151 C 79.600 242.153,79.502 244.784,79.039 245.168 C 78.379 245.716,54.685 245.619,54.133 245.067 C 53.641 244.574,53.494 157.130,53.983 155.844 L 54.380 154.800 74.166 154.800 C 86.926 154.800,94.041 154.942,94.200 155.200 M79.600 185.600 L 79.600 199.600 83.800 199.600 C 86.333 199.600,88.000 199.441,88.000 199.200 C 88.000 198.980,88.619 198.800,89.376 198.800 C 90.133 198.800,90.861 198.625,90.993 198.411 C 91.126 198.197,91.818 197.744,92.531 197.406 C 94.312 196.561,97.600 193.477,97.600 192.651 C 97.600 192.279,97.870 191.871,98.200 191.745 C 98.530 191.618,98.800 191.084,98.800 190.557 C 98.800 190.031,98.980 189.600,99.200 189.600 C 99.441 189.600,99.600 187.933,99.600 185.400 C 99.600 182.867,99.441 181.200,99.200 181.200 C 98.980 181.200,98.800 180.772,98.800 180.249 C 98.800 179.726,98.530 179.074,98.200 178.800 C 97.870 178.526,97.600 178.108,97.600 177.871 C 97.600 177.284,93.736 173.697,92.775 173.392 C 92.349 173.257,92.000 172.978,92.000 172.773 C 92.000 172.568,91.561 172.400,91.024 172.400 C 90.487 172.400,89.936 172.220,89.800 172.000 C 89.657 171.768,87.463 171.600,84.576 171.600 L 79.600 171.600 79.600 185.600 M167.200 173.200 C 167.200 173.420,167.965 173.606,168.900 173.614 C 169.835 173.622,171.050 173.886,171.600 174.200 C 172.150 174.514,173.005 174.778,173.500 174.786 C 173.995 174.794,174.400 174.980,174.400 175.200 C 174.400 175.420,174.814 175.600,175.320 175.600 C 175.826 175.600,176.411 175.758,176.620 175.951 C 176.829 176.144,178.080 176.887,179.400 177.601 C 183.545 179.843,188.261 183.774,189.955 186.400 C 190.310 186.950,190.938 187.794,191.351 188.276 C 192.272 189.349,192.797 190.261,194.422 193.600 C 195.118 195.030,195.847 196.513,196.044 196.895 C 196.240 197.277,196.400 198.117,196.400 198.761 C 196.400 199.406,196.578 199.993,196.795 200.067 C 197.011 200.140,197.296 201.100,197.426 202.200 C 197.557 203.300,197.841 204.571,198.059 205.025 C 198.846 206.665,197.808 218.752,196.794 219.766 C 196.577 219.983,196.400 220.653,196.400 221.256 C 196.400 221.859,196.220 222.464,196.000 222.600 C 195.780 222.736,195.600 223.184,195.600 223.595 C 195.600 224.006,195.330 224.613,195.000 224.943 C 194.670 225.273,194.400 225.721,194.400 225.939 C 194.400 226.476,193.074 228.967,192.700 229.133 C 192.535 229.207,192.400 229.522,192.400 229.833 C 192.400 230.145,192.232 230.400,192.027 230.400 C 191.822 230.400,191.534 230.779,191.386 231.243 C 191.041 232.332,183.420 239.876,182.309 240.229 C 181.843 240.377,181.126 240.811,180.716 241.193 C 179.680 242.157,174.990 244.400,174.008 244.400 C 173.564 244.400,173.200 244.565,173.200 244.768 C 173.200 245.958,153.379 247.139,152.256 246.016 C 152.027 245.787,151.471 245.599,151.020 245.598 C 150.569 245.596,149.684 245.326,149.054 244.998 C 148.424 244.669,147.494 244.400,146.988 244.400 C 146.481 244.400,146.007 244.265,145.933 244.100 C 145.740 243.665,143.235 242.400,142.568 242.400 C 142.255 242.400,142.000 242.261,142.000 242.091 C 142.000 241.921,141.325 241.426,140.500 240.991 C 137.592 239.459,130.369 232.316,129.640 230.253 C 129.552 230.004,129.372 229.710,129.240 229.600 C 128.875 229.296,128.095 227.957,127.375 226.400 C 127.019 225.630,126.474 224.522,126.164 223.938 C 125.854 223.354,125.600 222.420,125.600 221.862 C 125.600 221.304,125.420 220.736,125.200 220.600 C 124.980 220.464,124.800 219.845,124.800 219.225 C 124.800 218.605,124.530 217.451,124.200 216.662 C 123.351 214.631,123.342 204.094,124.187 202.976 C 124.510 202.549,124.780 201.435,124.787 200.500 C 124.794 199.565,124.980 198.800,125.200 198.800 C 125.420 198.800,125.600 198.282,125.600 197.649 C 125.600 197.016,125.870 196.274,126.200 196.000 C 126.530 195.726,126.800 195.074,126.800 194.551 C 126.800 194.028,126.980 193.600,127.200 193.600 C 127.420 193.600,127.600 193.234,127.600 192.787 C 127.600 192.341,127.870 191.871,128.200 191.745 C 128.530 191.618,128.800 191.174,128.800 190.757 C 128.800 190.341,128.980 190.000,129.200 190.000 C 129.420 190.000,129.600 189.808,129.600 189.573 C 129.600 188.387,137.214 180.303,138.809 179.797 C 139.244 179.659,139.600 179.378,139.600 179.173 C 139.600 178.968,139.870 178.800,140.200 178.800 C 140.530 178.800,140.800 178.623,140.800 178.408 C 140.800 178.192,141.250 177.902,141.800 177.764 C 142.350 177.626,142.800 177.353,142.800 177.157 C 142.800 176.960,143.138 176.800,143.551 176.800 C 143.964 176.800,144.526 176.530,144.800 176.200 C 145.074 175.870,145.625 175.600,146.025 175.600 C 146.425 175.600,146.864 175.420,147.000 175.200 C 147.136 174.980,147.732 174.794,148.324 174.787 C 148.916 174.780,149.749 174.510,150.176 174.187 C 150.604 173.864,151.628 173.600,152.453 173.600 C 153.278 173.600,154.064 173.420,154.200 173.200 C 154.348 172.960,157.004 172.800,160.824 172.800 C 164.808 172.800,167.200 172.950,167.200 173.200 M225.368 173.988 L 226.389 174.376 226.494 187.231 L 226.600 200.086 239.400 187.300 C 246.440 180.267,252.593 174.308,253.074 174.056 C 254.199 173.469,299.837 173.406,301.374 173.990 L 302.400 174.380 302.400 196.966 C 302.400 211.593,302.541 219.640,302.800 219.800 C 303.020 219.936,303.201 220.352,303.202 220.724 C 303.204 221.096,303.474 221.916,303.802 222.546 C 304.131 223.176,304.400 223.896,304.401 224.146 C 304.404 226.112,312.615 227.869,314.000 226.200 C 314.274 225.870,314.836 225.600,315.249 225.600 C 315.662 225.600,316.000 225.420,316.000 225.200 C 316.000 224.980,316.264 224.800,316.586 224.800 C 317.359 224.800,319.272 222.903,320.565 220.856 L 321.600 219.216 321.600 196.888 C 321.600 180.055,321.718 174.442,322.080 174.080 C 322.820 173.340,345.336 173.400,345.953 174.144 C 346.282 174.540,346.377 184.253,346.302 210.044 L 346.200 245.400 344.021 245.524 C 341.059 245.692,340.436 245.479,338.414 243.612 C 337.453 242.726,336.561 242.000,336.432 242.000 C 336.303 242.000,334.946 240.843,333.417 239.430 C 330.425 236.664,330.450 236.668,328.200 238.570 C 327.540 239.128,326.783 239.768,326.517 239.992 C 326.251 240.216,325.929 240.400,325.800 240.400 C 325.672 240.400,325.169 240.771,324.683 241.224 C 323.884 241.969,321.563 243.182,317.540 244.956 C 316.736 245.310,315.712 245.600,315.263 245.600 C 314.814 245.600,314.336 245.780,314.200 246.000 C 313.381 247.325,295.460 246.219,293.820 244.742 C 293.611 244.554,293.112 244.400,292.712 244.400 C 292.312 244.400,291.271 243.950,290.400 243.400 C 289.529 242.850,288.701 242.400,288.561 242.400 C 287.667 242.400,281.600 236.488,281.600 235.617 C 281.600 235.388,281.441 235.200,281.247 235.200 C 281.052 235.200,280.788 234.885,280.658 234.500 C 280.529 234.115,280.259 233.530,280.058 233.200 C 279.857 232.870,279.514 232.150,279.296 231.600 C 279.078 231.050,278.666 230.060,278.381 229.400 C 277.314 226.929,277.085 222.859,276.846 202.067 L 276.600 180.733 263.454 193.865 C 256.223 201.088,250.071 207.335,249.781 207.748 C 249.301 208.433,250.789 210.032,266.850 226.091 C 280.544 239.783,284.418 243.873,284.322 244.541 L 284.200 245.400 269.029 245.505 L 253.859 245.610 246.458 238.305 C 242.387 234.287,236.209 228.169,232.728 224.708 L 226.400 218.416 226.400 231.765 C 226.400 243.569,226.327 245.143,225.767 245.357 C 224.644 245.788,202.405 245.631,201.574 245.186 C 200.818 244.781,200.800 243.966,200.800 209.809 L 200.800 174.845 201.689 174.223 C 202.732 173.492,223.523 173.286,225.368 173.988 M159.000 192.000 C 158.864 192.220,158.451 192.400,158.083 192.400 C 157.280 192.400,153.624 196.203,152.853 197.839 C 152.553 198.478,152.160 199.293,151.981 199.651 C 151.801 200.009,151.532 200.954,151.383 201.751 C 151.233 202.548,150.951 203.200,150.755 203.200 C 150.291 203.200,150.291 215.885,150.755 216.172 C 150.950 216.293,151.232 217.045,151.382 217.845 C 151.635 219.192,151.985 220.075,152.874 221.600 C 153.066 221.930,153.329 222.515,153.458 222.900 C 153.588 223.285,153.852 223.600,154.047 223.600 C 154.241 223.600,154.400 223.766,154.400 223.969 C 154.400 224.556,156.803 226.800,157.431 226.800 C 157.744 226.800,158.000 226.980,158.000 227.200 C 158.000 227.915,163.112 227.674,164.314 226.903 C 166.445 225.536,169.600 221.472,169.600 220.095 C 169.600 219.657,169.870 219.074,170.200 218.800 C 170.542 218.516,170.800 217.644,170.800 216.775 C 170.800 215.935,170.980 215.136,171.200 215.000 C 171.699 214.691,171.741 204.534,171.244 204.227 C 171.049 204.106,170.801 203.421,170.694 202.704 C 170.488 201.315,169.563 198.733,169.154 198.400 C 169.019 198.290,168.781 197.795,168.627 197.300 C 168.472 196.805,168.178 196.400,167.973 196.400 C 167.768 196.400,167.600 196.220,167.600 196.000 C 167.600 195.268,164.413 192.400,163.600 192.400 C 163.160 192.400,162.800 192.220,162.800 192.000 C 162.800 191.780,162.001 191.600,161.024 191.600 C 160.047 191.600,159.136 191.780,159.000 192.000 M374.893 335.600 C 374.476 336.267,374.493 336.400,374.997 336.400 C 375.333 336.400,375.600 336.046,375.600 335.600 C 375.600 335.160,375.553 334.800,375.496 334.800 C 375.439 334.800,375.168 335.160,374.893 335.600 M23.600 335.771 C 23.600 336.117,23.780 336.400,24.000 336.400 C 24.220 336.400,24.400 336.850,24.400 337.400 C 24.400 337.950,24.555 338.400,24.745 338.400 C 25.238 338.400,24.772 336.315,24.136 335.678 C 23.688 335.231,23.600 335.246,23.600 335.771 M25.900 340.265 C 26.175 340.376,26.400 340.902,26.400 341.433 C 26.400 341.965,26.580 342.400,26.800 342.400 C 27.295 342.400,27.295 342.303,26.810 341.026 C 26.595 340.462,26.190 340.014,25.910 340.032 C 25.509 340.056,25.507 340.106,25.900 340.265 M369.607 346.001 C 369.317 346.550,368.882 347.132,368.640 347.294 C 368.369 347.475,368.468 347.590,368.900 347.594 C 369.285 347.597,369.600 347.345,369.600 347.033 C 369.600 346.722,369.807 346.398,370.060 346.313 C 370.313 346.229,370.433 345.899,370.327 345.581 C 370.188 345.163,369.988 345.279,369.607 346.001 M29.614 347.100 C 29.606 347.375,29.760 347.600,29.957 347.600 C 30.153 347.600,30.426 348.050,30.564 348.600 C 30.789 349.496,31.603 350.047,31.598 349.300 C 31.594 348.764,29.629 346.584,29.614 347.100 M364.450 353.130 C 363.433 354.559,363.619 354.786,364.860 353.630 C 365.315 353.206,365.612 352.635,365.520 352.360 C 365.421 352.064,364.986 352.378,364.450 353.130 M33.609 352.729 C 33.600 353.286,34.729 354.604,34.992 354.342 C 35.076 354.257,34.802 353.741,34.382 353.194 C 33.961 352.647,33.614 352.438,33.609 352.729 M353.200 364.400 C 352.657 364.810,352.346 365.279,352.510 365.444 C 352.674 365.608,353.185 365.338,353.644 364.844 C 354.104 364.351,354.415 363.881,354.334 363.801 C 354.254 363.721,353.743 363.990,353.200 364.400 " stroke="none" fill="#6c3d94" fill-rule="evenodd"></path><path id="path2" d="M54.652 156.100 C 54.133 158.036,54.374 243.811,54.900 244.530 C 55.355 245.152,56.461 245.203,67.200 245.106 L 79.000 245.000 79.105 230.100 L 79.210 215.200 82.305 215.203 L 85.400 215.205 93.000 225.860 C 97.180 231.720,100.780 236.715,101.000 236.960 C 101.220 237.204,102.295 238.724,103.389 240.337 C 104.483 241.950,105.813 243.704,106.344 244.235 L 107.309 245.200 120.631 245.200 C 127.958 245.200,134.044 245.052,134.156 244.871 C 134.358 244.544,133.403 242.407,132.877 242.009 C 132.724 241.894,131.976 240.900,131.214 239.800 C 130.452 238.700,129.597 237.562,129.314 237.271 C 129.031 236.981,128.800 236.610,128.800 236.447 C 128.800 236.284,128.471 235.797,128.068 235.365 C 127.665 234.933,126.990 234.044,126.568 233.390 C 126.146 232.736,125.582 231.930,125.316 231.600 C 125.049 231.270,123.299 228.840,121.425 226.200 C 119.552 223.560,117.877 221.220,117.702 221.000 C 116.189 219.091,110.000 210.290,110.000 210.046 C 110.000 209.874,110.995 209.047,112.212 208.209 C 118.083 204.166,123.103 196.850,124.376 190.480 C 126.966 177.529,118.788 163.889,105.200 158.496 C 104.650 158.278,103.660 157.872,103.000 157.594 C 98.412 155.661,93.329 155.255,73.347 155.226 L 54.893 155.200 54.652 156.100 M98.000 156.759 C 99.650 157.171,101.810 157.811,102.800 158.181 C 103.790 158.550,104.960 158.961,105.400 159.093 C 105.840 159.225,106.871 159.753,107.692 160.266 C 108.513 160.780,109.310 161.200,109.464 161.200 C 109.619 161.200,111.057 162.205,112.660 163.433 C 123.947 172.078,127.263 184.555,121.511 196.738 C 119.581 200.826,115.963 204.951,111.784 207.829 C 110.583 208.656,109.600 209.636,109.600 210.007 C 109.600 210.684,121.803 228.084,122.453 228.333 C 122.644 228.407,122.803 228.677,122.806 228.933 C 122.810 229.190,123.350 230.009,124.006 230.754 C 124.663 231.499,125.200 232.230,125.200 232.379 C 125.200 232.527,125.529 233.003,125.932 233.435 C 126.335 233.867,127.010 234.756,127.432 235.410 C 127.854 236.064,128.413 236.870,128.674 237.200 C 131.324 240.556,133.596 243.924,133.599 244.500 C 133.602 245.272,107.784 244.831,106.940 244.045 C 106.494 243.629,101.843 237.284,96.603 229.945 C 84.566 213.083,86.153 214.745,82.216 214.885 L 79.000 215.000 78.895 229.365 C 78.823 239.254,78.650 243.899,78.341 244.271 C 77.979 244.707,75.708 244.792,66.646 244.706 L 55.400 244.600 55.298 200.300 L 55.197 156.000 75.098 156.005 C 93.208 156.009,95.270 156.077,98.000 156.759 M79.100 170.618 C 78.935 170.792,78.800 177.473,78.800 185.467 C 78.800 193.460,78.935 200.000,79.100 200.000 C 79.265 200.000,79.400 193.475,79.400 185.500 L 79.400 171.000 84.400 171.078 C 91.182 171.184,96.264 173.738,98.245 178.036 C 99.843 181.503,100.000 182.173,100.000 185.525 C 100.000 192.094,96.000 197.194,89.246 199.234 C 88.281 199.525,87.717 199.839,87.992 199.931 C 90.634 200.811,97.464 195.631,99.502 191.200 C 102.732 184.179,99.508 175.588,92.271 171.935 C 89.844 170.710,79.955 169.721,79.100 170.618 M154.000 173.650 C 151.845 174.087,149.301 174.771,148.200 175.211 C 141.086 178.052,134.696 182.709,131.600 187.309 C 131.050 188.126,130.465 188.796,130.300 188.797 C 130.135 188.799,130.000 189.057,130.000 189.371 C 130.000 189.686,129.755 190.188,129.455 190.487 C 128.638 191.305,125.996 196.973,126.027 197.842 C 126.049 198.455,126.138 198.409,126.495 197.600 C 128.690 192.623,129.492 191.093,131.043 188.919 C 138.194 178.898,147.034 174.397,160.200 174.073 C 164.571 173.966,167.375 173.758,166.800 173.583 C 165.406 173.160,156.182 173.208,154.000 173.650 M170.000 174.641 C 172.419 175.336,173.622 175.787,175.332 176.637 C 175.955 176.947,176.640 177.200,176.853 177.200 C 177.678 177.200,184.022 181.701,186.291 183.895 C 191.286 188.727,194.214 193.910,196.404 201.800 C 197.640 206.254,196.799 220.161,195.196 221.764 C 194.978 221.982,194.800 222.405,194.800 222.705 C 194.800 223.381,192.711 227.751,192.300 227.933 C 192.135 228.007,192.000 228.239,192.000 228.450 C 192.000 229.524,187.256 234.982,184.000 237.655 C 174.795 245.210,158.291 248.494,150.305 244.360 C 149.923 244.162,149.343 244.000,149.016 244.000 C 147.658 244.000,140.193 239.938,137.634 237.805 C 126.613 228.624,122.514 215.464,125.797 199.800 C 126.023 198.721,125.998 198.681,125.549 199.399 C 123.729 202.310,123.750 215.500,125.582 220.800 C 126.434 223.266,126.637 223.755,127.812 226.200 C 132.326 235.585,140.410 241.979,152.400 245.649 C 155.546 246.612,166.685 246.372,170.594 245.257 C 181.151 242.246,190.812 234.004,194.573 224.800 C 194.978 223.810,195.554 222.433,195.854 221.740 C 196.154 221.046,196.400 220.200,196.400 219.858 C 196.400 219.517,196.563 218.824,196.762 218.319 C 201.623 205.998,191.949 183.509,179.400 177.956 C 178.960 177.761,178.330 177.436,178.000 177.233 C 175.781 175.870,171.710 174.452,169.200 174.167 C 168.220 174.056,168.460 174.198,170.000 174.641 M202.098 174.731 C 201.700 174.984,201.617 182.309,201.698 210.025 L 201.800 245.000 213.800 245.000 L 225.800 245.000 226.000 231.600 C 226.110 224.230,226.313 218.200,226.452 218.200 C 226.590 218.200,232.915 224.275,240.507 231.700 L 254.309 245.200 269.155 245.200 C 282.194 245.200,284.000 245.126,284.000 244.590 C 284.000 244.254,276.080 236.053,266.400 226.364 C 256.720 216.675,248.800 208.605,248.800 208.431 C 248.800 207.877,276.498 180.400,277.057 180.400 C 277.497 180.400,277.612 184.351,277.700 202.500 L 277.807 224.600 277.903 201.900 C 277.980 183.906,277.896 179.200,277.498 179.200 C 277.222 179.200,270.430 185.768,262.404 193.796 L 247.812 208.392 265.706 226.315 C 275.548 236.173,283.600 244.364,283.600 244.519 C 283.600 244.674,277.057 244.800,269.059 244.800 L 254.519 244.800 240.627 231.100 C 232.987 223.565,226.525 217.400,226.268 217.400 C 225.922 217.400,225.772 220.845,225.694 230.566 C 225.623 239.467,225.445 243.904,225.145 244.266 C 224.425 245.134,202.578 245.040,202.243 244.167 C 202.109 243.819,202.000 228.159,202.000 209.367 L 202.000 175.200 213.800 175.200 L 225.600 175.200 225.600 187.976 C 225.600 196.938,225.733 200.835,226.046 201.028 C 226.308 201.191,231.856 195.941,239.548 188.252 L 252.604 175.200 277.076 175.200 L 301.547 175.200 301.689 198.100 L 301.830 221.000 302.758 222.800 C 305.360 227.845,310.768 229.196,316.367 226.198 C 318.372 225.125,322.000 221.113,322.000 219.969 C 322.000 219.664,321.525 220.114,320.943 220.969 C 316.536 227.455,307.791 229.259,304.300 224.402 C 303.695 223.561,303.200 222.532,303.200 222.116 C 303.200 221.700,302.975 221.135,302.700 220.860 C 302.315 220.475,302.172 215.139,302.079 197.583 L 301.958 174.805 301.079 174.589 C 300.595 174.470,289.490 174.424,276.400 174.486 L 252.600 174.600 239.537 187.686 C 230.142 197.098,226.408 200.598,226.237 200.153 C 226.107 199.813,226.000 193.989,226.000 187.210 C 226.000 176.341,225.925 174.857,225.367 174.643 C 224.420 174.279,202.679 174.362,202.098 174.731 M322.267 174.667 C 322.120 174.813,322.000 175.038,322.000 175.167 C 322.000 175.295,327.400 175.350,334.000 175.289 L 346.000 175.177 346.000 209.356 C 346.000 228.154,345.891 243.819,345.757 244.167 C 344.984 246.182,338.894 243.850,336.000 240.431 C 335.062 239.323,330.757 236.000,330.259 236.000 C 329.912 236.000,329.099 236.517,328.452 237.149 C 326.835 238.730,320.987 242.503,318.800 243.377 C 315.849 244.556,315.513 244.665,312.734 245.346 C 308.308 246.432,298.296 245.865,295.505 244.372 C 295.123 244.167,294.583 243.999,294.305 243.998 C 294.027 243.998,292.810 243.501,291.600 242.895 C 284.629 239.401,280.832 234.675,278.669 226.800 C 278.091 224.695,278.063 224.664,278.032 226.076 C 278.015 226.888,278.180 227.664,278.400 227.800 C 278.620 227.936,278.800 228.407,278.800 228.846 C 278.800 230.757,282.034 236.094,284.831 238.800 C 288.357 242.211,291.857 244.062,297.800 245.662 C 300.489 246.386,312.945 246.416,313.660 245.700 C 313.935 245.425,314.592 245.200,315.121 245.200 C 317.352 245.200,325.542 240.598,328.921 237.446 C 330.247 236.208,330.412 236.186,331.425 237.100 C 331.851 237.485,333.460 238.880,335.000 240.200 C 336.540 241.520,337.890 242.693,338.000 242.806 C 340.318 245.199,345.487 246.315,346.157 244.567 C 346.660 243.258,346.429 175.389,345.920 174.880 C 345.399 174.359,322.778 174.155,322.267 174.667 M156.933 191.909 C 155.098 193.127,152.816 195.536,152.806 196.267 C 152.803 196.523,152.665 196.793,152.500 196.867 C 151.989 197.094,150.800 199.482,150.800 200.282 C 150.800 200.699,150.651 201.211,150.468 201.420 C 148.784 203.349,148.740 214.161,150.400 218.200 C 150.581 218.640,151.060 219.885,151.464 220.967 C 153.092 225.322,158.176 229.276,161.590 228.844 C 168.115 228.019,173.854 216.651,172.418 207.400 C 172.156 205.717,172.096 206.096,172.036 209.800 C 171.993 212.447,171.735 214.837,171.388 215.800 C 171.071 216.680,170.809 217.794,170.806 218.276 C 170.803 218.758,170.634 219.255,170.431 219.381 C 170.228 219.506,169.943 220.147,169.799 220.805 C 169.655 221.462,169.371 222.000,169.168 222.000 C 168.966 222.000,168.800 222.238,168.800 222.528 C 168.800 223.326,166.176 226.226,164.538 227.238 C 156.740 232.058,148.285 219.892,149.988 206.304 C 151.897 191.083,163.612 185.970,169.344 197.856 C 169.754 198.705,170.249 199.713,170.444 200.095 C 170.640 200.477,170.800 201.231,170.800 201.771 C 170.800 202.311,170.980 202.864,171.200 203.000 C 171.420 203.136,171.621 203.732,171.646 204.324 C 171.681 205.115,171.745 205.197,171.889 204.634 C 171.996 204.212,171.862 203.132,171.591 202.234 C 168.754 192.826,162.350 188.316,156.933 191.909 M54.400 368.311 C 54.400 368.928,55.663 370.408,56.007 370.195 C 56.201 370.076,56.554 370.341,56.792 370.785 C 57.029 371.229,57.357 371.549,57.520 371.496 C 57.682 371.443,58.262 371.817,58.808 372.327 C 59.353 372.838,60.295 373.355,60.900 373.477 C 61.505 373.600,62.000 373.858,62.000 374.050 C 62.000 374.243,62.382 374.400,62.849 374.400 C 63.497 374.400,63.597 374.522,63.270 374.916 C 62.934 375.320,63.151 375.440,64.269 375.470 C 65.054 375.491,65.830 375.724,65.993 375.988 C 66.156 376.252,66.404 376.453,66.545 376.434 C 67.881 376.255,68.800 376.486,68.800 377.000 C 68.800 377.540,69.732 377.802,71.070 377.637 C 71.328 377.605,71.654 377.764,71.793 377.989 C 71.933 378.215,72.631 378.400,73.344 378.400 C 74.057 378.400,74.847 378.607,75.100 378.860 C 75.589 379.349,78.141 379.927,81.328 380.272 C 82.389 380.387,83.336 380.688,83.433 380.941 C 83.545 381.232,85.105 381.449,87.705 381.535 C 89.957 381.609,91.860 381.834,91.933 382.035 C 92.103 382.500,306.673 382.528,306.961 382.064 C 307.075 381.878,308.301 381.685,309.684 381.633 C 313.272 381.498,314.441 381.319,314.930 380.830 C 315.167 380.593,316.393 380.400,317.656 380.400 C 318.919 380.400,320.064 380.220,320.200 380.000 C 320.336 379.780,321.054 379.600,321.795 379.600 C 322.536 379.600,323.427 379.316,323.775 378.968 C 324.123 378.620,324.631 378.417,324.904 378.516 C 325.177 378.615,326.007 378.449,326.749 378.148 C 327.491 377.847,328.441 377.600,328.861 377.600 C 329.281 377.600,329.729 377.330,329.855 377.000 C 329.985 376.662,330.581 376.400,331.219 376.400 C 331.843 376.400,332.464 376.220,332.600 376.000 C 332.967 375.406,334.100 375.502,333.777 376.100 C 333.628 376.375,333.953 376.105,334.500 375.500 C 335.046 374.895,335.669 374.400,335.885 374.400 C 336.458 374.400,338.745 373.212,339.016 372.775 C 339.143 372.569,339.570 372.400,339.964 372.400 C 340.358 372.400,341.094 371.860,341.600 371.200 C 342.106 370.540,342.847 370.000,343.247 370.000 C 343.730 370.000,343.897 369.798,343.745 369.400 C 343.584 368.980,343.775 368.800,344.381 368.800 C 344.857 368.800,345.136 368.620,345.000 368.400 C 344.703 367.919,54.400 367.830,54.400 368.311 " stroke="none" fill="#9a79b7" fill-rule="evenodd"></path><path id="path3" d="M64.300 155.100 C 69.415 155.163,77.785 155.163,82.900 155.100 C 88.015 155.036,83.830 154.985,73.600 154.985 C 63.370 154.985,59.185 155.036,64.300 155.100 M54.243 156.233 C 53.617 157.864,53.986 243.829,54.622 244.624 C 55.222 245.372,55.229 245.368,54.817 244.517 C 54.520 243.902,54.422 230.220,54.495 199.617 C 54.553 175.407,54.574 155.600,54.543 155.600 C 54.511 155.600,54.376 155.885,54.243 156.233 M81.312 171.095 C 82.364 171.177,83.984 171.176,84.912 171.092 C 85.840 171.008,84.980 170.941,83.000 170.942 C 81.020 170.943,80.260 171.012,81.312 171.095 M158.300 173.096 C 159.675 173.174,161.925 173.174,163.300 173.096 C 164.675 173.018,163.550 172.954,160.800 172.954 C 158.050 172.954,156.925 173.018,158.300 173.096 M202.261 174.300 C 202.159 174.465,205.433 174.554,209.538 174.498 C 223.614 174.304,224.988 174.169,213.724 174.084 C 207.522 174.038,202.363 174.135,202.261 174.300 M265.300 174.300 C 271.845 174.361,282.555 174.361,289.100 174.300 C 295.645 174.238,290.290 174.188,277.200 174.188 C 264.110 174.188,258.755 174.238,265.300 174.300 M322.261 174.300 C 322.159 174.465,327.299 174.550,333.682 174.488 C 342.643 174.402,345.439 174.493,345.945 174.888 C 346.529 175.344,346.540 175.324,346.051 174.700 C 345.471 173.961,322.709 173.578,322.261 174.300 M201.391 209.800 C 201.391 228.940,201.440 236.829,201.500 227.330 C 201.560 217.832,201.560 202.172,201.500 192.530 C 201.440 182.889,201.391 190.660,201.391 209.800 M226.178 187.600 C 226.178 194.530,226.233 197.365,226.299 193.900 C 226.366 190.435,226.366 184.765,226.299 181.300 C 226.233 177.835,226.178 180.670,226.178 187.600 M302.186 196.600 C 302.187 208.480,302.238 213.282,302.300 207.272 C 302.362 201.261,302.362 191.541,302.300 185.672 C 302.237 179.802,302.186 184.720,302.186 196.600 M321.787 197.400 C 321.787 209.720,321.838 214.818,321.900 208.728 C 321.962 202.639,321.962 192.559,321.900 186.328 C 321.838 180.098,321.787 185.080,321.787 197.400 M277.386 201.800 C 277.387 213.680,277.438 218.482,277.500 212.472 C 277.562 206.461,277.562 196.741,277.500 190.872 C 277.437 185.002,277.386 189.920,277.386 201.800 M124.940 185.200 C 124.940 187.070,125.009 187.835,125.093 186.900 C 125.177 185.965,125.177 184.435,125.093 183.500 C 125.009 182.565,124.940 183.330,124.940 185.200 M81.500 199.895 C 82.655 199.976,84.545 199.976,85.700 199.895 C 86.855 199.814,85.910 199.748,83.600 199.748 C 81.290 199.748,80.345 199.814,81.500 199.895 M116.400 204.600 C 115.428 205.590,114.723 206.400,114.833 206.400 C 114.943 206.400,115.828 205.590,116.800 204.600 C 117.772 203.610,118.477 202.800,118.367 202.800 C 118.257 202.800,117.372 203.610,116.400 204.600 M197.568 206.300 C 197.759 207.681,197.787 207.709,197.919 206.651 C 197.998 206.019,197.905 205.345,197.712 205.152 C 197.510 204.950,197.449 205.440,197.568 206.300 M171.714 207.000 C 171.717 208.100,171.795 208.503,171.887 207.895 C 171.979 207.286,171.977 206.386,171.882 205.895 C 171.787 205.403,171.711 205.900,171.714 207.000 M123.731 209.800 C 123.733 211.340,123.805 211.921,123.892 211.091 C 123.979 210.261,123.977 209.001,123.889 208.291 C 123.800 207.581,123.729 208.260,123.731 209.800 M149.709 209.600 C 149.709 210.590,149.787 210.995,149.882 210.500 C 149.978 210.005,149.978 209.195,149.882 208.700 C 149.787 208.205,149.709 208.610,149.709 209.600 M110.133 209.831 C 109.995 210.190,110.207 210.751,110.623 211.131 C 111.311 211.759,111.324 211.758,110.833 211.105 C 110.546 210.723,110.415 210.138,110.543 209.805 C 110.670 209.472,110.685 209.200,110.575 209.200 C 110.465 209.200,110.266 209.484,110.133 209.831 M171.714 212.600 C 171.717 213.700,171.795 214.103,171.887 213.495 C 171.979 212.886,171.977 211.986,171.882 211.495 C 171.787 211.003,171.711 211.500,171.714 212.600 M226.000 231.680 C 225.890 239.095,225.938 245.023,226.106 244.855 C 226.274 244.687,226.363 238.620,226.305 231.374 L 226.199 218.200 226.000 231.680 M37.030 353.563 C 37.120 353.653,37.003 353.955,36.771 354.235 C 36.459 354.611,36.564 354.860,37.174 355.186 C 37.628 355.429,38.000 355.970,38.000 356.387 C 38.000 356.805,38.360 357.260,38.800 357.400 C 39.240 357.540,39.600 357.917,39.600 358.240 C 39.600 358.562,39.870 358.929,40.200 359.055 C 40.530 359.182,40.800 359.459,40.800 359.671 C 40.800 359.884,41.070 360.327,41.400 360.657 C 41.730 360.987,42.000 361.169,42.000 361.062 C 42.000 360.955,42.594 361.437,43.321 362.133 C 44.047 362.830,45.389 364.001,46.302 364.736 C 47.214 365.471,48.375 366.413,48.881 366.829 C 50.523 368.180,51.788 369.018,53.000 369.559 C 53.440 369.755,54.233 370.294,54.761 370.758 C 55.290 371.221,55.965 371.600,56.261 371.600 C 56.558 371.600,56.800 371.780,56.800 372.000 C 56.800 372.220,57.175 372.400,57.633 372.400 C 58.131 372.400,58.393 372.199,58.283 371.900 C 58.182 371.625,57.903 371.443,57.662 371.496 C 57.421 371.549,57.029 371.229,56.792 370.785 C 56.554 370.341,56.201 370.076,56.007 370.195 C 55.663 370.408,54.400 368.928,54.400 368.311 C 54.400 367.830,344.703 367.919,345.000 368.400 C 345.136 368.620,344.857 368.800,344.381 368.800 C 343.775 368.800,343.584 368.980,343.745 369.400 C 343.893 369.787,343.736 370.000,343.300 370.000 C 342.245 370.000,340.519 372.157,341.426 372.341 C 341.809 372.419,342.284 372.194,342.481 371.841 C 342.678 371.488,343.101 371.200,343.420 371.200 C 343.739 371.200,344.000 371.020,344.000 370.800 C 344.000 370.580,344.360 370.400,344.800 370.400 C 345.240 370.400,345.600 370.220,345.600 370.000 C 345.600 369.780,345.827 369.600,346.104 369.600 C 346.381 369.600,347.089 369.154,347.677 368.609 C 348.265 368.064,348.973 367.569,349.251 367.509 C 349.530 367.449,350.127 367.027,350.579 366.570 C 351.030 366.114,352.406 364.928,353.635 363.936 C 356.702 361.459,358.400 359.797,358.400 359.271 C 358.400 359.027,358.751 358.641,359.179 358.411 C 359.608 358.182,360.271 357.465,360.652 356.819 C 361.034 356.172,361.481 355.727,361.646 355.828 C 361.810 355.930,362.058 355.830,362.196 355.607 C 362.334 355.383,362.235 355.200,361.975 355.200 C 361.622 355.200,361.629 355.047,362.000 354.600 C 362.371 354.153,362.378 354.000,362.025 354.000 C 361.765 354.000,361.636 353.865,361.738 353.700 C 361.840 353.535,288.786 353.400,199.395 353.400 C 110.004 353.400,36.940 353.473,37.030 353.563 M58.613 372.779 C 58.489 372.979,58.765 373.262,59.224 373.408 C 60.342 373.763,60.546 373.484,59.600 372.893 C 59.166 372.622,58.740 372.573,58.613 372.779 M338.985 372.825 C 338.840 373.058,338.245 373.447,337.661 373.688 C 336.752 374.063,336.708 374.151,337.352 374.302 C 337.766 374.399,338.216 374.302,338.352 374.086 C 338.488 373.869,338.945 373.627,339.367 373.546 C 339.789 373.466,340.209 373.175,340.300 372.900 C 340.502 372.293,339.354 372.227,338.985 372.825 M60.800 374.000 C 60.800 374.220,61.070 374.400,61.400 374.400 C 61.730 374.400,62.000 374.220,62.000 374.000 C 62.000 373.780,61.730 373.600,61.400 373.600 C 61.070 373.600,60.800 373.780,60.800 374.000 M334.884 375.015 C 334.448 375.510,334.506 375.579,335.263 375.463 C 335.755 375.388,336.227 375.118,336.312 374.863 C 336.531 374.207,335.501 374.316,334.884 375.015 M67.692 376.875 C 67.939 377.617,68.800 377.740,68.800 377.033 C 68.800 376.685,68.515 376.400,68.167 376.400 C 67.818 376.400,67.605 376.614,67.692 376.875 M329.838 377.045 C 329.657 377.516,329.762 377.624,330.228 377.445 C 330.579 377.310,330.941 377.200,331.033 377.200 C 331.125 377.200,331.200 377.020,331.200 376.800 C 331.200 376.148,330.107 376.345,329.838 377.045 M327.200 378.000 C 326.715 378.314,326.772 378.389,327.500 378.394 C 327.995 378.397,328.400 378.220,328.400 378.000 C 328.400 377.499,327.976 377.499,327.200 378.000 M73.600 378.757 C 73.600 379.170,74.574 379.600,75.509 379.600 C 76.041 379.600,76.017 379.498,75.376 379.013 C 74.500 378.350,73.600 378.221,73.600 378.757 M323.684 379.015 C 323.143 379.629,323.500 379.767,324.567 379.357 C 324.915 379.224,325.200 378.954,325.200 378.757 C 325.200 378.204,324.258 378.364,323.684 379.015 M77.800 380.000 C 77.936 380.220,78.442 380.397,78.924 380.394 C 79.636 380.389,79.688 380.315,79.200 380.000 C 78.412 379.491,77.485 379.491,77.800 380.000 M314.623 381.033 C 313.974 381.507,313.954 381.600,314.500 381.600 C 314.859 381.600,315.271 381.408,315.416 381.173 C 315.840 380.487,315.461 380.420,314.623 381.033 M90.800 382.000 C 90.800 382.220,91.070 382.400,91.400 382.400 C 91.730 382.400,92.000 382.220,92.000 382.000 C 92.000 381.780,91.730 381.600,91.400 381.600 C 91.070 381.600,90.800 381.780,90.800 382.000 " stroke="none" fill="#8861a9" fill-rule="evenodd"></path><path id="path4" d="M53.990 155.826 C 53.743 156.476,53.635 172.803,53.696 200.326 L 53.793 243.800 53.996 199.961 C 54.165 163.615,54.294 156.010,54.749 155.461 C 55.118 155.016,55.148 154.800,54.839 154.800 C 54.587 154.800,54.205 155.262,53.990 155.826 M92.000 154.955 C 92.000 155.040,92.530 155.187,93.179 155.282 C 93.827 155.377,94.267 155.308,94.155 155.128 C 93.957 154.807,92.000 154.650,92.000 154.955 M98.200 155.885 C 98.640 155.991,99.171 156.240,99.380 156.439 C 99.589 156.637,99.949 156.794,100.180 156.787 C 100.411 156.780,100.251 156.510,99.824 156.187 C 99.396 155.864,98.676 155.621,98.224 155.646 C 97.420 155.692,97.420 155.697,98.200 155.885 M104.946 158.202 C 106.405 158.963,106.775 158.968,105.776 158.213 C 105.349 157.890,104.730 157.621,104.400 157.615 C 104.070 157.610,104.316 157.874,104.946 158.202 M118.016 167.045 C 118.034 167.436,120.400 170.309,120.400 169.940 C 120.400 169.813,119.860 169.031,119.200 168.200 C 118.540 167.369,118.007 166.850,118.016 167.045 M79.295 185.500 L 79.389 199.800 79.500 185.712 L 79.610 171.625 84.505 171.499 L 89.400 171.373 84.300 171.286 L 79.200 171.200 79.295 185.500 M92.033 172.921 C 92.125 172.988,92.740 173.358,93.400 173.745 L 94.600 174.447 93.656 173.624 C 93.136 173.171,92.521 172.800,92.289 172.800 C 92.057 172.800,91.942 172.854,92.033 172.921 M154.200 173.200 C 153.908 173.673,154.299 173.673,155.400 173.200 C 156.171 172.869,156.169 172.855,155.324 172.828 C 154.842 172.813,154.336 172.980,154.200 173.200 M150.176 174.222 C 149.412 174.834,149.413 174.838,150.200 174.476 C 150.640 174.274,151.270 174.008,151.600 173.886 C 152.118 173.693,152.115 173.659,151.576 173.632 C 151.234 173.614,150.604 173.880,150.176 174.222 M170.546 174.202 C 171.176 174.531,171.896 174.794,172.146 174.786 C 172.800 174.765,170.717 173.631,170.000 173.617 C 169.670 173.610,169.916 173.874,170.546 174.202 M201.689 174.223 L 200.800 174.845 200.800 209.799 C 200.800 229.024,200.935 244.836,201.100 244.938 C 201.265 245.040,201.352 229.453,201.293 210.301 C 201.194 177.921,201.235 175.424,201.871 174.722 C 202.805 173.690,225.354 173.763,226.009 174.800 C 226.270 175.214,226.390 175.242,226.394 174.890 C 226.411 173.454,203.664 172.840,201.689 174.223 M252.700 174.229 C 251.206 175.039,251.295 175.378,252.798 174.601 C 254.571 173.684,301.423 173.873,302.009 174.800 C 302.270 175.214,302.390 175.242,302.394 174.890 C 302.411 173.443,255.304 172.816,252.700 174.229 M322.080 174.080 C 321.816 174.344,321.605 174.749,321.612 174.980 C 321.619 175.211,321.808 175.085,322.032 174.700 C 322.558 173.797,345.003 173.610,346.001 174.500 C 346.478 174.925,346.482 174.896,346.032 174.300 C 345.362 173.415,322.951 173.209,322.080 174.080 M94.813 174.700 C 94.819 174.865,95.314 175.346,95.913 175.768 L 97.000 176.536 96.030 175.468 C 95.011 174.346,94.792 174.207,94.813 174.700 M123.259 175.800 C 123.241 176.240,123.490 176.949,123.813 177.376 C 124.136 177.804,124.400 177.975,124.400 177.756 C 124.400 177.538,124.237 177.189,124.039 176.980 C 123.840 176.771,123.591 176.240,123.485 175.800 L 123.293 175.000 123.259 175.800 M181.600 178.946 C 181.600 179.056,182.140 179.530,182.800 180.000 C 183.460 180.470,184.000 180.764,184.000 180.654 C 184.000 180.544,183.460 180.070,182.800 179.600 C 182.140 179.130,181.600 178.836,181.600 178.946 M275.762 181.300 L 275.000 182.200 275.900 181.438 L 276.800 180.676 276.806 201.838 C 276.810 216.332,276.948 223.189,277.244 223.600 C 277.603 224.099,277.635 224.077,277.438 223.467 C 277.307 223.064,277.200 213.209,277.200 201.567 C 277.200 189.925,277.048 180.400,276.862 180.400 C 276.676 180.400,276.181 180.805,275.762 181.300 M184.434 181.061 C 184.452 181.247,185.176 182.009,186.042 182.754 C 186.908 183.498,187.507 183.858,187.373 183.554 C 187.074 182.870,184.387 180.591,184.434 181.061 M99.724 185.400 C 99.726 186.720,99.801 187.212,99.890 186.493 C 99.979 185.774,99.977 184.694,99.886 184.093 C 99.795 183.492,99.722 184.080,99.724 185.400 M125.320 185.600 C 125.320 186.810,125.395 187.305,125.487 186.700 C 125.578 186.095,125.578 185.105,125.487 184.500 C 125.395 183.895,125.320 184.390,125.320 185.600 M188.000 184.311 C 188.000 184.516,188.450 185.169,189.000 185.762 C 189.550 186.356,190.000 186.723,190.000 186.578 C 190.000 186.434,189.550 185.781,189.000 185.127 C 188.450 184.473,188.000 184.106,188.000 184.311 M131.437 186.600 C 131.076 187.150,130.966 187.600,131.191 187.600 C 131.416 187.600,131.600 187.433,131.600 187.229 C 131.600 187.024,131.883 186.574,132.229 186.229 C 132.574 185.883,132.685 185.600,132.475 185.600 C 132.264 185.600,131.797 186.050,131.437 186.600 M193.239 191.776 C 193.701 192.559,194.156 193.200,194.250 193.200 C 194.534 193.200,193.236 190.869,192.802 190.601 C 192.580 190.464,192.777 190.993,193.239 191.776 M158.624 191.813 C 158.196 192.136,158.025 192.400,158.244 192.400 C 158.462 192.400,158.811 192.232,159.020 192.027 C 159.229 191.821,160.120 191.582,161.000 191.494 L 162.600 191.334 161.000 191.280 C 160.120 191.250,159.051 191.490,158.624 191.813 M155.552 193.907 C 154.785 194.728,153.899 195.760,153.585 196.200 C 153.270 196.640,153.951 196.021,155.097 194.825 C 156.244 193.628,157.130 192.596,157.065 192.532 C 157.001 192.467,156.320 193.086,155.552 193.907 M94.808 195.852 C 94.263 196.373,93.956 196.800,94.125 196.800 C 94.542 196.800,96.186 195.248,95.971 195.056 C 95.877 194.973,95.354 195.331,94.808 195.852 M195.259 195.800 C 195.241 196.240,195.490 196.949,195.813 197.376 C 196.136 197.804,196.400 197.975,196.400 197.756 C 196.400 197.538,196.237 197.189,196.039 196.980 C 195.840 196.771,195.591 196.240,195.485 195.800 L 195.293 195.000 195.259 195.800 M197.267 203.020 C 197.230 203.911,197.396 204.836,197.636 205.076 C 197.916 205.356,198.023 207.153,197.936 210.119 C 197.861 212.654,197.932 214.519,198.094 214.264 C 198.524 213.585,198.465 205.426,198.027 204.980 C 197.821 204.771,197.582 203.880,197.494 203.000 L 197.334 201.400 197.267 203.020 M124.014 203.174 C 123.786 203.599,123.625 204.724,123.656 205.674 L 123.713 207.400 123.963 205.400 C 124.101 204.300,124.357 203.175,124.531 202.900 C 124.705 202.625,124.753 202.400,124.638 202.400 C 124.522 202.400,124.242 202.748,124.014 203.174 M116.581 204.900 L 115.000 206.600 116.700 205.019 C 118.281 203.548,118.584 203.200,118.281 203.200 C 118.216 203.200,117.451 203.965,116.581 204.900 M150.144 210.000 C 150.144 212.090,150.212 212.945,150.294 211.900 C 150.376 210.855,150.376 209.145,150.294 208.100 C 150.212 207.055,150.144 207.910,150.144 210.000 M249.711 207.300 C 249.499 207.575,249.217 207.991,249.085 208.225 C 248.954 208.458,256.846 216.647,266.623 226.423 C 276.400 236.198,284.400 244.071,284.400 243.917 C 284.400 243.764,276.492 235.732,266.828 226.068 C 249.934 209.177,249.278 208.466,249.850 207.649 C 250.482 206.747,250.365 206.454,249.711 207.300 M123.668 213.800 C 123.650 214.680,123.901 215.940,124.224 216.600 C 124.547 217.260,124.701 217.440,124.564 217.000 C 124.428 216.560,124.178 215.300,124.008 214.200 C 123.706 212.242,123.699 212.234,123.668 213.800 M79.388 215.700 C 79.285 215.975,79.156 222.680,79.101 230.600 L 79.000 245.000 67.000 245.209 L 55.000 245.418 66.820 245.509 C 75.584 245.576,78.764 245.476,79.120 245.120 C 79.476 244.764,79.600 240.884,79.600 230.138 L 79.600 215.637 82.300 215.497 L 85.000 215.357 82.287 215.278 C 80.423 215.224,79.517 215.356,79.388 215.700 M197.301 216.600 C 197.305 217.480,197.387 217.793,197.483 217.295 C 197.579 216.798,197.575 216.078,197.475 215.695 C 197.375 215.313,197.296 215.720,197.301 216.600 M115.919 218.397 C 116.293 219.056,116.747 219.596,116.927 219.597 C 117.107 219.599,116.870 219.060,116.400 218.400 C 115.302 216.858,115.042 216.857,115.919 218.397 M303.215 222.000 C 303.221 222.330,303.490 222.949,303.813 223.376 C 304.568 224.375,304.563 224.005,303.802 222.546 C 303.474 221.916,303.210 221.670,303.215 222.000 M125.602 222.424 C 125.601 222.766,125.864 223.396,126.187 223.824 C 126.951 224.834,126.959 224.396,126.202 222.946 C 125.874 222.316,125.604 222.081,125.602 222.424 M167.600 223.600 C 167.130 224.260,166.893 224.799,167.073 224.797 C 167.253 224.796,167.707 224.256,168.081 223.597 C 168.958 222.057,168.698 222.058,167.600 223.600 M91.600 224.800 C 92.070 225.460,92.544 226.000,92.654 226.000 C 92.764 226.000,92.470 225.460,92.000 224.800 C 91.530 224.140,91.056 223.600,90.946 223.600 C 90.836 223.600,91.130 224.140,91.600 224.800 M305.800 225.765 C 306.460 226.332,307.165 226.797,307.367 226.798 C 307.801 226.800,307.796 226.796,306.000 225.637 L 304.600 224.734 305.800 225.765 M93.437 227.400 C 93.797 227.950,94.157 228.400,94.237 228.400 C 94.317 228.400,94.178 227.950,93.927 227.400 C 93.677 226.850,93.316 226.400,93.127 226.400 C 92.937 226.400,93.076 226.850,93.437 227.400 M277.632 227.000 C 277.630 227.440,277.886 228.250,278.200 228.800 C 278.930 230.078,278.934 229.804,278.212 227.800 C 277.895 226.920,277.634 226.560,277.632 227.000 M159.700 227.887 C 160.305 227.978,161.295 227.978,161.900 227.887 C 162.505 227.795,162.010 227.720,160.800 227.720 C 159.590 227.720,159.095 227.795,159.700 227.887 M246.381 238.104 C 250.221 241.991,253.419 245.115,253.488 245.046 C 253.624 244.909,241.880 233.090,240.344 231.818 C 239.825 231.388,242.542 234.216,246.381 238.104 M127.200 234.000 C 128.298 235.542,128.558 235.543,127.681 234.003 C 127.307 233.344,126.853 232.804,126.673 232.803 C 126.493 232.801,126.730 233.340,127.200 234.000 M134.400 236.200 C 135.372 237.190,136.301 238.000,136.464 238.000 C 136.628 238.000,135.941 237.190,134.936 236.200 C 133.932 235.210,133.003 234.400,132.872 234.400 C 132.741 234.400,133.428 235.210,134.400 236.200 M129.199 236.700 C 129.722 237.415,130.213 238.000,130.289 238.000 C 130.593 238.000,129.601 236.500,128.945 235.967 C 128.513 235.616,128.610 235.896,129.199 236.700 M282.400 236.702 C 282.400 237.170,285.455 240.400,285.899 240.400 C 286.046 240.400,285.364 239.548,284.383 238.507 C 283.402 237.467,282.555 236.537,282.500 236.441 C 282.445 236.345,282.400 236.462,282.400 236.702 M329.170 237.463 L 328.200 238.527 329.500 237.588 C 330.852 236.612,331.025 236.400,330.470 236.400 C 330.288 236.400,329.703 236.879,329.170 237.463 M183.000 239.450 C 182.281 240.062,182.134 240.305,182.633 240.057 C 183.366 239.693,184.741 238.376,184.349 238.414 C 184.267 238.422,183.660 238.888,183.000 239.450 M333.600 239.484 C 333.600 239.823,336.196 242.000,336.599 242.000 C 336.809 242.000,335.783 241.011,334.100 239.590 C 333.825 239.358,333.600 239.311,333.600 239.484 M120.600 245.200 L 107.000 245.416 120.476 245.508 C 129.130 245.567,134.041 245.457,134.200 245.200 C 134.336 244.980,134.392 244.841,134.324 244.892 C 134.256 244.943,128.080 245.081,120.600 245.200 M269.000 245.200 L 253.800 245.414 268.876 245.507 C 278.597 245.567,284.041 245.458,284.200 245.200 C 284.336 244.980,284.392 244.842,284.324 244.893 C 284.256 244.944,277.360 245.082,269.000 245.200 M343.400 245.200 L 340.600 245.459 343.276 245.529 C 344.748 245.568,346.064 245.420,346.200 245.200 C 346.336 244.980,346.392 244.832,346.324 244.871 C 346.256 244.909,344.940 245.058,343.400 245.200 M168.800 245.859 C 167.323 246.453,168.226 246.365,170.800 245.663 C 171.889 245.367,171.978 245.283,171.200 245.289 C 170.650 245.292,169.570 245.549,168.800 245.859 M207.925 245.499 C 211.293 245.566,216.693 245.566,219.925 245.499 C 223.156 245.432,220.400 245.377,213.800 245.377 C 207.200 245.377,204.556 245.432,207.925 245.499 M296.600 245.778 C 297.480 246.113,298.560 246.372,299.000 246.353 C 299.454 246.333,299.195 246.153,298.400 245.937 C 295.827 245.236,294.983 245.161,296.600 245.778 M23.600 330.000 C 23.600 330.220,23.780 330.400,24.000 330.400 C 24.628 330.400,24.468 331.662,23.738 332.469 C 23.374 332.871,23.259 333.200,23.483 333.200 C 23.706 333.200,23.808 333.622,23.710 334.137 C 23.608 334.671,23.804 335.347,24.165 335.708 C 24.514 336.057,24.806 336.671,24.813 337.071 C 24.820 337.472,25.084 338.142,25.400 338.559 C 25.716 338.976,25.891 339.452,25.789 339.617 C 25.688 339.782,25.838 340.006,26.124 340.116 C 26.410 340.225,26.899 341.099,27.210 342.057 C 27.521 343.016,28.017 344.048,28.311 344.352 C 28.605 344.655,28.751 345.150,28.636 345.452 C 28.520 345.753,28.644 346.004,28.913 346.009 C 29.453 346.018,31.600 348.869,31.600 349.576 C 31.600 349.823,31.880 350.133,32.223 350.264 C 32.566 350.396,32.748 350.759,32.628 351.072 C 32.507 351.385,32.565 351.545,32.756 351.427 C 32.946 351.310,33.549 351.885,34.094 352.707 C 35.303 354.526,38.828 358.400,39.276 358.400 C 39.933 358.400,39.574 357.646,38.800 357.400 C 38.360 357.260,38.000 356.805,38.000 356.387 C 38.000 355.970,37.628 355.429,37.174 355.186 C 36.564 354.860,36.459 354.611,36.771 354.235 C 37.003 353.955,37.120 353.653,37.030 353.563 C 36.940 353.473,110.004 353.400,199.395 353.400 C 288.786 353.400,361.840 353.535,361.738 353.700 C 361.636 353.865,361.765 354.000,362.025 354.000 C 362.378 354.000,362.371 354.153,362.000 354.600 C 361.629 355.047,361.622 355.200,361.975 355.200 C 362.235 355.200,362.334 355.383,362.196 355.607 C 362.058 355.830,361.804 355.926,361.633 355.820 C 361.461 355.714,361.086 356.065,360.800 356.600 C 360.514 357.135,360.099 357.461,359.878 357.325 C 359.657 357.188,359.599 357.275,359.749 357.518 C 359.900 357.761,359.657 358.155,359.211 358.394 C 358.283 358.891,358.132 359.600,358.953 359.600 C 359.258 359.600,359.604 359.227,359.724 358.770 C 359.843 358.314,360.314 357.843,360.770 357.724 C 361.227 357.604,361.600 357.273,361.600 356.987 C 361.600 356.701,361.746 356.407,361.925 356.333 C 362.104 356.260,363.035 355.120,363.994 353.800 C 364.953 352.480,366.243 350.907,366.860 350.305 C 367.477 349.703,368.096 348.758,368.234 348.205 C 368.373 347.652,368.606 347.200,368.752 347.200 C 368.899 347.200,369.372 346.525,369.805 345.700 C 370.238 344.875,370.774 344.072,370.996 343.915 C 371.218 343.758,371.423 343.443,371.450 343.215 C 371.478 342.987,371.523 342.609,371.550 342.376 C 371.578 342.143,371.808 342.081,372.062 342.238 C 372.321 342.399,372.416 342.349,372.278 342.126 C 372.143 341.907,372.375 341.089,372.793 340.308 C 373.212 339.527,373.470 338.804,373.368 338.701 C 373.265 338.598,373.455 338.286,373.790 338.008 C 374.126 337.730,374.400 337.200,374.400 336.831 C 374.400 336.462,374.617 335.943,374.882 335.678 C 375.147 335.413,375.321 334.567,375.269 333.798 C 375.208 332.889,375.354 332.391,375.687 332.375 C 375.969 332.361,375.795 332.187,375.300 331.988 C 374.293 331.583,374.069 330.400,375.000 330.400 C 375.330 330.400,375.600 330.220,375.600 330.000 C 375.600 329.734,316.667 329.600,199.600 329.600 C 82.533 329.600,23.600 329.734,23.600 330.000 " stroke="none" fill="#7d51a4" fill-rule="evenodd"></path></g></svg>