<svg id="svg" version="1.1" xmlns="http://www.w3.org/2000/svg" xmlns:xlink="http://www.w3.org/1999/xlink" width="400" height="225" viewBox="0, 0, 400,225"><g id="svgg"><path id="path0" d="M83.646 84.460 C 78.352 85.490,76.516 87.553,76.305 92.708 C 76.068 98.504,77.078 100.008,83.750 103.799 C 89.523 107.079,89.817 107.393,89.942 110.417 C 90.041 112.802,89.684 113.634,88.466 113.863 C 86.575 114.217,86.172 113.507,86.072 109.647 L 85.995 106.667 81.227 106.667 L 76.458 106.667 76.458 108.391 C 76.458 116.680,79.482 119.479,88.438 119.479 C 96.813 119.479,99.796 117.039,99.789 110.195 C 99.781 103.691,98.530 102.008,90.575 97.801 C 86.350 95.567,85.665 94.735,85.884 92.102 C 86.045 90.161,87.714 89.153,88.864 90.303 C 89.339 90.778,89.375 90.963,89.375 92.907 L 89.375 95.000 94.191 95.000 L 99.008 95.000 98.901 92.344 C 98.736 88.195,98.058 86.951,95.264 85.667 C 92.337 84.321,87.133 83.781,83.646 84.460 M199.792 84.386 C 194.009 85.391,191.851 88.201,192.134 94.361 C 192.335 98.737,193.500 100.283,198.958 103.416 C 205.300 107.056,205.610 107.350,205.926 110.020 C 206.196 112.305,205.514 113.693,204.023 113.893 C 202.350 114.117,201.900 113.089,201.884 109.010 L 201.875 106.667 197.051 106.667 L 192.227 106.667 192.361 109.313 C 192.761 117.200,196.201 119.921,205.265 119.520 C 213.224 119.168,216.324 116.041,215.736 108.958 C 215.266 103.302,213.966 101.776,206.060 97.604 C 202.251 95.594,201.285 94.290,201.754 91.789 C 202.377 88.464,205.163 89.297,205.360 92.868 L 205.477 95.000 210.239 95.000 L 215.000 95.000 214.998 94.010 C 214.988 88.154,213.508 86.049,208.438 84.682 C 206.940 84.278,201.487 84.091,199.792 84.386 M309.078 84.374 C 304.184 85.258,301.450 87.784,300.843 91.984 C 300.573 93.852,300.569 110.283,300.838 112.143 C 301.796 118.769,312.000 122.292,316.335 117.494 C 317.259 116.471,317.154 116.447,317.708 117.813 L 318.173 118.958 321.507 118.958 L 324.840 118.958 324.715 118.490 C 324.646 118.232,324.588 114.107,324.586 109.323 L 324.583 100.625 318.542 100.625 L 312.500 100.625 312.500 103.229 L 312.500 105.833 313.542 105.833 L 314.583 105.833 314.583 109.010 C 314.583 113.243,313.957 114.478,312.136 113.837 C 310.941 113.417,310.938 113.387,310.938 101.762 C 310.938 90.106,310.928 90.193,312.175 89.880 C 313.794 89.474,314.229 90.342,314.339 94.194 L 314.427 97.292 319.532 97.292 L 324.637 97.292 324.531 94.427 C 324.347 89.460,323.342 87.587,319.896 85.795 C 317.288 84.439,312.326 83.787,309.078 84.374 M147.708 101.875 L 147.708 118.958 152.188 118.958 L 156.667 118.958 156.696 117.656 C 156.712 116.940,156.783 111.998,156.852 106.674 L 156.979 96.994 158.841 107.976 L 160.703 118.958 163.893 118.958 C 165.648 118.958,167.083 118.888,167.083 118.802 C 167.083 118.217,170.473 97.102,170.620 96.771 C 170.731 96.521,170.811 100.885,170.819 107.656 L 170.833 118.958 175.313 118.958 L 179.792 118.958 179.792 101.875 L 179.792 84.792 173.021 84.792 C 168.960 84.792,166.250 84.870,166.250 84.986 C 166.250 85.235,164.220 98.818,164.037 99.792 L 163.901 100.521 163.737 99.896 C 163.647 99.552,163.032 96.013,162.371 92.031 L 161.168 84.792 154.438 84.792 L 147.708 84.792 147.708 101.875 M227.959 98.906 L 228.021 113.021 228.575 114.203 C 231.916 121.331,247.070 121.573,250.764 114.558 L 251.354 113.438 251.414 99.115 L 251.475 84.792 246.362 84.792 L 241.250 84.792 241.249 98.385 C 241.247 114.244,241.232 114.365,239.292 113.878 C 238.217 113.608,238.233 113.828,238.170 98.802 L 238.111 84.792 233.004 84.792 L 227.898 84.792 227.959 98.906 M264.583 101.875 L 264.583 118.958 268.854 118.958 L 273.125 118.958 273.125 111.342 C 273.125 107.153,273.195 103.769,273.281 103.823 C 273.367 103.877,274.609 107.302,276.042 111.436 L 278.646 118.951 283.177 118.955 L 287.708 118.958 287.708 101.875 L 287.708 84.792 283.440 84.792 L 279.172 84.792 279.117 92.436 L 279.063 100.081 276.163 92.436 L 273.263 84.792 268.923 84.792 L 264.583 84.792 264.583 101.875 M115.340 85.677 C 115.188 86.516,110.208 118.911,110.208 119.063 C 110.208 119.124,112.620 119.149,115.567 119.118 L 120.925 119.063 121.288 115.729 C 121.996 109.232,122.900 100.075,123.041 97.969 C 123.219 95.317,123.438 95.238,123.624 97.760 C 123.868 101.085,125.476 115.300,125.957 118.385 L 126.078 119.167 131.436 119.167 L 136.793 119.167 133.928 102.760 C 132.351 93.737,131.006 86.049,130.938 85.677 L 130.814 85.000 123.139 85.000 L 115.463 85.000 115.340 85.677 " stroke="none" fill="#fbfbfb" fill-rule="evenodd"></path><path id="path1" d="M267.813 42.222 C 267.125 42.255,264.125 42.381,261.146 42.503 C 156.028 46.812,37.216 88.708,27.495 124.896 C 16.855 164.503,135.907 174.117,254.506 143.229 C 278.722 136.923,309.847 126.050,322.433 119.501 L 323.438 118.978 320.720 118.968 L 318.003 118.958 317.620 117.830 L 317.236 116.702 316.230 117.708 C 311.973 121.966,302.873 119.364,300.927 113.333 C 300.102 110.776,300.281 92.739,301.161 89.798 C 303.057 83.457,316.388 81.913,322.223 87.359 C 324.108 89.118,324.792 91.314,324.792 95.613 L 324.792 97.500 319.479 97.500 L 314.167 97.500 314.167 94.634 C 314.167 90.652,313.945 90.010,312.567 90.003 C 311.017 89.996,310.997 90.168,311.080 102.843 C 311.155 114.255,311.089 113.835,312.781 113.708 C 314.210 113.600,314.392 113.130,314.529 109.196 L 314.646 105.833 313.573 105.833 L 312.500 105.833 312.500 103.122 L 312.500 100.410 318.594 100.466 L 324.688 100.521 324.742 109.427 C 324.772 114.326,324.843 118.333,324.900 118.333 C 325.178 118.333,333.868 113.874,337.083 112.082 C 396.004 79.237,381.532 48.296,304.688 42.818 C 295.753 42.181,275.525 41.854,267.813 42.222 M90.842 84.260 C 97.086 85.202,99.167 87.451,99.167 93.258 L 99.167 95.208 94.271 95.208 L 89.375 95.208 89.375 93.488 C 89.375 90.717,89.052 90.009,87.783 90.003 C 86.587 89.997,86.167 90.575,86.077 92.348 C 85.942 95.025,86.187 95.313,90.637 97.715 C 98.884 102.166,100.232 104.096,99.943 111.033 C 99.773 115.120,99.018 116.552,96.271 117.995 C 89.361 121.626,78.668 119.464,77.011 114.101 C 76.684 113.043,76.269 109.337,76.255 107.344 L 76.250 106.667 81.250 106.667 L 86.250 106.667 86.250 109.466 C 86.250 113.218,86.461 113.741,87.978 113.747 C 89.585 113.753,90.236 112.324,89.850 109.637 C 89.514 107.300,89.268 107.075,83.305 103.661 C 76.822 99.950,75.271 97.202,76.223 91.114 C 77.079 85.635,82.646 83.025,90.842 84.260 M208.374 84.566 C 213.499 85.880,215.000 87.821,215.000 93.135 L 215.000 95.208 210.127 95.208 L 205.254 95.208 205.175 92.897 C 205.089 90.361,204.908 90.000,203.727 90.000 C 202.425 90.000,201.875 90.768,201.875 92.590 C 201.875 94.987,202.301 95.440,206.875 97.913 C 214.598 102.087,215.734 103.666,215.724 110.208 C 215.713 117.158,212.664 119.676,204.271 119.671 C 195.646 119.665,192.307 116.721,192.295 109.115 L 192.292 106.667 197.188 106.667 L 202.083 106.667 202.083 109.324 C 202.083 113.208,202.298 113.741,203.870 113.747 C 205.431 113.753,206.033 112.451,205.739 109.704 C 205.493 107.408,205.141 107.101,198.089 103.021 C 192.363 99.708,190.688 95.731,192.419 89.561 C 193.673 85.091,201.215 82.730,208.374 84.566 M161.328 85.156 C 161.387 85.357,161.979 88.802,162.644 92.813 C 163.309 96.823,163.884 99.917,163.921 99.688 C 163.959 99.458,164.474 96.036,165.067 92.083 L 166.146 84.896 173.073 84.841 L 180.000 84.786 180.000 101.872 L 180.000 118.958 175.314 118.958 L 170.629 118.958 170.575 108.281 L 170.521 97.604 168.854 108.281 L 167.188 118.957 163.910 118.958 C 160.684 118.958,160.631 118.951,160.518 118.490 C 160.455 118.232,159.619 113.427,158.659 107.813 L 156.915 97.604 156.895 108.281 L 156.875 118.958 152.188 118.958 L 147.500 118.958 147.500 101.875 L 147.500 84.792 154.361 84.792 C 160.716 84.792,161.230 84.819,161.328 85.156 M238.336 98.698 C 238.340 114.222,238.288 113.646,239.688 113.646 C 241.087 113.646,241.035 114.222,241.039 98.698 L 241.042 84.792 246.364 84.792 L 251.686 84.792 251.624 98.911 L 251.563 113.030 250.889 114.398 C 247.359 121.566,231.920 121.619,228.562 114.475 C 227.817 112.891,227.712 110.780,227.710 97.448 L 227.708 84.792 233.021 84.792 L 238.333 84.792 238.336 98.698 M276.135 92.076 L 278.854 99.255 278.909 92.024 L 278.964 84.792 283.440 84.792 L 287.917 84.792 287.917 101.875 L 287.917 118.958 283.252 118.958 L 278.587 118.958 277.833 116.823 C 277.418 115.648,276.240 112.297,275.215 109.375 L 273.353 104.063 273.343 111.510 L 273.333 118.958 268.854 118.958 L 264.375 118.958 264.375 101.871 L 264.375 84.784 268.896 84.840 L 273.417 84.896 276.135 92.076 M133.831 101.510 C 135.414 110.591,136.758 118.279,136.818 118.594 L 136.927 119.167 131.416 119.167 L 125.906 119.167 125.443 115.469 C 124.749 109.930,123.789 101.389,123.626 99.311 C 123.419 96.671,123.235 97.270,122.838 101.875 C 122.517 105.584,121.421 116.151,121.135 118.281 L 121.016 119.167 115.486 119.167 C 111.150 119.167,109.976 119.110,110.049 118.906 C 110.101 118.763,111.303 111.076,112.721 101.823 L 115.300 85.000 123.127 85.000 L 130.953 85.000 133.831 101.510 " stroke="none" fill="#0c248c" fill-rule="evenodd"></path><path id="path2" d="M88.385 84.102 C 88.586 84.154,88.914 84.154,89.115 84.102 C 89.315 84.050,89.151 84.007,88.750 84.007 C 88.349 84.007,88.185 84.050,88.385 84.102 M147.599 101.875 C 147.599 111.328,147.625 115.195,147.656 110.469 C 147.687 105.742,147.687 98.008,147.656 93.281 C 147.625 88.555,147.599 92.422,147.599 101.875 M179.891 101.875 C 179.891 111.328,179.917 115.195,179.948 110.469 C 179.979 105.742,179.979 98.008,179.948 93.281 C 179.917 88.555,179.891 92.422,179.891 101.875 M264.474 101.875 C 264.474 111.328,264.500 115.195,264.531 110.469 C 264.562 105.742,264.562 98.008,264.531 93.281 C 264.500 88.555,264.474 92.422,264.474 101.875 M278.911 92.104 C 278.880 96.125,278.923 99.524,279.007 99.656 C 279.091 99.788,279.162 96.497,279.163 92.344 C 279.165 88.190,279.122 84.792,279.068 84.792 C 279.013 84.792,278.943 88.082,278.911 92.104 M123.277 97.001 C 123.193 97.084,123.125 97.297,123.125 97.472 C 123.125 97.707,123.187 97.730,123.357 97.560 C 123.484 97.432,123.553 97.220,123.509 97.089 C 123.465 96.957,123.360 96.917,123.277 97.001 M315.469 100.572 C 317.159 100.607,319.924 100.607,321.615 100.572 C 323.305 100.537,321.922 100.509,318.542 100.509 C 315.161 100.509,313.779 100.537,315.469 100.572 M76.315 107.813 C 76.316 108.500,76.355 108.756,76.401 108.382 C 76.447 108.007,76.446 107.445,76.399 107.132 C 76.351 106.819,76.313 107.125,76.315 107.813 M227.757 110.208 C 227.757 110.609,227.800 110.773,227.852 110.573 C 227.904 110.372,227.904 110.044,227.852 109.844 C 227.800 109.643,227.757 109.807,227.757 110.208 " stroke="none" fill="#6673b3" fill-rule="evenodd"></path><path id="path3" d="M227.805 95.729 C 227.805 101.802,227.832 104.256,227.864 101.183 C 227.897 98.110,227.897 93.141,227.864 90.142 C 227.832 87.142,227.805 89.656,227.805 95.729 M251.556 97.604 C 251.556 104.708,251.582 107.645,251.614 104.130 C 251.646 100.614,251.646 94.802,251.614 91.213 C 251.583 87.624,251.556 90.500,251.556 97.604 M287.808 101.875 C 287.808 111.328,287.833 115.195,287.865 110.469 C 287.896 105.742,287.896 98.008,287.865 93.281 C 287.833 88.555,287.808 92.422,287.808 101.875 M98.958 93.434 L 98.958 94.992 94.115 95.052 L 89.271 95.112 94.219 95.160 L 99.167 95.208 99.167 93.542 C 99.167 92.625,99.120 91.875,99.063 91.875 C 99.005 91.875,98.958 92.576,98.958 93.434 M205.250 93.490 L 205.208 95.208 210.156 95.160 L 215.104 95.112 210.269 95.052 L 205.434 94.992 205.363 93.382 L 205.292 91.771 205.250 93.490 M310.929 101.875 C 310.929 107.089,310.956 109.221,310.989 106.615 C 311.022 104.008,311.022 99.742,310.989 97.135 C 310.956 94.529,310.929 96.661,310.929 101.875 M324.652 95.938 C 324.653 96.740,324.690 97.042,324.735 96.610 C 324.780 96.178,324.780 95.521,324.734 95.152 C 324.688 94.782,324.651 95.135,324.652 95.938 M123.125 96.146 C 123.125 96.318,123.219 96.458,123.333 96.458 C 123.448 96.458,123.542 96.318,123.542 96.146 C 123.542 95.974,123.448 95.833,123.333 95.833 C 123.219 95.833,123.125 95.974,123.125 96.146 M170.595 96.719 C 170.554 96.862,170.569 101.948,170.628 108.021 L 170.735 119.063 170.784 107.760 C 170.829 97.343,170.806 95.980,170.595 96.719 M324.679 109.479 C 324.679 114.406,324.706 116.392,324.739 113.892 C 324.773 111.392,324.773 107.361,324.739 104.934 C 324.706 102.507,324.679 104.552,324.679 109.479 M273.125 111.354 C 273.125 115.575,273.170 118.983,273.224 118.929 C 273.364 118.789,273.379 103.934,273.239 103.795 C 273.176 103.732,273.125 107.134,273.125 111.354 M201.955 109.167 C 201.955 110.599,201.989 111.185,202.029 110.469 C 202.070 109.753,202.070 108.581,202.029 107.865 C 201.989 107.148,201.955 107.734,201.955 109.167 M99.864 110.208 C 99.864 111.182,99.900 111.581,99.944 111.094 C 99.988 110.607,99.988 109.810,99.944 109.323 C 99.900 108.836,99.864 109.234,99.864 110.208 M205.886 110.938 C 205.888 111.396,205.931 111.559,205.981 111.300 C 206.031 111.041,206.029 110.666,205.976 110.466 C 205.924 110.267,205.884 110.479,205.886 110.938 M238.173 111.458 C 238.173 111.859,238.216 112.023,238.269 111.823 C 238.321 111.622,238.321 111.294,238.269 111.094 C 238.216 110.893,238.173 111.057,238.173 111.458 M156.746 116.563 C 156.747 117.938,156.780 118.473,156.821 117.752 C 156.862 117.032,156.862 115.907,156.820 115.252 C 156.779 114.598,156.746 115.188,156.746 116.563 " stroke="none" fill="#949ccc" fill-rule="evenodd"></path><path id="path4" d="M87.034 84.106 C 87.293 84.156,87.668 84.154,87.867 84.101 C 88.066 84.049,87.854 84.009,87.396 84.011 C 86.938 84.013,86.775 84.056,87.034 84.106 M203.075 84.106 C 203.334 84.156,203.709 84.154,203.909 84.101 C 204.108 84.049,203.896 84.009,203.438 84.011 C 202.979 84.013,202.816 84.056,203.075 84.106 M311.927 84.102 C 312.128 84.154,312.456 84.154,312.656 84.102 C 312.857 84.050,312.693 84.007,312.292 84.007 C 311.891 84.007,311.727 84.050,311.927 84.102 M238.223 97.813 C 238.223 105.031,238.249 107.954,238.281 104.308 C 238.313 100.662,238.313 94.755,238.281 91.183 C 238.249 87.610,238.223 90.594,238.223 97.813 M241.140 98.229 C 241.140 105.677,241.166 108.694,241.198 104.933 C 241.230 101.172,241.230 95.078,241.198 91.391 C 241.166 87.704,241.140 90.781,241.140 98.229 M76.090 92.917 C 76.090 93.318,76.133 93.482,76.185 93.281 C 76.238 93.081,76.238 92.753,76.185 92.552 C 76.133 92.352,76.090 92.516,76.090 92.917 M191.935 93.646 C 191.936 94.219,191.977 94.428,192.024 94.112 C 192.072 93.795,192.071 93.326,192.022 93.070 C 191.972 92.814,191.933 93.073,191.935 93.646 M314.259 95.208 L 314.271 97.396 319.375 97.401 L 324.479 97.407 319.434 97.346 L 314.389 97.284 314.318 95.153 L 314.247 93.021 314.259 95.208 M300.510 102.188 C 300.511 106.198,300.539 107.809,300.573 105.768 C 300.607 103.727,300.607 100.445,300.573 98.476 C 300.538 96.507,300.510 98.177,300.510 102.188 M86.119 108.750 C 86.119 109.953,86.153 110.445,86.195 109.844 C 86.237 109.242,86.237 108.258,86.195 107.656 C 86.153 107.055,86.119 107.547,86.119 108.750 M227.778 108.125 C 227.778 108.984,227.815 109.336,227.860 108.906 C 227.905 108.477,227.905 107.773,227.860 107.344 C 227.815 106.914,227.778 107.266,227.778 108.125 M87.652 119.734 C 88.021 119.780,88.678 119.780,89.110 119.735 C 89.542 119.690,89.240 119.653,88.438 119.652 C 87.635 119.651,87.282 119.688,87.652 119.734 M203.485 119.734 C 203.855 119.780,204.511 119.780,204.943 119.735 C 205.376 119.690,205.073 119.653,204.271 119.652 C 203.469 119.651,203.115 119.688,203.485 119.734 M239.318 119.734 C 239.688 119.780,240.344 119.780,240.777 119.735 C 241.209 119.690,240.906 119.653,240.104 119.652 C 239.302 119.651,238.948 119.688,239.318 119.734 M310.263 119.733 C 310.580 119.781,311.049 119.779,311.305 119.730 C 311.561 119.681,311.302 119.641,310.729 119.643 C 310.156 119.644,309.947 119.685,310.263 119.733 " stroke="none" fill="#8494c4" fill-rule="evenodd"></path></g></svg>