<svg id="svg" version="1.1" xmlns="http://www.w3.org/2000/svg" xmlns:xlink="http://www.w3.org/1999/xlink" width="400" height="400" viewBox="0, 0, 400,400"><g id="svgg"><path id="path0" d="M115.803 7.204 C 115.937 7.422,115.857 7.600,115.624 7.600 C 114.992 7.600,115.038 51.327,115.672 53.203 C 115.991 54.147,116.195 59.662,116.301 70.219 L 116.457 85.838 207.600 85.890 C 307.424 85.948,300.400 86.102,300.400 83.853 C 300.400 83.494,300.580 83.200,300.800 83.200 C 301.020 83.200,301.200 82.964,301.200 82.675 C 301.200 82.386,301.560 81.405,302.000 80.494 C 302.440 79.584,302.800 78.560,302.800 78.219 C 302.800 77.879,302.980 77.600,303.200 77.600 C 303.420 77.600,303.600 77.240,303.600 76.800 C 303.600 76.360,303.780 76.000,304.000 76.000 C 304.220 76.000,304.400 75.640,304.400 75.200 C 304.400 74.760,304.580 74.400,304.800 74.400 C 305.020 74.400,305.200 74.128,305.200 73.795 C 305.200 73.462,305.374 72.877,305.588 72.495 C 306.648 70.596,308.800 65.600,308.800 65.038 C 308.800 64.687,308.980 64.400,309.200 64.400 C 309.420 64.400,309.600 64.051,309.600 63.624 C 309.600 63.197,309.780 62.736,310.000 62.600 C 310.220 62.464,310.400 61.913,310.400 61.376 C 310.400 60.839,310.580 60.400,310.800 60.400 C 311.020 60.400,311.200 60.040,311.200 59.600 C 311.200 59.160,311.335 58.799,311.500 58.797 C 311.862 58.793,312.800 56.854,312.800 56.110 C 312.800 55.819,312.260 55.472,311.600 55.340 C 310.940 55.208,310.400 54.942,310.400 54.750 C 310.400 54.558,310.055 54.400,309.633 54.400 C 309.212 54.400,308.807 54.265,308.733 54.100 C 308.512 53.601,305.178 52.000,304.362 52.000 C 303.943 52.000,303.600 51.820,303.600 51.600 C 303.600 51.380,303.240 51.200,302.800 51.200 C 302.360 51.200,302.000 51.020,302.000 50.800 C 302.000 50.580,301.766 50.400,301.480 50.400 C 300.744 50.400,298.807 49.459,298.803 49.100 C 298.801 48.935,298.350 48.800,297.800 48.800 C 297.250 48.800,296.800 48.620,296.800 48.400 C 296.800 48.180,296.350 48.000,295.800 48.000 C 295.250 48.000,294.800 47.820,294.800 47.600 C 294.800 47.380,294.440 47.200,294.000 47.200 C 293.560 47.200,293.200 47.020,293.200 46.800 C 293.200 46.580,292.840 46.400,292.400 46.400 C 291.960 46.400,291.600 46.264,291.600 46.098 C 291.600 45.932,291.015 45.589,290.300 45.337 C 286.561 44.019,284.987 43.371,284.867 43.100 C 284.793 42.935,284.388 42.800,283.967 42.800 C 283.545 42.800,283.200 42.620,283.200 42.400 C 283.200 42.180,282.851 42.000,282.424 42.000 C 281.997 42.000,281.536 41.820,281.400 41.600 C 281.264 41.380,280.713 41.200,280.176 41.200 C 279.639 41.200,279.200 41.020,279.200 40.800 C 279.200 40.580,278.840 40.400,278.400 40.400 C 277.960 40.400,277.600 40.220,277.600 40.000 C 277.600 39.780,277.240 39.600,276.800 39.600 C 276.360 39.600,275.999 39.465,275.997 39.300 C 275.993 38.941,274.056 38.000,273.320 38.000 C 273.034 38.000,272.800 37.820,272.800 37.600 C 272.800 37.380,272.350 37.200,271.800 37.200 C 271.250 37.200,270.800 37.020,270.800 36.800 C 270.800 36.580,270.440 36.400,270.000 36.400 C 269.560 36.400,269.200 36.220,269.200 36.000 C 269.200 35.780,268.840 35.600,268.400 35.600 C 267.960 35.600,267.600 35.420,267.600 35.200 C 267.600 34.980,267.321 34.800,266.981 34.800 C 266.640 34.800,265.616 34.440,264.706 34.000 C 263.795 33.560,262.814 33.200,262.525 33.200 C 262.236 33.200,262.000 33.020,262.000 32.800 C 262.000 32.580,261.640 32.400,261.200 32.400 C 260.760 32.400,260.400 32.220,260.400 32.000 C 260.400 31.780,260.040 31.600,259.600 31.600 C 259.160 31.600,258.800 31.420,258.800 31.200 C 258.800 30.980,258.451 30.800,258.024 30.800 C 257.597 30.800,257.136 30.620,257.000 30.400 C 256.864 30.180,256.403 30.000,255.976 30.000 C 255.549 30.000,255.200 29.820,255.200 29.600 C 255.200 29.380,254.885 29.199,254.500 29.199 C 254.115 29.198,253.260 28.876,252.600 28.483 C 251.940 28.090,250.275 27.416,248.900 26.985 C 247.525 26.553,246.400 26.065,246.400 25.900 C 246.400 25.735,246.040 25.600,245.600 25.600 C 245.160 25.600,244.800 25.420,244.800 25.200 C 244.800 24.980,244.440 24.800,244.000 24.800 C 243.560 24.800,243.200 24.620,243.200 24.400 C 243.200 24.180,242.840 24.000,242.400 24.000 C 241.960 24.000,241.600 23.820,241.600 23.600 C 241.600 23.380,241.251 23.200,240.824 23.200 C 240.397 23.200,239.936 23.020,239.800 22.800 C 239.664 22.580,239.203 22.400,238.776 22.400 C 238.349 22.400,238.000 22.220,238.000 22.000 C 238.000 21.780,237.640 21.600,237.200 21.600 C 236.760 21.600,236.400 21.420,236.400 21.200 C 236.400 20.980,236.040 20.800,235.600 20.800 C 235.160 20.800,234.800 20.620,234.800 20.400 C 234.800 20.180,234.451 20.000,234.024 20.000 C 233.597 20.000,233.136 19.820,233.000 19.600 C 232.864 19.380,232.313 19.200,231.776 19.200 C 231.239 19.200,230.800 19.020,230.800 18.800 C 230.800 18.580,230.440 18.400,230.000 18.400 C 229.560 18.400,229.200 18.220,229.200 18.000 C 229.200 17.389,226.819 17.524,226.171 18.171 C 225.857 18.486,225.600 19.105,225.600 19.548 C 225.600 19.991,225.420 20.464,225.200 20.600 C 224.980 20.736,224.800 21.197,224.800 21.624 C 224.800 22.051,224.620 22.400,224.400 22.400 C 224.180 22.400,224.000 22.760,224.000 23.200 C 224.000 23.640,223.820 24.000,223.600 24.000 C 223.380 24.000,223.200 24.360,223.200 24.800 C 223.200 25.240,223.020 25.600,222.800 25.600 C 222.580 25.600,222.400 25.960,222.400 26.400 C 222.400 26.840,222.220 27.200,222.000 27.200 C 221.780 27.200,221.600 27.650,221.600 28.200 C 221.600 28.750,221.420 29.200,221.200 29.200 C 220.980 29.200,220.800 29.560,220.800 30.000 C 220.800 30.440,220.620 30.800,220.400 30.800 C 220.180 30.800,220.000 31.160,220.000 31.600 C 220.000 32.040,219.823 32.400,219.606 32.400 C 219.357 32.400,219.172 27.708,219.106 19.700 L 219.000 7.000 167.279 6.904 C 133.262 6.842,115.642 6.944,115.803 7.204 " stroke="none" fill="#abc140" fill-rule="evenodd"></path><path id="path1" d="M320.800 44.176 C 320.800 44.933,320.620 45.664,320.400 45.800 C 320.180 45.936,320.000 46.847,320.000 47.824 C 320.000 48.801,319.820 49.600,319.600 49.600 C 319.380 49.600,319.200 50.309,319.200 51.176 C 319.200 52.043,319.020 52.864,318.800 53.000 C 318.580 53.136,318.400 54.047,318.400 55.024 C 318.400 56.001,318.220 56.800,318.000 56.800 C 317.780 56.800,317.600 57.700,317.600 58.800 C 317.600 59.900,317.420 60.800,317.200 60.800 C 316.980 60.800,316.800 61.610,316.800 62.600 C 316.800 63.590,316.620 64.400,316.400 64.400 C 316.180 64.400,316.000 65.174,316.000 66.120 C 316.000 67.066,315.838 68.011,315.641 68.220 C 315.308 68.573,315.152 69.384,314.547 73.900 C 314.422 74.835,314.158 75.600,313.960 75.600 C 313.762 75.600,313.600 76.399,313.600 77.376 C 313.600 78.353,313.420 79.264,313.200 79.400 C 312.980 79.536,312.800 80.348,312.800 81.205 C 312.800 82.061,312.585 83.234,312.322 83.811 C 311.958 84.611,311.955 85.036,312.310 85.605 C 312.759 86.324,312.378 88.565,309.588 101.600 C 308.426 107.025,307.545 111.226,307.196 113.000 C 306.979 114.100,306.621 115.810,306.400 116.800 C 306.179 117.790,305.819 119.500,305.600 120.600 C 305.381 121.700,305.021 123.410,304.800 124.400 C 304.579 125.390,304.219 127.100,304.000 128.200 C 303.781 129.300,303.441 130.920,303.244 131.800 C 303.047 132.680,302.509 135.200,302.049 137.400 C 301.588 139.600,300.685 143.920,300.040 147.000 C 299.396 150.080,298.506 154.310,298.062 156.400 C 297.619 158.490,296.342 164.610,295.225 170.000 C 294.107 175.390,293.018 180.520,292.804 181.400 C 292.589 182.280,292.120 184.440,291.762 186.200 C 291.403 187.960,290.767 191.020,290.349 193.000 C 289.931 194.980,289.412 197.500,289.196 198.600 C 288.979 199.700,288.621 201.410,288.400 202.400 C 288.179 203.390,287.819 205.100,287.600 206.200 C 287.381 207.300,287.041 208.920,286.844 209.800 C 286.647 210.680,286.087 213.290,285.600 215.600 C 285.113 217.910,284.553 220.520,284.356 221.400 C 284.159 222.280,283.821 223.900,283.604 225.000 C 283.388 226.100,282.868 228.620,282.449 230.600 C 282.031 232.580,281.047 237.260,280.264 241.000 C 277.534 254.029,277.265 255.206,276.736 256.399 C 276.444 257.060,276.069 257.600,275.902 257.600 C 275.736 257.600,275.600 258.410,275.600 259.400 C 275.600 260.390,275.438 261.200,275.240 261.200 C 275.042 261.200,274.772 262.010,274.640 263.000 C 274.508 263.990,274.292 265.610,274.160 266.600 C 274.028 267.590,273.758 268.400,273.560 268.400 C 273.362 268.400,273.200 269.289,273.200 270.376 C 273.200 271.463,273.020 272.464,272.800 272.600 C 272.580 272.736,272.400 273.647,272.400 274.624 C 272.400 275.601,272.220 276.400,272.000 276.400 C 271.780 276.400,271.600 277.120,271.600 278.000 C 271.600 278.880,271.420 279.600,271.200 279.600 C 270.980 279.600,270.800 280.284,270.800 281.120 C 270.800 281.956,270.575 283.125,270.300 283.717 L 269.800 284.794 164.500 284.797 L 59.200 284.800 59.200 298.800 L 59.200 312.800 175.800 312.800 L 292.400 312.800 292.400 311.600 C 292.400 310.940,292.580 310.400,292.800 310.400 C 293.020 310.400,293.200 309.758,293.200 308.974 C 293.200 308.189,293.371 307.228,293.580 306.837 C 293.789 306.447,294.004 305.379,294.058 304.464 C 294.112 303.549,294.301 302.800,294.478 302.800 C 294.655 302.800,294.800 302.091,294.800 301.224 C 294.800 300.357,294.980 299.536,295.200 299.400 C 295.420 299.264,295.600 298.353,295.600 297.376 C 295.600 296.399,295.780 295.600,296.000 295.600 C 296.220 295.600,296.400 294.801,296.400 293.824 C 296.400 292.847,296.580 291.936,296.800 291.800 C 297.020 291.664,297.200 290.843,297.200 289.976 C 297.200 289.109,297.380 288.400,297.600 288.400 C 297.820 288.400,298.000 287.590,298.000 286.600 C 298.000 285.610,298.180 284.800,298.400 284.800 C 298.620 284.800,298.800 283.900,298.800 282.800 C 298.800 281.700,298.980 280.800,299.200 280.800 C 299.420 280.800,299.600 280.001,299.600 279.024 C 299.600 278.047,299.780 277.136,300.000 277.000 C 300.220 276.864,300.400 276.054,300.400 275.200 C 300.400 274.346,300.580 273.536,300.800 273.400 C 301.020 273.264,301.200 272.353,301.200 271.376 C 301.200 270.399,301.380 269.600,301.600 269.600 C 301.820 269.600,302.000 268.790,302.000 267.800 C 302.000 266.810,302.163 266.000,302.361 266.000 C 302.560 266.000,302.823 265.145,302.946 264.100 C 303.392 260.301,303.692 258.791,304.042 258.574 C 304.239 258.452,304.400 257.654,304.400 256.800 C 304.400 255.946,304.580 255.136,304.800 255.000 C 305.020 254.864,305.200 253.989,305.200 253.056 C 305.200 252.123,305.363 251.189,305.561 250.980 C 305.760 250.771,306.014 249.790,306.125 248.800 C 306.237 247.810,306.539 246.190,306.797 245.200 C 307.054 244.210,307.361 242.680,307.478 241.800 C 307.594 240.920,307.832 240.020,308.005 239.800 C 308.178 239.580,308.449 237.825,308.607 235.900 C 308.765 233.975,309.053 232.400,309.247 232.400 C 309.441 232.400,309.600 231.680,309.600 230.800 C 309.600 229.920,309.780 229.200,310.000 229.200 C 310.220 229.200,310.400 228.300,310.400 227.200 C 310.400 226.100,310.580 225.200,310.800 225.200 C 311.020 225.200,311.200 224.390,311.200 223.400 C 311.200 222.410,311.380 221.600,311.600 221.600 C 311.820 221.600,312.000 220.700,312.000 219.600 C 312.000 218.500,312.180 217.600,312.400 217.600 C 312.620 217.600,312.800 216.891,312.800 216.024 C 312.800 215.157,312.980 214.336,313.200 214.200 C 313.420 214.064,313.600 213.153,313.600 212.176 C 313.600 211.199,313.780 210.400,314.000 210.400 C 314.220 210.400,314.400 209.601,314.400 208.624 C 314.400 207.647,314.580 206.736,314.800 206.600 C 315.020 206.464,315.200 205.553,315.200 204.576 C 315.200 203.599,315.380 202.800,315.600 202.800 C 315.820 202.800,316.000 202.091,316.000 201.224 C 316.000 200.357,316.180 199.536,316.400 199.400 C 316.620 199.264,316.800 198.353,316.800 197.376 C 316.800 196.399,316.980 195.600,317.200 195.600 C 317.420 195.600,317.600 194.700,317.600 193.600 C 317.600 192.500,317.780 191.600,318.000 191.600 C 318.220 191.600,318.400 190.801,318.400 189.824 C 318.400 188.847,318.580 187.936,318.800 187.800 C 319.020 187.664,319.200 186.879,319.200 186.056 C 319.200 185.233,319.362 184.389,319.559 184.180 C 319.892 183.827,320.048 183.016,320.653 178.500 C 320.778 177.565,321.042 176.800,321.240 176.800 C 321.438 176.800,321.600 175.900,321.600 174.800 C 321.600 173.700,321.763 172.800,321.961 172.800 C 322.160 172.800,322.423 171.945,322.546 170.900 C 322.992 167.101,323.292 165.591,323.642 165.374 C 323.839 165.252,324.000 164.454,324.000 163.600 C 324.000 162.746,324.164 161.946,324.364 161.822 C 324.565 161.698,324.856 160.068,325.012 158.199 C 325.167 156.329,325.453 154.800,325.647 154.800 C 325.841 154.800,326.000 153.990,326.000 153.000 C 326.000 152.010,326.180 151.200,326.400 151.200 C 326.620 151.200,326.800 150.311,326.800 149.224 C 326.800 148.137,326.980 147.136,327.200 147.000 C 327.420 146.864,327.600 145.953,327.600 144.976 C 327.600 143.999,327.780 143.200,328.000 143.200 C 328.220 143.200,328.400 142.390,328.400 141.400 C 328.400 140.410,328.580 139.600,328.800 139.600 C 329.020 139.600,329.200 138.891,329.200 138.024 C 329.200 137.157,329.380 136.336,329.600 136.200 C 329.820 136.064,330.000 135.153,330.000 134.176 C 330.000 133.199,330.180 132.400,330.400 132.400 C 330.620 132.400,330.800 131.500,330.800 130.400 C 330.800 129.300,330.962 128.400,331.160 128.400 C 331.358 128.400,331.622 127.635,331.747 126.700 C 332.352 122.184,332.508 121.373,332.841 121.020 C 333.038 120.811,333.200 119.956,333.200 119.120 C 333.200 118.284,333.380 117.600,333.600 117.600 C 333.820 117.600,334.000 116.700,334.000 115.600 C 334.000 114.500,334.162 113.600,334.360 113.600 C 334.558 113.600,334.828 112.790,334.960 111.800 C 335.092 110.810,335.308 109.190,335.440 108.200 C 335.572 107.210,335.842 106.400,336.040 106.400 C 336.238 106.400,336.400 105.601,336.400 104.624 C 336.400 103.647,336.580 102.736,336.800 102.600 C 337.020 102.464,337.200 101.553,337.200 100.576 C 337.200 99.599,337.380 98.800,337.600 98.800 C 337.820 98.800,338.000 97.900,338.000 96.800 C 338.000 95.700,338.180 94.800,338.400 94.800 C 338.620 94.800,338.800 94.116,338.800 93.280 C 338.800 92.444,338.962 91.589,339.159 91.380 C 339.356 91.171,339.631 90.190,339.769 89.200 C 340.362 84.934,340.507 84.178,340.801 83.800 C 340.972 83.580,341.240 81.915,341.397 80.100 C 341.555 78.285,341.845 76.800,342.042 76.800 C 342.239 76.800,342.400 76.001,342.400 75.024 C 342.400 74.047,342.580 73.136,342.800 73.000 C 343.020 72.864,343.200 72.133,343.200 71.376 L 343.200 70.000 368.600 70.000 L 394.000 70.000 394.000 56.400 L 394.000 42.800 357.400 42.800 L 320.800 42.800 320.800 44.176 " stroke="none" fill="#cbcbcb" fill-rule="evenodd"></path><path id="path2" d="M20.000 87.349 C 20.000 88.341,20.180 89.264,20.400 89.400 C 20.620 89.536,20.800 90.627,20.800 91.824 C 20.800 93.021,20.980 94.000,21.200 94.000 C 21.422 94.000,21.600 95.067,21.600 96.400 C 21.600 97.733,21.778 98.800,22.000 98.800 C 22.222 98.800,22.400 99.859,22.400 101.176 C 22.400 102.483,22.580 103.664,22.800 103.800 C 23.020 103.936,23.200 105.016,23.200 106.200 C 23.200 107.384,23.380 108.464,23.600 108.600 C 23.820 108.736,24.000 109.816,24.000 111.000 C 24.000 112.184,24.180 113.264,24.400 113.400 C 24.620 113.536,24.800 114.717,24.800 116.024 C 24.800 117.341,24.978 118.400,25.200 118.400 C 25.420 118.400,25.600 119.390,25.600 120.600 C 25.600 121.810,25.780 122.800,26.000 122.800 C 26.222 122.800,26.400 123.867,26.400 125.200 C 26.400 126.520,26.558 127.600,26.752 127.600 C 26.946 127.600,27.233 129.670,27.392 132.201 C 27.550 134.731,27.841 136.902,28.040 137.024 C 28.238 137.147,28.400 138.126,28.400 139.200 C 28.400 140.274,28.580 141.264,28.800 141.400 C 29.020 141.536,29.200 142.717,29.200 144.024 C 29.200 145.341,29.378 146.400,29.600 146.400 C 29.822 146.400,30.000 147.459,30.000 148.776 C 30.000 150.083,30.180 151.264,30.400 151.400 C 30.620 151.536,30.800 152.616,30.800 153.800 C 30.800 154.984,30.980 156.064,31.200 156.200 C 31.420 156.336,31.600 157.416,31.600 158.600 C 31.600 159.784,31.780 160.864,32.000 161.000 C 32.220 161.136,32.400 162.216,32.400 163.400 C 32.400 164.584,32.580 165.664,32.800 165.800 C 33.020 165.936,33.200 167.016,33.200 168.200 C 33.200 169.384,33.380 170.464,33.600 170.600 C 33.820 170.736,34.000 171.827,34.000 173.024 C 34.000 174.221,34.180 175.200,34.400 175.200 C 34.622 175.200,34.800 176.267,34.800 177.600 C 34.800 178.933,34.978 180.000,35.200 180.000 C 35.422 180.000,35.600 181.067,35.600 182.400 C 35.600 183.733,35.778 184.800,36.000 184.800 C 36.222 184.800,36.400 185.867,36.400 187.200 C 36.400 188.533,36.578 189.600,36.800 189.600 C 37.020 189.600,37.200 190.590,37.200 191.800 C 37.200 193.010,37.380 194.000,37.600 194.000 C 37.822 194.000,38.000 195.059,38.000 196.376 C 38.000 197.683,38.180 198.864,38.400 199.000 C 38.620 199.136,38.800 200.317,38.800 201.624 C 38.800 202.941,38.978 204.000,39.200 204.000 C 39.422 204.000,39.600 205.067,39.600 206.400 C 39.600 207.733,39.778 208.800,40.000 208.800 C 40.222 208.800,40.400 209.867,40.400 211.200 C 40.400 212.533,40.578 213.600,40.800 213.600 C 41.022 213.600,41.200 214.667,41.200 216.000 C 41.200 217.333,41.378 218.400,41.600 218.400 C 41.820 218.400,42.000 219.379,42.000 220.576 C 42.000 221.773,42.180 222.864,42.400 223.000 C 42.620 223.136,42.800 224.227,42.800 225.424 C 42.800 226.621,42.958 227.600,43.152 227.600 C 43.346 227.600,43.633 229.670,43.792 232.201 C 43.950 234.731,44.241 236.902,44.440 237.024 C 44.638 237.147,44.800 238.216,44.800 239.400 C 44.800 240.584,44.980 241.664,45.200 241.800 C 45.420 241.936,45.600 243.016,45.600 244.200 C 45.600 245.384,45.780 246.464,46.000 246.600 C 46.220 246.736,46.400 247.816,46.400 249.000 C 46.400 250.184,46.580 251.264,46.800 251.400 C 47.020 251.536,47.200 252.591,47.200 253.744 C 47.200 254.897,47.416 256.056,47.680 256.320 C 48.051 256.691,74.043 256.800,162.231 256.800 L 276.303 256.800 276.718 255.700 C 276.947 255.095,277.237 253.970,277.364 253.200 C 277.490 252.430,277.776 250.990,277.998 250.000 C 278.220 249.010,278.581 247.300,278.800 246.200 C 279.019 245.100,279.379 243.390,279.601 242.400 C 279.996 240.640,280.356 238.945,281.235 234.700 C 281.475 233.545,281.835 231.835,282.035 230.900 C 282.929 226.737,283.152 225.668,283.562 223.600 C 283.802 222.390,284.159 220.680,284.356 219.800 C 284.553 218.920,285.086 216.400,285.540 214.200 C 285.994 212.000,287.010 207.140,287.797 203.400 C 288.584 199.660,289.601 194.800,290.057 192.600 C 290.513 190.400,291.047 187.880,291.244 187.000 C 291.441 186.120,291.781 184.500,292.000 183.400 C 292.219 182.300,292.579 180.590,292.800 179.600 C 293.021 178.610,293.381 176.900,293.600 175.800 C 293.819 174.700,294.179 172.990,294.401 172.000 C 294.623 171.010,294.992 169.300,295.220 168.200 C 295.448 167.100,295.791 165.480,295.982 164.600 C 296.173 163.720,296.525 162.055,296.765 160.900 C 297.004 159.745,297.396 157.855,297.635 156.700 C 297.875 155.545,298.235 153.835,298.435 152.900 C 299.329 148.737,299.552 147.668,299.962 145.600 C 300.202 144.390,300.559 142.680,300.756 141.800 C 300.953 140.920,301.486 138.400,301.940 136.200 C 302.855 131.769,304.976 121.693,306.867 112.800 C 307.545 109.610,308.256 106.190,308.447 105.200 C 308.639 104.210,308.957 102.680,309.155 101.800 C 309.493 100.295,310.833 94.003,311.669 90.000 C 311.875 89.010,312.147 87.590,312.272 86.844 L 312.501 85.488 299.950 85.735 C 284.205 86.045,29.202 86.078,23.900 85.771 L 20.000 85.545 20.000 87.349 " stroke="none" fill="#8c0c1c" fill-rule="evenodd"></path><path id="path3" d="M88.100 0.276 C 87.605 0.375,87.200 0.623,87.200 0.828 C 87.200 1.033,86.930 1.200,86.600 1.200 C 86.270 1.200,86.000 1.380,86.000 1.600 C 86.000 1.820,85.550 2.000,85.000 2.000 C 84.450 2.000,84.000 2.180,84.000 2.400 C 84.000 2.620,83.584 2.800,83.075 2.800 C 82.567 2.800,81.802 3.115,81.375 3.500 C 80.949 3.885,80.240 4.261,79.800 4.335 C 79.360 4.409,78.628 4.814,78.174 5.235 C 77.720 5.656,76.966 6.000,76.498 6.000 C 76.030 6.000,75.536 6.180,75.400 6.400 C 75.264 6.620,74.753 6.800,74.265 6.800 C 73.776 6.800,73.117 7.160,72.800 7.600 C 72.461 8.070,71.765 8.400,71.112 8.400 C 70.500 8.400,70.000 8.580,70.000 8.800 C 70.000 9.020,69.640 9.200,69.200 9.200 C 68.760 9.200,68.400 9.356,68.400 9.548 C 68.400 9.739,67.788 9.995,67.041 10.116 C 65.747 10.326,60.423 12.667,60.000 13.211 C 59.890 13.353,58.945 13.718,57.900 14.022 C 56.855 14.326,56.000 14.715,56.000 14.887 C 56.000 15.059,55.640 15.200,55.200 15.200 C 54.760 15.200,54.400 15.380,54.400 15.600 C 54.400 15.820,54.040 16.000,53.600 16.000 C 53.160 16.000,52.800 16.180,52.800 16.400 C 52.800 16.620,52.528 16.800,52.195 16.800 C 51.862 16.800,51.187 17.008,50.695 17.262 C 50.203 17.516,49.530 17.857,49.200 18.019 C 48.412 18.405,48.578 19.568,49.800 22.225 C 51.432 25.774,52.655 28.474,53.593 30.600 C 54.470 32.588,55.810 35.540,57.225 38.600 C 58.924 42.275,60.800 46.467,60.800 46.589 C 60.800 46.662,61.543 48.313,62.451 50.260 C 63.360 52.207,64.779 55.330,65.605 57.200 C 66.432 59.070,67.578 61.635,68.154 62.900 C 68.729 64.165,69.629 66.145,70.154 67.300 C 70.679 68.455,71.559 70.390,72.109 71.600 C 72.660 72.810,73.516 74.700,74.012 75.800 C 74.508 76.900,75.690 79.509,76.638 81.599 C 77.587 83.688,78.223 85.537,78.053 85.707 C 77.882 85.878,66.387 85.969,52.509 85.909 C 38.631 85.849,27.484 85.932,27.738 86.094 C 28.318 86.463,51.532 86.478,88.134 86.134 L 116.400 85.869 116.376 71.634 C 116.363 63.805,116.182 56.500,115.974 55.400 C 115.767 54.300,115.484 52.725,115.346 51.900 C 115.208 51.075,114.938 50.400,114.747 50.400 C 114.556 50.400,114.400 50.045,114.400 49.612 C 114.400 49.179,114.040 48.183,113.600 47.400 C 113.160 46.617,112.800 45.711,112.800 45.388 C 112.800 45.065,112.620 44.800,112.400 44.800 C 112.180 44.800,112.000 44.519,112.000 44.176 C 112.000 43.833,111.820 43.664,111.600 43.800 C 111.375 43.939,111.200 43.619,111.200 43.069 C 111.200 41.913,110.235 39.898,109.861 40.273 C 109.717 40.416,109.597 39.918,109.594 39.167 C 109.589 38.137,109.492 37.948,109.200 38.400 C 108.900 38.865,108.811 38.743,108.806 37.860 C 108.803 37.234,108.551 36.154,108.247 35.460 C 107.942 34.767,107.312 33.347,106.847 32.304 C 106.381 31.262,106.000 30.216,106.000 29.981 C 106.000 29.745,105.816 29.667,105.590 29.806 C 105.365 29.945,105.230 29.902,105.290 29.709 C 105.453 29.190,104.303 26.400,103.925 26.400 C 103.746 26.400,103.600 25.950,103.600 25.400 C 103.600 24.850,103.420 24.400,103.200 24.400 C 102.980 24.400,102.800 24.130,102.800 23.800 C 102.800 23.470,102.620 23.200,102.400 23.200 C 102.180 23.200,102.000 22.660,102.000 22.000 C 102.000 21.340,101.820 20.800,101.600 20.800 C 101.380 20.800,101.200 20.429,101.200 19.976 C 101.200 19.523,101.020 19.264,100.800 19.400 C 100.580 19.536,100.400 19.310,100.400 18.899 C 100.400 18.487,100.040 17.405,99.600 16.494 C 99.160 15.584,98.800 14.639,98.800 14.396 C 98.800 14.152,98.620 14.064,98.400 14.200 C 98.180 14.336,98.000 14.077,98.000 13.624 C 98.000 13.171,97.859 12.800,97.687 12.800 C 97.515 12.800,97.334 12.305,97.284 11.700 C 97.234 11.095,97.015 10.540,96.797 10.467 C 96.578 10.393,96.400 10.022,96.400 9.642 C 96.400 9.262,96.040 8.564,95.600 8.092 C 95.160 7.620,94.797 6.731,94.794 6.117 C 94.789 5.249,94.701 5.134,94.400 5.600 C 94.106 6.055,94.011 5.886,94.006 4.900 C 94.003 4.185,93.820 3.600,93.600 3.600 C 93.380 3.600,93.200 3.240,93.200 2.800 C 93.200 2.360,93.020 2.000,92.800 2.000 C 92.580 2.000,92.400 1.584,92.400 1.075 C 92.400 0.118,90.579 -0.220,88.100 0.276 M180.529 85.900 C 187.530 85.961,198.870 85.961,205.729 85.900 C 212.588 85.838,206.860 85.788,193.000 85.788 C 179.140 85.788,173.528 85.839,180.529 85.900 M311.849 88.615 C 311.712 88.973,311.616 89.656,311.636 90.133 C 311.662 90.747,311.785 90.608,312.059 89.656 C 312.457 88.272,312.294 87.458,311.849 88.615 M311.000 92.800 C 310.848 93.491,310.807 94.141,310.909 94.242 C 311.011 94.344,311.209 93.853,311.350 93.150 C 311.683 91.483,311.360 91.160,311.000 92.800 M309.456 100.084 C 309.321 100.588,309.227 101.360,309.246 101.800 C 309.265 102.240,309.445 101.898,309.646 101.040 C 310.036 99.378,309.870 98.540,309.456 100.084 M308.656 103.684 C 308.521 104.188,308.427 104.960,308.446 105.400 C 308.465 105.840,308.645 105.498,308.846 104.640 C 309.236 102.978,309.070 102.140,308.656 103.684 M307.856 107.684 C 307.721 108.188,307.627 108.960,307.646 109.400 C 307.665 109.840,307.845 109.498,308.046 108.640 C 308.436 106.978,308.270 106.140,307.856 107.684 M306.849 112.600 C 306.816 113.040,306.696 113.850,306.583 114.400 L 306.377 115.400 306.806 114.419 C 307.042 113.879,307.161 113.069,307.072 112.619 C 306.913 111.821,306.907 111.821,306.849 112.600 M306.049 116.600 C 306.016 117.040,305.896 117.850,305.783 118.400 L 305.577 119.400 306.006 118.419 C 306.242 117.879,306.361 117.069,306.272 116.619 C 306.113 115.821,306.107 115.821,306.049 116.600 M305.249 120.200 C 305.216 120.640,305.096 121.450,304.983 122.000 L 304.777 123.000 305.206 122.019 C 305.442 121.479,305.561 120.669,305.472 120.219 C 305.313 119.421,305.307 119.421,305.249 120.200 M304.449 123.800 C 304.416 124.240,304.296 125.050,304.183 125.600 L 303.977 126.600 304.406 125.619 C 304.642 125.079,304.761 124.269,304.672 123.819 C 304.513 123.021,304.507 123.021,304.449 123.800 M303.450 128.850 C 303.117 130.517,303.440 130.840,303.800 129.200 C 303.952 128.509,303.993 127.859,303.891 127.758 C 303.789 127.656,303.591 128.147,303.450 128.850 M302.650 132.450 C 302.317 134.117,302.640 134.440,303.000 132.800 C 303.152 132.109,303.193 131.459,303.091 131.358 C 302.989 131.256,302.791 131.747,302.650 132.450 M301.850 136.450 C 301.517 138.117,301.840 138.440,302.200 136.800 C 302.352 136.109,302.393 135.459,302.291 135.358 C 302.189 135.256,301.991 135.747,301.850 136.450 M301.029 140.229 C 300.881 140.815,300.838 141.372,300.932 141.466 C 301.027 141.560,301.224 141.158,301.371 140.571 C 301.519 139.985,301.562 139.428,301.468 139.334 C 301.373 139.240,301.176 139.642,301.029 140.229 M300.200 144.000 C 300.048 144.691,300.014 145.347,300.124 145.457 C 300.234 145.567,300.448 145.091,300.600 144.400 C 300.752 143.709,300.786 143.053,300.676 142.943 C 300.566 142.833,300.352 143.309,300.200 144.000 M299.400 148.000 C 299.248 148.691,299.207 149.341,299.309 149.442 C 299.411 149.544,299.609 149.053,299.750 148.350 C 300.083 146.683,299.760 146.360,299.400 148.000 M298.673 151.353 C 298.523 151.745,298.411 152.366,298.425 152.733 C 298.442 153.175,298.581 153.074,298.837 152.434 C 299.049 151.903,299.161 151.282,299.085 151.054 C 299.009 150.827,298.824 150.961,298.673 151.353 M297.800 155.600 C 297.648 156.291,297.607 156.941,297.709 157.042 C 297.811 157.144,298.009 156.653,298.150 155.950 C 298.483 154.283,298.160 153.960,297.800 155.600 M297.073 158.953 C 296.923 159.345,296.811 159.966,296.825 160.333 C 296.842 160.775,296.981 160.674,297.237 160.034 C 297.449 159.503,297.561 158.882,297.485 158.654 C 297.409 158.427,297.224 158.561,297.073 158.953 M296.200 163.200 C 296.048 163.891,296.007 164.541,296.109 164.642 C 296.211 164.744,296.409 164.253,296.550 163.550 C 296.883 161.883,296.560 161.560,296.200 163.200 M295.449 166.615 C 295.312 166.973,295.218 167.656,295.241 168.133 C 295.267 168.681,295.403 168.486,295.610 167.603 C 295.960 166.116,295.865 165.533,295.449 166.615 M294.600 170.800 C 294.448 171.491,294.407 172.141,294.509 172.242 C 294.611 172.344,294.809 171.853,294.950 171.150 C 295.283 169.483,294.960 169.160,294.600 170.800 M293.856 174.084 C 293.721 174.588,293.627 175.360,293.646 175.800 C 293.665 176.240,293.845 175.898,294.046 175.040 C 294.436 173.378,294.270 172.540,293.856 174.084 M293.056 178.084 C 292.921 178.588,292.827 179.360,292.846 179.800 C 292.865 180.240,293.045 179.898,293.246 179.040 C 293.636 177.378,293.470 176.540,293.056 178.084 M292.256 181.684 C 292.121 182.188,292.027 182.960,292.046 183.400 C 292.065 183.840,292.245 183.498,292.446 182.640 C 292.836 180.978,292.670 180.140,292.256 181.684 M290.638 189.571 C 289.983 192.952,289.925 193.383,290.150 193.169 C 290.465 192.873,291.256 188.723,291.040 188.507 C 290.950 188.417,290.769 188.896,290.638 189.571 M288.849 198.200 C 288.816 198.640,288.696 199.450,288.583 200.000 L 288.377 201.000 288.806 200.019 C 289.042 199.479,289.161 198.669,289.072 198.219 C 288.913 197.421,288.907 197.421,288.849 198.200 M288.049 201.800 C 288.016 202.240,287.896 203.050,287.783 203.600 L 287.577 204.600 288.006 203.619 C 288.242 203.079,288.361 202.269,288.272 201.819 C 288.113 201.021,288.107 201.021,288.049 201.800 M287.050 206.850 C 286.909 207.553,286.869 208.202,286.959 208.292 C 287.050 208.383,287.248 207.891,287.400 207.200 C 287.552 206.509,287.593 205.859,287.491 205.758 C 287.389 205.656,287.191 206.147,287.050 206.850 M286.250 210.450 C 286.109 211.153,286.069 211.802,286.159 211.892 C 286.250 211.983,286.448 211.491,286.600 210.800 C 286.752 210.109,286.793 209.459,286.691 209.358 C 286.589 209.256,286.391 209.747,286.250 210.450 M285.450 214.450 C 285.309 215.153,285.269 215.802,285.359 215.892 C 285.450 215.983,285.648 215.491,285.800 214.800 C 285.952 214.109,285.993 213.459,285.891 213.358 C 285.789 213.256,285.591 213.747,285.450 214.450 M284.629 218.229 C 284.481 218.815,284.438 219.372,284.532 219.466 C 284.627 219.560,284.824 219.158,284.971 218.571 C 285.119 217.985,285.162 217.428,285.068 217.334 C 284.973 217.240,284.776 217.642,284.629 218.229 M283.800 222.000 C 283.648 222.691,283.614 223.347,283.724 223.457 C 283.834 223.567,284.048 223.091,284.200 222.400 C 284.352 221.709,284.386 221.053,284.276 220.943 C 284.166 220.833,283.952 221.309,283.800 222.000 M283.000 226.000 C 282.848 226.691,282.807 227.341,282.909 227.442 C 283.011 227.544,283.209 227.053,283.350 226.350 C 283.491 225.647,283.531 224.998,283.441 224.908 C 283.350 224.817,283.152 225.309,283.000 226.000 M282.273 229.353 C 282.123 229.745,282.011 230.366,282.025 230.733 C 282.042 231.175,282.181 231.074,282.437 230.434 C 282.649 229.903,282.761 229.282,282.685 229.054 C 282.609 228.827,282.424 228.961,282.273 229.353 M281.429 233.429 C 281.281 234.015,281.238 234.572,281.332 234.666 C 281.427 234.760,281.624 234.358,281.771 233.771 C 281.919 233.185,281.962 232.628,281.868 232.534 C 281.773 232.440,281.576 232.842,281.429 233.429 M280.673 236.953 C 280.523 237.345,280.411 237.966,280.425 238.333 C 280.442 238.775,280.581 238.674,280.837 238.034 C 281.049 237.503,281.161 236.882,281.085 236.654 C 281.009 236.427,280.824 236.561,280.673 236.953 M279.800 241.200 C 279.648 241.891,279.607 242.541,279.709 242.642 C 279.811 242.744,280.009 242.253,280.150 241.550 C 280.291 240.847,280.331 240.198,280.241 240.108 C 280.150 240.017,279.952 240.509,279.800 241.200 M279.056 244.484 C 278.921 244.988,278.827 245.760,278.846 246.200 C 278.865 246.640,279.045 246.298,279.246 245.440 C 279.636 243.778,279.470 242.940,279.056 244.484 M278.200 248.800 C 278.048 249.491,278.007 250.141,278.109 250.242 C 278.211 250.344,278.409 249.853,278.550 249.150 C 278.691 248.447,278.731 247.798,278.641 247.708 C 278.550 247.617,278.352 248.109,278.200 248.800 M277.400 252.400 C 277.248 253.091,277.207 253.741,277.309 253.842 C 277.411 253.944,277.609 253.453,277.750 252.750 C 277.891 252.047,277.931 251.398,277.841 251.308 C 277.750 251.217,277.552 251.709,277.400 252.400 M71.600 335.200 C 71.600 335.433,70.267 335.600,68.400 335.600 C 66.533 335.600,65.200 335.767,65.200 336.000 C 65.200 336.220,64.761 336.400,64.224 336.400 C 63.687 336.400,63.136 336.580,63.000 336.800 C 62.864 337.020,62.133 337.200,61.376 337.200 C 60.619 337.200,60.000 337.380,60.000 337.600 C 60.000 337.820,59.655 338.000,59.233 338.000 C 58.812 338.000,58.407 338.135,58.333 338.300 C 58.260 338.465,57.345 339.033,56.300 339.563 C 55.255 340.092,54.400 340.677,54.400 340.863 C 54.400 341.048,54.130 341.200,53.800 341.200 C 53.470 341.200,53.200 341.380,53.200 341.600 C 53.200 341.820,53.023 342.000,52.807 342.000 C 51.569 342.000,45.824 348.544,44.204 351.800 C 43.766 352.680,43.315 353.490,43.202 353.600 C 42.819 353.971,42.000 356.650,42.000 357.528 C 42.000 358.008,41.820 358.400,41.600 358.400 C 41.380 358.400,41.200 358.925,41.200 359.567 C 41.200 360.208,41.009 360.797,40.777 360.874 C 40.196 361.068,40.200 374.933,40.780 375.127 C 41.011 375.204,41.200 375.792,41.200 376.433 C 41.200 377.075,41.380 377.600,41.600 377.600 C 41.820 377.600,42.000 378.140,42.000 378.800 C 42.000 379.460,42.180 380.000,42.400 380.000 C 42.620 380.000,42.800 380.335,42.800 380.744 C 42.800 381.574,44.974 385.831,45.841 386.698 C 46.149 387.006,46.400 387.404,46.400 387.585 C 46.400 388.131,52.353 394.000,52.907 394.000 C 53.191 394.000,53.683 394.360,54.000 394.800 C 54.317 395.240,54.897 395.600,55.288 395.600 C 55.680 395.600,56.000 395.780,56.000 396.000 C 56.000 396.220,56.278 396.400,56.617 396.400 C 56.956 396.400,57.620 396.760,58.092 397.200 C 58.564 397.640,59.266 398.000,59.652 398.000 C 60.037 398.000,60.464 398.180,60.600 398.400 C 60.736 398.620,61.251 398.800,61.744 398.800 C 62.237 398.800,62.865 399.025,63.140 399.300 C 63.512 399.671,66.023 399.800,72.887 399.800 C 79.929 399.800,82.173 399.681,82.300 399.300 C 82.392 399.025,82.891 398.800,83.410 398.800 C 83.928 398.800,84.464 398.620,84.600 398.400 C 84.736 398.180,85.287 398.000,85.824 398.000 C 86.361 398.000,86.800 397.854,86.800 397.675 C 86.800 397.496,87.430 397.102,88.200 396.800 C 88.970 396.498,89.600 396.104,89.600 395.925 C 89.600 395.746,89.868 395.600,90.197 395.600 C 90.525 395.600,91.018 395.240,91.293 394.800 C 91.568 394.360,92.026 394.000,92.312 394.000 C 92.913 394.000,98.800 388.339,98.800 387.762 C 98.800 387.550,99.160 387.117,99.600 386.800 C 100.040 386.483,100.400 385.903,100.400 385.512 C 100.400 385.120,100.580 384.800,100.800 384.800 C 101.020 384.800,101.200 384.517,101.200 384.171 C 101.200 383.826,101.479 383.264,101.820 382.923 C 102.160 382.582,102.543 381.785,102.670 381.152 C 102.796 380.518,103.058 380.000,103.250 380.000 C 103.442 380.000,103.600 379.460,103.600 378.800 C 103.600 378.140,103.780 377.600,104.000 377.600 C 104.220 377.600,104.400 377.138,104.400 376.574 C 104.400 376.009,104.593 375.187,104.829 374.746 C 105.399 373.681,105.388 361.063,104.817 360.872 C 104.587 360.796,104.400 360.219,104.400 359.590 C 104.400 358.962,104.220 358.336,104.000 358.200 C 103.780 358.064,103.600 357.611,103.600 357.194 C 103.600 356.223,101.212 351.200,100.749 351.200 C 100.557 351.200,100.400 350.840,100.400 350.400 C 100.400 349.960,100.220 349.600,100.000 349.600 C 99.780 349.600,99.600 349.330,99.600 349.000 C 99.600 348.670,99.450 348.400,99.268 348.400 C 99.085 348.400,98.696 347.953,98.404 347.407 C 98.111 346.860,97.541 346.308,97.136 346.180 C 96.731 346.051,96.400 345.728,96.400 345.461 C 96.400 345.195,96.014 344.712,95.542 344.388 C 95.070 344.065,94.086 343.215,93.355 342.500 C 92.625 341.785,91.841 341.200,91.613 341.200 C 91.386 341.200,91.200 341.020,91.200 340.800 C 91.200 340.580,90.840 340.400,90.400 340.400 C 89.960 340.400,89.600 340.220,89.600 340.000 C 89.600 339.780,89.330 339.600,89.000 339.600 C 88.670 339.600,88.399 339.465,88.397 339.300 C 88.393 338.941,86.456 338.000,85.720 338.000 C 85.434 338.000,85.200 337.820,85.200 337.600 C 85.200 337.380,84.761 337.200,84.224 337.200 C 83.687 337.200,83.136 337.020,83.000 336.800 C 82.864 336.580,82.133 336.400,81.376 336.400 C 80.619 336.400,80.000 336.220,80.000 336.000 C 80.000 335.769,78.741 335.600,77.024 335.600 C 75.387 335.600,73.936 335.420,73.800 335.200 C 73.664 334.980,73.113 334.800,72.576 334.800 C 72.039 334.800,71.600 334.980,71.600 335.200 M264.200 335.200 C 264.064 335.420,262.523 335.600,260.776 335.600 C 258.925 335.600,257.600 335.767,257.600 336.000 C 257.600 336.220,257.161 336.400,256.624 336.400 C 256.087 336.400,255.536 336.580,255.400 336.800 C 255.264 337.020,254.623 337.200,253.976 337.200 C 253.329 337.200,252.800 337.380,252.800 337.600 C 252.800 337.820,252.440 338.000,252.000 338.000 C 251.560 338.000,251.199 338.135,251.197 338.300 C 251.193 338.659,249.256 339.600,248.520 339.600 C 248.234 339.600,248.000 339.780,248.000 340.000 C 248.000 340.220,247.775 340.404,247.500 340.409 C 247.225 340.414,246.280 341.042,245.400 341.803 C 241.721 344.987,240.424 346.219,240.412 346.540 C 240.406 346.726,239.905 347.360,239.300 347.947 C 238.099 349.114,237.148 350.583,236.094 352.900 C 235.718 353.725,235.274 354.400,235.106 354.400 C 234.938 354.400,234.800 354.940,234.800 355.600 C 234.800 356.260,234.620 356.800,234.400 356.800 C 234.180 356.800,234.000 357.340,234.000 358.000 C 234.000 358.660,233.837 359.200,233.637 359.200 C 232.894 359.200,232.076 371.436,232.772 372.132 C 233.008 372.368,233.200 373.424,233.200 374.480 C 233.200 375.536,233.380 376.400,233.600 376.400 C 233.820 376.400,234.000 377.030,234.000 377.800 C 234.000 378.570,234.180 379.200,234.400 379.200 C 234.620 379.200,234.800 379.472,234.800 379.805 C 234.800 380.451,235.071 381.086,236.164 383.000 C 236.541 383.660,236.949 384.515,237.071 384.900 C 237.193 385.285,237.452 385.600,237.647 385.600 C 237.841 385.600,238.000 385.835,238.000 386.122 C 238.000 386.409,238.585 387.282,239.300 388.063 C 240.015 388.844,240.958 389.959,241.395 390.541 C 241.832 391.124,242.416 391.600,242.692 391.600 C 242.967 391.600,243.418 391.960,243.693 392.400 C 243.968 392.840,244.328 393.200,244.493 393.200 C 244.658 393.200,245.309 393.740,245.940 394.400 C 246.571 395.060,247.382 395.600,247.743 395.600 C 248.104 395.600,248.400 395.780,248.400 396.000 C 248.400 396.220,248.670 396.400,249.000 396.400 C 249.330 396.400,249.600 396.580,249.600 396.800 C 249.600 397.020,249.865 397.200,250.188 397.200 C 250.511 397.200,251.417 397.560,252.200 398.000 C 252.983 398.440,253.943 398.800,254.332 398.800 C 254.721 398.800,255.265 399.025,255.540 399.300 C 255.911 399.671,258.405 399.800,265.200 399.800 C 271.994 399.800,274.489 399.671,274.860 399.300 C 275.135 399.025,275.864 398.800,276.480 398.800 C 277.096 398.800,277.600 398.620,277.600 398.400 C 277.600 398.180,277.945 398.000,278.367 398.000 C 278.788 398.000,279.193 397.858,279.267 397.685 C 279.340 397.512,280.449 396.862,281.731 396.240 C 283.014 395.619,284.673 394.501,285.418 393.755 C 286.164 393.010,286.884 392.400,287.020 392.400 C 287.156 392.400,287.888 391.725,288.648 390.900 C 289.408 390.075,290.383 389.034,290.815 388.586 C 291.247 388.138,291.600 387.553,291.600 387.286 C 291.600 387.019,291.780 386.800,292.000 386.800 C 292.220 386.800,292.400 386.530,292.400 386.200 C 292.400 385.870,292.580 385.600,292.800 385.600 C 293.020 385.600,293.200 385.240,293.200 384.800 C 293.200 384.360,293.380 384.000,293.600 384.000 C 293.820 384.000,294.000 383.722,294.000 383.383 C 294.000 383.044,294.360 382.380,294.800 381.908 C 295.240 381.436,295.600 380.633,295.600 380.125 C 295.600 379.616,295.780 379.200,296.000 379.200 C 296.220 379.200,296.400 378.671,296.400 378.024 C 296.400 377.377,296.580 376.736,296.800 376.600 C 297.020 376.464,297.200 375.474,297.200 374.400 C 297.200 373.326,297.380 372.336,297.600 372.200 C 297.823 372.062,298.000 370.196,298.000 367.976 C 298.000 365.592,297.840 364.000,297.600 364.000 C 297.378 364.000,297.200 362.933,297.200 361.600 C 297.200 360.267,297.022 359.200,296.800 359.200 C 296.580 359.200,296.400 358.660,296.400 358.000 C 296.400 357.340,296.220 356.800,296.000 356.800 C 295.780 356.800,295.600 356.260,295.600 355.600 C 295.600 354.940,295.420 354.400,295.200 354.400 C 294.980 354.400,294.800 354.164,294.800 353.875 C 294.800 353.587,294.440 352.964,294.000 352.492 C 293.560 352.020,293.200 351.356,293.200 351.017 C 293.200 350.678,293.020 350.400,292.800 350.400 C 292.580 350.400,292.400 350.122,292.400 349.782 C 292.400 349.442,291.995 348.757,291.500 348.259 C 291.005 347.762,290.158 346.707,289.618 345.915 C 289.078 345.124,288.123 344.173,287.496 343.802 C 286.868 343.431,285.741 342.514,284.991 341.764 C 284.240 341.014,283.351 340.400,283.013 340.400 C 282.676 340.400,282.400 340.220,282.400 340.000 C 282.400 339.780,282.040 339.600,281.600 339.600 C 281.160 339.600,280.800 339.420,280.800 339.200 C 280.800 338.980,280.440 338.800,280.000 338.800 C 279.560 338.800,279.200 338.620,279.200 338.400 C 279.200 338.180,278.840 338.000,278.400 338.000 C 277.960 338.000,277.600 337.820,277.600 337.600 C 277.600 337.380,277.060 337.200,276.400 337.200 C 275.740 337.200,275.200 337.020,275.200 336.800 C 275.200 336.580,274.660 336.400,274.000 336.400 C 273.340 336.400,272.800 336.220,272.800 336.000 C 272.800 335.769,271.541 335.600,269.824 335.600 C 268.187 335.600,266.736 335.420,266.600 335.200 C 266.464 334.980,265.924 334.800,265.400 334.800 C 264.876 334.800,264.336 334.980,264.200 335.200 " stroke="none" fill="#4b5c61" fill-rule="evenodd"></path><path id="path4" d="M46.900 18.944 C 46.405 19.189,46.000 19.527,46.000 19.695 C 46.000 19.863,45.539 20.000,44.976 20.000 C 44.396 20.000,44.060 20.173,44.200 20.400 C 44.336 20.620,44.082 20.800,43.636 20.800 C 43.189 20.800,42.183 21.160,41.400 21.600 C 40.617 22.040,39.711 22.400,39.388 22.400 C 39.065 22.400,38.800 22.580,38.800 22.800 C 38.800 23.020,38.440 23.200,38.000 23.200 C 37.560 23.200,37.200 23.380,37.200 23.600 C 37.200 23.820,36.840 24.000,36.400 24.000 C 35.960 24.000,35.600 24.180,35.600 24.400 C 35.600 24.620,35.161 24.800,34.624 24.800 C 34.087 24.800,33.536 24.980,33.400 25.200 C 33.264 25.420,32.803 25.600,32.376 25.600 C 31.949 25.600,31.600 25.738,31.600 25.906 C 31.600 26.207,28.699 27.600,28.072 27.600 C 27.895 27.600,27.005 27.960,26.094 28.400 C 25.184 28.840,24.160 29.200,23.819 29.200 C 23.479 29.200,23.200 29.380,23.200 29.600 C 23.200 29.820,22.840 30.000,22.400 30.000 C 21.960 30.000,21.600 30.180,21.600 30.400 C 21.600 30.620,21.240 30.800,20.800 30.800 C 20.360 30.800,20.000 30.980,20.000 31.200 C 20.000 31.420,19.640 31.600,19.200 31.600 C 18.760 31.600,18.400 31.780,18.400 32.000 C 18.400 32.220,17.961 32.400,17.424 32.400 C 16.887 32.400,16.336 32.580,16.200 32.800 C 16.064 33.020,15.603 33.200,15.176 33.200 C 14.749 33.200,14.400 33.380,14.400 33.600 C 14.400 33.820,14.040 34.000,13.600 34.000 C 13.160 34.000,12.800 34.180,12.800 34.400 C 12.800 34.620,12.440 34.800,12.000 34.800 C 11.560 34.800,11.200 34.960,11.200 35.156 C 11.200 35.352,10.390 35.751,9.400 36.043 C 8.410 36.335,7.600 36.715,7.600 36.887 C 7.600 37.059,7.240 37.200,6.800 37.200 C 6.190 37.200,6.000 37.467,6.000 38.320 C 6.000 39.536,6.816 41.592,7.300 41.597 C 7.465 41.599,7.600 41.960,7.600 42.400 C 7.600 42.840,7.780 43.200,8.000 43.200 C 8.220 43.200,8.400 43.740,8.400 44.400 C 8.400 45.060,8.580 45.600,8.800 45.600 C 9.020 45.600,9.200 45.960,9.200 46.400 C 9.200 46.840,9.380 47.200,9.600 47.200 C 9.820 47.200,10.000 47.488,10.000 47.840 C 10.000 48.454,10.319 49.270,12.098 53.200 C 13.952 57.296,14.616 58.607,14.900 58.733 C 15.065 58.807,15.200 59.212,15.200 59.633 C 15.200 60.055,15.391 60.400,15.624 60.400 C 15.857 60.400,15.956 60.548,15.844 60.729 C 15.732 60.909,15.902 61.560,16.220 62.174 C 16.539 62.789,16.800 63.541,16.800 63.846 C 16.800 64.151,16.980 64.400,17.200 64.400 C 17.420 64.400,17.600 64.760,17.600 65.200 C 17.600 65.640,17.780 66.000,18.000 66.000 C 18.220 66.000,18.400 66.360,18.400 66.800 C 18.400 67.240,18.580 67.600,18.800 67.600 C 19.020 67.600,19.200 68.050,19.200 68.600 C 19.200 69.150,19.380 69.600,19.600 69.600 C 19.820 69.600,20.000 69.865,20.000 70.188 C 20.000 70.511,20.360 71.417,20.800 72.200 C 21.240 72.983,21.600 73.899,21.600 74.236 C 21.600 74.572,21.780 74.736,22.000 74.600 C 22.220 74.464,22.400 74.636,22.400 74.982 C 22.400 75.328,22.580 75.968,22.800 76.405 C 23.020 76.842,23.380 77.558,23.600 77.995 C 23.820 78.432,24.000 79.062,24.000 79.395 C 24.000 79.728,24.180 80.000,24.400 80.000 C 24.620 80.000,24.800 80.360,24.800 80.800 C 24.800 81.240,24.980 81.600,25.200 81.600 C 25.420 81.600,25.600 81.960,25.600 82.400 C 25.600 82.840,25.780 83.200,26.000 83.200 C 26.220 83.200,26.400 83.654,26.400 84.210 C 26.400 84.926,26.699 85.333,27.426 85.610 C 28.669 86.082,77.859 86.151,78.150 85.681 C 78.258 85.506,77.575 83.661,76.631 81.581 C 75.686 79.502,74.508 76.900,74.012 75.800 C 73.516 74.700,72.681 72.855,72.155 71.700 C 71.630 70.545,70.750 68.610,70.200 67.400 C 69.650 66.190,68.729 64.165,68.154 62.900 C 67.578 61.635,66.432 59.070,65.605 57.200 C 64.779 55.330,63.360 52.207,62.451 50.260 C 61.543 48.313,60.800 46.662,60.800 46.589 C 60.800 46.467,58.924 42.275,57.225 38.600 C 55.810 35.540,54.470 32.588,53.593 30.600 C 53.108 29.500,52.301 27.700,51.801 26.600 C 51.301 25.500,50.442 23.610,49.893 22.400 C 49.343 21.190,48.771 19.795,48.620 19.300 C 48.320 18.313,48.217 18.292,46.900 18.944 " stroke="none" fill="#7bd2da" fill-rule="evenodd"></path></g></svg>