<svg id="svg" version="1.1" xmlns="http://www.w3.org/2000/svg" xmlns:xlink="http://www.w3.org/1999/xlink" width="400" height="400" viewBox="0, 0, 400,400"><g id="svgg"><path id="path0" d="M197.188 76.568 C 170.881 80.249,150.373 103.259,147.478 132.344 C 147.289 134.234,147.070 136.238,146.991 136.797 L 146.847 137.813 120.533 137.814 C 103.632 137.815,93.809 137.930,93.073 138.134 C 91.787 138.491,90.126 140.187,89.786 141.490 C 89.316 143.291,97.145 311.188,97.834 314.090 C 99.838 322.521,105.921 329.049,113.750 331.169 C 115.666 331.688,120.690 331.719,202.344 331.719 L 288.906 331.719 291.742 330.728 C 298.087 328.510,302.208 324.905,305.212 318.949 C 307.542 314.328,307.109 320.443,311.724 227.031 L 315.923 142.031 315.227 140.630 C 313.837 137.832,316.052 138.037,285.426 137.872 L 258.438 137.728 258.438 136.278 C 258.438 126.211,253.454 111.103,246.929 101.386 C 235.197 83.916,215.370 74.024,197.188 76.568 M211.406 92.306 C 228.311 96.749,241.425 114.283,243.046 134.609 L 243.302 137.813 202.745 137.813 C 166.441 137.813,162.188 137.762,162.188 137.331 C 162.188 137.067,162.336 135.485,162.519 133.816 C 165.618 105.401,188.218 86.212,211.406 92.306 M209.424 170.186 C 219.090 171.434,231.215 175.863,237.087 180.291 C 239.238 181.913,239.199 182.292,236.415 186.779 C 233.622 191.282,233.395 191.413,231.063 189.864 C 207.759 174.391,177.546 180.245,176.335 200.469 C 175.701 211.063,183.412 218.314,202.115 224.712 C 233.207 235.347,244.803 246.210,244.287 264.219 C 243.284 299.266,196.227 310.421,161.896 283.750 C 158.855 281.388,158.854 281.358,161.743 277.135 C 165.706 271.342,165.534 271.428,168.548 273.738 C 192.977 292.462,226.377 289.914,231.714 268.919 C 234.967 256.122,225.885 245.846,205.009 238.703 C 174.728 228.343,164.524 219.483,163.851 202.969 C 162.978 181.520,183.405 166.825,209.424 170.186 " stroke="none" fill="#fcfbfb" fill-rule="evenodd"></path><path id="path1" d="M81.094 43.892 C 57.981 47.522,40.365 66.374,38.137 89.860 C 37.687 94.611,37.687 317.576,38.137 322.327 C 40.274 344.858,55.934 362.533,78.509 367.892 L 81.406 368.580 191.016 368.669 L 300.625 368.757 300.625 347.284 L 300.625 325.811 301.637 324.702 C 302.193 324.093,301.736 324.459,300.621 325.516 C 297.391 328.580,294.016 330.440,289.948 331.399 C 286.911 332.115,117.106 332.104,114.067 331.388 C 106.474 329.599,100.430 323.504,97.957 315.145 L 97.129 312.344 93.248 227.344 C 88.904 132.196,89.073 140.665,91.488 138.823 L 92.607 137.969 119.675 137.886 L 146.742 137.802 147.125 133.823 C 152.144 81.605,206.141 57.695,240.010 92.693 C 250.955 104.004,256.933 117.831,258.603 135.703 L 258.800 137.812 279.712 137.813 L 300.625 137.813 300.625 90.625 L 300.625 43.438 192.109 43.468 C 106.659 43.493,83.062 43.583,81.094 43.892 M199.531 91.468 C 180.348 93.209,164.085 112.342,162.596 134.922 L 162.406 137.813 202.806 137.813 L 243.206 137.813 242.993 135.234 C 240.814 108.840,221.576 89.468,199.531 91.468 M315.698 148.750 C 315.698 149.352,315.762 149.598,315.840 149.297 C 315.919 148.996,315.919 148.504,315.840 148.203 C 315.762 147.902,315.698 148.148,315.698 148.750 M196.250 170.046 C 166.569 173.127,153.362 203.926,173.536 223.016 C 179.395 228.560,187.835 232.680,206.406 239.064 C 227.827 246.427,236.932 258.965,230.632 272.427 C 222.277 290.282,191.972 291.416,169.692 274.708 C 165.554 271.604,165.720 271.560,162.228 276.693 C 158.802 281.728,158.840 281.129,161.797 283.485 C 170.213 290.194,179.637 294.600,190.068 296.704 C 221.081 302.960,244.324 288.405,244.188 262.813 C 244.098 245.797,232.597 235.378,202.409 224.966 C 181.246 217.667,173.164 208.688,176.844 196.563 C 182.041 179.441,207.562 175.580,229.290 188.629 C 233.579 191.206,233.370 191.240,235.744 187.578 C 239.520 181.753,239.522 181.787,235.461 179.388 C 223.198 172.145,208.884 168.735,196.250 170.046 M313.510 193.125 C 313.510 193.727,313.574 193.973,313.653 193.672 C 313.732 193.371,313.732 192.879,313.653 192.578 C 313.574 192.277,313.510 192.523,313.510 193.125 M311.323 237.500 C 311.323 238.102,311.387 238.348,311.465 238.047 C 311.544 237.746,311.544 237.254,311.465 236.953 C 311.387 236.652,311.323 236.898,311.323 237.500 M309.135 281.875 C 309.135 282.477,309.199 282.723,309.278 282.422 C 309.357 282.121,309.357 281.629,309.278 281.328 C 309.199 281.027,309.135 281.273,309.135 281.875 " stroke="none" fill="#fa5531" fill-rule="evenodd"></path><path id="path2" d="M300.625 90.599 L 300.625 137.813 306.484 137.813 C 314.803 137.814,315.937 138.522,315.938 143.718 C 315.940 152.775,307.768 311.849,307.180 314.208 C 306.188 318.184,303.529 323.111,301.287 325.127 L 300.625 325.722 300.625 347.262 L 300.625 368.802 312.422 368.668 C 323.766 368.539,324.345 368.503,327.515 367.735 C 347.742 362.833,362.323 347.990,366.616 327.931 L 367.344 324.531 367.344 206.094 L 367.344 87.656 366.616 84.257 C 362.323 64.198,347.742 49.354,327.515 44.452 C 324.345 43.684,323.766 43.648,312.422 43.520 L 300.625 43.386 300.625 90.599 " stroke="none" fill="#f43c2c" fill-rule="evenodd"></path><path id="path3" d="M304.624 138.045 C 306.050 138.103,308.300 138.103,309.624 138.045 C 310.948 137.986,309.781 137.939,307.031 137.939 C 304.281 137.939,303.198 137.987,304.624 138.045 M314.448 170.938 C 314.448 171.539,314.512 171.785,314.590 171.484 C 314.669 171.184,314.669 170.691,314.590 170.391 C 314.512 170.090,314.448 170.336,314.448 170.938 M91.323 184.375 C 91.323 184.977,91.387 185.223,91.465 184.922 C 91.544 184.621,91.544 184.129,91.465 183.828 C 91.387 183.527,91.323 183.773,91.323 184.375 M91.635 191.250 C 91.635 191.852,91.699 192.098,91.778 191.797 C 91.857 191.496,91.857 191.004,91.778 190.703 C 91.699 190.402,91.635 190.648,91.635 191.250 M91.948 198.125 C 91.948 198.727,92.012 198.973,92.090 198.672 C 92.169 198.371,92.169 197.879,92.090 197.578 C 92.012 197.277,91.948 197.523,91.948 198.125 M92.260 205.000 C 92.260 205.602,92.324 205.848,92.403 205.547 C 92.482 205.246,92.482 204.754,92.403 204.453 C 92.324 204.152,92.260 204.398,92.260 205.000 M92.573 211.875 C 92.573 212.477,92.637 212.723,92.715 212.422 C 92.794 212.121,92.794 211.629,92.715 211.328 C 92.637 211.027,92.573 211.273,92.573 211.875 M312.260 215.313 C 312.260 215.914,312.324 216.160,312.403 215.859 C 312.482 215.559,312.482 215.066,312.403 214.766 C 312.324 214.465,312.260 214.711,312.260 215.313 M92.885 218.750 C 92.885 219.352,92.949 219.598,93.028 219.297 C 93.107 218.996,93.107 218.504,93.028 218.203 C 92.949 217.902,92.885 218.148,92.885 218.750 M93.198 225.625 C 93.198 226.227,93.262 226.473,93.340 226.172 C 93.419 225.871,93.419 225.379,93.340 225.078 C 93.262 224.777,93.198 225.023,93.198 225.625 M93.510 232.500 C 93.510 233.102,93.574 233.348,93.653 233.047 C 93.732 232.746,93.732 232.254,93.653 231.953 C 93.574 231.652,93.510 231.898,93.510 232.500 M93.823 239.375 C 93.823 239.977,93.887 240.223,93.965 239.922 C 94.044 239.621,94.044 239.129,93.965 238.828 C 93.887 238.527,93.823 238.773,93.823 239.375 M94.135 246.250 C 94.135 246.852,94.199 247.098,94.278 246.797 C 94.357 246.496,94.357 246.004,94.278 245.703 C 94.199 245.402,94.135 245.648,94.135 246.250 M310.073 259.688 C 310.073 260.289,310.137 260.535,310.215 260.234 C 310.294 259.934,310.294 259.441,310.215 259.141 C 310.137 258.840,310.073 259.086,310.073 259.688 M232.281 264.375 C 232.281 265.320,232.340 265.707,232.411 265.234 C 232.483 264.762,232.483 263.988,232.411 263.516 C 232.340 263.043,232.281 263.430,232.281 264.375 M307.885 304.063 C 307.885 304.664,307.949 304.910,308.028 304.609 C 308.107 304.309,308.107 303.816,308.028 303.516 C 307.949 303.215,307.885 303.461,307.885 304.063 M96.948 308.438 C 96.948 309.039,97.012 309.285,97.090 308.984 C 97.169 308.684,97.169 308.191,97.090 307.891 C 97.012 307.590,96.948 307.836,96.948 308.438 M104.063 325.781 C 104.646 326.383,105.193 326.875,105.279 326.875 C 105.365 326.875,104.958 326.383,104.375 325.781 C 103.792 325.180,103.245 324.688,103.159 324.688 C 103.073 324.688,103.479 325.180,104.063 325.781 " stroke="none" fill="#fcac9c" fill-rule="evenodd"></path><path id="path4" d="M165.927 92.109 L 164.219 93.906 166.016 92.198 C 167.685 90.611,167.956 90.313,167.724 90.313 C 167.675 90.313,166.866 91.121,165.927 92.109 M176.704 102.578 L 175.469 103.906 176.797 102.671 C 178.032 101.522,178.269 101.250,178.032 101.250 C 177.981 101.250,177.383 101.848,176.704 102.578 M89.448 144.688 C 89.448 145.289,89.512 145.535,89.590 145.234 C 89.669 144.934,89.669 144.441,89.590 144.141 C 89.512 143.840,89.448 144.086,89.448 144.688 M89.760 151.563 C 89.760 152.164,89.824 152.410,89.903 152.109 C 89.982 151.809,89.982 151.316,89.903 151.016 C 89.824 150.715,89.760 150.961,89.760 151.563 M90.073 158.438 C 90.073 159.039,90.137 159.285,90.215 158.984 C 90.294 158.684,90.294 158.191,90.215 157.891 C 90.137 157.590,90.073 157.836,90.073 158.438 M90.385 165.313 C 90.385 165.914,90.449 166.160,90.528 165.859 C 90.607 165.559,90.607 165.066,90.528 164.766 C 90.449 164.465,90.385 164.711,90.385 165.313 M90.698 172.188 C 90.698 172.789,90.762 173.035,90.840 172.734 C 90.919 172.434,90.919 171.941,90.840 171.641 C 90.762 171.340,90.698 171.586,90.698 172.188 M91.010 179.063 C 91.010 179.664,91.074 179.910,91.153 179.609 C 91.232 179.309,91.232 178.816,91.153 178.516 C 91.074 178.215,91.010 178.461,91.010 179.063 M172.642 180.703 L 171.406 182.031 172.734 180.796 C 173.970 179.647,174.206 179.375,173.970 179.375 C 173.919 179.375,173.321 179.973,172.642 180.703 M200.552 180.851 C 201.114 180.921,201.958 180.920,202.427 180.848 C 202.897 180.777,202.438 180.720,201.406 180.722 C 200.375 180.724,199.991 180.782,200.552 180.851 M176.016 201.406 C 176.020 202.094,176.084 202.338,176.159 201.949 C 176.233 201.561,176.230 200.998,176.152 200.699 C 176.074 200.401,176.013 200.719,176.016 201.406 M225.781 250.000 C 226.453 250.688,227.072 251.250,227.158 251.250 C 227.244 251.250,226.765 250.688,226.094 250.000 C 225.422 249.313,224.803 248.750,224.717 248.750 C 224.631 248.750,225.110 249.313,225.781 250.000 M94.448 255.000 C 94.448 255.602,94.512 255.848,94.590 255.547 C 94.669 255.246,94.669 254.754,94.590 254.453 C 94.512 254.152,94.448 254.398,94.448 255.000 M94.760 261.875 C 94.760 262.477,94.824 262.723,94.903 262.422 C 94.982 262.121,94.982 261.629,94.903 261.328 C 94.824 261.027,94.760 261.273,94.760 261.875 M95.073 268.750 C 95.073 269.352,95.137 269.598,95.215 269.297 C 95.294 268.996,95.294 268.504,95.215 268.203 C 95.137 267.902,95.073 268.148,95.073 268.750 M95.385 275.625 C 95.385 276.227,95.449 276.473,95.528 276.172 C 95.607 275.871,95.607 275.379,95.528 275.078 C 95.449 274.777,95.385 275.023,95.385 275.625 M226.387 278.203 L 225.469 279.219 226.484 278.301 C 227.043 277.796,227.500 277.339,227.500 277.285 C 227.500 277.044,227.242 277.256,226.387 278.203 M95.698 282.500 C 95.698 283.102,95.762 283.348,95.840 283.047 C 95.919 282.746,95.919 282.254,95.840 281.953 C 95.762 281.652,95.698 281.898,95.698 282.500 M234.671 287.109 L 233.594 288.281 234.766 287.204 C 235.856 286.202,236.081 285.938,235.843 285.938 C 235.790 285.938,235.263 286.465,234.671 287.109 M201.645 286.787 C 202.120 286.859,202.823 286.857,203.207 286.782 C 203.592 286.708,203.203 286.650,202.344 286.652 C 201.484 286.654,201.170 286.715,201.645 286.787 M96.010 289.375 C 96.010 289.977,96.074 290.223,96.153 289.922 C 96.232 289.621,96.232 289.129,96.153 288.828 C 96.074 288.527,96.010 288.773,96.010 289.375 M96.323 296.250 C 96.323 296.852,96.387 297.098,96.465 296.797 C 96.544 296.496,96.544 296.004,96.465 295.703 C 96.387 295.402,96.323 295.648,96.323 296.250 M203.832 298.349 C 204.307 298.421,205.011 298.419,205.395 298.345 C 205.779 298.271,205.391 298.212,204.531 298.214 C 203.672 298.217,203.357 298.277,203.832 298.349 M96.635 303.125 C 96.635 303.727,96.699 303.973,96.778 303.672 C 96.857 303.371,96.857 302.879,96.778 302.578 C 96.699 302.277,96.635 302.523,96.635 303.125 " stroke="none" fill="#fca491" fill-rule="evenodd"></path></g></svg>