<svg id="svg" version="1.1" xmlns="http://www.w3.org/2000/svg" xmlns:xlink="http://www.w3.org/1999/xlink" width="400" height="266.6666666666667" viewBox="0, 0, 400,266.6666666666667"><g id="svgg"><path id="path0" d="M62.083 103.680 C 59.454 104.188,57.116 104.956,55.333 105.896 C 54.829 106.162,54.218 106.484,53.976 106.610 C 53.733 106.737,53.443 106.951,53.330 107.087 C 53.218 107.222,53.061 107.333,52.981 107.333 C 52.833 107.333,52.455 107.629,51.284 108.662 C 50.670 109.203,49.007 111.181,48.543 111.920 C 47.785 113.130,46.862 115.111,46.720 115.833 C 46.675 116.063,46.513 116.625,46.361 117.083 C 45.929 118.381,45.982 122.180,46.455 123.873 C 47.035 125.948,47.862 127.715,49.083 129.493 C 49.452 130.029,52.631 133.133,53.034 133.350 C 53.272 133.479,54.093 133.931,54.858 134.356 C 55.624 134.781,56.737 135.331,57.333 135.579 C 57.929 135.827,58.737 136.173,59.129 136.348 C 59.521 136.523,59.943 136.667,60.066 136.667 C 60.188 136.667,60.655 136.807,61.103 136.979 C 61.550 137.151,62.404 137.441,63.000 137.623 C 63.596 137.805,64.646 138.125,65.333 138.335 C 66.021 138.544,66.935 138.855,67.364 139.024 C 67.794 139.194,68.223 139.333,68.319 139.333 C 68.477 139.333,71.288 140.674,72.372 141.266 C 75.010 142.708,75.959 146.129,74.271 148.112 C 73.641 148.852,73.143 149.333,73.007 149.333 C 72.921 149.333,72.790 149.433,72.717 149.555 C 72.643 149.677,72.208 149.974,71.750 150.213 C 68.319 152.010,64.171 152.035,59.917 150.285 C 58.403 149.663,56.000 148.454,56.000 148.315 C 56.000 147.603,55.023 147.867,53.628 148.956 C 53.303 149.209,52.871 149.529,52.667 149.667 C 52.072 150.067,51.108 150.790,50.792 151.073 C 50.631 151.216,50.463 151.333,50.418 151.333 C 50.373 151.333,50.013 151.577,49.618 151.875 C 49.223 152.173,48.435 152.752,47.867 153.163 C 46.616 154.065,46.617 154.053,47.708 155.106 C 54.491 161.654,64.467 164.206,73.333 161.661 C 73.929 161.490,74.604 161.299,74.833 161.237 C 75.063 161.175,75.775 160.882,76.417 160.586 C 77.058 160.289,77.696 160.000,77.833 159.944 C 78.911 159.499,81.040 157.895,82.355 156.536 C 87.581 151.139,88.408 143.686,84.448 137.667 C 82.581 134.828,79.784 132.000,78.844 132.000 C 78.762 132.000,78.669 131.936,78.639 131.858 C 78.436 131.337,72.589 128.974,68.917 127.929 C 61.040 125.687,57.909 123.548,57.922 120.417 C 57.943 115.544,65.480 112.802,72.083 115.264 C 72.725 115.503,73.512 115.799,73.833 115.920 C 74.755 116.270,76.716 117.328,77.094 117.680 C 77.673 118.218,77.577 118.266,80.941 115.764 C 81.322 115.481,81.799 115.138,82.002 115.000 C 82.205 114.862,82.622 114.563,82.929 114.333 C 83.235 114.104,84.089 113.475,84.826 112.935 C 86.415 111.771,86.388 111.891,85.292 110.847 C 83.669 109.302,83.089 108.832,81.500 107.778 C 75.763 103.974,68.501 102.441,62.083 103.680 M125.250 103.430 C 125.067 103.470,124.279 103.620,123.500 103.764 C 120.994 104.224,118.585 104.945,116.500 105.858 C 115.048 106.494,112.325 107.990,112.000 108.329 C 111.954 108.377,111.485 108.707,110.958 109.062 C 110.431 109.417,110.000 109.773,110.000 109.854 C 110.000 109.934,109.915 110.000,109.811 110.000 C 109.707 110.000,109.456 110.169,109.253 110.375 C 109.051 110.581,108.517 111.097,108.067 111.521 C 101.355 117.849,98.070 127.329,99.239 137.000 C 99.694 140.769,101.233 145.277,103.078 148.250 C 103.569 149.040,105.054 151.241,105.159 151.333 C 105.212 151.379,105.588 151.829,105.996 152.333 C 108.135 154.978,110.746 157.186,114.418 159.455 C 114.909 159.759,118.159 161.333,118.294 161.333 C 118.358 161.333,118.787 161.475,119.247 161.649 C 124.574 163.658,132.137 163.899,137.555 162.233 C 139.343 161.683,140.920 161.135,141.328 160.922 C 141.560 160.800,142.237 160.465,142.833 160.176 C 144.289 159.470,145.404 158.804,146.935 157.726 C 148.448 156.661,150.749 154.517,152.000 153.008 C 152.321 152.620,152.658 152.215,152.750 152.106 C 153.227 151.540,154.000 150.509,154.000 150.438 C 154.000 150.393,154.289 149.920,154.642 149.387 C 160.445 140.613,160.445 126.054,154.642 117.280 C 154.289 116.746,154.000 116.273,154.000 116.228 C 154.000 116.157,153.227 115.126,152.750 114.561 C 152.658 114.452,152.321 114.046,152.000 113.659 C 150.386 111.712,146.951 108.685,145.583 108.005 C 145.400 107.914,144.950 107.654,144.583 107.427 C 144.217 107.201,143.429 106.779,142.833 106.489 C 142.237 106.199,141.487 105.831,141.167 105.670 C 137.932 104.050,128.482 102.720,125.250 103.430 M267.333 103.418 C 267.196 103.451,266.202 103.638,265.124 103.834 C 263.207 104.181,259.635 105.233,258.714 105.720 C 258.459 105.855,257.762 106.202,257.167 106.491 C 255.711 107.197,254.596 107.863,253.065 108.941 C 251.552 110.006,249.251 112.150,248.000 113.659 C 247.679 114.046,247.342 114.452,247.250 114.561 C 246.773 115.126,246.000 116.157,246.000 116.228 C 246.000 116.273,245.713 116.746,245.363 117.280 C 242.010 122.382,240.341 130.199,241.151 137.000 C 242.124 145.164,246.600 152.796,253.250 157.630 C 254.886 158.819,259.446 161.333,259.966 161.333 C 260.052 161.333,260.488 161.475,260.936 161.647 C 266.859 163.931,275.431 163.866,281.814 161.489 C 283.923 160.703,287.461 158.901,288.000 158.337 C 288.046 158.289,288.515 157.960,289.042 157.605 C 289.569 157.250,290.000 156.894,290.000 156.813 C 290.000 156.733,290.085 156.667,290.189 156.667 C 290.293 156.667,290.542 156.498,290.741 156.292 C 290.940 156.085,291.474 155.569,291.927 155.143 C 294.240 152.971,296.366 150.117,297.804 147.250 C 298.472 145.920,298.595 145.620,299.388 143.417 C 300.812 139.456,301.322 134.191,300.749 129.357 C 300.515 127.379,300.399 126.844,299.637 124.250 C 299.069 122.314,297.188 118.189,296.800 118.028 C 296.727 117.997,296.667 117.900,296.667 117.811 C 296.667 116.723,291.419 110.883,288.974 109.250 C 288.837 109.158,288.168 108.709,287.487 108.251 C 286.126 107.335,285.846 107.172,284.500 106.506 C 282.879 105.705,282.051 105.333,281.882 105.333 C 281.792 105.333,281.487 105.218,281.204 105.077 C 278.876 103.916,269.791 102.829,267.333 103.418 M176.500 132.575 L 176.500 161.167 182.000 161.167 L 187.500 161.167 187.500 145.583 C 187.500 137.012,187.544 130.000,187.598 130.000 C 187.652 130.000,188.016 130.319,188.406 130.708 C 188.797 131.098,189.490 131.764,189.947 132.189 C 193.615 135.596,196.054 137.867,196.808 138.577 C 197.299 139.039,198.019 139.717,198.410 140.083 C 198.801 140.450,199.637 141.240,200.269 141.839 C 200.900 142.438,202.542 143.972,203.917 145.247 C 206.807 147.929,207.906 148.955,209.007 150.000 C 210.762 151.667,215.842 156.426,218.069 158.491 C 218.520 158.908,219.239 159.587,219.668 160.000 C 221.543 161.803,223.240 163.333,223.365 163.333 C 223.439 163.333,223.500 150.508,223.500 134.833 L 223.500 106.333 218.001 106.333 L 212.502 106.333 212.459 121.918 L 212.417 137.502 211.500 136.621 C 210.996 136.137,209.458 134.697,208.083 133.422 C 204.592 130.184,204.089 129.711,201.060 126.829 C 200.431 126.231,198.792 124.698,197.417 123.422 C 194.562 120.774,193.447 119.731,192.330 118.667 C 191.410 117.790,190.780 117.202,187.319 113.984 C 184.676 111.527,183.673 110.587,182.002 109.000 C 178.927 106.081,176.933 104.234,176.731 104.117 C 176.535 104.003,176.500 108.278,176.500 132.575 M330.417 104.244 C 329.683 104.372,328.610 104.559,328.032 104.660 C 327.454 104.761,326.704 104.947,326.365 105.074 C 326.027 105.201,325.533 105.353,325.267 105.412 C 324.816 105.512,322.663 106.449,321.917 106.871 C 321.733 106.974,321.431 107.140,321.245 107.238 C 313.687 111.229,310.447 122.630,315.084 128.917 C 316.979 131.486,321.500 134.608,325.417 136.054 C 326.747 136.545,328.944 137.290,330.167 137.664 C 330.854 137.874,331.904 138.196,332.500 138.379 C 333.996 138.837,335.286 139.299,336.129 139.679 C 336.521 139.856,336.934 140.002,337.046 140.004 C 337.158 140.006,337.438 140.154,337.667 140.333 C 337.896 140.513,338.174 140.661,338.284 140.663 C 338.510 140.667,339.301 141.182,340.321 141.990 C 343.138 144.221,342.696 147.632,339.300 149.875 C 338.641 150.310,338.013 150.667,337.905 150.667 C 337.797 150.667,337.381 150.810,336.980 150.984 C 334.087 152.244,329.340 151.570,324.616 149.229 C 322.641 148.250,322.616 148.257,319.059 150.903 C 318.678 151.185,318.201 151.529,317.998 151.667 C 317.795 151.804,317.378 152.104,317.071 152.333 C 316.765 152.563,315.911 153.192,315.174 153.732 C 313.585 154.896,313.612 154.775,314.708 155.820 C 316.331 157.365,316.911 157.835,318.500 158.888 C 326.364 164.104,336.641 164.856,344.583 160.797 C 346.368 159.885,346.462 159.830,346.670 159.580 C 346.782 159.444,346.939 159.333,347.019 159.333 C 347.167 159.333,347.545 159.037,348.716 158.005 C 349.330 157.463,350.993 155.486,351.457 154.746 C 352.215 153.536,353.138 151.556,353.280 150.833 C 353.325 150.604,353.487 150.042,353.639 149.583 C 354.071 148.286,354.018 144.487,353.545 142.794 C 352.965 140.719,352.138 138.951,350.917 137.174 C 350.548 136.637,347.369 133.534,346.966 133.316 C 346.728 133.188,345.907 132.736,345.142 132.311 C 344.376 131.886,343.262 131.335,342.667 131.088 C 342.071 130.840,341.263 130.494,340.871 130.319 C 340.479 130.143,340.067 130.000,339.957 130.000 C 339.847 130.000,339.380 129.858,338.920 129.683 C 338.460 129.509,337.596 129.220,337.000 129.040 C 334.095 128.164,333.357 127.928,332.636 127.642 C 332.206 127.472,331.778 127.333,331.683 127.333 C 331.530 127.333,328.818 126.038,327.628 125.397 C 325.009 123.985,324.037 120.543,325.703 118.579 C 325.975 118.258,326.922 117.309,327.222 117.058 C 329.935 114.781,335.911 114.493,340.250 116.429 C 342.080 117.246,344.000 118.230,344.000 118.352 C 344.000 119.063,344.977 118.799,346.372 117.711 C 346.697 117.457,347.129 117.138,347.333 117.000 C 347.928 116.599,348.892 115.876,349.208 115.594 C 349.369 115.451,349.537 115.333,349.582 115.333 C 349.627 115.333,349.987 115.090,350.382 114.792 C 350.777 114.494,351.565 113.914,352.133 113.504 C 353.384 112.602,353.383 112.614,352.292 111.561 C 346.556 106.023,337.533 103.005,330.417 104.244 M132.250 114.585 C 134.040 114.878,136.135 115.538,137.417 116.214 C 138.941 117.017,139.633 117.424,139.927 117.689 C 140.117 117.860,140.360 118.000,140.469 118.000 C 140.578 118.000,140.667 118.058,140.667 118.128 C 140.667 118.199,141.045 118.555,141.506 118.920 C 142.333 119.573,144.461 121.933,144.711 122.473 C 144.781 122.626,145.060 123.087,145.330 123.500 C 148.886 128.932,148.886 137.735,145.330 143.167 C 145.060 143.579,144.781 144.041,144.711 144.193 C 144.461 144.734,142.333 147.094,141.506 147.747 C 141.045 148.112,140.667 148.468,140.667 148.538 C 140.667 148.609,140.578 148.667,140.469 148.667 C 140.360 148.667,140.117 148.806,139.927 148.977 C 139.633 149.243,138.941 149.650,137.417 150.453 C 135.262 151.588,132.007 152.325,129.124 152.330 C 127.266 152.334,124.518 151.963,123.620 151.588 C 123.285 151.448,122.897 151.333,122.759 151.333 C 121.159 151.333,115.597 147.310,113.746 144.814 C 110.578 140.543,109.241 134.393,110.397 129.417 C 110.971 126.945,111.753 124.984,112.882 123.186 C 114.644 120.382,117.461 117.833,120.602 116.201 C 123.677 114.604,128.382 113.951,132.250 114.585 M274.146 114.577 C 275.954 114.852,278.046 115.499,279.398 116.201 C 281.782 117.439,284.867 119.983,286.254 121.853 C 290.316 127.329,291.176 135.664,288.248 141.166 C 288.126 141.396,287.984 141.696,287.933 141.833 C 287.342 143.425,284.534 146.729,282.409 148.333 C 281.863 148.745,281.379 149.120,281.333 149.166 C 280.963 149.538,277.680 151.118,276.475 151.505 C 272.174 152.883,266.360 152.443,262.583 150.453 C 261.059 149.650,260.367 149.243,260.073 148.977 C 259.883 148.806,259.640 148.667,259.531 148.667 C 259.422 148.667,259.333 148.609,259.333 148.538 C 259.333 148.468,258.955 148.112,258.494 147.747 C 257.667 147.094,255.539 144.734,255.289 144.193 C 255.219 144.041,254.940 143.579,254.670 143.167 C 251.114 137.735,251.114 128.932,254.670 123.500 C 254.940 123.087,255.219 122.626,255.289 122.473 C 255.539 121.933,257.667 119.573,258.494 118.920 C 258.955 118.555,259.333 118.199,259.333 118.128 C 259.333 118.058,259.422 118.000,259.531 118.000 C 259.640 118.000,259.883 117.860,260.073 117.689 C 260.367 117.424,261.059 117.017,262.583 116.214 C 265.621 114.613,270.161 113.971,274.146 114.577 " stroke="none" fill="#040404" fill-rule="evenodd"></path><path id="path1" d="" stroke="none" fill="#080404" fill-rule="evenodd"></path><path id="path2" d="" stroke="none" fill="#080404" fill-rule="evenodd"></path><path id="path3" d="" stroke="none" fill="#080404" fill-rule="evenodd"></path><path id="path4" d="" stroke="none" fill="#080404" fill-rule="evenodd"></path></g></svg>