<svg id="svg" version="1.1" xmlns="http://www.w3.org/2000/svg" xmlns:xlink="http://www.w3.org/1999/xlink" width="400" height="400" viewBox="0, 0, 400,400"><g id="svgg"><path id="path0" d="M142.000 70.014 C 140.570 70.417,138.826 70.758,138.124 70.773 C 137.422 70.788,136.739 70.975,136.607 71.189 C 136.474 71.403,135.609 71.780,134.683 72.026 C 133.757 72.273,132.730 72.714,132.400 73.006 C 132.070 73.298,131.312 73.659,130.716 73.808 C 130.120 73.957,129.423 74.331,129.167 74.639 C 128.911 74.948,128.489 75.200,128.229 75.200 C 127.800 75.200,126.786 75.856,124.061 77.897 C 121.976 79.458,116.903 84.814,115.405 87.035 C 114.528 88.336,113.703 89.490,113.572 89.600 C 113.149 89.954,111.200 94.331,111.200 94.926 C 111.200 95.243,110.944 95.714,110.631 95.974 C 110.318 96.234,109.940 97.201,109.790 98.123 C 109.640 99.045,109.221 100.430,108.859 101.200 C 107.962 103.107,107.871 119.881,108.752 120.943 C 109.056 121.309,109.461 122.461,109.652 123.504 C 109.843 124.547,110.251 125.940,110.559 126.600 C 112.929 131.679,113.396 132.624,113.627 132.800 C 113.771 132.910,114.188 133.585,114.554 134.300 C 114.921 135.015,115.396 135.600,115.610 135.600 C 115.825 135.600,116.000 135.859,116.000 136.174 C 116.000 137.456,124.767 145.633,127.300 146.714 C 127.905 146.972,128.400 147.352,128.400 147.560 C 128.400 147.767,128.928 148.052,129.572 148.194 C 130.217 148.336,130.959 148.710,131.221 149.026 C 131.483 149.342,131.994 149.600,132.355 149.600 C 132.716 149.600,133.640 149.937,134.408 150.348 C 135.176 150.760,136.574 151.227,137.516 151.386 C 138.457 151.545,139.806 151.964,140.514 152.318 C 142.227 153.175,157.229 153.262,158.771 152.424 C 159.305 152.133,160.823 151.644,162.145 151.335 C 163.467 151.027,164.740 150.621,164.974 150.433 C 165.208 150.246,165.973 149.970,166.672 149.820 C 167.372 149.671,168.150 149.302,168.400 149.000 C 168.650 148.698,169.383 148.336,170.028 148.194 C 170.672 148.052,171.200 147.773,171.200 147.574 C 171.200 147.374,171.785 146.966,172.500 146.667 C 173.215 146.368,174.047 145.826,174.349 145.462 C 174.651 145.098,175.048 144.800,175.231 144.800 C 175.414 144.800,176.578 143.810,177.818 142.600 C 179.057 141.390,180.223 140.400,180.409 140.400 C 180.594 140.400,180.860 140.040,181.000 139.600 C 181.140 139.160,181.404 138.800,181.588 138.800 C 181.880 138.800,183.427 136.706,185.688 133.251 C 186.746 131.634,188.657 127.538,188.977 126.204 C 189.135 125.546,189.419 124.912,189.610 124.794 C 189.800 124.676,190.153 123.343,190.395 121.832 C 190.636 120.321,191.006 118.762,191.217 118.368 C 191.847 117.191,191.683 105.265,191.012 103.400 C 190.695 102.520,190.427 101.257,190.418 100.594 C 190.408 99.931,190.040 98.716,189.600 97.896 C 189.160 97.075,188.800 95.974,188.800 95.450 C 188.800 94.927,188.542 94.283,188.226 94.021 C 187.910 93.759,187.536 93.019,187.395 92.377 C 187.254 91.735,186.955 91.096,186.730 90.957 C 186.505 90.818,186.114 90.230,185.860 89.651 C 185.185 88.105,182.845 84.965,180.900 82.994 C 179.965 82.047,179.200 81.075,179.200 80.836 C 179.200 80.596,178.994 80.400,178.742 80.400 C 178.490 80.400,177.905 80.023,177.442 79.562 C 176.028 78.156,171.935 75.200,171.401 75.200 C 171.124 75.200,170.683 74.942,170.421 74.626 C 170.159 74.310,169.430 73.938,168.800 73.800 C 168.170 73.662,167.441 73.290,167.179 72.974 C 166.917 72.658,166.402 72.400,166.036 72.400 C 165.669 72.400,164.715 72.066,163.915 71.659 C 163.115 71.251,161.502 70.800,160.330 70.657 C 159.159 70.514,157.480 70.135,156.600 69.816 C 154.204 68.946,145.367 69.066,142.000 70.014 M345.600 70.014 C 344.170 70.417,342.543 70.758,341.985 70.773 C 341.426 70.788,340.263 71.160,339.400 71.600 C 338.537 72.040,337.531 72.400,337.164 72.400 C 336.798 72.400,336.283 72.658,336.021 72.974 C 335.759 73.290,335.030 73.662,334.400 73.800 C 333.770 73.938,333.041 74.310,332.779 74.626 C 332.517 74.942,332.079 75.200,331.807 75.200 C 329.619 75.200,319.035 85.773,317.340 89.651 C 317.086 90.230,316.681 90.826,316.440 90.976 C 316.198 91.125,316.000 91.569,316.000 91.962 C 316.000 92.356,315.640 93.093,315.200 93.600 C 314.760 94.107,314.400 94.905,314.400 95.372 C 314.400 95.840,314.137 96.597,313.817 97.055 C 313.496 97.513,313.038 99.109,312.800 100.602 C 312.561 102.095,312.190 103.645,311.974 104.048 C 311.462 105.006,311.412 117.296,311.917 118.258 C 312.131 118.666,312.523 120.305,312.789 121.900 C 313.055 123.495,313.415 124.800,313.589 124.800 C 313.763 124.800,314.114 125.631,314.370 126.646 C 314.625 127.661,315.097 128.754,315.417 129.074 C 315.738 129.395,316.000 129.980,316.000 130.375 C 316.000 130.769,316.315 131.523,316.700 132.051 C 317.085 132.578,317.580 133.301,317.800 133.658 C 319.194 135.919,321.329 138.800,321.612 138.800 C 321.796 138.800,322.060 139.160,322.200 139.600 C 322.340 140.040,322.606 140.400,322.791 140.400 C 322.977 140.400,324.143 141.390,325.382 142.600 C 326.622 143.810,327.763 144.800,327.918 144.800 C 328.073 144.801,328.723 145.251,329.362 145.800 C 330.001 146.350,330.772 146.800,331.075 146.800 C 331.377 146.800,331.724 147.059,331.846 147.376 C 331.967 147.692,332.579 148.064,333.206 148.201 C 333.832 148.339,334.559 148.710,334.821 149.026 C 335.083 149.342,335.594 149.600,335.955 149.600 C 336.316 149.600,337.239 149.933,338.006 150.339 C 338.773 150.746,340.201 151.204,341.180 151.357 C 342.159 151.510,343.186 151.823,343.462 152.052 C 344.896 153.241,360.508 153.362,362.800 152.201 C 363.350 151.922,364.610 151.566,365.600 151.409 C 366.590 151.252,367.763 150.894,368.206 150.614 C 368.649 150.334,369.582 149.980,370.278 149.827 C 370.975 149.674,371.750 149.302,372.000 149.000 C 372.250 148.698,372.983 148.336,373.628 148.194 C 374.272 148.052,374.800 147.767,374.800 147.560 C 374.800 147.352,375.295 146.972,375.900 146.714 C 377.572 146.000,380.259 143.785,383.800 140.201 C 387.040 136.921,387.623 136.200,388.485 134.400 C 388.748 133.850,389.287 133.078,389.682 132.684 C 390.077 132.291,390.400 131.638,390.400 131.233 C 390.400 130.829,390.665 130.278,390.989 130.009 C 391.314 129.740,391.692 128.914,391.831 128.174 C 391.970 127.434,392.326 126.627,392.622 126.382 C 392.918 126.136,393.279 125.094,393.424 124.067 C 393.568 123.040,393.982 121.750,394.343 121.200 C 395.315 119.720,395.317 103.679,394.346 101.600 C 393.986 100.830,393.572 99.360,393.426 98.333 C 393.280 97.306,392.900 96.249,392.580 95.984 C 392.261 95.719,392.000 95.227,392.000 94.891 C 392.000 94.051,389.916 89.874,389.300 89.480 C 389.025 89.304,388.800 88.998,388.800 88.800 C 388.800 87.618,383.021 81.013,379.354 78.003 C 377.298 76.316,372.687 73.600,371.878 73.600 C 371.559 73.600,371.090 73.350,370.837 73.044 C 370.583 72.739,369.571 72.286,368.588 72.039 C 367.605 71.791,366.800 71.411,366.800 71.194 C 366.800 70.977,366.203 70.800,365.473 70.800 C 364.743 70.800,362.808 70.444,361.173 70.009 C 357.191 68.951,349.370 68.953,345.600 70.014 M182.431 103.631 C 183.565 104.765,183.450 118.563,182.289 120.600 C 181.913 121.260,181.604 122.181,181.602 122.646 C 181.601 123.111,181.240 123.950,180.800 124.509 C 180.360 125.069,180.000 125.736,180.000 125.992 C 180.000 126.682,177.982 130.000,177.562 130.000 C 177.363 130.000,177.200 130.244,177.200 130.541 C 177.200 131.292,170.861 138.000,170.151 138.000 C 169.834 138.000,169.476 138.257,169.355 138.572 C 169.235 138.887,168.610 139.327,167.968 139.551 C 167.326 139.775,166.800 140.133,166.800 140.347 C 166.800 140.561,166.272 140.852,165.628 140.994 C 164.983 141.136,164.256 141.491,164.013 141.784 C 163.770 142.077,162.922 142.438,162.127 142.587 C 161.333 142.736,160.304 143.098,159.842 143.391 C 156.864 145.276,140.441 145.208,139.266 143.307 C 139.119 143.068,138.330 142.748,137.513 142.595 C 136.697 142.442,135.830 142.077,135.587 141.784 C 135.344 141.491,134.617 141.136,133.972 140.994 C 133.328 140.852,132.800 140.573,132.800 140.374 C 132.800 140.174,132.215 139.755,131.500 139.443 C 130.785 139.130,129.480 138.229,128.600 137.439 C 125.274 134.456,124.800 134.009,124.800 133.857 C 124.800 133.771,124.080 132.913,123.200 131.951 C 122.320 130.988,121.600 129.988,121.600 129.729 C 121.600 129.469,121.372 129.019,121.094 128.729 C 120.373 127.975,118.400 124.036,118.400 123.349 C 118.400 123.032,118.106 122.324,117.747 121.776 C 117.388 121.228,116.956 119.659,116.787 118.290 C 116.617 116.920,116.261 114.623,115.994 113.185 C 115.584 110.969,115.608 110.187,116.155 108.053 C 116.510 106.668,116.800 105.136,116.800 104.648 C 116.800 102.750,115.905 102.800,149.680 102.800 C 181.461 102.800,181.604 102.804,182.431 103.631 M385.660 103.300 C 387.133 104.502,387.930 111.495,387.000 115.065 C 386.670 116.331,386.400 117.918,386.400 118.590 C 386.400 119.262,386.040 120.484,385.600 121.304 C 385.160 122.125,384.799 123.113,384.797 123.499 C 384.796 123.884,384.437 124.740,384.000 125.400 C 383.563 126.060,383.204 126.921,383.203 127.313 C 383.201 127.704,382.937 128.126,382.615 128.250 C 382.294 128.373,381.909 128.862,381.761 129.337 C 381.313 130.773,377.693 134.904,375.117 136.917 C 374.613 137.311,373.660 138.076,373.000 138.617 C 372.340 139.157,371.594 139.599,371.343 139.600 C 371.091 139.600,370.788 139.853,370.670 140.162 C 370.551 140.472,369.914 140.843,369.255 140.988 C 368.595 141.133,367.856 141.491,367.613 141.784 C 367.370 142.077,366.503 142.441,365.686 142.594 C 364.869 142.747,363.954 143.075,363.653 143.324 C 361.337 145.238,344.051 145.224,342.866 143.307 C 342.719 143.068,341.930 142.748,341.113 142.595 C 340.297 142.442,339.430 142.077,339.187 141.784 C 338.944 141.491,338.205 141.133,337.545 140.988 C 336.886 140.843,336.249 140.472,336.130 140.162 C 336.012 139.853,335.692 139.600,335.421 139.600 C 334.372 139.600,326.000 131.614,326.000 130.613 C 326.000 130.323,325.730 129.982,325.400 129.855 C 325.070 129.729,324.800 129.362,324.800 129.041 C 324.800 128.720,324.570 128.219,324.288 127.929 C 323.595 127.213,321.881 123.489,321.017 120.823 C 319.460 116.013,319.462 104.475,321.021 103.335 C 322.063 102.574,384.727 102.539,385.660 103.300 M16.200 166.289 C 15.760 166.398,15.220 166.626,15.000 166.797 C 14.780 166.968,14.027 167.230,13.328 167.380 C 12.628 167.529,11.841 167.910,11.579 168.226 C 11.317 168.542,10.870 168.800,10.586 168.800 C 9.989 168.800,5.207 173.899,5.186 174.558 C 5.179 174.801,4.825 175.720,4.400 176.600 C 3.430 178.608,3.247 186.507,4.140 187.811 C 4.437 188.245,4.812 189.139,4.972 189.797 C 5.133 190.455,5.516 191.265,5.824 191.597 C 7.431 193.326,8.400 194.553,8.400 194.858 C 8.400 195.046,8.676 195.200,9.013 195.200 C 9.349 195.200,9.729 195.470,9.855 195.800 C 9.982 196.130,10.312 196.400,10.589 196.400 C 10.866 196.400,11.521 196.735,12.046 197.144 C 13.908 198.595,17.568 198.958,32.639 199.184 C 43.939 199.353,47.220 199.518,47.730 199.941 C 48.326 200.436,48.390 205.913,48.491 264.341 L 48.600 328.200 49.706 330.452 C 51.616 334.340,56.633 338.794,59.112 338.802 C 59.491 338.804,60.316 339.074,60.946 339.402 C 64.485 341.248,72.674 339.002,76.264 335.200 C 78.920 332.387,79.200 332.034,79.200 331.494 C 79.200 331.216,79.605 330.271,80.100 329.394 L 81.000 327.800 81.107 264.013 C 81.180 220.909,81.348 200.092,81.627 199.813 C 81.885 199.554,87.361 199.310,96.319 199.160 C 111.098 198.911,114.104 198.606,115.932 197.168 C 116.469 196.745,117.150 196.400,117.447 196.400 C 118.108 196.400,121.376 193.266,121.723 192.300 C 121.862 191.915,122.161 191.600,122.387 191.600 C 122.614 191.600,122.802 191.375,122.804 191.100 C 122.806 190.825,123.250 189.700,123.791 188.600 C 125.108 185.924,125.223 179.531,124.000 177.000 C 123.575 176.120,123.221 175.212,123.214 174.981 C 123.206 174.751,122.885 174.147,122.500 173.638 C 119.500 169.675,117.408 168.116,113.398 166.858 L 110.665 166.000 63.833 166.046 C 38.075 166.072,16.640 166.181,16.200 166.289 M146.200 166.267 C 145.760 166.388,145.220 166.626,145.000 166.797 C 144.780 166.968,143.977 167.241,143.216 167.404 C 141.538 167.763,140.004 168.814,137.674 171.200 C 135.060 173.878,134.800 174.211,134.800 174.880 C 134.800 175.216,134.395 176.007,133.900 176.636 L 133.000 177.780 133.000 252.790 L 133.000 327.800 133.900 329.394 C 134.395 330.271,134.800 331.178,134.800 331.409 C 134.800 332.986,141.967 338.795,143.921 338.802 C 144.295 338.804,145.116 339.074,145.746 339.402 C 148.803 340.997,158.948 338.752,160.520 336.133 C 160.696 335.840,161.089 335.600,161.393 335.600 C 161.697 335.600,162.060 335.240,162.200 334.800 C 162.340 334.360,162.604 334.000,162.787 334.000 C 163.241 334.000,164.768 331.434,165.763 329.000 C 166.836 326.374,167.301 179.963,166.241 178.289 C 165.932 177.800,165.561 176.834,165.417 176.141 C 165.273 175.449,164.805 174.566,164.377 174.179 C 163.950 173.793,163.600 173.228,163.600 172.925 C 163.600 172.623,163.330 172.271,163.000 172.145 C 162.670 172.018,162.400 171.676,162.400 171.384 C 162.400 171.093,162.057 170.745,161.637 170.612 C 161.217 170.479,160.773 170.106,160.650 169.785 C 160.526 169.463,160.171 169.200,159.862 169.200 C 159.552 169.200,159.075 168.931,158.802 168.602 C 158.528 168.273,157.561 167.791,156.653 167.532 C 155.744 167.272,154.759 166.876,154.464 166.651 C 153.883 166.208,147.501 165.911,146.200 166.267 M201.600 166.911 C 195.957 168.891,190.857 174.046,190.786 177.840 C 190.778 178.258,190.514 179.050,190.200 179.600 C 189.356 181.076,189.310 324.673,190.153 326.320 C 190.457 326.914,190.833 328.165,190.988 329.100 C 191.143 330.035,191.413 330.800,191.587 330.800 C 191.761 330.800,192.122 331.329,192.390 331.976 C 193.416 334.453,198.973 338.795,201.127 338.802 C 201.497 338.804,202.316 339.074,202.946 339.402 C 205.496 340.732,212.296 339.676,216.019 337.371 C 217.877 336.220,221.600 332.406,221.600 331.653 C 221.600 331.328,221.899 330.733,222.264 330.330 C 223.448 329.021,223.548 326.249,223.583 293.509 C 223.617 262.141,223.640 261.207,224.383 260.809 C 225.544 260.188,225.823 260.285,227.266 261.808 C 228.000 262.582,231.390 266.074,234.800 269.566 C 238.210 273.059,244.510 279.565,248.800 284.024 C 253.090 288.483,258.040 293.624,259.800 295.448 C 261.560 297.272,263.209 298.997,263.464 299.282 C 263.719 299.567,264.754 300.594,265.764 301.565 C 266.774 302.536,267.600 303.468,267.600 303.638 C 267.600 303.807,267.960 304.060,268.400 304.200 C 268.840 304.340,269.200 304.624,269.200 304.831 C 269.200 305.038,271.315 307.345,273.900 309.957 C 276.485 312.568,279.087 315.222,279.683 315.853 C 280.279 316.484,280.953 317.180,281.180 317.400 C 281.408 317.620,283.711 319.984,286.297 322.653 C 297.200 333.903,300.941 337.600,301.423 337.600 C 301.704 337.600,301.993 337.744,302.067 337.920 C 302.573 339.134,311.935 340.676,312.570 339.649 C 312.689 339.456,313.614 339.090,314.625 338.835 C 316.763 338.297,316.939 338.175,320.179 335.000 C 324.912 330.362,327.004 319.632,323.872 316.058 C 323.554 315.696,323.173 315.001,323.024 314.513 C 322.679 313.379,321.462 312.007,314.600 305.013 C 311.520 301.874,305.130 295.309,300.400 290.423 C 295.670 285.538,289.840 279.529,287.444 277.070 C 285.048 274.612,282.822 272.195,282.498 271.700 C 282.173 271.205,281.757 270.800,281.572 270.800 C 281.236 270.800,279.200 268.910,279.200 268.599 C 279.200 268.508,277.445 266.644,275.300 264.457 C 257.912 246.727,258.024 246.856,258.800 245.600 C 258.966 245.331,271.454 232.751,286.551 217.643 C 301.648 202.536,314.000 189.888,314.000 189.537 C 314.000 189.185,314.258 188.683,314.574 188.421 C 314.890 188.159,315.257 187.372,315.390 186.672 C 315.522 185.973,315.829 184.630,316.071 183.688 C 316.604 181.614,315.554 175.988,314.347 174.446 C 313.936 173.921,313.600 173.322,313.600 173.115 C 313.600 172.535,310.349 169.613,309.000 168.979 C 308.340 168.670,307.530 168.245,307.200 168.037 C 303.766 165.864,295.139 165.858,291.600 168.024 C 291.270 168.226,290.319 168.760,289.487 169.210 C 288.655 169.661,274.033 183.973,256.994 201.015 C 237.746 220.266,225.727 232.000,225.256 232.000 C 223.650 232.000,223.636 231.787,223.516 204.379 C 223.411 180.359,223.335 177.684,222.728 176.600 C 222.358 175.940,221.786 174.825,221.457 174.121 C 220.781 172.677,217.451 169.334,216.335 168.979 C 215.931 168.851,215.600 168.585,215.600 168.389 C 215.600 168.193,214.835 167.813,213.900 167.546 C 212.965 167.279,211.974 166.889,211.698 166.680 C 210.552 165.811,204.329 165.953,201.600 166.911 M347.832 166.991 C 346.309 167.546,344.765 168.270,344.400 168.600 C 344.035 168.930,343.592 169.200,343.416 169.200 C 342.957 169.200,339.600 172.618,339.600 173.085 C 339.600 173.300,339.244 173.799,338.808 174.193 C 338.372 174.587,337.897 175.560,337.751 176.355 C 337.606 177.150,337.242 178.155,336.943 178.589 C 336.490 179.247,336.400 191.564,336.402 252.589 L 336.403 325.800 337.333 328.400 C 338.415 331.426,339.791 333.834,340.618 334.152 C 340.938 334.274,341.200 334.651,341.200 334.987 C 341.200 335.324,341.461 335.600,341.780 335.600 C 342.099 335.600,342.504 335.840,342.680 336.133 C 344.318 338.861,353.266 340.771,357.746 339.348 C 362.118 337.960,368.400 333.298,368.400 331.443 C 368.400 331.193,368.805 330.271,369.300 329.394 L 370.200 327.800 370.200 253.000 L 370.200 178.200 369.300 176.753 C 368.805 175.957,368.400 175.072,368.400 174.786 C 368.400 174.213,368.094 173.830,365.526 171.200 C 363.196 168.814,361.662 167.763,359.984 167.404 C 359.223 167.241,358.359 166.913,358.064 166.675 C 356.886 165.724,350.795 165.912,347.832 166.991 " stroke="none" fill="#9ce3fc" fill-rule="evenodd"></path><path id="path1" d="M0.000 200.000 L 0.000 400.000 200.000 400.000 L 400.000 400.000 400.000 200.000 L 400.000 0.000 200.000 0.000 L 0.000 0.000 0.000 200.000 M155.355 68.021 C 159.143 68.458,163.417 69.569,166.244 70.853 C 167.148 71.264,168.071 71.600,168.295 71.600 C 168.519 71.600,168.917 71.858,169.179 72.174 C 169.441 72.490,170.195 72.867,170.855 73.012 C 171.514 73.157,172.151 73.528,172.270 73.838 C 172.388 74.147,172.701 74.400,172.964 74.400 C 173.568 74.400,178.800 78.396,178.800 78.857 C 178.800 79.046,178.978 79.200,179.197 79.200 C 179.415 79.200,180.129 79.785,180.785 80.500 C 184.724 84.797,186.798 87.605,187.874 90.100 C 188.230 90.925,188.674 91.600,188.861 91.600 C 189.047 91.600,189.202 91.825,189.204 92.100 C 189.206 92.375,189.650 93.500,190.191 94.600 C 190.732 95.700,191.181 97.014,191.187 97.520 C 191.194 98.026,191.478 98.978,191.818 99.635 C 193.137 102.185,193.519 116.518,192.384 120.858 C 191.413 124.571,190.752 126.713,190.241 127.800 C 189.931 128.460,189.480 129.450,189.238 130.000 C 187.565 133.803,183.364 139.533,180.015 142.577 C 179.034 143.470,177.843 144.605,177.369 145.100 C 176.896 145.595,176.375 146.000,176.212 146.000 C 176.049 146.000,175.259 146.517,174.458 147.149 C 172.728 148.513,166.212 152.000,165.394 152.000 C 165.079 152.000,164.052 152.342,163.111 152.760 C 159.869 154.201,150.251 155.289,145.600 154.741 C 141.509 154.258,136.752 153.212,135.885 152.604 C 135.410 152.272,134.693 152.000,134.290 152.000 C 133.664 152.000,131.979 151.256,129.600 149.929 C 129.270 149.745,128.550 149.380,128.000 149.119 C 127.450 148.858,126.280 148.088,125.400 147.408 C 124.520 146.728,123.350 145.880,122.800 145.524 C 121.348 144.583,117.176 140.461,115.793 138.600 C 115.140 137.720,114.452 136.889,114.266 136.754 C 113.873 136.468,113.076 135.136,112.217 133.327 C 111.884 132.627,111.443 131.950,111.237 131.823 C 111.030 131.695,110.746 131.065,110.605 130.423 C 110.464 129.781,110.095 129.045,109.785 128.787 C 109.475 128.530,109.099 127.663,108.950 126.860 C 108.801 126.057,108.456 125.040,108.183 124.600 C 107.910 124.160,107.565 122.900,107.416 121.800 C 107.267 120.700,106.888 118.912,106.573 117.827 C 105.802 115.172,105.805 107.008,106.577 104.714 C 106.895 103.771,107.282 102.010,107.438 100.800 C 107.595 99.590,107.945 98.240,108.216 97.800 C 108.488 97.360,108.825 96.343,108.966 95.540 C 109.106 94.737,109.475 93.870,109.785 93.613 C 110.095 93.355,110.467 92.605,110.612 91.945 C 110.757 91.286,111.128 90.649,111.438 90.530 C 111.747 90.412,112.000 90.028,112.000 89.679 C 112.000 88.967,113.923 85.975,114.699 85.480 C 114.974 85.304,115.200 84.940,115.200 84.671 C 115.200 84.054,121.552 77.600,122.159 77.600 C 122.406 77.600,122.832 77.240,123.107 76.800 C 123.382 76.360,123.875 76.000,124.203 76.000 C 124.532 76.000,124.800 75.825,124.800 75.610 C 124.800 75.396,125.385 74.921,126.100 74.554 C 126.815 74.188,127.490 73.777,127.600 73.640 C 127.801 73.391,131.552 71.553,133.800 70.602 C 139.755 68.083,147.673 67.134,155.355 68.021 M359.179 68.025 C 362.812 68.477,367.136 69.623,369.844 70.853 C 370.748 71.264,371.652 71.600,371.853 71.600 C 372.054 71.600,373.154 72.216,374.298 72.969 C 375.441 73.723,376.708 74.444,377.114 74.573 C 377.519 74.701,378.537 75.435,379.376 76.203 C 380.214 76.971,381.033 77.600,381.195 77.600 C 381.695 77.600,388.000 84.151,388.000 84.671 C 388.000 84.940,388.226 85.304,388.501 85.480 C 389.084 85.852,391.200 88.893,391.200 89.358 C 391.200 89.532,391.560 90.131,392.000 90.691 C 392.440 91.250,392.800 92.022,392.800 92.405 C 392.800 92.788,393.051 93.310,393.358 93.565 C 393.665 93.820,394.038 94.678,394.187 95.473 C 394.336 96.267,394.704 97.296,395.003 97.758 C 395.303 98.221,395.726 99.770,395.942 101.200 C 396.159 102.630,396.526 104.520,396.759 105.400 C 397.373 107.727,397.300 115.101,396.640 117.427 C 396.333 118.512,395.962 120.390,395.816 121.600 C 395.671 122.810,395.320 124.160,395.036 124.600 C 394.753 125.040,394.399 126.057,394.250 126.860 C 394.101 127.663,393.714 128.540,393.389 128.809 C 393.065 129.078,392.800 129.504,392.800 129.755 C 392.800 130.515,389.777 135.838,388.799 136.800 C 388.687 136.910,388.058 137.720,387.401 138.600 C 385.866 140.658,380.390 146.000,379.817 146.000 C 379.575 146.000,379.070 146.360,378.693 146.800 C 378.316 147.240,377.736 147.600,377.404 147.600 C 377.072 147.600,376.800 147.757,376.800 147.950 C 376.800 148.349,369.662 152.012,368.899 152.005 C 368.623 152.002,367.725 152.360,366.904 152.800 C 366.084 153.240,364.862 153.600,364.190 153.600 C 363.518 153.600,361.895 153.884,360.584 154.231 C 357.962 154.925,348.062 155.074,346.868 154.438 C 346.501 154.241,345.120 153.948,343.800 153.784 C 342.480 153.621,340.773 153.153,340.006 152.744 C 339.239 152.335,338.228 152.000,337.760 152.000 C 337.291 152.000,336.450 151.640,335.891 151.200 C 335.331 150.760,334.519 150.400,334.086 150.400 C 333.653 150.400,333.080 150.137,332.813 149.815 C 332.546 149.494,331.939 149.108,331.464 148.958 C 330.989 148.808,329.861 148.081,328.959 147.343 C 328.056 146.604,327.120 146.000,326.879 146.000 C 326.637 146.000,326.296 145.758,326.120 145.462 C 325.944 145.167,324.810 144.053,323.600 142.987 C 321.585 141.213,317.367 136.238,316.658 134.800 C 316.495 134.470,315.924 133.480,315.389 132.600 C 314.854 131.720,314.212 130.550,313.963 130.000 C 313.714 129.450,313.277 128.550,312.992 128.000 C 312.707 127.450,312.340 126.280,312.176 125.400 C 312.013 124.520,311.642 123.435,311.352 122.990 C 309.558 120.231,309.566 102.344,311.362 99.476 C 311.663 98.994,312.035 97.889,312.188 97.020 C 312.341 96.152,312.721 95.077,313.033 94.631 C 313.345 94.186,313.600 93.515,313.600 93.140 C 313.600 92.764,313.857 92.201,314.170 91.887 C 314.484 91.573,315.020 90.705,315.362 89.958 C 316.330 87.844,318.931 84.228,320.882 82.284 C 321.277 81.891,321.600 81.396,321.600 81.184 C 321.600 80.973,321.858 80.800,322.173 80.800 C 322.488 80.800,322.860 80.440,323.000 80.000 C 323.140 79.560,323.416 79.200,323.614 79.200 C 323.811 79.200,324.603 78.570,325.373 77.800 C 326.143 77.030,326.888 76.400,327.029 76.400 C 327.169 76.400,327.819 75.950,328.473 75.400 C 329.127 74.850,329.898 74.400,330.188 74.400 C 330.477 74.400,330.812 74.147,330.930 73.838 C 331.049 73.528,331.698 73.154,332.373 73.006 C 333.048 72.858,333.600 72.585,333.600 72.399 C 333.600 72.214,334.275 71.841,335.100 71.570 C 335.925 71.300,336.960 70.856,337.400 70.584 C 337.840 70.312,338.867 69.973,339.683 69.830 C 340.499 69.687,341.669 69.308,342.283 68.988 C 342.897 68.667,344.120 68.390,345.000 68.373 C 345.880 68.355,347.410 68.197,348.400 68.020 C 351.076 67.544,355.325 67.546,359.179 68.025 M118.851 104.943 C 117.611 105.496,117.057 112.884,117.991 116.400 C 118.196 117.170,118.574 118.610,118.831 119.600 C 119.088 120.590,119.636 122.140,120.049 123.044 C 120.462 123.948,120.800 124.972,120.800 125.320 C 120.800 125.668,120.998 126.075,121.241 126.225 C 121.483 126.375,121.936 127.106,122.246 127.849 C 122.557 128.592,122.976 129.200,123.178 129.200 C 123.381 129.200,123.663 129.568,123.806 130.018 C 124.120 131.008,130.275 137.106,131.283 137.426 C 131.677 137.552,132.000 137.822,132.000 138.027 C 132.000 138.232,132.246 138.400,132.546 138.400 C 132.846 138.400,133.521 138.735,134.046 139.145 C 134.571 139.555,135.450 140.026,136.000 140.192 C 136.550 140.359,137.270 140.724,137.600 141.004 C 137.930 141.284,139.010 141.644,140.000 141.804 C 140.990 141.964,142.286 142.343,142.880 142.647 C 144.462 143.457,155.082 143.422,156.654 142.603 C 157.284 142.274,158.652 141.892,159.693 141.752 C 160.734 141.613,161.791 141.252,162.042 140.949 C 162.293 140.647,162.644 140.400,162.823 140.400 C 163.327 140.400,164.877 139.668,166.200 138.806 C 166.860 138.376,167.915 137.734,168.545 137.379 C 169.496 136.842,171.619 134.796,175.405 130.766 C 175.732 130.418,176.000 129.945,176.000 129.715 C 176.000 129.486,176.285 129.061,176.634 128.772 C 176.983 128.482,177.543 127.560,177.878 126.723 C 178.213 125.885,178.647 125.200,178.843 125.200 C 179.040 125.200,179.200 124.815,179.200 124.344 C 179.200 123.873,179.540 122.748,179.956 121.844 C 181.851 117.721,182.540 108.569,181.159 105.857 L 180.600 104.759 150.109 104.680 C 133.339 104.636,119.273 104.754,118.851 104.943 M322.377 105.028 C 320.478 107.316,320.971 116.965,323.237 121.844 C 323.657 122.748,324.000 123.630,324.000 123.804 C 324.000 124.405,326.079 128.368,326.639 128.832 C 326.947 129.088,327.200 129.486,327.200 129.715 C 327.200 129.945,327.468 130.418,327.795 130.766 C 331.581 134.796,333.704 136.842,334.655 137.379 C 335.285 137.734,336.340 138.376,337.000 138.806 C 338.323 139.668,339.873 140.400,340.377 140.400 C 340.556 140.400,340.907 140.647,341.158 140.949 C 341.409 141.252,342.466 141.613,343.507 141.752 C 344.548 141.892,345.916 142.274,346.546 142.603 C 348.141 143.434,358.616 143.456,360.207 142.630 C 360.810 142.317,362.181 141.940,363.252 141.793 C 364.324 141.645,365.200 141.376,365.200 141.193 C 365.200 141.011,365.875 140.642,366.700 140.373 C 367.525 140.104,368.629 139.550,369.154 139.142 C 369.679 138.734,370.354 138.400,370.654 138.400 C 370.954 138.400,371.200 138.232,371.200 138.027 C 371.200 137.822,371.541 137.546,371.958 137.413 C 372.985 137.087,379.073 131.031,379.396 130.014 C 379.538 129.566,379.819 129.200,380.022 129.200 C 380.224 129.200,380.658 128.615,380.987 127.900 C 381.315 127.185,381.747 126.330,381.947 126.000 C 382.556 124.993,383.877 121.503,384.370 119.600 C 384.627 118.610,385.004 117.170,385.209 116.400 C 386.115 112.990,385.584 105.376,384.414 105.004 C 383.013 104.560,322.746 104.583,322.377 105.028 M214.464 166.160 C 214.967 166.512,215.664 166.800,216.014 166.800 C 217.541 166.800,223.129 173.112,224.225 176.075 C 225.481 179.470,225.565 181.313,225.583 205.679 L 225.600 230.358 255.700 200.276 C 286.075 169.919,289.330 166.800,290.624 166.800 C 291.016 166.800,291.647 166.519,292.027 166.176 C 293.761 164.606,303.524 164.508,306.512 166.030 C 307.344 166.453,308.261 166.800,308.550 166.800 C 308.839 166.800,309.402 167.160,309.800 167.600 C 310.198 168.040,310.667 168.400,310.842 168.400 C 311.340 168.400,314.800 171.788,314.800 172.277 C 314.800 172.517,315.070 172.818,315.400 172.945 C 315.730 173.071,316.006 173.406,316.014 173.687 C 316.021 173.969,316.375 174.920,316.800 175.800 C 317.774 177.817,317.953 185.712,317.054 187.011 C 316.754 187.445,316.369 188.250,316.200 188.800 C 315.640 190.620,312.819 193.573,286.277 220.123 L 259.955 246.454 263.077 249.683 C 264.795 251.459,267.640 254.415,269.400 256.252 C 271.160 258.089,275.705 262.764,279.500 266.641 C 283.295 270.519,286.400 273.746,286.400 273.814 C 286.400 273.882,289.235 276.803,292.700 280.306 C 302.767 290.483,320.169 308.456,321.645 310.200 C 322.389 311.080,323.224 311.944,323.499 312.120 C 323.775 312.296,324.000 312.679,324.000 312.971 C 324.000 313.263,324.258 313.717,324.574 313.979 C 324.890 314.241,325.274 315.025,325.427 315.722 C 325.580 316.418,325.931 317.351,326.206 317.794 C 327.367 319.658,327.320 327.423,326.142 328.601 C 325.844 328.899,325.600 329.382,325.600 329.675 C 325.600 331.725,320.229 338.150,317.400 339.482 C 316.740 339.794,315.750 340.305,315.200 340.618 C 311.673 342.629,302.340 340.907,298.790 337.591 C 298.089 336.936,297.354 336.400,297.158 336.400 C 296.961 336.400,296.800 336.228,296.800 336.017 C 296.800 335.807,294.955 333.771,292.700 331.493 C 288.707 327.460,275.329 313.655,267.220 305.200 C 262.874 300.668,252.477 289.985,241.048 278.307 C 237.115 274.288,232.030 269.041,229.748 266.646 L 225.600 262.293 225.583 293.646 C 225.565 324.541,225.492 326.499,224.225 329.925 C 223.047 333.110,217.074 339.600,215.321 339.600 C 215.128 339.600,214.263 339.960,213.400 340.400 C 206.321 344.009,192.444 338.500,190.209 331.192 C 190.042 330.647,189.612 329.866,189.253 329.458 C 187.954 327.982,188.079 177.579,189.379 176.278 C 189.663 175.994,190.034 175.325,190.203 174.789 C 191.408 170.994,197.837 165.784,202.200 165.068 C 203.080 164.923,204.520 164.662,205.400 164.488 C 207.298 164.112,213.057 165.174,214.464 166.160 M112.400 164.970 C 115.170 165.577,118.392 167.014,118.920 167.877 C 119.096 168.165,119.458 168.400,119.724 168.400 C 119.991 168.400,120.657 168.961,121.204 169.646 C 121.752 170.332,122.492 171.187,122.849 171.546 C 123.828 172.533,125.600 176.079,125.600 177.051 C 125.600 177.523,125.869 178.424,126.198 179.054 C 126.534 179.699,126.795 181.249,126.795 182.600 C 126.795 183.951,126.534 185.501,126.198 186.146 C 125.869 186.776,125.597 187.676,125.594 188.146 C 125.591 188.616,125.334 189.450,125.023 190.000 C 124.713 190.550,124.161 191.572,123.797 192.272 C 122.741 194.302,117.754 198.800,116.558 198.800 C 116.447 198.800,115.585 199.151,114.643 199.580 C 113.060 200.301,111.806 200.370,98.165 200.480 L 83.400 200.600 83.200 263.639 C 83.051 310.631,82.882 326.820,82.536 327.239 C 82.280 327.547,81.939 328.507,81.778 329.372 C 81.434 331.213,78.831 335.171,76.946 336.719 C 74.341 338.858,73.265 339.600,72.768 339.600 C 72.490 339.600,71.916 339.915,71.491 340.300 C 70.022 341.631,60.678 341.541,57.739 340.167 C 53.410 338.144,48.011 332.664,48.002 330.286 C 48.001 329.893,47.685 329.091,47.300 328.504 C 46.643 327.501,46.588 323.545,46.400 264.018 L 46.200 200.600 30.852 200.488 C 16.570 200.384,15.383 200.321,13.774 199.588 C 12.822 199.155,11.952 198.800,11.840 198.800 C 11.077 198.800,6.921 195.404,5.400 193.538 C 1.575 188.846,0.493 178.422,3.451 174.759 C 3.699 174.451,4.023 173.805,4.171 173.321 C 4.579 171.989,9.436 167.254,10.694 166.961 C 11.302 166.820,12.000 166.456,12.244 166.152 C 12.488 165.849,13.644 165.419,14.813 165.197 C 15.982 164.976,17.028 164.706,17.136 164.597 C 17.682 164.051,109.855 164.412,112.400 164.970 M154.970 165.168 C 156.053 165.406,157.237 165.871,157.601 166.201 C 157.965 166.530,158.471 166.800,158.726 166.800 C 161.567 166.800,166.794 174.010,168.151 179.800 C 169.156 184.090,169.154 321.919,168.149 326.200 C 167.412 329.338,165.778 333.200,165.188 333.200 C 164.974 333.200,164.800 333.435,164.800 333.722 C 164.800 334.351,161.070 338.000,160.428 338.000 C 160.179 338.000,159.874 338.263,159.750 338.585 C 159.627 338.906,159.138 339.283,158.663 339.422 C 158.188 339.561,157.032 340.035,156.093 340.476 C 153.768 341.568,144.169 341.440,142.910 340.300 C 142.485 339.915,141.864 339.600,141.530 339.600 C 141.196 339.600,140.507 339.240,140.000 338.800 C 139.493 338.360,138.933 338.000,138.755 338.000 C 137.549 338.000,132.400 331.004,132.400 329.365 C 132.400 329.039,132.085 328.291,131.700 327.704 C 130.613 326.045,130.613 179.955,131.700 178.296 C 132.085 177.709,132.400 176.968,132.400 176.651 C 132.400 175.003,137.125 168.400,138.304 168.400 C 138.479 168.400,138.930 168.040,139.307 167.600 C 139.684 167.160,140.295 166.800,140.665 166.800 C 141.034 166.800,141.634 166.532,141.996 166.203 C 142.359 165.875,143.619 165.424,144.797 165.201 C 145.975 164.977,147.043 164.689,147.169 164.560 C 147.484 164.240,152.554 164.635,154.970 165.168 M358.570 165.168 C 359.653 165.406,360.837 165.871,361.201 166.201 C 361.565 166.530,362.138 166.800,362.473 166.800 C 363.436 166.800,369.200 172.152,369.200 173.046 C 369.200 173.291,369.560 173.950,370.000 174.509 C 370.440 175.069,370.800 175.909,370.800 176.377 C 370.800 176.845,371.115 177.709,371.500 178.296 C 372.160 179.304,372.200 183.545,372.200 253.000 C 372.200 322.455,372.160 326.696,371.500 327.704 C 371.115 328.291,370.800 329.215,370.800 329.757 C 370.800 330.299,370.553 330.990,370.252 331.291 C 369.950 331.592,369.425 332.370,369.083 333.020 C 368.254 334.598,365.639 337.340,364.179 338.162 C 363.531 338.527,362.190 339.312,361.200 339.907 C 358.868 341.309,347.948 341.600,346.510 340.300 C 346.085 339.915,345.434 339.600,345.065 339.600 C 344.695 339.600,344.084 339.240,343.707 338.800 C 343.330 338.360,342.832 338.000,342.600 338.000 C 340.764 338.000,336.264 331.278,335.370 327.200 C 334.645 323.894,334.505 182.716,335.223 179.120 C 336.100 174.728,341.915 166.800,344.261 166.800 C 344.633 166.800,345.234 166.532,345.596 166.203 C 345.959 165.875,347.219 165.424,348.397 165.201 C 349.575 164.977,350.643 164.689,350.769 164.560 C 351.084 164.240,356.154 164.635,358.570 165.168 " stroke="none" fill="#fcfcfc" fill-rule="evenodd"></path><path id="path2" d="M146.918 68.698 C 148.633 68.773,151.333 68.772,152.918 68.697 C 154.503 68.621,153.100 68.559,149.800 68.560 C 146.500 68.561,145.203 68.622,146.918 68.698 M350.518 68.698 C 352.233 68.773,354.933 68.772,356.518 68.697 C 358.103 68.621,356.700 68.559,353.400 68.560 C 350.100 68.561,348.803 68.622,350.518 68.698 M138.200 69.759 C 134.458 70.910,131.757 71.979,129.704 73.121 C 126.896 74.682,127.443 74.750,130.552 73.225 C 134.916 71.086,137.026 70.368,142.400 69.197 L 143.800 68.892 142.400 68.895 C 141.630 68.897,139.740 69.286,138.200 69.759 M157.200 69.220 C 163.301 70.651,165.828 71.529,169.544 73.510 C 170.943 74.256,171.973 74.680,171.833 74.453 C 170.993 73.094,159.528 68.752,157.026 68.846 L 155.800 68.892 157.200 69.220 M341.800 69.759 C 337.973 70.936,335.118 72.040,334.400 72.620 C 334.070 72.887,333.411 73.224,332.936 73.368 C 332.461 73.513,331.845 73.905,331.566 74.240 C 331.288 74.576,332.410 74.164,334.059 73.325 C 338.392 71.121,340.472 70.402,346.000 69.197 L 347.400 68.892 346.000 68.895 C 345.230 68.897,343.340 69.286,341.800 69.759 M360.800 69.197 C 366.174 70.368,368.284 71.086,372.648 73.225 C 374.247 74.009,375.450 74.480,375.321 74.272 C 374.939 73.654,367.885 70.490,366.176 70.170 C 365.309 70.007,364.021 69.633,363.313 69.337 C 362.605 69.042,361.435 68.821,360.713 68.846 L 359.400 68.892 360.800 69.197 M123.526 77.136 C 119.298 80.511,113.071 87.589,112.460 89.713 C 112.383 89.981,112.743 89.607,113.260 88.882 C 115.506 85.732,117.619 83.113,119.520 81.122 C 121.413 79.138,122.287 78.415,125.978 75.783 C 126.735 75.242,127.152 74.800,126.904 74.800 C 126.656 74.800,125.136 75.851,123.526 77.136 M175.416 77.146 C 179.027 79.807,186.000 87.370,186.000 88.625 C 186.000 88.762,186.360 89.331,186.800 89.891 C 188.670 92.269,187.390 89.831,185.052 86.562 C 182.586 83.115,177.639 78.012,175.327 76.532 C 174.707 76.135,173.962 75.583,173.671 75.305 C 173.381 75.027,172.938 74.800,172.688 74.800 C 172.437 74.800,173.665 75.856,175.416 77.146 M329.529 75.305 C 329.238 75.583,328.502 76.129,327.893 76.519 C 323.649 79.236,317.665 86.443,314.873 92.200 C 312.881 96.306,312.399 97.496,312.418 98.260 C 312.434 98.952,312.654 98.479,314.019 94.820 C 314.303 94.060,315.134 92.378,315.867 91.081 C 316.600 89.784,317.200 88.645,317.200 88.550 C 317.200 88.262,320.300 84.352,322.517 81.845 C 323.663 80.549,326.027 78.434,327.771 77.145 C 329.515 75.855,330.743 74.800,330.499 74.800 C 330.256 74.800,329.819 75.027,329.529 75.305 M377.200 75.800 C 377.945 76.350,378.682 76.800,378.836 76.800 C 378.990 76.800,380.810 78.465,382.879 80.500 C 387.809 85.349,390.079 88.686,393.015 95.400 C 393.668 96.891,395.089 101.457,395.320 102.800 L 395.491 103.800 395.546 102.751 C 395.801 97.825,388.509 84.634,382.881 79.842 C 382.595 79.599,382.055 79.114,381.681 78.764 C 380.158 77.341,376.699 74.800,376.286 74.800 C 376.043 74.800,376.455 75.250,377.200 75.800 M110.875 92.887 C 106.357 102.106,105.606 113.696,108.830 124.445 C 109.691 127.317,111.903 132.231,112.200 131.933 C 112.281 131.852,111.811 130.668,111.155 129.302 C 106.064 118.693,106.071 103.474,111.172 93.192 C 111.857 91.813,112.347 90.614,112.262 90.528 C 112.176 90.443,111.552 91.504,110.875 92.887 M187.603 91.411 C 187.601 91.637,187.832 92.177,188.115 92.611 C 193.483 100.839,193.451 121.210,188.057 129.912 C 187.746 130.414,187.585 130.919,187.700 131.033 C 187.815 131.148,188.302 130.377,188.783 129.321 C 189.264 128.264,189.816 127.100,190.011 126.734 C 193.493 120.175,193.359 102.163,189.778 95.298 C 189.463 94.694,189.203 94.020,189.200 93.800 C 189.193 93.262,187.606 90.888,187.603 91.411 M311.634 100.842 C 311.344 101.809,311.047 103.680,310.974 105.000 L 310.841 107.400 311.157 105.197 C 311.331 103.985,311.697 102.319,311.969 101.493 C 312.242 100.668,312.396 99.789,312.313 99.539 C 312.230 99.289,311.924 99.875,311.634 100.842 M118.600 103.495 C 117.631 103.734,117.204 104.332,117.238 105.400 C 117.258 106.040,117.341 105.988,117.652 105.138 C 118.224 103.578,117.411 103.616,150.334 103.615 L 180.791 103.615 181.492 104.684 C 181.877 105.272,182.316 106.664,182.467 107.776 C 182.730 109.708,182.738 109.683,182.641 107.241 C 182.467 102.826,185.554 103.203,150.062 103.254 C 133.198 103.278,119.040 103.387,118.600 103.495 M321.691 103.821 C 321.201 104.165,320.800 104.729,320.800 105.077 C 320.800 105.519,321.044 105.397,321.616 104.671 L 322.432 103.633 352.861 103.620 C 369.597 103.613,383.707 103.712,384.216 103.840 C 385.544 104.173,385.702 104.782,386.022 110.800 L 386.309 116.200 386.246 110.506 C 386.193 105.652,386.079 104.708,385.478 104.106 C 384.451 103.080,323.140 102.806,321.691 103.821 M395.800 111.200 C 395.800 115.276,395.921 117.792,396.070 116.800 C 396.219 115.810,396.341 113.290,396.341 111.200 C 396.341 109.110,396.219 106.590,396.070 105.600 C 395.921 104.608,395.800 107.124,395.800 111.200 M320.557 111.200 C 320.557 114.170,320.620 115.385,320.697 113.900 C 320.774 112.415,320.774 109.985,320.697 108.500 C 320.620 107.015,320.557 108.230,320.557 111.200 M116.954 111.200 C 116.954 113.950,117.018 115.075,117.096 113.700 C 117.174 112.325,117.174 110.075,117.096 108.700 C 117.018 107.325,116.954 108.450,116.954 111.200 M310.542 111.000 C 310.541 112.980,310.608 113.840,310.692 112.912 C 310.776 111.984,310.777 110.364,310.695 109.312 C 310.612 108.260,310.543 109.020,310.542 111.000 M182.470 114.045 C 182.279 117.995,178.798 127.729,177.069 129.149 C 176.701 129.451,176.400 129.886,176.400 130.115 C 176.400 130.646,175.953 131.153,172.361 134.700 C 169.128 137.892,168.887 138.737,172.076 135.700 C 178.168 129.898,183.185 119.795,182.694 114.317 C 182.548 112.690,182.536 112.676,182.470 114.045 M311.016 117.850 C 311.115 119.417,311.460 121.307,311.782 122.050 C 312.456 123.602,312.618 122.621,311.968 120.926 C 311.731 120.307,311.378 118.720,311.186 117.400 L 310.835 115.000 311.016 117.850 M117.254 117.298 C 117.071 120.995,121.590 129.544,126.365 134.535 C 130.334 138.682,139.452 143.696,142.800 143.572 C 143.130 143.560,142.050 143.101,140.400 142.552 C 128.467 138.584,119.634 128.808,117.493 117.200 C 117.312 116.217,117.308 116.218,117.254 117.298 M385.660 117.251 C 385.627 117.829,385.330 118.949,385.000 119.738 C 384.670 120.528,384.410 121.405,384.422 121.687 C 384.434 121.969,384.803 121.314,385.242 120.232 C 385.681 119.150,385.968 117.800,385.880 117.232 L 385.720 116.200 385.660 117.251 M320.800 117.172 C 320.800 118.824,324.138 127.595,324.593 127.140 C 324.686 127.047,324.243 125.881,323.608 124.548 C 322.974 123.215,322.156 120.972,321.792 119.563 C 321.131 117.010,320.800 116.211,320.800 117.172 M395.249 119.600 C 394.830 126.639,387.283 138.956,379.884 144.677 C 377.231 146.729,376.849 146.983,373.898 148.653 C 372.852 149.245,372.076 149.810,372.175 149.908 C 372.813 150.547,380.647 144.885,384.284 141.157 C 389.970 135.327,396.204 123.290,395.486 119.527 C 395.313 118.620,395.308 118.622,395.249 119.600 M383.279 124.572 C 379.607 132.940,372.286 139.382,362.800 142.596 C 361.150 143.155,360.340 143.536,361.000 143.444 C 365.452 142.821,372.802 138.678,376.846 134.513 C 380.165 131.095,385.080 123.335,384.368 122.638 C 384.276 122.548,383.786 123.418,383.279 124.572 M312.593 124.918 C 312.897 126.389,315.974 132.962,316.439 133.133 C 316.637 133.207,316.800 133.497,316.800 133.779 C 316.800 134.896,321.626 140.475,326.160 144.600 C 327.887 146.171,334.325 150.208,334.625 149.908 C 334.724 149.810,333.921 149.248,332.841 148.661 C 324.227 143.972,318.110 136.900,313.415 126.200 C 312.836 124.880,312.466 124.303,312.593 124.918 M324.812 127.864 C 324.787 128.843,329.943 134.851,332.400 136.705 C 333.170 137.286,332.225 136.167,330.300 134.218 C 328.375 132.269,326.800 130.441,326.800 130.157 C 326.800 129.872,326.559 129.496,326.265 129.320 C 325.970 129.144,325.525 128.640,325.277 128.200 C 325.028 127.760,324.819 127.609,324.812 127.864 M185.451 134.582 C 183.516 137.587,183.107 138.093,179.456 142.000 L 177.400 144.200 179.546 142.200 C 182.102 139.818,186.400 134.516,186.400 133.746 C 186.400 133.446,186.561 133.200,186.757 133.200 C 186.954 133.200,187.228 132.904,187.367 132.543 C 187.937 131.057,187.248 131.790,185.451 134.582 M112.400 132.707 C 112.400 134.104,120.746 143.372,124.400 146.033 C 126.518 147.575,130.825 150.108,131.012 149.922 C 131.102 149.831,129.967 149.066,128.488 148.221 C 123.450 145.342,117.938 140.321,114.970 135.906 C 113.139 133.182,112.400 132.262,112.400 132.707 M167.200 138.831 C 161.581 142.514,154.494 144.278,147.000 143.858 L 143.400 143.657 146.600 144.071 C 152.294 144.808,159.613 143.461,164.750 140.730 C 167.907 139.052,168.292 138.812,168.798 138.203 C 169.474 137.388,169.294 137.459,167.200 138.831 M334.361 138.115 C 335.596 139.688,344.298 143.636,346.400 143.578 C 346.730 143.568,345.560 143.054,343.800 142.435 C 339.823 141.035,336.216 139.296,334.505 137.953 C 333.862 137.449,333.849 137.463,334.361 138.115 M349.200 144.000 C 351.485 144.333,356.258 144.511,355.967 144.252 C 355.875 144.171,353.820 144.008,351.400 143.892 C 348.402 143.747,347.701 143.782,349.200 144.000 M357.100 143.882 C 357.595 143.978,358.405 143.978,358.900 143.882 C 359.395 143.787,358.990 143.709,358.000 143.709 C 357.010 143.709,356.605 143.787,357.100 143.882 M176.634 144.345 C 176.426 144.682,172.407 147.416,169.600 149.131 C 168.830 149.602,168.360 149.990,168.556 149.993 C 169.363 150.009,176.675 145.237,176.973 144.500 C 177.202 143.933,176.958 143.821,176.634 144.345 M132.600 150.641 C 141.444 155.325,158.546 155.290,167.042 150.569 C 168.449 149.788,167.785 149.968,162.522 151.799 C 154.170 154.703,140.449 154.142,133.633 150.617 C 132.977 150.278,132.206 150.001,131.920 150.002 C 131.634 150.004,131.940 150.291,132.600 150.641 M336.504 150.800 C 337.325 151.240,338.220 151.600,338.493 151.600 C 338.765 151.600,338.316 151.240,337.496 150.800 C 336.675 150.360,335.780 150.000,335.507 150.000 C 335.235 150.000,335.684 150.360,336.504 150.800 M369.206 150.823 C 368.440 151.250,368.080 151.592,368.406 151.583 C 369.200 151.561,371.968 150.032,371.200 150.040 C 370.870 150.043,369.973 150.396,369.206 150.823 M340.886 152.410 C 346.565 154.716,360.220 154.721,365.892 152.418 C 368.185 151.487,367.622 151.342,365.150 152.227 C 360.236 153.986,347.874 154.090,342.371 152.419 C 339.029 151.403,338.399 151.400,340.886 152.410 M15.600 165.481 C 5.844 167.218,-0.362 179.730,3.726 189.422 C 6.059 194.955,13.172 200.164,18.087 199.940 L 19.400 199.880 18.200 199.710 C 0.628 197.219,-2.966 174.446,13.000 166.763 L 15.000 165.800 63.200 165.686 L 111.400 165.573 113.962 166.431 C 118.216 167.857,122.006 171.129,123.791 174.914 C 124.183 175.747,124.589 176.344,124.692 176.241 C 125.837 175.096,118.991 167.889,115.305 166.357 L 113.000 165.400 64.800 165.351 C 38.290 165.325,16.150 165.383,15.600 165.481 M148.112 165.495 C 149.164 165.577,150.784 165.576,151.712 165.492 C 152.640 165.408,151.780 165.341,149.800 165.342 C 147.820 165.343,147.060 165.412,148.112 165.495 M207.600 165.585 C 210.127 165.779,212.278 166.163,213.000 166.551 C 213.660 166.905,214.409 167.196,214.664 167.198 C 215.264 167.201,219.131 170.180,220.309 171.546 C 221.964 173.465,223.151 175.839,223.956 178.838 C 224.465 180.733,224.756 181.368,224.763 180.600 C 224.833 173.035,216.481 165.628,207.600 165.381 L 203.400 165.264 207.600 165.585 M298.505 165.487 C 299.114 165.579,300.014 165.577,300.505 165.482 C 300.997 165.387,300.500 165.311,299.400 165.314 C 298.300 165.317,297.897 165.395,298.505 165.487 M351.712 165.495 C 352.764 165.577,354.384 165.576,355.312 165.492 C 356.240 165.408,355.380 165.341,353.400 165.342 C 351.420 165.343,350.660 165.412,351.712 165.495 M142.400 166.573 C 137.735 168.568,133.845 173.185,132.356 178.495 C 131.174 182.707,131.187 323.657,132.369 327.400 C 133.284 330.296,133.404 329.895,132.608 326.600 C 131.712 322.887,131.713 183.330,132.610 179.325 C 133.994 173.142,138.038 168.564,144.014 166.415 C 145.216 165.983,145.840 165.630,145.400 165.630 C 144.960 165.631,143.610 166.056,142.400 166.573 M154.985 166.200 C 155.856 166.510,156.646 166.687,156.740 166.593 C 156.977 166.357,154.898 165.596,154.074 165.618 C 153.703 165.627,154.113 165.889,154.985 166.200 M200.842 166.034 C 199.263 166.666,200.104 166.809,201.815 166.200 C 202.687 165.889,203.040 165.639,202.600 165.643 C 202.160 165.647,201.369 165.823,200.842 166.034 M293.700 166.012 C 293.205 166.211,292.800 166.482,292.800 166.614 C 292.800 166.746,293.205 166.721,293.700 166.558 C 294.195 166.395,295.230 166.133,296.000 165.977 L 297.400 165.692 296.000 165.671 C 295.230 165.660,294.195 165.813,293.700 166.012 M302.400 165.845 C 304.594 166.280,308.367 167.678,308.819 168.223 C 309.082 168.540,309.501 168.806,309.749 168.813 C 312.514 168.890,316.367 175.773,316.796 181.400 L 317.071 185.000 317.135 181.914 C 317.300 174.051,310.574 166.245,303.221 165.765 C 302.220 165.700,301.850 165.736,302.400 165.845 M347.242 166.034 C 345.663 166.666,346.504 166.809,348.215 166.200 C 349.087 165.889,349.440 165.639,349.000 165.643 C 348.560 165.647,347.769 165.823,347.242 166.034 M359.171 166.410 C 360.366 166.839,361.408 167.125,361.488 167.045 C 361.713 166.820,358.471 165.598,357.692 165.614 C 357.311 165.622,357.977 165.980,359.171 166.410 M158.925 167.993 C 162.657 170.360,165.673 174.154,166.800 177.901 C 166.982 178.505,167.147 178.707,167.166 178.350 C 167.326 175.319,160.155 166.800,157.443 166.800 C 157.223 166.800,157.890 167.337,158.925 167.993 M196.247 168.547 C 192.744 171.267,189.126 176.725,189.228 179.137 C 189.243 179.502,189.690 178.676,190.222 177.302 C 191.941 172.855,194.378 169.888,198.000 167.832 C 198.990 167.269,199.507 166.807,199.148 166.805 C 198.790 166.802,197.484 167.586,196.247 168.547 M344.455 167.229 C 342.746 167.913,338.196 172.880,336.969 175.400 L 335.800 177.800 335.795 252.400 L 335.791 327.000 335.995 252.600 L 336.200 178.200 337.713 175.171 C 339.333 171.925,341.509 169.547,344.400 167.859 C 346.203 166.806,346.228 166.519,344.455 167.229 M288.353 168.904 C 286.102 170.603,262.021 194.400,262.553 194.400 C 262.708 194.400,268.511 188.730,275.447 181.800 C 282.384 174.870,288.191 169.200,288.352 169.200 C 288.513 169.200,289.255 168.750,290.000 168.200 C 290.745 167.650,291.185 167.202,290.978 167.204 C 290.770 167.207,289.589 167.972,288.353 168.904 M363.000 168.082 C 366.554 170.796,369.111 174.144,370.269 177.600 C 370.593 178.565,370.748 178.739,370.769 178.158 C 370.855 175.809,366.195 169.545,363.125 167.883 L 361.800 167.165 363.000 168.082 M125.120 178.800 C 125.273 180.010,125.399 181.720,125.399 182.600 C 125.399 183.480,125.273 185.190,125.120 186.400 C 124.892 188.206,124.917 188.385,125.264 187.400 C 125.496 186.740,125.686 184.580,125.686 182.600 C 125.686 180.620,125.496 178.460,125.264 177.800 C 124.917 176.815,124.892 176.994,125.120 178.800 M167.516 250.400 C 167.630 320.061,167.525 327.601,166.422 328.992 C 166.244 329.216,165.968 329.824,165.809 330.341 C 164.721 333.885,160.781 337.346,155.086 339.759 C 153.003 340.641,146.584 340.638,144.514 339.753 C 139.058 337.421,135.566 334.548,134.166 331.239 C 133.849 330.490,133.501 329.966,133.393 330.074 C 133.004 330.463,134.421 332.687,136.572 335.064 C 146.602 346.148,165.264 340.481,167.564 325.654 C 168.049 322.530,168.150 183.996,167.670 180.800 C 167.522 179.810,167.452 211.130,167.516 250.400 M371.108 251.515 C 371.226 330.473,371.316 327.143,368.942 331.400 C 366.821 335.202,363.967 337.529,358.686 339.760 C 352.402 342.416,343.343 339.108,338.318 332.321 C 337.943 331.815,337.628 331.599,337.618 331.842 C 337.608 332.085,338.673 333.456,339.985 334.887 C 349.610 345.391,367.131 341.270,370.859 327.625 C 371.599 324.919,371.998 181.746,371.272 179.915 C 371.122 179.538,371.049 211.758,371.108 251.515 M188.996 253.000 C 188.996 293.260,189.043 309.671,189.100 289.468 C 189.157 269.266,189.157 236.326,189.100 216.268 C 189.043 196.211,188.996 212.740,188.996 253.000 M316.020 186.600 C 314.977 189.863,312.655 192.372,286.214 218.799 C 271.035 233.969,259.200 246.105,259.200 246.498 C 259.200 246.883,260.325 248.335,261.700 249.724 C 263.075 251.113,269.420 257.621,275.800 264.185 C 288.453 277.204,287.708 276.436,302.400 291.620 C 308.010 297.418,314.357 303.943,316.504 306.119 C 325.263 314.996,327.349 319.939,325.400 327.200 C 324.603 330.168,324.698 330.643,325.600 328.200 C 326.627 325.416,326.622 321.034,325.587 317.962 C 324.240 313.962,323.386 312.682,319.200 308.377 C 318.210 307.359,314.892 303.933,311.827 300.763 C 308.761 297.593,303.091 291.758,299.227 287.796 C 295.362 283.834,287.430 275.666,281.600 269.644 C 275.770 263.622,268.436 256.064,265.302 252.848 C 262.168 249.632,259.603 246.779,259.602 246.510 C 259.601 246.240,271.916 233.695,286.968 218.633 C 315.384 190.199,317.489 187.852,316.693 185.484 C 316.604 185.218,316.301 185.720,316.020 186.600 M123.620 190.468 C 121.433 195.122,115.954 198.894,110.200 199.710 C 109.048 199.873,109.057 199.882,110.400 199.933 C 113.667 200.058,119.530 196.899,122.043 193.660 C 123.682 191.549,124.960 189.226,124.652 188.919 C 124.538 188.805,124.074 189.502,123.620 190.468 M259.952 196.683 C 258.845 197.719,257.750 198.934,257.519 199.383 C 257.289 199.832,257.706 199.570,258.446 198.800 C 259.187 198.030,260.424 196.815,261.196 196.100 C 261.968 195.385,262.457 194.800,262.283 194.800 C 262.108 194.800,261.060 195.647,259.952 196.683 M46.818 201.400 C 47.034 202.338,47.188 228.386,47.190 264.400 C 47.194 331.380,47.099 328.437,49.353 331.654 C 50.157 332.803,50.215 332.300,49.418 331.084 C 47.600 328.309,47.612 328.768,47.606 263.176 C 47.601 210.036,47.519 201.244,47.025 200.576 C 46.507 199.878,46.486 199.960,46.818 201.400 M82.124 200.500 C 81.875 200.884,81.211 328.183,81.455 328.722 C 82.218 330.407,82.400 317.623,82.400 262.347 C 82.400 215.135,82.511 200.849,82.880 200.480 C 83.226 200.134,83.232 200.000,82.904 200.000 C 82.653 200.000,82.302 200.225,82.124 200.500 M253.252 203.414 C 251.410 205.276,250.026 206.800,250.176 206.800 C 250.501 206.800,256.800 200.547,256.800 200.224 C 256.800 199.839,256.682 199.945,253.252 203.414 M247.552 209.083 C 246.445 210.119,245.353 211.334,245.126 211.783 C 244.884 212.262,245.217 212.062,245.932 211.302 C 246.603 210.588,247.838 209.373,248.676 208.604 C 249.514 207.834,250.057 207.203,249.883 207.202 C 249.708 207.201,248.660 208.047,247.552 209.083 M234.885 221.802 C 229.762 226.964,225.501 230.966,225.417 230.694 C 224.950 229.192,224.860 229.096,224.832 230.067 C 224.814 230.653,225.022 231.207,225.293 231.298 C 225.726 231.442,244.400 213.191,244.400 212.623 C 244.400 212.219,244.271 212.344,234.885 221.802 M224.950 261.787 C 224.826 262.110,224.817 262.605,224.931 262.887 C 225.044 263.169,225.151 262.995,225.168 262.500 C 225.215 261.185,225.677 261.377,227.581 263.500 C 228.518 264.545,232.102 268.280,235.545 271.800 C 241.522 277.911,244.608 281.087,265.195 302.322 C 270.142 307.425,274.327 311.600,274.495 311.600 C 274.663 311.600,273.765 310.552,272.500 309.272 C 271.235 307.992,265.430 302.009,259.600 295.977 C 249.898 285.939,238.551 274.251,232.000 267.551 C 230.570 266.088,228.639 264.061,227.710 263.046 C 225.930 261.101,225.319 260.823,224.950 261.787 M274.800 312.088 C 275.170 312.573,290.556 328.481,295.400 333.387 C 303.827 341.923,310.696 343.257,318.669 337.905 C 320.918 336.396,325.226 331.093,324.661 330.528 C 324.550 330.417,324.148 330.927,323.768 331.663 C 321.206 336.624,315.068 340.400,309.566 340.400 C 303.603 340.400,301.350 339.057,293.210 330.647 C 290.467 327.812,287.047 324.291,285.611 322.821 C 284.175 321.351,281.419 318.512,279.487 316.512 C 276.529 313.451,274.062 311.123,274.800 312.088 M223.908 327.251 C 220.934 338.511,205.852 344.682,197.746 337.955 C 197.435 337.697,197.089 337.577,196.978 337.689 C 196.666 338.001,198.353 338.953,200.936 339.923 C 203.915 341.042,210.068 341.163,212.340 340.147 C 216.372 338.344,217.183 337.891,218.688 336.603 C 221.642 334.075,225.058 327.804,224.728 325.517 C 224.649 324.972,224.334 325.638,223.908 327.251 M189.228 326.899 C 189.148 328.890,192.644 334.559,195.230 336.632 C 196.268 337.465,196.174 337.304,194.843 335.966 C 192.644 333.756,191.454 331.885,190.222 328.698 C 189.690 327.324,189.243 326.515,189.228 326.899 M336.009 327.701 C 336.004 328.087,336.360 329.075,336.800 329.896 C 337.832 331.820,337.838 331.011,336.809 328.744 C 336.374 327.785,336.014 327.316,336.009 327.701 M79.893 331.287 C 74.932 341.628,59.609 343.643,52.097 334.942 C 51.084 333.770,50.176 332.890,50.078 332.988 C 49.981 333.086,50.397 333.759,51.003 334.483 C 59.035 344.077,74.692 342.469,80.262 331.478 C 80.807 330.401,81.176 329.442,81.080 329.347 C 80.985 329.251,80.450 330.124,79.893 331.287 " stroke="none" fill="#cfecfc" fill-rule="evenodd"></path><path id="path3" d="M143.400 68.076 C 140.642 68.426,136.149 69.608,133.800 70.602 C 131.552 71.553,127.801 73.391,127.600 73.640 C 127.490 73.777,126.815 74.188,126.100 74.554 C 125.385 74.921,124.800 75.396,124.800 75.610 C 124.800 75.825,124.532 76.000,124.203 76.000 C 123.875 76.000,123.382 76.360,123.107 76.800 C 122.832 77.240,122.406 77.600,122.159 77.600 C 121.552 77.600,115.200 84.054,115.200 84.671 C 115.200 84.940,114.974 85.304,114.699 85.480 C 113.923 85.975,112.000 88.967,112.000 89.679 C 112.000 90.028,111.747 90.412,111.438 90.530 C 111.128 90.649,110.757 91.286,110.612 91.945 C 110.467 92.605,110.095 93.355,109.785 93.613 C 109.475 93.870,109.106 94.737,108.966 95.540 C 108.825 96.343,108.488 97.360,108.216 97.800 C 107.945 98.240,107.595 99.590,107.438 100.800 C 107.282 102.010,106.895 103.771,106.577 104.714 C 105.805 107.008,105.802 115.172,106.573 117.827 C 106.888 118.912,107.267 120.700,107.416 121.800 C 107.565 122.900,107.910 124.160,108.183 124.600 C 108.456 125.040,108.801 126.057,108.950 126.860 C 109.099 127.663,109.475 128.530,109.785 128.787 C 110.095 129.045,110.464 129.781,110.605 130.423 C 110.746 131.065,111.030 131.695,111.237 131.823 C 111.443 131.950,111.884 132.627,112.217 133.327 C 113.076 135.136,113.873 136.468,114.266 136.754 C 114.452 136.889,115.140 137.720,115.793 138.600 C 117.176 140.461,121.348 144.583,122.800 145.524 C 123.350 145.880,124.520 146.728,125.400 147.408 C 126.280 148.088,127.450 148.858,128.000 149.119 C 128.550 149.380,129.270 149.745,129.600 149.929 C 131.979 151.256,133.664 152.000,134.290 152.000 C 134.693 152.000,135.410 152.272,135.885 152.604 C 136.752 153.212,141.509 154.258,145.600 154.741 C 150.251 155.289,159.869 154.201,163.111 152.760 C 164.052 152.342,165.079 152.000,165.394 152.000 C 166.212 152.000,172.728 148.513,174.458 147.149 C 175.259 146.517,176.049 146.000,176.212 146.000 C 176.375 146.000,176.896 145.595,177.369 145.100 C 177.843 144.605,179.034 143.470,180.015 142.577 C 183.364 139.533,187.565 133.803,189.238 130.000 C 189.480 129.450,189.931 128.460,190.241 127.800 C 190.752 126.713,191.413 124.571,192.384 120.858 C 193.519 116.518,193.137 102.185,191.818 99.635 C 191.478 98.978,191.194 98.026,191.187 97.520 C 191.181 97.014,190.732 95.700,190.191 94.600 C 189.650 93.500,189.206 92.375,189.204 92.100 C 189.202 91.825,189.047 91.600,188.861 91.600 C 188.674 91.600,188.230 90.925,187.874 90.100 C 186.994 88.060,185.100 85.344,182.506 82.400 C 180.515 80.141,179.541 79.200,179.197 79.200 C 178.978 79.200,178.800 79.046,178.800 78.857 C 178.800 78.396,173.568 74.400,172.964 74.400 C 172.701 74.400,172.388 74.147,172.270 73.838 C 172.151 73.528,171.514 73.157,170.855 73.012 C 170.195 72.867,169.441 72.490,169.179 72.174 C 168.917 71.858,168.519 71.600,168.295 71.600 C 168.071 71.600,167.148 71.264,166.244 70.853 C 160.220 68.117,151.462 67.053,143.400 68.076 M348.400 68.020 C 347.410 68.197,345.880 68.355,345.000 68.373 C 344.120 68.390,342.897 68.667,342.283 68.988 C 341.669 69.308,340.499 69.687,339.683 69.830 C 338.867 69.973,337.840 70.312,337.400 70.584 C 336.960 70.856,335.925 71.300,335.100 71.570 C 334.275 71.841,333.600 72.214,333.600 72.399 C 333.600 72.585,333.048 72.858,332.373 73.006 C 331.698 73.154,331.049 73.528,330.930 73.838 C 330.812 74.147,330.477 74.400,330.188 74.400 C 329.898 74.400,329.127 74.850,328.473 75.400 C 327.819 75.950,327.169 76.400,327.029 76.400 C 326.888 76.400,326.143 77.030,325.373 77.800 C 324.603 78.570,323.811 79.200,323.614 79.200 C 323.416 79.200,323.140 79.560,323.000 80.000 C 322.860 80.440,322.488 80.800,322.173 80.800 C 321.858 80.800,321.600 80.973,321.600 81.184 C 321.600 81.396,321.277 81.891,320.882 82.284 C 318.931 84.228,316.330 87.844,315.362 89.958 C 315.020 90.705,314.484 91.573,314.170 91.887 C 313.857 92.201,313.600 92.764,313.600 93.140 C 313.600 93.515,313.345 94.186,313.033 94.631 C 312.721 95.077,312.341 96.152,312.188 97.020 C 312.035 97.889,311.663 98.994,311.362 99.476 C 309.566 102.344,309.558 120.231,311.352 122.990 C 311.642 123.435,312.013 124.520,312.176 125.400 C 312.340 126.280,312.707 127.450,312.992 128.000 C 313.277 128.550,313.714 129.450,313.963 130.000 C 314.212 130.550,314.854 131.720,315.389 132.600 C 315.924 133.480,316.495 134.470,316.658 134.800 C 317.367 136.238,321.585 141.213,323.600 142.987 C 324.810 144.053,325.944 145.167,326.120 145.462 C 326.296 145.758,326.637 146.000,326.879 146.000 C 327.120 146.000,328.056 146.604,328.959 147.343 C 329.861 148.081,330.989 148.808,331.464 148.958 C 331.939 149.108,332.546 149.494,332.813 149.815 C 333.080 150.137,333.653 150.400,334.086 150.400 C 334.519 150.400,335.331 150.760,335.891 151.200 C 336.450 151.640,337.291 152.000,337.760 152.000 C 338.228 152.000,339.239 152.335,340.006 152.744 C 340.773 153.153,342.480 153.621,343.800 153.784 C 345.120 153.948,346.501 154.241,346.868 154.438 C 348.062 155.074,357.962 154.925,360.584 154.231 C 361.895 153.884,363.518 153.600,364.190 153.600 C 364.862 153.600,366.084 153.240,366.904 152.800 C 367.725 152.360,368.623 152.002,368.899 152.005 C 369.662 152.012,376.800 148.349,376.800 147.950 C 376.800 147.757,377.072 147.600,377.404 147.600 C 377.736 147.600,378.316 147.240,378.693 146.800 C 379.070 146.360,379.575 146.000,379.817 146.000 C 380.390 146.000,385.866 140.658,387.401 138.600 C 388.058 137.720,388.687 136.910,388.799 136.800 C 389.777 135.838,392.800 130.515,392.800 129.755 C 392.800 129.504,393.065 129.078,393.389 128.809 C 393.714 128.540,394.101 127.663,394.250 126.860 C 394.399 126.057,394.753 125.040,395.036 124.600 C 395.320 124.160,395.671 122.810,395.816 121.600 C 395.962 120.390,396.333 118.512,396.640 117.427 C 397.300 115.101,397.373 107.727,396.759 105.400 C 396.526 104.520,396.159 102.630,395.942 101.200 C 395.726 99.770,395.303 98.221,395.003 97.758 C 394.704 97.296,394.336 96.267,394.187 95.473 C 394.038 94.678,393.665 93.820,393.358 93.565 C 393.051 93.310,392.800 92.788,392.800 92.405 C 392.800 92.022,392.440 91.250,392.000 90.691 C 391.560 90.131,391.200 89.532,391.200 89.358 C 391.200 88.893,389.084 85.852,388.501 85.480 C 388.226 85.304,388.000 84.940,388.000 84.671 C 388.000 84.151,381.695 77.600,381.195 77.600 C 381.033 77.600,380.214 76.971,379.376 76.203 C 378.537 75.435,377.519 74.701,377.114 74.573 C 376.708 74.444,375.441 73.723,374.298 72.969 C 373.154 72.216,372.054 71.600,371.853 71.600 C 371.652 71.600,370.748 71.264,369.844 70.853 C 364.075 68.234,354.392 66.954,348.400 68.020 M162.400 70.114 C 164.710 70.881,167.740 72.114,169.134 72.854 C 170.528 73.594,172.148 74.453,172.734 74.762 C 173.320 75.071,173.890 75.435,174.000 75.571 C 174.110 75.707,174.707 76.142,175.327 76.536 C 179.461 79.169,185.940 86.954,188.362 92.200 C 189.073 93.740,189.802 95.279,189.982 95.621 C 193.354 102.034,193.371 120.423,190.010 126.734 C 189.815 127.100,189.070 128.660,188.354 130.200 C 187.639 131.740,186.907 133.060,186.727 133.133 C 186.547 133.207,186.400 133.497,186.400 133.779 C 186.400 134.061,185.346 135.621,184.059 137.246 C 176.384 146.929,167.016 152.313,155.134 153.869 C 147.744 154.837,137.820 153.489,132.933 150.853 C 132.530 150.635,131.379 150.085,130.376 149.630 C 112.222 141.393,102.464 117.904,108.860 97.836 C 111.676 89.004,119.880 78.478,126.848 74.759 C 127.424 74.452,128.684 73.755,129.648 73.211 C 138.489 68.221,152.656 66.882,162.400 70.114 M363.200 69.279 C 363.970 69.607,365.309 70.007,366.176 70.170 C 367.534 70.424,372.204 72.518,376.200 74.664 C 377.345 75.279,380.229 77.442,381.681 78.775 C 382.055 79.119,382.595 79.599,382.881 79.842 C 390.929 86.695,396.386 99.365,396.386 111.200 C 396.386 145.568,357.939 166.096,329.409 146.962 C 327.900 145.950,326.453 144.915,326.193 144.661 C 325.933 144.407,324.786 143.331,323.644 142.268 C 321.232 140.025,316.800 134.528,316.800 133.779 C 316.800 133.497,316.637 133.207,316.438 133.133 C 315.455 132.771,312.397 124.979,311.127 119.600 C 310.381 116.441,310.535 104.996,311.364 102.000 C 311.759 100.570,312.246 98.719,312.446 97.886 C 312.646 97.054,312.975 96.064,313.178 95.686 C 313.380 95.309,314.106 93.830,314.791 92.400 C 317.664 86.403,324.816 77.869,328.297 76.283 C 328.794 76.057,329.200 75.738,329.200 75.575 C 329.200 75.412,329.695 75.074,330.300 74.823 C 330.905 74.573,332.120 73.929,333.000 73.392 C 336.118 71.490,342.648 69.189,346.400 68.670 C 349.562 68.233,361.782 68.676,363.200 69.279 M118.708 103.877 C 116.778 104.375,116.637 115.311,118.490 120.803 C 125.663 142.061,149.293 150.430,168.000 138.339 C 170.749 136.562,176.400 131.030,176.400 130.115 C 176.400 129.886,176.701 129.451,177.069 129.149 C 180.857 126.038,184.122 109.223,181.732 105.130 L 180.955 103.800 150.178 103.749 C 133.250 103.721,119.088 103.779,118.708 103.877 M321.616 104.671 C 321.002 105.451,320.808 106.263,320.833 107.954 L 320.867 110.200 321.445 107.808 C 321.763 106.493,322.165 105.275,322.339 105.101 C 322.699 104.741,383.570 104.660,384.503 105.018 C 385.595 105.437,386.074 113.147,385.209 116.400 C 385.004 117.170,384.627 118.610,384.370 119.600 C 383.877 121.503,382.556 124.993,381.947 126.000 C 381.747 126.330,381.315 127.185,380.987 127.900 C 380.658 128.615,380.224 129.200,380.022 129.200 C 379.819 129.200,379.538 129.566,379.396 130.014 C 379.073 131.031,372.985 137.087,371.958 137.413 C 371.541 137.546,371.200 137.822,371.200 138.027 C 371.200 138.232,370.954 138.400,370.654 138.400 C 370.354 138.400,369.679 138.734,369.154 139.142 C 368.629 139.550,367.525 140.104,366.700 140.373 C 365.875 140.642,365.200 141.011,365.200 141.193 C 365.200 141.376,364.324 141.645,363.252 141.793 C 362.181 141.940,360.810 142.317,360.207 142.630 C 358.616 143.456,348.141 143.434,346.546 142.603 C 345.916 142.274,344.548 141.892,343.507 141.752 C 342.466 141.613,341.409 141.252,341.158 140.949 C 340.907 140.647,340.556 140.400,340.377 140.400 C 339.873 140.400,338.323 139.668,337.000 138.806 C 336.340 138.376,335.285 137.734,334.655 137.379 C 333.704 136.842,331.581 134.796,327.795 130.766 C 327.468 130.418,327.200 129.945,327.200 129.715 C 327.200 129.486,326.947 129.088,326.639 128.832 C 326.079 128.368,324.000 124.405,324.000 123.804 C 324.000 123.630,323.653 122.748,323.229 121.844 C 322.806 120.940,322.131 118.400,321.729 116.200 C 321.092 112.706,320.984 112.423,320.874 113.965 C 320.640 117.232,324.522 128.339,326.240 129.320 C 326.548 129.496,326.800 129.859,326.800 130.127 C 326.800 131.261,333.607 137.631,336.511 139.215 C 355.909 149.796,377.730 141.535,384.649 120.990 C 386.691 114.928,386.440 104.398,384.241 103.846 C 383.718 103.715,369.597 103.613,352.861 103.620 L 322.432 103.633 321.616 104.671 M181.159 105.857 C 182.540 108.569,181.851 117.721,179.956 121.844 C 179.540 122.748,179.200 123.873,179.200 124.344 C 179.200 124.815,179.040 125.200,178.843 125.200 C 178.647 125.200,178.213 125.885,177.878 126.723 C 177.543 127.560,176.983 128.482,176.634 128.772 C 176.285 129.061,176.000 129.486,176.000 129.715 C 176.000 129.945,175.732 130.418,175.405 130.766 C 171.619 134.796,169.496 136.842,168.545 137.379 C 167.915 137.734,166.860 138.376,166.200 138.806 C 164.877 139.668,163.327 140.400,162.823 140.400 C 162.644 140.400,162.293 140.647,162.042 140.949 C 161.791 141.252,160.734 141.613,159.693 141.752 C 158.652 141.892,157.284 142.274,156.654 142.603 C 155.082 143.422,144.462 143.457,142.880 142.647 C 142.286 142.343,140.990 141.964,140.000 141.804 C 139.010 141.644,137.930 141.284,137.600 141.004 C 137.270 140.724,136.550 140.359,136.000 140.192 C 135.450 140.026,134.571 139.555,134.046 139.145 C 133.521 138.735,132.846 138.400,132.546 138.400 C 132.246 138.400,132.000 138.232,132.000 138.027 C 132.000 137.822,131.677 137.552,131.283 137.426 C 130.275 137.106,124.120 131.008,123.806 130.018 C 123.663 129.568,123.381 129.200,123.178 129.200 C 122.976 129.200,122.557 128.592,122.246 127.849 C 121.936 127.106,121.483 126.375,121.241 126.225 C 120.998 126.075,120.800 125.668,120.800 125.320 C 120.800 124.972,120.462 123.948,120.049 123.044 C 119.636 122.140,119.088 120.590,118.831 119.600 C 118.574 118.610,118.196 117.170,117.991 116.400 C 117.057 112.884,117.611 105.496,118.851 104.943 C 119.273 104.754,133.339 104.636,150.109 104.680 L 180.600 104.759 181.159 105.857 M205.400 164.488 C 204.520 164.662,203.080 164.923,202.200 165.068 C 197.837 165.784,191.408 170.994,190.203 174.789 C 190.034 175.325,189.663 175.994,189.379 176.278 C 188.079 177.579,187.954 327.982,189.253 329.458 C 189.612 329.866,190.042 330.647,190.209 331.192 C 191.091 334.076,195.407 338.156,199.675 340.142 C 202.742 341.568,210.810 341.720,213.400 340.400 C 214.263 339.960,215.128 339.600,215.321 339.600 C 217.074 339.600,223.047 333.110,224.225 329.925 C 225.492 326.499,225.565 324.541,225.583 293.646 L 225.600 262.293 229.748 266.646 C 232.030 269.041,237.115 274.288,241.048 278.307 C 252.477 289.985,262.874 300.668,267.220 305.200 C 275.329 313.655,288.707 327.460,292.700 331.493 C 294.955 333.771,296.800 335.807,296.800 336.017 C 296.800 336.228,296.961 336.400,297.158 336.400 C 297.354 336.400,298.089 336.936,298.790 337.591 C 302.340 340.907,311.673 342.629,315.200 340.618 C 315.750 340.305,316.740 339.794,317.400 339.482 C 320.229 338.150,325.600 331.725,325.600 329.675 C 325.600 329.382,325.844 328.899,326.142 328.601 C 327.320 327.423,327.367 319.658,326.206 317.794 C 325.931 317.351,325.580 316.418,325.427 315.722 C 325.274 315.025,324.890 314.241,324.574 313.979 C 324.258 313.717,324.000 313.263,324.000 312.971 C 324.000 312.679,323.775 312.296,323.499 312.120 C 323.224 311.944,322.389 311.080,321.645 310.200 C 320.169 308.456,302.767 290.483,292.700 280.306 C 289.235 276.803,286.400 273.882,286.400 273.814 C 286.400 273.746,283.295 270.519,279.500 266.641 C 275.705 262.764,271.160 258.089,269.400 256.252 C 267.640 254.415,264.795 251.459,263.077 249.683 L 259.955 246.454 286.277 220.123 C 312.819 193.573,315.640 190.620,316.200 188.800 C 316.369 188.250,316.754 187.445,317.054 187.011 C 317.953 185.712,317.774 177.817,316.800 175.800 C 316.375 174.920,316.021 173.969,316.014 173.687 C 316.006 173.406,315.730 173.071,315.400 172.945 C 315.070 172.818,314.800 172.517,314.800 172.277 C 314.800 171.788,311.340 168.400,310.842 168.400 C 310.667 168.400,310.198 168.040,309.800 167.600 C 309.402 167.160,308.839 166.800,308.550 166.800 C 308.261 166.800,307.344 166.453,306.512 166.030 C 303.524 164.508,293.761 164.606,292.027 166.176 C 291.647 166.519,291.016 166.800,290.624 166.800 C 289.330 166.800,286.075 169.919,255.700 200.276 L 225.600 230.358 225.583 205.679 C 225.565 181.313,225.481 179.470,224.225 176.075 C 223.129 173.112,217.541 166.800,216.014 166.800 C 215.664 166.800,214.967 166.512,214.464 166.160 C 213.057 165.174,207.298 164.112,205.400 164.488 M17.136 164.597 C 17.028 164.706,15.972 164.978,14.790 165.202 C 13.608 165.426,12.507 165.827,12.342 166.093 C 11.872 166.855,12.167 166.857,13.635 166.102 C 14.914 165.444,18.063 165.400,63.800 165.400 L 112.600 165.400 115.092 166.346 C 127.540 171.070,129.654 189.455,118.600 196.860 C 114.063 199.900,113.484 199.986,97.580 199.993 C 87.061 199.998,83.235 200.125,82.880 200.480 C 82.511 200.849,82.398 215.194,82.393 262.580 C 82.386 329.191,82.448 327.163,80.266 331.470 C 74.046 343.745,55.853 343.975,49.412 331.861 C 47.048 327.415,47.176 331.272,47.176 264.297 C 47.176 230.584,47.039 202.370,46.872 201.600 L 46.568 200.200 31.184 199.988 C 14.314 199.756,13.984 199.712,10.284 197.215 C 0.052 190.310,-0.239 174.900,9.735 168.183 C 10.865 167.423,11.512 166.800,11.172 166.800 C 9.818 166.800,4.727 171.588,4.155 173.400 C 4.016 173.840,3.699 174.451,3.451 174.759 C 0.493 178.422,1.575 188.846,5.400 193.538 C 6.921 195.404,11.077 198.800,11.840 198.800 C 11.952 198.800,12.822 199.155,13.774 199.588 C 15.383 200.321,16.570 200.384,30.852 200.488 L 46.200 200.600 46.400 264.018 C 46.588 323.545,46.643 327.501,47.300 328.504 C 47.685 329.091,48.001 329.893,48.002 330.286 C 48.011 332.664,53.410 338.144,57.739 340.167 C 60.678 341.541,70.022 341.631,71.491 340.300 C 71.916 339.915,72.490 339.600,72.768 339.600 C 73.265 339.600,74.341 338.858,76.946 336.719 C 78.831 335.171,81.434 331.213,81.778 329.372 C 81.939 328.507,82.280 327.547,82.536 327.239 C 82.882 326.820,83.051 310.631,83.200 263.639 L 83.400 200.600 98.165 200.480 C 111.806 200.370,113.060 200.301,114.643 199.580 C 115.585 199.151,116.447 198.800,116.558 198.800 C 117.754 198.800,122.741 194.302,123.797 192.272 C 124.161 191.572,124.713 190.550,125.023 190.000 C 125.334 189.450,125.591 188.616,125.594 188.146 C 125.597 187.676,125.869 186.776,126.198 186.146 C 126.534 185.501,126.795 183.951,126.795 182.600 C 126.795 181.249,126.534 179.699,126.198 179.054 C 125.869 178.424,125.600 177.523,125.600 177.051 C 125.600 176.079,123.828 172.533,122.849 171.546 C 122.492 171.187,121.752 170.332,121.204 169.646 C 120.657 168.961,119.991 168.400,119.724 168.400 C 119.458 168.400,119.096 168.165,118.920 167.877 C 118.392 167.014,115.170 165.577,112.400 164.970 C 109.855 164.412,17.682 164.051,17.136 164.597 M147.169 164.560 C 147.043 164.689,145.975 164.977,144.797 165.201 C 143.619 165.424,142.359 165.875,141.996 166.203 C 141.634 166.532,141.034 166.800,140.665 166.800 C 140.295 166.800,139.684 167.160,139.307 167.600 C 138.930 168.040,138.479 168.400,138.304 168.400 C 137.125 168.400,132.400 175.003,132.400 176.651 C 132.400 176.968,132.085 177.709,131.700 178.296 C 130.613 179.955,130.613 326.045,131.700 327.704 C 132.085 328.291,132.400 329.039,132.400 329.365 C 132.400 331.004,137.549 338.000,138.755 338.000 C 138.933 338.000,139.493 338.360,140.000 338.800 C 140.507 339.240,141.196 339.600,141.530 339.600 C 141.864 339.600,142.485 339.915,142.910 340.300 C 144.169 341.440,153.768 341.568,156.093 340.476 C 157.032 340.035,158.188 339.561,158.663 339.422 C 159.138 339.283,159.627 338.906,159.750 338.585 C 159.874 338.263,160.179 338.000,160.428 338.000 C 161.070 338.000,164.800 334.351,164.800 333.722 C 164.800 333.435,164.974 333.200,165.188 333.200 C 165.778 333.200,167.412 329.338,168.149 326.200 C 169.154 321.919,169.156 184.090,168.151 179.800 C 166.794 174.010,161.567 166.800,158.726 166.800 C 158.471 166.800,157.965 166.530,157.601 166.201 C 156.494 165.199,147.875 163.844,147.169 164.560 M350.769 164.560 C 350.643 164.689,349.575 164.977,348.397 165.201 C 347.219 165.424,345.959 165.875,345.596 166.203 C 345.234 166.532,344.633 166.800,344.261 166.800 C 341.915 166.800,336.100 174.728,335.223 179.120 C 334.505 182.716,334.645 323.894,335.370 327.200 C 336.264 331.278,340.764 338.000,342.600 338.000 C 342.832 338.000,343.330 338.360,343.707 338.800 C 344.084 339.240,344.695 339.600,345.065 339.600 C 345.434 339.600,346.085 339.915,346.510 340.300 C 347.948 341.600,358.868 341.309,361.200 339.907 C 362.190 339.312,363.531 338.527,364.179 338.162 C 365.639 337.340,368.254 334.598,369.083 333.020 C 369.425 332.370,369.950 331.592,370.252 331.291 C 370.553 330.990,370.800 330.269,370.800 329.691 C 370.800 328.814,370.619 328.989,369.714 330.746 C 363.798 342.228,348.646 344.339,339.985 334.887 C 338.673 333.456,337.600 332.083,337.600 331.836 C 337.600 331.590,337.195 330.671,336.700 329.794 L 335.800 328.200 335.800 253.000 L 335.800 177.800 336.964 175.400 C 338.093 173.071,343.427 167.200,344.414 167.200 C 344.650 167.200,345.689 166.797,346.722 166.305 C 354.182 162.748,365.251 166.887,369.467 174.811 C 370.367 176.503,370.800 177.025,370.800 176.421 C 370.800 175.929,370.440 175.069,370.000 174.509 C 369.560 173.950,369.200 173.291,369.200 173.046 C 369.200 172.152,363.436 166.800,362.473 166.800 C 362.138 166.800,361.565 166.530,361.201 166.201 C 360.094 165.199,351.475 163.844,350.769 164.560 M157.700 166.938 C 163.140 169.590,166.632 174.337,167.564 180.346 C 168.176 184.284,168.176 321.716,167.564 325.654 C 164.559 345.024,137.688 346.153,132.247 327.138 C 131.165 323.357,131.268 182.372,132.356 178.495 C 135.463 167.419,147.462 161.947,157.700 166.938 M214.400 166.703 C 217.631 168.200,219.863 170.113,221.858 173.095 C 224.684 177.320,224.551 175.890,224.786 204.400 C 224.904 218.590,225.133 230.405,225.296 230.655 C 225.480 230.939,237.116 219.593,256.296 200.428 C 282.957 173.787,289.835 167.200,290.994 167.200 C 291.131 167.200,291.999 166.861,292.922 166.447 C 303.968 161.493,317.760 170.648,317.123 182.511 C 316.771 189.060,318.030 187.551,286.968 218.633 C 271.916 233.695,259.601 246.240,259.602 246.510 C 259.603 246.779,262.168 249.632,265.302 252.848 C 268.436 256.064,275.770 263.622,281.600 269.644 C 287.430 275.666,295.362 283.834,299.227 287.796 C 303.091 291.758,308.761 297.593,311.827 300.763 C 314.892 303.933,318.210 307.359,319.200 308.377 C 320.190 309.395,321.540 310.851,322.199 311.614 C 331.971 322.910,323.530 341.303,308.843 340.718 C 302.048 340.448,302.351 340.679,284.068 321.759 C 280.476 318.042,272.736 310.063,266.868 304.028 C 261.001 297.993,252.961 289.713,249.003 285.628 C 245.044 281.543,238.991 275.320,235.552 271.800 C 232.113 268.280,228.479 264.503,227.476 263.407 C 226.473 262.311,225.506 261.561,225.326 261.740 C 225.147 261.920,224.910 276.766,224.800 294.733 C 224.619 324.376,224.536 327.558,223.914 329.112 C 222.903 331.632,220.543 335.016,218.688 336.603 C 217.183 337.891,216.372 338.344,212.340 340.147 C 205.204 343.338,194.621 338.630,190.523 330.444 L 189.000 327.400 189.000 253.000 L 189.000 178.600 190.249 176.000 C 192.228 171.881,197.154 166.800,199.168 166.800 C 199.538 166.800,200.014 166.626,200.227 166.413 C 201.873 164.767,210.608 164.946,214.400 166.703 M371.047 178.800 C 371.511 180.639,371.511 325.361,371.047 327.200 C 370.773 328.289,370.802 328.500,371.178 328.149 C 372.301 327.103,372.381 322.083,372.373 253.200 C 372.365 184.205,372.282 178.884,371.195 177.868 C 370.796 177.495,370.766 177.686,371.047 178.800 " stroke="none" fill="#e2f4fc" fill-rule="evenodd"></path><path id="path4" d="M142.400 69.178 C 139.323 69.891,135.757 70.859,135.000 71.188 C 126.144 75.035,120.628 79.085,116.001 85.138 C 100.440 105.494,106.296 135.355,128.360 148.160 C 130.943 149.658,131.905 150.070,137.000 151.858 C 146.243 155.101,162.165 153.684,169.923 148.928 C 191.033 135.986,198.169 113.115,187.749 91.800 C 183.239 82.574,173.983 74.438,164.400 71.277 C 157.688 69.063,157.595 69.047,150.600 68.949 C 146.860 68.897,143.170 69.000,142.400 69.178 M346.000 69.197 C 342.999 69.851,339.336 70.881,338.000 71.446 C 331.755 74.087,325.917 78.010,322.517 81.848 C 320.307 84.344,317.200 88.260,317.200 88.550 C 317.200 88.645,316.614 89.775,315.898 91.062 C 303.851 112.693,313.321 139.643,336.800 150.549 C 345.488 154.584,363.887 154.579,369.789 150.540 C 370.223 150.243,370.811 150.000,371.095 150.000 C 371.538 150.000,373.390 149.018,376.599 147.082 C 390.038 138.973,397.670 122.131,395.582 105.190 C 393.897 91.511,384.341 78.514,371.774 72.810 C 370.248 72.117,368.687 71.382,368.305 71.175 C 367.407 70.690,366.800 70.698,366.800 71.194 C 366.800 71.411,367.605 71.791,368.588 72.039 C 369.571 72.286,370.583 72.739,370.837 73.044 C 371.090 73.350,371.559 73.600,371.878 73.600 C 372.687 73.600,377.298 76.316,379.354 78.003 C 383.021 81.013,388.800 87.618,388.800 88.800 C 388.800 88.998,389.025 89.304,389.300 89.480 C 389.916 89.874,392.000 94.051,392.000 94.891 C 392.000 95.227,392.261 95.719,392.580 95.984 C 392.900 96.249,393.280 97.306,393.426 98.333 C 393.572 99.360,393.986 100.830,394.346 101.600 C 395.317 103.679,395.315 119.720,394.343 121.200 C 393.982 121.750,393.568 123.040,393.424 124.067 C 393.279 125.094,392.918 126.136,392.622 126.382 C 392.326 126.627,391.970 127.434,391.831 128.174 C 391.692 128.914,391.314 129.740,390.989 130.009 C 390.665 130.278,390.400 130.829,390.400 131.233 C 390.400 131.638,390.077 132.291,389.682 132.684 C 389.287 133.078,388.748 133.850,388.485 134.400 C 387.623 136.200,387.040 136.921,383.800 140.201 C 380.259 143.785,377.572 146.000,375.900 146.714 C 375.295 146.972,374.800 147.352,374.800 147.560 C 374.800 147.767,374.272 148.052,373.628 148.194 C 372.983 148.336,372.250 148.698,372.000 149.000 C 371.750 149.302,370.975 149.674,370.278 149.827 C 369.582 149.980,368.649 150.334,368.206 150.614 C 367.763 150.894,366.590 151.252,365.600 151.409 C 364.610 151.566,363.350 151.922,362.800 152.201 C 360.508 153.362,344.896 153.241,343.462 152.052 C 343.186 151.823,342.159 151.510,341.180 151.357 C 340.201 151.204,338.773 150.746,338.006 150.339 C 337.239 149.933,336.316 149.600,335.955 149.600 C 335.594 149.600,335.083 149.342,334.821 149.026 C 334.559 148.710,333.832 148.339,333.206 148.201 C 332.579 148.064,331.967 147.692,331.846 147.376 C 331.724 147.059,331.377 146.800,331.075 146.800 C 330.772 146.800,330.001 146.350,329.362 145.800 C 328.723 145.251,328.073 144.801,327.918 144.800 C 327.763 144.800,326.622 143.810,325.382 142.600 C 324.143 141.390,322.977 140.400,322.791 140.400 C 322.606 140.400,322.340 140.040,322.200 139.600 C 322.060 139.160,321.796 138.800,321.612 138.800 C 321.329 138.800,319.194 135.919,317.800 133.658 C 317.580 133.301,317.085 132.578,316.700 132.051 C 316.315 131.523,316.000 130.769,316.000 130.375 C 316.000 129.980,315.738 129.395,315.417 129.074 C 315.097 128.754,314.625 127.661,314.370 126.646 C 314.114 125.631,313.763 124.800,313.589 124.800 C 313.415 124.800,313.055 123.495,312.789 121.900 C 312.523 120.305,312.131 118.666,311.917 118.258 C 311.412 117.296,311.462 105.006,311.974 104.048 C 312.190 103.645,312.561 102.095,312.800 100.602 C 313.038 99.109,313.496 97.513,313.817 97.055 C 314.137 96.597,314.400 95.840,314.400 95.372 C 314.400 94.905,314.760 94.107,315.200 93.600 C 315.640 93.093,316.000 92.356,316.000 91.962 C 316.000 91.569,316.198 91.125,316.440 90.976 C 316.681 90.826,317.086 90.230,317.340 89.651 C 319.035 85.773,329.619 75.200,331.807 75.200 C 332.079 75.200,332.517 74.942,332.779 74.626 C 333.041 74.310,333.770 73.938,334.400 73.800 C 335.030 73.662,335.759 73.290,336.021 72.974 C 336.283 72.658,336.798 72.400,337.164 72.400 C 337.531 72.400,338.537 72.040,339.400 71.600 C 340.263 71.160,341.348 70.800,341.812 70.800 C 342.275 70.800,343.992 70.444,345.627 70.009 C 347.802 69.431,349.889 69.219,353.400 69.219 C 356.911 69.219,358.998 69.431,361.173 70.009 C 364.738 70.957,367.878 71.110,364.600 70.176 C 363.500 69.863,361.720 69.425,360.645 69.203 C 358.414 68.743,348.104 68.739,346.000 69.197 M156.600 69.816 C 157.480 70.135,159.159 70.514,160.330 70.657 C 161.502 70.800,163.115 71.251,163.915 71.659 C 164.715 72.066,165.669 72.400,166.036 72.400 C 166.402 72.400,166.917 72.658,167.179 72.974 C 167.441 73.290,168.170 73.662,168.800 73.800 C 169.430 73.938,170.159 74.310,170.421 74.626 C 170.683 74.942,171.124 75.200,171.401 75.200 C 171.935 75.200,176.028 78.156,177.442 79.562 C 177.905 80.023,178.490 80.400,178.742 80.400 C 178.994 80.400,179.200 80.596,179.200 80.836 C 179.200 81.075,179.965 82.047,180.900 82.994 C 182.845 84.965,185.185 88.105,185.860 89.651 C 186.114 90.230,186.505 90.818,186.730 90.957 C 186.955 91.096,187.254 91.735,187.395 92.377 C 187.536 93.019,187.910 93.759,188.226 94.021 C 188.542 94.283,188.800 94.927,188.800 95.450 C 188.800 95.974,189.160 97.075,189.600 97.896 C 190.040 98.716,190.408 99.931,190.418 100.594 C 190.427 101.257,190.695 102.520,191.012 103.400 C 191.683 105.265,191.847 117.191,191.217 118.368 C 191.006 118.762,190.636 120.321,190.395 121.832 C 190.153 123.343,189.800 124.676,189.610 124.794 C 189.419 124.912,189.135 125.546,188.977 126.204 C 188.657 127.538,186.746 131.634,185.688 133.251 C 183.427 136.706,181.880 138.800,181.588 138.800 C 181.404 138.800,181.140 139.160,181.000 139.600 C 180.860 140.040,180.594 140.400,180.409 140.400 C 180.223 140.400,179.057 141.390,177.818 142.600 C 176.578 143.810,175.414 144.800,175.231 144.800 C 175.048 144.800,174.651 145.098,174.349 145.462 C 174.047 145.826,173.215 146.368,172.500 146.667 C 171.785 146.966,171.200 147.374,171.200 147.574 C 171.200 147.773,170.672 148.052,170.028 148.194 C 169.383 148.336,168.650 148.698,168.400 149.000 C 168.150 149.302,167.372 149.671,166.672 149.820 C 165.973 149.970,165.208 150.246,164.974 150.433 C 164.740 150.621,163.467 151.027,162.145 151.335 C 160.823 151.644,159.305 152.133,158.771 152.424 C 157.229 153.262,142.227 153.175,140.514 152.318 C 139.806 151.964,138.457 151.545,137.516 151.386 C 136.574 151.227,135.176 150.760,134.408 150.348 C 133.640 149.937,132.716 149.600,132.355 149.600 C 131.994 149.600,131.483 149.342,131.221 149.026 C 130.959 148.710,130.217 148.336,129.572 148.194 C 128.928 148.052,128.400 147.767,128.400 147.560 C 128.400 147.352,127.905 146.972,127.300 146.714 C 124.767 145.633,116.000 137.456,116.000 136.174 C 116.000 135.859,115.825 135.600,115.610 135.600 C 115.396 135.600,114.921 135.015,114.554 134.300 C 114.188 133.585,113.771 132.910,113.627 132.800 C 113.396 132.624,112.929 131.679,110.559 126.600 C 110.251 125.940,109.843 124.547,109.652 123.504 C 109.461 122.461,109.056 121.309,108.752 120.943 C 107.871 119.881,107.962 103.107,108.859 101.200 C 109.221 100.430,109.640 99.045,109.790 98.123 C 109.940 97.201,110.318 96.234,110.631 95.974 C 110.944 95.714,111.200 95.243,111.200 94.926 C 111.200 94.331,113.149 89.954,113.572 89.600 C 113.703 89.490,114.528 88.336,115.405 87.035 C 116.903 84.814,121.976 79.458,124.061 77.897 C 126.786 75.856,127.800 75.200,128.229 75.200 C 128.489 75.200,128.911 74.948,129.167 74.639 C 129.423 74.331,130.120 73.957,130.716 73.808 C 131.312 73.659,132.070 73.298,132.400 73.006 C 132.730 72.714,133.757 72.273,134.683 72.026 C 135.609 71.780,136.474 71.403,136.607 71.189 C 136.739 70.975,137.422 70.788,138.124 70.773 C 138.826 70.758,140.570 70.417,142.000 70.014 C 145.367 69.066,154.204 68.946,156.600 69.816 M117.280 103.280 C 117.016 103.544,116.800 104.159,116.800 104.648 C 116.800 105.136,116.510 106.668,116.155 108.053 C 115.608 110.187,115.584 110.969,115.994 113.185 C 116.261 114.623,116.617 116.920,116.787 118.290 C 116.956 119.659,117.388 121.228,117.747 121.776 C 118.106 122.324,118.400 123.032,118.400 123.349 C 118.400 124.036,120.373 127.975,121.094 128.729 C 121.372 129.019,121.600 129.469,121.600 129.729 C 121.600 129.988,122.320 130.988,123.200 131.951 C 124.080 132.913,124.800 133.771,124.800 133.857 C 124.800 134.009,125.274 134.456,128.600 137.439 C 129.480 138.229,130.785 139.130,131.500 139.443 C 132.215 139.755,132.800 140.174,132.800 140.374 C 132.800 140.573,133.328 140.852,133.972 140.994 C 134.617 141.136,135.344 141.491,135.587 141.784 C 135.830 142.077,136.697 142.442,137.513 142.595 C 138.330 142.748,139.119 143.068,139.266 143.307 C 140.441 145.208,156.864 145.276,159.842 143.391 C 160.304 143.098,161.333 142.736,162.127 142.587 C 162.922 142.438,163.770 142.077,164.013 141.784 C 164.256 141.491,164.983 141.136,165.628 140.994 C 166.272 140.852,166.800 140.561,166.800 140.347 C 166.800 140.133,167.326 139.775,167.968 139.551 C 168.610 139.327,169.235 138.887,169.355 138.572 C 169.476 138.257,169.834 138.000,170.151 138.000 C 170.861 138.000,177.200 131.292,177.200 130.541 C 177.200 130.244,177.363 130.000,177.562 130.000 C 177.982 130.000,180.000 126.682,180.000 125.992 C 180.000 125.736,180.360 125.069,180.800 124.509 C 181.240 123.950,181.601 123.111,181.602 122.646 C 181.604 122.181,181.901 121.260,182.263 120.600 C 182.714 119.778,182.955 118.204,183.028 115.600 C 183.130 111.958,183.122 111.917,182.832 114.600 C 182.219 120.270,179.449 127.075,175.994 131.395 C 173.955 133.945,170.290 137.600,169.772 137.600 C 169.602 137.600,169.133 137.899,168.729 138.264 C 165.917 140.809,159.198 143.388,153.648 144.052 C 137.761 145.954,123.747 136.805,117.988 120.772 C 117.027 118.095,116.562 107.359,117.295 104.751 C 117.732 103.194,117.381 103.210,150.386 103.210 C 185.545 103.210,182.335 102.792,182.806 107.434 L 183.086 110.200 183.143 107.300 C 183.241 102.318,186.824 102.800,149.680 102.800 C 125.387 102.800,117.645 102.915,117.280 103.280 M321.021 103.335 C 319.462 104.475,319.460 116.013,321.017 120.823 C 321.881 123.489,323.595 127.213,324.288 127.929 C 324.570 128.219,324.800 128.720,324.800 129.041 C 324.800 129.362,325.070 129.729,325.400 129.855 C 325.730 129.982,326.000 130.323,326.000 130.613 C 326.000 131.614,334.372 139.600,335.421 139.600 C 335.692 139.600,336.012 139.853,336.130 140.162 C 336.249 140.472,336.886 140.843,337.545 140.988 C 338.205 141.133,338.944 141.491,339.187 141.784 C 339.430 142.077,340.297 142.442,341.113 142.595 C 341.930 142.748,342.719 143.068,342.866 143.307 C 344.051 145.224,361.337 145.238,363.653 143.324 C 363.954 143.075,364.869 142.747,365.686 142.594 C 366.503 142.441,367.370 142.077,367.613 141.784 C 367.856 141.491,368.595 141.133,369.255 140.988 C 369.914 140.843,370.551 140.472,370.670 140.162 C 370.788 139.853,371.091 139.600,371.343 139.600 C 371.594 139.599,372.340 139.157,373.000 138.617 C 373.660 138.076,374.613 137.311,375.117 136.917 C 377.693 134.904,381.313 130.773,381.761 129.337 C 381.909 128.862,382.294 128.373,382.615 128.250 C 382.937 128.126,383.201 127.704,383.203 127.313 C 383.204 126.921,383.563 126.060,384.000 125.400 C 384.437 124.740,384.796 123.884,384.797 123.499 C 384.799 123.113,385.160 122.125,385.600 121.304 C 386.040 120.484,386.400 119.262,386.400 118.590 C 386.400 117.918,386.670 116.331,387.000 115.065 C 387.930 111.495,387.133 104.502,385.660 103.300 C 384.727 102.539,322.063 102.574,321.021 103.335 M385.486 104.115 C 387.582 106.212,386.258 119.066,383.278 125.537 C 380.079 132.485,369.044 142.383,364.480 142.398 C 364.194 142.399,363.460 142.658,362.849 142.974 C 362.238 143.290,359.838 143.763,357.515 144.024 C 340.492 145.940,325.474 135.536,321.184 118.856 C 319.914 113.918,320.128 105.111,321.546 103.963 C 322.966 102.813,384.331 102.959,385.486 104.115 M15.400 165.993 C 1.419 169.621,-1.804 188.615,10.208 196.588 C 14.803 199.638,15.227 199.703,31.800 199.882 C 44.922 200.024,46.657 200.116,47.100 200.698 C 47.495 201.215,47.601 214.341,47.606 263.176 C 47.611 316.084,47.696 325.359,48.198 327.487 C 51.830 342.891,72.632 345.179,80.131 331.000 L 81.400 328.600 81.600 264.720 C 81.731 222.928,81.938 200.704,82.200 200.448 C 82.440 200.213,88.371 199.988,97.000 199.888 C 113.130 199.700,113.618 199.624,118.209 196.576 C 129.622 189.001,127.152 170.983,114.080 166.459 L 111.597 165.600 64.098 165.641 C 37.974 165.663,16.060 165.822,15.400 165.993 M144.014 166.393 C 139.190 168.176,133.134 174.079,133.213 176.923 C 133.233 177.627,134.800 175.619,134.800 174.889 C 134.800 174.210,135.056 173.882,137.674 171.200 C 140.004 168.814,141.538 167.763,143.216 167.404 C 143.977 167.241,144.852 166.903,145.161 166.654 C 145.912 166.046,153.191 166.061,154.437 166.672 C 154.967 166.932,156.061 167.346,156.868 167.593 C 157.675 167.839,158.552 168.302,158.817 168.620 C 159.082 168.939,159.552 169.200,159.862 169.200 C 160.171 169.200,160.526 169.463,160.650 169.785 C 160.773 170.106,161.217 170.479,161.637 170.612 C 162.057 170.745,162.400 171.093,162.400 171.384 C 162.400 171.676,162.670 172.018,163.000 172.145 C 163.330 172.271,163.600 172.623,163.600 172.925 C 163.600 173.228,163.950 173.793,164.377 174.179 C 164.805 174.566,165.273 175.449,165.417 176.141 C 165.561 176.834,165.932 177.800,166.241 178.289 C 167.301 179.963,166.836 326.374,165.763 329.000 C 164.768 331.434,163.241 334.000,162.787 334.000 C 162.604 334.000,162.340 334.360,162.200 334.800 C 162.060 335.240,161.697 335.600,161.393 335.600 C 161.089 335.600,160.696 335.840,160.520 336.133 C 158.948 338.752,148.803 340.997,145.746 339.402 C 145.116 339.074,144.295 338.804,143.921 338.802 C 141.967 338.795,134.800 332.986,134.800 331.409 C 134.800 331.178,134.395 330.271,133.900 329.394 L 133.000 327.800 133.000 252.734 C 133.000 193.212,132.900 178.096,132.517 179.734 C 131.697 183.241,131.798 323.067,132.623 326.675 C 134.130 333.266,137.177 336.617,144.514 339.753 C 146.584 340.638,153.003 340.641,155.086 339.759 C 160.781 337.346,164.721 333.885,165.809 330.341 C 165.968 329.824,166.240 329.220,166.414 329.000 C 167.483 327.648,167.600 320.106,167.592 252.671 C 167.587 208.076,167.439 181.997,167.182 180.214 C 165.679 169.820,153.846 162.761,144.014 166.393 M201.400 166.326 C 195.492 168.532,192.396 171.605,190.199 177.441 L 189.200 180.095 189.200 253.000 L 189.200 325.905 190.199 328.559 C 195.600 342.907,214.857 344.826,222.169 331.745 C 224.830 326.983,224.800 327.423,224.800 292.862 C 224.800 257.751,224.615 259.667,227.678 263.011 C 228.625 264.045,230.570 266.088,232.000 267.551 C 238.294 273.988,249.808 285.845,259.600 295.970 C 275.594 312.509,282.726 319.871,285.611 322.823 C 287.047 324.292,290.467 327.812,293.210 330.647 C 304.665 342.481,312.701 343.845,320.827 335.333 C 329.201 326.561,327.883 317.651,316.504 306.119 C 314.357 303.943,308.010 297.418,302.400 291.620 C 287.708 276.436,288.453 277.204,275.800 264.185 C 269.420 257.621,263.075 251.113,261.700 249.724 C 260.325 248.335,259.200 246.883,259.200 246.498 C 259.200 246.104,270.950 234.061,286.029 218.999 C 317.616 187.448,316.799 188.436,316.800 181.763 C 316.800 176.649,312.576 168.892,309.749 168.813 C 309.501 168.806,309.082 168.540,308.819 168.223 C 307.030 166.067,298.011 165.082,293.600 166.561 C 289.466 167.946,287.290 169.951,256.459 200.785 C 238.180 219.066,225.542 231.412,225.276 231.247 C 224.956 231.049,224.792 223.748,224.700 205.585 C 224.577 181.059,224.544 180.117,223.736 177.742 C 222.147 173.075,217.950 168.349,214.306 167.123 C 213.588 166.882,212.763 166.498,212.473 166.271 C 211.442 165.462,203.608 165.501,201.400 166.326 M347.755 166.365 C 342.847 168.133,339.794 170.846,337.551 175.436 L 336.200 178.200 336.097 252.535 C 335.995 326.212,336.001 326.887,336.797 328.686 C 337.239 329.685,337.600 330.651,337.600 330.833 C 337.600 331.015,338.005 331.759,338.500 332.486 C 342.095 337.765,347.147 340.400,353.673 340.400 C 357.184 340.400,357.870 340.224,362.000 338.268 C 365.989 336.379,369.608 331.516,370.626 326.677 C 371.347 323.250,371.491 184.462,370.779 180.000 C 369.127 169.662,357.584 162.826,347.755 166.365 M113.398 166.858 C 117.408 168.116,119.500 169.675,122.500 173.638 C 122.885 174.147,123.206 174.751,123.214 174.981 C 123.221 175.212,123.575 176.120,124.000 177.000 C 125.223 179.531,125.108 185.924,123.791 188.600 C 123.250 189.700,122.806 190.825,122.804 191.100 C 122.802 191.375,122.614 191.600,122.387 191.600 C 122.161 191.600,121.862 191.915,121.723 192.300 C 121.376 193.266,118.108 196.400,117.447 196.400 C 117.150 196.400,116.469 196.745,115.932 197.168 C 114.104 198.606,111.098 198.911,96.319 199.160 C 87.361 199.310,81.885 199.554,81.627 199.813 C 81.348 200.092,81.180 220.909,81.107 264.013 L 81.000 327.800 80.100 329.394 C 79.605 330.271,79.200 331.216,79.200 331.494 C 79.200 332.034,78.920 332.387,76.264 335.200 C 72.674 339.002,64.485 341.248,60.946 339.402 C 60.316 339.074,59.491 338.804,59.112 338.802 C 56.633 338.794,51.616 334.340,49.706 330.452 L 48.600 328.200 48.491 264.341 C 48.390 205.913,48.326 200.436,47.730 199.941 C 47.220 199.518,43.939 199.353,32.639 199.184 C 17.568 198.958,13.908 198.595,12.046 197.144 C 11.521 196.735,10.866 196.400,10.589 196.400 C 10.312 196.400,9.982 196.130,9.855 195.800 C 9.729 195.470,9.349 195.200,9.013 195.200 C 8.676 195.200,8.400 195.046,8.400 194.858 C 8.400 194.553,7.431 193.326,5.824 191.597 C 5.516 191.265,5.133 190.455,4.972 189.797 C 4.812 189.139,4.437 188.245,4.140 187.811 C 3.247 186.507,3.430 178.608,4.400 176.600 C 4.825 175.720,5.179 174.801,5.186 174.558 C 5.207 173.899,9.989 168.800,10.586 168.800 C 10.870 168.800,11.317 168.542,11.579 168.226 C 11.841 167.910,12.628 167.529,13.328 167.380 C 14.027 167.230,14.780 166.968,15.000 166.797 C 15.857 166.131,18.422 166.091,63.833 166.046 L 110.665 166.000 113.398 166.858 M211.698 166.680 C 211.974 166.889,212.965 167.279,213.900 167.546 C 214.835 167.813,215.600 168.193,215.600 168.389 C 215.600 168.585,215.931 168.851,216.335 168.979 C 217.451 169.334,220.781 172.677,221.457 174.121 C 221.786 174.825,222.358 175.940,222.728 176.600 C 223.335 177.684,223.411 180.359,223.516 204.379 C 223.636 231.787,223.650 232.000,225.256 232.000 C 225.727 232.000,237.746 220.266,256.994 201.015 C 274.033 183.973,288.655 169.661,289.487 169.210 C 290.319 168.760,291.270 168.226,291.600 168.024 C 295.139 165.858,303.766 165.864,307.200 168.037 C 307.530 168.245,308.340 168.670,309.000 168.979 C 310.349 169.613,313.600 172.535,313.600 173.115 C 313.600 173.322,313.936 173.921,314.347 174.446 C 315.554 175.988,316.604 181.614,316.071 183.688 C 315.829 184.630,315.522 185.973,315.390 186.672 C 315.257 187.372,314.890 188.159,314.574 188.421 C 314.258 188.683,314.000 189.185,314.000 189.537 C 314.000 189.888,301.648 202.536,286.551 217.643 C 271.454 232.751,258.966 245.331,258.800 245.600 C 258.024 246.856,257.912 246.727,275.300 264.457 C 277.445 266.644,279.200 268.508,279.200 268.599 C 279.200 268.910,281.236 270.800,281.572 270.800 C 281.757 270.800,282.173 271.205,282.498 271.700 C 282.822 272.195,285.048 274.612,287.444 277.070 C 289.840 279.529,295.670 285.538,300.400 290.423 C 305.130 295.309,311.520 301.874,314.600 305.013 C 321.462 312.007,322.679 313.379,323.024 314.513 C 323.173 315.001,323.554 315.696,323.872 316.058 C 327.004 319.632,324.912 330.362,320.179 335.000 C 316.939 338.175,316.763 338.297,314.625 338.835 C 313.614 339.090,312.689 339.456,312.570 339.649 C 311.935 340.676,302.573 339.134,302.067 337.920 C 301.993 337.744,301.704 337.600,301.423 337.600 C 300.941 337.600,297.200 333.903,286.297 322.653 C 283.711 319.984,281.408 317.620,281.180 317.400 C 280.953 317.180,280.279 316.484,279.683 315.853 C 279.087 315.222,276.485 312.568,273.900 309.957 C 271.315 307.345,269.200 305.038,269.200 304.831 C 269.200 304.624,268.840 304.340,268.400 304.200 C 267.960 304.060,267.600 303.807,267.600 303.638 C 267.600 303.468,266.774 302.536,265.764 301.565 C 264.754 300.594,263.719 299.567,263.464 299.282 C 263.209 298.997,261.560 297.272,259.800 295.448 C 258.040 293.624,253.090 288.483,248.800 284.024 C 244.510 279.565,238.210 273.059,234.800 269.566 C 231.390 266.074,228.000 262.582,227.266 261.808 C 225.823 260.285,225.544 260.188,224.383 260.809 C 223.640 261.207,223.617 262.141,223.583 293.509 C 223.548 326.249,223.448 329.021,222.264 330.330 C 221.899 330.733,221.600 331.328,221.600 331.653 C 221.600 332.406,217.877 336.220,216.019 337.371 C 212.296 339.676,205.496 340.732,202.946 339.402 C 202.316 339.074,201.497 338.804,201.127 338.802 C 198.973 338.795,193.416 334.453,192.390 331.976 C 192.122 331.329,191.761 330.800,191.587 330.800 C 191.413 330.800,191.143 330.035,190.988 329.100 C 190.833 328.165,190.457 326.914,190.153 326.320 C 189.310 324.673,189.356 181.076,190.200 179.600 C 190.514 179.050,190.778 178.258,190.786 177.840 C 190.831 175.408,194.058 171.027,197.400 168.861 C 201.233 166.376,209.612 165.098,211.698 166.680 M358.064 166.675 C 358.359 166.913,359.223 167.241,359.984 167.404 C 361.662 167.763,363.196 168.814,365.526 171.200 C 368.094 173.830,368.400 174.213,368.400 174.786 C 368.400 175.072,368.805 175.957,369.300 176.753 L 370.200 178.200 370.200 253.000 L 370.200 327.800 369.300 329.394 C 368.805 330.271,368.400 331.193,368.400 331.443 C 368.400 333.298,362.118 337.960,357.746 339.348 C 353.266 340.771,344.318 338.861,342.680 336.133 C 342.504 335.840,342.099 335.600,341.780 335.600 C 341.461 335.600,341.200 335.324,341.200 334.987 C 341.200 334.651,340.938 334.274,340.618 334.152 C 339.791 333.834,338.415 331.426,337.333 328.400 L 336.403 325.800 336.402 252.589 C 336.400 191.564,336.490 179.247,336.943 178.589 C 337.242 178.155,337.606 177.150,337.751 176.355 C 337.897 175.560,338.372 174.587,338.808 174.193 C 339.244 173.799,339.600 173.300,339.600 173.085 C 339.600 172.618,342.957 169.200,343.416 169.200 C 343.592 169.200,344.035 168.930,344.400 168.600 C 346.720 166.500,356.195 165.166,358.064 166.675 " stroke="none" fill="#baeafc" fill-rule="evenodd"></path></g></svg>