<svg id="svg" version="1.1" xmlns="http://www.w3.org/2000/svg" xmlns:xlink="http://www.w3.org/1999/xlink" width="400" height="400" viewBox="0, 0, 400,400"><g id="svgg"><path id="path0" d="M46.639 65.538 C 46.500 65.761,46.582 66.065,46.820 66.212 C 47.435 66.593,47.832 66.072,47.318 65.558 C 47.031 65.271,46.807 65.264,46.639 65.538 M177.439 65.538 C 177.300 65.761,177.382 66.065,177.620 66.212 C 178.235 66.593,178.632 66.072,178.118 65.558 C 177.831 65.271,177.607 65.264,177.439 65.538 M352.400 96.900 C 352.400 97.212,352.675 97.467,353.011 97.467 C 353.703 97.467,353.600 96.733,352.875 96.492 C 352.614 96.405,352.400 96.588,352.400 96.900 M136.684 195.034 C 134.356 196.246,133.666 196.938,132.499 199.230 L 131.598 201.000 131.598 243.800 L 131.598 286.600 132.499 288.386 C 133.574 290.518,134.382 291.295,136.887 292.610 L 138.773 293.600 187.603 293.600 L 236.432 293.600 238.116 292.755 C 243.589 290.008,243.941 287.051,243.941 243.800 C 243.941 200.549,243.589 197.592,238.116 194.845 L 236.432 194.000 187.516 194.019 L 138.600 194.037 136.684 195.034 M262.499 225.301 C 250.967 236.835,244.800 243.282,244.800 243.803 C 244.800 245.078,280.305 280.377,280.804 279.600 C 281.343 278.763,281.140 207.913,280.599 207.733 C 280.378 207.659,272.233 215.565,262.499 225.301 M356.100 333.128 C 355.437 333.222,355.200 333.523,355.200 334.270 C 355.200 334.828,354.795 335.803,354.300 336.436 C 353.805 337.069,352.988 338.122,352.484 338.776 C 351.326 340.279,348.252 342.370,346.759 342.668 C 346.132 342.794,345.412 343.145,345.160 343.448 C 344.473 344.276,55.527 344.276,54.840 343.448 C 54.588 343.145,53.838 342.788,53.173 342.655 C 50.361 342.092,44.800 336.424,44.800 334.121 C 44.800 333.392,44.580 333.200,43.741 333.200 L 42.682 333.200 42.911 337.035 C 43.065 339.608,43.337 341.090,43.739 341.535 C 44.068 341.901,44.461 342.695,44.612 343.300 C 44.763 343.905,45.116 344.400,45.397 344.400 C 45.677 344.400,46.001 344.760,46.116 345.200 C 46.231 345.640,46.591 346.000,46.916 346.000 C 47.241 346.000,47.601 346.360,47.716 346.800 C 47.831 347.240,48.191 347.600,48.516 347.600 C 48.841 347.600,49.201 347.960,49.316 348.400 C 49.453 348.924,49.862 349.200,50.501 349.200 C 51.037 349.200,51.802 349.560,52.200 350.000 C 52.921 350.797,53.432 350.800,200.000 350.800 C 346.568 350.800,347.079 350.797,347.800 350.000 C 348.198 349.560,348.963 349.200,349.499 349.200 C 350.138 349.200,350.547 348.924,350.684 348.400 C 350.799 347.960,351.159 347.600,351.484 347.600 C 351.809 347.600,352.165 347.257,352.274 346.837 C 352.384 346.417,352.817 345.984,353.237 345.874 C 353.657 345.765,354.000 345.388,354.000 345.037 C 354.000 344.687,354.250 344.400,354.557 344.400 C 354.863 344.400,355.237 343.905,355.388 343.300 C 355.539 342.695,355.963 341.867,356.330 341.459 C 356.798 340.940,357.040 339.799,357.137 337.642 C 357.326 333.492,357.206 332.971,356.100 333.128 " stroke="none" fill="#4c1c1c" fill-rule="evenodd"></path><path id="path1" d="M73.231 113.741 C 71.063 114.466,70.191 115.071,67.631 117.628 C 63.165 122.090,62.714 123.737,62.878 135.000 L 63.000 143.400 200.000 143.400 L 337.000 143.400 337.108 134.477 C 337.193 127.390,337.097 125.291,336.640 124.277 C 336.323 123.575,335.934 122.554,335.776 122.009 C 335.082 119.618,329.955 114.406,328.288 114.398 C 328.020 114.396,327.260 114.081,326.600 113.698 C 325.466 113.039,318.501 112.997,200.600 112.941 L 75.800 112.881 73.231 113.741 " stroke="none" fill="#e3e3e3" fill-rule="evenodd"></path><path id="path2" d="M42.991 114.000 C 42.991 132.370,43.040 139.885,43.100 130.700 C 43.160 121.515,43.160 106.485,43.100 97.300 C 43.040 88.115,42.991 95.630,42.991 114.000 M57.158 144.465 C 51.081 145.648,47.333 148.855,45.173 154.719 C 44.616 156.232,43.558 156.316,43.218 154.874 C 43.065 154.230,43.051 287.384,43.199 331.300 C 43.200 331.465,43.554 331.600,43.986 331.600 C 44.898 331.600,45.600 332.712,45.600 334.157 C 45.600 335.566,52.013 342.000,53.419 342.000 C 53.960 342.000,55.075 342.360,55.896 342.800 C 57.380 343.596,58.152 343.600,200.000 343.600 C 341.848 343.600,342.620 343.596,344.104 342.800 C 344.925 342.360,346.050 342.000,346.604 342.000 C 348.113 342.000,354.400 335.624,354.400 334.095 C 354.400 332.572,355.414 331.210,356.406 331.401 C 357.196 331.553,357.200 331.131,357.172 243.077 C 357.156 194.415,357.021 154.893,356.872 155.250 C 356.350 156.498,354.955 155.439,354.444 153.407 C 353.887 151.196,349.339 146.321,347.376 145.832 C 346.729 145.670,345.653 145.279,344.983 144.963 C 343.694 144.354,60.248 143.863,57.158 144.465 M239.572 194.400 C 241.295 195.655,241.945 196.305,243.200 198.028 L 244.200 199.400 244.310 220.687 L 244.420 241.974 262.430 223.952 C 281.269 205.101,281.355 205.030,281.790 208.077 C 282.428 212.535,281.821 280.351,281.138 281.034 C 280.521 281.650,279.225 280.444,262.448 263.648 L 244.420 245.600 244.310 266.900 L 244.200 288.200 243.200 289.572 C 242.650 290.327,241.918 291.227,241.572 291.572 C 241.227 291.918,240.327 292.650,239.572 293.200 L 238.200 294.200 188.138 294.305 C 153.686 294.377,137.784 294.278,137.138 293.987 C 134.937 292.998,132.422 291.018,132.407 290.263 C 132.403 290.078,132.040 289.469,131.600 288.909 C 130.811 287.906,130.800 287.286,130.800 243.800 C 130.800 200.314,130.811 199.694,131.600 198.691 C 132.040 198.131,132.405 197.522,132.411 197.337 C 132.425 196.919,134.388 195.026,135.200 194.648 C 135.530 194.494,136.250 194.107,136.800 193.788 C 137.662 193.287,144.713 193.220,188.000 193.303 L 238.200 193.400 239.572 194.400 " stroke="none" fill="#dd5252" fill-rule="evenodd"></path><path id="path3" d="M52.900 62.049 C 52.185 62.255,51.600 62.598,51.600 62.811 C 51.600 63.025,51.250 63.200,50.823 63.200 C 50.395 63.200,49.810 63.527,49.523 63.926 C 49.235 64.326,48.685 64.770,48.300 64.914 C 47.915 65.057,47.600 65.451,47.600 65.787 C 47.600 66.124,47.313 66.400,46.963 66.400 C 46.612 66.400,46.231 66.760,46.116 67.200 C 46.001 67.640,45.744 68.000,45.545 68.000 C 45.346 68.000,44.972 68.495,44.714 69.100 C 44.456 69.705,43.994 70.502,43.687 70.871 C 43.099 71.578,42.808 154.642,43.390 155.585 C 43.888 156.390,44.708 155.985,45.181 154.700 C 47.532 148.305,52.332 144.734,59.375 144.138 L 62.291 143.892 62.263 133.846 L 62.236 123.800 63.618 121.200 C 65.368 117.908,67.885 115.385,71.200 113.600 L 73.800 112.200 200.000 112.200 L 326.200 112.200 327.794 113.100 C 328.671 113.595,329.614 114.000,329.891 114.000 C 330.923 114.000,335.487 119.002,336.643 121.400 L 337.800 123.800 337.742 133.846 L 337.683 143.892 340.920 144.162 C 342.700 144.310,344.346 144.586,344.578 144.775 C 344.810 144.963,345.810 145.357,346.800 145.649 C 349.431 146.427,353.803 150.865,354.444 153.407 C 354.956 155.442,356.345 156.493,356.879 155.250 C 357.705 153.329,357.148 103.326,356.286 101.951 C 355.465 100.644,355.357 100.402,355.250 99.647 C 355.222 99.452,354.822 99.194,354.360 99.074 C 353.863 98.944,353.634 98.668,353.800 98.400 C 353.966 98.132,353.737 97.856,353.240 97.726 C 352.778 97.606,352.400 97.253,352.400 96.943 C 352.400 96.634,351.950 96.209,351.400 96.000 C 350.850 95.791,350.400 95.435,350.400 95.210 C 350.400 94.984,350.040 94.800,349.600 94.800 C 349.160 94.800,348.800 94.626,348.800 94.414 C 348.800 92.762,355.450 92.883,262.118 92.838 L 182.036 92.800 181.918 81.767 C 181.811 71.803,181.732 70.685,181.100 70.223 C 180.715 69.942,180.400 69.327,180.400 68.856 C 180.400 68.267,180.151 68.000,179.600 68.000 C 179.067 68.000,178.800 67.733,178.800 67.200 C 178.800 66.760,178.536 66.400,178.214 66.400 C 177.892 66.400,177.435 66.040,177.200 65.600 C 176.965 65.160,176.508 64.800,176.186 64.800 C 175.864 64.800,175.600 64.526,175.600 64.190 C 175.600 63.829,175.098 63.480,174.368 63.334 C 173.691 63.198,172.928 62.754,172.674 62.346 C 172.153 61.513,55.768 61.223,52.900 62.049 M42.996 243.200 C 42.996 290.390,43.043 309.695,43.100 286.100 C 43.157 262.505,43.157 223.895,43.100 200.300 C 43.043 176.705,42.996 196.010,42.996 243.200 M136.800 193.788 C 136.250 194.107,135.530 194.494,135.200 194.648 C 134.388 195.026,132.425 196.919,132.411 197.337 C 132.405 197.522,132.040 198.131,131.600 198.691 C 130.811 199.694,130.800 200.314,130.800 243.800 C 130.800 287.286,130.811 287.906,131.600 288.909 C 132.040 289.469,132.403 290.078,132.407 290.263 C 132.422 291.018,134.937 292.998,137.138 293.987 C 137.784 294.278,153.686 294.377,188.138 294.305 L 238.200 294.200 239.572 293.200 C 240.327 292.650,241.227 291.918,241.572 291.572 C 241.918 291.227,242.650 290.327,243.200 289.572 L 244.200 288.200 244.310 266.900 L 244.420 245.600 262.448 263.648 C 279.225 280.444,280.521 281.650,281.138 281.034 C 281.821 280.351,282.428 212.535,281.790 208.077 C 281.355 205.030,281.269 205.101,262.430 223.952 L 244.420 241.974 244.310 220.687 L 244.200 199.400 243.200 198.028 C 241.945 196.305,241.295 195.655,239.572 194.400 L 238.200 193.400 188.000 193.303 C 144.713 193.220,137.662 193.287,136.800 193.788 M238.116 194.845 C 243.589 197.592,243.941 200.549,243.941 243.800 C 243.941 287.051,243.589 290.008,238.116 292.755 L 236.432 293.600 187.603 293.600 L 138.773 293.600 136.887 292.610 C 134.382 291.295,133.574 290.518,132.499 288.386 L 131.598 286.600 131.598 243.800 L 131.598 201.000 132.499 199.230 C 133.666 196.938,134.356 196.246,136.684 195.034 L 138.600 194.037 187.516 194.019 L 236.432 194.000 238.116 194.845 M281.095 243.433 C 281.155 265.760,281.047 279.223,280.804 279.600 C 280.305 280.377,244.800 245.078,244.800 243.803 C 244.800 242.900,279.925 207.508,280.599 207.733 C 280.862 207.821,281.033 220.088,281.095 243.433 M42.832 331.900 C 42.804 333.028,42.932 333.200,43.800 333.200 C 44.577 333.200,44.800 333.405,44.800 334.121 C 44.800 336.424,50.361 342.092,53.173 342.655 C 53.838 342.788,54.588 343.145,54.840 343.448 C 55.527 344.276,344.473 344.276,345.160 343.448 C 345.412 343.145,346.132 342.794,346.759 342.668 C 348.240 342.372,351.292 340.304,352.473 338.797 C 352.983 338.146,353.805 337.087,354.300 336.443 C 354.795 335.800,355.200 334.819,355.200 334.265 C 355.200 333.523,355.438 333.222,356.100 333.128 C 357.185 332.974,357.348 331.527,356.298 331.373 C 355.393 331.240,354.400 332.665,354.400 334.095 C 354.400 335.624,348.113 342.000,346.604 342.000 C 346.050 342.000,344.925 342.360,344.104 342.800 C 342.620 343.596,341.848 343.600,200.000 343.600 C 58.152 343.600,57.380 343.596,55.896 342.800 C 55.075 342.360,53.960 342.000,53.419 342.000 C 52.013 342.000,45.600 335.566,45.600 334.157 C 45.600 332.730,44.902 331.600,44.019 331.600 C 43.605 331.600,43.176 331.375,43.065 331.100 C 42.954 330.825,42.849 331.185,42.832 331.900 " stroke="none" fill="#c45c5c" fill-rule="evenodd"></path><path id="path4" d="M75.800 112.382 C 70.784 112.848,66.351 116.057,63.619 121.200 L 62.238 123.800 62.260 133.740 C 62.277 141.800,62.387 143.746,62.841 144.034 C 63.972 144.750,337.191 144.489,337.467 143.771 C 337.599 143.425,337.729 138.790,337.754 133.471 L 337.800 123.800 336.643 121.400 C 335.487 119.002,330.923 114.000,329.891 114.000 C 329.614 114.000,328.671 113.595,327.794 113.100 L 326.200 112.200 202.400 112.161 C 134.310 112.139,77.340 112.238,75.800 112.382 M326.600 113.698 C 327.260 114.081,328.020 114.396,328.288 114.398 C 329.955 114.406,335.082 119.618,335.776 122.009 C 335.934 122.554,336.323 123.575,336.640 124.277 C 337.097 125.291,337.193 127.390,337.108 134.477 L 337.000 143.400 200.000 143.400 L 63.000 143.400 62.878 135.000 C 62.714 123.737,63.165 122.090,67.631 117.628 C 70.191 115.071,71.063 114.466,73.231 113.741 L 75.800 112.881 200.600 112.941 C 318.501 112.997,325.466 113.039,326.600 113.698 " stroke="none" fill="#cc8484" fill-rule="evenodd"></path></g></svg>