<svg id="svg" version="1.1" xmlns="http://www.w3.org/2000/svg" xmlns:xlink="http://www.w3.org/1999/xlink" width="400" height="400" viewBox="0, 0, 400,400"><g id="svgg"><path id="path0" d="M396.296 0.143 C 396.225 0.211,395.342 0.362,394.333 0.478 C 390.896 0.872,390.500 0.925,390.500 0.990 C 390.500 1.026,389.825 1.118,389.000 1.195 C 387.102 1.370,386.305 1.515,385.630 1.805 C 385.335 1.932,384.660 1.973,384.130 1.896 C 383.600 1.820,383.006 1.882,382.810 2.036 C 382.615 2.189,381.640 2.381,380.644 2.462 C 378.223 2.659,374.500 3.187,374.500 3.334 C 374.500 3.362,373.825 3.445,373.000 3.517 C 370.885 3.703,370.215 3.828,369.739 4.122 C 369.510 4.264,368.987 4.353,368.578 4.320 C 368.168 4.287,367.758 4.288,367.667 4.322 C 367.242 4.481,366.024 4.664,364.500 4.797 C 362.071 5.010,358.500 5.531,358.500 5.673 C 358.500 5.704,358.050 5.753,357.500 5.781 C 356.950 5.810,356.289 5.969,356.032 6.135 C 355.690 6.355,355.636 6.319,355.833 6.000 C 356.023 5.693,355.974 5.644,355.667 5.833 C 355.251 6.090,354.773 6.190,352.500 6.491 C 351.950 6.564,351.500 6.645,351.500 6.671 C 351.500 6.766,350.237 6.953,348.066 7.178 C 344.707 7.526,344.590 7.542,343.333 7.798 C 342.692 7.928,341.785 8.074,341.319 8.122 C 340.853 8.169,340.267 8.335,340.018 8.489 C 339.699 8.686,339.641 8.645,339.822 8.352 C 340.022 8.028,339.930 8.014,339.416 8.289 C 339.051 8.485,338.436 8.584,338.049 8.510 C 337.663 8.435,337.271 8.497,337.178 8.648 C 337.085 8.798,336.070 9.026,334.921 9.154 C 333.773 9.283,332.383 9.457,331.833 9.543 C 331.283 9.628,330.383 9.749,329.833 9.811 C 329.283 9.874,328.833 9.954,328.833 9.990 C 328.833 10.026,328.158 10.118,327.333 10.195 C 325.436 10.370,324.638 10.515,323.964 10.805 C 323.668 10.932,322.993 10.973,322.464 10.896 C 321.934 10.820,321.340 10.882,321.144 11.036 C 320.948 11.189,319.973 11.381,318.977 11.462 C 316.556 11.659,312.833 12.187,312.833 12.334 C 312.833 12.362,312.158 12.445,311.333 12.517 C 309.218 12.703,308.549 12.828,308.072 13.122 C 307.843 13.264,307.321 13.353,306.911 13.320 C 306.502 13.287,306.092 13.288,306.000 13.322 C 305.575 13.481,304.358 13.664,302.833 13.797 C 300.404 14.010,296.833 14.531,296.833 14.673 C 296.833 14.704,296.383 14.753,295.833 14.781 C 295.283 14.810,294.623 14.969,294.365 15.135 C 294.023 15.355,293.970 15.319,294.167 15.000 C 294.356 14.693,294.307 14.644,294.000 14.833 C 293.584 15.090,293.106 15.190,290.833 15.491 C 290.283 15.564,289.833 15.645,289.833 15.671 C 289.833 15.766,288.571 15.953,286.399 16.178 C 283.040 16.526,282.923 16.542,281.667 16.798 C 281.025 16.928,280.119 17.074,279.653 17.122 C 279.186 17.169,278.601 17.335,278.351 17.489 C 278.032 17.686,277.974 17.645,278.155 17.352 C 278.355 17.028,278.263 17.014,277.749 17.289 C 277.384 17.485,276.769 17.584,276.383 17.510 C 275.997 17.435,275.605 17.497,275.512 17.648 C 275.419 17.798,274.403 18.026,273.255 18.154 C 272.106 18.283,270.717 18.457,270.167 18.543 C 269.617 18.628,268.717 18.749,268.167 18.811 C 267.617 18.874,267.167 18.954,267.167 18.990 C 267.167 19.026,266.492 19.118,265.667 19.195 C 263.769 19.370,262.972 19.515,262.297 19.805 C 262.002 19.932,261.327 19.973,260.797 19.896 C 260.267 19.820,259.673 19.882,259.477 20.036 C 259.281 20.189,258.306 20.381,257.310 20.462 C 254.889 20.659,251.167 21.187,251.167 21.334 C 251.167 21.362,250.492 21.445,249.667 21.517 C 247.552 21.703,246.882 21.828,246.405 22.122 C 246.176 22.264,245.654 22.353,245.244 22.320 C 244.835 22.287,244.425 22.288,244.333 22.322 C 243.908 22.481,242.691 22.664,241.167 22.797 C 238.737 23.010,235.167 23.531,235.167 23.673 C 235.167 23.704,234.717 23.753,234.167 23.781 C 233.617 23.810,232.956 23.969,232.698 24.135 C 232.356 24.355,232.303 24.319,232.500 24.000 C 232.690 23.693,232.640 23.644,232.333 23.833 C 231.917 24.090,231.440 24.190,229.167 24.491 C 228.617 24.564,228.167 24.645,228.167 24.671 C 228.167 24.766,226.904 24.953,224.732 25.178 C 221.374 25.526,221.256 25.542,220.000 25.798 C 219.358 25.928,218.383 26.092,217.833 26.161 C 217.283 26.231,216.833 26.315,216.833 26.349 C 216.833 26.382,216.233 26.434,215.500 26.463 C 214.767 26.492,214.017 26.608,213.833 26.720 C 213.650 26.832,212.525 27.038,211.333 27.177 C 210.142 27.317,208.792 27.491,208.333 27.564 C 207.875 27.638,207.050 27.749,206.500 27.811 C 205.950 27.874,205.500 27.954,205.500 27.990 C 205.500 28.026,204.825 28.118,204.000 28.195 C 202.102 28.370,201.305 28.515,200.630 28.805 C 200.335 28.932,199.660 28.973,199.130 28.896 C 198.600 28.820,198.006 28.882,197.810 29.036 C 197.615 29.189,196.640 29.381,195.644 29.462 C 193.223 29.659,189.500 30.187,189.500 30.334 C 189.500 30.362,188.825 30.445,188.000 30.517 C 185.885 30.703,185.215 30.828,184.739 31.122 C 184.510 31.264,183.987 31.353,183.578 31.320 C 183.168 31.287,182.646 31.276,182.418 31.296 C 182.088 31.326,181.985 47.693,181.918 110.977 L 181.833 190.621 188.333 190.477 C 191.908 190.398,204.883 190.256,217.167 190.162 C 229.450 190.068,248.800 189.917,260.167 189.827 C 271.533 189.736,289.983 189.591,301.167 189.504 C 312.350 189.417,331.850 189.256,344.500 189.145 C 357.150 189.035,374.137 188.920,382.250 188.889 L 397.000 188.833 397.000 94.603 C 397.000 11.462,396.911 -0.448,396.296 0.143 M161.494 34.344 C 161.373 34.539,161.025 34.674,160.720 34.644 C 160.416 34.614,160.092 34.617,160.000 34.649 C 159.908 34.682,159.233 34.771,158.500 34.847 C 156.522 35.052,154.833 35.283,154.833 35.348 C 154.833 35.379,154.308 35.448,153.667 35.500 C 153.025 35.552,152.500 35.620,152.500 35.652 C 152.500 35.683,151.900 35.771,151.167 35.847 C 149.189 36.052,147.500 36.283,147.500 36.348 C 147.500 36.379,146.975 36.448,146.333 36.500 C 145.692 36.552,145.167 36.620,145.167 36.652 C 145.167 36.683,144.567 36.771,143.833 36.847 C 142.045 37.033,140.167 37.281,140.167 37.332 C 140.167 37.355,139.417 37.445,138.500 37.533 C 137.583 37.621,136.458 37.776,136.000 37.877 C 135.542 37.979,134.642 38.112,134.000 38.173 C 133.358 38.233,132.833 38.303,132.833 38.327 C 132.833 38.351,132.158 38.426,131.333 38.494 C 130.508 38.561,129.383 38.717,128.833 38.840 C 128.283 38.962,127.308 39.112,126.667 39.173 C 126.025 39.233,125.500 39.304,125.500 39.329 C 125.500 39.355,124.900 39.424,124.167 39.484 C 123.433 39.543,122.158 39.707,121.333 39.848 C 120.508 39.989,119.458 40.144,119.000 40.192 C 118.542 40.240,118.167 40.303,118.167 40.331 C 118.167 40.360,117.642 40.439,117.000 40.507 C 116.358 40.574,115.233 40.710,114.500 40.808 C 113.767 40.906,112.417 41.058,111.500 41.147 C 110.583 41.235,109.458 41.401,109.000 41.514 C 107.937 41.778,106.279 42.002,104.167 42.166 C 103.250 42.237,102.125 42.390,101.667 42.506 C 100.740 42.741,99.496 42.925,97.500 43.123 C 95.325 43.339,92.894 43.693,92.681 43.824 C 92.572 43.892,91.422 44.038,90.125 44.150 C 88.828 44.261,87.407 44.427,86.967 44.518 C 86.225 44.671,84.328 44.942,82.333 45.180 C 81.875 45.234,81.500 45.300,81.500 45.325 C 81.500 45.403,78.228 45.741,77.109 45.778 C 76.527 45.798,76.132 45.944,76.230 46.103 C 76.328 46.261,75.979 46.362,75.454 46.327 C 74.929 46.292,74.425 46.288,74.333 46.319 C 74.242 46.350,73.567 46.438,72.833 46.514 C 70.855 46.719,69.167 46.950,69.167 47.015 C 69.167 47.046,68.642 47.115,68.000 47.167 C 67.358 47.219,66.833 47.287,66.833 47.319 C 66.833 47.350,66.233 47.438,65.500 47.514 C 63.522 47.719,61.833 47.950,61.833 48.015 C 61.833 48.046,61.308 48.115,60.667 48.167 C 60.025 48.219,59.500 48.287,59.500 48.319 C 59.500 48.350,58.900 48.438,58.167 48.514 C 56.378 48.700,54.500 48.948,54.500 48.999 C 54.500 49.022,53.750 49.112,52.833 49.200 C 51.917 49.287,50.792 49.442,50.333 49.544 C 49.875 49.646,48.975 49.779,48.333 49.839 C 47.692 49.900,47.167 49.969,47.167 49.994 C 47.167 50.018,46.492 50.093,45.667 50.161 C 44.842 50.228,43.717 50.384,43.167 50.506 C 42.617 50.629,41.642 50.779,41.000 50.839 C 40.358 50.900,39.833 50.970,39.833 50.996 C 39.833 51.021,39.233 51.091,38.500 51.150 C 37.767 51.210,36.492 51.374,35.667 51.515 C 34.842 51.656,33.792 51.811,33.333 51.859 C 32.875 51.907,32.500 51.969,32.500 51.998 C 32.500 52.027,31.975 52.106,31.333 52.173 C 30.692 52.241,29.567 52.377,28.833 52.474 C 28.100 52.572,26.750 52.725,25.833 52.813 C 24.917 52.902,23.792 53.067,23.333 53.181 C 22.270 53.445,20.612 53.668,18.500 53.833 C 17.583 53.904,16.496 54.046,16.083 54.148 C 14.294 54.590,13.724 54.682,11.833 54.834 C 9.577 55.014,7.271 55.332,6.999 55.501 C 6.898 55.563,5.770 55.706,4.492 55.819 C 3.213 55.931,1.867 56.082,1.500 56.153 C 1.133 56.224,0.683 56.294,0.500 56.308 C 0.230 56.328,0.038 174.288,0.284 188.707 L 0.333 191.581 29.083 191.455 C 44.896 191.385,71.783 191.243,88.833 191.138 C 105.883 191.034,129.321 190.922,140.917 190.891 C 152.512 190.859,162.019 190.758,162.042 190.667 C 162.235 189.896,162.160 34.265,161.966 34.146 C 161.827 34.060,161.614 34.149,161.494 34.344 M0.095 275.383 C 0.124 322.094,0.245 343.008,0.485 343.026 C 0.677 343.040,1.133 343.119,1.500 343.201 C 1.867 343.284,2.692 343.415,3.333 343.493 C 3.975 343.571,4.950 343.737,5.500 343.862 C 6.050 343.987,6.950 344.120,7.500 344.159 C 8.050 344.197,8.575 344.268,8.667 344.317 C 8.758 344.365,9.358 344.438,10.000 344.479 C 10.642 344.519,11.842 344.670,12.667 344.814 C 13.492 344.958,14.767 345.124,15.500 345.183 C 16.233 345.243,16.833 345.310,16.833 345.333 C 16.833 345.357,17.433 345.421,18.167 345.475 C 18.900 345.530,20.025 345.697,20.667 345.845 C 21.308 345.993,22.358 346.152,23.000 346.198 C 23.642 346.245,24.167 346.310,24.167 346.344 C 24.167 346.378,24.692 346.448,25.333 346.500 C 25.975 346.552,26.500 346.622,26.500 346.656 C 26.500 346.690,27.025 346.767,27.667 346.827 C 28.308 346.888,29.208 347.017,29.667 347.114 C 31.094 347.417,33.110 347.722,34.500 347.845 C 35.233 347.910,36.433 348.051,37.167 348.157 C 37.900 348.264,39.100 348.421,39.833 348.508 C 42.462 348.818,43.500 348.958,43.500 349.004 C 43.500 349.030,44.025 349.107,44.667 349.176 C 45.308 349.245,46.283 349.385,46.833 349.488 C 47.383 349.591,48.508 349.740,49.333 349.819 C 50.158 349.897,50.833 349.987,50.833 350.017 C 50.833 350.047,51.358 350.115,52.000 350.167 C 52.642 350.219,53.167 350.289,53.167 350.323 C 53.167 350.356,53.692 350.433,54.333 350.494 C 54.975 350.554,55.875 350.683,56.333 350.781 C 57.760 351.083,59.777 351.389,61.167 351.512 C 61.900 351.577,63.100 351.717,63.833 351.824 C 64.567 351.930,65.767 352.088,66.500 352.175 C 69.129 352.484,70.167 352.625,70.167 352.671 C 70.167 352.696,70.692 352.773,71.333 352.842 C 71.975 352.911,72.950 353.052,73.500 353.155 C 74.050 353.258,75.175 353.406,76.000 353.485 C 76.825 353.564,77.500 353.653,77.500 353.684 C 77.500 353.714,78.025 353.781,78.667 353.833 C 79.308 353.885,79.833 353.956,79.833 353.989 C 79.833 354.023,80.358 354.100,81.000 354.161 C 81.642 354.221,82.542 354.350,83.000 354.447 C 84.427 354.750,86.444 355.055,87.833 355.179 C 88.567 355.244,89.767 355.384,90.500 355.490 C 91.233 355.597,92.433 355.755,93.167 355.841 C 95.817 356.154,96.833 356.292,96.833 356.339 C 96.833 356.366,97.208 356.430,97.667 356.482 C 98.125 356.533,99.175 356.683,100.000 356.815 C 100.825 356.947,102.100 357.107,102.833 357.173 C 103.567 357.238,104.167 357.317,104.167 357.348 C 104.167 357.380,104.692 357.448,105.333 357.500 C 105.975 357.552,106.500 357.622,106.500 357.656 C 106.500 357.690,107.025 357.767,107.667 357.827 C 108.308 357.888,109.208 358.017,109.667 358.114 C 111.094 358.417,113.110 358.722,114.500 358.845 C 115.233 358.910,116.433 359.051,117.167 359.157 C 117.900 359.264,119.100 359.421,119.833 359.508 C 122.413 359.812,123.500 359.958,123.500 360.000 C 123.500 360.023,123.950 360.099,124.500 360.168 C 125.050 360.237,125.950 360.365,126.500 360.452 C 128.827 360.822,130.909 361.098,132.000 361.182 C 132.642 361.231,133.167 361.296,133.167 361.327 C 133.167 361.358,133.692 361.433,134.333 361.494 C 134.975 361.554,135.875 361.683,136.333 361.781 C 137.970 362.128,139.861 362.389,141.660 362.517 C 142.665 362.589,143.940 362.752,144.493 362.881 C 145.047 363.009,146.025 363.152,146.667 363.198 C 147.308 363.245,147.833 363.315,147.833 363.354 C 147.833 363.392,148.358 363.465,149.000 363.514 C 149.642 363.563,150.167 363.628,150.167 363.657 C 150.167 363.686,150.617 363.763,151.167 363.828 C 152.914 364.036,154.806 364.324,155.667 364.513 C 156.125 364.613,157.209 364.698,158.075 364.700 C 158.942 364.703,159.719 364.814,159.801 364.948 C 159.884 365.081,160.375 365.170,160.892 365.145 C 161.410 365.119,161.916 365.225,162.018 365.379 C 162.119 365.534,162.177 330.482,162.147 287.487 C 162.116 244.492,161.983 209.206,161.850 209.073 C 161.718 208.941,158.285 208.815,154.221 208.792 C 150.158 208.769,134.008 208.653,118.333 208.533 C 88.275 208.305,54.747 208.083,20.610 207.885 L 0.053 207.767 0.095 275.383 M181.660 209.784 C 181.572 209.872,181.542 229.944,181.593 254.389 C 181.644 278.833,181.716 314.366,181.752 333.350 L 181.819 367.867 182.659 367.924 C 184.358 368.040,187.149 368.386,187.341 368.505 C 187.526 368.619,189.559 368.925,191.833 369.180 C 192.383 369.242,193.208 369.379,193.667 369.484 C 194.125 369.589,195.284 369.737,196.243 369.813 C 197.201 369.888,198.251 370.028,198.576 370.122 C 199.550 370.406,201.737 370.734,203.333 370.836 C 204.158 370.889,204.908 370.964,205.000 371.003 C 205.092 371.042,205.502 371.047,205.911 371.014 C 206.321 370.981,206.838 371.067,207.061 371.204 C 207.284 371.342,207.774 371.485,208.150 371.523 C 210.611 371.766,212.953 372.057,213.667 372.207 C 214.817 372.449,215.589 372.574,217.333 372.802 C 218.158 372.910,219.208 373.064,219.667 373.144 C 222.422 373.629,223.303 373.755,224.500 373.835 C 225.233 373.885,226.508 374.048,227.333 374.198 C 228.158 374.349,228.952 374.438,229.097 374.398 C 229.242 374.357,229.672 374.491,230.054 374.695 C 230.595 374.985,230.691 374.975,230.489 374.648 C 230.305 374.350,230.365 374.314,230.698 374.522 C 230.956 374.682,231.617 374.839,232.167 374.871 C 232.717 374.902,233.242 374.962,233.333 375.004 C 233.425 375.045,233.635 375.054,233.800 375.023 C 233.965 374.992,234.340 375.072,234.633 375.201 C 234.927 375.329,235.692 375.465,236.333 375.502 C 236.975 375.539,237.575 375.601,237.667 375.638 C 237.758 375.676,238.583 375.779,239.500 375.866 C 240.417 375.954,241.542 376.106,242.000 376.204 C 242.965 376.410,243.599 376.517,245.667 376.819 C 246.492 376.940,247.617 377.116,248.167 377.210 C 248.717 377.304,249.842 377.437,250.667 377.505 C 251.492 377.573,252.167 377.655,252.167 377.686 C 252.167 377.718,252.767 377.789,253.500 377.845 C 254.233 377.900,255.208 378.087,255.667 378.260 C 256.125 378.433,256.790 378.530,257.144 378.475 C 257.498 378.420,258.078 378.530,258.434 378.721 C 258.930 378.986,259.020 378.970,258.822 378.648 C 258.638 378.350,258.698 378.314,259.032 378.522 C 259.289 378.682,259.950 378.839,260.500 378.871 C 261.050 378.902,261.575 378.962,261.667 379.004 C 261.758 379.045,261.968 379.054,262.133 379.023 C 262.298 378.992,262.673 379.069,262.966 379.194 C 263.260 379.319,264.175 379.459,265.000 379.504 C 265.825 379.550,267.550 379.767,268.833 379.988 C 271.806 380.498,272.886 380.663,274.333 380.832 C 274.975 380.907,275.950 381.061,276.500 381.176 C 277.050 381.290,278.175 381.439,279.000 381.506 C 279.825 381.574,280.500 381.649,280.500 381.673 C 280.500 381.787,284.140 382.362,285.513 382.464 C 286.070 382.506,286.731 382.667,286.981 382.822 C 287.307 383.023,287.360 382.979,287.167 382.667 C 286.971 382.350,287.026 382.310,287.365 382.520 C 287.622 382.679,288.231 382.767,288.717 382.716 C 289.203 382.665,289.695 382.777,289.811 382.964 C 289.927 383.151,290.234 383.222,290.495 383.123 C 290.755 383.023,291.161 383.060,291.397 383.206 C 291.633 383.352,292.428 383.490,293.163 383.513 C 294.637 383.560,298.060 383.999,298.352 384.179 C 298.528 384.287,300.611 384.597,302.833 384.847 C 303.383 384.909,304.208 385.054,304.667 385.170 C 305.125 385.286,306.175 385.423,307.000 385.475 C 307.825 385.527,308.950 385.664,309.500 385.779 C 311.678 386.235,312.897 386.419,314.333 386.507 C 315.158 386.557,315.908 386.631,316.000 386.670 C 316.092 386.709,316.502 386.713,316.911 386.680 C 317.321 386.647,317.838 386.733,318.061 386.871 C 318.284 387.009,318.774 387.152,319.150 387.189 C 321.611 387.433,323.953 387.723,324.667 387.873 C 325.817 388.115,326.589 388.240,328.333 388.469 C 329.158 388.576,330.208 388.730,330.667 388.811 C 333.422 389.295,334.303 389.421,335.500 389.502 C 336.233 389.551,337.508 389.715,338.333 389.865 C 339.158 390.015,339.952 390.105,340.097 390.065 C 340.242 390.024,340.672 390.158,341.054 390.362 C 341.595 390.652,341.691 390.642,341.489 390.315 C 341.305 390.017,341.365 389.981,341.698 390.189 C 341.956 390.349,342.617 390.506,343.167 390.538 C 343.717 390.569,344.242 390.629,344.333 390.670 C 344.425 390.712,344.635 390.720,344.800 390.690 C 344.965 390.659,345.340 390.739,345.633 390.867 C 345.927 390.996,346.692 391.131,347.333 391.169 C 347.975 391.206,348.575 391.267,348.667 391.305 C 348.758 391.343,349.583 391.445,350.500 391.533 C 351.417 391.621,352.542 391.772,353.000 391.870 C 353.965 392.077,354.599 392.183,356.667 392.486 C 357.492 392.606,358.617 392.782,359.167 392.877 C 359.717 392.971,360.842 393.104,361.667 393.172 C 362.492 393.240,363.167 393.321,363.167 393.353 C 363.167 393.385,363.767 393.456,364.500 393.511 C 365.233 393.567,366.208 393.753,366.667 393.926 C 367.125 394.100,367.790 394.196,368.144 394.141 C 368.498 394.086,369.078 394.197,369.434 394.387 C 369.930 394.653,370.020 394.636,369.822 394.315 C 369.638 394.017,369.698 393.981,370.032 394.189 C 370.289 394.349,370.950 394.506,371.500 394.538 C 372.050 394.569,372.575 394.629,372.667 394.670 C 372.758 394.712,372.968 394.720,373.133 394.690 C 373.298 394.659,373.673 394.736,373.966 394.861 C 374.260 394.986,375.175 395.125,376.000 395.171 C 376.825 395.217,378.550 395.434,379.833 395.654 C 382.806 396.164,383.886 396.330,385.333 396.499 C 385.975 396.573,386.950 396.728,387.500 396.842 C 388.050 396.957,389.175 397.105,390.000 397.173 C 390.825 397.240,391.500 397.315,391.500 397.340 C 391.500 397.441,392.955 397.667,394.851 397.862 L 396.869 398.069 396.818 306.618 C 396.790 256.320,396.744 214.042,396.717 212.667 L 396.667 210.167 304.250 210.111 C 253.421 210.080,205.080 209.958,196.827 209.840 C 188.573 209.721,181.748 209.696,181.660 209.784 " stroke="none" fill="#047cd4" fill-rule="evenodd"></path><path id="path1" d="M181.831 110.833 C 181.831 154.650,181.869 172.525,181.917 150.557 C 181.964 128.588,181.964 92.738,181.917 70.890 C 181.869 49.042,181.831 67.017,181.831 110.833 M0.084 187.167 C 0.088 187.900,0.156 188.161,0.236 187.746 C 0.315 187.331,0.312 186.731,0.229 186.413 C 0.146 186.094,0.080 186.433,0.084 187.167 M162.100 277.000 C 162.100 278.008,162.162 278.421,162.239 277.917 C 162.315 277.412,162.315 276.587,162.239 276.083 C 162.162 275.579,162.100 275.992,162.100 277.000 " stroke="none" fill="#047cdc" fill-rule="evenodd"></path><path id="path2" d="M384.667 1.667 L 383.833 1.934 384.730 1.967 C 385.224 1.985,385.720 1.850,385.833 1.667 C 386.068 1.288,385.850 1.288,384.667 1.667 M380.871 2.273 C 380.778 2.423,381.144 2.481,381.684 2.402 C 382.225 2.323,382.667 2.200,382.667 2.129 C 382.667 1.875,381.036 2.006,380.871 2.273 M368.667 4.000 L 367.833 4.267 368.730 4.300 C 369.224 4.318,369.720 4.183,369.833 4.000 C 370.068 3.621,369.850 3.621,368.667 4.000 M364.871 4.606 C 364.778 4.757,365.144 4.814,365.684 4.735 C 366.225 4.656,366.667 4.533,366.667 4.462 C 366.667 4.208,365.036 4.339,364.871 4.606 M323.000 10.667 L 322.167 10.934 323.064 10.967 C 323.557 10.985,324.053 10.850,324.167 10.667 C 324.401 10.288,324.183 10.288,323.000 10.667 M319.204 11.273 C 319.111 11.423,319.477 11.481,320.018 11.402 C 320.558 11.323,321.000 11.200,321.000 11.129 C 321.000 10.875,319.369 11.006,319.204 11.273 M307.000 13.000 L 306.167 13.267 307.064 13.300 C 307.557 13.318,308.053 13.183,308.167 13.000 C 308.401 12.621,308.183 12.621,307.000 13.000 M303.204 13.606 C 303.111 13.757,303.477 13.814,304.018 13.735 C 304.558 13.656,305.000 13.533,305.000 13.462 C 305.000 13.208,303.369 13.339,303.204 13.606 M261.333 19.667 L 260.500 19.934 261.397 19.967 C 261.890 19.985,262.387 19.850,262.500 19.667 C 262.734 19.288,262.516 19.288,261.333 19.667 M257.537 20.273 C 257.444 20.423,257.811 20.481,258.351 20.402 C 258.891 20.323,259.333 20.200,259.333 20.129 C 259.333 19.875,257.702 20.006,257.537 20.273 M245.333 22.000 L 244.500 22.267 245.397 22.300 C 245.890 22.318,246.387 22.183,246.500 22.000 C 246.734 21.621,246.516 21.621,245.333 22.000 M241.537 22.606 C 241.444 22.757,241.811 22.814,242.351 22.735 C 242.891 22.656,243.333 22.533,243.333 22.462 C 243.333 22.208,241.702 22.339,241.537 22.606 M199.667 28.667 L 198.833 28.934 199.730 28.967 C 200.224 28.985,200.720 28.850,200.833 28.667 C 201.068 28.288,200.850 28.288,199.667 28.667 M195.871 29.273 C 195.778 29.423,196.144 29.481,196.684 29.402 C 197.225 29.323,197.667 29.200,197.667 29.129 C 197.667 28.875,196.036 29.006,195.871 29.273 M183.667 31.000 L 182.833 31.267 183.730 31.300 C 184.224 31.318,184.720 31.183,184.833 31.000 C 185.068 30.621,184.850 30.621,183.667 31.000 M75.500 46.000 L 74.500 46.254 75.397 46.294 C 75.890 46.316,76.387 46.183,76.500 46.000 C 76.613 45.817,76.660 45.684,76.603 45.706 C 76.546 45.728,76.050 45.860,75.500 46.000 M162.118 56.833 C 162.117 58.483,162.174 59.200,162.244 58.427 C 162.313 57.653,162.314 56.303,162.245 55.427 C 162.177 54.550,162.119 55.183,162.118 56.833 M12.537 54.606 C 12.444 54.757,12.811 54.814,13.351 54.735 C 13.891 54.656,14.333 54.533,14.333 54.462 C 14.333 54.208,12.702 54.339,12.537 54.606 M0.103 61.833 C 0.105 62.933,0.167 63.343,0.242 62.744 C 0.316 62.145,0.314 61.245,0.238 60.744 C 0.162 60.243,0.101 60.733,0.103 61.833 M162.130 66.833 C 162.130 69.217,162.183 70.148,162.247 68.903 C 162.312 67.658,162.311 65.708,162.246 64.569 C 162.182 63.431,162.129 64.450,162.130 66.833 M162.091 75.333 C 162.091 76.158,162.156 76.496,162.235 76.083 C 162.315 75.671,162.315 74.996,162.235 74.583 C 162.156 74.171,162.091 74.508,162.091 75.333 M0.084 76.833 C 0.088 77.567,0.156 77.827,0.236 77.413 C 0.315 76.998,0.312 76.398,0.229 76.079 C 0.146 75.761,0.080 76.100,0.084 76.833 M0.084 80.167 C 0.088 80.900,0.156 81.161,0.236 80.746 C 0.315 80.331,0.312 79.731,0.229 79.413 C 0.146 79.094,0.080 79.433,0.084 80.167 M162.095 83.833 C 162.098 84.750,162.163 85.085,162.239 84.579 C 162.316 84.072,162.314 83.322,162.235 82.912 C 162.156 82.502,162.093 82.917,162.095 83.833 M0.103 84.500 C 0.105 85.600,0.167 86.010,0.242 85.411 C 0.316 84.812,0.314 83.912,0.238 83.411 C 0.162 82.910,0.101 83.400,0.103 84.500 M0.084 88.500 C 0.088 89.233,0.156 89.494,0.236 89.079 C 0.315 88.665,0.312 88.065,0.229 87.746 C 0.146 87.427,0.080 87.767,0.084 88.500 M162.118 91.167 C 162.117 92.817,162.174 93.534,162.244 92.760 C 162.313 91.986,162.314 90.636,162.245 89.760 C 162.177 88.884,162.119 89.517,162.118 91.167 M0.103 92.833 C 0.105 93.933,0.167 94.343,0.242 93.744 C 0.316 93.145,0.314 92.245,0.238 91.744 C 0.162 91.243,0.101 91.733,0.103 92.833 M162.091 106.667 C 162.091 107.492,162.156 107.829,162.235 107.417 C 162.315 107.004,162.315 106.329,162.235 105.917 C 162.156 105.504,162.091 105.842,162.091 106.667 M0.112 108.667 C 0.112 110.042,0.171 110.604,0.243 109.917 C 0.315 109.229,0.315 108.104,0.243 107.417 C 0.171 106.729,0.112 107.292,0.112 108.667 M162.091 112.333 C 162.091 113.158,162.156 113.496,162.235 113.083 C 162.315 112.671,162.315 111.996,162.235 111.583 C 162.156 111.171,162.091 111.508,162.091 112.333 M0.084 113.500 C 0.088 114.233,0.156 114.494,0.236 114.079 C 0.315 113.665,0.312 113.065,0.229 112.746 C 0.146 112.427,0.080 112.767,0.084 113.500 M162.130 120.833 C 162.130 123.217,162.183 124.148,162.247 122.903 C 162.312 121.658,162.311 119.708,162.246 118.569 C 162.182 117.431,162.129 118.450,162.130 120.833 M0.100 130.667 C 0.100 131.675,0.162 132.087,0.239 131.583 C 0.315 131.079,0.315 130.254,0.239 129.750 C 0.162 129.246,0.100 129.658,0.100 130.667 M162.091 132.333 C 162.091 133.158,162.156 133.496,162.235 133.083 C 162.315 132.671,162.315 131.996,162.235 131.583 C 162.156 131.171,162.091 131.508,162.091 132.333 M0.084 143.167 C 0.088 143.900,0.156 144.161,0.236 143.746 C 0.315 143.331,0.312 142.731,0.229 142.413 C 0.146 142.094,0.080 142.433,0.084 143.167 M162.095 146.500 C 162.098 147.417,162.163 147.752,162.239 147.245 C 162.316 146.739,162.314 145.989,162.235 145.579 C 162.156 145.169,162.093 145.583,162.095 146.500 M0.103 153.167 C 0.105 154.267,0.167 154.676,0.242 154.077 C 0.316 153.478,0.314 152.578,0.238 152.077 C 0.162 151.576,0.101 152.067,0.103 153.167 M162.091 155.000 C 162.091 155.825,162.156 156.162,162.235 155.750 C 162.315 155.337,162.315 154.662,162.235 154.250 C 162.156 153.837,162.091 154.175,162.091 155.000 M0.084 157.500 C 0.088 158.233,0.156 158.494,0.236 158.079 C 0.315 157.665,0.312 157.065,0.229 156.746 C 0.146 156.427,0.080 156.767,0.084 157.500 M162.118 162.167 C 162.117 163.817,162.174 164.534,162.244 163.760 C 162.313 162.986,162.314 161.636,162.245 160.760 C 162.177 159.884,162.119 160.517,162.118 162.167 M0.084 168.167 C 0.088 168.900,0.156 169.161,0.236 168.746 C 0.315 168.331,0.312 167.731,0.229 167.413 C 0.146 167.094,0.080 167.433,0.084 168.167 M162.138 173.500 C 162.138 176.800,162.188 178.105,162.249 176.400 C 162.309 174.695,162.309 171.995,162.248 170.400 C 162.187 168.805,162.137 170.200,162.138 173.500 M0.120 174.667 C 0.120 176.408,0.176 177.121,0.245 176.250 C 0.314 175.379,0.314 173.954,0.245 173.083 C 0.176 172.213,0.120 172.925,0.120 174.667 M0.100 190.000 C 0.100 191.008,0.162 191.421,0.239 190.917 C 0.315 190.412,0.315 189.588,0.239 189.083 C 0.162 188.579,0.100 188.992,0.100 190.000 M368.417 188.905 C 368.921 188.982,369.746 188.982,370.250 188.905 C 370.754 188.829,370.342 188.767,369.333 188.767 C 368.325 188.767,367.912 188.829,368.417 188.905 M379.583 188.902 C 379.996 188.981,380.671 188.981,381.083 188.902 C 381.496 188.822,381.158 188.757,380.333 188.757 C 379.508 188.757,379.171 188.822,379.583 188.902 M385.250 188.902 C 385.662 188.981,386.337 188.981,386.750 188.902 C 387.162 188.822,386.825 188.757,386.000 188.757 C 385.175 188.757,384.837 188.822,385.250 188.902 M389.093 188.912 C 389.970 188.981,391.320 188.980,392.093 188.910 C 392.867 188.840,392.150 188.784,390.500 188.785 C 388.850 188.786,388.217 188.843,389.093 188.912 M327.917 189.235 C 328.329 189.315,329.004 189.315,329.417 189.235 C 329.829 189.156,329.492 189.091,328.667 189.091 C 327.842 189.091,327.504 189.156,327.917 189.235 M339.250 189.235 C 339.662 189.315,340.337 189.315,340.750 189.235 C 341.162 189.156,340.825 189.091,340.000 189.091 C 339.175 189.091,338.837 189.156,339.250 189.235 M344.921 189.236 C 345.335 189.315,345.935 189.312,346.254 189.229 C 346.573 189.146,346.233 189.080,345.500 189.084 C 344.767 189.088,344.506 189.156,344.921 189.236 M348.427 189.245 C 349.303 189.314,350.653 189.313,351.427 189.244 C 352.200 189.174,351.483 189.117,349.833 189.118 C 348.183 189.119,347.550 189.177,348.427 189.245 M360.083 189.247 C 361.321 189.311,363.346 189.311,364.583 189.247 C 365.821 189.183,364.808 189.131,362.333 189.131 C 359.858 189.131,358.846 189.183,360.083 189.247 M285.917 189.569 C 286.329 189.648,287.004 189.648,287.417 189.569 C 287.829 189.489,287.492 189.424,286.667 189.424 C 285.842 189.424,285.504 189.489,285.917 189.569 M297.250 189.569 C 297.662 189.648,298.337 189.648,298.750 189.569 C 299.162 189.489,298.825 189.424,298.000 189.424 C 297.175 189.424,296.837 189.489,297.250 189.569 M302.921 189.569 C 303.335 189.649,303.935 189.646,304.254 189.562 C 304.573 189.479,304.233 189.414,303.500 189.417 C 302.767 189.421,302.506 189.489,302.921 189.569 M306.427 189.579 C 307.303 189.648,308.653 189.647,309.427 189.577 C 310.200 189.507,309.483 189.451,307.833 189.452 C 306.183 189.453,305.550 189.510,306.427 189.579 M318.083 189.581 C 319.321 189.645,321.346 189.645,322.583 189.581 C 323.821 189.516,322.808 189.464,320.333 189.464 C 317.858 189.464,316.846 189.516,318.083 189.581 M244.254 189.902 C 244.669 189.982,245.269 189.979,245.587 189.896 C 245.906 189.812,245.567 189.747,244.833 189.751 C 244.100 189.754,243.839 189.823,244.254 189.902 M255.421 189.906 C 255.928 189.982,256.678 189.980,257.088 189.901 C 257.498 189.822,257.083 189.760,256.167 189.762 C 255.250 189.765,254.915 189.829,255.421 189.906 M260.921 189.902 C 261.335 189.982,261.935 189.979,262.254 189.896 C 262.573 189.812,262.233 189.747,261.500 189.751 C 260.767 189.754,260.506 189.823,260.921 189.902 M264.427 189.912 C 265.303 189.981,266.653 189.980,267.427 189.910 C 268.200 189.840,267.483 189.784,265.833 189.785 C 264.183 189.786,263.550 189.843,264.427 189.912 M276.083 189.914 C 277.321 189.978,279.346 189.978,280.583 189.914 C 281.821 189.850,280.808 189.797,278.333 189.797 C 275.858 189.797,274.846 189.850,276.083 189.914 M202.254 190.236 C 202.669 190.315,203.269 190.312,203.587 190.229 C 203.906 190.146,203.567 190.080,202.833 190.084 C 202.100 190.088,201.839 190.156,202.254 190.236 M213.421 190.239 C 213.928 190.316,214.678 190.314,215.088 190.235 C 215.498 190.156,215.083 190.093,214.167 190.095 C 213.250 190.098,212.915 190.163,213.421 190.239 M218.921 190.236 C 219.335 190.315,219.935 190.312,220.254 190.229 C 220.573 190.146,220.233 190.080,219.500 190.084 C 218.767 190.088,218.506 190.156,218.921 190.236 M222.427 190.245 C 223.303 190.314,224.653 190.313,225.427 190.244 C 226.200 190.174,225.483 190.117,223.833 190.118 C 222.183 190.119,221.550 190.177,222.427 190.245 M234.083 190.247 C 235.321 190.311,237.346 190.311,238.583 190.247 C 239.821 190.183,238.808 190.131,236.333 190.131 C 233.858 190.131,232.846 190.183,234.083 190.247 M189.587 190.569 C 190.002 190.649,190.602 190.646,190.921 190.562 C 191.239 190.479,190.900 190.414,190.167 190.417 C 189.433 190.421,189.173 190.489,189.587 190.569 M193.093 190.579 C 193.970 190.648,195.320 190.647,196.093 190.577 C 196.867 190.507,196.150 190.451,194.500 190.452 C 192.850 190.453,192.217 190.510,193.093 190.579 M120.917 190.908 C 121.513 190.982,122.487 190.982,123.083 190.908 C 123.679 190.834,123.192 190.773,122.000 190.773 C 120.808 190.773,120.321 190.834,120.917 190.908 M136.750 190.905 C 137.254 190.982,138.079 190.982,138.583 190.905 C 139.087 190.829,138.675 190.767,137.667 190.767 C 136.658 190.767,136.246 190.829,136.750 190.905 M144.589 190.908 C 145.188 190.982,146.088 190.981,146.589 190.905 C 147.090 190.829,146.600 190.768,145.500 190.770 C 144.400 190.772,143.990 190.834,144.589 190.908 M149.417 190.913 C 150.471 190.979,152.196 190.979,153.250 190.913 C 154.304 190.847,153.442 190.793,151.333 190.793 C 149.225 190.793,148.362 190.847,149.417 190.913 M64.589 191.242 C 65.188 191.316,66.088 191.314,66.589 191.238 C 67.090 191.162,66.600 191.101,65.500 191.103 C 64.400 191.105,63.990 191.167,64.589 191.242 M80.250 191.241 C 80.846 191.315,81.821 191.315,82.417 191.241 C 83.012 191.167,82.525 191.107,81.333 191.107 C 80.142 191.107,79.654 191.167,80.250 191.241 M87.923 191.242 C 88.522 191.316,89.422 191.314,89.923 191.238 C 90.424 191.162,89.933 191.101,88.833 191.103 C 87.733 191.105,87.324 191.167,87.923 191.242 M92.930 191.247 C 94.083 191.312,95.883 191.312,96.930 191.246 C 97.977 191.180,97.033 191.127,94.833 191.127 C 92.633 191.128,91.777 191.182,92.930 191.247 M109.066 191.248 C 110.661 191.309,113.361 191.309,115.066 191.249 C 116.772 191.188,115.467 191.138,112.167 191.138 C 108.867 191.137,107.472 191.187,109.066 191.248 M3.923 191.575 C 4.522 191.649,5.422 191.648,5.923 191.572 C 6.424 191.495,5.933 191.435,4.833 191.437 C 3.733 191.438,3.324 191.501,3.923 191.575 M19.589 191.575 C 20.188 191.649,21.088 191.648,21.589 191.572 C 22.090 191.495,21.600 191.435,20.500 191.437 C 19.400 191.438,18.990 191.501,19.589 191.575 M29.250 191.582 C 30.946 191.642,33.721 191.642,35.417 191.582 C 37.112 191.521,35.725 191.472,32.333 191.472 C 28.942 191.472,27.554 191.521,29.250 191.582 M47.930 191.580 C 49.083 191.646,50.883 191.645,51.930 191.579 C 52.977 191.513,52.033 191.460,49.833 191.461 C 47.633 191.461,46.777 191.515,47.930 191.580 M54.750 191.572 C 55.254 191.648,56.079 191.648,56.583 191.572 C 57.087 191.496,56.675 191.433,55.667 191.433 C 54.658 191.433,54.246 191.496,54.750 191.572 M7.256 207.908 C 7.855 207.982,8.755 207.981,9.256 207.905 C 9.757 207.829,9.267 207.768,8.167 207.770 C 7.067 207.772,6.657 207.834,7.256 207.908 M13.750 207.905 C 14.254 207.982,15.079 207.982,15.583 207.905 C 16.087 207.829,15.675 207.767,14.667 207.767 C 13.658 207.767,13.246 207.829,13.750 207.905 M18.429 207.913 C 19.490 207.980,21.140 207.979,22.096 207.912 C 23.051 207.845,22.183 207.791,20.167 207.791 C 18.150 207.792,17.368 207.847,18.429 207.913 M31.083 207.905 C 31.587 207.982,32.412 207.982,32.917 207.905 C 33.421 207.829,33.008 207.767,32.000 207.767 C 30.992 207.767,30.579 207.829,31.083 207.905 M35.595 207.913 C 36.563 207.980,38.063 207.980,38.928 207.911 C 39.793 207.843,39.000 207.788,37.167 207.788 C 35.333 207.789,34.626 207.845,35.595 207.913 M46.755 208.239 C 47.261 208.316,48.011 208.314,48.421 208.235 C 48.831 208.156,48.417 208.093,47.500 208.095 C 46.583 208.098,46.248 208.163,46.755 208.239 M60.417 208.239 C 60.921 208.315,61.746 208.315,62.250 208.239 C 62.754 208.162,62.342 208.100,61.333 208.100 C 60.325 208.100,59.913 208.162,60.417 208.239 M67.083 208.239 C 67.587 208.315,68.412 208.315,68.917 208.239 C 69.421 208.162,69.008 208.100,68.000 208.100 C 66.992 208.100,66.579 208.162,67.083 208.239 M71.583 208.246 C 72.546 208.313,74.121 208.313,75.083 208.246 C 76.046 208.178,75.258 208.123,73.333 208.123 C 71.408 208.123,70.621 208.178,71.583 208.246 M85.932 208.248 C 87.454 208.310,89.854 208.310,91.266 208.247 C 92.678 208.185,91.433 208.135,88.500 208.135 C 85.567 208.135,84.411 208.186,85.932 208.248 M98.088 208.573 C 98.595 208.649,99.345 208.647,99.755 208.568 C 100.165 208.489,99.750 208.426,98.833 208.429 C 97.917 208.431,97.581 208.496,98.088 208.573 M111.750 208.572 C 112.254 208.648,113.079 208.648,113.583 208.572 C 114.087 208.496,113.675 208.433,112.667 208.433 C 111.658 208.433,111.246 208.496,111.750 208.572 M118.417 208.572 C 118.921 208.648,119.746 208.648,120.250 208.572 C 120.754 208.496,120.342 208.433,119.333 208.433 C 118.325 208.433,117.912 208.496,118.417 208.572 M122.917 208.579 C 123.879 208.646,125.454 208.646,126.417 208.579 C 127.379 208.512,126.592 208.457,124.667 208.457 C 122.742 208.457,121.954 208.512,122.917 208.579 M137.250 208.581 C 138.762 208.643,141.237 208.643,142.750 208.581 C 144.262 208.520,143.025 208.469,140.000 208.469 C 136.975 208.469,135.737 208.520,137.250 208.581 M147.750 208.905 C 148.254 208.982,149.079 208.982,149.583 208.905 C 150.087 208.829,149.675 208.767,148.667 208.767 C 147.658 208.767,147.246 208.829,147.750 208.905 M161.167 208.911 C 161.533 209.002,161.944 209.247,162.078 209.455 C 162.234 209.695,162.325 209.620,162.328 209.250 C 162.332 208.825,162.084 208.677,161.417 208.705 C 160.714 208.735,160.656 208.783,161.167 208.911 M202.917 209.916 C 206.629 209.970,212.704 209.970,216.417 209.916 C 220.129 209.863,217.092 209.819,209.667 209.819 C 202.242 209.819,199.204 209.863,202.917 209.916 M226.768 209.916 C 228.749 209.975,231.899 209.974,233.768 209.915 C 235.637 209.856,234.017 209.807,230.167 209.808 C 226.317 209.808,224.787 209.857,226.768 209.916 M254.101 210.249 C 256.082 210.308,259.232 210.308,261.101 210.248 C 262.971 210.189,261.350 210.141,257.500 210.141 C 253.650 210.141,252.121 210.190,254.101 210.249 M308.250 210.249 C 310.129 210.308,313.204 210.308,315.083 210.249 C 316.962 210.189,315.425 210.141,311.667 210.141 C 307.908 210.141,306.371 210.189,308.250 210.249 M335.583 210.249 C 337.462 210.308,340.537 210.308,342.417 210.249 C 344.296 210.189,342.758 210.141,339.000 210.141 C 335.242 210.141,333.704 210.189,335.583 210.249 M349.250 210.249 C 351.129 210.308,354.204 210.308,356.083 210.249 C 357.962 210.189,356.425 210.141,352.667 210.141 C 348.908 210.141,347.371 210.189,349.250 210.249 M363.101 210.249 C 365.082 210.308,368.232 210.308,370.101 210.248 C 371.971 210.189,370.350 210.141,366.500 210.141 C 362.650 210.141,361.121 210.190,363.101 210.249 M396.783 212.667 C 396.783 214.225,396.841 214.862,396.911 214.083 C 396.981 213.304,396.981 212.029,396.911 211.250 C 396.841 210.471,396.783 211.108,396.783 212.667 M181.411 212.667 C 181.411 213.308,181.479 213.571,181.563 213.250 C 181.647 212.929,181.647 212.404,181.563 212.083 C 181.479 211.762,181.411 212.025,181.411 212.667 M162.112 214.667 C 162.112 216.042,162.171 216.604,162.243 215.917 C 162.315 215.229,162.315 214.104,162.243 213.417 C 162.171 212.729,162.112 213.292,162.112 214.667 M181.440 216.667 C 181.440 217.858,181.501 218.346,181.574 217.750 C 181.648 217.154,181.648 216.179,181.574 215.583 C 181.501 214.987,181.440 215.475,181.440 216.667 M181.411 224.333 C 181.411 224.975,181.479 225.237,181.563 224.917 C 181.647 224.596,181.647 224.071,181.563 223.750 C 181.479 223.429,181.411 223.692,181.411 224.333 M162.100 225.333 C 162.100 226.342,162.162 226.754,162.239 226.250 C 162.315 225.746,162.315 224.921,162.239 224.417 C 162.162 223.912,162.100 224.325,162.100 225.333 M181.433 229.333 C 181.433 230.342,181.496 230.754,181.572 230.250 C 181.648 229.746,181.648 228.921,181.572 228.417 C 181.496 227.912,181.433 228.325,181.433 229.333 M162.133 233.500 C 162.134 236.250,162.185 237.331,162.248 235.901 C 162.311 234.472,162.310 232.222,162.247 230.901 C 162.184 229.581,162.133 230.750,162.133 233.500 M396.779 237.000 C 396.779 238.375,396.838 238.938,396.909 238.250 C 396.981 237.563,396.981 236.438,396.909 235.750 C 396.838 235.063,396.779 235.625,396.779 237.000 M162.112 242.333 C 162.112 243.708,162.171 244.271,162.243 243.583 C 162.315 242.896,162.315 241.771,162.243 241.083 C 162.171 240.396,162.112 240.958,162.112 242.333 M181.411 247.667 C 181.411 248.308,181.479 248.571,181.563 248.250 C 181.647 247.929,181.647 247.404,181.563 247.083 C 181.479 246.762,181.411 247.025,181.411 247.667 M396.809 256.167 C 396.809 260.200,396.857 261.804,396.916 259.732 C 396.974 257.659,396.974 254.359,396.915 252.398 C 396.856 250.438,396.808 252.133,396.809 256.167 M181.411 250.333 C 181.411 250.975,181.479 251.237,181.563 250.917 C 181.647 250.596,181.647 250.071,181.563 249.750 C 181.479 249.429,181.411 249.692,181.411 250.333 M181.433 258.667 C 181.433 259.675,181.496 260.087,181.572 259.583 C 181.648 259.079,181.648 258.254,181.572 257.750 C 181.496 257.246,181.433 257.658,181.433 258.667 M162.143 268.000 C 162.143 272.125,162.190 273.813,162.249 271.750 C 162.307 269.688,162.307 266.313,162.249 264.250 C 162.190 262.188,162.143 263.875,162.143 268.000 M0.156 285.333 C 0.156 296.058,0.198 300.446,0.250 295.083 C 0.301 289.721,0.301 280.946,0.250 275.583 C 0.198 270.221,0.156 274.608,0.156 285.333 M396.779 270.667 C 396.779 272.042,396.838 272.604,396.909 271.917 C 396.981 271.229,396.981 270.104,396.909 269.417 C 396.838 268.729,396.779 269.292,396.779 270.667 M181.411 272.333 C 181.411 272.975,181.479 273.237,181.563 272.917 C 181.647 272.596,181.647 272.071,181.563 271.750 C 181.479 271.429,181.411 271.692,181.411 272.333 M396.779 280.333 C 396.779 281.708,396.838 282.271,396.909 281.583 C 396.981 280.896,396.981 279.771,396.909 279.083 C 396.838 278.396,396.779 278.958,396.779 280.333 M162.128 294.333 C 162.128 296.625,162.182 297.563,162.247 296.417 C 162.312 295.271,162.312 293.396,162.247 292.250 C 162.182 291.104,162.128 292.042,162.128 294.333 M181.411 297.000 C 181.411 297.642,181.479 297.904,181.563 297.583 C 181.647 297.262,181.647 296.737,181.563 296.417 C 181.479 296.096,181.411 296.358,181.411 297.000 M181.744 301.333 C 181.744 301.975,181.813 302.237,181.896 301.917 C 181.980 301.596,181.980 301.071,181.896 300.750 C 181.813 300.429,181.744 300.692,181.744 301.333 M162.100 303.333 C 162.100 304.342,162.162 304.754,162.239 304.250 C 162.315 303.746,162.315 302.921,162.239 302.417 C 162.162 301.912,162.100 302.325,162.100 303.333 M396.800 306.833 C 396.800 309.583,396.852 310.664,396.915 309.235 C 396.977 307.806,396.977 305.556,396.914 304.235 C 396.851 302.914,396.800 304.083,396.800 306.833 M181.744 314.333 C 181.744 314.975,181.813 315.237,181.896 314.917 C 181.980 314.596,181.980 314.071,181.896 313.750 C 181.813 313.429,181.744 313.692,181.744 314.333 M162.100 318.000 C 162.100 319.008,162.162 319.421,162.239 318.917 C 162.315 318.412,162.315 317.587,162.239 317.083 C 162.162 316.579,162.100 316.992,162.100 318.000 M396.781 318.833 C 396.782 320.300,396.841 320.859,396.911 320.075 C 396.982 319.291,396.981 318.091,396.909 317.408 C 396.837 316.725,396.780 317.367,396.781 318.833 M181.744 319.000 C 181.744 319.642,181.813 319.904,181.896 319.583 C 181.980 319.262,181.980 318.737,181.896 318.417 C 181.813 318.096,181.744 318.358,181.744 319.000 M162.112 323.667 C 162.112 325.042,162.171 325.604,162.243 324.917 C 162.315 324.229,162.315 323.104,162.243 322.417 C 162.171 321.729,162.112 322.292,162.112 323.667 M181.757 328.333 C 181.757 329.158,181.822 329.496,181.902 329.083 C 181.981 328.671,181.981 327.996,181.902 327.583 C 181.822 327.171,181.757 327.508,181.757 328.333 M396.779 333.333 C 396.779 334.708,396.838 335.271,396.909 334.583 C 396.981 333.896,396.981 332.771,396.909 332.083 C 396.838 331.396,396.779 331.958,396.779 333.333 M162.095 337.500 C 162.098 338.417,162.163 338.752,162.239 338.245 C 162.316 337.739,162.314 336.989,162.235 336.579 C 162.156 336.169,162.093 336.583,162.095 337.500 M181.744 341.000 C 181.744 341.642,181.813 341.904,181.896 341.583 C 181.980 341.262,181.980 340.737,181.896 340.417 C 181.813 340.096,181.744 340.358,181.744 341.000 M396.809 347.833 C 396.809 351.867,396.857 353.471,396.916 351.398 C 396.974 349.326,396.974 346.026,396.915 344.065 C 396.856 342.104,396.808 343.800,396.809 347.833 M18.951 345.751 C 19.119 345.919,19.611 346.001,20.045 345.932 C 20.712 345.827,20.665 345.781,19.740 345.627 C 19.077 345.517,18.766 345.566,18.951 345.751 M162.114 354.500 C 162.115 355.967,162.174 356.525,162.244 355.741 C 162.315 354.957,162.314 353.757,162.242 353.075 C 162.171 352.392,162.113 353.033,162.114 354.500 M181.744 354.000 C 181.744 354.642,181.813 354.904,181.896 354.583 C 181.980 354.262,181.980 353.738,181.896 353.417 C 181.813 353.096,181.744 353.358,181.744 354.000 M396.800 364.500 C 396.800 367.250,396.852 368.331,396.915 366.901 C 396.977 365.472,396.977 363.222,396.914 361.901 C 396.851 360.581,396.800 361.750,396.800 364.500 M158.028 364.786 C 158.420 365.125,160.036 365.327,159.842 365.013 C 159.724 364.823,159.236 364.667,158.758 364.667 C 158.280 364.667,157.951 364.721,158.028 364.786 M181.705 366.064 C 181.684 366.924,181.785 367.701,181.930 367.790 C 182.075 367.880,182.142 367.401,182.078 366.727 C 181.882 364.665,181.746 364.422,181.705 366.064 M185.618 368.418 C 185.786 368.586,186.278 368.667,186.712 368.599 C 187.379 368.494,187.332 368.447,186.406 368.294 C 185.744 368.184,185.433 368.233,185.618 368.418 M205.361 371.120 C 205.754 371.458,207.369 371.660,207.175 371.347 C 207.057 371.156,206.570 371.000,206.091 371.000 C 205.613 371.000,205.285 371.054,205.361 371.120 M265.951 379.751 C 266.119 379.919,266.611 380.001,267.045 379.932 C 267.712 379.827,267.665 379.781,266.740 379.627 C 266.077 379.517,265.766 379.566,265.951 379.751 M288.028 382.786 C 288.420 383.125,290.036 383.327,289.842 383.013 C 289.724 382.823,289.236 382.667,288.758 382.667 C 288.280 382.667,287.951 382.721,288.028 382.786 M294.284 383.751 C 294.452 383.919,294.945 384.001,295.378 383.932 C 296.045 383.827,295.999 383.781,295.073 383.627 C 294.410 383.517,294.099 383.566,294.284 383.751 M296.618 384.084 C 296.786 384.252,297.278 384.334,297.712 384.266 C 298.379 384.161,298.332 384.114,297.406 383.960 C 296.744 383.851,296.433 383.899,296.618 384.084 M316.361 386.786 C 316.754 387.125,318.369 387.327,318.175 387.013 C 318.057 386.823,317.570 386.667,317.091 386.667 C 316.613 386.667,316.285 386.721,316.361 386.786 M376.951 395.418 C 377.119 395.586,377.611 395.667,378.045 395.599 C 378.712 395.494,378.665 395.447,377.740 395.294 C 377.077 395.184,376.766 395.233,376.951 395.418 " stroke="none" fill="#0474d9" fill-rule="evenodd"></path><path id="path3" d="" stroke="none" fill="#087cd4" fill-rule="evenodd"></path><path id="path4" d="" stroke="none" fill="#087cd4" fill-rule="evenodd"></path></g></svg>