<svg id="svg" version="1.1" xmlns="http://www.w3.org/2000/svg" xmlns:xlink="http://www.w3.org/1999/xlink" width="400" height="400" viewBox="0, 0, 400,400"><g id="svgg"><path id="path0" d="M143.595 125.333 C 81.217 125.492,77.995 125.529,77.429 126.095 C 76.861 126.663,76.833 130.228,76.833 204.003 L 76.833 281.315 77.593 282.074 L 78.352 282.833 95.974 282.833 C 112.805 282.833,113.628 282.805,114.295 282.202 L 114.993 281.570 115.080 220.589 L 115.167 159.609 116.111 158.797 L 117.056 157.984 156.444 158.079 C 200.655 158.186,197.037 157.979,202.604 160.724 C 207.424 163.101,212.081 168.135,214.134 173.188 C 216.071 177.955,216.000 175.784,216.000 230.625 C 216.000 258.301,216.093 281.188,216.207 281.485 C 216.770 282.951,217.381 283.000,235.167 283.000 C 253.377 283.000,253.751 282.965,254.172 281.244 C 254.737 278.939,254.135 163.132,253.546 160.667 C 248.740 140.556,231.620 126.085,211.667 125.269 C 210.292 125.213,179.660 125.242,143.595 125.333 M285.667 126.000 C 285.004 126.663,285.000 127.111,285.000 204.115 L 285.000 281.563 285.702 282.198 C 286.373 282.806,287.164 282.833,304.026 282.833 L 321.648 282.833 322.407 282.074 L 323.167 281.315 323.167 203.961 L 323.167 126.608 322.380 125.971 C 321.124 124.954,286.685 124.981,285.667 126.000 M146.333 186.667 C 145.331 187.669,145.275 281.209,146.276 282.115 C 147.316 283.056,184.053 282.947,185.000 282.000 C 186.062 280.938,186.050 187.870,184.987 186.730 L 184.307 186.000 165.654 186.000 C 147.444 186.000,146.984 186.016,146.333 186.667 " stroke="none" fill="#fbfbfb" fill-rule="evenodd"></path><path id="path1" d="M171.000 0.535 C 169.808 0.599,165.908 0.810,162.333 1.003 C 67.656 6.137,20.907 39.478,7.871 111.167 C -2.728 169.456,-2.734 232.287,7.857 290.667 C 13.312 320.739,26.450 344.744,47.776 363.605 C 80.223 392.302,117.923 400.389,215.444 399.572 C 271.253 399.104,302.945 393.533,330.094 379.416 C 368.792 359.295,391.243 321.619,397.481 266.333 C 399.450 248.887,400.817 185.352,399.688 163.833 C 395.781 89.424,377.584 49.718,336.000 24.870 C 311.743 10.376,286.042 3.930,244.167 1.838 C 238.483 1.554,230.758 1.164,227.000 0.973 C 220.505 0.641,175.579 0.290,171.000 0.535 M216.000 125.485 C 232.812 128.038,247.145 140.074,252.456 156.097 C 254.627 162.647,254.500 158.485,254.500 222.890 L 254.500 281.280 253.692 282.140 L 252.884 283.000 235.138 283.000 L 217.393 283.000 216.530 281.974 L 215.667 280.949 215.667 230.028 C 215.667 180.449,215.649 179.039,215.010 176.538 C 212.779 167.815,206.185 161.221,197.462 158.990 C 194.978 158.355,193.609 158.333,155.804 158.333 L 116.715 158.333 116.024 159.212 L 115.333 160.090 115.333 220.727 L 115.333 281.364 114.515 282.182 L 113.697 283.000 96.000 283.000 L 78.303 283.000 77.485 282.182 L 76.667 281.364 76.667 204.160 C 76.667 123.657,76.625 125.932,78.105 125.336 C 79.471 124.785,212.340 124.929,216.000 125.485 M322.696 125.954 C 323.319 126.723,323.333 128.435,323.333 204.052 L 323.333 281.364 322.515 282.182 L 321.697 283.000 304.000 283.000 L 286.303 283.000 285.485 282.182 L 284.667 281.364 284.677 204.098 C 284.686 143.885,284.777 126.718,285.094 126.309 C 286.089 125.025,286.352 125.009,304.446 125.089 L 322.059 125.167 322.696 125.954 M185.026 186.641 L 186.000 187.615 186.000 234.282 L 186.000 280.949 185.137 281.974 L 184.274 283.000 165.622 283.000 L 146.970 283.000 146.152 282.182 L 145.333 281.364 145.333 234.490 L 145.333 187.615 146.308 186.641 L 147.282 185.667 165.667 185.667 L 184.051 185.667 185.026 186.641 " stroke="none" fill="#ec6404" fill-rule="evenodd"></path><path id="path2" d="M111.417 125.250 C 129.337 125.298,158.662 125.298,176.583 125.250 C 194.504 125.202,179.842 125.163,144.000 125.163 C 108.158 125.163,93.496 125.202,111.417 125.250 M210.250 125.235 C 210.662 125.315,211.338 125.315,211.750 125.235 C 212.162 125.156,211.825 125.091,211.000 125.091 C 210.175 125.091,209.838 125.156,210.250 125.235 M295.773 125.250 C 300.507 125.302,308.157 125.302,312.773 125.250 C 317.390 125.197,313.517 125.155,304.167 125.155 C 294.817 125.155,291.040 125.198,295.773 125.250 M284.831 204.000 C 284.831 246.442,284.869 263.804,284.917 242.583 C 284.964 221.363,284.964 186.638,284.917 165.417 C 284.869 144.196,284.831 161.558,284.831 204.000 M115.163 220.833 C 115.163 254.017,115.202 267.542,115.250 250.890 C 115.298 234.238,115.298 207.088,115.250 190.557 C 115.202 174.026,115.163 187.650,115.163 220.833 M145.495 234.500 C 145.495 260.167,145.535 270.617,145.583 257.724 C 145.632 244.830,145.632 223.830,145.583 211.057 C 145.535 198.284,145.495 208.833,145.495 234.500 M156.417 282.916 C 161.504 282.968,169.829 282.968,174.917 282.916 C 180.004 282.865,175.842 282.822,165.667 282.822 C 155.492 282.822,151.329 282.865,156.417 282.916 " stroke="none" fill="#f4b48b" fill-rule="evenodd"></path><path id="path3" d="M241.000 138.167 C 241.622 138.808,242.206 139.333,242.297 139.333 C 242.389 139.333,241.955 138.808,241.333 138.167 C 240.711 137.525,240.128 137.000,240.036 137.000 C 239.944 137.000,240.378 137.525,241.000 138.167 M136.609 158.250 C 147.119 158.299,164.219 158.299,174.609 158.250 C 184.999 158.201,176.400 158.161,155.500 158.161 C 134.600 158.161,126.099 158.201,136.609 158.250 M254.417 167.833 C 254.421 168.567,254.489 168.827,254.569 168.413 C 254.649 167.998,254.646 167.398,254.562 167.079 C 254.479 166.761,254.414 167.100,254.417 167.833 M254.496 225.167 C 254.496 255.600,254.535 268.099,254.583 252.943 C 254.631 237.787,254.631 212.887,254.583 197.610 C 254.535 182.333,254.496 194.733,254.496 225.167 M215.829 231.167 C 215.829 258.667,215.868 269.867,215.917 256.057 C 215.965 242.247,215.965 219.747,215.917 206.057 C 215.868 192.367,215.829 203.667,215.829 231.167 M156.060 185.916 C 160.951 185.968,169.051 185.968,174.060 185.916 C 179.069 185.865,175.067 185.822,165.167 185.822 C 155.267 185.822,151.169 185.864,156.060 185.916 " stroke="none" fill="#f3955c" fill-rule="evenodd"></path><path id="path4" d="M185.829 234.333 C 185.829 259.725,185.868 270.112,185.917 257.417 C 185.965 244.721,185.965 223.946,185.917 211.250 C 185.868 198.554,185.829 208.942,185.829 234.333 " stroke="none" fill="#f4ac7c" fill-rule="evenodd"></path></g></svg>