<svg id="svg" version="1.1" xmlns="http://www.w3.org/2000/svg" xmlns:xlink="http://www.w3.org/1999/xlink" width="400" height="400" viewBox="0, 0, 400,400"><g id="svgg"><path id="path0" d="M97.200 10.600 L 97.200 11.600 93.000 11.600 L 88.800 11.600 88.800 12.600 L 88.800 13.600 80.400 13.600 L 72.000 13.600 72.000 14.600 L 72.000 15.600 66.800 15.600 L 61.600 15.600 61.600 16.800 L 61.600 18.000 57.400 18.000 L 53.200 18.000 53.200 19.000 C 53.200 19.800,53.000 20.000,52.200 20.000 C 51.400 20.000,51.200 20.200,51.200 21.000 C 51.200 21.933,51.067 22.000,49.200 22.000 C 47.333 22.000,47.200 22.067,47.200 23.000 C 47.200 23.945,47.080 24.000,45.000 24.000 C 42.920 24.000,42.800 24.055,42.800 25.000 C 42.800 25.933,42.667 26.000,40.800 26.000 C 38.844 26.000,38.800 26.027,38.800 27.200 C 38.800 28.267,38.667 28.400,37.600 28.400 C 36.587 28.400,36.400 28.556,36.400 29.400 C 36.400 30.200,36.200 30.400,35.400 30.400 C 34.600 30.400,34.400 30.600,34.400 31.400 C 34.400 32.200,34.200 32.400,33.400 32.400 C 32.600 32.400,32.400 32.600,32.400 33.400 C 32.400 34.200,32.200 34.400,31.400 34.400 C 30.455 34.400,30.400 34.520,30.400 36.600 C 30.400 38.680,30.345 38.800,29.400 38.800 C 28.600 38.800,28.400 39.000,28.400 39.800 C 28.400 40.630,28.208 40.800,27.275 40.800 C 26.213 40.800,26.144 40.906,26.053 42.700 C 26.000 43.745,25.784 44.661,25.571 44.736 C 24.608 45.075,24.000 46.183,24.000 47.601 C 24.000 48.897,23.856 49.165,23.100 49.272 C 22.338 49.380,22.169 49.704,22.000 51.384 C 21.832 53.047,21.650 53.403,20.876 53.584 C 20.368 53.703,19.963 53.935,19.976 54.100 C 19.989 54.265,20.000 56.560,20.000 59.200 L 20.000 64.000 19.000 64.000 C 18.194 64.000,18.000 64.198,18.000 65.024 C 18.000 65.587,17.827 65.940,17.615 65.809 C 17.403 65.678,16.890 65.910,16.475 66.325 C 15.573 67.227,15.716 69.795,16.649 69.437 C 16.952 69.320,17.200 69.410,17.200 69.636 C 17.200 69.862,17.380 69.936,17.600 69.800 C 17.838 69.653,18.000 70.129,18.000 70.976 C 18.000 72.211,17.873 72.400,17.043 72.400 C 16.219 72.400,16.039 72.660,15.743 74.279 C 15.554 75.312,15.261 76.119,15.092 76.071 C 13.784 75.699,13.227 87.251,14.513 88.084 C 14.889 88.328,14.878 88.479,14.464 88.746 C 14.141 88.954,13.822 90.271,13.664 92.046 C 13.464 94.288,13.255 95.000,12.800 95.000 C 12.470 95.000,12.068 95.180,11.906 95.400 C 11.744 95.620,11.609 125.622,11.606 162.072 L 11.600 228.344 10.700 228.472 L 9.800 228.600 9.800 256.200 L 9.800 283.800 10.700 284.195 L 11.600 284.590 11.630 298.395 C 11.663 313.648,11.682 313.929,12.767 314.835 C 13.185 315.184,13.589 315.904,13.664 316.435 C 13.755 317.079,14.100 317.443,14.704 317.528 C 15.428 317.631,15.591 317.885,15.521 318.801 C 15.473 319.430,15.300 319.862,15.137 319.761 C 14.436 319.328,13.945 321.393,14.144 323.935 C 14.406 327.292,14.468 327.605,14.820 327.387 C 14.978 327.290,15.330 327.748,15.602 328.405 C 15.952 329.251,16.371 329.600,17.035 329.600 C 17.949 329.600,17.975 329.699,18.086 333.700 C 18.195 337.607,18.242 337.806,19.100 337.928 C 19.941 338.047,20.000 338.250,20.000 341.036 C 20.000 343.803,20.070 344.049,20.969 344.459 C 21.734 344.807,21.996 345.316,22.209 346.867 C 22.372 348.049,22.863 349.289,23.440 349.974 C 23.968 350.602,24.400 351.416,24.400 351.784 C 24.400 352.644,25.171 354.114,25.827 354.502 C 26.108 354.669,26.456 355.343,26.600 356.000 C 27.045 358.028,38.996 369.600,40.645 369.600 C 40.928 369.600,41.597 370.006,42.132 370.502 C 42.667 370.998,44.306 372.026,45.774 372.786 C 47.241 373.547,48.632 374.397,48.863 374.676 C 49.095 374.955,50.154 375.299,51.218 375.440 C 52.504 375.611,53.451 376.015,54.045 376.648 C 54.787 377.438,55.334 377.600,57.254 377.600 C 59.181 377.600,59.721 377.761,60.484 378.566 C 61.300 379.427,61.802 379.548,65.068 379.666 C 68.332 379.785,68.854 379.910,69.800 380.800 C 70.817 381.757,71.116 381.806,76.722 381.939 C 82.196 382.070,82.636 382.138,83.418 382.981 C 84.455 384.101,92.392 384.524,109.127 384.353 C 119.529 384.246,119.622 384.253,120.231 385.123 C 120.845 385.999,120.855 386.000,136.123 386.010 C 144.525 386.015,152.120 386.187,153.000 386.393 C 155.511 386.979,239.694 387.321,253.200 386.799 C 259.470 386.557,268.418 386.234,273.084 386.080 C 280.799 385.825,281.618 385.731,282.127 385.033 C 282.656 384.309,283.264 384.270,293.243 384.325 C 307.766 384.405,313.470 384.023,314.340 382.911 C 314.949 382.134,315.464 382.058,321.000 381.929 C 326.647 381.797,327.078 381.730,328.327 380.799 C 329.479 379.940,330.197 379.783,333.786 379.605 C 337.059 379.443,338.090 379.245,338.740 378.656 C 339.279 378.167,340.538 377.804,342.410 377.599 C 344.437 377.376,345.471 377.060,345.990 376.503 C 346.413 376.048,347.521 375.610,348.631 375.458 C 349.682 375.314,350.834 374.932,351.191 374.608 C 351.548 374.285,352.614 373.748,353.560 373.414 C 354.506 373.080,356.142 372.085,357.196 371.204 C 358.249 370.322,359.302 369.600,359.535 369.600 C 360.556 369.600,369.600 361.239,369.600 360.295 C 369.600 359.928,369.960 359.435,370.400 359.200 C 370.840 358.965,371.200 358.514,371.200 358.200 C 371.200 357.885,371.723 357.092,372.363 356.438 C 373.003 355.784,373.647 354.697,373.795 354.024 C 373.943 353.351,374.307 352.800,374.605 352.800 C 375.176 352.800,375.377 352.309,375.775 349.944 C 375.933 349.005,376.279 348.420,376.749 348.297 C 377.534 348.092,378.000 346.498,378.000 344.014 C 378.000 342.818,378.195 342.440,379.000 342.073 C 379.959 341.636,380.000 341.470,380.000 337.999 C 380.000 334.565,380.048 334.362,380.943 334.022 C 382.119 333.575,382.446 331.608,382.118 326.959 C 381.822 322.758,382.100 321.600,383.408 321.600 C 384.192 321.600,384.400 321.396,384.400 320.627 C 384.400 320.005,384.689 319.562,385.200 319.400 C 386.140 319.102,386.095 319.462,386.161 311.700 C 386.189 308.345,386.064 305.600,385.883 305.600 C 385.701 305.600,385.681 305.808,385.838 306.062 C 386.008 306.337,385.949 306.415,385.691 306.256 C 385.399 306.076,385.379 305.571,385.629 304.697 C 385.833 303.987,386.000 303.379,386.000 303.347 C 386.000 303.315,385.685 303.314,385.300 303.344 C 384.049 303.444,384.036 294.907,385.287 294.730 C 386.133 294.609,386.208 294.380,386.315 291.588 C 386.417 288.921,386.532 288.532,387.315 288.188 L 388.200 287.800 388.301 195.585 L 388.402 103.370 387.556 103.307 C 386.438 103.222,386.484 103.319,386.362 100.800 C 386.248 98.442,385.638 96.891,385.141 97.695 C 384.776 98.286,384.285 96.426,384.467 95.141 C 384.555 94.518,384.828 94.238,385.275 94.312 C 385.843 94.406,385.897 94.235,385.611 93.238 C 385.356 92.351,385.396 92.100,385.769 92.243 C 386.147 92.388,386.283 91.239,386.337 87.453 C 386.410 82.291,386.055 80.400,385.010 80.400 C 384.599 80.400,384.400 80.009,384.400 79.200 C 384.400 78.187,384.244 78.000,383.400 78.000 C 381.958 78.000,381.809 73.801,383.197 72.311 C 383.956 71.497,384.497 69.200,383.931 69.200 C 383.749 69.200,383.600 69.009,383.600 68.776 C 383.600 68.543,383.808 68.481,384.062 68.638 C 384.352 68.817,384.415 68.748,384.232 68.451 C 384.071 68.191,383.644 68.029,383.283 68.089 C 382.776 68.175,382.547 67.719,382.282 66.096 C 382.092 64.938,381.788 64.084,381.605 64.197 C 380.530 64.861,380.201 63.907,380.287 60.379 C 380.343 58.126,380.230 56.858,379.988 57.007 C 379.775 57.139,379.600 56.959,379.600 56.606 C 379.600 56.217,379.324 56.011,378.900 56.082 C 378.305 56.182,378.182 55.823,378.081 53.700 C 377.969 51.345,377.905 51.200,376.981 51.200 C 376.070 51.200,376.000 51.056,376.000 49.200 C 376.000 47.333,375.933 47.200,375.000 47.200 C 374.055 47.200,374.000 47.080,374.000 45.000 C 374.000 42.920,373.945 42.800,373.000 42.800 C 372.067 42.800,372.000 42.667,372.000 40.800 C 372.000 38.844,371.973 38.800,370.800 38.800 C 369.733 38.800,369.600 38.667,369.600 37.600 C 369.600 36.587,369.444 36.400,368.600 36.400 C 367.800 36.400,367.600 36.200,367.600 35.400 C 367.600 34.600,367.400 34.400,366.600 34.400 C 365.800 34.400,365.600 34.200,365.600 33.400 C 365.600 32.600,365.400 32.400,364.600 32.400 C 363.800 32.400,363.600 32.200,363.600 31.400 C 363.600 30.600,363.400 30.400,362.600 30.400 C 361.800 30.400,361.600 30.200,361.600 29.400 C 361.600 28.455,361.480 28.400,359.400 28.400 C 357.222 28.400,357.200 28.388,357.200 27.200 C 357.200 26.187,357.044 26.000,356.200 26.000 C 355.400 26.000,355.200 25.800,355.200 25.000 C 355.200 24.067,355.067 24.000,353.200 24.000 C 351.333 24.000,351.200 23.933,351.200 23.000 C 351.200 22.017,351.147 22.000,348.000 22.000 C 344.853 22.000,344.800 21.983,344.800 21.000 C 344.800 20.200,344.600 20.000,343.800 20.000 C 343.000 20.000,342.800 19.800,342.800 19.000 L 342.800 18.000 338.600 18.000 L 334.400 18.000 334.400 16.800 L 334.400 15.600 330.200 15.600 L 326.000 15.600 326.000 14.600 L 326.000 13.600 319.800 13.600 L 313.600 13.600 313.600 12.600 C 313.600 11.655,313.480 11.600,311.400 11.600 C 309.320 11.600,309.200 11.545,309.200 10.600 L 309.200 9.600 203.200 9.600 L 97.200 9.600 97.200 10.600 M211.600 81.981 C 212.370 82.233,215.442 82.679,218.427 82.972 C 221.595 83.282,224.364 83.768,225.077 84.136 C 225.749 84.484,227.530 84.965,229.034 85.205 C 230.538 85.446,232.315 85.895,232.984 86.204 C 233.653 86.512,235.100 86.975,236.200 87.233 C 237.300 87.490,238.585 87.939,239.056 88.230 C 239.527 88.522,240.877 89.114,242.056 89.546 C 247.040 91.372,248.273 91.891,249.600 92.721 C 250.370 93.203,251.304 93.598,251.676 93.599 C 252.048 93.599,252.476 93.800,252.628 94.045 C 252.779 94.289,253.824 94.935,254.951 95.479 C 258.767 97.323,260.469 98.264,260.735 98.677 C 260.881 98.903,261.595 99.393,262.321 99.765 C 263.048 100.138,263.972 100.748,264.375 101.121 C 264.778 101.495,265.876 102.250,266.815 102.800 C 267.754 103.350,269.260 104.383,270.161 105.095 C 271.062 105.807,272.321 106.797,272.958 107.295 C 273.594 107.793,274.627 108.650,275.253 109.200 C 275.879 109.750,276.930 110.650,277.589 111.200 C 279.705 112.967,284.147 117.367,286.000 119.533 C 288.122 122.013,289.485 123.581,290.638 124.866 C 291.099 125.380,291.682 126.191,291.935 126.669 C 292.188 127.147,292.621 127.781,292.897 128.079 C 293.909 129.167,295.894 131.831,296.566 133.000 C 296.945 133.660,297.648 134.835,298.128 135.611 C 298.607 136.387,299.360 137.625,299.800 138.361 C 300.240 139.098,301.005 140.199,301.500 140.808 C 301.995 141.417,302.400 142.049,302.400 142.213 C 302.400 142.754,305.571 149.135,305.959 149.374 C 306.168 149.504,306.462 150.192,306.612 150.905 C 306.763 151.617,307.207 152.740,307.600 153.400 C 307.993 154.060,308.441 155.230,308.596 156.000 C 308.751 156.770,309.126 157.792,309.429 158.271 C 309.732 158.749,310.331 160.369,310.761 161.871 C 311.191 163.372,311.808 165.410,312.132 166.400 C 313.436 170.378,314.472 175.648,314.843 180.200 C 315.059 182.840,315.587 187.160,316.018 189.800 C 317.043 196.092,317.040 202.915,316.009 208.853 C 315.573 211.360,315.050 215.298,314.845 217.605 C 314.641 219.912,314.262 222.340,314.003 223.000 C 313.745 223.660,313.279 225.515,312.969 227.121 C 312.659 228.728,312.207 230.413,311.965 230.866 C 311.723 231.318,311.170 232.970,310.736 234.535 C 310.302 236.101,309.792 237.569,309.603 237.796 C 309.414 238.024,309.038 239.108,308.767 240.205 C 308.497 241.302,308.029 242.560,307.728 243.000 C 307.427 243.440,306.989 244.520,306.754 245.400 C 306.520 246.280,306.001 247.360,305.600 247.800 C 305.199 248.240,304.674 249.344,304.433 250.253 C 304.192 251.163,303.749 252.110,303.449 252.359 C 303.150 252.608,302.596 253.619,302.219 254.606 C 301.842 255.593,301.381 256.400,301.194 256.400 C 301.007 256.400,300.733 256.780,300.586 257.245 C 300.275 258.223,296.991 263.290,293.921 267.527 C 288.200 275.424,280.483 283.895,275.813 287.407 C 274.940 288.063,273.931 288.870,273.571 289.200 C 273.210 289.530,272.328 290.250,271.610 290.800 C 270.893 291.350,269.832 292.166,269.253 292.613 C 265.767 295.303,254.658 302.400,253.933 302.400 C 253.741 302.400,252.573 302.940,251.336 303.600 C 250.099 304.260,248.867 304.800,248.598 304.800 C 248.328 304.800,247.664 305.149,247.122 305.575 C 246.580 306.002,245.611 306.475,244.968 306.627 C 244.326 306.779,243.170 307.225,242.400 307.619 C 241.630 308.013,240.102 308.543,239.005 308.797 C 237.908 309.051,236.791 309.441,236.523 309.664 C 236.254 309.887,234.812 310.399,233.317 310.802 C 231.823 311.205,229.610 311.809,228.400 312.144 C 227.190 312.479,224.670 313.047,222.800 313.407 C 220.930 313.766,218.500 314.246,217.400 314.473 C 214.789 315.012,183.705 314.617,181.200 314.013 C 180.210 313.774,177.801 313.319,175.847 313.002 C 173.893 312.685,171.237 312.060,169.945 311.613 C 168.654 311.166,167.103 310.799,166.498 310.799 C 165.894 310.798,164.803 310.433,164.074 309.989 C 163.345 309.544,161.815 308.985,160.674 308.747 C 159.533 308.508,158.060 307.994,157.400 307.605 C 156.740 307.216,155.543 306.781,154.740 306.638 C 153.937 306.495,153.061 306.114,152.792 305.791 C 152.524 305.467,151.396 304.933,150.286 304.603 C 149.175 304.273,147.982 303.756,147.633 303.452 C 147.285 303.149,146.326 302.685,145.503 302.421 C 144.680 302.156,143.870 301.703,143.703 301.413 C 143.536 301.123,142.770 300.596,142.000 300.242 C 141.230 299.888,139.790 299.064,138.800 298.412 C 137.810 297.760,136.370 296.858,135.600 296.407 C 134.830 295.955,133.390 294.966,132.400 294.209 C 131.410 293.452,129.520 292.079,128.200 291.159 C 125.582 289.335,125.243 289.065,123.269 287.234 C 122.537 286.555,121.850 286.000,121.742 286.000 C 121.544 286.000,115.522 280.271,114.660 279.262 C 114.407 278.967,113.829 278.337,113.375 277.862 C 112.291 276.730,108.519 272.086,107.000 270.016 C 106.340 269.116,105.485 267.979,105.101 267.490 C 103.918 265.984,102.467 263.859,101.763 262.600 C 101.394 261.940,100.846 261.256,100.546 261.080 C 100.246 260.904,100.000 260.524,100.000 260.235 C 100.000 259.946,99.460 259.031,98.800 258.200 C 98.140 257.369,97.600 256.379,97.600 255.999 C 97.600 255.619,97.234 254.842,96.786 254.273 C 96.338 253.703,95.772 252.644,95.529 251.919 C 95.286 251.193,94.847 250.321,94.554 249.980 C 94.261 249.639,93.742 248.568,93.400 247.600 C 93.058 246.632,92.534 245.561,92.234 245.220 C 91.934 244.879,91.560 243.993,91.402 243.251 C 91.244 242.508,90.796 241.338,90.407 240.651 C 90.017 239.963,89.489 238.528,89.234 237.463 C 88.979 236.397,88.524 235.137,88.224 234.663 C 87.924 234.188,87.558 233.170,87.410 232.400 C 87.262 231.630,86.782 229.930,86.344 228.622 C 85.906 227.314,85.389 224.854,85.195 223.154 C 85.001 221.454,84.486 218.834,84.051 217.332 C 82.546 212.136,82.608 183.433,84.131 179.957 C 84.479 179.163,84.955 176.970,85.190 175.084 C 85.424 173.198,85.972 170.539,86.408 169.176 C 86.844 167.812,87.200 166.377,87.200 165.988 C 87.200 165.598,87.648 164.317,88.196 163.140 C 88.744 161.963,89.194 160.637,89.196 160.194 C 89.198 159.751,89.586 158.671,90.059 157.794 C 90.531 156.917,91.150 155.327,91.433 154.260 C 91.717 153.193,92.210 152.023,92.530 151.660 C 92.849 151.297,93.240 150.370,93.399 149.600 C 93.557 148.830,94.005 147.840,94.394 147.400 C 94.783 146.960,95.317 145.928,95.580 145.106 C 95.843 144.284,96.228 143.506,96.435 143.378 C 96.643 143.250,97.088 142.485,97.425 141.678 C 97.762 140.871,98.360 139.848,98.754 139.405 C 99.148 138.962,99.701 138.015,99.984 137.300 C 100.266 136.585,100.625 136.000,100.781 136.000 C 100.937 136.000,101.316 135.505,101.624 134.900 C 101.931 134.295,102.515 133.350,102.921 132.800 C 103.328 132.250,104.716 130.360,106.007 128.600 C 110.615 122.319,111.944 120.763,116.957 115.786 C 121.106 111.667,123.885 109.135,125.617 107.896 C 126.157 107.509,127.410 106.567,128.400 105.802 C 131.748 103.216,138.347 98.733,140.000 97.922 C 140.550 97.652,141.509 97.019,142.131 96.516 C 142.753 96.012,143.583 95.600,143.977 95.600 C 144.370 95.600,145.158 95.234,145.727 94.786 C 146.297 94.338,147.356 93.769,148.081 93.522 C 148.807 93.274,149.829 92.741,150.354 92.336 C 150.879 91.931,151.617 91.600,151.994 91.600 C 152.372 91.600,153.474 91.179,154.442 90.663 C 155.411 90.148,156.923 89.495,157.802 89.211 C 158.681 88.928,159.627 88.516,159.904 88.296 C 160.415 87.890,163.849 86.825,168.200 85.724 C 169.520 85.390,172.040 84.691,173.800 84.169 C 175.560 83.648,178.620 83.113,180.600 82.979 C 182.580 82.846,185.280 82.485,186.600 82.178 C 190.967 81.161,208.668 81.021,211.600 81.981 M135.974 147.248 C 132.465 149.516,122.400 159.805,122.400 161.124 C 122.400 161.332,122.119 161.735,121.775 162.021 C 121.104 162.578,118.899 165.841,117.870 167.800 C 115.752 171.835,114.000 175.815,114.000 176.595 C 114.000 176.950,113.726 177.769,113.392 178.416 C 112.854 179.456,111.972 183.082,110.719 189.400 C 109.942 193.320,110.502 205.947,111.541 207.930 C 114.716 213.993,120.957 209.688,118.400 203.200 C 117.374 200.596,117.246 190.596,118.199 187.455 C 118.523 186.386,118.981 183.962,119.216 182.070 C 119.451 180.178,119.815 178.423,120.024 178.171 C 120.233 177.919,120.746 176.743,121.163 175.556 C 121.925 173.392,123.984 168.895,124.896 167.400 C 128.320 161.794,130.287 159.305,136.436 152.800 C 142.678 146.198,142.418 143.083,135.974 147.248 M143.146 153.698 C 140.039 155.626,138.527 156.777,136.637 158.652 C 134.208 161.062,129.204 166.973,129.189 167.449 C 129.183 167.642,128.643 168.507,127.989 169.371 C 127.335 170.235,126.800 171.156,126.800 171.417 C 126.800 171.678,126.466 172.321,126.058 172.846 C 125.650 173.371,125.087 174.520,124.808 175.400 C 124.528 176.280,124.067 177.270,123.783 177.600 C 123.500 177.930,122.973 179.370,122.613 180.800 C 122.253 182.230,121.681 184.002,121.342 184.738 C 120.381 186.825,119.815 196.103,120.277 202.194 L 120.667 207.350 122.200 208.675 C 126.574 212.456,130.751 208.928,128.749 203.143 C 126.841 197.630,127.906 184.592,130.851 177.400 C 132.249 173.986,134.453 169.654,135.040 169.167 C 135.348 168.911,135.600 168.479,135.600 168.206 C 135.600 167.428,139.488 162.706,144.312 157.625 C 147.611 154.151,146.803 151.430,143.146 153.698 M195.800 157.983 C 194.920 158.169,193.480 158.593,192.600 158.925 C 191.573 159.312,190.836 159.393,190.542 159.150 C 189.649 158.413,186.043 158.238,185.294 158.896 C 184.912 159.231,184.150 159.638,183.600 159.801 C 182.637 160.085,181.945 160.478,177.265 163.400 C 174.888 164.885,174.847 164.919,171.200 168.563 C 167.687 172.072,167.012 172.835,166.408 173.975 C 166.124 174.511,165.565 175.300,165.166 175.729 C 164.767 176.157,164.329 177.011,164.194 177.626 C 164.059 178.241,163.691 178.959,163.376 179.220 C 163.060 179.482,162.546 180.559,162.233 181.613 C 161.920 182.668,161.391 183.952,161.058 184.466 C 160.444 185.413,159.427 190.237,158.737 195.470 C 158.478 197.432,158.501 199.204,158.810 201.070 C 159.058 202.572,159.354 204.733,159.466 205.873 L 159.671 207.947 158.135 208.365 C 155.006 209.218,147.307 211.267,144.400 212.020 C 142.750 212.448,140.770 213.057,140.000 213.374 C 139.230 213.690,137.700 214.067,136.600 214.211 C 135.500 214.354,133.790 214.808,132.800 215.220 C 131.810 215.631,129.850 216.167,128.443 216.412 C 127.037 216.656,125.507 217.099,125.043 217.397 C 124.580 217.695,123.210 218.120,122.000 218.341 C 120.790 218.563,116.920 219.591,113.400 220.625 C 109.880 221.660,106.100 222.730,105.000 223.004 C 103.900 223.278,101.881 223.884,100.513 224.351 C 99.145 224.818,97.248 225.200,96.299 225.200 C 94.817 225.200,94.475 225.365,93.886 226.362 C 92.757 228.273,93.431 228.349,97.185 226.737 C 98.167 226.315,100.507 225.619,102.385 225.190 C 104.263 224.762,107.690 223.863,110.000 223.192 C 116.012 221.448,120.865 220.085,125.000 218.981 C 126.980 218.452,130.490 217.478,132.800 216.815 C 135.110 216.153,140.240 214.719,144.200 213.628 C 148.160 212.537,152.930 211.176,154.800 210.604 C 162.034 208.392,162.611 208.456,163.546 211.576 C 163.819 212.488,164.592 214.261,165.264 215.517 C 165.937 216.772,166.770 218.340,167.117 219.000 C 167.463 219.660,167.954 220.380,168.206 220.600 C 168.459 220.820,169.310 221.904,170.099 223.008 C 171.936 225.580,177.716 230.800,178.728 230.800 C 178.934 230.800,179.334 231.079,179.617 231.420 C 180.340 232.291,185.206 234.578,189.000 235.829 C 191.844 236.766,193.063 236.913,199.961 237.142 L 207.722 237.400 209.763 236.353 C 210.886 235.778,212.433 235.179,213.202 235.023 C 215.439 234.570,220.637 231.836,224.541 229.060 C 225.943 228.063,230.030 224.042,230.904 222.800 C 231.291 222.250,232.221 220.990,232.970 220.000 C 234.662 217.767,236.582 213.969,237.199 211.636 C 237.455 210.666,237.966 209.414,238.333 208.853 C 238.914 207.965,239.005 206.359,239.040 196.417 L 239.080 185.000 237.571 181.726 C 232.971 171.748,225.637 164.715,215.215 160.290 C 210.674 158.361,200.007 157.094,195.800 157.983 M205.200 168.995 C 207.704 169.311,213.033 171.120,214.760 172.240 C 225.331 179.097,230.000 187.011,230.000 198.074 C 230.000 226.612,193.892 238.226,176.754 215.200 C 163.654 197.599,175.525 170.936,197.400 168.830 C 200.558 168.526,201.664 168.549,205.200 168.995 M200.000 186.710 C 187.738 188.354,185.716 204.399,197.220 208.771 C 205.921 212.078,215.345 201.924,211.122 193.792 C 208.830 189.377,203.834 186.196,200.000 186.710 M273.765 194.947 C 273.650 195.247,273.925 196.546,274.378 197.833 C 275.507 201.046,275.623 214.319,274.532 215.411 C 273.723 216.220,273.165 222.716,273.945 222.234 C 274.195 222.079,274.400 221.716,274.400 221.427 C 274.400 221.139,274.832 219.574,275.359 217.951 C 277.154 212.430,277.688 197.208,276.173 194.756 C 275.827 194.196,273.998 194.340,273.765 194.947 M284.260 194.703 C 284.070 195.010,284.400 196.869,285.164 199.800 C 285.393 200.680,285.585 203.500,285.590 206.067 C 285.600 210.964,285.841 212.494,286.450 211.534 C 286.944 210.754,286.879 197.461,286.375 196.134 C 285.823 194.683,284.729 193.943,284.260 194.703 M284.268 216.200 C 284.085 217.740,283.864 219.270,283.777 219.600 C 283.690 219.930,283.784 220.465,283.988 220.789 C 284.611 221.783,284.847 220.485,284.717 216.767 L 284.600 213.400 284.268 216.200 M271.827 223.633 C 271.426 224.778,271.411 226.203,271.800 226.320 C 272.328 226.479,272.850 223.906,272.386 223.433 C 272.169 223.212,271.947 223.291,271.827 223.633 M282.300 223.429 C 282.135 223.596,282.005 224.558,282.012 225.567 C 282.022 227.018,282.110 227.253,282.436 226.693 C 282.895 225.905,282.772 222.950,282.300 223.429 M269.693 229.200 C 269.693 229.970,269.775 230.285,269.876 229.900 C 269.976 229.515,269.976 228.885,269.876 228.500 C 269.775 228.115,269.693 228.430,269.693 229.200 " stroke="none" fill="#8324db" fill-rule="evenodd"></path><path id="path1" d="M378.087 55.636 C 378.195 55.946,378.579 56.147,378.941 56.082 C 379.310 56.017,379.600 56.227,379.600 56.559 C 379.600 56.886,379.754 57.248,379.942 57.364 C 380.130 57.481,380.199 57.131,380.096 56.588 C 379.992 56.045,379.762 55.600,379.586 55.600 C 379.410 55.600,378.956 55.481,378.578 55.336 C 378.094 55.150,377.949 55.239,378.087 55.636 M19.003 58.655 C 18.311 59.346,18.476 62.086,19.269 63.069 C 19.533 63.397,19.368 63.591,18.723 63.715 C 17.918 63.869,17.943 63.898,18.921 63.946 L 20.042 64.000 19.963 61.000 C 19.874 57.664,19.909 57.748,19.003 58.655 M380.290 61.900 C 380.153 63.118,380.242 63.905,380.538 64.094 C 381.426 64.659,381.662 64.390,381.408 63.100 C 381.217 62.133,381.259 61.954,381.570 62.400 C 382.152 63.236,382.166 61.858,381.586 60.774 C 380.918 59.525,380.519 59.871,380.290 61.900 M16.548 69.513 C 16.300 69.671,16.010 70.700,15.905 71.800 C 15.799 72.900,15.790 73.485,15.884 73.100 C 15.989 72.672,16.434 72.400,17.028 72.400 C 17.875 72.400,18.000 72.217,18.000 70.976 C 18.000 70.193,17.835 69.655,17.634 69.779 C 17.433 69.903,17.208 69.830,17.134 69.615 C 17.060 69.401,16.797 69.355,16.548 69.513 M384.000 70.525 C 384.000 71.033,383.657 71.817,383.238 72.267 C 381.815 73.795,381.934 78.000,383.400 78.000 L 384.400 78.000 384.400 73.800 C 384.400 71.490,384.310 69.600,384.200 69.600 C 384.090 69.600,384.000 70.016,384.000 70.525 M13.731 80.600 C 13.733 82.140,13.805 82.721,13.892 81.891 C 13.979 81.061,13.977 79.801,13.889 79.091 C 13.800 78.381,13.729 79.060,13.731 80.600 M191.000 81.456 C 189.900 81.546,187.920 81.870,186.600 82.178 C 185.280 82.485,182.580 82.846,180.600 82.979 C 178.620 83.113,175.560 83.648,173.800 84.169 C 172.040 84.691,169.520 85.390,168.200 85.724 C 163.849 86.825,160.415 87.890,159.904 88.296 C 159.627 88.516,158.681 88.928,157.802 89.211 C 156.923 89.495,155.411 90.148,154.442 90.663 C 153.474 91.179,152.372 91.600,151.994 91.600 C 151.617 91.600,150.879 91.931,150.354 92.336 C 149.829 92.741,148.807 93.274,148.081 93.522 C 147.356 93.769,146.297 94.338,145.727 94.786 C 145.158 95.234,144.370 95.600,143.977 95.600 C 143.583 95.600,142.753 96.012,142.131 96.516 C 141.509 97.019,140.550 97.652,140.000 97.922 C 138.347 98.733,131.748 103.216,128.400 105.802 C 127.410 106.567,126.157 107.509,125.617 107.896 C 123.885 109.135,121.106 111.667,116.957 115.786 C 111.944 120.763,110.615 122.319,106.007 128.600 C 104.716 130.360,103.328 132.250,102.921 132.800 C 102.515 133.350,101.931 134.295,101.624 134.900 C 101.316 135.505,100.937 136.000,100.781 136.000 C 100.625 136.000,100.266 136.585,99.984 137.300 C 99.701 138.015,99.148 138.962,98.754 139.405 C 98.360 139.848,97.762 140.871,97.425 141.678 C 97.088 142.485,96.643 143.250,96.435 143.378 C 96.228 143.506,95.843 144.284,95.580 145.106 C 95.317 145.928,94.783 146.960,94.394 147.400 C 94.005 147.840,93.557 148.830,93.399 149.600 C 93.240 150.370,92.849 151.297,92.530 151.660 C 92.210 152.023,91.717 153.193,91.433 154.260 C 91.150 155.327,90.531 156.917,90.059 157.794 C 89.586 158.671,89.198 159.751,89.196 160.194 C 89.194 160.637,88.744 161.963,88.196 163.140 C 87.648 164.317,87.200 165.598,87.200 165.988 C 87.200 166.377,86.844 167.812,86.408 169.176 C 85.972 170.539,85.424 173.198,85.190 175.084 C 84.955 176.970,84.479 179.163,84.131 179.957 C 82.608 183.433,82.546 212.136,84.051 217.332 C 84.486 218.834,85.001 221.454,85.195 223.154 C 85.389 224.854,85.906 227.314,86.344 228.622 C 86.782 229.930,87.262 231.630,87.410 232.400 C 87.558 233.170,87.924 234.188,88.224 234.663 C 88.524 235.137,88.979 236.397,89.234 237.463 C 89.489 238.528,90.017 239.963,90.407 240.651 C 90.796 241.338,91.244 242.508,91.402 243.251 C 91.560 243.993,91.934 244.879,92.234 245.220 C 92.534 245.561,93.058 246.632,93.400 247.600 C 93.742 248.568,94.261 249.639,94.554 249.980 C 94.847 250.321,95.286 251.193,95.529 251.919 C 95.772 252.644,96.338 253.703,96.786 254.273 C 97.234 254.842,97.600 255.619,97.600 255.999 C 97.600 256.379,98.140 257.369,98.800 258.200 C 99.460 259.031,100.000 259.946,100.000 260.235 C 100.000 260.524,100.246 260.904,100.546 261.080 C 100.846 261.256,101.394 261.940,101.763 262.600 C 102.467 263.859,103.918 265.984,105.101 267.490 C 105.485 267.979,106.340 269.116,107.000 270.016 C 108.519 272.086,112.291 276.730,113.375 277.862 C 113.829 278.337,114.407 278.967,114.660 279.262 C 115.522 280.271,121.544 286.000,121.742 286.000 C 121.850 286.000,122.537 286.555,123.269 287.234 C 125.243 289.065,125.582 289.335,128.200 291.159 C 129.520 292.079,131.410 293.452,132.400 294.209 C 133.390 294.966,134.830 295.955,135.600 296.407 C 136.370 296.858,137.810 297.760,138.800 298.412 C 139.790 299.064,141.230 299.888,142.000 300.242 C 142.770 300.596,143.536 301.123,143.703 301.413 C 143.870 301.703,144.680 302.156,145.503 302.421 C 146.326 302.685,147.285 303.149,147.633 303.452 C 147.982 303.756,149.175 304.273,150.286 304.603 C 151.396 304.933,152.524 305.467,152.792 305.791 C 153.061 306.114,153.937 306.495,154.740 306.638 C 155.543 306.781,156.740 307.216,157.400 307.605 C 158.060 307.994,159.533 308.508,160.674 308.747 C 161.815 308.985,163.345 309.544,164.074 309.989 C 164.803 310.433,165.894 310.798,166.498 310.799 C 167.103 310.799,168.654 311.166,169.945 311.613 C 171.237 312.060,173.893 312.685,175.847 313.002 C 177.801 313.319,180.210 313.774,181.200 314.013 C 183.705 314.617,214.789 315.012,217.400 314.473 C 218.500 314.246,220.930 313.766,222.800 313.407 C 224.670 313.047,227.190 312.479,228.400 312.144 C 229.610 311.809,231.823 311.205,233.317 310.802 C 234.812 310.399,236.254 309.887,236.523 309.664 C 236.791 309.441,237.908 309.051,239.005 308.797 C 240.102 308.543,241.630 308.013,242.400 307.619 C 243.170 307.225,244.326 306.779,244.968 306.627 C 245.611 306.475,246.580 306.002,247.122 305.575 C 247.664 305.149,248.328 304.800,248.598 304.800 C 248.867 304.800,250.099 304.260,251.336 303.600 C 252.573 302.940,253.741 302.400,253.933 302.400 C 254.658 302.400,265.767 295.303,269.253 292.613 C 269.832 292.166,270.893 291.350,271.610 290.800 C 272.328 290.250,273.210 289.530,273.571 289.200 C 273.931 288.870,274.940 288.063,275.813 287.407 C 280.483 283.895,288.200 275.424,293.921 267.527 C 296.991 263.290,300.275 258.223,300.586 257.245 C 300.733 256.780,301.007 256.400,301.194 256.400 C 301.381 256.400,301.842 255.593,302.219 254.606 C 302.596 253.619,303.150 252.608,303.449 252.359 C 303.749 252.110,304.192 251.163,304.433 250.253 C 304.674 249.344,305.199 248.240,305.600 247.800 C 306.001 247.360,306.520 246.280,306.754 245.400 C 306.989 244.520,307.427 243.440,307.728 243.000 C 308.029 242.560,308.497 241.302,308.767 240.205 C 309.038 239.108,309.414 238.024,309.603 237.796 C 309.792 237.569,310.302 236.101,310.736 234.535 C 311.170 232.970,311.723 231.318,311.965 230.866 C 312.207 230.413,312.659 228.728,312.969 227.121 C 313.279 225.515,313.745 223.660,314.003 223.000 C 314.262 222.340,314.641 219.912,314.845 217.605 C 315.050 215.298,315.573 211.360,316.009 208.853 C 317.040 202.915,317.043 196.092,316.018 189.800 C 315.587 187.160,315.059 182.840,314.843 180.200 C 314.472 175.648,313.436 170.378,312.132 166.400 C 311.808 165.410,311.191 163.372,310.761 161.871 C 310.331 160.369,309.732 158.749,309.429 158.271 C 309.126 157.792,308.751 156.770,308.596 156.000 C 308.441 155.230,307.993 154.060,307.600 153.400 C 307.207 152.740,306.763 151.617,306.612 150.905 C 306.462 150.192,306.168 149.504,305.959 149.374 C 305.571 149.135,302.400 142.754,302.400 142.213 C 302.400 142.049,301.995 141.417,301.500 140.808 C 301.005 140.199,300.240 139.098,299.800 138.361 C 299.360 137.625,298.607 136.387,298.128 135.611 C 297.648 134.835,296.945 133.660,296.566 133.000 C 295.894 131.831,293.909 129.167,292.897 128.079 C 292.621 127.781,292.188 127.147,291.935 126.669 C 291.682 126.191,291.099 125.380,290.638 124.866 C 289.485 123.581,288.122 122.013,286.000 119.533 C 284.147 117.367,279.705 112.967,277.589 111.200 C 276.930 110.650,275.879 109.750,275.253 109.200 C 274.627 108.650,273.594 107.793,272.958 107.295 C 272.321 106.797,271.062 105.807,270.161 105.095 C 269.260 104.383,267.754 103.350,266.815 102.800 C 265.876 102.250,264.778 101.495,264.375 101.121 C 263.972 100.748,263.048 100.138,262.321 99.765 C 261.595 99.393,260.881 98.903,260.735 98.677 C 260.469 98.264,258.767 97.323,254.951 95.479 C 253.824 94.935,252.779 94.289,252.628 94.045 C 252.476 93.800,252.048 93.599,251.676 93.599 C 251.304 93.598,250.370 93.203,249.600 92.721 C 248.273 91.891,247.040 91.372,242.056 89.546 C 240.877 89.114,239.527 88.522,239.056 88.230 C 238.585 87.939,237.300 87.490,236.200 87.233 C 235.100 86.975,233.653 86.512,232.984 86.204 C 232.315 85.895,230.538 85.446,229.034 85.205 C 227.530 84.965,225.749 84.484,225.077 84.136 C 224.364 83.768,221.595 83.282,218.427 82.972 C 215.442 82.679,212.370 82.233,211.600 81.981 C 210.203 81.523,194.956 81.135,191.000 81.456 M207.525 82.574 C 208.419 82.889,212.440 83.434,216.461 83.784 C 221.358 84.210,224.073 84.618,224.687 85.020 C 225.190 85.350,226.951 85.791,228.600 86.000 C 230.249 86.209,232.004 86.646,232.501 86.972 C 232.998 87.297,234.546 87.830,235.941 88.156 C 237.337 88.481,238.776 89.014,239.139 89.340 C 239.503 89.666,240.520 90.060,241.400 90.217 C 242.280 90.373,243.270 90.731,243.600 91.011 C 243.930 91.292,245.010 91.753,246.000 92.037 C 246.990 92.321,248.427 92.968,249.193 93.476 C 249.959 93.984,250.890 94.400,251.262 94.400 C 251.634 94.400,252.447 94.823,253.069 95.339 C 253.691 95.856,254.740 96.409,255.400 96.569 C 256.060 96.729,256.960 97.185,257.400 97.584 C 257.840 97.982,258.605 98.431,259.100 98.581 C 259.595 98.731,260.000 99.019,260.000 99.220 C 260.000 99.422,260.878 100.031,261.950 100.575 C 263.023 101.118,264.007 101.841,264.138 102.181 C 264.268 102.522,264.732 102.800,265.168 102.800 C 265.604 102.800,266.104 103.046,266.280 103.346 C 266.456 103.646,267.140 104.169,267.800 104.508 C 268.460 104.847,269.436 105.591,269.970 106.162 C 270.503 106.733,271.135 107.200,271.374 107.200 C 271.612 107.200,272.032 107.560,272.307 108.000 C 272.582 108.440,273.071 108.800,273.394 108.800 C 273.717 108.800,274.276 109.250,274.637 109.800 C 274.997 110.350,275.468 110.800,275.684 110.800 C 276.176 110.800,284.823 119.461,287.218 122.352 C 288.198 123.536,289.398 124.976,289.884 125.552 C 291.902 127.946,292.723 129.069,293.354 130.300 C 293.721 131.015,294.194 131.600,294.405 131.600 C 294.616 131.600,295.054 132.233,295.377 133.006 C 295.700 133.779,296.226 134.512,296.546 134.635 C 296.866 134.757,297.246 135.328,297.390 135.902 C 297.534 136.476,298.090 137.467,298.626 138.104 C 299.162 138.740,299.600 139.447,299.600 139.673 C 299.600 139.899,300.050 140.619,300.600 141.273 C 301.150 141.927,301.600 142.693,301.600 142.977 C 301.600 143.260,301.934 143.921,302.342 144.446 C 302.750 144.971,303.315 146.110,303.598 146.977 C 303.882 147.845,304.408 148.871,304.769 149.258 C 305.129 149.645,305.638 150.762,305.899 151.740 C 306.161 152.718,306.623 153.766,306.926 154.069 C 307.229 154.372,307.708 155.605,307.989 156.810 C 308.271 158.014,308.726 159.270,309.000 159.600 C 309.274 159.930,309.619 160.920,309.766 161.800 C 309.913 162.680,310.365 164.300,310.771 165.400 C 311.176 166.500,311.826 169.198,312.214 171.396 C 312.603 173.593,313.172 175.993,313.480 176.729 C 313.838 177.587,313.997 179.166,313.923 181.133 C 313.652 188.331,313.960 193.160,314.738 193.938 C 315.892 195.092,316.226 202.533,315.198 204.200 C 314.581 205.202,314.414 206.621,314.185 212.800 C 313.970 218.599,313.770 220.416,313.262 221.200 C 312.398 222.534,311.639 225.416,311.618 227.451 C 311.608 228.386,311.348 229.311,311.020 229.583 C 310.701 229.848,310.143 231.401,309.780 233.034 C 309.416 234.667,308.975 236.092,308.800 236.200 C 308.624 236.309,308.260 237.343,307.991 238.499 C 307.722 239.654,307.181 241.140,306.788 241.800 C 306.395 242.460,305.877 243.737,305.638 244.637 C 305.399 245.537,304.856 246.674,304.432 247.163 C 304.008 247.651,303.540 248.772,303.391 249.654 C 303.242 250.535,302.877 251.349,302.579 251.463 C 302.282 251.577,301.824 252.330,301.561 253.135 C 301.299 253.941,300.660 255.109,300.142 255.731 C 299.624 256.353,299.200 257.047,299.200 257.273 C 299.200 257.499,298.750 258.219,298.200 258.873 C 297.650 259.527,297.200 260.408,297.200 260.831 C 297.200 261.254,297.022 261.600,296.805 261.600 C 296.425 261.600,295.164 263.313,293.335 266.311 C 292.860 267.091,292.185 267.889,291.835 268.084 C 291.486 268.280,291.200 268.618,291.200 268.835 C 291.200 269.187,287.683 273.643,285.300 276.310 C 284.805 276.864,284.400 277.561,284.400 277.858 C 284.400 278.156,284.126 278.400,283.791 278.400 C 283.457 278.400,282.985 278.835,282.743 279.366 C 282.501 279.897,281.951 280.424,281.522 280.536 C 281.092 280.649,280.649 281.092,280.536 281.522 C 280.424 281.951,279.897 282.501,279.366 282.743 C 278.835 282.985,278.400 283.445,278.400 283.764 C 278.400 284.084,278.085 284.448,277.700 284.573 C 277.315 284.699,275.924 285.791,274.608 287.000 C 273.293 288.210,272.104 289.200,271.967 289.200 C 271.831 289.200,271.160 289.695,270.476 290.300 C 267.970 292.520,267.063 293.200,266.611 293.200 C 266.357 293.200,265.632 293.740,265.000 294.400 C 264.368 295.060,263.616 295.600,263.329 295.600 C 263.042 295.600,262.582 295.960,262.307 296.400 C 262.032 296.840,261.505 297.200,261.134 297.200 C 260.764 297.200,259.951 297.629,259.327 298.154 C 258.704 298.679,257.520 299.390,256.697 299.734 C 255.873 300.078,255.200 300.534,255.200 300.748 C 255.200 300.962,254.668 301.253,254.019 301.396 C 253.369 301.539,252.421 301.983,251.912 302.383 C 251.404 302.783,250.318 303.295,249.500 303.521 C 248.682 303.747,247.535 304.307,246.952 304.766 C 246.369 305.225,245.592 305.600,245.225 305.600 C 244.857 305.600,243.667 306.032,242.579 306.559 C 241.490 307.086,239.610 307.744,238.400 308.020 C 237.190 308.296,235.840 308.744,235.400 309.016 C 234.960 309.288,233.880 309.631,233.000 309.779 C 231.072 310.104,228.788 310.829,228.092 311.339 C 227.813 311.543,225.995 311.858,224.052 312.037 C 222.109 312.216,219.728 312.668,218.760 313.041 C 215.599 314.258,210.595 314.183,205.334 312.837 C 202.968 312.232,188.209 311.490,180.373 311.581 C 174.886 311.646,173.661 311.555,173.246 311.055 C 172.670 310.361,171.706 310.139,167.800 309.797 C 166.055 309.644,164.829 309.330,164.547 308.964 C 164.298 308.641,162.970 308.179,161.596 307.936 C 160.221 307.694,158.779 307.179,158.390 306.790 C 158.002 306.402,156.901 305.953,155.942 305.792 C 154.984 305.630,153.691 305.071,153.069 304.549 C 152.447 304.027,151.447 303.600,150.847 303.600 C 150.247 303.600,149.145 303.150,148.400 302.600 C 147.655 302.050,146.744 301.600,146.376 301.600 C 146.009 301.600,145.201 301.201,144.581 300.713 C 143.420 299.800,142.174 299.053,139.400 297.605 C 138.520 297.145,136.990 296.144,136.000 295.380 C 135.010 294.615,133.746 293.767,133.190 293.495 C 132.635 293.223,131.825 292.677,131.390 292.282 C 129.548 290.609,127.091 288.800,126.658 288.800 C 126.402 288.800,125.968 288.440,125.693 288.000 C 125.418 287.560,124.977 287.200,124.712 287.200 C 124.447 287.200,123.773 286.737,123.215 286.172 C 122.657 285.606,120.490 283.475,118.400 281.435 C 113.825 276.970,110.800 273.760,110.800 273.371 C 110.800 273.213,110.423 272.705,109.963 272.242 C 108.797 271.069,104.800 265.675,104.800 265.274 C 104.800 265.093,104.350 264.553,103.800 264.075 C 103.250 263.597,102.795 262.979,102.789 262.703 C 102.783 262.426,102.243 261.493,101.589 260.629 C 100.935 259.765,100.400 258.826,100.400 258.543 C 100.400 258.260,100.055 257.843,99.633 257.617 C 99.210 257.391,98.741 256.620,98.589 255.903 C 98.438 255.186,97.989 254.240,97.593 253.800 C 97.196 253.360,96.673 252.254,96.431 251.341 C 96.189 250.429,95.728 249.581,95.406 249.457 C 95.083 249.334,94.615 248.421,94.365 247.428 C 94.116 246.436,93.659 245.415,93.352 245.160 C 93.044 244.904,92.498 243.684,92.139 242.448 C 91.780 241.211,91.264 239.840,90.992 239.400 C 90.720 238.960,90.397 238.060,90.275 237.400 C 90.152 236.740,89.737 235.480,89.352 234.600 C 88.967 233.720,88.345 231.920,87.970 230.600 C 87.595 229.280,87.006 227.480,86.662 226.600 C 86.317 225.720,86.027 224.080,86.018 222.955 C 85.995 220.337,85.360 216.962,84.577 215.302 C 83.587 213.204,83.896 183.545,84.927 181.707 C 85.392 180.877,85.768 179.016,85.978 176.507 C 86.165 174.261,86.584 172.063,86.963 171.336 C 87.325 170.642,87.768 168.860,87.947 167.378 C 88.164 165.572,88.498 164.517,88.961 164.179 C 89.400 163.858,89.780 162.758,90.008 161.145 C 90.219 159.653,90.623 158.426,90.994 158.155 C 91.339 157.902,91.841 156.639,92.108 155.348 C 92.374 154.057,92.915 152.730,93.309 152.400 C 93.702 152.070,94.137 151.080,94.275 150.200 C 94.417 149.290,94.929 148.220,95.462 147.719 C 95.978 147.235,96.400 146.393,96.400 145.850 C 96.400 145.306,96.838 144.340,97.374 143.704 C 97.910 143.067,98.473 142.049,98.625 141.441 C 98.778 140.833,99.136 140.246,99.420 140.137 C 99.705 140.028,100.203 139.277,100.526 138.469 C 100.850 137.661,101.494 136.657,101.957 136.238 C 102.421 135.819,102.800 135.150,102.800 134.752 C 102.800 134.354,103.160 133.835,103.600 133.600 C 104.040 133.365,104.402 132.953,104.404 132.686 C 104.407 132.241,106.028 129.980,108.003 127.666 C 108.441 127.152,108.800 126.486,108.800 126.186 C 108.800 125.886,109.066 125.491,109.391 125.309 C 109.717 125.127,111.300 123.453,112.910 121.589 C 116.326 117.635,119.962 113.886,120.886 113.365 C 121.449 113.048,124.914 109.978,127.414 107.581 C 127.862 107.151,128.418 106.800,128.651 106.800 C 128.883 106.800,129.507 106.440,130.037 105.999 C 133.119 103.436,133.887 102.881,134.700 102.627 C 135.196 102.472,135.787 101.998,136.014 101.573 C 136.242 101.148,136.667 100.800,136.959 100.800 C 137.251 100.800,138.169 100.260,139.000 99.600 C 139.831 98.940,140.748 98.400,141.039 98.400 C 141.331 98.400,141.891 98.065,142.284 97.656 C 142.678 97.247,143.540 96.785,144.200 96.628 C 144.860 96.471,145.850 95.936,146.400 95.439 C 146.950 94.941,148.146 94.322,149.059 94.063 C 149.971 93.805,150.813 93.342,150.931 93.036 C 151.048 92.730,151.872 92.357,152.760 92.207 C 153.649 92.057,154.796 91.603,155.309 91.200 C 155.823 90.796,156.910 90.341,157.725 90.188 C 158.540 90.035,159.620 89.585,160.125 89.188 C 160.630 88.791,161.753 88.341,162.621 88.189 C 163.490 88.036,164.822 87.555,165.583 87.120 C 166.397 86.655,168.209 86.204,169.987 86.024 C 171.648 85.857,173.623 85.402,174.375 85.013 C 175.369 84.499,177.662 84.159,182.771 83.770 C 189.694 83.243,193.398 82.736,193.885 82.248 C 194.416 81.718,205.874 81.991,207.525 82.574 M13.720 87.000 C 13.705 88.980,13.783 90.240,13.893 89.800 C 14.003 89.360,14.297 88.865,14.546 88.700 C 14.881 88.478,14.876 88.319,14.524 88.091 C 14.262 87.921,13.981 86.796,13.898 85.591 C 13.804 84.213,13.738 84.735,13.720 87.000 M166.000 89.528 C 165.670 89.678,164.950 90.094,164.400 90.453 C 163.850 90.812,162.598 91.225,161.618 91.371 C 160.639 91.516,159.289 91.968,158.618 92.375 C 157.948 92.781,156.817 93.237,156.105 93.388 C 155.392 93.538,154.701 93.837,154.568 94.052 C 154.435 94.267,153.376 94.863,152.214 95.377 C 151.053 95.890,149.979 96.511,149.828 96.755 C 149.676 97.000,149.138 97.200,148.631 97.200 C 148.125 97.200,147.031 97.740,146.200 98.400 C 145.369 99.060,144.379 99.600,144.000 99.600 C 143.621 99.600,142.631 100.140,141.800 100.800 C 140.969 101.460,140.039 102.000,139.732 102.000 C 139.426 102.000,139.078 102.254,138.959 102.564 C 138.839 102.874,138.298 103.239,137.755 103.375 C 137.213 103.512,136.209 104.158,135.525 104.812 C 134.841 105.465,134.104 106.000,133.887 106.000 C 133.669 106.000,133.087 106.405,132.593 106.900 C 132.099 107.395,130.819 108.426,129.748 109.192 C 128.676 109.958,127.440 110.900,127.000 111.285 C 124.276 113.670,123.355 114.486,123.000 114.832 C 122.780 115.047,122.356 115.442,122.057 115.711 C 121.759 115.980,120.859 116.901,120.057 117.757 C 119.256 118.613,117.610 120.355,116.400 121.627 C 115.190 122.899,113.535 124.718,112.722 125.670 C 111.909 126.621,110.874 127.833,110.422 128.361 C 109.970 128.890,109.600 129.565,109.600 129.861 C 109.600 130.158,109.417 130.400,109.194 130.400 C 108.970 130.400,108.487 131.030,108.119 131.800 C 107.752 132.570,107.330 133.200,107.182 133.200 C 106.889 133.200,103.600 138.147,103.600 138.587 C 103.600 138.733,103.150 139.443,102.600 140.164 C 102.050 140.886,101.600 141.747,101.600 142.079 C 101.600 142.411,101.166 143.151,100.636 143.724 C 100.105 144.296,99.555 145.294,99.413 145.941 C 99.271 146.588,98.815 147.424,98.400 147.800 C 97.985 148.176,97.525 149.049,97.378 149.741 C 97.231 150.434,96.862 151.283,96.559 151.628 C 96.255 151.973,95.665 153.233,95.247 154.428 C 94.076 157.776,92.841 160.897,92.249 162.000 C 91.954 162.550,91.493 164.154,91.224 165.564 C 90.955 166.974,90.480 168.517,90.168 168.992 C 89.857 169.467,89.408 171.374,89.172 173.228 C 88.935 175.083,88.476 177.184,88.153 177.898 C 86.108 182.409,86.125 213.011,88.175 218.256 C 88.507 219.105,88.951 221.237,89.162 222.994 C 89.702 227.490,92.166 229.275,93.864 226.400 C 94.477 225.362,94.805 225.200,96.299 225.200 C 97.248 225.200,99.145 224.818,100.513 224.351 C 101.881 223.884,103.900 223.278,105.000 223.004 C 106.100 222.730,109.880 221.660,113.400 220.625 C 116.920 219.591,120.790 218.563,122.000 218.341 C 123.210 218.120,124.580 217.695,125.043 217.397 C 125.507 217.099,127.037 216.656,128.443 216.412 C 129.850 216.167,131.810 215.631,132.800 215.220 C 133.790 214.808,135.500 214.354,136.600 214.211 C 137.700 214.067,139.230 213.690,140.000 213.374 C 140.770 213.057,142.750 212.448,144.400 212.020 C 147.307 211.267,155.006 209.218,158.135 208.365 L 159.671 207.947 159.466 205.873 C 159.354 204.733,159.058 202.572,158.810 201.070 C 158.501 199.204,158.478 197.432,158.737 195.470 C 159.427 190.237,160.444 185.413,161.058 184.466 C 161.391 183.952,161.920 182.668,162.233 181.613 C 162.546 180.559,163.060 179.482,163.376 179.220 C 163.691 178.959,164.059 178.241,164.194 177.626 C 164.329 177.011,164.767 176.157,165.166 175.729 C 165.565 175.300,166.124 174.511,166.408 173.975 C 167.012 172.835,167.687 172.072,171.200 168.563 C 174.847 164.919,174.888 164.885,177.265 163.400 C 178.439 162.667,180.121 161.617,181.003 161.066 C 181.884 160.515,183.092 159.942,183.686 159.793 C 184.281 159.644,184.977 159.269,185.233 158.961 C 185.489 158.652,186.396 158.400,187.249 158.400 C 189.110 158.400,189.098 158.578,187.586 153.487 C 186.918 151.239,186.102 148.230,185.772 146.800 C 185.442 145.370,184.804 143.030,184.353 141.600 C 182.121 134.517,181.541 132.525,179.987 126.600 C 179.063 123.080,177.906 118.760,177.414 117.000 C 176.332 113.122,175.475 109.890,174.128 104.600 C 172.827 99.493,170.861 92.526,170.314 91.085 C 169.677 89.408,167.778 88.723,166.000 89.528 M385.611 93.238 C 385.897 94.235,385.843 94.406,385.275 94.312 C 384.464 94.177,384.110 96.370,384.763 97.491 C 385.065 98.009,385.179 98.045,385.188 97.624 C 385.197 97.208,385.364 97.264,385.787 97.824 C 386.320 98.528,386.376 98.318,386.387 95.543 C 386.397 93.271,386.255 92.430,385.835 92.269 C 385.384 92.096,385.339 92.291,385.611 93.238 M141.041 146.163 C 141.351 146.969,139.702 149.345,136.436 152.800 C 130.287 159.305,128.320 161.794,124.896 167.400 C 123.984 168.895,121.925 173.392,121.163 175.556 C 120.746 176.743,120.233 177.919,120.024 178.171 C 119.815 178.423,119.451 180.178,119.216 182.070 C 118.981 183.962,118.523 186.386,118.199 187.455 C 117.246 190.596,117.374 200.596,118.400 203.200 C 120.957 209.688,114.716 213.993,111.541 207.930 C 110.502 205.947,109.942 193.320,110.719 189.400 C 111.972 183.082,112.854 179.456,113.392 178.416 C 113.726 177.769,114.000 176.950,114.000 176.595 C 114.000 175.815,115.752 171.835,117.870 167.800 C 118.899 165.841,121.104 162.578,121.775 162.021 C 122.119 161.735,122.400 161.332,122.400 161.124 C 122.400 159.805,132.465 149.516,135.974 147.248 C 138.581 145.563,140.642 145.122,141.041 146.163 M146.312 154.200 C 146.404 155.177,146.031 155.814,144.312 157.625 C 139.488 162.706,135.600 167.428,135.600 168.206 C 135.600 168.479,135.348 168.911,135.040 169.167 C 134.453 169.654,132.249 173.986,130.851 177.400 C 127.906 184.592,126.841 197.630,128.749 203.143 C 130.751 208.928,126.574 212.456,122.200 208.675 L 120.667 207.350 120.277 202.194 C 119.815 196.103,120.381 186.825,121.342 184.738 C 121.681 184.002,122.253 182.230,122.613 180.800 C 122.973 179.370,123.500 177.930,123.783 177.600 C 124.067 177.270,124.528 176.280,124.808 175.400 C 125.087 174.520,125.650 173.371,126.058 172.846 C 126.466 172.321,126.800 171.678,126.800 171.417 C 126.800 171.156,127.335 170.235,127.989 169.371 C 128.643 168.507,129.183 167.642,129.189 167.449 C 129.223 166.374,137.527 157.434,140.146 155.652 C 144.943 152.389,146.117 152.113,146.312 154.200 M385.287 294.730 C 384.036 294.907,384.049 303.444,385.300 303.344 C 385.685 303.314,386.000 303.315,386.000 303.347 C 386.000 303.379,385.833 303.987,385.629 304.697 C 385.379 305.571,385.399 306.076,385.691 306.256 C 385.936 306.408,386.009 306.338,385.859 306.096 C 385.714 305.861,385.781 305.606,386.009 305.530 C 387.006 305.198,386.296 294.586,385.287 294.730 M386.120 309.600 C 386.120 310.810,386.195 311.305,386.287 310.700 C 386.378 310.095,386.378 309.105,386.287 308.500 C 386.195 307.895,386.120 308.390,386.120 309.600 M11.625 313.820 C 11.595 314.790,12.312 315.605,13.180 315.588 C 13.677 315.578,13.656 315.492,13.074 315.154 C 12.675 314.922,12.192 314.342,12.000 313.866 C 11.661 313.026,11.650 313.025,11.625 313.820 M13.661 321.355 C 13.714 324.873,13.753 325.087,13.963 323.000 C 14.206 320.568,14.618 319.441,15.145 319.766 C 15.304 319.864,15.473 319.438,15.520 318.819 C 15.589 317.905,15.418 317.658,14.603 317.503 L 13.600 317.311 13.661 321.355 M382.152 322.650 C 382.007 323.227,381.992 325.166,382.118 326.959 C 382.446 331.608,382.119 333.575,380.943 334.022 C 380.048 334.362,380.000 334.565,380.000 337.999 C 380.000 341.470,379.959 341.636,379.000 342.073 C 378.450 342.323,378.000 342.690,378.000 342.888 C 378.000 343.085,378.168 343.144,378.372 343.017 C 378.577 342.891,378.864 342.981,379.011 343.217 C 379.656 344.261,380.375 342.110,380.387 339.100 C 380.399 336.330,380.480 336.000,381.157 336.000 C 382.047 336.000,382.400 335.252,382.400 333.367 C 382.400 332.292,382.562 332.000,383.157 332.000 C 384.210 332.000,384.294 331.606,384.373 326.293 L 384.442 321.600 383.429 321.600 C 382.668 321.600,382.349 321.862,382.152 322.650 M13.757 326.633 C 13.891 326.981,14.000 327.431,14.000 327.633 C 14.000 327.835,14.270 328.000,14.600 328.000 C 15.332 328.000,15.344 327.623,14.643 326.700 C 13.981 325.827,13.432 325.786,13.757 326.633 M15.819 331.905 C 15.842 335.321,15.999 335.802,17.194 336.114 C 17.955 336.313,18.000 336.137,18.000 332.963 C 18.000 329.673,17.979 329.600,17.033 329.600 C 16.502 329.600,16.006 329.419,15.932 329.197 C 15.858 328.975,15.807 330.194,15.819 331.905 M18.000 337.911 C 18.000 338.022,18.315 338.370,18.700 338.686 C 19.085 339.001,19.175 339.145,18.900 339.006 C 18.612 338.860,18.400 339.002,18.400 339.339 C 18.400 339.728,18.669 339.855,19.200 339.716 C 20.356 339.413,20.215 338.134,19.000 337.902 C 18.450 337.797,18.000 337.801,18.000 337.911 M20.074 345.297 C 20.171 346.296,20.410 346.630,21.100 346.728 C 21.892 346.840,22.000 347.088,22.000 348.800 C 22.000 350.510,22.108 350.760,22.898 350.872 C 23.627 350.976,23.862 351.366,24.150 352.951 C 24.388 354.258,24.732 354.962,25.191 355.082 C 25.641 355.199,26.002 355.906,26.239 357.131 C 26.525 358.611,26.782 359.026,27.475 359.125 C 28.021 359.202,28.398 359.579,28.475 360.125 C 28.553 360.670,28.930 361.047,29.476 361.125 C 30.089 361.212,30.389 361.572,30.476 362.325 C 30.559 363.048,30.866 363.438,31.412 363.516 C 31.859 363.580,32.399 364.030,32.612 364.516 C 32.825 365.002,33.405 365.458,33.900 365.528 C 34.551 365.620,34.800 365.924,34.800 366.628 C 34.800 367.391,35.009 367.600,35.772 367.600 C 36.476 367.600,36.780 367.849,36.872 368.500 C 36.974 369.220,37.295 369.425,38.479 369.523 C 39.574 369.614,39.900 369.795,39.736 370.223 C 39.600 370.578,39.761 370.800,40.157 370.800 C 40.511 370.800,40.800 370.980,40.800 371.200 C 40.800 371.420,41.044 371.600,41.342 371.600 C 41.639 371.600,42.368 372.049,42.960 372.598 C 43.553 373.147,44.749 373.710,45.619 373.849 C 46.761 374.032,47.200 374.296,47.200 374.801 C 47.200 375.497,48.618 376.000,50.578 376.000 C 51.061 376.000,51.847 376.450,52.325 377.000 C 53.117 377.911,53.480 378.000,56.397 378.000 C 59.350 378.000,59.600 378.063,59.600 378.813 C 59.600 379.974,60.985 380.319,65.853 380.373 C 67.958 380.396,68.336 380.514,68.516 381.200 C 68.660 381.752,69.078 382.010,69.863 382.033 C 71.766 382.088,73.393 382.430,73.526 382.802 C 73.595 382.996,73.910 383.056,74.226 382.935 C 74.542 382.814,74.800 382.914,74.800 383.157 C 74.800 383.723,77.594 383.734,79.066 383.175 C 79.855 382.875,80.225 382.875,80.325 383.175 C 80.403 383.409,80.891 383.600,81.410 383.600 C 81.928 383.600,82.464 383.780,82.600 384.000 C 82.741 384.227,84.745 384.400,87.247 384.400 C 89.667 384.400,91.558 384.544,91.450 384.719 C 90.537 386.196,92.970 386.286,135.900 386.369 C 149.689 386.396,151.600 386.474,151.600 387.010 C 151.600 388.352,153.593 388.400,208.797 388.400 C 266.780 388.400,264.692 388.458,265.264 386.828 C 265.348 386.589,273.060 386.374,285.400 386.266 C 305.386 386.091,306.928 385.999,306.546 385.003 C 306.388 384.591,307.308 384.419,310.671 384.232 C 321.233 383.645,322.197 383.542,322.520 382.969 C 322.709 382.633,323.463 382.400,324.364 382.400 C 327.543 382.400,329.699 381.909,329.900 381.138 C 330.067 380.501,330.516 380.400,333.191 380.400 C 338.272 380.400,339.972 380.049,340.250 378.945 C 340.472 378.058,340.669 378.000,343.453 378.000 C 346.250 378.000,346.442 377.943,346.800 377.000 C 347.098 376.216,347.463 375.999,348.490 375.996 C 351.231 375.986,352.800 375.532,352.800 374.748 C 352.800 374.133,353.107 374.000,354.520 374.000 C 356.374 374.000,357.200 373.475,357.200 372.296 C 357.200 371.887,357.376 371.661,357.591 371.794 C 357.805 371.927,358.480 371.765,359.091 371.434 C 359.701 371.103,359.964 370.825,359.676 370.816 C 359.388 370.807,359.259 370.628,359.389 370.417 C 359.519 370.207,359.890 370.136,360.213 370.260 C 360.536 370.384,360.800 370.286,360.800 370.043 C 360.800 369.799,361.254 369.600,361.809 369.600 C 362.496 369.600,362.962 369.282,363.273 368.600 C 363.523 368.050,364.040 367.600,364.421 367.600 C 364.817 367.600,365.216 367.191,365.353 366.644 C 365.499 366.065,365.988 365.589,366.597 365.437 C 367.208 365.283,367.600 364.900,367.600 364.457 C 367.600 364.056,368.050 363.523,368.600 363.273 C 369.150 363.022,369.600 362.496,369.600 362.103 C 369.600 361.711,370.005 361.212,370.500 360.995 C 371.118 360.724,371.510 360.074,371.752 358.921 C 372.018 357.655,372.313 357.212,372.952 357.121 C 373.541 357.037,373.839 356.665,373.927 355.900 C 373.996 355.295,374.282 354.800,374.562 354.800 C 375.263 354.800,376.000 353.047,376.000 351.381 C 376.000 350.622,376.167 350.000,376.371 350.000 C 377.175 350.000,377.997 348.679,377.946 347.471 C 377.902 346.454,377.855 346.389,377.712 347.146 C 377.613 347.667,377.192 348.182,376.776 348.290 C 376.276 348.421,375.937 348.982,375.775 349.944 C 375.377 352.309,375.176 352.800,374.605 352.800 C 374.307 352.800,373.943 353.351,373.795 354.024 C 373.647 354.697,373.003 355.784,372.363 356.438 C 371.723 357.092,371.200 357.885,371.200 358.200 C 371.200 358.514,370.840 358.965,370.400 359.200 C 369.960 359.435,369.600 359.928,369.600 360.295 C 369.600 361.239,360.556 369.600,359.535 369.600 C 359.302 369.600,358.249 370.322,357.196 371.204 C 356.142 372.085,354.506 373.080,353.560 373.414 C 352.614 373.748,351.548 374.285,351.191 374.608 C 350.834 374.932,349.682 375.314,348.631 375.458 C 347.521 375.610,346.413 376.048,345.990 376.503 C 345.471 377.060,344.437 377.376,342.410 377.599 C 340.538 377.804,339.279 378.167,338.740 378.656 C 338.090 379.245,337.059 379.443,333.786 379.605 C 330.197 379.783,329.479 379.940,328.327 380.799 C 327.078 381.730,326.647 381.797,321.000 381.929 C 315.464 382.058,314.949 382.134,314.340 382.911 C 313.470 384.023,307.766 384.405,293.243 384.325 C 283.264 384.270,282.656 384.309,282.127 385.033 C 281.618 385.731,280.799 385.825,273.084 386.080 C 268.418 386.234,259.470 386.557,253.200 386.799 C 239.694 387.321,155.511 386.979,153.000 386.393 C 152.120 386.187,144.525 386.015,136.123 386.010 C 120.855 386.000,120.845 385.999,120.231 385.123 C 119.622 384.253,119.529 384.246,109.127 384.353 C 92.392 384.524,84.455 384.101,83.418 382.981 C 82.636 382.138,82.196 382.070,76.722 381.939 C 71.116 381.806,70.817 381.757,69.800 380.800 C 68.854 379.910,68.332 379.785,65.068 379.666 C 61.802 379.548,61.300 379.427,60.484 378.566 C 59.721 377.761,59.181 377.600,57.254 377.600 C 55.334 377.600,54.787 377.438,54.045 376.648 C 53.451 376.015,52.504 375.611,51.218 375.440 C 50.154 375.299,49.095 374.955,48.863 374.676 C 48.632 374.397,47.241 373.547,45.774 372.786 C 44.306 372.026,42.667 370.998,42.132 370.502 C 41.597 370.006,40.928 369.600,40.645 369.600 C 38.996 369.600,27.045 358.028,26.600 356.000 C 26.456 355.343,26.108 354.669,25.827 354.502 C 25.171 354.114,24.400 352.644,24.400 351.784 C 24.400 351.416,23.968 350.602,23.440 349.974 C 22.863 349.289,22.372 348.049,22.209 346.867 C 21.866 344.371,19.842 342.883,20.074 345.297 " stroke="none" fill="#0a688a" fill-rule="evenodd"></path><path id="path2" d="M18.800 58.400 C 17.592 59.608,17.630 63.600,18.849 63.600 C 19.477 63.600,19.593 63.470,19.294 63.100 C 19.072 62.825,18.769 61.790,18.622 60.800 C 18.452 59.663,18.488 59.197,18.721 59.534 C 19.014 59.958,19.153 59.917,19.405 59.334 C 20.193 57.503,19.998 57.202,18.800 58.400 M380.702 59.866 C 380.979 59.977,381.086 60.261,380.941 60.496 C 380.792 60.737,380.863 60.808,381.104 60.659 C 381.339 60.514,381.623 60.621,381.734 60.898 C 381.863 61.218,381.948 61.162,381.968 60.743 C 381.997 60.155,381.177 59.548,380.467 59.632 C 380.320 59.649,380.426 59.754,380.702 59.866 M381.220 62.400 C 381.211 63.114,381.876 64.257,382.146 63.988 C 382.249 63.884,382.086 63.349,381.781 62.799 C 381.461 62.220,381.225 62.052,381.220 62.400 M15.724 69.800 C 15.726 71.120,15.801 71.612,15.890 70.893 C 15.979 70.174,15.977 69.094,15.886 68.493 C 15.795 67.892,15.722 68.480,15.724 69.800 M193.885 82.248 C 193.398 82.736,189.694 83.243,182.771 83.770 C 177.662 84.159,175.369 84.499,174.375 85.013 C 173.623 85.402,171.648 85.857,169.987 86.024 C 168.209 86.204,166.397 86.655,165.583 87.120 C 164.822 87.555,163.490 88.036,162.621 88.189 C 161.753 88.341,160.630 88.791,160.125 89.188 C 159.620 89.585,158.540 90.035,157.725 90.188 C 156.910 90.341,155.823 90.796,155.309 91.200 C 154.796 91.603,153.649 92.057,152.760 92.207 C 151.872 92.357,151.048 92.730,150.931 93.036 C 150.813 93.342,149.971 93.805,149.059 94.063 C 148.146 94.322,146.950 94.941,146.400 95.439 C 145.850 95.936,144.860 96.471,144.200 96.628 C 143.540 96.785,142.678 97.247,142.284 97.656 C 141.891 98.065,141.331 98.400,141.039 98.400 C 140.748 98.400,139.831 98.940,139.000 99.600 C 138.169 100.260,137.251 100.800,136.959 100.800 C 136.667 100.800,136.242 101.148,136.014 101.573 C 135.787 101.998,135.196 102.472,134.700 102.627 C 133.887 102.881,133.119 103.436,130.037 105.999 C 129.507 106.440,128.883 106.800,128.651 106.800 C 128.418 106.800,127.862 107.151,127.414 107.581 C 124.914 109.978,121.449 113.048,120.886 113.365 C 119.962 113.886,116.326 117.635,112.910 121.589 C 111.300 123.453,109.717 125.127,109.391 125.309 C 109.066 125.491,108.800 125.886,108.800 126.186 C 108.800 126.486,108.441 127.152,108.003 127.666 C 106.028 129.980,104.407 132.241,104.404 132.686 C 104.402 132.953,104.040 133.365,103.600 133.600 C 103.160 133.835,102.800 134.354,102.800 134.752 C 102.800 135.150,102.421 135.819,101.957 136.238 C 101.494 136.657,100.850 137.661,100.526 138.469 C 100.203 139.277,99.705 140.028,99.420 140.137 C 99.136 140.246,98.778 140.833,98.625 141.441 C 98.473 142.049,97.910 143.067,97.374 143.704 C 96.838 144.340,96.400 145.306,96.400 145.850 C 96.400 146.393,95.978 147.235,95.462 147.719 C 94.929 148.220,94.417 149.290,94.275 150.200 C 94.137 151.080,93.702 152.070,93.309 152.400 C 92.915 152.730,92.374 154.057,92.108 155.348 C 91.841 156.639,91.339 157.902,90.994 158.155 C 90.623 158.426,90.219 159.653,90.008 161.145 C 89.780 162.758,89.400 163.858,88.961 164.179 C 88.498 164.517,88.164 165.572,87.947 167.378 C 87.768 168.860,87.325 170.642,86.963 171.336 C 86.584 172.063,86.165 174.261,85.978 176.507 C 85.768 179.016,85.392 180.877,84.927 181.707 C 83.896 183.545,83.587 213.204,84.577 215.302 C 85.360 216.962,85.995 220.337,86.018 222.955 C 86.027 224.080,86.317 225.720,86.662 226.600 C 87.006 227.480,87.595 229.280,87.970 230.600 C 88.345 231.920,88.967 233.720,89.352 234.600 C 89.737 235.480,90.152 236.740,90.275 237.400 C 90.397 238.060,90.720 238.960,90.992 239.400 C 91.264 239.840,91.780 241.211,92.139 242.448 C 92.498 243.684,93.044 244.904,93.352 245.160 C 93.659 245.415,94.116 246.436,94.365 247.428 C 94.615 248.421,95.083 249.334,95.406 249.457 C 95.728 249.581,96.189 250.429,96.431 251.341 C 96.673 252.254,97.196 253.360,97.593 253.800 C 97.989 254.240,98.438 255.186,98.589 255.903 C 98.741 256.620,99.210 257.391,99.633 257.617 C 100.055 257.843,100.400 258.260,100.400 258.543 C 100.400 258.826,100.935 259.765,101.589 260.629 C 102.243 261.493,102.783 262.426,102.789 262.703 C 102.795 262.979,103.250 263.597,103.800 264.075 C 104.350 264.553,104.800 265.093,104.800 265.274 C 104.800 265.675,108.797 271.069,109.963 272.242 C 110.423 272.705,110.800 273.213,110.800 273.371 C 110.800 273.760,113.825 276.970,118.400 281.435 C 120.490 283.475,122.657 285.606,123.215 286.172 C 123.773 286.737,124.447 287.200,124.712 287.200 C 124.977 287.200,125.418 287.560,125.693 288.000 C 125.968 288.440,126.402 288.800,126.658 288.800 C 127.091 288.800,129.548 290.609,131.390 292.282 C 131.825 292.677,132.635 293.223,133.190 293.495 C 133.746 293.767,135.010 294.615,136.000 295.380 C 136.990 296.144,138.520 297.145,139.400 297.605 C 142.174 299.053,143.420 299.800,144.581 300.713 C 145.201 301.201,146.009 301.600,146.376 301.600 C 146.744 301.600,147.655 302.050,148.400 302.600 C 149.145 303.150,150.247 303.600,150.847 303.600 C 151.447 303.600,152.447 304.027,153.069 304.549 C 153.691 305.071,154.984 305.630,155.942 305.792 C 156.901 305.953,158.002 306.402,158.390 306.790 C 158.779 307.179,160.221 307.694,161.596 307.936 C 162.970 308.179,164.298 308.641,164.547 308.964 C 164.829 309.330,166.055 309.644,167.800 309.797 C 171.706 310.139,172.670 310.361,173.246 311.055 C 173.661 311.555,174.886 311.646,180.373 311.581 C 188.209 311.490,202.968 312.232,205.334 312.837 C 210.595 314.183,215.599 314.258,218.760 313.041 C 219.728 312.668,222.109 312.216,224.052 312.037 C 225.995 311.858,227.813 311.543,228.092 311.339 C 228.788 310.829,231.072 310.104,233.000 309.779 C 233.880 309.631,234.960 309.288,235.400 309.016 C 235.840 308.744,237.190 308.296,238.400 308.020 C 239.610 307.744,241.490 307.086,242.579 306.559 C 243.667 306.032,244.857 305.600,245.225 305.600 C 245.592 305.600,246.369 305.225,246.952 304.766 C 247.535 304.307,248.682 303.747,249.500 303.521 C 250.318 303.295,251.404 302.783,251.912 302.383 C 252.421 301.983,253.369 301.539,254.019 301.396 C 254.668 301.253,255.200 300.962,255.200 300.748 C 255.200 300.534,255.873 300.078,256.697 299.734 C 257.520 299.390,258.704 298.679,259.327 298.154 C 259.951 297.629,260.764 297.200,261.134 297.200 C 261.505 297.200,262.032 296.840,262.307 296.400 C 262.582 295.960,263.042 295.600,263.329 295.600 C 263.616 295.600,264.368 295.060,265.000 294.400 C 265.632 293.740,266.357 293.200,266.611 293.200 C 267.063 293.200,267.970 292.520,270.476 290.300 C 271.160 289.695,271.831 289.200,271.967 289.200 C 272.104 289.200,273.293 288.210,274.608 287.000 C 275.924 285.791,277.315 284.699,277.700 284.573 C 278.085 284.448,278.400 284.084,278.400 283.764 C 278.400 283.445,278.835 282.985,279.366 282.743 C 279.897 282.501,280.424 281.951,280.536 281.522 C 280.649 281.092,281.092 280.649,281.522 280.536 C 281.951 280.424,282.501 279.897,282.743 279.366 C 282.985 278.835,283.457 278.400,283.791 278.400 C 284.126 278.400,284.400 278.156,284.400 277.858 C 284.400 277.561,284.805 276.864,285.300 276.310 C 287.683 273.643,291.200 269.187,291.200 268.835 C 291.200 268.618,291.486 268.280,291.835 268.084 C 292.185 267.889,292.860 267.091,293.335 266.311 C 295.164 263.313,296.425 261.600,296.805 261.600 C 297.022 261.600,297.200 261.254,297.200 260.831 C 297.200 260.408,297.650 259.527,298.200 258.873 C 298.750 258.219,299.200 257.499,299.200 257.273 C 299.200 257.047,299.624 256.353,300.142 255.731 C 300.660 255.109,301.299 253.941,301.561 253.135 C 301.824 252.330,302.282 251.577,302.579 251.463 C 302.877 251.349,303.242 250.535,303.391 249.654 C 303.540 248.772,304.008 247.651,304.432 247.163 C 304.856 246.674,305.399 245.537,305.638 244.637 C 305.877 243.737,306.395 242.460,306.788 241.800 C 307.181 241.140,307.722 239.654,307.991 238.499 C 308.260 237.343,308.624 236.309,308.800 236.200 C 308.975 236.092,309.416 234.667,309.780 233.034 C 310.143 231.401,310.701 229.848,311.020 229.583 C 311.348 229.311,311.608 228.386,311.618 227.451 C 311.639 225.416,312.398 222.534,313.262 221.200 C 313.770 220.416,313.970 218.599,314.185 212.800 C 314.414 206.621,314.581 205.202,315.198 204.200 C 316.226 202.533,315.892 195.092,314.738 193.938 C 313.960 193.160,313.652 188.331,313.923 181.133 C 313.997 179.166,313.838 177.587,313.480 176.729 C 313.172 175.993,312.603 173.593,312.214 171.396 C 311.826 169.198,311.176 166.500,310.771 165.400 C 310.365 164.300,309.913 162.680,309.766 161.800 C 309.619 160.920,309.274 159.930,309.000 159.600 C 308.726 159.270,308.271 158.014,307.989 156.810 C 307.708 155.605,307.229 154.372,306.926 154.069 C 306.623 153.766,306.161 152.718,305.899 151.740 C 305.638 150.762,305.129 149.645,304.769 149.258 C 304.408 148.871,303.882 147.845,303.598 146.977 C 303.315 146.110,302.750 144.971,302.342 144.446 C 301.934 143.921,301.600 143.260,301.600 142.977 C 301.600 142.693,301.150 141.927,300.600 141.273 C 300.050 140.619,299.600 139.899,299.600 139.673 C 299.600 139.447,299.162 138.740,298.626 138.104 C 298.090 137.467,297.534 136.476,297.390 135.902 C 297.246 135.328,296.866 134.757,296.546 134.635 C 296.226 134.512,295.700 133.779,295.377 133.006 C 295.054 132.233,294.616 131.600,294.405 131.600 C 294.194 131.600,293.721 131.015,293.354 130.300 C 292.723 129.069,291.902 127.946,289.884 125.552 C 289.398 124.976,288.198 123.536,287.218 122.352 C 284.823 119.461,276.176 110.800,275.684 110.800 C 275.468 110.800,274.997 110.350,274.637 109.800 C 274.276 109.250,273.717 108.800,273.394 108.800 C 273.071 108.800,272.582 108.440,272.307 108.000 C 272.032 107.560,271.612 107.200,271.374 107.200 C 271.135 107.200,270.503 106.733,269.970 106.162 C 269.436 105.591,268.460 104.847,267.800 104.508 C 267.140 104.169,266.456 103.646,266.280 103.346 C 266.104 103.046,265.604 102.800,265.168 102.800 C 264.732 102.800,264.268 102.522,264.138 102.181 C 264.007 101.841,263.023 101.118,261.950 100.575 C 260.878 100.031,260.000 99.422,260.000 99.220 C 260.000 99.019,259.595 98.731,259.100 98.581 C 258.605 98.431,257.840 97.982,257.400 97.584 C 256.960 97.185,256.060 96.729,255.400 96.569 C 254.740 96.409,253.691 95.856,253.069 95.339 C 252.447 94.823,251.634 94.400,251.262 94.400 C 250.890 94.400,249.959 93.984,249.193 93.476 C 248.427 92.968,246.990 92.321,246.000 92.037 C 245.010 91.753,243.930 91.292,243.600 91.011 C 243.270 90.731,242.280 90.373,241.400 90.217 C 240.520 90.060,239.503 89.666,239.139 89.340 C 238.776 89.014,237.337 88.481,235.941 88.156 C 234.546 87.830,232.998 87.297,232.501 86.972 C 232.004 86.646,230.249 86.209,228.600 86.000 C 226.951 85.791,225.190 85.350,224.687 85.020 C 224.073 84.618,221.358 84.210,216.461 83.784 C 212.440 83.434,208.419 82.889,207.525 82.574 C 205.874 81.991,194.416 81.718,193.885 82.248 M169.171 89.585 C 170.180 90.124,171.323 93.586,174.128 104.600 C 175.475 109.890,176.332 113.122,177.414 117.000 C 177.906 118.760,179.063 123.080,179.987 126.600 C 181.541 132.525,182.121 134.517,184.353 141.600 C 184.804 143.030,185.442 145.370,185.772 146.800 C 186.102 148.230,186.918 151.239,187.586 153.487 C 188.254 155.735,188.800 157.850,188.800 158.187 C 188.800 158.972,189.788 158.968,194.704 158.160 C 209.685 155.697,225.890 162.830,234.156 175.526 C 235.998 178.354,239.200 184.675,239.200 185.481 C 239.200 187.167,240.466 187.152,246.600 185.394 C 249.900 184.448,255.840 182.771,259.800 181.666 C 263.760 180.562,269.970 178.811,273.600 177.774 C 277.230 176.738,281.460 175.576,283.000 175.192 C 286.817 174.241,298.271 170.998,302.254 169.740 C 307.319 168.140,307.573 168.356,309.165 175.600 C 313.786 196.628,311.695 217.857,302.662 241.600 C 290.909 272.496,260.184 298.346,225.200 306.773 C 210.918 310.213,199.085 310.663,182.140 308.412 C 176.512 307.664,162.108 303.460,157.374 301.182 C 156.479 300.752,155.622 300.400,155.468 300.400 C 154.990 300.400,145.080 295.371,143.563 294.359 C 142.772 293.832,141.379 292.950,140.466 292.400 C 131.503 287.000,120.276 277.170,113.967 269.200 C 110.753 265.139,108.400 262.009,108.400 261.794 C 108.400 261.669,107.710 260.629,106.866 259.483 C 104.839 256.731,99.145 246.184,97.643 242.400 C 93.500 231.962,93.031 230.553,93.160 228.900 C 93.249 227.757,93.142 227.600,92.275 227.600 C 90.344 227.600,89.580 226.470,89.162 222.994 C 88.951 221.237,88.507 219.105,88.175 218.256 C 86.125 213.011,86.108 182.409,88.153 177.898 C 88.476 177.184,88.935 175.083,89.172 173.228 C 89.408 171.374,89.857 169.467,90.168 168.992 C 90.480 168.517,90.955 166.974,91.224 165.564 C 91.493 164.154,91.954 162.550,92.249 162.000 C 92.841 160.897,94.076 157.776,95.247 154.428 C 95.665 153.233,96.255 151.973,96.559 151.628 C 96.862 151.283,97.231 150.434,97.378 149.741 C 97.525 149.049,97.985 148.176,98.400 147.800 C 98.815 147.424,99.271 146.588,99.413 145.941 C 99.555 145.294,100.105 144.296,100.636 143.724 C 101.166 143.151,101.600 142.411,101.600 142.079 C 101.600 141.747,102.050 140.886,102.600 140.164 C 103.150 139.443,103.600 138.733,103.600 138.587 C 103.600 138.147,106.889 133.200,107.182 133.200 C 107.330 133.200,107.752 132.570,108.119 131.800 C 108.487 131.030,108.970 130.400,109.194 130.400 C 109.417 130.400,109.600 130.158,109.600 129.861 C 109.600 129.565,109.970 128.890,110.422 128.361 C 110.874 127.833,111.909 126.621,112.722 125.670 C 113.535 124.718,115.190 122.899,116.400 121.627 C 117.610 120.355,119.256 118.613,120.057 117.757 C 120.859 116.901,121.759 115.980,122.057 115.711 C 122.356 115.442,122.780 115.047,123.000 114.832 C 123.355 114.486,124.276 113.670,127.000 111.285 C 127.440 110.900,128.676 109.958,129.748 109.192 C 130.819 108.426,132.099 107.395,132.593 106.900 C 133.087 106.405,133.669 106.000,133.887 106.000 C 134.104 106.000,134.841 105.465,135.525 104.812 C 136.209 104.158,137.213 103.512,137.755 103.375 C 138.298 103.239,138.839 102.874,138.959 102.564 C 139.078 102.254,139.426 102.000,139.732 102.000 C 140.039 102.000,140.969 101.460,141.800 100.800 C 142.631 100.140,143.621 99.600,144.000 99.600 C 144.379 99.600,145.369 99.060,146.200 98.400 C 147.031 97.740,148.125 97.200,148.631 97.200 C 149.138 97.200,149.676 97.000,149.828 96.755 C 149.979 96.511,151.053 95.890,152.214 95.377 C 153.376 94.863,154.435 94.267,154.568 94.052 C 154.701 93.837,155.392 93.538,156.105 93.388 C 156.817 93.237,157.948 92.781,158.618 92.375 C 159.289 91.968,160.639 91.516,161.618 91.371 C 162.598 91.225,163.850 90.812,164.400 90.453 C 166.412 89.139,167.850 88.878,169.171 89.585 M9.120 135.800 C 8.969 150.540,8.846 163.500,8.846 164.600 C 8.846 165.700,8.969 178.660,9.120 193.400 L 9.394 220.200 9.676 193.400 C 9.830 178.660,9.957 165.700,9.957 164.600 C 9.957 163.500,9.830 150.540,9.676 135.800 L 9.394 109.000 9.120 135.800 M197.400 168.830 C 191.005 169.445,183.898 172.970,179.464 177.724 C 166.702 191.410,169.136 212.389,184.676 222.655 C 204.148 235.518,230.000 221.497,230.000 198.074 C 230.000 187.011,225.331 179.097,214.760 172.240 C 210.798 169.670,203.521 168.240,197.400 168.830 M204.960 187.585 C 206.634 188.221,209.980 191.591,211.122 193.792 C 216.345 203.849,202.239 214.263,193.631 206.705 C 184.021 198.268,193.038 183.052,204.960 187.585 M9.274 281.430 C 9.230 282.154,8.788 283.047,8.200 283.600 C 7.116 284.618,6.905 285.946,7.700 286.739 C 8.453 287.491,8.958 293.939,8.824 301.100 C 8.813 301.705,8.930 303.460,9.084 305.000 L 9.365 307.800 9.688 305.000 C 9.866 303.460,9.999 301.705,9.984 301.100 C 9.916 298.453,10.008 293.841,10.219 289.300 C 10.367 286.128,10.305 284.400,10.044 284.400 C 9.823 284.400,9.576 283.455,9.495 282.300 C 9.414 281.145,9.315 280.754,9.274 281.430 M387.300 288.282 C 386.652 288.407,386.400 288.737,386.400 289.457 C 386.400 290.834,387.646 290.562,388.037 289.100 C 388.198 288.495,388.301 288.025,388.265 288.054 C 388.229 288.084,387.795 288.187,387.300 288.282 M387.793 292.155 C 387.052 293.929,387.039 295.227,387.754 296.205 C 388.174 296.779,388.205 297.191,387.881 297.901 C 387.572 298.581,387.584 299.201,387.927 300.148 C 388.211 300.933,388.433 304.327,388.483 308.628 L 388.566 315.800 388.820 308.200 C 388.960 304.020,389.210 300.125,389.375 299.545 C 389.546 298.948,389.493 298.147,389.254 297.700 C 388.910 297.057,389.014 296.738,389.815 295.985 C 391.257 294.631,391.159 292.710,389.593 291.595 L 388.386 290.736 387.793 292.155 M9.232 312.476 C 9.214 313.068,9.354 313.648,9.541 313.764 C 9.729 313.880,9.984 315.314,10.108 316.951 C 10.325 319.820,10.877 321.600,11.550 321.600 C 12.725 321.600,13.284 316.099,12.200 315.200 C 11.870 314.926,11.600 314.184,11.600 313.551 C 11.600 312.601,11.432 312.400,10.633 312.400 C 10.102 312.400,9.576 312.175,9.465 311.900 C 9.354 311.625,9.249 311.884,9.232 312.476 M386.070 319.290 C 385.471 319.889,385.457 324.185,386.050 325.293 C 386.499 326.133,386.501 326.133,387.036 325.167 C 388.262 322.955,387.435 317.925,386.070 319.290 M11.781 326.100 C 11.931 326.595,12.187 328.800,12.349 331.000 C 12.533 333.504,12.879 335.374,13.275 336.000 C 13.623 336.550,14.027 338.258,14.175 339.797 C 14.361 341.745,14.678 342.845,15.221 343.422 C 15.696 343.928,16.000 344.815,16.000 345.695 C 16.000 346.633,16.334 347.536,16.954 348.273 C 17.624 349.068,18.045 350.300,18.366 352.403 C 18.907 355.943,20.902 360.425,22.942 362.683 C 23.728 363.553,24.737 365.121,25.186 366.168 C 25.638 367.222,26.966 369.012,28.162 370.180 C 29.350 371.340,30.613 372.852,30.969 373.541 C 31.325 374.229,32.288 375.136,33.108 375.557 C 33.929 375.978,35.050 376.810,35.600 377.405 C 36.150 378.001,37.535 378.919,38.677 379.446 C 39.820 379.972,40.857 380.569,40.983 380.772 C 41.108 380.975,41.884 381.352,42.706 381.609 C 43.528 381.866,44.560 382.494,45.000 383.004 C 46.030 384.198,49.441 386.000,50.672 386.000 C 51.195 386.000,52.693 386.450,54.000 387.000 C 55.307 387.550,56.696 388.003,57.088 388.006 C 57.480 388.009,58.250 388.274,58.800 388.595 C 61.247 390.023,62.786 390.543,65.400 390.826 C 66.940 390.992,69.280 391.429,70.600 391.796 C 71.920 392.163,74.260 392.613,75.800 392.797 C 77.340 392.981,79.590 393.423,80.800 393.779 C 82.313 394.224,85.148 394.478,89.883 394.593 C 95.154 394.721,96.984 394.902,97.696 395.368 C 100.053 396.913,211.549 398.949,243.984 398.041 C 279.685 397.040,299.145 396.128,300.253 395.402 C 300.945 394.948,302.713 394.743,307.093 394.606 C 313.988 394.390,317.851 393.965,319.074 393.285 C 319.554 393.018,320.746 392.800,321.723 392.800 C 322.700 392.800,324.916 392.420,326.649 391.956 C 328.382 391.492,331.060 390.966,332.600 390.787 C 335.928 390.401,339.788 389.474,340.494 388.890 C 340.772 388.660,342.170 388.169,343.600 387.800 C 345.030 387.431,346.392 386.970,346.626 386.777 C 346.860 386.584,348.120 386.166,349.426 385.850 C 352.290 385.156,357.358 382.678,358.739 381.298 C 359.289 380.747,360.653 379.841,361.770 379.284 C 364.618 377.863,373.997 368.334,374.007 366.852 C 374.011 366.251,374.451 365.385,375.035 364.831 C 375.597 364.298,376.515 362.948,377.074 361.831 C 377.633 360.714,378.323 359.530,378.605 359.200 C 379.428 358.240,381.528 352.378,381.805 350.271 C 381.957 349.107,382.363 348.081,382.829 347.683 C 383.466 347.137,383.600 346.489,383.600 343.942 C 383.600 341.282,383.730 340.707,384.551 339.731 C 385.951 338.066,386.630 334.404,385.826 332.850 C 385.105 331.456,384.315 330.855,384.090 331.529 C 384.004 331.788,383.588 332.000,383.167 332.000 C 382.561 332.000,382.400 332.286,382.400 333.367 C 382.400 335.252,382.047 336.000,381.157 336.000 C 380.480 336.000,380.399 336.330,380.387 339.100 C 380.375 342.110,379.656 344.261,379.011 343.217 C 378.417 342.256,378.000 343.401,378.000 345.995 C 378.000 348.652,377.452 350.000,376.371 350.000 C 376.167 350.000,376.000 350.622,376.000 351.381 C 376.000 353.047,375.263 354.800,374.562 354.800 C 374.282 354.800,373.996 355.295,373.927 355.900 C 373.839 356.665,373.541 357.037,372.952 357.121 C 372.313 357.212,372.018 357.655,371.752 358.921 C 371.510 360.074,371.118 360.724,370.500 360.995 C 370.005 361.212,369.600 361.711,369.600 362.103 C 369.600 362.496,369.150 363.022,368.600 363.273 C 368.050 363.523,367.600 364.056,367.600 364.457 C 367.600 364.900,367.208 365.283,366.597 365.437 C 365.988 365.589,365.499 366.065,365.353 366.644 C 365.216 367.191,364.817 367.600,364.421 367.600 C 364.040 367.600,363.523 368.050,363.273 368.600 C 362.962 369.282,362.496 369.600,361.809 369.600 C 361.254 369.600,360.800 369.799,360.800 370.043 C 360.800 370.286,360.536 370.384,360.213 370.260 C 359.890 370.136,359.519 370.207,359.389 370.417 C 359.259 370.628,359.388 370.807,359.676 370.816 C 359.964 370.825,359.701 371.103,359.091 371.434 C 358.480 371.765,357.805 371.927,357.591 371.794 C 357.376 371.661,357.200 371.887,357.200 372.296 C 357.200 373.475,356.374 374.000,354.520 374.000 C 353.107 374.000,352.800 374.133,352.800 374.748 C 352.800 375.532,351.231 375.986,348.490 375.996 C 347.463 375.999,347.098 376.216,346.800 377.000 C 346.442 377.943,346.250 378.000,343.453 378.000 C 340.669 378.000,340.472 378.058,340.250 378.945 C 339.972 380.049,338.272 380.400,333.191 380.400 C 330.516 380.400,330.067 380.501,329.900 381.138 C 329.699 381.909,327.543 382.400,324.364 382.400 C 323.463 382.400,322.709 382.633,322.520 382.969 C 322.197 383.542,321.233 383.645,310.671 384.232 C 307.308 384.419,306.388 384.591,306.546 385.003 C 306.928 385.999,305.386 386.091,285.400 386.266 C 273.060 386.374,265.348 386.589,265.264 386.828 C 264.692 388.458,266.780 388.400,208.797 388.400 C 153.593 388.400,151.600 388.352,151.600 387.010 C 151.600 386.474,149.689 386.396,135.900 386.369 C 92.970 386.286,90.537 386.196,91.450 384.719 C 91.558 384.544,89.667 384.400,87.247 384.400 C 84.745 384.400,82.741 384.227,82.600 384.000 C 82.464 383.780,81.928 383.600,81.410 383.600 C 80.891 383.600,80.403 383.409,80.325 383.175 C 80.225 382.875,79.855 382.875,79.066 383.175 C 77.594 383.734,74.800 383.723,74.800 383.157 C 74.800 382.914,74.542 382.814,74.226 382.935 C 73.910 383.056,73.595 382.996,73.526 382.802 C 73.393 382.430,71.766 382.088,69.863 382.033 C 69.078 382.010,68.660 381.752,68.516 381.200 C 68.336 380.514,67.958 380.396,65.853 380.373 C 60.985 380.319,59.600 379.974,59.600 378.813 C 59.600 378.063,59.350 378.000,56.397 378.000 C 53.480 378.000,53.117 377.911,52.325 377.000 C 51.847 376.450,51.061 376.000,50.578 376.000 C 48.618 376.000,47.200 375.497,47.200 374.801 C 47.200 374.296,46.761 374.032,45.619 373.849 C 44.749 373.710,43.553 373.147,42.960 372.598 C 42.368 372.049,41.639 371.600,41.342 371.600 C 41.044 371.600,40.800 371.420,40.800 371.200 C 40.800 370.980,40.511 370.800,40.157 370.800 C 39.761 370.800,39.600 370.578,39.736 370.223 C 39.900 369.795,39.574 369.614,38.479 369.523 C 37.295 369.425,36.974 369.220,36.872 368.500 C 36.780 367.849,36.476 367.600,35.772 367.600 C 35.009 367.600,34.800 367.391,34.800 366.628 C 34.800 365.924,34.551 365.620,33.900 365.528 C 33.405 365.458,32.825 365.002,32.612 364.516 C 32.399 364.030,31.859 363.580,31.412 363.516 C 30.866 363.438,30.559 363.048,30.476 362.325 C 30.389 361.572,30.089 361.212,29.476 361.125 C 28.930 361.047,28.553 360.670,28.475 360.125 C 28.398 359.579,28.021 359.202,27.475 359.125 C 26.782 359.026,26.525 358.611,26.239 357.131 C 26.002 355.906,25.641 355.199,25.191 355.082 C 24.732 354.962,24.388 354.258,24.150 352.951 C 23.862 351.366,23.627 350.976,22.898 350.872 C 22.108 350.760,22.000 350.510,22.000 348.800 C 22.000 347.088,21.892 346.840,21.100 346.728 C 20.254 346.608,20.193 346.386,20.084 343.058 C 19.976 339.764,19.913 339.530,19.184 339.720 C 18.669 339.855,18.400 339.724,18.400 339.339 C 18.400 339.002,18.612 338.860,18.900 339.006 C 19.175 339.145,19.085 339.001,18.700 338.686 C 18.315 338.370,18.000 337.710,18.000 337.218 C 18.000 336.667,17.699 336.246,17.214 336.120 C 15.820 335.755,14.800 333.427,14.800 330.610 C 14.800 329.028,14.624 328.008,14.333 327.911 C 14.077 327.826,13.867 327.181,13.867 326.478 C 13.867 325.330,13.747 325.200,12.687 325.200 C 11.649 325.200,11.540 325.308,11.781 326.100 M15.709 331.600 C 15.709 332.590,15.787 332.995,15.882 332.500 C 15.978 332.005,15.978 331.195,15.882 330.700 C 15.787 330.205,15.709 330.610,15.709 331.600 " stroke="none" fill="#57ab44" fill-rule="evenodd"></path><path id="path3" d="M302.000 169.792 C 298.580 170.910,287.180 174.151,283.000 175.192 C 281.460 175.576,277.230 176.736,273.600 177.771 C 267.020 179.646,260.694 181.425,247.800 185.026 C 239.764 187.271,240.235 186.972,241.034 189.318 C 241.939 191.973,241.716 206.392,240.743 208.200 C 240.387 208.860,239.964 210.030,239.803 210.800 C 237.755 220.555,225.996 232.722,214.644 236.829 C 210.245 238.421,209.506 239.624,211.173 242.477 C 211.599 243.205,212.665 246.590,213.544 250.000 C 215.182 256.360,216.740 261.890,217.812 265.153 C 218.145 266.169,219.217 269.981,220.193 273.624 C 221.168 277.267,222.050 280.507,222.151 280.824 C 222.364 281.492,224.586 289.677,226.414 296.533 C 227.108 299.137,227.972 301.783,228.333 302.413 C 228.872 303.352,228.908 303.779,228.530 304.779 C 227.976 306.247,227.880 306.240,231.830 305.021 C 264.038 295.073,291.765 270.247,302.662 241.600 C 311.625 218.040,313.837 195.802,309.208 175.800 C 308.800 174.040,308.350 172.027,308.208 171.328 C 307.704 168.857,306.083 168.456,302.000 169.792 M287.268 192.792 C 289.687 195.751,289.310 210.772,286.578 220.312 C 284.872 226.269,280.648 234.948,277.385 239.200 C 276.626 240.190,275.562 241.657,275.022 242.460 C 273.482 244.751,268.779 249.335,266.077 251.179 C 261.573 254.254,261.714 251.678,266.330 246.574 C 269.284 243.308,273.905 237.152,275.200 234.758 C 279.207 227.349,280.118 224.821,282.248 215.200 C 283.266 210.600,283.299 200.014,282.305 196.883 C 280.959 192.643,284.655 189.597,287.268 192.792 M277.420 193.059 C 281.576 197.544,279.720 215.551,273.922 227.000 C 270.043 234.659,259.622 246.400,256.704 246.400 C 256.405 246.400,255.947 246.613,255.687 246.873 C 253.371 249.189,256.020 244.024,258.593 241.206 C 265.315 233.844,268.419 228.509,271.398 219.200 C 272.712 215.095,273.290 203.374,272.394 199.000 C 271.482 194.550,271.482 194.257,272.396 193.095 C 273.600 191.566,276.019 191.548,277.420 193.059 " stroke="none" fill="#e46e26" fill-rule="evenodd"></path><path id="path4" d="M191.294 158.683 C 190.796 158.779,190.483 159.011,190.599 159.199 C 190.716 159.387,191.373 159.380,192.060 159.183 C 194.333 158.531,193.822 158.197,191.294 158.683 M238.991 196.916 C 238.999 206.444,238.915 207.962,238.333 208.852 C 237.966 209.413,237.455 210.666,237.199 211.636 C 236.582 213.969,234.662 217.767,232.970 220.000 C 232.221 220.990,231.291 222.250,230.904 222.800 C 230.030 224.042,225.943 228.063,224.541 229.060 C 220.637 231.836,215.439 234.570,213.202 235.023 C 212.433 235.179,210.886 235.778,209.763 236.353 L 207.722 237.400 199.961 237.142 C 193.063 236.913,191.844 236.766,189.000 235.829 C 185.206 234.578,180.340 232.291,179.617 231.420 C 179.334 231.079,178.934 230.800,178.728 230.800 C 177.716 230.800,171.936 225.580,170.099 223.008 C 169.310 221.904,168.459 220.820,168.206 220.600 C 167.954 220.380,167.463 219.660,167.117 219.000 C 166.770 218.340,165.937 216.772,165.264 215.517 C 164.592 214.261,163.819 212.488,163.546 211.576 C 162.611 208.456,162.034 208.392,154.800 210.604 C 152.930 211.176,148.160 212.537,144.200 213.628 C 140.240 214.719,135.110 216.153,132.800 216.815 C 130.490 217.478,126.980 218.452,125.000 218.981 C 120.865 220.085,116.012 221.448,110.000 223.192 C 107.690 223.863,104.204 224.775,102.254 225.219 C 100.304 225.663,98.234 226.272,97.654 226.572 C 97.074 226.871,95.813 227.328,94.852 227.586 L 93.104 228.057 93.375 230.095 C 93.624 231.974,94.455 234.369,97.643 242.400 C 99.145 246.184,104.839 256.731,106.866 259.483 C 107.710 260.629,108.400 261.669,108.400 261.794 C 108.400 262.009,110.753 265.139,113.967 269.200 C 121.509 278.727,134.942 289.842,145.918 295.637 C 146.643 296.019,147.453 296.491,147.718 296.684 C 147.983 296.878,150.090 297.897,152.400 298.950 C 154.710 300.002,157.140 301.116,157.800 301.424 C 162.327 303.539,176.854 307.710,182.140 308.412 C 196.368 310.302,201.819 310.369,213.800 308.803 C 227.168 307.055,230.554 305.506,228.253 302.189 C 227.951 301.755,227.130 299.240,226.428 296.600 C 224.673 290.002,222.374 281.521,222.151 280.824 C 222.050 280.507,221.168 277.267,220.193 273.624 C 219.217 269.981,218.145 266.169,217.812 265.153 C 216.740 261.890,215.182 256.360,213.544 250.000 C 212.665 246.590,211.599 243.205,211.173 242.477 C 209.506 239.624,210.245 238.421,214.644 236.829 C 225.996 232.722,237.755 220.555,239.803 210.800 C 239.964 210.030,240.387 208.860,240.743 208.200 C 242.377 205.164,241.742 188.827,239.898 186.500 C 239.060 185.441,238.983 186.320,238.991 196.916 M283.118 192.071 C 281.831 193.069,281.575 194.583,282.305 196.883 C 285.075 205.609,281.947 222.285,275.200 234.758 C 273.905 237.152,269.284 243.308,266.330 246.574 C 261.714 251.678,261.573 254.254,266.077 251.179 C 268.779 249.335,273.482 244.751,275.022 242.460 C 275.562 241.657,276.626 240.190,277.385 239.200 C 285.814 228.215,290.970 207.758,288.368 195.624 C 287.665 192.346,285.049 190.575,283.118 192.071 M272.396 193.095 C 271.482 194.257,271.482 194.550,272.394 199.000 C 273.290 203.374,272.712 215.095,271.398 219.200 C 268.419 228.509,265.315 233.844,258.593 241.206 C 256.020 244.024,253.371 249.189,255.687 246.873 C 255.947 246.613,256.405 246.400,256.704 246.400 C 259.622 246.400,270.043 234.659,273.922 227.000 C 278.826 217.315,280.941 203.646,278.785 195.559 C 277.864 192.105,274.267 190.718,272.396 193.095 M276.173 194.756 C 277.688 197.208,277.154 212.430,275.359 217.951 C 274.832 219.574,274.400 221.139,274.400 221.427 C 274.400 221.716,274.195 222.079,273.945 222.234 C 273.165 222.716,273.723 216.220,274.532 215.411 C 275.623 214.319,275.507 201.046,274.378 197.833 C 273.925 196.546,273.650 195.247,273.765 194.947 C 273.998 194.340,275.827 194.196,276.173 194.756 M285.475 194.714 C 286.696 195.491,287.527 209.833,286.450 211.534 C 285.841 212.494,285.600 210.964,285.590 206.067 C 285.585 203.500,285.393 200.680,285.164 199.800 C 283.857 194.785,283.921 193.726,285.475 194.714 M284.596 220.755 C 284.282 221.574,283.534 220.518,283.777 219.600 C 283.864 219.270,284.085 217.740,284.268 216.200 L 284.600 213.400 284.717 216.767 C 284.782 218.618,284.727 220.413,284.596 220.755 M272.473 225.120 C 272.159 226.637,271.342 226.705,271.514 225.200 C 271.695 223.620,271.987 223.027,272.386 223.433 C 272.585 223.635,272.624 224.394,272.473 225.120 M282.436 226.693 C 282.110 227.253,282.022 227.018,282.012 225.567 C 282.005 224.558,282.135 223.596,282.300 223.429 C 282.772 222.950,282.895 225.905,282.436 226.693 M269.876 229.900 C 269.775 230.285,269.693 229.970,269.693 229.200 C 269.693 228.430,269.775 228.115,269.876 228.500 C 269.976 228.885,269.976 229.515,269.876 229.900 " stroke="none" fill="#ed2c76" fill-rule="evenodd"></path></g></svg>